<?xml version="1.0" encoding="UTF-8"?>
<svg id="Layer_1" xmlns="http://www.w3.org/2000/svg" viewBox="0 0 64 64">
  <defs>
    <style>
      .cls-1 {
        fill: #231f20;
      }
    </style>
  </defs>
  <path class="cls-1" d="M13.76,30.24c-.01,3.79-3.09,6.86-6.88,6.88-3.79,0-6.87-3.06-6.88-6.85,0-1.83.73-3.59,2.02-4.88,2.51-2.53,6.54-2.71,9.27-.41.38.32.44.89.12,1.28-.32.38-.89.44-1.28.12-2.14-1.8-5.34-1.52-7.13.62-1.8,2.14-1.52,5.34.62,7.13,2.14,1.8,5.34,1.52,7.13-.62.57-.67.95-1.48,1.1-2.35h-4.99c-.5-.01-.9-.43-.88-.93.01-.48.4-.87.88-.88h5.97c.5,0,.9.4.91.9ZM15.53,23.35c-.5.01-.9.43-.88.93v11.94c0,.5.41.91.91.91.5,0,.91-.41.91-.91v-11.94s0-.03,0-.05c-.01-.5-.43-.9-.93-.88ZM28.19,31.56c0,3.21-2.6,5.81-5.81,5.81-.43-.01-.77-.37-.76-.8,0-.02.01-.04.01-.05-2.42-.36-4.29-2.43-4.29-4.96s1.87-4.6,4.29-4.96c0-.03-.02-.06-.02-.1.01-.41.34-.74.76-.76,3.21,0,5.81,2.6,5.81,5.81ZM22.38,34.78c1.78,0,3.22-1.44,3.22-3.22,0-1.78-1.44-3.22-3.22-3.22-1.78,0-3.22,1.44-3.22,3.22s1.44,3.22,3.22,3.22ZM39.48,31.56h0c0,2.53-1.87,4.6-4.29,4.96,0,.03.02.06.02.1-.01.41-.34.74-.76.76-3.21,0-5.81-2.6-5.81-5.81s2.6-5.81,5.81-5.81c.43.01.77.37.76.8,0,.02,0,.03-.01.05,2.42.36,4.29,2.43,4.29,4.96ZM37.66,31.56c0-1.78-1.44-3.22-3.22-3.22-1.78,0-3.22,1.44-3.22,3.22s1.44,3.22,3.22,3.22,3.22-1.44,3.22-3.22ZM44.46,26.61c-2.72.51-4.52,3.12-4.01,5.84.51,2.72,3.12,4.52,5.84,4.01.49-.09.81-.56.72-1.05-.09-.49-.56-.81-1.05-.72-.19.04-.39.05-.59.05-1.77,0-3.21-1.44-3.21-3.21,0-.28.04-.55.11-.82.37-1.41,1.64-2.39,3.1-2.39,1.77,0,3.2,1.44,3.2,3.21v4.11c0,.56-.15,1.12-.43,1.6-.89,1.52-2.84,2.05-4.38,1.17-.43-.25-.99-.1-1.23.33-.25.43-.1.99.33,1.23.75.44,1.61.67,2.48.67.44,0,.89-.06,1.32-.17,2.19-.58,3.72-2.57,3.72-4.83v-4.11c0-.31-.03-.61-.08-.92-.51-2.72-3.12-4.52-5.84-4.01ZM52.18,26.84c-.5,0-.91.3-.91.68v8.93c0,.37.41.68.91.68s.91-.3.91-.68v-8.93c0-.37-.41-.68-.91-.68ZM52.18,24.18c-.5,0-.91.41-.91.91s.41.91.91.91.91-.41.91-.91-.41-.91-.91-.91ZM63.92,30.65c-.51-2.72-3.12-4.52-5.84-4.01-2.72.51-4.52,3.12-4.01,5.84.51,2.72,3.12,4.52,5.84,4.01.49-.09.82-.56.72-1.05-.09-.49-.56-.82-1.05-.72-.19.04-.39.05-.58.05-1.77,0-3.21-1.43-3.21-3.21,0-.28.04-.55.11-.82.37-1.41,1.64-2.39,3.1-2.39,1.77,0,3.2,1.44,3.2,3.21v4.11h0c0,.5.4.9.9.9.5,0,.9-.4.9-.9v-4.11c0-.31-.03-.61-.08-.91Z"/>
</svg>