<?xml version="1.0" encoding="UTF-8"?>
<svg id="Layer_1" xmlns="http://www.w3.org/2000/svg" viewBox="0 0 64 64">
  <defs>
    <style>
      .cls-1 {
        fill: #f4c20d;
      }

      .cls-2 {
        fill: #4786ec;
      }
    </style>
  </defs>
  <path class="cls-1" d="M14.55,46.55c-8.02,0-14.55-6.53-14.55-14.55s6.53-14.55,14.55-14.55,14.55,6.53,14.55,14.55-6.53,14.55-14.55,14.55ZM14.55,22.69c-5.13,0-9.31,4.18-9.31,9.31s4.18,9.31,9.31,9.31,9.31-4.18,9.31-9.31-4.18-9.31-9.31-9.31h0Z"/>
  <path class="cls-2" d="M14.55,48.8c-1.24.06-2.3-.9-2.36-2.14-.06-1.24.9-2.3,2.14-2.36.07,0,.15,0,.22,0,6.78,0,12.3-5.52,12.3-12.31s-5.52-12.31-12.3-12.31c-1.24.06-2.3-.9-2.36-2.14s.9-2.3,2.14-2.36c.07,0,.15,0,.22,0,9.27,0,16.8,7.54,16.8,16.8s-7.53,16.8-16.8,16.8Z"/>
  <path class="cls-1" d="M49.45,46.55c-8.02,0-14.55-6.53-14.55-14.55s6.53-14.55,14.55-14.55,14.55,6.53,14.55,14.55-6.53,14.55-14.55,14.55ZM49.45,22.69c-5.13,0-9.31,4.18-9.31,9.31s4.18,9.31,9.31,9.31,9.31-4.18,9.31-9.31-4.18-9.31-9.31-9.31h0Z"/>
  <path class="cls-2" d="M49.45,48.8c-9.27,0-16.8-7.54-16.8-16.8s7.54-16.8,16.8-16.8c1.24-.06,2.3.9,2.36,2.14.06,1.24-.9,2.3-2.14,2.36-.07,0-.15,0-.22,0-6.78,0-12.3,5.52-12.3,12.31s5.52,12.31,12.3,12.31c1.24-.06,2.3.9,2.36,2.14.06,1.24-.9,2.3-2.14,2.36-.07,0-.15,0-.22,0h0Z"/>
</svg>