<?xml version="1.0" encoding="UTF-8"?>
<svg id="Layer_1" xmlns="http://www.w3.org/2000/svg" viewBox="0 0 64 64">
  <defs>
    <style>
      .cls-1 {
        fill: #231f20;
      }
    </style>
  </defs>
  <path class="cls-1" d="M14.55,15.2c-.07,0-.15,0-.22,0-1.24.06-2.2,1.12-2.14,2.36,0,.03.01.06.01.1-6.91,1.13-12.21,7.12-12.21,14.35s5.3,13.22,12.21,14.35c0,.1-.02.21-.02.32.06,1.24,1.12,2.2,2.36,2.14,9.27,0,16.8-7.54,16.8-16.8S23.82,15.2,14.55,15.2ZM5.24,32c0-5.13,4.18-9.31,9.31-9.31s9.31,4.18,9.31,9.31-4.18,9.31-9.31,9.31-9.31-4.18-9.31-9.31Z"/>
  <path class="cls-1" d="M64,32c0-7.23-5.3-13.22-12.21-14.35,0-.1.02-.21.02-.32-.06-1.24-1.12-2.2-2.36-2.14-9.27,0-16.8,7.54-16.8,16.8s7.54,16.8,16.8,16.8c.07,0,.15,0,.22,0,1.24-.06,2.2-1.12,2.14-2.36,0-.03-.01-.06-.01-.1,6.91-1.13,12.21-7.12,12.21-14.35ZM49.45,41.31c-5.13,0-9.31-4.18-9.31-9.31s4.18-9.31,9.31-9.31,9.31,4.18,9.31,9.31-4.18,9.31-9.31,9.31Z"/>
</svg>