<?xml version="1.0" encoding="UTF-8"?>
<svg id="Layer_1" xmlns="http://www.w3.org/2000/svg" viewBox="0 0 64 64">
  <defs>
    <style>
      .cls-1 {
        fill: #f4c20d;
      }

      .cls-2 {
        fill: #4786ec;
      }
    </style>
  </defs>
  <g id="Vertical">
    <path class="cls-1" d="M15.04,35.93c-7.95,0-14.41-6.47-14.41-14.41S7.09,7.11,15.04,7.11s14.41,6.46,14.41,14.41-6.47,14.41-14.41,14.41ZM15.04,12.3c-5.08,0-9.22,4.14-9.22,9.22s4.14,9.22,9.22,9.22,9.22-4.14,9.22-9.22-4.13-9.22-9.22-9.22h0Z"/>
    <path class="cls-2" d="M15.04,38.16c-1.23,0-2.23-1-2.23-2.23s1-2.23,2.23-2.23h0c6.72,0,12.18-5.47,12.18-12.19s-5.47-12.19-12.18-12.19c-1.23,0-2.23-1-2.23-2.23s1-2.23,2.23-2.23c9.18,0,16.64,7.47,16.64,16.64s-7.46,16.64-16.64,16.64Z"/>
    <path class="cls-1" d="M49.59,35.93c-7.95,0-14.41-6.47-14.41-14.41s6.47-14.41,14.41-14.41,14.41,6.46,14.41,14.41-6.47,14.41-14.41,14.41ZM49.59,12.3c-5.08,0-9.22,4.14-9.22,9.22s4.14,9.22,9.22,9.22,9.22-4.13,9.22-9.22-4.14-9.22-9.22-9.22h0Z"/>
    <path class="cls-2" d="M49.59,38.16c-9.18,0-16.64-7.47-16.64-16.64s7.47-16.64,16.64-16.64c1.23,0,2.23,1,2.23,2.23,0,1.23-1,2.23-2.23,2.23h0c-6.72,0-12.18,5.47-12.18,12.18s5.46,12.19,12.18,12.19c1.23,0,2.23,1,2.23,2.23s-1,2.23-2.23,2.23h0Z"/>
    <path class="cls-2" d="M6.94,55.56C3.11,55.56,0,52.46,0,48.63c0-3.83,3.1-6.94,6.93-6.94,1.63,0,3.22.57,4.47,1.63.39.32.45.89.14,1.28-.32.39-.89.45-1.28.14,0,0-.02-.02-.03-.02-2.16-1.81-5.38-1.53-7.19.63s-1.53,5.38.63,7.19c2.16,1.81,5.38,1.53,7.19-.63.57-.68.95-1.49,1.11-2.37h-5.02c-.5-.01-.9-.43-.89-.94.01-.49.4-.88.89-.89h6.01c.5,0,.91.41.91.91-.01,3.82-3.11,6.92-6.93,6.93h0Z"/>
    <path class="cls-2" d="M15.68,55.56c-.5,0-.91-.41-.91-.91,0,0,0,0,0,0v-12.03c-.01-.5.39-.92.89-.94.5-.01.92.39.94.89,0,.02,0,.03,0,.05v12.03c0,.5-.41.91-.91.91Z"/>
    <path class="cls-2" d="M22.56,55.02c-2.8,0-5.07-2.27-5.07-5.07s2.27-5.07,5.07-5.07,5.07,2.27,5.07,5.07h0c0,2.8-2.27,5.07-5.07,5.07ZM22.56,46.71c-1.79,0-3.24,1.45-3.25,3.24s1.45,3.24,3.24,3.25c1.79,0,3.24-1.45,3.25-3.24,0-1.79-1.45-3.24-3.24-3.25Z"/>
    <path class="cls-2" d="M33.6,55.02c-2.8,0-5.07-2.27-5.07-5.07,0-2.8,2.27-5.07,5.07-5.07s5.07,2.27,5.07,5.07h0c0,2.8-2.27,5.07-5.07,5.07ZM33.6,46.71c-1.79,0-3.24,1.45-3.25,3.24,0,1.79,1.45,3.24,3.24,3.25,1.79,0,3.24-1.45,3.25-3.24,0-1.79-1.45-3.24-3.24-3.25Z"/>
    <path class="cls-2" d="M44.59,59.12c-.88,0-1.74-.23-2.5-.67-.44-.25-.58-.81-.33-1.24.25-.44.81-.58,1.24-.33h0c1.55.89,3.52.36,4.41-1.18.28-.49.43-1.05.43-1.61v-4.14c0-1.78-1.45-3.23-3.23-3.23-1.47,0-2.75.99-3.12,2.41-.07.27-.11.55-.11.82,0,1.78,1.45,3.23,3.23,3.23.2,0,.4-.02.59-.05.49-.09.97.23,1.06.73.09.49-.23.97-.73,1.06h0c-2.74.51-5.38-1.3-5.89-4.04-.06-.31-.09-.62-.09-.93,0-.44.06-.87.17-1.29.72-2.69,3.49-4.3,6.18-3.58,2.21.59,3.74,2.59,3.75,4.87v4.14c0,2.29-1.54,4.28-3.75,4.87-.43.12-.88.18-1.32.18Z"/>
    <path class="cls-2" d="M51.47,55.56c-.5,0-.91-.31-.91-.68v-9c0-.38.41-.68.91-.68s.91.31.91.68v9c0,.38-.41.68-.91.68Z"/>
    <circle class="cls-2" cx="51.47" cy="43.43" r=".91"/>
    <path class="cls-2" d="M62.47,55c-.5,0-.91-.41-.91-.91v-4.14c0-1.78-1.45-3.23-3.23-3.23-1.47,0-2.75.99-3.12,2.41-.07.27-.11.55-.11.82,0,1.78,1.45,3.23,3.23,3.23.2,0,.4-.02.59-.05.49-.1.97.22,1.07.71.1.49-.22.97-.71,1.07,0,0-.02,0-.03,0-2.74.51-5.38-1.3-5.89-4.04s1.3-5.38,4.04-5.89c2.74-.51,5.38,1.3,5.89,4.04.06.3.08.61.08.92v4.14c0,.5-.41.91-.91.91Z"/>
  </g>
</svg>