<?xml version="1.0" encoding="UTF-8"?>
<svg id="Layer_1" xmlns="http://www.w3.org/2000/svg" viewBox="0 0 64 64">
  <defs>
    <style>
      .cls-1 {
        fill: #231f20;
      }
    </style>
  </defs>
  <path class="cls-1" d="M7,37.2C3.13,37.2,0,34.07,0,30.2c0-3.87,3.13-7,7-7,1.65,0,3.24.58,4.5,1.64.38.34.41.92.07,1.3-.32.36-.88.41-1.26.11-2.18-1.83-5.43-1.55-7.26.63-1.83,2.18-1.55,5.43.63,7.26,2.18,1.83,5.43,1.55,7.26-.63.58-.69.96-1.51,1.12-2.39h-5.07c-.51,0-.92-.41-.92-.92s.41-.92.92-.92h6.08c.51,0,.92.41.92.92h0c-.02,3.86-3.14,6.98-7,7h0ZM15.82,37.2c-.51,0-.92-.41-.92-.92h0v-12.15c0-.51.41-.92.92-.92s.92.41.92.92v12.15c0,.51-.41.92-.92.92h0ZM22.77,36.66c-2.83,0-5.12-2.29-5.12-5.12,0-2.83,2.29-5.12,5.12-5.12,2.83,0,5.12,2.29,5.12,5.12h0c0,2.83-2.29,5.12-5.12,5.12ZM22.77,28.26c-1.81,0-3.28,1.47-3.28,3.28s1.47,3.28,3.28,3.28,3.28-1.47,3.28-3.28h0c0-1.81-1.47-3.27-3.28-3.28ZM33.92,36.66c-2.83,0-5.12-2.29-5.12-5.12,0-2.83,2.29-5.12,5.12-5.12,2.83,0,5.12,2.29,5.12,5.12h0c0,2.83-2.29,5.12-5.12,5.12ZM33.92,28.26c-1.81,0-3.28,1.47-3.28,3.28s1.47,3.28,3.28,3.28c1.81,0,3.28-1.47,3.28-3.28h0c0-1.81-1.47-3.27-3.28-3.28ZM45.02,40.8c-.89,0-1.76-.23-2.53-.68-.44-.25-.59-.82-.34-1.25s.82-.59,1.25-.34c1.56.9,3.56.37,4.46-1.2.29-.5.44-1.06.44-1.63v-4.18c.01-1.8-1.44-3.27-3.24-3.28-1.5,0-2.81,1-3.18,2.45-.07.27-.11.55-.11.83,0,1.8,1.45,3.26,3.25,3.26.2,0,.41-.02.6-.06.5-.08.97.26,1.06.76.08.49-.24.95-.72,1.05-2.77.51-5.43-1.32-5.95-4.09-.06-.31-.09-.62-.09-.93,0-.44.06-.88.17-1.31.71-2.72,3.49-4.36,6.21-3.65,2.25.59,3.82,2.63,3.81,4.96v4.18c0,2.31-1.55,4.33-3.78,4.92-.44.12-.89.18-1.34.18ZM51.97,37.2c-.51,0-.92-.31-.92-.69v-9.09c0-.38.41-.69.92-.69s.92.31.92.69v9.09c0,.38-.41.69-.92.69ZM51.97,24.03c.51,0,.92.41.92.92s-.41.92-.92.92-.92-.41-.92-.92.41-.92.92-.92ZM63.08,36.64c-.51,0-.92-.41-.92-.92v-4.18c.01-1.8-1.44-3.27-3.24-3.28-1.5,0-2.81,1-3.18,2.45-.07.27-.11.55-.11.83,0,1.8,1.46,3.26,3.26,3.26.2,0,.4-.02.6-.06.5-.09.98.24,1.07.74.09.5-.24.98-.74,1.07h0c-2.77.51-5.43-1.31-5.95-4.08-.06-.31-.09-.62-.09-.93,0-.44.06-.88.17-1.31.72-2.72,3.51-4.35,6.23-3.63,2.24.59,3.8,2.62,3.8,4.93v4.18c0,.51-.41.92-.92.92h0Z"/>
</svg>