<?xml version="1.0" encoding="UTF-8"?>
<svg id="Layer_1" xmlns="http://www.w3.org/2000/svg" viewBox="0 0 64 64">
  <defs>
    <style>
      .cls-1 {
        fill: #f4c20d;
      }

      .cls-2 {
        fill: #4786ec;
      }
    </style>
  </defs>
  <path class="cls-1" d="M5.11,36.74C2.29,36.74,0,34.45,0,31.63c0-2.82,2.29-5.11,5.11-5.11,2.82,0,5.11,2.29,5.11,5.11h0c0,2.82-2.29,5.11-5.11,5.11ZM5.11,28.36c-1.8,0-3.27,1.46-3.27,3.27s1.46,3.27,3.27,3.27c1.8,0,3.27-1.46,3.27-3.27h0c0-1.8-1.46-3.26-3.27-3.27h0Z"/>
  <path class="cls-2" d="M5.11,37.53c-.44,0-.79-.35-.79-.79s.35-.79.79-.79c2.38-.06,4.27-2.03,4.22-4.42-.05-2.31-1.91-4.16-4.22-4.22-.44.01-.8-.33-.81-.77-.01-.44.33-.8.77-.81.01,0,.03,0,.04,0,3.26.07,5.84,2.76,5.78,6.01-.06,3.16-2.61,5.71-5.78,5.78h0Z"/>
  <path class="cls-1" d="M17.35,36.74c-2.82,0-5.11-2.29-5.11-5.11s2.29-5.11,5.11-5.11,5.11,2.29,5.11,5.11c0,2.82-2.29,5.11-5.11,5.11ZM17.35,28.36c-1.8,0-3.27,1.46-3.27,3.27,0,1.8,1.46,3.27,3.27,3.27,1.8,0,3.27-1.46,3.27-3.27,0-1.8-1.46-3.27-3.27-3.27h0Z"/>
  <path class="cls-2" d="M17.35,37.53c-3.26-.07-5.84-2.76-5.78-6.01.06-3.16,2.61-5.71,5.78-5.78.44-.01.8.33.81.77s-.33.8-.77.81c-.01,0-.03,0-.04,0-2.39.03-4.3,1.98-4.27,4.37.03,2.35,1.92,4.24,4.27,4.27.44,0,.79.35.79.79s-.35.79-.79.79h0Z"/>
  <path class="cls-2" d="M28.34,36.01c-2.42,0-4.38-1.96-4.38-4.38,0-2.42,1.96-4.38,4.38-4.38,1.03,0,2.03.36,2.82,1.02.24.2.28.57.07.81-.2.24-.57.28-.81.07h0c-1.36-1.14-3.4-.97-4.54.4-1.14,1.36-.97,3.4.4,4.54,1.36,1.14,3.4.97,4.54-.4.36-.43.6-.94.7-1.49h-3.17c-.32,0-.58-.26-.58-.58s.26-.58.58-.58h3.8c.32,0,.58.26.58.58,0,2.41-1.96,4.37-4.38,4.38Z"/>
  <path class="cls-2" d="M33.86,36.01c-.32,0-.58-.26-.58-.58v-7.6c0-.32.26-.58.58-.58s.58.26.58.58h0v7.6c0,.32-.26.58-.58.58Z"/>
  <path class="cls-2" d="M38.21,35.67c-1.77,0-3.2-1.43-3.2-3.2s1.43-3.2,3.2-3.2c1.77,0,3.2,1.43,3.2,3.2,0,0,0,0,0,0,0,1.77-1.44,3.2-3.2,3.2ZM38.21,30.42c-1.13,0-2.05.92-2.05,2.05s.92,2.05,2.05,2.05c1.13,0,2.05-.92,2.05-2.05,0-1.13-.92-2.05-2.05-2.05h0Z"/>
  <path class="cls-2" d="M45.18,35.67c-1.77,0-3.2-1.43-3.2-3.2s1.43-3.2,3.2-3.2c1.77,0,3.2,1.43,3.2,3.2,0,0,0,0,0,0,0,1.77-1.44,3.2-3.2,3.2ZM45.18,30.42c-1.13,0-2.05.92-2.05,2.05s.92,2.05,2.05,2.05c1.13,0,2.05-.91,2.05-2.05,0-1.13-.92-2.05-2.05-2.05h0Z"/>
  <path class="cls-2" d="M52.13,38.26c-.55,0-1.1-.15-1.58-.43-.28-.16-.37-.51-.22-.78.16-.28.51-.37.78-.22,0,0,0,0,0,0,.98.56,2.22.22,2.79-.75.18-.31.27-.66.27-1.02v-2.62c0-1.13-.91-2.04-2.03-2.05-.93,0-1.75.63-1.98,1.53-.05.17-.07.34-.07.52,0,1.13.91,2.04,2.04,2.04.13,0,.25-.01.37-.03.31-.06.62.14.68.45s-.14.62-.45.68c0,0-.02,0-.02,0-.19.04-.39.05-.58.05-1.76,0-3.19-1.43-3.19-3.19s1.43-3.19,3.19-3.19c1.76,0,3.19,1.43,3.19,3.19h0v2.62c0,1.44-.97,2.7-2.37,3.07-.27.07-.56.11-.84.11Z"/>
  <path class="cls-2" d="M56.47,36.01c-.32,0-.58-.19-.58-.43v-5.68c0-.24.26-.43.58-.43s.58.19.58.43v5.68c0,.24-.26.43-.58.43Z"/>
  <circle class="cls-2" cx="56.48" cy="28.35" r=".58"/>
  <path class="cls-2" d="M63.43,35.66c-.32,0-.57-.26-.57-.57h0v-2.61c0-1.13-.91-2.04-2.04-2.04-.93,0-1.74.62-1.97,1.52-.05.17-.07.34-.07.52,0,1.13.91,2.04,2.04,2.04.13,0,.25-.01.37-.03.31-.06.62.14.68.45.06.31-.14.62-.45.68,0,0-.02,0-.02,0-1.73.32-3.4-.82-3.72-2.56-.04-.19-.05-.39-.05-.58,0-.28.04-.55.11-.82.45-1.7,2.2-2.72,3.9-2.27,1.4.37,2.37,1.64,2.37,3.08v2.61c0,.32-.26.57-.57.57h0Z"/>
</svg>