<?xml version="1.0" encoding="UTF-8"?>
<svg id="Layer_1" xmlns="http://www.w3.org/2000/svg" viewBox="0 0 64 64">
  <defs>
    <style>
      .cls-1 {
        fill: #231f20;
      }
    </style>
  </defs>
  <path class="cls-1" d="M54,0H10C4.48,0,0,4.48,0,10v44c0,5.52,4.48,10,10,10h44c5.52,0,10-4.48,10-10V10c0-5.52-4.48-10-10-10ZM13.6,52h-.15V12h.15c4.79,0,8.67,3.88,8.67,8.67v22.66c0,4.79-3.88,8.67-8.67,8.67ZM48.88,40c-1.03,2.35-2.5,4.47-4.31,6.25-2.71,2.67-6.17,4.57-10.04,5.35-1.29.26-2.62.4-3.98.4h-8.28v-.54c0-.29.01-.57.04-.85.04-.4.12-.79.21-1.17.03-.12.06-.24.09-.36,0-.03.01-.06.02-.09.03-.1.07-.19.11-.29.04-.11.08-.23.12-.34.05-.12.1-.24.16-.36.05-.11.1-.22.16-.33.06-.12.12-.23.19-.34.06-.11.13-.21.19-.31.07-.11.14-.21.21-.32.07-.1.15-.2.23-.3.07-.1.15-.19.23-.29.09-.11.19-.21.28-.31.07-.08.15-.16.22-.24.17-.17.35-.33.54-.49,0,0,.01,0,.02-.01.05-.04.11-.08.17-.13.14-.11.27-.21.42-.31.08-.06.17-.11.26-.16.13-.08.25-.16.39-.23.09-.05.19-.1.28-.15.13-.07.26-.13.4-.19.1-.04.2-.08.3-.12.14-.06.28-.11.42-.15.1-.03.2-.07.31-.1.15-.04.3-.08.45-.12.1-.02.2-.05.3-.07.17-.03.34-.06.52-.08.09-.01.17-.03.26-.03.26-.02.52-.04.79-.04,0,0,0,0,0,0,.37,0,.74-.02,1.1-.06.12-.01.23-.03.35-.05.24-.03.48-.07.72-.11.14-.03.27-.06.41-.09.21-.05.42-.1.63-.17.14-.04.28-.09.41-.13.2-.07.39-.14.58-.22.14-.06.27-.11.4-.17.19-.09.37-.18.55-.27.13-.07.26-.13.38-.2.19-.11.37-.22.55-.34.11-.07.22-.14.33-.21.27-.19.53-.39.79-.61.11-.09.21-.2.32-.29.14-.13.29-.26.43-.4.12-.12.23-.25.35-.38.11-.12.23-.25.33-.38.12-.14.22-.29.33-.43.09-.13.19-.25.28-.39.11-.16.21-.31.3-.47.08-.13.15-.26.23-.4.09-.17.19-.34.27-.51.06-.13.12-.26.18-.4.08-.18.16-.37.23-.56.05-.12.08-.25.12-.37.17-.51.32-1.03.41-1.57h0c.14-.78.2-1.59.17-2.42-.23-6.05-5.39-10.74-11.44-10.74-4.42,0-8.01-3.58-8.01-8.01v-.82h7.88c4.71,0,9.1,1.64,12.59,4.36,0,0,0-.01,0-.02.07.05.13.11.2.16.15.12.3.24.44.36.06.05.12.1.18.15h0c.32.28.64.57.94.86.12.12.23.24.35.35.31.32.61.64.9.98.09.11.19.21.28.32.33.4.64.82.94,1.24.09.13.19.26.27.4.29.44.57.89.83,1.35.07.13.14.26.21.38.26.49.5.98.72,1.49.03.08.06.15.09.23.2.49.39,1,.55,1.51.03.09.06.18.09.27.17.55.3,1.11.42,1.67.02.12.05.23.07.35.11.57.19,1.15.25,1.74,0,.1.01.2.02.3.05.62.08,1.25.07,1.88,0,0,0,0,0,0-.05,2.72-.64,5.3-1.67,7.66ZM27.59,32c0-2.44,1.98-4.41,4.41-4.41s4.41,1.98,4.41,4.41-1.98,4.41-4.41,4.41-4.41-1.98-4.41-4.41Z"/>
</svg>