<?xml version="1.0" encoding="UTF-8"?>
<svg id="Layer_1" xmlns="http://www.w3.org/2000/svg" xmlns:xlink="http://www.w3.org/1999/xlink" viewBox="0 0 64 64">
  <defs>
    <style>
      .cls-1 {
        fill: #231f20;
      }

      .cls-2 {
        fill: url(#linear-gradient);
      }
    </style>
    <linearGradient id="linear-gradient" x1="-1.62" y1="24.73" x2="9.93" y2="36.28" gradientUnits="userSpaceOnUse">
      <stop offset="0" stop-color="#754d1e"/>
      <stop offset="1" stop-color="#532e14"/>
    </linearGradient>
  </defs>
  <path class="cls-1" d="M23.09,26.75h-2.41v8.11h2.83c.88,0,1.65-.17,2.31-.51.65-.34,1.16-.81,1.52-1.43.36-.61.54-1.33.54-2.15,0-1.32-.4-2.33-1.21-3-.81-.68-2-1.02-3.57-1.02ZM25.63,32.85c-.5.46-1.22.69-2.17.69h-1.29v-5.48h1.12c1.04,0,1.82.23,2.32.69.51.46.76,1.15.76,2.08s-.25,1.57-.74,2.03ZM33.11,29.09h1.35v4.77c0,1.16-.29,2.01-.87,2.56-.58.55-1.39.83-2.43.83-.34,0-.71-.03-1.09-.1-.38-.07-.7-.18-.95-.34l.34-1.21c.26.13.53.23.82.31.29.08.61.11.95.11.67,0,1.15-.16,1.43-.47.28-.32.44-.82.47-1.51l.05-.75c-.23.49-.53.86-.91,1.11-.38.26-.8.38-1.26.38-.65,0-1.13-.22-1.46-.65-.33-.43-.49-1.04-.48-1.8l.02-3.23h1.39l-.02,3.12c0,.39.07.71.21.93.14.22.37.34.69.34.35,0,.65-.14.91-.41.26-.27.46-.72.61-1.36.15-.63.23-1.51.23-2.62ZM40.94,29.66c.33.45.49,1.08.49,1.91l-.02,3.28h-1.39l.02-3.16c0-.45-.06-.79-.21-1.03-.15-.24-.39-.36-.71-.36-.25,0-.48.07-.7.22-.21.14-.4.39-.56.74-.16.35-.29.81-.38,1.4-.09.59-.14,1.32-.15,2.2h-1.38v-5.77h1.39l-.07,1.45c.22-.49.52-.87.9-1.14.38-.27.81-.4,1.3-.4.65,0,1.14.22,1.47.67ZM46.44,33.43l.41,1.07c-.18.15-.4.27-.67.34s-.57.11-.9.11c-.69,0-1.23-.19-1.62-.57-.38-.38-.57-.88-.57-1.5l.05-2.64h-.98v-1.16h1v-1.19h1.4l-.02,1.19h1.88v1.16h-1.9l-.03,2.49c0,.31.07.56.23.74.16.18.41.27.74.27.18,0,.34-.02.49-.07.15-.05.31-.13.48-.25ZM51.58,29.85c-.15-.26-.37-.47-.65-.62-.28-.16-.61-.23-.97-.23-.55,0-1.04.14-1.48.41-.44.27-.78.65-1.03,1.14-.25.48-.38,1.05-.38,1.68,0,.53.09,1.01.27,1.42.18.41.45.73.8.97.35.23.78.35,1.28.35.43,0,.81-.1,1.14-.29.33-.19.6-.47.81-.82l-.05,1.01h1.42v-5.74h-1.02l-.14.74ZM51.12,32.74c-.14.31-.34.56-.59.73-.25.18-.52.26-.83.26-.37,0-.67-.14-.88-.41-.21-.27-.32-.66-.32-1.15,0-.58.14-1.05.42-1.4.28-.36.66-.54,1.13-.54.4,0,.71.13.94.38.23.25.34.61.34,1.06,0,.4-.07.76-.22,1.07ZM57.84,29.02c.11.02.21.04.3.07l-.23,1.35c-.15-.05-.35-.08-.58-.08-.41,0-.74.15-.99.45-.25.3-.44.78-.55,1.44-.12.66-.18,1.53-.18,2.61h-1.38v-5.77s1.38,0,1.38,0l-.07,1.61c.2-.62.47-1.05.83-1.31.35-.26.73-.39,1.14-.39.12,0,.24,0,.34.02ZM62.98,29.11l-.14.74c-.15-.26-.37-.47-.65-.62-.28-.16-.61-.23-.97-.23-.55,0-1.04.14-1.48.41-.44.27-.78.65-1.03,1.14-.25.48-.38,1.05-.38,1.68,0,.53.09,1.01.27,1.42.18.41.45.73.8.97.35.23.78.35,1.28.35.43,0,.81-.1,1.14-.29.33-.19.6-.47.81-.82l-.05,1.01h1.42v-5.74h-1.02ZM62.39,32.74c-.14.31-.34.56-.59.73-.25.18-.52.26-.83.26-.37,0-.67-.14-.88-.41-.21-.27-.32-.66-.32-1.15,0-.58.14-1.05.42-1.4.28-.36.66-.54,1.13-.54.4,0,.71.13.94.38.23.25.34.61.34,1.06,0,.4-.07.76-.22,1.07Z"/>
  <path class="cls-2" d="M16.65,32.16c-.08,4.88-4.08,8.82-8.97,8.82h-3.72v-.24c0-2.05,1.66-3.72,3.72-3.72h0c2.83,0,5.12-2.36,5.01-5.21s-2.42-4.82-5.13-4.82h0c-1.98,0-3.59-1.61-3.59-3.59v-.37h3.54c5.02,0,9.24,4.11,9.15,9.13ZM3.96,37.11v-10.21c0-2.14-1.73-3.87-3.87-3.87H0v17.95s.09,0,.09,0c2.14,0,3.87-1.73,3.87-3.87ZM8.32,30.02c-1.09,0-1.98.89-1.98,1.98s.89,1.98,1.98,1.98,1.98-.89,1.98-1.98-.89-1.98-1.98-1.98ZM0,23.03v.89c1.92.27,3.4,1.92,3.4,3.92v10.03c0,.63-.15,1.23-.41,1.76.61-.7.98-1.6.98-2.6v-10.03C3.96,24.8,2.19,23.03,0,23.03Z"/>
</svg>