<?xml version="1.0" encoding="UTF-8"?>
<svg id="Layer_1" xmlns="http://www.w3.org/2000/svg" viewBox="0 0 64 64">
  <defs>
    <style>
      .cls-1 {
        fill: #231f20;
      }
    </style>
  </defs>
  <path class="cls-1" d="M4.62,25.35H1.19v11.56h4.04c1.26,0,2.36-.24,3.29-.72.93-.48,1.65-1.16,2.16-2.04.51-.87.77-1.9.77-3.07,0-1.89-.58-3.32-1.73-4.28-1.15-.97-2.85-1.45-5.1-1.45ZM8.24,34.05c-.71.66-1.74.98-3.09.98h-1.84v-7.81h1.6c1.49,0,2.59.33,3.31.98s1.08,1.64,1.08,2.96-.35,2.23-1.06,2.89ZM18.9,28.69h1.92v6.81c0,1.65-.41,2.87-1.24,3.66-.82.79-1.98,1.18-3.47,1.18-.49,0-1.01-.05-1.55-.15s-1-.26-1.36-.49l.49-1.73c.37.18.76.33,1.17.44.41.11.86.16,1.35.16.96,0,1.63-.23,2.04-.68s.62-1.17.67-2.16l.07-1.07c-.33.69-.76,1.22-1.29,1.59s-1.14.55-1.8.55c-.92,0-1.62-.31-2.08-.93s-.7-1.48-.68-2.57l.03-4.61h1.99l-.03,4.44c0,.56.1,1.01.3,1.33s.53.48.98.48c.5,0,.93-.19,1.3-.58s.66-1.03.87-1.94c.21-.91.32-2.15.33-3.74ZM30.06,29.51c.47.64.7,1.54.69,2.73l-.03,4.67h-1.99l.03-4.51c.01-.64-.09-1.13-.3-1.47-.21-.34-.55-.51-1.02-.51-.36,0-.69.1-.99.31-.3.21-.57.56-.8,1.05-.23.49-.41,1.16-.54,2-.13.84-.2,1.89-.21,3.13h-1.97v-8.22h1.99l-.1,2.07c.31-.71.74-1.25,1.29-1.63.54-.38,1.16-.57,1.86-.57.92,0,1.62.32,2.09.95ZM37.9,34.87l.59,1.53c-.25.22-.57.38-.96.49s-.82.16-1.29.16c-.99,0-1.76-.27-2.3-.81-.55-.54-.82-1.25-.81-2.13l.07-3.76h-1.4v-1.66h1.43l.02-1.69h1.99l-.03,1.69h2.69v1.66h-2.7l-.05,3.55c-.01.45.1.8.33,1.05.23.26.58.38,1.05.38.25,0,.48-.03.7-.1.22-.07.45-.18.68-.36ZM45.23,29.78c-.22-.37-.53-.67-.93-.89-.4-.22-.86-.33-1.38-.33-.78,0-1.48.2-2.11.59-.62.39-1.12.93-1.47,1.62-.36.69-.54,1.49-.54,2.4,0,.76.13,1.43.39,2.02.26.59.64,1.04,1.14,1.38.5.33,1.11.5,1.82.5.61,0,1.15-.14,1.62-.42s.85-.67,1.15-1.16l-.07,1.43h2.02v-8.19h-1.45l-.2,1.06ZM44.58,33.9c-.21.45-.49.79-.84,1.04-.35.25-.75.37-1.18.37-.53,0-.95-.2-1.25-.59-.3-.39-.46-.94-.46-1.64,0-.82.2-1.49.6-2,.4-.51.94-.77,1.61-.77.56,0,1.01.18,1.34.55.33.36.49.87.49,1.51,0,.58-.1,1.09-.31,1.53ZM54.17,28.59c.15.02.29.05.42.1l-.33,1.92c-.22-.08-.49-.11-.83-.11-.59,0-1.06.21-1.42.64-.36.43-.62,1.11-.79,2.05-.17.94-.25,2.18-.25,3.72h-1.97v-5.31l-.02-2.91h1.99l-.1,2.3c.28-.88.68-1.5,1.18-1.87.5-.37,1.04-.55,1.62-.55.17,0,.34.01.49.03ZM61.49,28.72l-.2,1.06c-.22-.37-.53-.67-.93-.89-.4-.22-.86-.33-1.38-.33-.78,0-1.48.2-2.11.59-.62.39-1.12.93-1.47,1.62-.36.69-.54,1.49-.54,2.4,0,.76.13,1.43.39,2.02.26.59.64,1.04,1.14,1.38.5.33,1.11.5,1.82.5.61,0,1.15-.14,1.62-.42s.85-.67,1.15-1.16l-.06,1.43h2.02v-8.19h-1.45ZM60.65,33.9c-.21.45-.49.79-.84,1.04-.35.25-.75.37-1.18.37-.53,0-.95-.2-1.25-.59s-.46-.94-.46-1.64c0-.82.2-1.49.6-2s.94-.77,1.61-.77c.56,0,1.01.18,1.33.55.33.36.49.87.49,1.51,0,.58-.1,1.09-.31,1.53Z"/>
</svg>