<?xml version="1.0" encoding="UTF-8"?>
<svg id="Layer_1" xmlns="http://www.w3.org/2000/svg" xmlns:xlink="http://www.w3.org/1999/xlink" viewBox="0 0 64 64">
  <defs>
    <style>
      .cls-1 {
        fill: url(#linear-gradient-2);
      }

      .cls-2 {
        fill: url(#linear-gradient-3);
      }

      .cls-3 {
        fill: url(#linear-gradient);
      }
    </style>
    <linearGradient id="linear-gradient" x1="-3.46" y1="6.07" x2="37.74" y2="47.27" gradientUnits="userSpaceOnUse">
      <stop offset="0" stop-color="#473950"/>
      <stop offset="1" stop-color="#190724"/>
    </linearGradient>
    <linearGradient id="linear-gradient-2" x1="17.08" y1="64.43" x2="80.72" y2=".8" gradientUnits="userSpaceOnUse">
      <stop offset="0" stop-color="#30203a"/>
      <stop offset="1" stop-color="#5e5166"/>
    </linearGradient>
    <linearGradient id="linear-gradient-3" x1="28.94" y1="49.12" x2="78.87" y2="-.82" gradientUnits="userSpaceOnUse">
      <stop offset="0" stop-color="#30203a"/>
      <stop offset="1" stop-color="#5e5166"/>
    </linearGradient>
  </defs>
  <path class="cls-3" d="M61.68,32.55c-.3,17.39-14.54,31.45-32,31.45h-13.25v-.87c0-7.32,5.93-13.25,13.25-13.25h0c10.09,0,18.25-8.4,17.87-18.57-.37-9.68-8.62-17.19-18.31-17.19h0c-7.08,0-12.81-5.74-12.81-12.81V0h12.61c17.9,0,32.94,14.65,32.63,32.55ZM16.43,49.88V14.12C16.43,6.32,10.11,0,2.31,0h0v64s0,0,0,0c7.8,0,14.12-6.32,14.12-14.12ZM32,24.94c-3.9,0-7.06,3.16-7.06,7.06s3.16,7.06,7.06,7.06,7.06-3.16,7.06-7.06-3.16-7.06-7.06-7.06Z"/>
  <path class="cls-1" d="M49.18,6.93c1.36,3.13,2.22,6.49,2.44,10,.42,6.67-1.22,12.95-4.34,18.25-1.51,8.35-8.82,14.7-17.59,14.7-7.32,0-13.25,5.93-13.25,13.25v.87h13.25c17.46,0,31.7-14.06,32-31.45.18-10.37-4.8-19.65-12.5-25.62Z"/>
  <path class="cls-2" d="M58.22,29.09c.14-8.02-2.82-15.38-7.73-21.07-.43-.37-.86-.73-1.31-1.08,1.36,3.13,2.22,6.49,2.44,10,.42,6.67-1.22,12.95-4.34,18.25-1.51,8.35-8.82,14.7-17.59,14.7-6.43,0-11.78,4.58-12.99,10.65h9.53c17.46,0,31.7-14.06,32-31.45Z"/>
</svg>