<?xml version="1.0" encoding="UTF-8"?>
<svg id="Layer_1" xmlns="http://www.w3.org/2000/svg" xmlns:xlink="http://www.w3.org/1999/xlink" viewBox="0 0 64 64">
  <defs>
    <style>
      .cls-1 {
        fill: url(#linear-gradient);
      }
    </style>
    <linearGradient id="linear-gradient" x1="10.2" y1="13.21" x2="40.08" y2="43.09" gradientUnits="userSpaceOnUse">
      <stop offset="0" stop-color="#473950"/>
      <stop offset="1" stop-color="#231f20"/>
    </linearGradient>
  </defs>
  <path class="cls-1" d="M16.33,32.15c-.08,4.78-4,8.65-8.8,8.65h-3.65v-.24c0-2.01,1.63-3.65,3.65-3.65h0c2.78,0,5.02-2.31,4.92-5.11s-2.37-4.73-5.04-4.73h0c-1.95,0-3.52-1.58-3.52-3.52v-.36h3.47c4.93,0,9.06,4.03,8.98,8.96ZM3.88,37.03v-10.07c0-2.08-1.69-3.77-3.77-3.77H0s0,17.61,0,17.61h.11c2.08,0,3.77-1.69,3.77-3.77ZM8.17,30.06c-1.07,0-1.94.87-1.94,1.94s.87,1.94,1.94,1.94,1.94-.87,1.94-1.94-.87-1.94-1.94-1.94ZM0,23.2v.87c1.88.27,3.33,1.88,3.33,3.84v9.84c0,.62-.15,1.2-.41,1.72.59-.68.96-1.57.96-2.55v-9.84c0-2.15-1.74-3.88-3.88-3.88ZM20,35.06v-8.24h2.45c1.6,0,2.81.34,3.63,1.03s1.23,1.71,1.23,3.05c0,.83-.18,1.56-.55,2.19-.36.62-.88,1.11-1.54,1.45-.67.34-1.45.52-2.34.52h-2.88ZM21.51,33.73h1.31c.97,0,1.7-.23,2.2-.7.5-.47.75-1.15.75-2.06s-.26-1.65-.77-2.11c-.51-.46-1.3-.7-2.36-.7h-1.14v5.57ZM30.64,37.5c-.35,0-.72-.03-1.11-.1-.39-.07-.71-.19-.97-.35l.35-1.23c.26.13.54.24.84.31.29.08.61.12.96.12.68,0,1.16-.16,1.45-.48s.44-.83.48-1.54l.05-.77c-.23.49-.54.87-.92,1.13-.38.26-.81.39-1.28.39-.66,0-1.15-.22-1.48-.66-.33-.44-.49-1.05-.49-1.83l.02-3.28h1.42l-.02,3.17c0,.4.07.72.21.95.14.23.38.34.7.34.36,0,.67-.14.93-.41.26-.27.47-.73.62-1.38.15-.65.23-1.53.24-2.66h1.37v4.85c0,1.18-.29,2.04-.88,2.6-.59.56-1.41.84-2.47.84ZM35.5,35.06v-5.86h1.42l-.07,1.47c.22-.5.53-.89.92-1.16.39-.27.83-.41,1.32-.41.66,0,1.15.23,1.49.68s.5,1.1.49,1.94l-.02,3.33h-1.42l.02-3.21c0-.46-.06-.81-.21-1.05-.15-.24-.39-.37-.72-.37-.26,0-.49.07-.71.22-.22.15-.41.4-.57.75-.16.35-.29.83-.38,1.43-.09.6-.14,1.34-.15,2.23h-1.4ZM44.98,35.17c-.7,0-1.25-.19-1.64-.58-.39-.39-.58-.89-.57-1.52l.05-2.68h-1v-1.18h1.02v-1.21h1.43l-.02,1.21h1.91v1.18h-1.93l-.03,2.53c0,.32.07.57.24.75.17.18.42.27.75.27.18,0,.34-.02.5-.07s.32-.13.49-.26l.42,1.09c-.18.16-.41.27-.68.35s-.58.12-.92.12ZM52.55,29.23v5.83h-1.44l.05-1.02c-.21.36-.48.63-.82.83-.34.2-.72.3-1.15.3-.51,0-.94-.12-1.3-.35-.36-.24-.63-.56-.81-.98-.19-.42-.28-.9-.28-1.44,0-.65.13-1.22.38-1.71.26-.49.61-.88,1.05-1.15s.95-.42,1.5-.42c.37,0,.7.08.99.24.29.16.51.37.66.63l.14-.75h1.03ZM49.84,30.37c-.48,0-.86.18-1.15.55-.29.36-.43.84-.43,1.43,0,.5.11.89.32,1.17.22.28.51.42.89.42.31,0,.59-.09.84-.27s.45-.43.6-.74.22-.68.22-1.09c0-.46-.12-.81-.35-1.07-.23-.26-.55-.39-.95-.39ZM57.82,30.58c-.16-.05-.35-.08-.59-.08-.42,0-.75.15-1.01.46s-.44.79-.56,1.46-.18,1.55-.18,2.65h-1.4v-5.86s1.4,0,1.4,0l-.07,1.64c.2-.63.48-1.07.84-1.33.36-.26.74-.39,1.15-.39.12,0,.24,0,.35.02.11.02.21.04.3.07l-.23,1.37ZM64,29.23v5.83h-1.44l.05-1.02c-.21.36-.48.63-.82.83-.34.2-.72.3-1.15.3-.51,0-.94-.12-1.3-.35-.36-.24-.63-.56-.81-.98-.19-.42-.28-.9-.28-1.44,0-.65.13-1.22.38-1.71.26-.49.61-.88,1.05-1.15s.95-.42,1.5-.42c.37,0,.7.08.99.24.29.16.51.37.66.63l.14-.75h1.03ZM61.29,30.37c-.48,0-.86.18-1.15.55-.29.36-.43.84-.43,1.43,0,.5.11.89.32,1.17.22.28.51.42.89.42.31,0,.59-.09.84-.27s.45-.43.6-.74.22-.68.22-1.09c0-.46-.12-.81-.35-1.07-.23-.26-.55-.39-.95-.39Z"/>
</svg>