<?xml version="1.0" encoding="UTF-8"?>
<svg id="Layer_1" xmlns="http://www.w3.org/2000/svg" viewBox="0 0 64 64">
  <defs>
    <style>
      .cls-1 {
        fill: #231f20;
      }
    </style>
  </defs>
  <path class="cls-1" d="M4.25,48.85H.77v11.69h4.08c1.27,0,2.38-.24,3.33-.73.94-.49,1.67-1.17,2.19-2.06.52-.88.77-1.92.77-3.1,0-1.91-.58-3.35-1.75-4.33-1.16-.98-2.88-1.47-5.15-1.47ZM7.9,57.65c-.71.66-1.76,1-3.13,1h-1.86v-7.9h1.61c1.5,0,2.62.33,3.35.99.73.66,1.09,1.66,1.09,3s-.36,2.26-1.07,2.92ZM18.69,52.23h1.94v6.88c0,1.67-.42,2.9-1.25,3.7-.83.8-2,1.19-3.51,1.19-.49,0-1.02-.05-1.57-.15-.55-.1-1.01-.26-1.37-.49l.49-1.75c.37.19.77.33,1.18.45.42.11.87.16,1.37.16.97,0,1.65-.23,2.06-.68.41-.46.63-1.18.67-2.18l.07-1.09c-.33.7-.77,1.24-1.31,1.6-.54.37-1.15.55-1.82.55-.93,0-1.64-.31-2.11-.94-.47-.63-.7-1.49-.69-2.6l.03-4.66h2.01l-.03,4.5c0,.57.1,1.02.3,1.34.2.32.53.49,1,.49.5,0,.94-.19,1.32-.59.37-.39.67-1.04.88-1.96.21-.92.33-2.18.34-3.78ZM29.97,53.06c.48.64.71,1.56.7,2.76l-.03,4.73h-2.01l.03-4.56c.01-.65-.09-1.14-.3-1.49-.21-.35-.56-.52-1.03-.52-.36,0-.7.1-1,.31-.31.21-.58.56-.81,1.06-.23.5-.41,1.17-.54,2.03-.13.85-.2,1.91-.21,3.17h-1.99v-8.32h2.01l-.1,2.09c.32-.71.75-1.26,1.3-1.65.55-.38,1.17-.58,1.88-.58.93,0,1.64.32,2.12.96ZM37.9,58.49l.59,1.55c-.25.22-.58.38-.97.49s-.83.16-1.3.16c-1,0-1.78-.27-2.33-.82-.56-.55-.83-1.27-.82-2.16l.07-3.8h-1.42v-1.68h1.45l.02-1.71h2.01l-.03,1.71h2.72v1.68h-2.73l-.05,3.59c-.01.45.1.8.34,1.06.24.26.59.39,1.06.39.25,0,.49-.03.71-.1.22-.07.45-.19.69-.36ZM45.31,53.33c-.22-.37-.53-.67-.94-.9-.41-.22-.87-.34-1.4-.34-.79,0-1.5.2-2.13.59-.63.4-1.13.94-1.49,1.64-.36.7-.54,1.51-.54,2.43,0,.77.13,1.45.4,2.04.26.59.65,1.06,1.15,1.39.51.33,1.12.5,1.84.5.61,0,1.16-.14,1.64-.42.48-.28.86-.67,1.16-1.18l-.07,1.45h2.04v-8.28h-1.47l-.2,1.07ZM44.65,57.5c-.21.45-.49.8-.85,1.05-.36.25-.76.38-1.19.38-.54,0-.96-.2-1.27-.59-.31-.4-.46-.95-.46-1.66,0-.83.2-1.51.61-2.03.41-.52.95-.77,1.63-.77.57,0,1.02.18,1.35.55.33.37.49.88.49,1.52,0,.58-.1,1.1-.31,1.55ZM54.35,52.13c.15.02.3.05.43.1l-.33,1.94c-.22-.08-.5-.11-.84-.11-.59,0-1.07.22-1.43.65-.36.43-.63,1.12-.8,2.07-.17.95-.26,2.2-.26,3.76h-1.99v-5.37l-.02-2.95h2.01l-.1,2.32c.29-.89.68-1.52,1.19-1.89.51-.37,1.06-.56,1.64-.56.18,0,.34,0,.49.03ZM61.76,52.26l-.2,1.07c-.22-.37-.53-.67-.94-.9-.41-.22-.87-.34-1.4-.34-.79,0-1.5.2-2.13.59s-1.13.94-1.49,1.64c-.36.7-.54,1.51-.54,2.43,0,.77.13,1.45.4,2.04.26.59.65,1.06,1.15,1.39.51.33,1.12.5,1.84.5.61,0,1.16-.14,1.64-.42.48-.28.86-.67,1.16-1.18l-.07,1.45h2.04v-8.28h-1.47ZM60.91,57.5c-.21.45-.49.8-.85,1.05-.36.25-.76.38-1.19.38-.54,0-.96-.2-1.27-.59-.31-.4-.46-.95-.46-1.66,0-.83.2-1.51.61-2.03.41-.52.95-.77,1.63-.77.57,0,1.02.18,1.35.55.33.37.49.88.49,1.52,0,.58-.1,1.1-.31,1.55ZM21.61,38.27c0,2.46-1.99,4.45-4.45,4.45h-4.98V0h4.98c2.46,0,4.45,1.99,4.45,4.45v33.83ZM32,26.07c-2.6,0-4.71-2.11-4.71-4.71s2.11-4.71,4.71-4.71,4.71,2.11,4.71,4.71-2.11,4.71-4.71,4.71ZM47.34,34.39c-.59.77-1.22,1.51-1.91,2.19-.96.95-2.02,1.81-3.15,2.56-1.13.75-2.33,1.4-3.6,1.93-2.53,1.06-5.31,1.65-8.23,1.65h-8.84v-.58c0-.74.1-1.46.27-2.15.03-.13.06-.26.1-.38.04-.14.09-.27.14-.41.04-.12.08-.24.13-.36.05-.13.11-.26.17-.39.05-.12.11-.23.17-.35.06-.12.13-.24.2-.37.07-.11.13-.23.2-.34.07-.11.15-.23.22-.34.08-.11.16-.22.24-.33.08-.1.16-.21.24-.3.1-.11.2-.22.3-.33.08-.09.16-.17.24-.26.18-.18.37-.36.57-.52,0,0,.01-.01.02-.01.06-.05.12-.09.17-.13.15-.12.3-.23.45-.34.09-.06.18-.11.27-.17.14-.09.27-.17.42-.25.1-.06.2-.11.3-.16.14-.07.28-.14.43-.21.1-.05.21-.09.32-.13.15-.06.3-.11.45-.17.11-.04.21-.07.32-.1.16-.05.32-.09.49-.13.11-.02.21-.05.32-.07.18-.04.37-.06.56-.08.09-.01.18-.03.28-.04.28-.03.57-.04.85-.04h0c.4,0,.79-.02,1.17-.06.13-.01.25-.03.38-.05.26-.03.51-.07.76-.12.15-.03.29-.07.44-.1.22-.05.45-.11.67-.18.15-.04.3-.09.45-.14.21-.07.42-.15.62-.23.15-.06.29-.12.44-.18.2-.09.39-.19.59-.29.14-.07.28-.14.41-.22.2-.11.39-.24.58-.36.12-.08.24-.15.36-.23.29-.2.57-.42.84-.65.12-.1.23-.21.34-.32.15-.14.31-.28.45-.43.13-.13.25-.27.37-.41.12-.13.24-.26.35-.4.12-.15.24-.31.36-.46.1-.13.2-.27.29-.41.11-.17.22-.34.33-.51.08-.14.16-.28.24-.42.1-.18.2-.36.29-.55.07-.14.13-.28.19-.42.09-.2.18-.39.25-.6.05-.13.09-.26.13-.39.18-.55.34-1.1.44-1.68,0,0,0,0,0,0,.15-.83.22-1.7.18-2.58-.24-6.46-5.76-11.47-12.22-11.47-4.72,0-8.55-3.83-8.55-8.55v-.87h8.42c7.19,0,13.68,3.54,17.67,8.96,0,0,0,0,.01.01.22.31.44.62.65.94.03.04.06.09.08.13.18.28.36.57.53.86.03.06.07.12.1.18.16.29.32.58.47.88.03.06.06.11.09.17.17.34.33.68.48,1.03,0,.01.01.02.02.04.31.73.58,1.47.81,2.24.03.1.05.19.08.29.08.28.15.55.22.83.03.13.06.26.09.39.06.25.11.51.15.76.03.14.05.29.07.43.04.25.07.5.1.76.02.14.04.29.05.43.03.27.05.55.06.82,0,.13.02.25.02.38.02.4.02.8.02,1.21-.08,4.76-1.75,9.14-4.47,12.66Z"/>
</svg>