<?xml version="1.0" encoding="UTF-8"?>
<svg id="Layer_1" xmlns="http://www.w3.org/2000/svg" viewBox="0 0 64 64">
  <defs>
    <style>
      .cls-1 {
        fill: #231f20;
      }
    </style>
  </defs>
  <path class="cls-1" d="M61.68,32.55c-.3,17.39-14.54,31.45-32,31.45h-13.25v-.87c0-7.32,5.93-13.25,13.25-13.25h0c10.09,0,18.25-8.4,17.87-18.57-.37-9.68-8.62-17.19-18.31-17.19h0c-7.08,0-12.81-5.74-12.81-12.81V0h12.61c17.9,0,32.94,14.65,32.63,32.55ZM16.43,49.88V14.12C16.43,6.32,10.11,0,2.31,0h0v64s0,0,0,0c7.8,0,14.12-6.32,14.12-14.12ZM32,24.94c-3.9,0-7.06,3.16-7.06,7.06s3.16,7.06,7.06,7.06,7.06-3.16,7.06-7.06-3.16-7.06-7.06-7.06Z"/>
</svg>