<?xml version="1.0" encoding="UTF-8"?>
<svg id="Layer_1" xmlns="http://www.w3.org/2000/svg" xmlns:xlink="http://www.w3.org/1999/xlink" viewBox="0 0 64 64">
  <defs>
    <style>
      .cls-1 {
        fill: #190724;
      }

      .cls-2 {
        fill: url(#linear-gradient);
      }
    </style>
    <linearGradient id="linear-gradient" x1="17.12" y1="64.4" x2="80.76" y2=".76" gradientUnits="userSpaceOnUse">
      <stop offset="0" stop-color="#190724"/>
      <stop offset="1" stop-color="#473950"/>
    </linearGradient>
  </defs>
  <path class="cls-1" d="M29.05,3c7.94,0,15.71,3.27,21.32,8.98,5.49,5.59,8.45,12.88,8.32,20.52-.27,15.71-13.28,28.5-29,28.5h-10.03c.98-4.63,5.11-8.12,10.03-8.12,5.72,0,11.06-2.27,15.04-6.41,3.97-4.13,6.04-9.55,5.83-15.28-.42-11.07-9.98-20.08-21.3-20.08-4.83,0-8.86-3.51-9.67-8.12h9.47M29.05,0h-12.61v1.31c0,7.08,5.74,12.81,12.81,12.81h0s0,0,0,0c9.68,0,17.94,7.51,18.31,17.19.38,10.17-7.78,18.57-17.87,18.57h0c-7.32,0-13.25,5.93-13.25,13.25v.87h13.25c17.46,0,31.7-14.06,32-31.45C61.99,14.65,46.95,0,29.05,0h0Z"/>
  <path class="cls-2" d="M51.03,12.69c5.06,5.49,7.77,12.49,7.65,19.82-.27,15.71-13.28,28.5-29,28.5h-10.03c.98-4.63,5.11-8.12,10.03-8.12,5.72,0,11.06-2.27,15.04-6.41,3.97-4.13,6.04-9.55,5.83-15.28-.04-.93-.3-2.75-.3-2.75-1.38,4.15-2.97,6.73-2.97,6.73-1.5,8.35-8.82,14.7-17.6,14.7h0c-7.32,0-13.25,5.93-13.25,13.25v.87h13.25c17.46,0,31.7-14.06,32-31.45.18-10.37-4.8-19.65-12.49-25.63,0,0,1.42,3.23,1.84,5.75"/>
  <path class="cls-1" d="M5.31,3.41c4.68,1.31,8.12,5.62,8.12,10.71v35.76c0,5.09-3.44,9.4-8.12,10.71V3.41M2.31,0h0v64h0c7.8,0,14.12-6.32,14.12-14.12V14.12C16.43,6.32,10.11,0,2.31,0h0Z"/>
  <path class="cls-1" d="M32,27.94c2.24,0,4.06,1.82,4.06,4.06s-1.82,4.06-4.06,4.06-4.06-1.82-4.06-4.06,1.82-4.06,4.06-4.06M32,24.94c-3.9,0-7.06,3.16-7.06,7.06s3.16,7.06,7.06,7.06,7.06-3.16,7.06-7.06-3.16-7.06-7.06-7.06h0Z"/>
</svg>