<?xml version="1.0" encoding="UTF-8"?>
<svg id="Layer_1" xmlns="http://www.w3.org/2000/svg" xmlns:xlink="http://www.w3.org/1999/xlink" viewBox="0 0 64 64">
  <defs>
    <style>
      .cls-1 {
        fill: url(#linear-gradient-2);
      }

      .cls-2 {
        fill: url(#linear-gradient-3);
      }

      .cls-3 {
        fill: url(#linear-gradient);
      }

      .cls-4 {
        fill: #4f2a09;
      }
    </style>
    <linearGradient id="linear-gradient" x1="8.33" y1="4.05" x2="35.83" y2="31.55" gradientUnits="userSpaceOnUse">
      <stop offset="0" stop-color="#754d1e"/>
      <stop offset="1" stop-color="#532e14"/>
    </linearGradient>
    <linearGradient id="linear-gradient-2" x1="22.04" y1="43.01" x2="64.51" y2=".54" gradientUnits="userSpaceOnUse">
      <stop offset="0" stop-color="#754d1e"/>
      <stop offset="1" stop-color="#ab813f"/>
    </linearGradient>
    <linearGradient id="linear-gradient-3" x1="29.96" y1="32.78" x2="63.28" y2="-.54" xlink:href="#linear-gradient-2"/>
  </defs>
  <g>
    <path class="cls-4" d="M.77,60.54v-11.69h3.47c2.27,0,3.99.49,5.15,1.47,1.16.98,1.75,2.42,1.75,4.33,0,1.19-.26,2.22-.77,3.1-.52.88-1.25,1.57-2.19,2.06-.94.49-2.05.73-3.33.73H.77ZM2.91,58.65h1.86c1.37,0,2.41-.33,3.13-1,.71-.66,1.07-1.64,1.07-2.92s-.37-2.34-1.09-3c-.73-.66-1.85-.99-3.35-.99h-1.61v7.9Z"/>
    <path class="cls-4" d="M15.87,64c-.49,0-1.02-.05-1.57-.15-.55-.1-1.01-.26-1.37-.49l.49-1.75c.37.19.77.33,1.18.45.42.11.87.16,1.37.16.97,0,1.65-.23,2.06-.68s.63-1.18.67-2.18l.07-1.09c-.33.7-.77,1.24-1.31,1.6-.54.37-1.15.55-1.82.55-.93,0-1.64-.31-2.11-.94s-.7-1.49-.69-2.6l.03-4.66h2.01l-.03,4.5c0,.57.1,1.02.3,1.34.2.32.53.49,1,.49.5,0,.94-.19,1.32-.59.37-.39.67-1.04.88-1.96.21-.92.33-2.18.34-3.78h1.94v6.88c0,1.67-.42,2.9-1.25,3.7-.83.8-2,1.19-3.51,1.19Z"/>
    <path class="cls-4" d="M22.77,60.54v-8.32h2.01l-.1,2.09c.32-.71.75-1.26,1.3-1.65s1.17-.58,1.88-.58c.93,0,1.64.32,2.12.96s.71,1.56.7,2.76l-.03,4.73h-2.01l.03-4.56c.01-.65-.09-1.14-.3-1.49s-.56-.52-1.03-.52c-.36,0-.7.1-1,.31-.31.21-.58.56-.81,1.06-.23.5-.41,1.17-.54,2.03-.13.85-.2,1.91-.21,3.17h-1.99Z"/>
    <path class="cls-4" d="M36.22,60.69c-1,0-1.78-.27-2.33-.82-.56-.55-.83-1.27-.82-2.16l.07-3.8h-1.42v-1.68h1.45l.02-1.71h2.01l-.03,1.71h2.72v1.68h-2.73l-.05,3.59c-.01.45.1.8.34,1.06.24.26.59.39,1.06.39.25,0,.49-.03.71-.1s.45-.19.69-.36l.59,1.55c-.25.22-.58.38-.97.49s-.83.16-1.3.16Z"/>
    <path class="cls-4" d="M46.98,52.26v8.28h-2.04l.07-1.45c-.3.51-.68.9-1.16,1.18-.48.28-1.02.42-1.64.42-.72,0-1.34-.17-1.84-.5-.5-.33-.89-.8-1.15-1.39-.26-.59-.4-1.27-.4-2.04,0-.92.18-1.73.54-2.43.36-.7.86-1.24,1.49-1.64s1.34-.59,2.13-.59c.53,0,.99.11,1.4.34.41.23.72.52.94.9l.2-1.07h1.47ZM43.12,53.87c-.68,0-1.22.26-1.63.77-.41.52-.61,1.19-.61,2.03,0,.71.15,1.27.46,1.66.31.39.73.59,1.27.59.44,0,.84-.13,1.19-.38.36-.25.64-.6.85-1.05.21-.45.31-.97.31-1.55,0-.65-.16-1.16-.49-1.52-.33-.37-.78-.55-1.35-.55Z"/>
    <path class="cls-4" d="M54.45,54.17c-.22-.08-.5-.11-.84-.11-.59,0-1.07.22-1.43.65-.36.43-.63,1.12-.8,2.07-.17.95-.25,2.2-.25,3.76h-1.99v-5.37l-.02-2.95h2.01l-.1,2.32c.29-.89.68-1.52,1.19-1.89s1.06-.56,1.64-.56c.18,0,.34,0,.49.03s.3.05.43.1l-.33,1.94Z"/>
    <path class="cls-4" d="M63.23,52.26v8.28h-2.04l.07-1.45c-.3.51-.68.9-1.16,1.18-.48.28-1.02.42-1.64.42-.72,0-1.34-.17-1.84-.5-.5-.33-.89-.8-1.15-1.39-.26-.59-.4-1.27-.4-2.04,0-.92.18-1.73.54-2.43.36-.7.86-1.24,1.49-1.64s1.34-.59,2.13-.59c.53,0,.99.11,1.4.34.41.23.72.52.94.9l.2-1.07h1.47ZM59.37,53.87c-.68,0-1.22.26-1.63.77-.41.52-.61,1.19-.61,2.03,0,.71.15,1.27.46,1.66.31.39.73.59,1.27.59.44,0,.84-.13,1.19-.38.36-.25.64-.6.85-1.05.21-.45.31-.97.31-1.55,0-.65-.16-1.16-.49-1.52-.33-.37-.78-.55-1.35-.55Z"/>
  </g>
  <g>
    <path class="cls-3" d="M51.81,21.73c-.2,11.61-9.7,20.99-21.36,20.99h-8.84v-.58c0-4.88,3.96-8.84,8.84-8.84h0c6.73,0,12.18-5.61,11.93-12.39s-5.76-11.47-12.22-11.47h0c-4.72,0-8.55-3.83-8.55-8.55V0h8.42c11.95,0,21.98,9.78,21.78,21.73ZM21.61,38.27V4.45c0-2.46-1.99-4.45-4.45-4.45h-4.98s0,42.72,0,42.72h4.98c2.46,0,4.45-1.99,4.45-4.45ZM32,16.65c-2.6,0-4.71,2.11-4.71,4.71s2.11,4.71,4.71,4.71,4.71-2.11,4.71-4.71-2.11-4.71-4.71-4.71Z"/>
    <path class="cls-1" d="M43.47,4.63c.91,2.09,1.48,4.33,1.63,6.67.28,4.46-.82,8.64-2.9,12.18-1,5.57-5.88,9.81-11.74,9.81-4.88,0-8.84,3.96-8.84,8.84v.58h8.84c11.65,0,21.16-9.38,21.36-20.99.12-6.92-3.2-13.11-8.34-17.1Z"/>
    <path class="cls-2" d="M49.5,19.41c.09-5.36-1.88-10.27-5.16-14.07-.29-.25-.58-.49-.88-.72.91,2.09,1.48,4.33,1.63,6.67.28,4.46-.82,8.64-2.9,12.18-1,5.57-5.88,9.81-11.74,9.81-4.29,0-7.87,3.06-8.67,7.11h6.36c11.65,0,21.16-9.38,21.36-20.99Z"/>
  </g>
</svg>