<?xml version="1.0" encoding="UTF-8"?>
<svg id="Layer_1" xmlns="http://www.w3.org/2000/svg" xmlns:xlink="http://www.w3.org/1999/xlink" viewBox="0 0 64 64">
  <defs>
    <style>
      .cls-1 {
        fill: url(#linear-gradient-2);
      }

      .cls-2 {
        fill: url(#linear-gradient-3);
      }

      .cls-3 {
        fill: url(#linear-gradient);
      }

      .cls-4 {
        fill: #4f2a09;
      }
    </style>
    <linearGradient id="linear-gradient" x1="-1.62" y1="24.73" x2="9.93" y2="36.28" gradientUnits="userSpaceOnUse">
      <stop offset="0" stop-color="#754d1e"/>
      <stop offset="1" stop-color="#532e14"/>
    </linearGradient>
    <linearGradient id="linear-gradient-2" x1="4.14" y1="41.1" x2="21.99" y2="23.25" gradientUnits="userSpaceOnUse">
      <stop offset="0" stop-color="#754d1e"/>
      <stop offset="1" stop-color="#ab813f"/>
    </linearGradient>
    <linearGradient id="linear-gradient-3" x1="7.47" y1="36.8" x2="21.47" y2="22.8" xlink:href="#linear-gradient-2"/>
  </defs>
  <g>
    <path class="cls-4" d="M20.68,34.86v-8.11h2.41c1.58,0,2.77.34,3.57,1.02.81.68,1.21,1.68,1.21,3,0,.82-.18,1.54-.54,2.15-.36.61-.86,1.09-1.52,1.43-.65.34-1.42.51-2.31.51h-2.83ZM22.17,33.54h1.29c.95,0,1.67-.23,2.17-.69.49-.46.74-1.14.74-2.03s-.25-1.62-.76-2.08c-.51-.46-1.28-.69-2.32-.69h-1.12v5.48Z"/>
    <path class="cls-4" d="M31.16,37.25c-.34,0-.71-.03-1.09-.1-.38-.07-.7-.18-.95-.34l.34-1.21c.26.13.53.23.82.31.29.08.61.11.95.11.67,0,1.15-.16,1.43-.47s.44-.82.47-1.51l.05-.75c-.23.49-.53.86-.91,1.11-.38.26-.8.38-1.26.38-.65,0-1.13-.22-1.46-.65s-.49-1.04-.48-1.8l.02-3.23h1.39l-.02,3.12c0,.39.07.71.21.93.14.22.37.34.69.34.35,0,.65-.14.91-.41.26-.27.46-.72.61-1.36.15-.63.23-1.51.23-2.62h1.35v4.77c0,1.16-.29,2.01-.87,2.56-.58.55-1.39.83-2.43.83Z"/>
    <path class="cls-4" d="M35.94,34.86v-5.77h1.39l-.07,1.45c.22-.49.52-.87.9-1.14s.81-.4,1.3-.4c.65,0,1.14.22,1.47.67s.49,1.08.49,1.91l-.02,3.28h-1.39l.02-3.16c0-.45-.06-.79-.21-1.03s-.39-.36-.71-.36c-.25,0-.48.07-.7.22-.21.14-.4.39-.56.74-.16.35-.29.81-.38,1.4-.09.59-.14,1.32-.15,2.2h-1.38Z"/>
    <path class="cls-4" d="M45.27,34.96c-.69,0-1.23-.19-1.62-.57-.38-.38-.57-.88-.57-1.5l.05-2.64h-.98v-1.16h1v-1.19h1.4l-.02,1.19h1.88v1.16h-1.9l-.03,2.49c0,.31.07.56.23.74.16.18.41.27.74.27.18,0,.34-.02.49-.07s.31-.13.48-.25l.41,1.07c-.18.15-.4.27-.67.34s-.57.11-.9.11Z"/>
    <path class="cls-4" d="M52.73,29.11v5.74h-1.42l.05-1.01c-.21.35-.47.62-.81.82-.33.19-.71.29-1.14.29-.5,0-.93-.12-1.28-.35-.35-.23-.62-.55-.8-.97-.18-.41-.27-.88-.27-1.42,0-.64.13-1.2.38-1.68.25-.48.6-.86,1.03-1.14s.93-.41,1.48-.41c.37,0,.69.08.97.23.28.16.5.36.65.62l.14-.74h1.02ZM50.06,30.23c-.47,0-.85.18-1.13.54-.28.36-.42.83-.42,1.4,0,.49.11.88.32,1.15.21.27.51.41.88.41.3,0,.58-.09.83-.26.25-.18.44-.42.59-.73.14-.31.22-.67.22-1.07,0-.45-.11-.8-.34-1.06-.23-.26-.54-.38-.94-.38Z"/>
    <path class="cls-4" d="M57.91,30.44c-.15-.05-.35-.08-.58-.08-.41,0-.74.15-.99.45-.25.3-.44.78-.55,1.44-.12.66-.18,1.53-.18,2.61h-1.38v-5.77s1.38,0,1.38,0l-.07,1.61c.2-.62.47-1.05.83-1.31s.73-.39,1.14-.39c.12,0,.24,0,.34.02s.21.04.3.07l-.23,1.35Z"/>
    <path class="cls-4" d="M64,29.11v5.74h-1.42l.05-1.01c-.21.35-.47.62-.81.82-.33.19-.71.29-1.14.29-.5,0-.93-.12-1.28-.35-.35-.23-.62-.55-.8-.97-.18-.41-.27-.88-.27-1.42,0-.64.13-1.2.38-1.68.25-.48.6-.86,1.03-1.14s.93-.41,1.48-.41c.37,0,.69.08.97.23.28.16.5.36.65.62l.14-.74h1.02ZM61.33,30.23c-.47,0-.85.18-1.13.54-.28.36-.42.83-.42,1.4,0,.49.11.88.32,1.15.21.27.51.41.88.41.3,0,.58-.09.83-.26.25-.18.44-.42.59-.73.14-.31.22-.67.22-1.07,0-.45-.11-.8-.34-1.06-.23-.26-.54-.38-.94-.38Z"/>
  </g>
  <g>
    <path class="cls-3" d="M16.65,32.16c-.08,4.88-4.08,8.82-8.97,8.82h-3.72v-.24c0-2.05,1.66-3.72,3.72-3.72h0c2.83,0,5.12-2.36,5.01-5.21s-2.42-4.82-5.13-4.82h0c-1.98,0-3.59-1.61-3.59-3.59v-.37h3.54c5.02,0,9.24,4.11,9.15,9.13ZM3.96,37.11v-10.21c0-2.14-1.73-3.87-3.87-3.87H0v17.95s.09,0,.09,0c2.14,0,3.87-1.73,3.87-3.87ZM8.32,30.02c-1.09,0-1.98.89-1.98,1.98s.89,1.98,1.98,1.98,1.98-.89,1.98-1.98-.89-1.98-1.98-1.98Z"/>
    <path class="cls-1" d="M13.14,24.97c.38.88.62,1.82.68,2.8.12,1.87-.34,3.63-1.22,5.12-.42,2.34-2.47,4.12-4.93,4.12-2.05,0-3.72,1.66-3.72,3.72v.24h3.72c4.9,0,8.89-3.94,8.97-8.82.05-2.91-1.35-5.51-3.5-7.18Z"/>
    <path class="cls-2" d="M15.68,31.18c.04-2.25-.79-4.31-2.17-5.91-.12-.1-.24-.2-.37-.3.38.88.62,1.82.68,2.8.12,1.87-.34,3.63-1.22,5.12-.42,2.34-2.47,4.12-4.93,4.12-1.8,0-3.3,1.28-3.64,2.99h2.67c4.9,0,8.89-3.94,8.97-8.82Z"/>
  </g>
</svg>