<?xml version="1.0" encoding="UTF-8"?>
<svg id="Layer_1" xmlns="http://www.w3.org/2000/svg" viewBox="0 0 64 64">
  <path d="M32.02,29.61c.5,0,1.76.11,2.73,1.15,2.1,2.26,8.33,10.06,8.87,10.86.3.49.89,1.87-.17,4.22-.94,2.11-3.29,2.41-3.35,2.42-.19.02-.29.03-.47.09-.07.01-.3.06-.61.06-.45,0-.87-.08-1.25-.24l-1.53-6.18c.85-1.06,1.33-2.41,1.33-3.83,0-3.33-2.63-6.05-5.87-6.05s-5.8,2.71-5.8,6.05c0,1.42.48,2.77,1.33,3.83l-1.53,6.18c-.38.16-.8.24-1.25.24-.31,0-.54-.04-.61-.06-.17-.06-.24-.06-.44-.08-.1-.01-2.44-.32-3.38-2.42-1.05-2.35-.47-3.74-.19-4.19.56-.83,6.79-8.64,8.89-10.9.97-1.04,2.14-1.15,2.6-1.15.03,0,.05,0,.07,0,.12.02.19.03.26.03s.14,0,.26-.03c.02,0,.06,0,.12,0M32.02,26.91c-.23,0-.37.01-.37.01,0,0-.13-.01-.35-.01-.81,0-2.89.2-4.58,2.02-2.15,2.32-8.71,10.52-9.19,11.28-.47.76-1.63,3.11,0,6.75,1.63,3.64,5.56,4.01,5.56,4.01,0,0,.53.15,1.33.15.97,0,2.33-.23,3.61-1.22l2.18-8.8c-1.01-.59-1.63-1.71-1.63-2.93,0-1.85,1.35-3.35,3.1-3.35s3.17,1.5,3.17,3.35c0,1.22-.63,2.34-1.63,2.93l2.18,8.8c1.28,1,2.64,1.22,3.61,1.22.8,0,1.33-.15,1.33-.15,0,0,3.94-.37,5.56-4.01,1.63-3.64.47-5.98,0-6.75-.47-.76-7.03-8.96-9.19-11.28-1.69-1.82-3.86-2.02-4.71-2.02h0ZM39.19,15.66s.07,0,.1,0c.34.03.66.23.95.59.63.78.92,2.08.76,3.4-.27,2.21-1.64,3.75-2.71,3.75-.03,0-.07,0-.1,0-.34-.03-.66-.23-.95-.59-.63-.78-.92-2.08-.76-3.4.27-2.21,1.64-3.75,2.71-3.75M39.19,12.96c-2.6,0-4.97,2.65-5.39,6.12-.44,3.62,1.41,6.76,4.14,7,.12.01.23.02.35.02,2.6,0,4.97-2.65,5.39-6.12.44-3.62-1.41-6.76-4.14-7-.12-.01-.23-.02-.35-.02h0ZM48.71,26.1s.07,0,.1,0c.34.03.66.23.95.59.63.78.92,2.08.76,3.4-.27,2.21-1.64,3.75-2.71,3.75-.03,0-.07,0-.1,0-.34-.03-.66-.23-.95-.59-.63-.78-.92-2.08-.76-3.4.27-2.21,1.64-3.75,2.71-3.75M48.71,23.4c-2.6,0-4.97,2.65-5.39,6.12-.44,3.62,1.41,6.76,4.14,7,.12.01.23.02.35.02,2.6,0,4.97-2.65,5.39-6.12.44-3.62-1.41-6.76-4.14-7-.12-.01-.23-.02-.35-.02h0ZM24.81,15.59c1.07,0,2.44,1.54,2.71,3.75.16,1.32-.13,2.62-.76,3.4-.29.36-.61.56-.95.59-.03,0-.07,0-.1,0-1.07,0-2.44-1.54-2.71-3.75-.16-1.32.13-2.62.76-3.4.29-.36.61-.56.95-.59.03,0,.07,0,.1,0M24.81,12.89c-.11,0-.23,0-.35.02-2.73.25-4.58,3.38-4.14,7,.42,3.47,2.8,6.12,5.39,6.12.11,0,.23,0,.35-.02,2.73-.25,4.58-3.38,4.14-7-.42-3.47-2.8-6.12-5.39-6.12h0ZM15.29,26.02c1.07,0,2.44,1.54,2.71,3.75.16,1.32-.13,2.62-.76,3.4-.29.36-.61.56-.95.59-.03,0-.07,0-.1,0-1.07,0-2.44-1.54-2.71-3.75-.16-1.32.13-2.62.76-3.4.29-.36.61-.56.95-.59.03,0,.07,0,.1,0M15.29,23.32c-.11,0-.23,0-.35.02-2.73.25-4.58,3.38-4.14,7,.42,3.47,2.8,6.12,5.39,6.12.11,0,.23,0,.35-.02,2.73-.25,4.58-3.38,4.14-7-.42-3.47-2.8-6.12-5.39-6.12h0ZM39.3,63.15c2.36-.55,4.66-1.38,6.83-2.46s4.23-2.4,6.1-3.94c1.9-1.56,3.62-3.34,5.12-5.29.47-.61.35-1.49-.25-1.96-.61-.47-1.48-.36-1.95.25-5.49,7.17-14.15,11.44-23.15,11.44s-17.66-4.28-23.15-11.44c-.47-.61-1.34-.72-1.95-.25-.61.47-.72,1.35-.25,1.96,1.5,1.95,3.22,3.73,5.12,5.29,1.88,1.54,3.93,2.86,6.1,3.94,2.17,1.07,4.47,1.9,6.83,2.46,2.39.56,4.84.85,7.3.85s4.91-.28,7.3-.85ZM4.23,44.87c.71-.29,1.05-1.11.76-1.82-1.46-3.57-2.21-7.33-2.21-11.18C2.78,17.22,13.68,4.71,28.14,2.78c.76-.1,1.3-.8,1.19-1.57-.1-.76-.8-1.3-1.56-1.2-3.9.52-7.61,1.74-11.05,3.61-3.33,1.82-6.29,4.2-8.8,7.07-2.51,2.88-4.46,6.14-5.82,9.7-1.4,3.67-2.1,7.53-2.1,11.47,0,4.22.81,8.34,2.42,12.25.22.54.74.86,1.29.86.18,0,.36-.03.53-.11ZM61.59,44.11c1.6-3.9,2.41-8.02,2.41-12.25,0-3.95-.71-7.81-2.1-11.47-1.36-3.56-3.31-6.82-5.82-9.69-2.51-2.87-5.47-5.26-8.8-7.07-3.43-1.87-7.15-3.09-11.05-3.61-.76-.1-1.46.43-1.56,1.2-.1.76.43,1.47,1.19,1.57,14.46,1.94,25.36,14.44,25.36,29.09,0,3.86-.74,7.62-2.2,11.18-.29.71.05,1.53.76,1.82.17.07.35.11.53.11.55,0,1.06-.33,1.29-.86Z"/>
</svg>