<?xml version="1.0" encoding="UTF-8"?>
<svg id="Layer_1" xmlns="http://www.w3.org/2000/svg" viewBox="0 0 64 64">
  <defs>
    <style>
      .cls-1 {
        fill: #231f20;
        fill-rule: evenodd;
      }
    </style>
  </defs>
  <path class="cls-1" d="M36.73,28.93c2.15,2.32,8.71,10.52,9.19,11.28.47.76,1.63,3.11,0,6.75-1.63,3.64-5.56,4.01-5.56,4.01,0,0-2.61.75-4.94-1.07l-2.18-8.8c1.01-.59,1.63-1.71,1.63-2.93,0-1.85-1.42-3.35-3.17-3.35s-3.1,1.5-3.1,3.35c0,1.22.63,2.34,1.63,2.93l-2.18,8.8c-2.34,1.82-4.94,1.07-4.94,1.07,0,0-3.94-.37-5.56-4.01-1.63-3.64-.47-5.98,0-6.75.47-.76,7.03-8.96,9.19-11.28,2.15-2.32,4.93-2,4.93-2,0,0,2.92-.32,5.07,2ZM37.94,26.08c2.73.25,5.3-2.48,5.74-6.1.44-3.62-1.41-6.76-4.14-7-2.73-.25-5.3,2.48-5.74,6.1-.44,3.62,1.41,6.76,4.14,7ZM47.46,36.52c2.73.25,5.3-2.48,5.74-6.1.44-3.62-1.41-6.76-4.14-7-2.73-.25-5.3,2.48-5.74,6.1-.44,3.62,1.41,6.76,4.14,7ZM30.2,19.01c-.44-3.62-3.01-6.35-5.74-6.1-2.73.25-4.58,3.38-4.14,7,.44,3.62,3.01,6.35,5.74,6.1,2.73-.25,4.58-3.38,4.14-7ZM20.68,29.44c-.44-3.62-3.01-6.35-5.74-6.1-2.73.25-4.58,3.38-4.14,7,.44,3.62,3.01,6.35,5.74,6.1,2.73-.25,4.58-3.38,4.14-7ZM39.3,63.15c2.36-.55,4.66-1.38,6.83-2.46s4.23-2.4,6.1-3.94c1.9-1.56,3.62-3.34,5.12-5.29.47-.61.35-1.49-.25-1.96-.61-.47-1.48-.36-1.95.25-5.49,7.17-14.15,11.44-23.15,11.44s-17.66-4.28-23.15-11.44c-.47-.61-1.34-.72-1.95-.25-.61.47-.72,1.35-.25,1.96,1.5,1.95,3.22,3.73,5.12,5.29,1.88,1.54,3.93,2.86,6.1,3.94,2.17,1.07,4.47,1.9,6.83,2.46,2.39.56,4.84.85,7.3.85s4.91-.28,7.3-.85ZM4.23,44.87c.71-.29,1.05-1.11.76-1.82-1.46-3.57-2.21-7.33-2.21-11.18C2.78,17.22,13.68,4.71,28.14,2.78c.76-.1,1.3-.8,1.19-1.57-.1-.76-.8-1.3-1.56-1.2-3.9.52-7.61,1.74-11.05,3.61-3.33,1.82-6.29,4.2-8.8,7.07-2.51,2.88-4.46,6.14-5.82,9.7-1.4,3.67-2.1,7.53-2.1,11.47,0,4.22.81,8.34,2.42,12.25.22.54.74.86,1.29.86.18,0,.36-.03.53-.11ZM61.59,44.11c1.6-3.9,2.41-8.02,2.41-12.25,0-3.95-.71-7.81-2.1-11.47-1.36-3.56-3.31-6.82-5.82-9.69-2.51-2.87-5.47-5.26-8.8-7.07-3.43-1.87-7.15-3.09-11.05-3.61-.76-.1-1.46.43-1.56,1.2-.1.76.43,1.47,1.19,1.57,14.46,1.94,25.36,14.44,25.36,29.09,0,3.86-.74,7.62-2.2,11.18-.29.71.05,1.53.76,1.82.17.07.35.11.53.11.55,0,1.06-.33,1.29-.86Z"/>
</svg>