<?xml version="1.0" encoding="UTF-8"?>
<svg id="Layer_1" xmlns="http://www.w3.org/2000/svg" viewBox="0 0 64 64">
  <defs>
    <style>
      .cls-1 {
        fill: #848685;
      }

      .cls-2 {
        fill: #fff;
      }

      .cls-3 {
        fill-rule: evenodd;
      }

      .cls-3, .cls-4 {
        fill: #0c91f0;
      }
    </style>
  </defs>
  <rect class="cls-2" width="64" height="64" rx="10" ry="10"/>
  <g>
    <g>
      <path class="cls-3" d="M31.78,28.83s-1.74-.2-3.08,1.25c-1.35,1.45-5.45,6.57-5.74,7.05-.3.48-1.02,1.94,0,4.22,1.02,2.27,3.48,2.5,3.48,2.5,0,0,1.63.47,3.09-.67l1.36-5.5c-.63-.37-1.02-1.07-1.02-1.83,0-1.15.84-2.09,1.94-2.09s1.98.94,1.98,2.09c0,.76-.39,1.46-1.02,1.83l1.36,5.5c1.46,1.14,3.09.67,3.09.67,0,0,2.46-.23,3.48-2.5,1.02-2.27.3-3.74,0-4.22-.3-.48-4.4-5.6-5.74-7.05-1.35-1.45-3.17-1.25-3.17-1.25Z"/>
      <ellipse class="cls-4" cx="36.21" cy="24.21" rx="4.13" ry="3.1" transform="translate(6.54 56.09) rotate(-80.83)"/>
      <ellipse class="cls-4" cx="42.16" cy="30.73" rx="4.13" ry="3.1" transform="translate(5.1 67.45) rotate(-80.83)"/>
      <ellipse class="cls-4" cx="27.79" cy="24.16" rx="3.1" ry="4.13" transform="translate(-3.5 4.74) rotate(-9.17)"/>
      <ellipse class="cls-4" cx="21.84" cy="30.68" rx="3.1" ry="4.13" transform="translate(-4.61 3.87) rotate(-9.17)"/>
    </g>
    <g>
      <path class="cls-1" d="M32,52c-1.53,0-3.07-.18-4.56-.53-1.47-.35-2.91-.86-4.27-1.53-1.36-.67-2.64-1.5-3.82-2.46-1.19-.97-2.26-2.09-3.2-3.31-.29-.38-.22-.93.16-1.22.38-.29.93-.22,1.22.16,3.43,4.48,8.84,7.15,14.47,7.15s11.04-2.67,14.47-7.15c.29-.38.84-.45,1.22-.16.38.29.45.84.16,1.22-.94,1.22-2.01,2.33-3.2,3.31-1.17.96-2.46,1.79-3.82,2.46s-2.8,1.19-4.27,1.53c-1.49.35-3.03.53-4.56.53Z"/>
      <path class="cls-1" d="M14.31,40.11c-.34,0-.67-.2-.8-.54-1-2.44-1.51-5.02-1.51-7.65,0-2.47.44-4.88,1.31-7.17.85-2.22,2.07-4.26,3.64-6.06,1.57-1.8,3.42-3.28,5.5-4.42,2.15-1.17,4.47-1.93,6.9-2.26.48-.06.91.27.98.75.06.48-.27.92-.75.98-9.04,1.21-15.85,9.03-15.85,18.18,0,2.41.46,4.76,1.38,6.99.18.45-.03.96-.47,1.14-.11.04-.22.07-.33.07Z"/>
      <path class="cls-1" d="M49.69,40.11c-.11,0-.22-.02-.33-.07-.44-.18-.65-.69-.47-1.14.91-2.23,1.38-4.58,1.38-6.99,0-9.15-6.81-16.97-15.85-18.18-.48-.06-.81-.5-.75-.98.06-.48.5-.81.98-.75,2.44.33,4.76,1.09,6.9,2.26,2.08,1.14,3.93,2.62,5.5,4.42,1.57,1.8,2.79,3.84,3.64,6.06.87,2.29,1.31,4.7,1.31,7.17,0,2.64-.51,5.21-1.51,7.65-.14.34-.46.54-.8.54Z"/>
    </g>
  </g>
</svg>