<?xml version="1.0" encoding="UTF-8"?>
<svg id="Layer_1" xmlns="http://www.w3.org/2000/svg" viewBox="0 0 64 64">
  <path d="M54,0H10C4.48,0,0,4.48,0,10v44c0,5.52,4.48,10,10,10h44c5.52,0,10-4.48,10-10V10c0-5.52-4.48-10-10-10ZM33.12,23.92c.28-2.26,1.88-3.97,3.59-3.81s2.86,2.12,2.59,4.38c-.28,2.26-1.88,3.97-3.59,3.81-1.7-.16-2.86-2.12-2.59-4.38ZM42.66,26.63c1.7.16,2.86,2.12,2.59,4.38-.28,2.26-1.88,3.97-3.59,3.81s-2.86-2.12-2.59-4.38c.28-2.26,1.88-3.97,3.59-3.81ZM31.78,28.83s1.82-.2,3.17,1.25c1.35,1.45,5.45,6.57,5.74,7.05s1.02,1.94,0,4.22-3.48,2.5-3.48,2.5c0,0-1.63.47-3.09-.67l-1.36-5.5c.63-.37,1.02-1.07,1.02-1.83,0-1.15-.89-2.09-1.98-2.09s-1.94.94-1.94,2.09c0,.76.39,1.46,1.02,1.83l-1.36,5.5c-1.46,1.14-3.09.67-3.09.67,0,0-2.46-.23-3.48-2.5s-.3-3.74,0-4.22,4.4-5.6,5.74-7.05c1.35-1.45,3.08-1.25,3.08-1.25ZM22.34,34.78c-1.7.16-3.31-1.55-3.59-3.81-.28-2.26.88-4.22,2.59-4.38,1.7-.16,3.31,1.55,3.59,3.81.28,2.26-.88,4.22-2.59,4.38ZM28.29,28.26c-1.7.16-3.31-1.55-3.59-3.81-.28-2.26.88-4.22,2.59-4.38s3.31,1.55,3.59,3.81c.28,2.26-.88,4.22-2.59,4.38ZM14.64,40.04c-.11.04-.22.07-.33.07-.34,0-.67-.2-.8-.54-1-2.44-1.51-5.02-1.51-7.65,0-2.47.44-4.88,1.31-7.17.85-2.22,2.07-4.26,3.64-6.06,1.57-1.8,3.42-3.28,5.5-4.42,2.15-1.17,4.47-1.93,6.9-2.26.48-.06.91.27.98.75.06.48-.27.92-.75.98-9.04,1.21-15.85,9.03-15.85,18.18,0,2.41.46,4.76,1.38,6.99.18.45-.03.96-.47,1.14ZM47.85,44.17c-.94,1.22-2.01,2.33-3.2,3.31-1.17.96-2.46,1.79-3.82,2.46-1.36.67-2.8,1.19-4.27,1.53-1.49.35-3.03.53-4.56.53s-3.07-.18-4.56-.53c-1.47-.35-2.91-.86-4.27-1.53s-2.64-1.5-3.82-2.46c-1.19-.97-2.26-2.09-3.2-3.31-.29-.38-.22-.93.16-1.22s.93-.22,1.22.16c3.43,4.48,8.84,7.15,14.47,7.15s11.04-2.67,14.47-7.15c.29-.38.84-.45,1.22-.16s.45.84.16,1.22ZM50.49,39.57c-.14.34-.46.54-.8.54-.11,0-.22-.02-.33-.07-.44-.18-.65-.69-.47-1.14.91-2.23,1.38-4.58,1.38-6.99,0-9.15-6.81-16.97-15.85-18.18-.48-.06-.81-.5-.75-.98.06-.48.5-.81.98-.75,2.44.33,4.76,1.09,6.9,2.26,2.08,1.14,3.93,2.62,5.5,4.42s2.79,3.84,3.64,6.06c.87,2.29,1.31,4.7,1.31,7.17,0,2.64-.51,5.21-1.51,7.65Z"/>
</svg>