<?xml version="1.0" encoding="UTF-8"?>
<svg id="Layer_1" xmlns="http://www.w3.org/2000/svg" viewBox="0 0 64 64">
  <path d="M54,0H10C4.48,0,0,4.48,0,10v44c0,5.52,4.48,10,10,10h44c5.52,0,10-4.48,10-10V10c0-5.52-4.48-10-10-10ZM33.38,22.06c.34-2.78,2.31-4.89,4.41-4.69s3.52,2.6,3.18,5.39c-.34,2.78-2.31,4.89-4.41,4.69-2.1-.19-3.52-2.6-3.18-5.39ZM45.12,25.4c2.1.19,3.52,2.6,3.18,5.39-.34,2.78-2.31,4.89-4.41,4.69s-3.52-2.6-3.18-5.39c.34-2.78,2.31-4.89,4.41-4.69ZM31.73,28.1s2.24-.24,3.9,1.54c1.66,1.78,6.7,8.09,7.07,8.68s1.25,2.39,0,5.19-4.28,3.08-4.28,3.08c0,0-2.01.58-3.8-.82l-1.68-6.77c.78-.45,1.26-1.32,1.26-2.25,0-1.42-1.09-2.57-2.44-2.57s-2.38,1.15-2.38,2.57c0,.94.48,1.8,1.26,2.25l-1.68,6.77c-1.8,1.4-3.8.82-3.8.82,0,0-3.03-.28-4.28-3.08s-.36-4.6,0-5.19,5.41-6.89,7.07-8.68c1.66-1.78,3.79-1.54,3.79-1.54ZM20.11,35.42c-2.1.19-4.07-1.91-4.41-4.69-.34-2.78,1.09-5.2,3.18-5.39,2.1-.19,4.07,1.91,4.41,4.69.34,2.78-1.09,5.2-3.18,5.39ZM27.43,27.39c-2.1.19-4.07-1.91-4.41-4.69-.34-2.78,1.09-5.2,3.18-5.39s4.07,1.91,4.41,4.69c.34,2.78-1.09,5.2-3.18,5.39ZM10.64,41.9c-.13.06-.27.08-.41.08-.42,0-.82-.25-.99-.66-1.23-3-1.86-6.17-1.86-9.42,0-3.04.54-6,1.62-8.82,1.04-2.74,2.55-5.25,4.48-7.46,1.93-2.21,4.21-4.04,6.77-5.44,2.64-1.44,5.5-2.38,8.5-2.78.59-.08,1.12.33,1.2.92.08.59-.33,1.13-.92,1.21-11.12,1.49-19.5,11.11-19.5,22.37,0,2.97.57,5.86,1.7,8.6.22.55-.04,1.18-.58,1.4ZM51.5,46.97c-1.15,1.5-2.48,2.87-3.94,4.07-1.44,1.18-3.02,2.2-4.7,3.03-1.67.83-3.44,1.46-5.25,1.89-1.84.43-3.73.65-5.61.65s-3.78-.22-5.61-.65c-1.81-.43-3.58-1.06-5.25-1.89s-3.25-1.85-4.7-3.03c-1.46-1.2-2.79-2.57-3.94-4.07-.36-.47-.27-1.14.19-1.51s1.14-.27,1.5.2c4.22,5.51,10.88,8.8,17.81,8.8s13.58-3.29,17.81-8.8c.36-.47,1.03-.56,1.5-.2s.55,1.04.19,1.51ZM54.75,41.32c-.17.41-.57.66-.99.66-.14,0-.27-.03-.41-.08-.55-.23-.81-.85-.58-1.4,1.13-2.74,1.7-5.63,1.7-8.6,0-11.26-8.38-20.88-19.5-22.37-.59-.08-1-.62-.92-1.21.08-.59.62-1,1.2-.92,3,.4,5.85,1.34,8.5,2.78,2.56,1.4,4.84,3.23,6.77,5.44s3.43,4.72,4.48,7.46c1.07,2.82,1.62,5.79,1.62,8.82,0,3.25-.62,6.42-1.86,9.42Z"/>
</svg>