<?xml version="1.0" encoding="UTF-8"?>
<svg id="Layer_1" xmlns="http://www.w3.org/2000/svg" viewBox="0 0 64 64">
  <defs>
    <style>
      .cls-1 {
        fill: #231f20;
      }
    </style>
  </defs>
  <path class="cls-1" d="M6.68,33.3h-.99c-.33,0-.54.06-.63.18-.09.12-.14.32-.14.62v7.81H1.23c-.47,0-.8-.08-.97-.23-.17-.15-.26-.41-.26-.78v-8.22c0-.68.14-1.17.41-1.49.27-.32.76-.48,1.45-.48h4.82v2.6ZM5.37,29.44H1.94c-.62,0-1.03-.1-1.22-.3-.19-.2-.29-.62-.29-1.26v-4.24c0-.64.1-1.06.29-1.26.19-.2.6-.3,1.22-.3h3.42v7.37ZM9.17,22.1h3.7c.53,0,.87.1,1.01.3.15.2.22.62.22,1.26v8.33c0,.46-.06.79-.19,1s-.41.31-.85.31h-5.29v-2.6h.66c.33,0,.53-.06.62-.18.08-.12.12-.32.12-.62v-7.81ZM13.2,41.9h-3.42c-.62,0-1.03-.1-1.22-.3-.19-.2-.29-.62-.29-1.26v-4.27c0-.64.1-1.06.29-1.26.19-.2.6-.3,1.22-.3h3.42v7.39ZM19.09,22.1c.62,0,1.05.1,1.27.3.23.2.39.62.48,1.26l1.81,14.57c.05.44.17.72.36.85s.47.2.88.22l-.03,2.6h-1.2c-1.61,0-2.67-.39-3.18-1.18-.27-.42-.47-.83-.57-1.25-.11-.41-.21-.99-.3-1.74l-2.14-15.64h2.63ZM26.24,41.9h-1.7l2.98-18.24c.07-.62.23-1.04.47-1.25s.67-.31,1.29-.31h2.6l-2.74,16.19c-.13.69-.23,1.21-.31,1.53-.08.33-.22.68-.42,1.07-.2.38-.47.65-.82.79-.35.15-.79.22-1.34.22ZM38.72,41.9h-2.88c-.62,0-1.03-.1-1.22-.3-.19-.2-.29-.62-.29-1.26v-16.68c0-.64.1-1.06.29-1.26.19-.2.6-.3,1.22-.3h2.88v19.8ZM47.02,41.9h-2.88c-.62,0-1.03-.1-1.22-.3-.19-.2-.29-.62-.29-1.26v-16.68c0-.64.1-1.06.29-1.26.19-.2.6-.3,1.22-.3h2.88v19.8ZM55.32,41.93h-2.88c-.6,0-1-.1-1.2-.31-.2-.21-.3-.63-.3-1.25v-16.71c0-.62.1-1.04.3-1.25.2-.21.6-.31,1.2-.31h2.88v19.83ZM63.95,31.96l.03,4.63c0,2.17-.27,3.6-.82,4.29-.55.69-1.54,1.03-2.98,1.03h-4.03v-2.6h2.03c.46,0,.76-.05.9-.16.15-.11.22-.32.22-.63v-12.98c0-.33-.07-.55-.22-.66s-.45-.16-.9-.16h-2.03v-2.6h4.3c1.33,0,2.26.31,2.78.92.52.61.78,1.8.78,3.57l-.05,5.37Z"/>
</svg>