<?xml version="1.0" encoding="UTF-8"?>
<svg id="Layer_1" xmlns="http://www.w3.org/2000/svg" viewBox="0 0 64 64">
  <defs>
    <style>
      .cls-1 {
        fill: #848685;
      }

      .cls-2 {
        fill: #fff;
      }

      .cls-3 {
        fill-rule: evenodd;
      }

      .cls-3, .cls-4 {
        fill: #0c91f0;
      }
    </style>
  </defs>
  <rect class="cls-2" width="64" height="64" rx="10" ry="10"/>
  <g>
    <g>
      <path class="cls-3" d="M31.73,28.1s-2.14-.24-3.79,1.54c-1.66,1.78-6.7,8.09-7.07,8.68-.36.59-1.25,2.39,0,5.19,1.25,2.8,4.28,3.08,4.28,3.08,0,0,2.01.58,3.8-.82l1.68-6.77c-.78-.45-1.26-1.32-1.26-2.25,0-1.42,1.04-2.57,2.38-2.57s2.44,1.15,2.44,2.57c0,.94-.48,1.8-1.26,2.25l1.68,6.77c1.8,1.4,3.8.82,3.8.82,0,0,3.03-.28,4.28-3.08,1.25-2.8.36-4.6,0-5.19-.36-.59-5.41-6.89-7.07-8.68-1.66-1.78-3.9-1.54-3.9-1.54Z"/>
      <ellipse class="cls-4" cx="37.18" cy="22.41" rx="5.08" ry="3.81" transform="translate(9.13 55.54) rotate(-80.83)"/>
      <ellipse class="cls-4" cx="44.5" cy="30.44" rx="5.08" ry="3.81" transform="translate(7.36 69.52) rotate(-80.83)"/>
      <ellipse class="cls-4" cx="26.82" cy="22.35" rx="3.81" ry="5.08" transform="translate(-3.22 4.56) rotate(-9.17)"/>
      <ellipse class="cls-4" cx="19.5" cy="30.38" rx="3.81" ry="5.08" transform="translate(-4.59 3.5) rotate(-9.17)"/>
    </g>
    <g>
      <path class="cls-1" d="M32,56.61c-1.89,0-3.78-.22-5.61-.65-1.81-.43-3.58-1.06-5.25-1.89-1.67-.83-3.25-1.85-4.7-3.03-1.46-1.2-2.79-2.57-3.94-4.07-.36-.47-.27-1.14.19-1.51.47-.36,1.14-.27,1.5.2,4.22,5.51,10.88,8.8,17.81,8.8s13.58-3.29,17.81-8.8c.36-.47,1.03-.56,1.5-.2.47.36.55,1.04.19,1.5-1.15,1.5-2.48,2.87-3.94,4.07-1.44,1.18-3.02,2.2-4.7,3.03s-3.44,1.46-5.25,1.89c-1.84.43-3.73.65-5.61.65Z"/>
      <path class="cls-1" d="M10.24,41.98c-.42,0-.82-.25-.99-.66-1.23-3-1.86-6.17-1.86-9.42,0-3.04.54-6,1.62-8.82,1.04-2.74,2.55-5.25,4.48-7.46,1.93-2.21,4.21-4.04,6.77-5.44,2.64-1.44,5.5-2.38,8.5-2.78.59-.08,1.12.33,1.2.92.08.59-.33,1.13-.92,1.21-11.12,1.49-19.5,11.11-19.5,22.37,0,2.97.57,5.86,1.7,8.6.22.55-.04,1.18-.58,1.4-.13.06-.27.08-.41.08Z"/>
      <path class="cls-1" d="M53.77,41.98c-.14,0-.27-.03-.41-.08-.55-.23-.81-.85-.58-1.4,1.13-2.74,1.7-5.63,1.7-8.6,0-11.26-8.38-20.88-19.5-22.37-.59-.08-1-.62-.92-1.21.08-.59.62-1,1.2-.92,3,.4,5.85,1.34,8.5,2.78,2.56,1.4,4.84,3.23,6.77,5.44,1.93,2.21,3.43,4.72,4.48,7.46,1.07,2.82,1.62,5.79,1.62,8.82,0,3.25-.62,6.42-1.86,9.42-.17.41-.57.66-.99.66Z"/>
    </g>
  </g>
</svg>