<svg xmlns:dc="http://purl.org/dc/elements/1.1/" xmlns:cc="http://creativecommons.org/ns#" xmlns:rdf="http://www.w3.org/1999/02/22-rdf-syntax-ns#" xmlns:svg="http://www.w3.org/2000/svg" xmlns="http://www.w3.org/2000/svg" xmlns:sodipodi="http://sodipodi.sourceforge.net/DTD/sodipodi-0.dtd" xmlns:inkscape="http://www.inkscape.org/namespaces/inkscape" width="242.67062mm" height="155.19994mm" viewBox="0 0 242.67062 155.19994" version="1.1" id="svg3308" inkscape:version="0.92.5 (2060ec1f9f, 2020-04-08)" sodipodi:docname="ALEXA-2024.svg">
  <defs id="defs3302" fill="#000000"/>
  <sodipodi:namedview id="base" pagecolor="#ffffff" bordercolor="#666666" borderopacity="1.0" inkscape:pageopacity="0.0" inkscape:pageshadow="2" inkscape:zoom="1.4610052" inkscape:cx="458.59017" inkscape:cy="293.29121" inkscape:document-units="mm" inkscape:current-layer="layer1" showgrid="false" inkscape:snap-global="false" inkscape:snap-smooth-nodes="true" showguides="false" inkscape:guide-bbox="true" inkscape:window-width="1920" inkscape:window-height="1009" inkscape:window-x="-8" inkscape:window-y="-8" inkscape:window-maximized="1" fill="#000000">
    <sodipodi:guide position="-160.2029,147.16923" orientation="0,1" id="guide4075" inkscape:locked="false" fill="#000000"/>
    <sodipodi:guide position="-160.2029,99.051959" orientation="0,1" id="guide4077" inkscape:locked="false" fill="#000000"/>
  </sodipodi:namedview>
  <metadata id="metadata3305" fill="#000000">
    <rdf:RDF fill="#000000">
      <cc:Work rdf:about="" fill="#000000">
        <dc:format fill="#000000">image/svg+xml</dc:format>
        <dc:type rdf:resource="http://purl.org/dc/dcmitype/StillImage" fill="#000000"/>
        <dc:title fill="#000000"/>
      </cc:Work>
    </rdf:RDF>
  </metadata>
  <g inkscape:label="Layer 1" inkscape:groupmode="layer" id="layer1" transform="translate(14.228931,-67.520972)">
    <path style="fill:#008bd6;fill-opacity:1;fill-rule:nonzero;stroke:none;stroke-width:5.11043167" inkscape:connector-curvature="0" d="m 6.4105675,171.40025 c -0.967366,0.76383 -1.1710532,2.03637 -0.6109651,3.81864 0.5091284,1.57837 1.7055858,3.53818 3.5893996,5.88037 7.585912,9.36831 16.623052,17.15777 27.111255,23.36934 10.488202,6.21156 21.714859,10.79354 33.679501,13.74642 12.015368,3.00407 24.285355,4.50589 36.809932,4.50589 16.03789,0 31.31195,-2.34172 45.82219,-7.02613 14.51023,-4.63318 26.62754,-11.15009 36.3524,-19.55069 3.41088,-3.00361 5.11656,-5.39653 5.11656,-7.17879 0,-0.66188 -0.27997,-1.32378 -0.8399,-1.98565 -0.76383,-0.76335 -1.68034,-1.01795 -2.74948,-0.76335 -1.06916,0.25413 -2.57097,0.89065 -4.50589,1.90908 -9.31711,4.88779 -20.67059,8.78252 -34.06094,11.68468 -13.33915,2.95286 -27.26408,4.4293 -41.7743,4.4293 -17.972332,0 -35.333976,-2.44365 -52.084475,-7.33146 -16.750499,-4.88779 -31.591918,-12.52459 -44.523788,-22.91084 -1.883704,-1.47644 -3.411351,-2.41878 -4.5822114,-2.82606 -1.1200798,-0.40727 -2.0365275,-0.3307 -2.7492881,0.22925 z" id="Path"/>
    <path style="fill:#008bd6;fill-opacity:1;fill-rule:nonzero;stroke:none;stroke-width:5.11043167" inkscape:connector-curvature="0" d="m 176.10176,175.2232 c -1.06916,1.01842 -1.34913,2.08759 -0.83991,3.20795 0.35655,0.81455 1.04379,1.27256 2.06223,1.3745 1.01794,0.15267 2.46902,0.0507 4.35273,-0.30533 3.05482,-0.66189 6.23694,-1.12037 9.54635,-1.37499 3.30942,-0.20339 6.1862,-0.15266 8.62985,0.15267 2.44414,0.35655 3.97132,0.9677 4.58246,1.83299 0.91649,1.37498 0.58532,4.27663 -0.99306,8.70643 -1.52716,4.42931 -3.61476,8.73132 -6.26229,12.9065 -1.01843,1.67982 -1.6291,3.0036 -1.83298,3.9713 -0.2034,0.96721 0.0513,1.78177 0.76381,2.44365 0.45801,0.45801 0.96722,0.68725 1.52717,0.68725 1.47692,0 3.61523,-1.2984 6.41545,-3.89473 5.04046,-4.37857 8.57864,-9.5717 10.6155,-15.57939 1.1199,-3.10602 1.80715,-6.36423 2.06175,-9.7756 0.25461,-3.41088 -0.12729,-5.85501 -1.14574,-7.33145 -0.96722,-1.4257 -3.10554,-2.59681 -6.41496,-3.51282 -3.25821,-0.91649 -6.54226,-1.37497 -9.85168,-1.37497 -6.46618,0 -12.60116,1.52764 -18.40497,4.58246 -2.13831,1.17109 -3.74206,2.26563 -4.81171,3.28358 z" id="path6"/>
    <path inkscape:connector-curvature="0" id="path3907" style="fill:#008bd6;fill-opacity:1;fill-rule:nonzero;stroke:none;stroke-width:0.26458332" d="m 3.937473,153.05945 c -10.8276585,0 -18.166404,-7.69967 -18.166404,-19.12887 0,-13.83534 10.8276584,-22.49745 27.91129,-22.49745 3.007682,0 4.812294,0.12027 6.255973,0.48123 v -1.4437 c 0,-7.94027 -2.76706,-11.669805 -8.541816,-11.669805 -4.571672,0 -7.8199627,2.646765 -9.0230328,7.338745 -0.3609334,1.44369 -1.2030838,2.16553 -2.40615396,1.92492 L -10.619707,106.1396 c -1.443692,-0.24061 -2.045221,-1.20307 -1.684301,-2.64676 2.6467626,-10.707349 11.66980908,-16.722714 24.783297,-16.722714 15.519628,0 23.700524,8.541816 23.700524,24.542684 v 38.37802 c 0,1.20308 -0.842151,2.04523 -1.92491,2.04523 h -9.985508 c -1.20307,0 -1.924909,-0.72185 -2.165532,-2.04523 l -1.563989,-7.09812 h -0.72184 c -2.887385,6.7372 -8.541815,10.46674 -15.880561,10.46674 z m 6.255973,-12.15104 c 6.376284,0 9.744886,-5.77475 9.744886,-16.48209 v -3.84984 c -1.20307,-0.24062 -2.526452,-0.36093 -3.97013,-0.36093 -8.3012075,0 -13.4744214,4.45137 -13.4744214,11.79012 0,5.41382 3.0076822,8.90274 7.6996654,8.90274 z"/>
    <path inkscape:connector-curvature="0" id="path3915" style="fill:#008bd6;fill-opacity:1;fill-rule:nonzero;stroke:none;stroke-width:0.26458332" d="M 47.713164,67.520972 H 60.22511 c 1.082773,0 1.924923,0.962459 1.924923,2.16553 v 80.004328 c 0,1.20308 -0.84215,2.04523 -1.924923,2.04523 H 47.713164 c -1.082773,0 -1.804612,-0.84215 -1.804612,-2.04523 V 69.686502 c 0,-1.203071 0.721839,-2.16553 1.804612,-2.16553 z"/>
    <path inkscape:connector-curvature="0" id="path3923" style="fill:#008bd6;fill-opacity:1;fill-rule:nonzero;stroke:none;stroke-width:0.26458332" d="m 97.640672,86.770126 c 15.519628,0 26.226978,13.594734 26.226978,32.723584 v 3.12799 c 0,1.32339 -0.84215,2.04522 -1.92491,2.04522 H 86.93333 c 0.721839,10.34643 4.210752,15.63994 10.707342,15.63994 4.691978,0 8.421508,-2.16551 9.744888,-8.06058 0.24061,-1.32338 0.96245,-1.8046 2.16553,-1.56399 l 11.42919,2.52645 c 1.20307,0.24062 1.80461,1.08277 1.32338,2.40614 -3.84984,11.30889 -12.75257,17.44457 -24.662988,17.44457 -16.482098,0 -27.670676,-13.2338 -27.670676,-32.72359 0,-19.48978 11.4292,-33.565734 27.670676,-33.565734 z m 9.744888,27.189454 c -0.84215,-9.50428 -4.09046,-14.436872 -9.744888,-14.436872 -5.534142,0 -9.383961,5.173202 -10.587045,14.436872 z"/>
    <path inkscape:connector-curvature="0" id="path3931" style="fill:#008bd6;fill-opacity:1;fill-rule:nonzero;stroke:none;stroke-width:0.26458332" d="m 139.65129,151.73606 c 0.72185,0 1.6843,-0.60154 1.92492,-1.20308 l 9.14335,-20.0913 h 0.48123 l 9.02304,19.73038 c 0.36092,0.84215 1.4437,1.564 2.40616,1.564 h 12.51194 c 1.4437,0 2.16554,-1.08277 1.4437,-2.40615 l -15.27902,-29.8362 14.55716,-28.75344 c 0.72186,-1.443678 0,-2.526451 -1.56399,-2.526451 h -11.91041 c -0.84215,0 -1.68431,0.601542 -2.04523,1.323381 l -8.54181,18.52732 h -0.48123 l -8.54182,-18.647631 c -0.24061,-0.601528 -1.20307,-1.20307 -1.92491,-1.20307 h -12.99319 c -1.56399,0 -2.28584,1.082773 -1.56399,2.526451 l 14.43687,28.63313 -15.15872,29.83621 c -0.72184,1.32337 0,2.52645 1.564,2.52645 z"/>
    <path inkscape:connector-curvature="0" id="path3939" style="fill:#008bd6;fill-opacity:1;fill-rule:nonzero;stroke:none;stroke-width:0.26458332" d="m 196.19936,153.05945 c -10.82766,0 -18.1664,-7.69967 -18.1664,-19.12887 0,-13.83534 10.82765,-22.49745 27.91129,-22.49745 3.00768,0 4.81228,0.12027 6.25597,0.48123 v -1.4437 c 0,-7.94027 -2.76708,-11.669805 -8.54182,-11.669805 -4.57167,0 -7.81997,2.646765 -9.02304,7.338745 -0.36092,1.44369 -1.20307,2.16553 -2.40614,1.92492 l -10.58704,-1.92492 c -1.44369,-0.24061 -2.04523,-1.20307 -1.6843,-2.64676 2.64675,-10.707349 11.66979,-16.722714 24.78328,-16.722714 15.51964,0 23.70054,8.541816 23.70054,24.542684 v 38.37802 c 0,1.20308 -0.84215,2.04523 -1.92492,2.04523 h -9.9855 c -1.20307,0 -1.92492,-0.72185 -2.16553,-2.04523 l -1.56399,-7.09812 h -0.72185 c -2.88737,6.7372 -8.54182,10.46674 -15.88055,10.46674 z m 6.25597,-12.15104 c 6.37629,0 9.74489,-5.77475 9.74489,-16.48209 v -3.84984 c -1.20307,-0.24062 -2.52645,-0.36093 -3.97015,-0.36093 -8.30119,0 -13.4744,4.45137 -13.4744,11.79012 0,5.41382 3.00768,8.90274 7.69966,8.90274 z"/>
  </g>
</svg>