<?xml version="1.0" encoding="UTF-8"?>
<svg height="48" viewBox="0 0 854.238 854.238" width="48" xmlns="http://www.w3.org/2000/svg" xmlns:xlink="http://www.w3.org/1999/xlink">
 <linearGradient id="a" gradientUnits="userSpaceOnUse">
  <stop offset="0" stop-color="#eee"/>
  <stop offset="1" stop-color="#eee" stop-opacity="0"/>
 </linearGradient>
 <mask id="b" height="587.49" width="576.61" x="122.96" y="97.15">
  <ellipse cx="295.9" cy="286.17" fill="url(#p)" rx="512.93" ry="349.11"/>
 </mask>
 <linearGradient id="c" gradientUnits="userSpaceOnUse">
  <stop offset="0" stop-color="#fff"/>
  <stop offset="1" stop-color="#193d6b"/>
 </linearGradient>
 <linearGradient id="d" x1="331.28" x2="419.48" xlink:href="#c" y1="850.28" y2="735.73"/>
 <linearGradient id="e" x1="317.42" x2="378.14" xlink:href="#c" y1="763.64" y2="665.11"/>
 <linearGradient id="f" x1="255.9" x2="335.33" xlink:href="#c" y1="753.16" y2="650.02"/>
 <linearGradient id="g" x1="225.14" x2="327.55" xlink:href="#c" y1="730.4" y2="597.41"/>
 <linearGradient id="h" x1="206.84" x2="271.22" xlink:href="#c" y1="674.81" y2="591.21"/>
 <linearGradient id="i" gradientTransform="matrix(-1.12563 0 0 1.12563 1028.91 -39.55)" gradientUnits="userSpaceOnUse" x1="429.85" x2="480.12" y1="815.46" y2="643.31">
  <stop offset="0" stop-color="#fff"/>
  <stop offset="1" stop-color="#e5eaf2"/>
 </linearGradient>
 <radialGradient id="j" cx="380.48" cy="842" gradientUnits="userSpaceOnUse" r="338.34">
  <stop offset=".0112" stop-color="#d2e8ec"/>
  <stop offset=".2921" stop-color="#60a8ce"/>
  <stop offset=".4575" stop-color="#4680a8"/>
  <stop offset=".6767" stop-color="#2f5c84"/>
  <stop offset=".8653" stop-color="#234970"/>
  <stop offset="1" stop-color="#1f426a"/>
 </radialGradient>
 <radialGradient id="k" cx="659.09" cy="659.66" gradientUnits="userSpaceOnUse" r="574.88">
  <stop offset="0" stop-color="#fff"/>
  <stop offset=".2814" stop-color="#e6e6e6"/>
  <stop offset=".7515" stop-color="#c0c0c0"/>
  <stop offset="1" stop-color="#b2b2b2"/>
 </radialGradient>
 <linearGradient id="l" x1="1508.5" x2="361.14" xlink:href="#a" y1="-363.43" y2="630.52"/>
 <linearGradient id="m" x1="370.62" x2="370.21" xlink:href="#a" y1="-309.61" y2="458.38"/>
 <linearGradient id="n" x1="247.48" x2="130.32" xlink:href="#a" y1="274.88" y2="580.55"/>
 <linearGradient id="o" x1="220.37" x2="185.21" xlink:href="#a" y1="756.76" y2="491.07"/>
 <radialGradient id="p" cx="88.98" cy="-20.9" gradientUnits="userSpaceOnUse" r="673.12">
  <stop offset=".309" stop-color="#fff"/>
  <stop offset="1"/>
 </radialGradient>
 <metadata/>
 <path d="m840.168 427.119c0 228.003-185.046 413.049-413.049 413.049s-413.049-185.046-413.049-413.049 185.046-413.049 413.049-413.049 413.049 185.046 413.049 413.049z" fill="url(#k)" stroke="#2e6096" stroke-width="28.141"/>
 <path d="m699.571 390.895c0 162.148-129.16 293.746-288.304 293.746s-288.304-131.598-288.304-293.746 129.16-293.746 288.304-293.746 288.304 131.598 288.304 293.746z" fill="#eee" mask="url(#b)" opacity=".86" transform="matrix(1.12563 0 0 1.12563 -41.87 -39.55)"/>
 <path d="m654.699 222.737c-17.1884 0-50.5644 35.8468-63.0702 41.5065-12.5114 5.65966-111.54 69.7992-120.923 81.1185-9.37874 11.3182-21.8879 16.0357-35.4382 15.0924-13.5492-.94328-56.3884-1.3305-70.98 6.21572-14.5949 7.54622-81.2074 69.2442-97.887 76.7916-16.6773 7.54397-38.4369 11.4116-48.8602 12.3538-10.4233.9444-44.9554 35.7522-54.3375 42.3574-9.381 6.59956-77.9679 33.0451-88.3901 38.7025-10.4245 5.66079 61.2894 95.2373 73.7985 97.1238 12.5069 1.88768-12.2874 11.1358-36.3533 11.1358-2.64973 0 34.3936 97.1396 160.698 159.836 109.192 54.1991 197.164 21.2856 240.19 8.14055 30.4235-9.29432 35.9402-13.4389 36.9859-28.5313 1.04346-15.0913 2.92776-27.0174 5.01355-43.9952 2.08579-16.9756 9.37762-159.411 36.4839-197.139 27.0984-37.73 104.563-83.023 131.664-87.7372 27.1029-4.71638 21.8924-14.148 21.8924-22.6375s-4.17046-27.355-11.4668-30.1849c-7.29745-2.82871-35.7691 14.1638-45.1501 16.0504-9.38212 1.88655-54.2036 4.71639-60.4587-4.71526-6.254-9.4339 50.5667-105.647 57.863-116.965 7.29408-11.3193 10.4222-26.4118-3.12588-42.4464-13.556-16.038-22.9381-32.0726-28.1486-32.0726z" opacity=".22"/>
 <path d="m618.121 172.835c-16.674 0-49.0459 38.4245-61.1791 44.4905-12.1332 6.06714-108.189 74.8195-117.288 86.9538-9.09958 12.132-21.2339 17.1884-34.3767 16.1776-13.1428-1.00969-54.6943-1.42617-68.8491 6.6626-14.157 8.0899-78.7693 74.2251-94.9468 82.315-16.1764 8.08653-37.282 12.23-47.3935 13.2419-10.1093 1.00969-43.6046 38.3209-52.7042 45.4-9.09958 7.07909-81.0048 38.1937-91.1152 44.2575-10.1115 6.06714 73.7636 91.033 85.8968 93.0535 12.1332 2.02501-8.35668 48.061-31.7011 48.061-2.57094 0 20.8613 76.285 143.374 143.491 105.914 58.0994 218.289 32.3754 260.022 18.287 29.5118-9.96632 8.79905-15.474 9.81212-31.6504 1.00856-16.1787 1.85841-37.4508 3.88117-55.6489 2.02388-18.1992 9.09846-170.876 35.3887-211.319 26.2868-40.4405 101.423-88.9911 127.712-94.0463 26.2902-5.05521 21.2328-15.1667 21.2328-24.2652s-4.04326-29.3215-11.1223-32.3551c-7.07684-3.03245-34.693 15.1825-43.7926 17.2041s-52.577 5.05633-58.6453-5.05408c-6.06602-10.1126 49.0482-113.244 56.1261-125.377 7.07909-12.1343 10.1104-28.313-3.03469-45.4991-13.1395-17.1917-22.2402-34.3801-27.2954-34.3801z" fill="url(#j)"/>
 <path d="m416.432 363.429s-40.0566-6.16395-63.1692 16.9497c-23.1137 23.1126-43.1476 73.9584-41.6021 89.3671 1.53873 15.4088 47.765-52.3879 67.7933-57.0086 20.0328-4.62408 41.6033-38.5247 36.9781-49.3082z" fill="#fff"/>
 <path d="m517.579 576.111s-35.8445 122.023-36.7507 123.908c-5.12274 10.6462-14.5713 41.4963-11.3182 51.4593 3.83052 11.7369 18.1879 28.8015 24.8888 37.3338 6.70087 8.53565 9.57235 12.8018 7.65765 16.0042-1.91357 3.20016-26.8024 3.20016-26.8024 3.20016s-19.1436-28.8026-22.9752-39.4702c-3.82715-10.6653-5.74297-33.0665-1.91245-40.5317 3.82827-7.46855 67.2125-151.904 67.2125-151.904z" fill="url(#i)" opacity=".18"/>
 <path d="m264.934 598.843-65.4835 56.6878 82.0989-48.8692-16.6154-7.81863z" fill="url(#h)" opacity=".2"/>
 <path d="m329.441 579.297-111.422 144.65 128.036-134.879-16.6143-9.77159z" fill="url(#g)" opacity=".2"/>
 <path d="m338.238 629.142-85.0323 134.877 104.579-126.082-19.5466-8.79567z" fill="url(#f)" opacity=".201"/>
 <path d="m388.083 623.277-71.3492 167.133 94.8061-162.245-23.457-4.88861z" fill="url(#e)" opacity=".2"/>
 <path d="m416.428 667.26-5.86566 152.471 25.4111-150.516-19.5454-1.95522z" fill="url(#d)" opacity=".2"/>
 <path d="m420.917 729.366c-69.6171-30.9726-132.408-73.4771-186.652-126.35-6.08983-5.93583-7.45042-7.51977-7.45042-8.67365 0-1.21137 1.73693-2.9367 12.2419-12.1602 21.3918-18.7824 26.0982-23.7955 29.7442-31.6825 3.72242-8.05252 11.4142-17.545 26.417-32.601 33.1221-33.2398 93.248-82.9139 121.61-100.47 4.92908-3.05113 7.76185-5.25655 11.6608-9.07838 12.3707-12.1261 31.5315-36.629 71.4512-91.3722 42.4935-58.2728 56.7983-77.1079 70.9416-93.4084 8.54633-9.84986 14.8309-15.6969 17.2681-16.0659 1.03571-.15681 2.75574-.43469 3.8223-.61751s2.42957-.09856 3.02891.18726c.59935.28581 1.47622.64247 1.94861.79258.90545.28772 18.1519 19.8019 24.5038 27.7258 7.60848 9.49149 8.29366 12.1344 4.48646 17.3056-1.42092 1.92997-2.78951 4.70545-3.84287 7.79326-1.80934 5.30394-11.131 24.1462-25.4737 51.4916-11.2766 21.4995-26.5398 51.892-31.3099 62.3452-10.0696 22.0666-14.9812 37.2676-13.6959 42.3885.42076 1.67646 2.96415 2.87577 9.79588 4.61913 15.9806 4.07804 30.7545 3.46059 44.5214-1.86066 2.08238-.80489 6.96651-3.29909 10.8536-5.54266 11.8668-6.84929 20.812-10.6783 31.9816-13.6897 5.33596-1.43859 6.60435-1.58975 13.7136-1.63425 7.45876-.04669 7.95403.01274 10.3448 1.24091 2.17026 1.11491 2.568 1.56013 2.93137 3.28132.81873 3.87812.96234 6.37162.39942 6.93458-.30768.30764-.55939 1.0633-.55939 1.67926 0 2.52659-6.07631 4.56817-23.0161 7.73315-17.7692 3.31993-18.6271 3.67763-30.9929 12.9223-27.6807 20.694-70.7491 58.182-86.0274 74.8806-6.93119 7.57559-17.5564 22.2368-31.8779 43.9866-32.1322 48.7989-54.3923 90.9409-60.3389 114.232-1.18162 4.62793-4.50577 25.5319-7.52335 47.3106-2.78517 20.1014-2.90945 20.7066-4.243 20.6611-.58859-.02004-5.38636-1.95672-10.6617-4.30367z" fill="url(#l)" opacity=".58"/>
 <path d="m232.635 457.726c-.30897-1.10712-.24651-10.835.09878-15.3878.24705-3.25749.45351-4.33393 1.32202-6.89336 2.68468-7.9114 6.60991-12.3154 12.2878-13.7867 2.11783-.54879 3.26713-1.11137 6.32972-3.09845 6.29072-4.0816 14.3198-10.858 27.1696-22.9306 3.48672-3.27585 17.6319-17.1887 31.4337-30.9174s25.7146-25.4106 26.4729-25.9596c.75827-.54908 1.875-1.12966 2.48162-1.29018 4.43166-1.17271 15.149-1.74123 42.3252-2.2452 25.5357-.47354 36.4103-.9655 39.764-1.7989 3.47355-.86316 11.3996-5.55691 27.3773-16.2127 11.5526-7.70459 36.1396-24.7049 50.3875-34.8398 3.82331-2.71963 5.37872-3.67546 5.98096-3.67546.44763 0 .89057-.12409.98429-.27573.09371-.15165.36021-.27574.59223-.27574.34692 0 .39544.28157.27336 1.58547-.31321 3.34514-.51089 4.0327-1.56256 5.43536-2.86536 3.82161-10.4126 9.9897-19.31 15.7812-2.28427 1.48688-6.72033 4.6931-9.85801 7.12494-31.6439 24.5256-53.1412 39.0427-62.4359 42.1628-1.84289.61865-2.55609.70414-5.87386.70414-6.39914 0-13.7491 1.38701-26.2906 4.96132-18.4847 5.26807-35.488 12.1774-44.422 18.0509-7.75783 5.10029-13.9913 14.8898-20.2542 31.8085-2.46407 6.65653-5.36991 16.4957-8.87047 30.0355-.87225 3.37373-1.67 6.27012-1.77278 6.43642-.10277.1663-16.6751 3.83084-36.8275 8.14341-20.1523 4.31256-36.8536 7.90644-37.1139 7.98636-.34281.10525-.53292-.06813-.68934-.62862z" fill="url(#m)"/>
 <path d="m137.726 580.46c-.38277-.08521-1.13843-.15943-1.67924-.16495-2.36905-.02416-9.09363-3.42096-16.3285-8.24802-7.84768-5.23596-14.1553-10.2413-21.306-16.9072-1.43951-1.34191-3.94762-3.6516-5.57356-5.13264-4.36648-3.97731-11.1032-10.7455-13.0835-13.1446-3.61998-4.38549-5.55775-7.6132-5.82418-9.70125-.40508-3.17467-.39095-3.92307.12555-6.65389.11711-.61914 1.64785-1.95083 3.73073-3.24558 3.898-2.42307 12.1908-8.0474 41.409-28.0844 44.4558-30.4865 63.1851-42.8813 73.0608-48.3505 2.50207-1.38565 3.19137-1.54023 6.88652-1.54416 3.54103-.00378 6.52083.31415 8.63813.92165 4.23349 1.2147 10.7776 3.77251 16.5478 6.46781 2.88033 1.34546 3.0871 1.47346 3.0871 1.91117 0 .42254-.09936.49705-1.00042.7502-2.07144.58197-7.60067 2.40243-12.1356 3.99558-27.5525 9.67926-55.1216 23.0288-79.7733 38.6278-5.84258 3.69705-6.5209 4.19401-8.70308 6.37618-6.19852 6.19847-11.7788 15.8839-13.3346 23.144-.21724 1.01374-.31736 2.21764-.31831 3.82772-.00153 2.56738.30555 3.91049 1.27059 5.55718 3.81476 6.50942 23.181 12.6562 48.2293 15.3078 7.30787.77361 10.6737.95251 18.0929.96162l7.22048.00888 1.91387-.66108c5.11723-1.76758 12.1194-5.76776 27.316-15.6051 13.1683-8.52429 17.2328-11.0076 21.9224-13.394 4.39106-2.23447 6.6097-2.89841 8.50031-2.54373.71976.13503.85224.53951.86013 2.626.01142 3.0172-.31808 4.16588-1.84665 6.43753-4.41636 6.56332-15.285 15.4832-30.5738 25.0919-12.8487 8.07515-27.4824 15.5626-35.2759 18.0494-.738.23547-2.71743.74277-4.39875 1.12732-8.98499 2.05501-17.9593 5.25497-29.8267 10.6352-1.6801.76172-3.1632 1.31767-3.74072 1.4023-1.7028.24949-3.37625.31247-4.08871.15388z" fill="url(#n)" opacity=".7"/>
 <path d="m168.638 529.932c-.16919-.02219-2.36094-.08323-4.87056-.13564-4.51875-.09437-7.34794-.28895-11.3817-.78277-9.35589-1.14536-15.592-2.98909-17.779-5.25644-.46386-.48092-.61694-1.05159-.60958-2.27255.00956-1.58999.15581-2.2101.83565-3.54356 2.88203-5.6529 11.1728-14.6044 20.9367-22.6052 2.14229-1.75545 5.69518-4.42202 7.53923-5.65846l1.33031-.89199 60.3949-7.30557 1.99949.11416c1.85903.10613 3.44999.22375 7.5005.55455 1.86816.15257 2.01316.22021 1.8364.85669-.05904.21257-.10759.57974-.10791.81595-.0008.60578-.952 2.83162-2.27533 5.32443-7.13957 13.4489-21.5593 30.3887-31.1526 36.5969-2.74972 1.77945-4.67955 2.62123-7.15874 3.12262-2.52895.51144-5.7588.83593-9.34988.93935-3.52875.10162-17.1373.19973-17.6878.12752z" fill="url(#o)"/>
</svg>
