<?xml version="1.0" encoding="UTF-8"?>
<svg height="96" width="96" xmlns="http://www.w3.org/2000/svg">
 <path d="m96 48a48 48 0 1 1 -96 0 48 48 0 1 1 96 0z"/>
 <path d="m84 48a36 36 0 1 1 -72 0 36 36 0 1 1 72 0z" fill="#d9d9d9"/>
 <path d="m48.875 27.7188c-.9106.00003-1.92559.02875-3.03125.09375-1.04068.00004-1.967.23225-2.8125.6875-.32523.00003-.96446.02875-1.875.09375-.84555.00003-1.39611.02875-1.65625.09375-.58539.06508-1.19337.15121-1.84375.28125-.5853.065-1.1359.326-1.6562.7812l-2.0625 2.0625c-.19514.32524-.3674.67229-.5625 1.0625-.1301.39028-.21877.826-.21875 1.28125-.00002 1.04068.40699 1.93829 1.1875 2.71875.84551.71548 1.77183 1.06253 2.8125 1.0625.39022.00003.82594-.02868 1.28125-.09375.45526-.06501.89098-.15115 1.28125-.28125h6.71875c.58534.00003 1.13589.17483 1.65625.5.52029.32523.78122.75841.78125 1.34375-.00003.52035-.20354.92736-.59375 1.1875-.32524.19515-.72971.3387-1.25.46875-.52036.06507-1.04221.15373-1.5625.21875-.52036.00002-.92737.05745-1.1875.1875-.13011.06506-.41974.1799-.875.375-.39027.1301-.6512.24748-.78125.3125-.9106.32523-1.83692.49748-2.8125.5625-.97563.00002-1.9332.26095-2.84375.78125-1.30084.78051-2.51679 1.76679-3.6875 2.9375-1.10571 1.10571-2.03457 2.3242-2.75 3.625-.1301.1301-.27364.33106-.46875.65625-.1301.32522-.21877.52871-.21875.59375v4.875c-.00002.00001.14607.43573.40625 1.28125.26015.78049.46365 1.38847.59375 1.84375.39023 1.30082 1.11304 2.43064 2.21875 3.40625 1.17071.91057 2.27183 1.72205 3.3125 2.4375-.00002.06503.08864.15371.21875.21875.1951.06503.30993.09375.375.09375.32518.13008.96441.3623 1.875.6875.97559.3252 1.61227.49746 1.9375.5625h1.46875c.13005.06504.33356.03634.59375-.09375.13005-.06504.41969-.20859.875-.46875.5203-.26016.83865-.43497.96875-.5 1.10566-.45528 2.20678-.891 3.3125-1.28125 1.1707-.45528 2.38919-.65625 3.625-.65625h.65625c.39021 0 .65113.02871.78125.09375.91053.39025 1.8681.82343 2.84375 1.34375.97557.45528 1.99056.6875 3.03125.6875.78044 0 1.50326-.14355 2.21875-.46875.78044-.3252 1.5058-.78963 2.15625-1.375.65036-.58536 1.17221-1.22205 1.5625-1.9375.39019-.71544.5937-1.46951.59375-2.25v-.59375c-.0649-.2606-.211-.7537-.4061-1.4692-.1952-.7154-.31-1.2086-.375-1.4688v-.28125c-.00005-.71544.02866-1.44079.09375-2.15625.13003-.71543.24488-1.40954.375-2.125-.00005-.06503-.00005-.21111 0-.40625-.00005-.26015-.00005-.52107 0-.78125.06498-.32519.12495-.61482.125-.875-.00005-.26015-.00005-.43495 0-.5.13003-.45527.27358-.85974.46875-1.25.19507-.45527.31245-.94841.3125-1.46875-.00005-.71543-.08872-1.44078-.21875-2.15625-.06509-.71543-.15122-1.40953-.28125-2.125-.26021-2.01624-.60727-3.75658-1.0625-5.1875-.45534-1.4959-1.12327-2.77182-1.96875-3.8125-.84558-1.04062-1.94669-1.90952-3.3125-2.625-1.301-.7806-2.924-1.446-4.8751-2.0314-1.8863-.5203-3.7127-.7812-5.4688-.7812zm-2.71875 22.7188h3.59375c.26013.00002.49234.17481.6875.5.26013.26018.43492.49239.5.6875v.96875c-.00004.19513-.00004.45606 0 .78125-.00004.32522-.0887.58614-.21875.78125-.13012.13009-.39104.36231-.78125.6875-.32524.32521-.5262.52618-.65625.65625-.00003.13008-.11741.21876-.3125.21875h-1.0625c-.9106.00001-1.69338-.2035-2.34375-.59375-.65044-.45527-.96878-1.20934-.96875-2.25-.00003-.39023.11481-.88337.375-1.46875.26013-.65039.66715-.96873 1.1875-.96875z"/>
</svg>
