<?xml version="1.0" encoding="UTF-8"?>
<svg height="455" viewBox="0 0 43.5216 38.6355" width="512" xmlns="http://www.w3.org/2000/svg" xmlns:xlink="http://www.w3.org/1999/xlink">
 <clipPath id="a">
  <path d="m505.719 535.469c-.0913.006-.19131.0169-.28125.0312-.0955.0153-.1874.0375-.28125.0625-.0844.0225-.16817.0636-.25.0937-.003.005-.0284-.005-.0312 0-.79083 1.25489-1.4864 2.70521-1.71875 4.09375-.3364 2.01031-.60558 4.59838-.21875 7.65625.31871 2.60411 1.03448 5.62431 2.46875 8.90625a1.00961.99068 1.51513 0 1 0 .0625c.85048 2.26648 2.57266 5.1072 5.8125 7.96875.0263.0232.0673.0393.0937.0625.36148.26611.70356.54293 1.0625.78125 3.08915 2.05084 5.83226 2.96661 7.9375 3.3125a1.00961.99068 1.51513 0 1 .0625 0c3.57728.79896 6.80296.94697 9.53125.78125l-.0312.0312c2.7977-.24267 5.93557-.42426 8.34375-1.34375 1.4935-.57027 2.4005-1.43904 3.1875-2.34375.0506-.11958.12205-.22132.15625-.34375.0391-.28476.0785-.45542.0937-.53125.015-.0749-.00073-.0621 0-.0625-.00068-.00042.005-.018 0-.0937-.005-.0773-.00081-.21231 0-.5-.024-.1922-.0676-.40226-.125-.59375-.1152-.3785-.28887-.75013-.53125-1.125-.47139-.72912-1.16519-1.44809-2.0625-2.15625-1.66351-1.31336-3.99576-2.58272-6.71875-3.8125-2.31867-1.04924-4.86763-2.00675-7.34375-3.0625-1.72915-.84294-3.09392-1.28622-3.59375-1.6875-.0621-.0499-.0901-.10636-.125-.15625-.45281-.0886-1.17461-1.31192-2.4375-2.84375-1.45775-1.97251-2.84904-4.05918-4.25-5.96875-1.6371-2.2372-3.21891-4.12475-4.71875-5.40625-.80971-.69174-1.59101-1.19859-2.34375-1.5-.3873-.15511-.75608-.274-1.125-.3125-.1869-.0199-.3809-.0121-.5625 0z"/>
 </clipPath>
 <filter id="b" color-interpolation-filters="sRGB">
  <feGaussianBlur stdDeviation=".34837003"/>
 </filter>
 <clipPath id="c">
  <path d="m505.719 535.469c-.0913.006-.19131.0169-.28125.0312-.0854.0137-.16595.0411-.25.0625-.01.003-.0213-.003-.0312 0-.0938.025-.19066.0593-.28125.0937-1.79515.60007-4.41142 2.89744-5.28125 4.875-.37352.81205-.6923 1.71506-.96875 2.8125-.51252 2.03105-.65384 4.74515-.25 7.9375.3298 2.69483 1.08634 5.84095 2.5625 9.21875.91661 2.44272 2.74644 5.44877 6.15625 8.4375.40045.29688.78917.57928 1.1875.84375 3.20319 2.12655 6.07314 3.06958 8.3125 3.4375 3.67177.81981 6.96924.98331 9.78125.8125 3.34236-.19132 6.12479-.83507 8.125-1.75.84192-.45733 1.95625-1.13921 2.5625-1.6875 1.786-1.61523 3.19802-3.02233 3.96875-4.25.031-.043.065-.0816.0937-.125.0859-.14409.15233-.26698.21875-.40625.0327-.0654.066-.1212.0937-.1875.0488-.11704.0914-.23009.125-.34375.009-.0679.0235-.0718.0312-.125.01-.0396.0234-.0858.0312-.125.0139-.0884.0233-.24156.0312-.28125.0149-.0743-.00073-.0622 0-.0625-.00068-.00045.004-.018 0-.0937-.005-.0773-.00082-.21231 0-.5-.024-.1922-.0676-.40226-.125-.59375-.1152-.3785-.28887-.75013-.53125-1.125-.47138-.72912-1.16539-1.44783-2.0625-2.15625-1.66351-1.31335-3.99576-2.58272-6.71875-3.8125-2.31868-1.04924-4.86763-2.00674-7.34375-3.0625-1.72915-.84294-3.0941-1.28598-3.59375-1.6875-.0621-.0499-.0901-.10636-.125-.15625-.45282-.0886-1.1746-1.31192-2.4375-2.84375-1.45776-1.97251-2.84903-4.05918-4.25-5.96875-1.6371-2.2372-3.21894-4.12471-4.71875-5.40625-.8097-.69174-1.59101-1.19859-2.34375-1.5-.38731-.15511-.75607-.27401-1.125-.3125-.18689-.0199-.3809-.0121-.5625 0z"/>
 </clipPath>
 <radialGradient id="d" cx="520.73" cy="551.07" gradientUnits="userSpaceOnUse" r="15.4">
  <stop offset="0" stop-color="#fff"/>
  <stop offset="1" stop-color="#fff" stop-opacity="0"/>
 </radialGradient>
 <metadata/>
 <g clip-path="url(#c)" transform="translate(-498.14 -535.46)">
  <path d="m541.616 565.026c-.30586 1.51742-2.1024 3.34028-4.56491 5.56734-.60625.54829-1.70874 1.24285-2.55066 1.70018-2.00021.91493-4.77171 1.56087-8.11407 1.75219-2.81201.17081-6.11698.006-9.78875-.81381-2.23936-.36792-5.11477-1.32147-8.31796-3.44802-.39833-.26447-.79829-.54503-1.19874-.84191-3.40981-2.98873-5.23372-6.01411-6.15033-8.45683-1.47616-3.3778-2.22285-6.50015-2.55265-9.19498-.40384-3.19235-.27096-5.90767.24156-7.93872.27645-1.09744.59661-2.00424.97013-2.81629.92068-2.09316 3.81342-4.58163 5.6008-4.99512 12.7142 18.6586 17.5766 21.6029 36.4256 29.486z" fill="#fda864"/>
  <path d="m540.893 544.773s.00001 0-.00002.00005c-.00035.00067-.002.008.0315.0755.0338.0683.10333.19806.24571.44472.0718.17739.12648.36414.16484.56209v.00001c.0764.38545.0891.80578.0389 1.26159-.0959.87032-.426 1.85638-.99131 2.9336-1.02693 1.95853-2.84029 4.20495-5.39999 6.45346-2.1601 1.91061-4.93409 3.85721-8.30951 5.4851-2.05607 1.13749-4.96111 2.17205-8.7479 2.50208-.47811.0417-.96892.0719-1.47205.0896-4.4686-.20735-7.81313-1.41718-10.0854-2.78703-3.26607-1.74429-5.86177-3.77234-7.81617-5.70899-4.44544-4.9816-6.10629-9.11367-4.62279-11.3117 1.47989-2.19267 5.92394-2.21989 11.9277-.14129v.00001c1.79251.47854 5.12426 1.49143 6.90469 1.94858 1.99751.42201 3.28893.89011 3.68118.68787.0586.0173.12767.0256.20755.0258.60467.002 1.96855-.49045 3.89747-.91799 2.77016-.76095 5.01793-1.48561 7.73993-2.1723 2.94613-.74553 5.55011-1.2011 7.68487-1.20907 1.16089-.004 2.16077.1288 2.97408.40307.42551.14347.80092.32781 1.12087.54949.16313.11403.31338.23898.44861.37282h.00001c.17473.2249.26879.33829.31928.39534.0497.0562.0573.0577.058.0576.00006-.00001.00005 0 .00005 0z" fill="#fd9146" transform="matrix(.77734 .6201 -.60691 .79079 451.85 -201.53)"/>
  <path d="m542.845 565.481c-.96502 1.15255-2.09501 2.58-4.26842 3.40989-2.62439 1.00203-5.84851 1.16464-8.61915 1.40495-2.81201.17081-6.11698.006-9.78875-.81381-2.23936-.36792-5.11477-1.32147-8.31796-3.44802-.39833-.26447-.79829-.54503-1.19874-.84191-3.40981-2.98873-5.23372-6.01411-6.15033-8.45683-1.47616-3.3778-2.22285-6.50015-2.55265-9.19498-.40384-3.19235-.10275-5.88097.24156-7.93872.28586-1.70837 1.13112-3.41026 2.04883-4.80092" fill="none" opacity=".6" stroke="#fff" stroke-linecap="round" stroke-linejoin="round" stroke-width="2"/>
  <path clip-path="url(#a)" d="m522.143 552.898c-.2381-.11905-.90252-.54538-.71429-.35715.24543.24543.62184.3189.89286.53572.0465.0372-.0421.13648 0 .17857.0842.0842.27296-.0842.35714 0 .0421.0421-.0421.13648 0 .17857.0365.0365.46491-.0354.53572 0 .0753.0376.10328.14093.17857.17857.0795.0397.63261-.0272.71428 0 .0799.0266.10328.14093.17858.17857.10647.0532.25066-.0532.35714 0 .0753.0376.10328.14093.17857.17857.0532.0266.12533-.0266.17857 0 .0753.0376.10328.14093.17857.17858.10648.0532.27297-.0842.35715 0 .0421.0421-.0421.13648 0 .17857.0553.0553.83756-.0553.89285 0 .0421.0421-.0421.13648 0 .17857.0421.0421.12533-.0266.17857 0 .15059.0753.20656.28185.35715.35714.0532.0266.13648-.0421.17857 0 .0421.0421-.0421.13648 0 .17857.0421.0421.12533-.0266.17857 0 .0753.0376.10328.14093.17857.17857.10648.0532.27296-.0842.35714 0 .0421.0421-.0421.13649 0 .17858.0842.0842.27297-.0842.35715 0 .0421.0421-.0421.13648 0 .17857.0421.0421.12533-.0266.17857 0 .0753.0376.10328.14092.17857.17857.10648.0532.25066-.0532.35714 0 .0753.0376.10328.14092.17857.17857.0795.0397.63261-.0272.71429 0 .0799.0266.10328.14093.17857.17857.11693.0585.73439-.0528.89286 0 .12627.0421.23087.13648.35714.17857.0565.0188.12533-.0266.17857 0 .0753.0376.10328.14093.17857.17857.10648.0532.27297-.0842.35715 0 .0421.0421-.0421.13649 0 .17858.0842.0842.27296-.0842.35714 0 .0421.0421-.0421.13648 0 .17857.0421.0421.13648-.0421.17857 0 .0421.0421-.033.12904 0 .17857.088.13207.64084.56739.71429.71428.0266.0532-.0421.13649 0 .17858.0421.0421.13648-.0421.17857 0 .0421.0421-.0266.12533 0 .17857.0376.0753.14092.10328.17857.17857.0532.10648-.0842.27296 0 .35714.0421.0421.13648-.0421.17857 0 .0421.0421-.0421.13648 0 .17857.0421.0421.13648-.0421.17857 0 .0842.0842-.0532.25067 0 .35715.0376.0753.14093.10327.17857.17857.0532.10648-.0532.25066 0 .35714.0376.0753.14093.10328.17858.17857.0266.0532-.0266.12533 0 .17857.0376.0753.13187.10853.17857.17857.0738.11075.10474.2464.17857.35715.0467.07.14092.10328.17857.17857.0532.10648-.0532.25066 0 .35714.0376.0753.14092.10328.17857.17857.12316.24632-.21626.15973.17857.35715.0532.0266.13648-.0421.17857 0 .0596.0596-.0596.29756 0 .35714.0421.0421.11905 0 .17858 0 0 .0595-.0266.12533 0 .17857.11896.23793.23817.11921.35714.35714.0266.0532-.0421.13648 0 .17857.0421.0421.13648-.0421.17857 0 .0421.0421-.0266.12534 0 .17858.0753.15058.28185.20655.35714.35714.0266.0532-.0421.13648 0 .17857.0421.0421.13648-.0421.17857 0 .0421.0421-.0421.13648 0 .17857.0421.0421.13649-.0421.17858 0 .0421.0421-.0421.13648 0 .17857.0842.0842.25066-.0532.35714 0 .15058.0753.20656.28185.35714.35715.0532.0266.13648-.0421.17857 0 .0421.0421-.0421.13648 0 .17857.0421.0421.13648-.0421.17857 0 .0842.0842-.0532.25066 0 .35714.0376.0753.14093.10328.17858.17857.0266.0532-.0421.13648 0 .17857.0421.0421.13648-.0421.17857 0 .0893.0893-.0893.44643 0 .53572.0421.0421.13648-.0421.17857 0 .0365.0365-.0354.46491 0 .53571.0376.0753.14092.10328.17857.17857.0714.14286-.0714.39286 0 .53572.0376.0753.14092.10328.17857.17857.0532.10648-.0532.25066 0 .35714.22684.45367.21343-.18288.35714.53572.035.1751-.035.36061 0 .53571.0261.13051.13649.23087.17858.35714.0188.0565.0595.17857 0 .17857s-.0595-.17857 0-.17857 0 .2381 0 .17857v-.35714m-15.7143-14.4643c-.2381-.17858-.92473-.74617-.71429-.53572.29762.2381.59524.47619.89286.71429.0595 0 .12533-.0266.17857 0 .0753.0376.10328.14092.17857.17857.10648.0532.25067-.0532.35715 0 .0753.0376.10328.14092.17857.17857.0532.0266.12533-.0266.17857 0 .0753.0376.10328.14093.17857.17857.0532.0266.13648-.0421.17857 0 .0421.0421-.0421.13648 0 .17857.0421.0421.12533-.0266.17857 0 .0753.0376.10328.14093.17858.17857.0532.0266.13648-.0421.17857 0 .0421.0421-.0421.13649 0 .17858.0842.0842.27296-.0842.35714 0 .0421.0421-.0421.13648 0 .17857.0842.0842.27296-.0842.35714 0 .0421.0421-.0421.13648 0 .17857.0842.0842.25067-.0532.35715 0 .0753.0376.10327.14092.17857.17857.10648.0532.27296-.0842.35714 0 .0421.0421-.0421.13648 0 .17857.0842.0842.27296-.0842.35714 0 .0421.0421-.0421.13648 0 .17857.0421.0421.12533-.0266.17857 0 .15059.0753.20656.28185.35715.35715.0532.0266.12533-.0266.17857 0 .21428.10714.32143.42857.53571.53571.0532.0266.12533-.0266.17857 0 .0753.0376.10328.14093.17858.17857.0532.0266.13648-.0421.17857 0 .0421.0421-.0421.13648 0 .17857.0842.0842.25066-.0532.35714 0 .15058.0753.20656.28185.35714.35715.10648.0532.27297-.0842.35715 0 .0421.0421-.0421.13648 0 .17857.0421.0421.12533-.0266.17857 0 .0753.0376.10328.14092.17857.17857.0532.0266.13648-.0421.17857 0 .0421.0421-.0421.13648 0 .17857.0421.0421.13648-.0421.17857 0 .0421.0421-.0266.12533 0 .17857.40863.81725-.074-.75775.35714.53572.0376.11293-.0842.27296 0 .35714.0421.0421.13649-.0421.17858 0 .0489.0489-.0484.61741 0 .71428.0376.0753.14092.10328.17857.17858.0714.14285-.0714.39285 0 .53571.0376.0753.14092.10328.17857.17857.0532.10648-.0532.25067 0 .35714.0376.0753.14092.10328.17857.17858.0532.10648-.0842.27296 0 .35714.0421.0421.13648-.0421.17857 0 .0893.0893-.0893.44643 0 .53571.0421.0421.13648-.0421.17857 0 .0842.0842-.0532.25067 0 .35715.0376.0753.14093.10327.17857.17857.0532.10648-.0532.25066 0 .35714.0376.0753.14093.10328.17858.17857.0354.0708-.0365.49921 0 .53572.0421.0421.13648-.0421.17857 0 .0421.0421-.0266.12533 0 .17857.0376.0753.14092.10328.17857.17857.0532.10648-.0532.25066 0 .35714.0376.0753.14092.10328.17857.17857.0532.10648-.0842.27297 0 .35715.0421.0421.13648-.0421.17857 0 .0421.0421-.0266.12533 0 .17857.0376.0753.14093.10328.17857.17857.0266.0532-.0421.13648 0 .17857.0421.0421.13648-.0421.17857 0 .0842.0842-.0842.27296 0 .35714.0421.0421.13649-.0421.17858 0 .0421.0421-.0421.13648 0 .17857.36947.36948-.0145-.5646.35714.17858.0266.0532-.0421.13648 0 .17857.0421.0421.13648-.0421.17857 0 .0421.0421 0 .11904 0 .17857v.17857 1.96429m-6.42857.35714c0-.41874.0421.0842-.17857-.35714-.0617-.12335.0627-.83016 0-.89286-.0421-.0421-.13647.0421-.17857 0-.0842-.0842.0532-.25066 0-.35714-.0376-.0753-.14098-.10328-.17858-.17858-.0532-.10647.0842-.27294 0-.35714-.0421-.0421-.13647.0421-.17857 0s.0421-.13647 0-.17857-.13647.0421-.17857 0 .0266-.12537 0-.17857c-.0376-.0753-.14097-.10327-.17857-.17857-.0266-.0532.0421-.13647 0-.17857s-.13647.0421-.17857 0 .0266-.12538 0-.17858c-.0376-.0753-.11907-.11907-.17857-.17857 0-.0595.0266-.12537 0-.17857-.0753-.15058-.28185-.20656-.35715-.35714-.0266-.0532.0266-.12537 0-.17857-.0376-.0753-.14097-.10327-.17857-.17857-.0532-.10648.0532-.25067 0-.35715-.0376-.0753-.14097-.10327-.17857-.17857-.0714-.14286.0714-.39286 0-.53571-.0376-.0753-.14097-.10327-.17857-.17857-.0532-.10648.0532-.25067 0-.35715-.0376-.0753-.14097-.10327-.17857-.17857-.0532-.10648.0532-.25066 0-.35714-.0376-.0753-.14097-.10327-.17857-.17857-.0561-.11224.0561-.60205 0-.71429-.0376-.0753-.14097-.10327-.17857-.17857-.0714-.14286.0714-.39286 0-.53571-.0376-.0753-.14098-.10328-.17858-.17858-.0714-.14285.0714-.39285 0-.53571-.0376-.0753-.14097-.10327-.17857-.17857-.0561-.11224.0561-.60205 0-.71429-.0376-.0753-.14097-.10327-.17857-.17857-.0542-.10843.0542-.96299 0-1.07143-.0376-.0753-.14097-.10327-.17857-.17857-.0266-.0532 0-.11907 0-.17857v-.17857c0-.0656.007-.70729 0-.71429-.0421-.0421-.13647.0421-.17857 0s0-.11907 0-.17857v-.17857c0-.0842.008-.88486 0-.89286-.0421-.0421-.13647.0421-.17857 0-.0893-.0893.0893-.44641 0-.53571-.0421-.0421-.13647.0421-.17857 0s.0421-.13647 0-.17857-.13648.0421-.17858 0c-.36947-.36945.5646.0144-.17857-.35715-.0532-.0266-.12537.0266-.17857 0-.15058-.0753-.20656-.28184-.35714-.35714-.0532-.0266-.12537.0266-.17857 0-.21429-.10714-.32143-.42857-.53572-.53571-.0532-.0266-.12537.0266-.17857 0-.21428-.10715-.32143-.42857-.53571-.53572-.0532-.0266-.12537.0266-.17857 0-.37255-.18625.0228-.54299-.35715-.71428l.71429-.17857c.15577.36435.51908.081.71428.17857.0753.0376.10328.14092.17858.17857.10647.0532.27296-.0842.35714 0 .0421.0421-.0421.13648 0 .17857.0421.0421.13648-.0421.17857 0 .0421.0421-.0421.13648 0 .17857.0421.0421.13648-.0421.17857 0 .0421.0421-.0421.13648 0 .17857.0421.0421.12533-.0266.17857 0 .0753.0376.10328.14093.17857.17857.0532.0266.13649-.0421.17858 0 .0421.0421-.0421.13649 0 .17858.0421.0421.12533-.0266.17857 0 .0753.0376.10328.14092.17857.17857.0532.0266.13648-.0421.17857 0 .0421.0421-.0421.13648 0 .17857.0421.0421.13648-.0421.17857 0 .0421.0421-.0421.13648 0 .17857.0421.0421.12533-.0266.17857 0 .15059.0753.20656.28185.35715.35714.0532.0266.13648-.0421.17857 0 .0421.0421-.0421.13648 0 .17857.0421.0421.12533-.0266.17857 0 .0753.0376.10328.14093.17857.17858.0532.0266.13648-.0421.17857 0 .0421.0421-.0266.12533 0 .17857.59225.59224-.0842-.16836.17857.35714.0376.0753.14093.10328.17857.17857.0266.0532-.0421.13648 0 .17857.0421.0421.13649-.0421.17858 0 .0421.0421-.0421.13648 0 .17857.0421.0421.13648-.0421.17857 0 .0842.0842-.0842.27297 0 .35715.0421.0421.13648-.0421.17857 0 .0842.0842-.0842.27296 0 .35714.0421.0421.13648-.0421.17857 0 .0842.0842-.0532.25066 0 .35714.0376.0753.14092.10328.17857.17857.0266.0532-.0266.12534 0 .17858.59225.59224-.0842-.16836.17857.35714.0376.0753.14093.10328.17857.17857.0714.14286-.0714.39286 0 .53571.59225.59225-.0842-.16835.17858.35715.0376.0753.14092.10328.17857.17857.0532.10648-.0376.2442 0 .35714.0421.12627.13648.23088.17857.35714.0376.11294-.0532.25067 0 .35715.59225.59224-.0842-.16836.17857.35714.0376.0753.14092.10328.17857.17857.0714.14286-.0714.39286 0 .53572.0376.0753.14093.10327.17857.17857.0266.0532-.0266.12533 0 .17857.0376.0753.14093.10328.17857.17857.0532.10648-.0842.27296 0 .35714.0421.0421.13649-.0421.17858 0 .043.043-.043.67132 0 .71429.0421.0421.13648-.0421.17857 0 .0893.0893-.0893.44643 0 .53571.0421.0421.13648-.0421.17857 0 .0421.0421-.0421.13648 0 .17857.0421.0421.13648-.0421.17857 0 .0421.0421-.0266.12534 0 .17858.0171.0342.6801.69719.71429.71428.0532.0266.13648-.0421.17857 0 .0421.0421-.0421.13648 0 .17857.0421.0421.13648-.0421.17857 0 .0421.0421-.0421.13648 0 .17857.0421.0421.13648-.0421.17857 0 .0421.0421-.0421.13649 0 .17858.0421.0421.13648-.0421.17857 0 .0421.0421-.0266.12533 0 .17857.0753.15058.28185.20656.35714.35714.0532.10648-.0532.25066 0 .35714.0376.0753.14093.10328.17858.17857.0532.10648-.0532.25067 0 .35715.0376.0753.14092.10328.17857.17857.0231.0462 0 .94486 0 1.07143 0 .0595-.0421.13648 0 .17857.0421.0421.13648-.0421.17857 0 .0179.0179.0179.51786 0 .53571-.0421.0421-.13648-.0421-.17857 0-.006.006 0 .49241 0 .53572m-9.64286-15.8929c0 .40344-.0266-.0799.17857.53571.0188.0565-.0266.12534 0 .17858.0376.0753.14093.10327.17857.17857.0266.0532-.0266.12533 0 .17857.0376.0753.14093.10328.17857.17857.0266.0532-.0421.13648 0 .17857.0421.0421.13649-.0421.17858 0 .0421.0421-.0266.12533 0 .17857.0376.0753.14092.10328.17857.17857.0266.0532-.0266.12534 0 .17858.0376.0753.14092.10327.17857.17857.0272.0543 0 .45529 0 .53571v1.42857.35715c0 .11904-.0289.24165 0 .35714.0323.12912.14629.22802.17857.35714.0289.11549 0 .2381 0 .35714v.89286c0 .0433.006.52997 0 .53572-.0421.0421-.13648-.0421-.17857 0-.0421.0421 0 .11904 0 .17857v1.25.17857c0 .0595.0421.13648 0 .17857-.0421.0421-.13648-.0421-.17857 0-.0421.0421 0 .11905 0 .17857v.89286 2.32143.17857c0 .0595-.0421.13648 0 .17857.0421.0421.17857-.0595.17857 0s-.17857-.0595-.17857 0c0 .0842.14092.10328.17857.17857.0714.14286-.0714.39286 0 .53572.0376.0753.14092.10327.17857.17857.0561.11223-.0561.60205 0 .71428.0376.0753.14092.10328.17857.17857.0714.14286-.0714.39286 0 .53572.0376.0753.14093.10328.17857.17857.0532.10648-.0842.27296 0 .35714.0421.0421.13648-.0421.17857 0 .006.006 0 .49241 0 .53572m-10-2.32143c-.23809.11905-.90251.54537-.71428.35714.24542-.24542.62183-.31889.89286-.53571.0465-.0372-.0421-.13648 0-.17857.0421-.0421.13648.0421.17857 0 .0842-.0842-.0842-.27297 0-.35715.0421-.0421.13648.0421.17857 0 .0421-.0421-.0421-.13648 0-.17857.0421-.0421.13648.0421.17857 0 .0421-.0421-.0266-.12533 0-.17857.0376-.0753.11905-.11905.17857-.17857 0-.17857-.0565-.36631 0-.53572.0679-.2036.27744-.33644.35714-.53571.0442-.11053-.0376-.2442 0-.35714.0532-.15972.28185-.20656.35715-.35715.0266-.0532-.0421-.13648 0-.17857.0421-.0421.13648.0421.17857 0 .0421-.0421-.0266-.12533 0-.17857.0376-.0753.14092-.10328.17857-.17857.0266-.0532-.0421-.13648 0-.17857.0421-.0421.13648.0421.17857 0 .0842-.0842-.0842-.27296 0-.35714.0421-.0421.13648.0421.17857 0 .0421-.0421-.0421-.13649 0-.17858.0421-.0421.13648.0421.17857 0 .0421-.0421-.0266-.12533 0-.17857.0376-.0753.14093-.10328.17858-.17857.0266-.0532-.0421-.13648 0-.17857.0421-.0421.13648.0421.17857 0 .0421-.0421-.0266-.12533 0-.17857.0376-.0753.14092-.10328.17857-.17857.0266-.0532-.0266-.12533 0-.17857.10714-.21429.42857-.32143.53571-.53572.0266-.0532-.0421-.13648 0-.17857.0421-.0421.13648.0421.17857 0 .0421-.0421-.0421-.13648 0-.17857.0421-.0421.13649.0421.17858 0 .0421-.0421-.0421-.13648 0-.17857.0421-.0421.13648.0421.17857 0 .0421-.0421-.0421-.13648 0-.17857.0421-.0421.13648.0421.17857 0 .0421-.0421-.0266-.12534 0-.17858.0376-.0753.14092-.10327.17857-.17857.0266-.0532-.0421-.13648 0-.17857.0421-.0421.13648.0421.17857 0 .0421-.0421-.0421-.13648 0-.17857.0421-.0421.13648.0421.17857 0 .0842-.0842-.0532-.25066 0-.35714.0376-.0753.14093-.10328.17857-.17857.0266-.0532-.0266-.12534 0-.17858.0376-.0753.14093-.10327.17858-.17857.0561-.11223-.0561-.60205 0-.71428.0376-.0753.14092-.10328.17857-.17857.0532-.10648-.0842-.27297 0-.35715.0421-.0421.13648.0421.17857 0 .0842-.0842-.0532-.25066 0-.35714.0376-.0753.14092-.10328.17857-.17857.0484-.0969-.0489-.66543 0-.71429.0421-.0421.13648.0421.17857 0 .0489-.0489-.0484-.61741 0-.71428.0376-.0753.14093-.10328.17857-.17857.0532-.10648-.0532-.25067 0-.35715.0376-.0753.14093-.10328.17857-.17857.0484-.0969-.0489-.66542 0-.71428.0421-.0421.13649.0421.17858 0 .008-.008 0-.80867 0-.89286 0-.0595-.0421-.13648 0-.17857.0421-.0421.13648.0421.17857 0 .0842-.0842-.0842-.27297 0-.35715.23809-.23809.17857.29762.17857-.17857l.17857 1.07143c.079.10677-.0704.57357 0 .71429.0376.0753.14092.10328.17857.17857.0272.0543 0 .45529 0 .53571v1.25 3.03572 1.07143c0 .0804.0272.48136 0 .53571-.0376.0753-.14092.10328-.17857.17857-.0563.11266.0563.7802 0 .89286-.0376.0753-.14093.10328-.17857.17857-.0561.11224.0561.60205 0 .71429-.0376.0753-.14093.10327-.17857.17857-.0513.10251.038.74085 0 .89285-.0323.12913-.13648.23088-.17857.35715-.0188.0565.0266.12533 0 .17857-.0376.0753-.14093.10328-.17858.17857-.0266.0532 0 .11905 0 .17857 0 .12657.0231 1.02526 0 1.07143-.0376.0753-.15195.0987-.17857.17857-.0272.0818 0 .79319 0 .89286v1.96428m.53572-15.8928c0 .41878.0421-.0842-.17857.35714-.0561.11224.0561.60205 0 .71429-.0376.0753-.14093.10327-.17858.17857-.0532.10648.0532.25066 0 .35714-.0376.0753-.14092.10328-.17857.17857-.0266.0532.0188.1221 0 .17857-.0421.12627-.13648.23088-.17857.35715-.0188.0565.0266.12533 0 .17857-.0376.0753-.14092.10328-.17857.17857-.0266.0532.0266.12533 0 .17857-.0376.0753-.11905.11905-.17857.17857l-.17857.17857c-.10503.10503-.6316.67294-.71429.71429-.10648.0532-.27296-.0842-.35714 0-.0421.0421.0421.13648 0 .17857-.0842.0842-.27297-.0842-.35714 0-.0421.0421.0266.12533 0 .17857-.0569.11375-.75255.75254-.89286.89286-.0595.0595-.10328.14092-.17857.17857-.24632.12316-.15973-.21626-.35715.17857-.0266.0532.0421.13648 0 .17857-.0421.0421-.13648-.0421-.17857 0-.0421.0421.0266.12533 0 .17857-.0753.15059-.28185.20656-.35714.35715-.0266.0532 0 .11904 0 .17857-.0595.0595-.14093.10328-.17857.17857-.0266.0532.0421.13648 0 .17857-.0421.0421-.13648-.0421-.17857 0-.0421.0421.0266.12533 0 .17857-.0753.15059-.28185.20656-.35715.35715-.0266.0532.0421.13648 0 .17857-.0421.0421-.12533-.0266-.17857 0-.74317.37158.1909-.0123-.17857.35714-.0421.0421-.13648-.0421-.17857 0-.36947.36947.5646-.0144-.17857.35714-.0532.0266-.12533-.0266-.17857 0-.0753.0376-.11905.11905-.17857.17857l-.17858.17858c-.0595.0595-.14092.10327-.17857.17857-.0266.0532.0595.17857 0 .17857s.0421-.13648 0-.17857c-.0421-.0421-.11905 0-.17857 0-.11905 0-.2442-.0376-.35714 0-.25254.0842-.46175.27296-.71429.35714-.11294.0376-.25066-.0532-.35714 0-.0753.0376-.11905.11905-.17857.17857l-.71429.71429c-.0595 0-.13648-.0421-.17857 0-.0421.0421.0421.13648 0 .17857-.0421.0421-.13648-.0421-.17857 0-.0421.0421.0266.12533 0 .17857-.0377.0753-.13188.10853-.17857.17857-.39342.0899-.0944.36736-.17857.53572-.0376.0753-.14093.10327-.17857.17857-.0325.065.0313.71428 0 .71428-.0595 0-.0595-.17857 0-.17857.15583 0-.37508.92873.17857-.17857m10-13.5714c0-.47619.0595.0595-.17857-.17857-.0421-.0421.0421-.13648 0-.17857-.0421-.0421-.13649.0421-.17858 0-.0421-.0421.0421-.13648 0-.17857-.0421-.0421-.13648.0421-.17857 0-.0421-.0421.0421-.13648 0-.17857-.0421-.0421-.13648.0421-.17857 0-.0421-.0421.0266-.12534 0-.17858-.0753-.15058-.28185-.20655-.35714-.35714-.0266-.0532.0421-.13648 0-.17857-.0421-.0421-.13648.0421-.17857 0-.0421-.0421.0421-.13648 0-.17857-.0421-.0421-.13648.0421-.17857 0-.0842-.0842.0842-.27296 0-.35714-.36948-.36947.0144.5646-.35715-.17858-.0266-.0532.0421-.13648 0-.17857-.0842-.0842-.25066.0532-.35714 0-.21429-.10714-.32143-.42857-.53571-.53571-.0532-.0266-.12534.0266-.17858 0-.0753-.0376-.10328-.14093-.17857-.17857-.10648-.0532-.25066.0532-.35714 0-.0753-.0376-.10328-.14093-.17857-.17857-.10648-.0532-.27297.0842-.35714 0-.0421-.0421.0421-.13649 0-.17858-.0421-.0421-.12534.0266-.17858 0-.15058-.0753-.20655-.28185-.35714-.35714-.0532-.0266-.13648.0421-.17857 0-.36947-.36947.5646.0144-.17857-.35714-.0532-.0266-.11905 0-.17857 0-.0595-.0595-.10328-.14093-.17857-.17857-.0532-.0266-.13649.0421-.17858 0-.0421-.0421.0421-.13648 0-.17857-.0421-.0421-.12533.0266-.17857 0-.21428-.10715-.32143-.42858-.53571-.53572-.0532-.0266-.13648.0421-.17857 0-.0421-.0421.0421-.13648 0-.17857-.36947-.36947.0144.5646-.35715-.17857-.0266-.0532.0421-.13648 0-.17857-.0421-.0421-.13648.0421-.17857 0-.0842-.0842.0842-.27297 0-.35715-.0421-.0421-.13648.0421-.17857 0-.0421-.0421.0266-.12533 0-.17857-.59225-.59224.0842.16836-.17857-.35714-.0753-.15058-.28185-.20656-.35714-.35714-.0266-.0532 0-.11905 0-.17857-.0595-.0595-.14093-.10328-.17857-.17858-.0532-.10648.0532-.25066 0-.35714-.0376-.0753-.14093-.10328-.17858-.17857-.0266-.0532 0-.11905 0-.17857-.0595-.0595-.14092-.10328-.17857-.17857-.0266-.0532.0266-.12533 0-.17857-.10714-.21429-.42857-.32143-.53571-.53572-.0532-.10648.0842-.27296 0-.35714-.0421-.0421-.13648.0421-.17857 0-.0421-.0421.0266-.12533 0-.17857-.0376-.0753-.14093-.10328-.17857-.17857-.0266-.0532.0421-.13649 0-.17858-.0421-.0421-.12534.0266-.17858 0-.21428-.10714-.32142-.42857-.53571-.53571-.0532-.0266-.12533.0266-.17857 0-.0753-.0377-.10328-.14093-.17857-.17857-.0532-.0266-.12533.0266-.17857 0-.0753-.0376-.10328-.14093-.17858-.17857-.0708-.0354-.4992.0365-.53571 0-.0421-.0421.0421-.13648 0-.17857-.0842-.0842-.25066.0532-.35714 0-.0753-.0377-.10328-.14093-.17857-.17858-.0708-.0354-.49921.0365-.53572 0-.0421-.0421.0421-.13648 0-.17857-.0553-.0553-.83756.0553-.89286 0-.0421-.0421.0421-.13648 0-.17857-.0489-.0489-.61741.0484-.71428 0-.0753-.0376-.10328-.14092-.17857-.17857-.10648-.0532-.25067.0532-.35715 0-.0753-.0377-.10328-.14093-.17857-.17857-.0532-.0266-.12533.0266-.17857 0-.0753-.0376-.10328-.14093-.17857-.17857-.0708-.0354-.49921.0365-.53571 0-.0421-.0421.0421-.13648 0-.17857-.0421-.0421-.12534.0266-.17858 0-.0753-.0377-.10328-.14093-.17857-.17858-.10648-.0532-.27296.0842-.35714 0-.0421-.0421.0421-.13648 0-.17857-.0842-.0842-.27296.0842-.35714 0-.0421-.0421.0421-.13648 0-.17857-.0421-.0421-.13648.0421-.17857 0-.0421-.0421 0-.11905 0-.17857-.0595 0-.13649.0421-.17858 0-.0421-.0421.0421-.13648 0-.17857-.0842-.0842-.27296.0842-.35714 0-.0421-.0421.0421-.13648 0-.17857-.0842-.0842-.27296.0842-.35714 0-.0421-.0421 0-.11905 0-.17857v-.17858m-1.78572 7.5c-.0595 0-.17857-.0595-.17857 0s.13647.0421.17857 0-.0421-.13647 0-.17857.11908 0 .17858 0c.1242 0 .82825-.0323.89285 0 .0753.0376.10327.14097.17857.17857.0532.0266.13648-.0421.17858 0 .0842.0842-.0532.25067 0 .35715.0376.0753.14097.10327.17857.17857.12317.24631-.21626.15973.17857.35714.0532.0266.13647-.0421.17857 0s-.0421.13647 0 .17857.13647-.0421.17857 0-.0421.13647 0 .17857.11907 0 .17857 0c.12657 0 1.02523-.0231 1.07143 0 .0753.0376.10327.14088.17857.17858.0763.0381.82226 0 .89286 0h1.60714c.90444 0-.38068-.0289 1.07143.17857.2357.0337.47619 0 .71429 0 .0595 0 .13647-.0421.17857 0s-.0421.13647 0 .17857.12537-.0266.17857 0c.0753.0376.10327.14087.17857.17857.5255.26277-.2351-.41368.35714.17857.0532.0266.13648-.0421.17858 0 .0842.0842-.0842.27294 0 .35714.0421.0421.13647-.0421.17857 0s-.0421.13648 0 .17858.13647-.0421.17857 0c.23807.23807-.29762.17857.17857.17857.0753.0376.11907.11907.17857.17857s.14097.10327.17857.17857c.0266.0532-.0421.13647 0 .17857.0596.0596.29755-.0596.35715 0 .0421.0421-.0421.13647 0 .17857s.12537-.0266.17857 0c.0753.0376.10327.14097.17857.17857.10648.0532.27294-.0842.35714 0 .0421.0421-.0421.13648 0 .17858.0627.0627.76951-.0617.89286 0 .0753.0376.10327.14097.17857.17857.0532.0266.11907 0 .17857 0h.17857.89286c.0595 0 .12537-.0266.17857 0 .0753.0376.10327.14097.17857.17857.11765.0588.9063-.0551 1.07143 0 .0799.0266.10327.14087.17857.17857.11224.0561.60205-.0561.71429 0 .0753.0376.10327.14097.17857.17857.0708.0354.49921-.0365.53571 0 .0421.0421-.0421.13647 0 .17857.043.043.67129-.043.71429 0 .0421.0421-.0421.13647 0 .17857.0842.0842.27294-.0842.35714 0 .0421.0421-.0421.13648 0 .17858s.13647-.0421.17857 0-.0421.13647 0 .17857.13648-.0421.17858 0-.0421.13647 0 .17857.12537-.0266.17857 0c.0753.0376.10327.14087.17857.17857.0532.0266.12537-.0266.17857 0 .0753.0376.10327.14097.17857.17857.10648.0532.27294-.0842.35714 0 .0421.0421-.0421.13647 0 .17857.0842.0842.33375-.11673.35715 0 .0584.29184-.21045.68241 0 .89286.17357.17354.11907-.47619.17857-.71429l-.71429-.53571c-.10648-.0532-.25066.0532-.35714 0-.0753-.0377-.10328-.14093-.17857-.17857-.0532-.0266-.13648.0421-.17857 0-.0421-.0421.0421-.13648 0-.17857-.0421-.0421-.12533.0266-.17857 0-.0753-.0376-.10328-.14093-.17858-.17857-.0532-.0266-.13648.0421-.17857 0-.0421-.0421.0266-.12534 0-.17858-.0376-.0753-.14092-.10327-.17857-.17857-.0266-.0532.0421-.13648 0-.17857-.0842-.0842-.27296.0842-.35714 0-.0421-.0421.0266-.12533 0-.17857-.0376-.0753-.13188-.10853-.17857-.17857-.0738-.11075-.10474-.2464-.17857-.35714-.16378-.24567-.27549-.18366-.53572-.35715-.14008-.0934-.20656-.28185-.35714-.35714-.0532-.0266-.13648.0421-.17857 0-.0421-.0421.0421-.13648 0-.17857-.0842-.0842-.25067.0532-.35715 0-.0753-.0376-.10328-.14093-.17857-.17857-.0532-.0266-.13648.0421-.17857 0-.0421-.0421.0421-.13648 0-.17857-.0365-.0365-.46491.0354-.53571 0-.0753-.0377-.10328-.14093-.17857-.17858-.0532-.0266-.12211.0188-.17858 0-.11904-.0595-.23809-.11904-.35714-.17857-.0595 0-.1221.0188-.17857 0-.25254-.0842-.45604-.29258-.71429-.35714-.006-.001-.53476.00095-.53571 0-.0421-.0421.0421-.13648 0-.17857-.0421-.0421-.12533.0266-.17857 0-.0753-.0376-.10328-.14093-.17857-.17857-.0532-.0266-.12533.0266-.17857 0-.15059-.0753-.20656-.28185-.35715-.35715-.0532-.0266-.12533.0266-.17857 0-.0474-.0237-.51201-.4883-.53571-.53571-.0266-.0532.0421-.13648 0-.17857-.0421-.0421-.13648.0421-.17857 0-.0421-.0421.0266-.12533 0-.17857-.0377-.0753-.14093-.10328-.17858-.17857-.0266-.0532.0421-.13649 0-.17858-.0421-.0421-.13648.0421-.17857 0-.0421-.0421.0266-.12533 0-.17857-.0376-.0753-.14092-.10328-.17857-.17857-.0266-.0532.0421-.13648 0-.17857-.0421-.0421-.13648.0421-.17857 0-.0421-.0421.0421-.13648 0-.17857-.0421-.0421-.13648.0421-.17857 0-.0421-.0421.0421-.13648 0-.17857-.0842-.0842-.25067.0532-.35714 0-.0753-.0376-.10328-.14093-.17858-.17857-.0969-.0484-.66542.0489-.71428 0-.0421-.0421.0421-.13649 0-.17858-.0589-.0589-.58506.0431-.71429 0-.0799-.0266-.0987-.15195-.17857-.17857-.00081-.00027-.53554.00017-.53571 0-.0421-.0421.0421-.13648 0-.17857-.0842-.0842-.25067.0532-.35715 0-.0753-.0376-.10328-.14092-.17857-.17857-.10648-.0532-.27296.0842-.35714 0-.0421-.0421-.0421-.13648 0-.17857.0421-.0421.17857.0595.17857 0 0-.1331-.10474-.2464-.17857-.35714-.29612-.44419-.041-.0205-.35714-.17858-.15059-.0753-.20656-.28185-.35715-.35714-.0532-.0266-.13648.0421-.17857 0-.0421-.0421.0421-.13648 0-.17857-.0421-.0421-.12533.0266-.17857 0-.0753-.0377-.10328-.14093-.17857-.17857-.0532-.0266-.13648.0421-.17857 0-.0421-.0421.0421-.13648 0-.17857-.0596-.0596-.29757.0596-.35714 0-.0421-.0421.0421-.13648 0-.17857-.0252-.0252-.49909-.0183-.53572 0-.0753.0376-.10328.14092-.17857.17857-.0543.0272-.45529 0-.53571 0h-1.25c-.0934 0-.66734.0235-.71429 0-.0753-.0376-.10328-.14093-.17857-.17857-.10648-.0532-.35714.11904-.35714 0 0-.0595.11904 0 .17857 0m.89285 11.7857c0-.0595.0595-.17857 0-.17857s-.0421.13647 0 .17857c.1396.13959.31065-.15537.35715-.17857.10648-.0532.25066.0532.35714 0 .0753-.0376.10327-.14097.17857-.17857.0543-.0272.45532 0 .53572 0h1.25.17857c.0595 0 .13647-.0421.17857 0s-.0421.13647 0 .17857c.0842.0842.27294-.0842.35714 0 .0421.0421 0 .11907 0 .17857.0595 0 .13647-.0421.17857 0 .0842.0842-.0842.27294 0 .35714.0421.0421.12537-.0266.17857 0 .0753.0376.10328.14097.17858.17857.0469.0235.62088 0 .71428 0 .12657 0 1.02523.0231 1.07143 0 .0753-.0376.10327-.14097.17857-.17857.5255-.26277-.2351.41368.35714-.17857.10648-.0532.25067.0532.35715 0 .0753-.0376.10327-.14097.17857-.17857.10648-.0532.2442.0376.35714 0 .12627-.0421.22802-.14627.35714-.17857.1155-.0289.24041.0233.35715 0 .18457-.0369.35114-.14167.53571-.17857.11674-.0233.24041.0233.35714 0 .18458-.0369.35114-.14167.53572-.17857.19338-.0387 1.05911 0 1.25 0 .11905 0 .24165.0289.35714 0 .12913-.0323.23087-.13648.35714-.17858.10648-.0355.89842 0 1.07143 0 .0595 0 .12537.0266.17857 0 .0753-.0376.10328-.14097.17858-.17857.0678-.0339.95487.0167 1.07142 0 .30047-.0429.59085-.14837.89286-.17857.29614-.0296.59646.027.89286 0 2.28721-.20797.19661-.17857 1.60714-.17857l-.71428-.89286c-.0474-.0237-.30974-.33343-.35715-.35714-.0532-.0266-.11905 0-.17857 0-.11905-.0595-.2464-.10474-.35714-.17857-.07-.0467-.0987-.15195-.17857-.17857-.11294-.0376-.24421.0376-.35715 0-.0799-.0266-.10328-.14093-.17857-.17857-.10648-.0532-.25066.0532-.35714 0-.0753-.0377-.10328-.14093-.17857-.17858-.14286-.0714-.39286.0714-.53572 0-.0753-.0376-.10328-.14092-.17857-.17857-.047-.0235-.6209 0-.71428 0-.0656 0-.7071-.007-.71429 0-.0421.0421.0421.13648 0 .17857-.0421.0421-.11905 0-.17857 0h-1.42857-1.96429-.89285c-.0595 0-.12211.0188-.17858 0-.12627-.0421-.23087-.13648-.35714-.17857-.12283-.0409-.43035.0527-.53571 0-.0753-.0376-.10328-.14092-.17857-.17857-.10844-.0542-.963.0542-1.07143 0-.0753-.0376-.10328-.14092-.17857-.17857-.10648-.0532-.27297.0842-.35715 0-.0421-.0421.0421-.13648 0-.17857-.007-.007-.64871 0-.71428 0h-1.25c-.0804 0-.48137.0272-.53572 0-.0753-.0376-.10328-.14093-.17857-.17857-.0543-.0272-.45529 0-.53571 0h-1.25c-.0804 0-.48137.0272-.53572 0-.44132-.22066.0616-.17857-.35714-.17857h-.35714.35714m5 12.3214c0-.47619-.0595.0595.17857-.17857.0421-.0421 0-.11907 0-.17857v-.17857c0-.0656-.007-.70729 0-.71429.0421-.0421.13647.0421.17857 0s-.0421-.13647 0-.17857.13647.0421.17857 0-.0421-.13647 0-.17857c.0842-.0842.27295.0842.35715 0 .0421-.0421-.0421-.13647 0-.17857.0489-.0489.76729.0418.89285 0 .25254-.0842.46713-.25824.71429-.35714.34954-.13982.71429-.2381 1.07143-.35715.17857-.0595.35004-.14767.53571-.17857.17614-.0294.35958.0294.53572 0 1.56753-.26124-.27297-.0657.89285-.35714.98049-.24517-.29744.32729.71429-.17857.0565-.0188.12537.0266.17857 0 .0753-.0376.0987-.15197.17857-.17857.11294-.0376.2381 0 .35715 0 .0595 0 .12537.0266.17857 0 .52551-.26277-.2772-.17857.53571-.17857.0799-.0266.10327-.14098.17857-.17858.0532-.0266.13647.0421.17857 0s-.0421-.13647 0-.17857.12538.0266.17858 0c.15058-.0753.20655-.28184.35714-.35714.0532-.0266.13647.0421.17857 0s-.0421-.13647 0-.17857c.0842-.0842.25066.0532.35714 0 .0753-.0376.11907-.11907.17857-.17857l.35715-.35715c.92775-.92778-.38061.41428.89285-1.07142.16435-.19175.35715-.35715.53572-.53572.72394-.72394.42277-.30984.89286-1.25.29761-.35714.91137-.37022 1.07142-.89286l-.89285-.17857c-.0595.0595-.10328.14093-.17857.17857-.0952.0476-.26198-.0476-.35715 0-.0753.0376-.11905.11905-.17857.17858-.11905 0-.2442-.0377-.35714 0-.25254.0842-.47103.24903-.71429.35714-1.10822.49254-.59146.24552-1.60714.53571-.18099.0517-.3531.13292-.53571.17857-.35715.0893 0-.17857-.53572 0-.0799.0266-.10328.14093-.17857.17858-.33672.16835-.72541.20884-1.07143.35714-.24467.10486-.46961.25228-.71428.35714-.17302.0742-.37431.0817-.53572.17857-.14437.0866-.22245.25613-.35714.35715-.10648.0799-.26303.0844-.35714.17857-.0421.0421.0421.13648 0 .17857-.0421.0421-.13649-.0421-.17858 0-.0421.0421.0421.13648 0 .17857-.0842.0842-.25066-.0532-.35714 0-.0753.0376-.10328.14093-.17857.17857-.10648.0532-.25066-.0532-.35714 0-.0753.0376-.10328.14093-.17857.17857-.047.0235-.62091 0-.71429 0h-1.42857c-.0433 0-.52997-.006-.53572 0-.0421.0421.0421.13648 0 .17857-.0421.0421-.12533-.0266-.17857 0-.0753.0376-.11905.11905-.17857.17858-.17857 0-.35957-.0294-.53571 0-.37134.0619-.70228.28331-1.07143.35714-.11674.0233-.2381 0-.35714 0-.11905.0595-.23088.13648-.35715.17857-.0695.0232-.508-.0277-.53571 0-.0421.0421.0421.13648 0 .17857-.043.043-.67132-.043-.71429 0-.0421.0421-.0421.13648 0 .17857.007.007.64871 0 .71429 0" fill="none" filter="url(#b)" opacity=".15" stroke="#fff" stroke-linecap="round" stroke-linejoin="round"/>
  <circle fill="url(#d)" opacity=".4" transform="translate(.76 .77)"/>
 </g>
</svg>
