<?xml version="1.0" encoding="utf-8"?>
<!-- Generator: Adobe Illustrator 19.1.0, SVG Export Plug-In . SVG Version: 6.00 Build 0)  -->
<!DOCTYPE svg PUBLIC "-//W3C//DTD SVG 1.1//EN" "http://www.w3.org/Graphics/SVG/1.1/DTD/svg11.dtd">
<svg version="1.1" id="Layer_1" xmlns="http://www.w3.org/2000/svg" xmlns:xlink="http://www.w3.org/1999/xlink" x="0px" y="0px"
	 viewBox="0 0 100 100" style="enable-background:new 0 0 100 100;" xml:space="preserve">
<style type="text/css">
	.st0{display:none;fill-rule:evenodd;clip-rule:evenodd;fill:#C80000;}
	.st1{display:none;fill-rule:evenodd;clip-rule:evenodd;}
	.st2{fill-rule:evenodd;clip-rule:evenodd;fill:#E10000;}
	.st3{fill-rule:evenodd;clip-rule:evenodd;fill:#FFFFFF;}
	.st4{fill:#FFFFFF;}
</style>
<rect x="5.5" y="5.5" class="st0" width="89.1" height="89.1"/>
<rect x="20" y="20" class="st1" width="60" height="60"/>
<g id="Layer_3">
	<circle class="st2" cx="50" cy="50" r="49"/>
</g>
<g id="Layer_2">
</g>
<path class="st3" d="M50,0C22.4,0,0,22.4,0,50s22.4,50,50,50s50-22.4,50-50S77.6,0,50,0z M50,96.3C24.4,96.3,3.7,75.6,3.7,50
	C3.7,24.4,24.4,3.7,50,3.7S96.3,24.4,96.3,50C96.3,75.6,75.6,96.3,50,96.3z"/>
<g id="D__x26__Waves_2_">
	<g>
		<path id="Large_Wave_7_" class="st3" d="M82.2,50.8c0,3.3-0.7,7.4-1.8,11.5c-0.8,2.9-1.9,5.5-3.2,8.2c-2,4.1-4.7,7.8-7.9,11.1
			c-0.2,0.2-0.4,0.4-0.6,0.6c-0.5,0.4-1,0.4-1.5-0.1c-1.1-1.1-2.2-2.2-3.4-3.3c-0.5-0.5-1-1-1.5-1.4c-0.6-0.5-0.6-1.1,0-1.6
			c1.8-1.8,3.4-3.8,4.8-6c1.4-2.2,2.5-4.5,3.4-6.9c1-2.8,1.8-5.6,2.1-8.5C73.4,49.2,73,44,71.4,39c-1.6-5.1-4.2-9.7-7.8-13.7
			c-0.4-0.4-0.8-0.8-1.1-1.2c-0.2-0.3-0.4-0.6-0.3-0.9c0.1-0.2,0.2-0.4,0.4-0.6c1.5-1.4,3.1-3.1,4.9-4.7c0.6-0.5,1.1-0.5,1.7,0
			c1,1,2,2.1,3,3.3c4.8,6,7.8,12.8,9.3,20.2C82,44.2,82.2,47,82.2,50.8z"/>
		<path id="Small_Wave_7_" class="st3" d="M63,50c0,4.5-1.1,8.9-3.1,13.1c-1.3,2.8-3.1,5.4-5.3,7.6c-0.1,0.1-0.1,0.1-0.2,0.2
			c-0.5,0.5-1,0.5-1.5,0c-1.7-1.6-3.3-3.2-5-4.9c-0.4-0.4-0.5-0.9-0.1-1.4c0.6-0.7,1.2-1.4,1.8-2.1c2.2-3.1,3.5-6.5,4-10.2
			c0.4-2.9,0.2-5.7-0.7-8.5c-0.9-3.2-2.6-6-4.9-8.5c-0.6-0.6-0.5-1.1,0-1.7c1.6-1.5,3.2-3.1,4.8-4.6c0.1-0.1,0.2-0.2,0.3-0.2
			c0.5-0.3,0.9-0.3,1.3,0.1c0.8,0.7,1.5,1.6,2.1,2.4c2.7,3.4,4.4,7.3,5.5,11.4C62.7,45.1,63,47.5,63,50z"/>
		<path id="D_7_" class="st4" d="M43.1,48.9c-0.1-1.7-0.4-3.4-1.1-5c-1.1-2.8-3-5-5.6-6.5c-2.2-1.3-4.7-1.8-7.2-1.8
			c-3.6,0-5.8,0-9.4,0c-0.6,0-0.8,0.2-0.8,0.9c0,4.5,0,9.2,0,13.7c0,4.5,0,9.8,0,14.2c0,0.4,0.2,0.6,0.7,0.6c3.4,0,5.2,0,8.6,0
			c1.6,0,3-0.3,4.4-0.6c4.5-1,7.7-3.6,9.3-7.8C43,54.1,43.3,51.5,43.1,48.9z M24.7,50.1c0-2.5,0-5.9,0-8.4c0-0.6,0.3-0.7,0.9-0.7
			c1.2,0,2.1,0,3.4,0c3.2,0,5.4,2.4,6.3,5.4c0.7,2.5,0.7,5.4-0.2,7.8c-0.7,1.7-1.8,3-3.5,3.7c-1,0.4-2,0.6-3,0.6c-1,0-2,0-2.9,0
			c-0.7,0-1-0.2-1-0.8L24.7,50.1z"/>
	</g>
</g>
</svg>
