<svg id="Layer_1" data-name="Layer 1" xmlns="http://www.w3.org/2000/svg" viewBox="0 0 1920 1080"><defs><style>.cls-1{fill:#fafafa;}.cls-2{fill:#0c91f0;}.cls-3,.cls-4{fill:#7a7a7a;}.cls-4{font-size:88.14px;font-family:KeaniaOne-Regular, Keania One;}</style></defs><g id="landscape"><rect id="_1920_x_1080" data-name="1920 x 1080" class="cls-1" x="420" width="1080" height="1920" transform="translate(1920 -420) rotate(90)"/><path class="cls-2" d="M650.47,971.39a2.54,2.54,0,0,1-2.64-2.65V900a2.53,2.53,0,0,1,2.64-2.64h11.74a2.54,2.54,0,0,1,2.65,2.64v57.22h32.78a2.55,2.55,0,0,1,2.65,2.65v8.88a2.54,2.54,0,0,1-2.65,2.65Z" transform="translate(0 -420)"/><path class="cls-2" d="M705.68,971.39a2.09,2.09,0,0,1-1.59-.69,2.22,2.22,0,0,1-.63-1.53,4,4,0,0,1,.11-1l25.17-68a4,4,0,0,1,1.27-2,3.79,3.79,0,0,1,2.64-.85h13.54a3.79,3.79,0,0,1,2.64.85,4,4,0,0,1,1.27,2l25.18,68a4,4,0,0,1,.1,1,2.22,2.22,0,0,1-.63,1.53,2.06,2.06,0,0,1-1.59.69h-11a3.21,3.21,0,0,1-2.33-.74,3.68,3.68,0,0,1-1-1.38l-4.55-11.84H724.51L720,969.27a3.68,3.68,0,0,1-1,1.38,3.21,3.21,0,0,1-2.33.74Zm22.74-27.61h21.9l-10.9-30.46Z" transform="translate(0 -420)"/><path class="cls-2" d="M787.12,971.39a2.59,2.59,0,0,1-1.9-.74,2.55,2.55,0,0,1-.74-1.91V900a2.55,2.55,0,0,1,.74-1.9,2.59,2.59,0,0,1,1.9-.74h9.63a3.17,3.17,0,0,1,2.32.74,5.39,5.39,0,0,1,1,1.16l28.24,44.11V900a2.55,2.55,0,0,1,.74-1.9,2.45,2.45,0,0,1,1.79-.74h10.79a2.54,2.54,0,0,1,2.65,2.64v68.75a2.62,2.62,0,0,1-.74,1.85,2.51,2.51,0,0,1-1.91.8h-9.73a2.86,2.86,0,0,1-2.27-.8c-.46-.52-.8-.89-1-1.11l-28.13-42.73v42a2.54,2.54,0,0,1-2.64,2.65Z" transform="translate(0 -420)"/><path class="cls-2" d="M862.54,971.39a2.54,2.54,0,0,1-2.65-2.65V900a2.54,2.54,0,0,1,2.65-2.64h26.54q10.57,0,17.67,3.33a24.18,24.18,0,0,1,10.84,9.73q3.75,6.4,4,15.81c.07,3.11.11,5.82.11,8.15s0,5-.11,8q-.31,9.83-3.91,16.29a22,22,0,0,1-10.58,9.57q-7,3.12-17.45,3.12Zm14.17-13.65h12.37a20.66,20.66,0,0,0,8.68-1.58,10.24,10.24,0,0,0,5-5,22,22,0,0,0,1.75-8.93c.06-2.05.12-3.88.15-5.5s0-3.25,0-4.87-.09-3.42-.15-5.39c-.15-5.29-1.5-9.19-4.08-11.69s-6.54-3.76-11.9-3.76H876.71Z" transform="translate(0 -420)"/><path class="cls-2" d="M961.53,972.45q-10.14,0-17-3a24.33,24.33,0,0,1-10.31-7.72,18.06,18.06,0,0,1-3.71-10.15,2.21,2.21,0,0,1,.64-1.53,2.06,2.06,0,0,1,1.59-.69h11.31a3.36,3.36,0,0,1,2.12.58,7.49,7.49,0,0,1,1.37,1.43,11.36,11.36,0,0,0,2.38,3.49,12.34,12.34,0,0,0,4.5,2.8,19.63,19.63,0,0,0,7.08,1.11c4.59,0,8-.74,10.32-2.22a6.85,6.85,0,0,0,3.43-6,5.72,5.72,0,0,0-1.85-4.44,16.92,16.92,0,0,0-5.81-3.07q-4-1.37-10.53-3a59.25,59.25,0,0,1-13.48-4.39,20.23,20.23,0,0,1-8.36-7,20.68,20.68,0,0,1,.69-21.89,23.11,23.11,0,0,1,9.84-7.72,37.2,37.2,0,0,1,15.12-2.81,37.88,37.88,0,0,1,12.53,1.91,28.62,28.62,0,0,1,9.1,5,23.2,23.2,0,0,1,5.55,6.55,15.18,15.18,0,0,1,2,6.77,2.22,2.22,0,0,1-.63,1.54,2.09,2.09,0,0,1-1.59.69H976a4.21,4.21,0,0,1-1.9-.43,3.11,3.11,0,0,1-1.37-1.48A8.1,8.1,0,0,0,969,912a14.39,14.39,0,0,0-8.09-2.06,15.24,15.24,0,0,0-8.2,1.9,6.41,6.41,0,0,0-3,5.82,6.26,6.26,0,0,0,1.53,4.28A12.56,12.56,0,0,0,956.4,925q3.66,1.32,9.68,2.91a72.52,72.52,0,0,1,15.13,4.54,19.62,19.62,0,0,1,8.56,6.83,18.69,18.69,0,0,1,2.75,10.52,19.15,19.15,0,0,1-4,12.16,24.94,24.94,0,0,1-10.9,7.78A44.25,44.25,0,0,1,961.53,972.45Z" transform="translate(0 -420)"/><path class="cls-2" d="M1033.24,972.45q-9.93,0-16.87-3.34a24.53,24.53,0,0,1-10.73-9.73,33,33,0,0,1-4.23-15.6q-.1-4.34-.11-9.31t.11-9.51a32.5,32.5,0,0,1,4.28-15.5,25.1,25.1,0,0,1,10.84-9.78,38,38,0,0,1,16.71-3.39,43.55,43.55,0,0,1,12.91,1.8,30.37,30.37,0,0,1,10,5.18,23.54,23.54,0,0,1,9.09,18.09,2.09,2.09,0,0,1-.69,1.59,2.34,2.34,0,0,1-1.64.63h-12a3,3,0,0,1-2-.63,4.33,4.33,0,0,1-1.17-2.12c-1-4.16-2.82-7-5.28-8.57a17,17,0,0,0-9.21-2.32q-6.56,0-10.36,3.59t-4.13,12q-.32,8.68,0,17.77.33,8.36,4.13,12t10.36,3.59a16.93,16.93,0,0,0,9.26-2.38q3.75-2.38,5.23-8.51a4,4,0,0,1,1.17-2.17,3.14,3.14,0,0,1,2-.58h12a2.34,2.34,0,0,1,1.64.63,2.06,2.06,0,0,1,.69,1.59,23.5,23.5,0,0,1-9.09,18.08,30.2,30.2,0,0,1-10,5.19A43.55,43.55,0,0,1,1033.24,972.45Z" transform="translate(0 -420)"/><path class="cls-2" d="M1071.85,971.39a2.08,2.08,0,0,1-1.59-.69,2.22,2.22,0,0,1-.63-1.53,4,4,0,0,1,.1-1l25.18-68a4,4,0,0,1,1.27-2,3.79,3.79,0,0,1,2.64-.85h13.54a3.79,3.79,0,0,1,2.64.85,4,4,0,0,1,1.27,2l25.18,68a4.64,4.64,0,0,1,.1,1,2.22,2.22,0,0,1-.63,1.53,2.09,2.09,0,0,1-1.59.69h-11a3.21,3.21,0,0,1-2.33-.74,3.68,3.68,0,0,1-1-1.38l-4.55-11.84h-29.82l-4.55,11.84a3.68,3.68,0,0,1-1,1.38,3.21,3.21,0,0,1-2.33.74Zm22.74-27.61h21.89l-10.89-30.46Z" transform="translate(0 -420)"/><path class="cls-2" d="M1153.29,971.39a2.54,2.54,0,0,1-2.64-2.65V900a2.53,2.53,0,0,1,2.64-2.64h28.88A38.27,38.27,0,0,1,1197,900a21.5,21.5,0,0,1,9.83,8,23.53,23.53,0,0,1,3.55,13.27q0,8-3.55,13.28a21,21,0,0,1-9.83,7.77,39.67,39.67,0,0,1-14.86,2.54H1168v23.9a2.55,2.55,0,0,1-.74,1.91,2.59,2.59,0,0,1-1.9.74Zm14.39-39.67h14c3.59,0,6.4-.88,8.41-2.64s3-4.41,3-7.93a10.89,10.89,0,0,0-2.7-7.62q-2.68-3-8.72-3h-14Z" transform="translate(0 -420)"/><path class="cls-2" d="M1223.84,971.39a2.54,2.54,0,0,1-2.65-2.65V900a2.54,2.54,0,0,1,2.65-2.64h47.91a2.53,2.53,0,0,1,2.64,2.64v8.47a2.41,2.41,0,0,1-.74,1.79,2.53,2.53,0,0,1-1.9.74h-34.27V927.6h31.94a2.54,2.54,0,0,1,2.65,2.64v7.83a2.45,2.45,0,0,1-.74,1.8,2.61,2.61,0,0,1-1.91.74h-31.94v17.13h35.12a2.54,2.54,0,0,1,2.64,2.65v8.35a2.54,2.54,0,0,1-2.64,2.65Z" transform="translate(0 -420)"/><path class="cls-3" d="M759.2,1134.42h-5v-31.7c0-1.2,0-2.24,0-3.1s0-1.67.06-2.39.07-1.46.14-2.22c-.64.65-1.23,1.21-1.78,1.67l-2,1.7-5.11,4.1-2.66-3.46,12.12-9.33h4.22Z" transform="translate(0 -420)"/><path class="cls-3" d="M805.5,1108.75a54.22,54.22,0,0,1-.57,7.93,30.89,30.89,0,0,1-1.93,7.19,19,19,0,0,1-3.68,5.84,15.89,15.89,0,0,1-5.83,3.93,22.2,22.2,0,0,1-8.37,1.43c-.88,0-1.88-.06-3-.17a15.24,15.24,0,0,1-2.75-.48V1130a15.58,15.58,0,0,0,2.66.63,20.62,20.62,0,0,0,3,.23c3.81,0,6.81-.83,9-2.47a13.55,13.55,0,0,0,4.72-6.7,33.41,33.41,0,0,0,1.62-9.53H800a11.44,11.44,0,0,1-2.4,2.71,11.74,11.74,0,0,1-3.6,2,14.72,14.72,0,0,1-4.92.74,13.84,13.84,0,0,1-6.78-1.59,11,11,0,0,1-4.5-4.62,15.42,15.42,0,0,1-1.61-7.31,17.14,17.14,0,0,1,1.76-8,12.58,12.58,0,0,1,4.94-5.22,14.81,14.81,0,0,1,7.5-1.84,14.42,14.42,0,0,1,6.06,1.26,13.06,13.06,0,0,1,4.79,3.75,17.64,17.64,0,0,1,3.15,6.16A29.27,29.27,0,0,1,805.5,1108.75Zm-15.12-15.39a8.68,8.68,0,0,0-6.59,2.66q-2.53,2.67-2.53,8a10.52,10.52,0,0,0,2.18,7c1.44,1.71,3.68,2.57,6.7,2.57a11,11,0,0,0,5.4-1.26,9.56,9.56,0,0,0,3.52-3.18,7.28,7.28,0,0,0,1.24-4,14.74,14.74,0,0,0-.6-4.1,13,13,0,0,0-1.82-3.84,9.8,9.8,0,0,0-3.09-2.85A8.66,8.66,0,0,0,790.38,1093.36Z" transform="translate(0 -420)"/><path class="cls-3" d="M841.27,1134.42H812v-4.25l12-12.15c2.22-2.24,4.1-4.24,5.62-6a23.1,23.1,0,0,0,3.47-5.18,13.23,13.23,0,0,0,1.19-5.62,7.37,7.37,0,0,0-2.25-5.8,8.59,8.59,0,0,0-5.92-2,14,14,0,0,0-5.69,1.1,25.27,25.27,0,0,0-5.08,3.12l-2.72-3.43a24.75,24.75,0,0,1,3.87-2.66,20.81,20.81,0,0,1,4.5-1.83A18.85,18.85,0,0,1,826,1089a16.31,16.31,0,0,1,7.13,1.44,10.79,10.79,0,0,1,4.64,4.1,11.89,11.89,0,0,1,1.63,6.34,15.49,15.49,0,0,1-1.4,6.59,26.76,26.76,0,0,1-3.95,6q-2.54,3-5.94,6.32l-9.73,9.7v.21h22.86Z" transform="translate(0 -420)"/><path class="cls-3" d="M877.35,1112a51.81,51.81,0,0,1-.83,9.74,22.16,22.16,0,0,1-2.6,7.25,12,12,0,0,1-4.59,4.51,13.84,13.84,0,0,1-6.76,1.55,12.42,12.42,0,0,1-8.25-2.73,16.21,16.21,0,0,1-4.86-7.88,42.13,42.13,0,0,1-1.61-12.44,45.74,45.74,0,0,1,1.45-12.31,15.73,15.73,0,0,1,4.7-7.93,12.78,12.78,0,0,1,8.57-2.77,12.54,12.54,0,0,1,8.32,2.74,16.17,16.17,0,0,1,4.87,7.9A42.25,42.25,0,0,1,877.35,1112ZM853,1112a48,48,0,0,0,.95,10.41,12.37,12.37,0,0,0,3.07,6.23,8.62,8.62,0,0,0,11.17,0,12.35,12.35,0,0,0,3.1-6.21,56.72,56.72,0,0,0,0-20.73,12.52,12.52,0,0,0-3.06-6.25,8.63,8.63,0,0,0-11.26,0,12.52,12.52,0,0,0-3.05,6.25A47.93,47.93,0,0,0,853,1112Z" transform="translate(0 -420)"/><path class="cls-3" d="M932.8,1134.42h-5.91l-12.09-19.7-12.27,19.7H897l14.9-23.31L898,1089.69h5.78L915,1107.53l11.23-17.84h5.51L917.9,1111Z" transform="translate(0 -420)"/><path class="cls-3" d="M971.29,1134.42h-4.95v-31.7c0-1.2,0-2.24,0-3.1s0-1.67.06-2.39.08-1.46.14-2.22a23.63,23.63,0,0,1-1.77,1.67l-2,1.7-5.11,4.1L955,1099l12.12-9.33h4.22Z" transform="translate(0 -420)"/><path class="cls-3" d="M1017.78,1112a51.81,51.81,0,0,1-.83,9.74,22.39,22.39,0,0,1-2.6,7.25,12,12,0,0,1-4.59,4.51A13.87,13.87,0,0,1,1003,1135a12.4,12.4,0,0,1-8.25-2.73,16.3,16.3,0,0,1-4.87-7.88,42.15,42.15,0,0,1-1.6-12.44,45.74,45.74,0,0,1,1.45-12.31,15.73,15.73,0,0,1,4.7-7.93A12.78,12.78,0,0,1,1003,1089a12.56,12.56,0,0,1,8.32,2.74,16.31,16.31,0,0,1,4.87,7.9A42.25,42.25,0,0,1,1017.78,1112Zm-24.39,0a47.41,47.41,0,0,0,1,10.41,12.29,12.29,0,0,0,3.07,6.23,8.62,8.62,0,0,0,11.17,0,12.27,12.27,0,0,0,3.09-6.21,56.44,56.44,0,0,0,0-20.73,12.61,12.61,0,0,0-3.06-6.25,8.63,8.63,0,0,0-11.26,0,12.44,12.44,0,0,0-3,6.25A47.93,47.93,0,0,0,993.39,1112Z" transform="translate(0 -420)"/><path class="cls-3" d="M1038.83,1089a18.06,18.06,0,0,1,6.89,1.23,10.46,10.46,0,0,1,4.69,3.59,9.71,9.71,0,0,1,1.7,5.83,9.29,9.29,0,0,1-1.18,4.76,12,12,0,0,1-3.16,3.55,27.49,27.49,0,0,1-4.41,2.71,31.44,31.44,0,0,1,5.19,3,13,13,0,0,1,3.65,3.88,10.06,10.06,0,0,1,1.35,5.3,11.48,11.48,0,0,1-1.82,6.5,11.63,11.63,0,0,1-5.1,4.21A18.59,18.59,0,0,1,1039,1135a20.39,20.39,0,0,1-8.06-1.43,10.86,10.86,0,0,1-5.05-4.1,11.62,11.62,0,0,1-1.73-6.44,10.53,10.53,0,0,1,1.32-5.37,13.06,13.06,0,0,1,3.49-3.93,23.53,23.53,0,0,1,4.74-2.79,24.71,24.71,0,0,1-4.09-2.78,11.87,11.87,0,0,1-2.93-3.66,10.36,10.36,0,0,1-1.09-4.88,9.56,9.56,0,0,1,1.73-5.77,10.79,10.79,0,0,1,4.74-3.61A17.89,17.89,0,0,1,1038.83,1089Zm-9.73,34.06a7.34,7.34,0,0,0,2.42,5.65q2.42,2.22,7.31,2.22,4.65,0,7.19-2.22a7.38,7.38,0,0,0,2.54-5.83,6.81,6.81,0,0,0-1.16-3.93,11,11,0,0,0-3.31-3,28.3,28.3,0,0,0-5-2.45l-1.1-.39a23.54,23.54,0,0,0-4.79,2.58,10.51,10.51,0,0,0-3,3.23A8.27,8.27,0,0,0,1029.1,1123.1Zm9.67-29.89a9.57,9.57,0,0,0-5.91,1.72,5.87,5.87,0,0,0-2.29,5,6.67,6.67,0,0,0,1.12,3.93,9.56,9.56,0,0,0,3,2.75,32,32,0,0,0,4.31,2.13,25.43,25.43,0,0,0,4.14-2.16,9.37,9.37,0,0,0,2.84-2.8,7,7,0,0,0,1-3.88,5.82,5.82,0,0,0-2.28-5A9.76,9.76,0,0,0,1038.77,1093.21Z" transform="translate(0 -420)"/><path class="cls-3" d="M1089.45,1112a51.81,51.81,0,0,1-.83,9.74,22.39,22.39,0,0,1-2.6,7.25,12.17,12.17,0,0,1-4.59,4.51,13.87,13.87,0,0,1-6.76,1.55,12.4,12.4,0,0,1-8.25-2.73,16.23,16.23,0,0,1-4.87-7.88A42.15,42.15,0,0,1,1060,1112a45.74,45.74,0,0,1,1.45-12.31,15.66,15.66,0,0,1,4.7-7.93,12.78,12.78,0,0,1,8.57-2.77,12.56,12.56,0,0,1,8.32,2.74,16.23,16.23,0,0,1,4.86,7.9A42.22,42.22,0,0,1,1089.45,1112Zm-24.39,0a48.1,48.1,0,0,0,.94,10.41,12.38,12.38,0,0,0,3.08,6.23,8.62,8.62,0,0,0,11.17,0,12.27,12.27,0,0,0,3.09-6.21,57,57,0,0,0,0-20.73,12.69,12.69,0,0,0-3.06-6.25,8.64,8.64,0,0,0-11.27,0,12.51,12.51,0,0,0-3,6.25A47.93,47.93,0,0,0,1065.06,1112Z" transform="translate(0 -420)"/><path class="cls-3" d="M1126.72,1089.69q8.65,0,12.65,3.38t4,9.68a15.64,15.64,0,0,1-.93,5.4,11.45,11.45,0,0,1-3,4.5,14.46,14.46,0,0,1-5.47,3.06,26.41,26.41,0,0,1-8.27,1.12h-5.45v17.59H1115v-44.73Zm-.49,4.43h-6v18.24h4.86a23.48,23.48,0,0,0,7.15-.92,8,8,0,0,0,4.3-3A9.44,9.44,0,0,0,1138,1103q0-4.47-2.85-6.66T1126.23,1094.12Z" transform="translate(0 -420)"/><path class="cls-3" d="M1182.59,1134.42h-5.9l-12.09-19.7-12.27,19.7h-5.54l14.9-23.31-13.86-21.42h5.79l11.16,17.84,11.23-17.84h5.51L1167.69,1111Z" transform="translate(0 -420)"/><text class="cls-4" transform="translate(851.46 424.46)">XVIID</text></g></svg>