<svg id="Layer_1" data-name="Layer 1" xmlns="http://www.w3.org/2000/svg" viewBox="0 0 970 90"><defs><style>.cls-1{fill:#fafafa;}.cls-2{fill:#0c91f0;}.cls-3,.cls-4{fill:#7a7a7a;}.cls-4{font-size:34.14px;font-family:KeaniaOne-Regular, Keania One;}</style></defs><g id="large-leaderboard"><rect id="_728_x_90" data-name="728 x 90" class="cls-1" x="915" y="475" width="90" height="970" transform="translate(1445 -915) rotate(90)"/><path class="cls-2" d="M908.33,955.71a.48.48,0,0,1-.35-.13.45.45,0,0,1-.13-.34V942.86a.45.45,0,0,1,.13-.34.48.48,0,0,1,.35-.13h2.11a.45.45,0,0,1,.34.13.46.46,0,0,1,.14.34v10.3h5.9a.46.46,0,0,1,.34.14.44.44,0,0,1,.13.34v1.6a.45.45,0,0,1-.47.47Z" transform="translate(-475 -915)"/><path class="cls-2" d="M918.26,955.71a.36.36,0,0,1-.28-.12.38.38,0,0,1-.12-.28.88.88,0,0,1,0-.17l4.53-12.24a.77.77,0,0,1,.23-.36.71.71,0,0,1,.48-.15h2.43a.69.69,0,0,1,.48.15.7.7,0,0,1,.23.36l4.53,12.24a.88.88,0,0,1,0,.17.41.41,0,0,1-.11.28.4.4,0,0,1-.29.12h-2a.57.57,0,0,1-.42-.13.69.69,0,0,1-.17-.25L927,953.2h-5.37l-.82,2.13a.58.58,0,0,1-.17.25.57.57,0,0,1-.42.13Zm4.1-5h3.94l-2-5.48Z" transform="translate(-475 -915)"/><path class="cls-2" d="M932.92,955.71a.45.45,0,0,1-.47-.47V942.86a.45.45,0,0,1,.47-.47H938a5.87,5.87,0,0,1,3.75,1.09,3.81,3.81,0,0,1,1.37,3.15,3.89,3.89,0,0,1-.67,2.33,3.93,3.93,0,0,1-1.79,1.38l2.69,4.76a.63.63,0,0,1,0,.21.41.41,0,0,1-.11.28.38.38,0,0,1-.29.12h-2.11a.66.66,0,0,1-.51-.18,1.3,1.3,0,0,1-.25-.33l-2.32-4.36h-2.31v4.4a.45.45,0,0,1-.47.47Zm2.55-7.29h2.44a2.23,2.23,0,0,0,1.55-.47,1.76,1.76,0,0,0,.51-1.34,1.83,1.83,0,0,0-.5-1.35,2.13,2.13,0,0,0-1.56-.49h-2.44Z" transform="translate(-475 -915)"/><path class="cls-2" d="M950.72,955.9a7.06,7.06,0,0,1-3.05-.6,4.4,4.4,0,0,1-2-1.75,5.61,5.61,0,0,1-.76-2.79c0-.54,0-1.13,0-1.75s0-1.21,0-1.77a5.42,5.42,0,0,1,.76-2.72,4.45,4.45,0,0,1,2-1.72,7.06,7.06,0,0,1,3-.6,7.76,7.76,0,0,1,2.48.36,5.83,5.83,0,0,1,1.79.94,4.32,4.32,0,0,1,1.1,1.27,2.87,2.87,0,0,1,.4,1.31.48.48,0,0,1-.11.3.41.41,0,0,1-.31.12h-2.36a.48.48,0,0,1-.29-.08.54.54,0,0,1-.18-.23,2.77,2.77,0,0,0-.43-.69,2.61,2.61,0,0,0-.79-.6,3,3,0,0,0-1.3-.25,2.7,2.7,0,0,0-1.89.63,2.77,2.77,0,0,0-.75,2.06q-.06,1.63,0,3.33a2.86,2.86,0,0,0,.77,2.13,2.73,2.73,0,0,0,1.91.65,3.3,3.3,0,0,0,1.4-.28,2.15,2.15,0,0,0,1-.86,2.89,2.89,0,0,0,.36-1.51v-.47h-2.07a.43.43,0,0,1-.33-.15.44.44,0,0,1-.13-.33v-1.22a.45.45,0,0,1,.13-.34.44.44,0,0,1,.33-.13h4.66a.45.45,0,0,1,.34.13.46.46,0,0,1,.14.34v2.08a5.17,5.17,0,0,1-.72,2.79,4.61,4.61,0,0,1-2,1.79A7.33,7.33,0,0,1,950.72,955.9Z" transform="translate(-475 -915)"/><path class="cls-2" d="M959.36,955.71a.45.45,0,0,1-.47-.47V942.86a.45.45,0,0,1,.47-.47H968a.45.45,0,0,1,.47.47v1.53a.44.44,0,0,1-.13.32.45.45,0,0,1-.34.13h-6.17v3h5.75a.46.46,0,0,1,.34.14.44.44,0,0,1,.13.34v1.41a.44.44,0,0,1-.13.32.45.45,0,0,1-.34.13h-5.75v3.09h6.32a.45.45,0,0,1,.34.13.46.46,0,0,1,.14.34v1.51a.46.46,0,0,1-.14.34.45.45,0,0,1-.34.13Z" transform="translate(-475 -915)"/><path class="cls-2" d="M975.56,955.71a.45.45,0,0,1-.47-.47V942.86a.45.45,0,0,1,.47-.47h2.12a.45.45,0,0,1,.47.47v10.3h5.9a.48.48,0,0,1,.35.14.44.44,0,0,1,.13.34v1.6a.45.45,0,0,1-.13.34.48.48,0,0,1-.35.13Z" transform="translate(-475 -915)"/><path class="cls-2" d="M986.76,955.71a.44.44,0,0,1-.34-.13.46.46,0,0,1-.14-.34V942.86a.46.46,0,0,1,.14-.34.44.44,0,0,1,.34-.13h8.62a.48.48,0,0,1,.35.13.49.49,0,0,1,.13.34v1.53a.48.48,0,0,1-.13.32.48.48,0,0,1-.35.13h-6.17v3H995a.48.48,0,0,1,.35.14.48.48,0,0,1,.13.34v1.41a.48.48,0,0,1-.13.32.48.48,0,0,1-.35.13h-5.75v3.09h6.33a.47.47,0,0,1,.34.13.45.45,0,0,1,.13.34v1.51a.45.45,0,0,1-.13.34.47.47,0,0,1-.34.13Z" transform="translate(-475 -915)"/><path class="cls-2" d="M997.5,955.71a.38.38,0,0,1-.29-.12.37.37,0,0,1-.11-.28.91.91,0,0,1,0-.17l4.54-12.24a.68.68,0,0,1,.22-.36.73.73,0,0,1,.48-.15h2.44a.68.68,0,0,1,.47.15.7.7,0,0,1,.23.36l4.53,12.24a.88.88,0,0,1,0,.17.41.41,0,0,1-.11.28.4.4,0,0,1-.29.12h-2a.57.57,0,0,1-.42-.13.69.69,0,0,1-.17-.25l-.82-2.13h-5.37l-.81,2.13a.74.74,0,0,1-.18.25.55.55,0,0,1-.41.13Zm4.09-5h3.94l-2-5.48Z" transform="translate(-475 -915)"/><path class="cls-2" d="M1012.15,955.71a.45.45,0,0,1-.47-.47V942.86a.45.45,0,0,1,.47-.47h4.78a7.46,7.46,0,0,1,3.18.6,4.32,4.32,0,0,1,1.95,1.75,5.87,5.87,0,0,1,.72,2.84c0,.56,0,1,0,1.47s0,.9,0,1.45a6.46,6.46,0,0,1-.71,2.93,3.94,3.94,0,0,1-1.9,1.72,7.64,7.64,0,0,1-3.14.56Zm2.55-2.45h2.23a3.65,3.65,0,0,0,1.56-.29,1.85,1.85,0,0,0,.91-.9,4,4,0,0,0,.31-1.61q0-.56,0-1c0-.29,0-.58,0-.88s0-.61,0-1a2.92,2.92,0,0,0-.73-2.1,3,3,0,0,0-2.14-.68h-2.14Z" transform="translate(-475 -915)"/><path class="cls-2" d="M1025.65,955.71a.45.45,0,0,1-.47-.47V942.86a.45.45,0,0,1,.47-.47h8.63a.45.45,0,0,1,.47.47v1.53a.44.44,0,0,1-.13.32.45.45,0,0,1-.34.13h-6.17v3h5.75a.46.46,0,0,1,.34.14.44.44,0,0,1,.13.34v1.41a.44.44,0,0,1-.13.32.45.45,0,0,1-.34.13h-5.75v3.09h6.32a.45.45,0,0,1,.47.47v1.51a.45.45,0,0,1-.47.47Z" transform="translate(-475 -915)"/><path class="cls-2" d="M1037.64,955.71a.45.45,0,0,1-.47-.47V942.86a.45.45,0,0,1,.47-.47h5a5.83,5.83,0,0,1,3.75,1.09,3.81,3.81,0,0,1,1.37,3.15,3.89,3.89,0,0,1-.67,2.33,3.93,3.93,0,0,1-1.79,1.38l2.69,4.76a.48.48,0,0,1,.06.21.38.38,0,0,1-.12.28.36.36,0,0,1-.28.12h-2.12a.66.66,0,0,1-.51-.18,1.59,1.59,0,0,1-.25-.33l-2.32-4.36h-2.3v4.4a.46.46,0,0,1-.14.34.45.45,0,0,1-.34.13Zm2.56-7.29h2.43a2.21,2.21,0,0,0,1.55-.47,1.76,1.76,0,0,0,.51-1.34,1.83,1.83,0,0,0-.5-1.35,2.13,2.13,0,0,0-1.56-.49h-2.43Z" transform="translate(-475 -915)"/><path class="cls-2" d="M1050.63,955.71a.48.48,0,0,1-.35-.13.49.49,0,0,1-.13-.34V942.86a.49.49,0,0,1,.13-.34.48.48,0,0,1,.35-.13h5.65a6.4,6.4,0,0,1,2.59.45,3.19,3.19,0,0,1,1.49,1.3,3.78,3.78,0,0,1,.49,2,2.81,2.81,0,0,1-.89,2.11,3.12,3.12,0,0,1-.71.52,3.23,3.23,0,0,1,1.3,1.13,3.12,3.12,0,0,1,.57,1.87,4,4,0,0,1-.54,2.1,3.48,3.48,0,0,1-1.58,1.39,5.92,5.92,0,0,1-2.55.49Zm2.55-7.94h2.74a1.81,1.81,0,0,0,1.34-.44,1.55,1.55,0,0,0,.45-1.15,1.51,1.51,0,0,0-.45-1.14,1.89,1.89,0,0,0-1.34-.43h-2.74Zm0,5.72h2.91a1.82,1.82,0,0,0,1.41-.53,1.77,1.77,0,0,0,.48-1.24,1.75,1.75,0,0,0-.49-1.25,1.84,1.84,0,0,0-1.4-.51h-2.91Z" transform="translate(-475 -915)"/><path class="cls-2" d="M1068.67,955.9a7.22,7.22,0,0,1-3-.57,4.37,4.37,0,0,1-2-1.72,5.89,5.89,0,0,1-.76-2.9c0-.55,0-1.09,0-1.63s0-1.09,0-1.65a5.9,5.9,0,0,1,.77-2.88,4.51,4.51,0,0,1,2-1.76,7.7,7.7,0,0,1,5.91,0,4.51,4.51,0,0,1,2,1.76,5.6,5.6,0,0,1,.77,2.88q0,.84,0,1.65c0,.54,0,1.08,0,1.63a5.89,5.89,0,0,1-.77,2.9,4.32,4.32,0,0,1-2,1.72A7.09,7.09,0,0,1,1068.67,955.9Zm0-2.45a2.53,2.53,0,0,0,1.82-.68,2.93,2.93,0,0,0,.75-2.16c0-.56,0-1.08,0-1.57s0-1,0-1.55a3.47,3.47,0,0,0-.36-1.62,2.22,2.22,0,0,0-.9-.92,2.75,2.75,0,0,0-1.31-.3,2.78,2.78,0,0,0-1.31.3,2.11,2.11,0,0,0-.9.92,3.72,3.72,0,0,0-.38,1.62c0,.55,0,1.06,0,1.55s0,1,0,1.57a3.06,3.06,0,0,0,.77,2.16A2.52,2.52,0,0,0,1068.67,953.45Z" transform="translate(-475 -915)"/><path class="cls-2" d="M1075.7,955.71a.38.38,0,0,1-.29-.12.41.41,0,0,1-.11-.28.47.47,0,0,1,0-.17l4.53-12.24a.7.7,0,0,1,.23-.36.68.68,0,0,1,.47-.15H1083a.73.73,0,0,1,.48.15.68.68,0,0,1,.22.36l4.53,12.24a.47.47,0,0,1,0,.17.37.37,0,0,1-.11.28.38.38,0,0,1-.29.12h-2a.53.53,0,0,1-.41-.13.74.74,0,0,1-.18-.25l-.81-2.13h-5.37l-.82,2.13a.69.69,0,0,1-.17.25.57.57,0,0,1-.42.13Zm4.09-5h3.94l-2-5.48Z" transform="translate(-475 -915)"/><path class="cls-2" d="M1090.36,955.71a.48.48,0,0,1-.35-.13.49.49,0,0,1-.13-.34V942.86a.49.49,0,0,1,.13-.34.48.48,0,0,1,.35-.13h5a5.83,5.83,0,0,1,3.75,1.09,3.78,3.78,0,0,1,1.37,3.15,3.73,3.73,0,0,1-2.45,3.71l2.68,4.76a.48.48,0,0,1,.06.21.38.38,0,0,1-.12.28.36.36,0,0,1-.28.12h-2.11a.7.7,0,0,1-.52-.18,1.59,1.59,0,0,1-.25-.33l-2.32-4.36h-2.3v4.4a.49.49,0,0,1-.13.34.48.48,0,0,1-.35.13Zm2.55-7.29h2.43a2.26,2.26,0,0,0,1.56-.47,1.79,1.79,0,0,0,.5-1.34,1.82,1.82,0,0,0-.49-1.35,2.14,2.14,0,0,0-1.57-.49h-2.43Z" transform="translate(-475 -915)"/><path class="cls-2" d="M1103.34,955.71a.45.45,0,0,1-.47-.47V942.86a.45.45,0,0,1,.47-.47h4.78a7.46,7.46,0,0,1,3.18.6,4.32,4.32,0,0,1,2,1.75,5.76,5.76,0,0,1,.71,2.84c0,.56,0,1,0,1.47s0,.9,0,1.45a6.33,6.33,0,0,1-.7,2.93,4,4,0,0,1-1.9,1.72,7.66,7.66,0,0,1-3.15.56Zm2.55-2.45h2.23a3.71,3.71,0,0,0,1.56-.29,1.79,1.79,0,0,0,.9-.9,3.83,3.83,0,0,0,.32-1.61q0-.56,0-1v-.88c0-.29,0-.61,0-1a3,3,0,0,0-.73-2.1,3,3,0,0,0-2.15-.68h-2.13Z" transform="translate(-475 -915)"/><path class="cls-3" d="M912.29,972.78a9.63,9.63,0,0,1-.11,1.43,5.32,5.32,0,0,1-.34,1.29,3.56,3.56,0,0,1-.67,1,2.91,2.91,0,0,1-1,.71,4,4,0,0,1-1.5.26l-.54,0a2.66,2.66,0,0,1-.5-.09v-.79a2.84,2.84,0,0,0,.48.11,3.27,3.27,0,0,0,.54,0,2.66,2.66,0,0,0,1.62-.44,2.48,2.48,0,0,0,.85-1.21,6,6,0,0,0,.29-1.71h-.07a1.93,1.93,0,0,1-.43.48,2,2,0,0,1-.65.36,2.58,2.58,0,0,1-.88.14,2.47,2.47,0,0,1-1.22-.29,2,2,0,0,1-.81-.83,2.71,2.71,0,0,1-.29-1.32,3,3,0,0,1,.32-1.44,2.28,2.28,0,0,1,.88-.94,2.7,2.7,0,0,1,1.35-.33,2.59,2.59,0,0,1,1.09.23,2.35,2.35,0,0,1,.87.67,3.22,3.22,0,0,1,.56,1.11A5.12,5.12,0,0,1,912.29,972.78ZM909.56,970a1.55,1.55,0,0,0-1.18.48,2,2,0,0,0-.46,1.44,1.9,1.9,0,0,0,.39,1.26,1.5,1.5,0,0,0,1.21.47,2,2,0,0,0,1-.23,1.7,1.7,0,0,0,.64-.57,1.4,1.4,0,0,0,.22-.71,2.71,2.71,0,0,0-.11-.74,2.2,2.2,0,0,0-.33-.69,1.71,1.71,0,0,0-.55-.52A1.58,1.58,0,0,0,909.56,970Z" transform="translate(-475 -915)"/><path class="cls-3" d="M914.49,977.4l3.3-7.21H913.4v-.84h5.37v.7l-3.28,7.35Z" transform="translate(-475 -915)"/><path class="cls-3" d="M925.22,973.36a9.13,9.13,0,0,1-.15,1.75,4.11,4.11,0,0,1-.47,1.31,2.08,2.08,0,0,1-.83.81,2.41,2.41,0,0,1-1.21.28,2.23,2.23,0,0,1-1.49-.49,2.92,2.92,0,0,1-.87-1.42,7.34,7.34,0,0,1-.29-2.24,8.32,8.32,0,0,1,.26-2.21,2.79,2.79,0,0,1,.85-1.43,2.28,2.28,0,0,1,1.54-.5,2.33,2.33,0,0,1,1.5.49,3,3,0,0,1,.87,1.42A7.69,7.69,0,0,1,925.22,973.36Zm-4.39,0a8.32,8.32,0,0,0,.17,1.88,2.22,2.22,0,0,0,.55,1.12,1.43,1.43,0,0,0,1,.37,1.36,1.36,0,0,0,1-.37,2.23,2.23,0,0,0,.56-1.12,8.87,8.87,0,0,0,.17-1.88,8.09,8.09,0,0,0-.17-1.85,2.22,2.22,0,0,0-.55-1.12,1.33,1.33,0,0,0-1-.38,1.37,1.37,0,0,0-1,.38,2.22,2.22,0,0,0-.54,1.12A8.09,8.09,0,0,0,920.83,973.36Z" transform="translate(-475 -915)"/><path class="cls-3" d="M935.2,977.4h-1.07L932,973.85l-2.21,3.55h-1l2.69-4.2-2.5-3.85h1l2,3.21,2-3.21h1l-2.48,3.84Z" transform="translate(-475 -915)"/><path class="cls-3" d="M944,972.78a9.63,9.63,0,0,1-.1,1.43,5.33,5.33,0,0,1-.35,1.29,3.34,3.34,0,0,1-.66,1,2.91,2.91,0,0,1-1,.71,4,4,0,0,1-1.51.26l-.54,0a2.54,2.54,0,0,1-.49-.09v-.79a2.45,2.45,0,0,0,.48.11,3.27,3.27,0,0,0,.54,0,2.71,2.71,0,0,0,1.62-.44,2.46,2.46,0,0,0,.84-1.21,6,6,0,0,0,.3-1.71H943a2.08,2.08,0,0,1-1.08.84,2.64,2.64,0,0,1-.89.14,2.53,2.53,0,0,1-1.22-.29,2.09,2.09,0,0,1-.81-.83,2.83,2.83,0,0,1-.29-1.32,3.12,3.12,0,0,1,.32-1.44,2.31,2.31,0,0,1,.89-.94,2.65,2.65,0,0,1,1.35-.33,2.59,2.59,0,0,1,1.09.23,2.31,2.31,0,0,1,.86.67,3.07,3.07,0,0,1,.57,1.11A5.48,5.48,0,0,1,944,972.78ZM941.29,970a1.57,1.57,0,0,0-1.19.48,2,2,0,0,0-.45,1.44,1.9,1.9,0,0,0,.39,1.26,1.49,1.49,0,0,0,1.21.47,2,2,0,0,0,1-.23,1.75,1.75,0,0,0,.63-.57,1.31,1.31,0,0,0,.22-.71,2.69,2.69,0,0,0-.1-.74,2.2,2.2,0,0,0-.33-.69,1.74,1.74,0,0,0-.56-.52A1.54,1.54,0,0,0,941.29,970Z" transform="translate(-475 -915)"/><path class="cls-3" d="M950.49,973.36a9.13,9.13,0,0,1-.15,1.75,3.88,3.88,0,0,1-.46,1.31,2.15,2.15,0,0,1-.83.81,2.45,2.45,0,0,1-1.22.28,2.2,2.2,0,0,1-1.48-.49,3,3,0,0,1-.88-1.42,7.66,7.66,0,0,1-.29-2.24,7.9,7.9,0,0,1,.27-2.21,2.78,2.78,0,0,1,.84-1.43,2.58,2.58,0,0,1,3,0,3,3,0,0,1,.88,1.42A7.71,7.71,0,0,1,950.49,973.36Zm-4.39,0a8.94,8.94,0,0,0,.17,1.88,2.23,2.23,0,0,0,.56,1.12,1.4,1.4,0,0,0,1,.37,1.38,1.38,0,0,0,1-.37,2.22,2.22,0,0,0,.55-1.12,8.19,8.19,0,0,0,.18-1.88,8.7,8.7,0,0,0-.17-1.85,2.31,2.31,0,0,0-.55-1.12,1.37,1.37,0,0,0-1-.38,1.33,1.33,0,0,0-1,.38,2.22,2.22,0,0,0-.55,1.12A8.7,8.7,0,0,0,946.1,973.36Z" transform="translate(-475 -915)"/><path class="cls-3" d="M957.2,969.35a3.47,3.47,0,0,1,2.28.61,2.14,2.14,0,0,1,.72,1.74,2.83,2.83,0,0,1-.17,1,2,2,0,0,1-.54.81,2.61,2.61,0,0,1-1,.55,4.59,4.59,0,0,1-1.49.2h-1v3.17h-.93v-8Zm-.09.8H956v3.28h.88a4.34,4.34,0,0,0,1.29-.17,1.47,1.47,0,0,0,.77-.53,1.73,1.73,0,0,0,.26-1,1.41,1.41,0,0,0-.51-1.2A2.67,2.67,0,0,0,957.11,970.15Z" transform="translate(-475 -915)"/><path class="cls-3" d="M967.26,977.4H966.2L964,973.85l-2.21,3.55h-1l2.69-4.2-2.5-3.85h1l2,3.21,2-3.21h1l-2.49,3.84Z" transform="translate(-475 -915)"/><text class="cls-4" transform="translate(330.05 55.75)">XVIID</text></g></svg>