<svg id="Layer_1" data-name="Layer 1" xmlns="http://www.w3.org/2000/svg" viewBox="0 0 300 250"><defs><style>.cls-1{fill:#fafafa;}.cls-2{fill:#0c91f0;}.cls-3,.cls-4{fill:#7a7a7a;}.cls-4{font-size:11.64px;font-family:KeaniaOne-Regular, Keania One;}</style></defs><g id="medium-banner"><rect id="_300_x_250" data-name="300 x 250" class="cls-1" width="300" height="250"/><path class="cls-2" d="M903.05,961.5a.36.36,0,0,1-.24-.09.35.35,0,0,1-.11-.26v-9.07a.36.36,0,0,1,.35-.35h1.3a.42.42,0,0,1,.31.11l.15.17,2.57,4.73L910,952a.62.62,0,0,1,.13-.17.42.42,0,0,1,.31-.11h1.3a.34.34,0,0,1,.35.35v9.07a.34.34,0,0,1-.1.26.35.35,0,0,1-.25.09H910.3a.32.32,0,0,1-.24-.09.34.34,0,0,1-.1-.26v-5.64l-1.77,3.33a1.24,1.24,0,0,1-.18.22.49.49,0,0,1-.3.1h-.65a.49.49,0,0,1-.3-.1,1.24,1.24,0,0,1-.18-.22l-1.77-3.33v5.64a.34.34,0,0,1-.1.26.32.32,0,0,1-.24.09Z" transform="translate(-810 -835)"/><path class="cls-2" d="M914.49,961.5a.31.31,0,0,1-.35-.35v-9.07a.35.35,0,0,1,.09-.25.34.34,0,0,1,.26-.1h6.32a.34.34,0,0,1,.35.35v1.11a.3.3,0,0,1-.1.24.32.32,0,0,1-.25.1h-4.52v2.19h4.21a.34.34,0,0,1,.26.1.35.35,0,0,1,.09.25v1a.32.32,0,0,1-.09.24.34.34,0,0,1-.26.1h-4.21v2.26h4.63a.32.32,0,0,1,.25.1.33.33,0,0,1,.1.25v1.1a.34.34,0,0,1-.1.26.35.35,0,0,1-.25.09Z" transform="translate(-810 -835)"/><path class="cls-2" d="M923.28,961.5a.37.37,0,0,1-.25-.09.38.38,0,0,1-.1-.26v-9.07a.36.36,0,0,1,.1-.25.33.33,0,0,1,.25-.1h3.51a5.5,5.5,0,0,1,2.33.44,3.18,3.18,0,0,1,1.43,1.28,4.2,4.2,0,0,1,.52,2.09c0,.41,0,.77,0,1.08s0,.66,0,1.06a4.7,4.7,0,0,1-.51,2.15,2.87,2.87,0,0,1-1.4,1.26,5.54,5.54,0,0,1-2.3.41Zm1.87-1.8h1.64a2.7,2.7,0,0,0,1.14-.21,1.39,1.39,0,0,0,.67-.66,3,3,0,0,0,.23-1.18c0-.27,0-.51,0-.73v-.64c0-.21,0-.45,0-.71a2.15,2.15,0,0,0-.54-1.54,2.17,2.17,0,0,0-1.57-.5h-1.57Z" transform="translate(-810 -835)"/><path class="cls-2" d="M933.18,961.5a.37.37,0,0,1-.25-.09.38.38,0,0,1-.1-.26v-9.07a.36.36,0,0,1,.1-.25.33.33,0,0,1,.25-.1h1.58a.34.34,0,0,1,.35.35v9.07a.34.34,0,0,1-.1.26.35.35,0,0,1-.25.09Z" transform="translate(-810 -835)"/><path class="cls-2" d="M941.17,961.64a5.29,5.29,0,0,1-2.15-.41A3,3,0,0,1,937.6,960a4.23,4.23,0,0,1-.51-2.19v-5.69a.32.32,0,0,1,.1-.25.33.33,0,0,1,.25-.1H939a.34.34,0,0,1,.26.1.35.35,0,0,1,.09.25v5.68a2.17,2.17,0,0,0,.49,1.54,1.84,1.84,0,0,0,1.37.5,1.8,1.8,0,0,0,1.35-.5,2.13,2.13,0,0,0,.49-1.54v-5.68a.36.36,0,0,1,.35-.35h1.54a.33.33,0,0,1,.24.1.35.35,0,0,1,.09.25v5.69a4.23,4.23,0,0,1-.5,2.19,3,3,0,0,1-1.41,1.27A5.22,5.22,0,0,1,941.17,961.64Z" transform="translate(-810 -835)"/><path class="cls-2" d="M947.57,961.5a.37.37,0,0,1-.25-.09.34.34,0,0,1-.1-.26v-9.07a.32.32,0,0,1,.1-.25.33.33,0,0,1,.25-.1h1.29a.44.44,0,0,1,.32.11l.15.17,2.56,4.73,2.6-4.73a1,1,0,0,1,.13-.17.44.44,0,0,1,.32-.11h1.3a.33.33,0,0,1,.25.1.36.36,0,0,1,.1.25v9.07a.38.38,0,0,1-.1.26.37.37,0,0,1-.25.09h-1.43a.32.32,0,0,1-.23-.09.34.34,0,0,1-.1-.26v-5.64l-1.78,3.33a.73.73,0,0,1-.18.22.44.44,0,0,1-.29.1h-.66a.44.44,0,0,1-.29-.1,1.24,1.24,0,0,1-.18-.22l-1.77-3.33v5.64a.38.38,0,0,1-.1.26.36.36,0,0,1-.24.09Z" transform="translate(-810 -835)"/><path class="cls-2" d="M962.09,961.5a.33.33,0,0,1-.25-.09.34.34,0,0,1-.1-.26v-9.07a.32.32,0,0,1,.1-.25.3.3,0,0,1,.25-.1h4.14a4.66,4.66,0,0,1,1.9.33,2.35,2.35,0,0,1,1.1,1,2.8,2.8,0,0,1,.36,1.44,2.14,2.14,0,0,1-.19.91,2.24,2.24,0,0,1-.46.64.66.66,0,1,0,.43,1.21,2.34,2.34,0,0,1,.41,1.37,3,3,0,0,1-.39,1.54,2.58,2.58,0,0,1-1.16,1,4.36,4.36,0,0,1-1.87.36Zm1.87-5.82h2a1.32,1.32,0,0,0,1-.33,1.14,1.14,0,0,0,.33-.84,1.08,1.08,0,0,0-.33-.83,1.36,1.36,0,0,0-1-.32h-2Zm0,4.19h2.14a1.26,1.26,0,0,0,1.38-1.3,1.24,1.24,0,0,0-.36-.91,1.35,1.35,0,0,0-1-.37H964Z" transform="translate(-810 -835)"/><path class="cls-2" d="M970.73,961.5a.29.29,0,0,1-.21-.09.32.32,0,0,1-.08-.2.53.53,0,0,1,0-.13l3.33-9a.5.5,0,0,1,.16-.27.54.54,0,0,1,.35-.11h1.79a.54.54,0,0,1,.35.11.59.59,0,0,1,.17.27l3.32,9a.53.53,0,0,1,0,.13.27.27,0,0,1-.08.2.29.29,0,0,1-.21.09h-1.45a.46.46,0,0,1-.31-.09.64.64,0,0,1-.13-.19l-.6-1.56h-3.93l-.6,1.56a.5.5,0,0,1-.13.19.44.44,0,0,1-.31.09Zm3-3.64h2.89l-1.43-4Z" transform="translate(-810 -835)"/><path class="cls-2" d="M981.48,961.5a.37.37,0,0,1-.25-.09.38.38,0,0,1-.1-.26v-9.07a.36.36,0,0,1,.1-.25.33.33,0,0,1,.25-.1h1.27a.4.4,0,0,1,.31.1.52.52,0,0,1,.13.15l3.73,5.82v-5.72a.35.35,0,0,1,.09-.25.33.33,0,0,1,.24-.1h1.42a.34.34,0,0,1,.26.1.35.35,0,0,1,.09.25v9.07a.37.37,0,0,1-.09.25.34.34,0,0,1-.26.1h-1.28a.38.38,0,0,1-.3-.1l-.13-.15-3.72-5.64v5.54a.34.34,0,0,1-.1.26.33.33,0,0,1-.25.09Z" transform="translate(-810 -835)"/><path class="cls-2" d="M991.44,961.5a.35.35,0,0,1-.25-.09.34.34,0,0,1-.1-.26v-9.07a.34.34,0,0,1,.35-.35h1.27a.41.41,0,0,1,.31.1.64.64,0,0,1,.12.15l3.73,5.82v-5.72a.32.32,0,0,1,.1-.25.3.3,0,0,1,.24-.1h1.42a.34.34,0,0,1,.35.35v9.07a.33.33,0,0,1-.1.25.32.32,0,0,1-.25.1h-1.28a.38.38,0,0,1-.3-.1l-.14-.15-3.71-5.64v5.54a.34.34,0,0,1-.1.26.35.35,0,0,1-.25.09Z" transform="translate(-810 -835)"/><path class="cls-2" d="M1001.4,961.5a.31.31,0,0,1-.35-.35v-9.07a.35.35,0,0,1,.09-.25.34.34,0,0,1,.26-.1h6.32a.34.34,0,0,1,.35.35v1.11a.3.3,0,0,1-.1.24.32.32,0,0,1-.25.1h-4.52v2.19h4.21a.34.34,0,0,1,.26.1.35.35,0,0,1,.09.25v1a.32.32,0,0,1-.09.24.34.34,0,0,1-.26.1h-4.21v2.26h4.63a.32.32,0,0,1,.25.1.33.33,0,0,1,.1.25v1.1a.34.34,0,0,1-.1.26.35.35,0,0,1-.25.09Z" transform="translate(-810 -835)"/><path class="cls-2" d="M1010.19,961.5a.37.37,0,0,1-.25-.09.38.38,0,0,1-.1-.26v-9.07a.36.36,0,0,1,.1-.25.33.33,0,0,1,.25-.1h3.7a4.31,4.31,0,0,1,2.75.8,2.8,2.8,0,0,1,1,2.31,2.86,2.86,0,0,1-.49,1.71,3,3,0,0,1-1.31,1l2,3.49a.42.42,0,0,1,0,.15.32.32,0,0,1-.08.2.29.29,0,0,1-.21.09H1016a.49.49,0,0,1-.38-.13.83.83,0,0,1-.18-.24l-1.71-3.2h-1.69v3.22a.31.31,0,0,1-.35.35Zm1.87-5.34h1.79a1.64,1.64,0,0,0,1.14-.35,1.28,1.28,0,0,0,.37-1,1.34,1.34,0,0,0-.36-1,1.56,1.56,0,0,0-1.15-.37h-1.79Z" transform="translate(-810 -835)"/><path class="cls-3" d="M939.38,978.5a1.53,1.53,0,0,1-.16.69,1.21,1.21,0,0,1-.43.47,1.76,1.76,0,0,1-.64.26v0a1.71,1.71,0,0,1,1.05.45,1.3,1.3,0,0,1,.36,1,1.68,1.68,0,0,1-.24.9,1.52,1.52,0,0,1-.74.62,3.05,3.05,0,0,1-1.26.23,4.6,4.6,0,0,1-.87-.08,3.21,3.21,0,0,1-.76-.24v-.63a3.77,3.77,0,0,0,.8.28,3.48,3.48,0,0,0,.83.1,1.71,1.71,0,0,0,1.17-.32,1.12,1.12,0,0,0,.36-.88,1,1,0,0,0-.2-.62,1.15,1.15,0,0,0-.57-.34,3,3,0,0,0-.9-.12h-.59v-.57h.59a2.23,2.23,0,0,0,.82-.14,1.15,1.15,0,0,0,.51-.4,1,1,0,0,0,.18-.61.88.88,0,0,0-.3-.69,1.27,1.27,0,0,0-.82-.24,2.49,2.49,0,0,0-.57.06,2,2,0,0,0-.48.18,3,3,0,0,0-.46.26l-.34-.46a3.11,3.11,0,0,1,.79-.43,2.91,2.91,0,0,1,1.06-.18,1.91,1.91,0,0,1,1.35.41A1.36,1.36,0,0,1,939.38,978.5Z" transform="translate(-810 -835)"/><path class="cls-3" d="M944.36,980.07a7,7,0,0,1-.11,1.28,2.78,2.78,0,0,1-.35,1,1.57,1.57,0,0,1-.6.6,1.92,1.92,0,0,1-.89.2,1.63,1.63,0,0,1-1.09-.36,2.21,2.21,0,0,1-.65-1,5.59,5.59,0,0,1-.21-1.64,6.4,6.4,0,0,1,.19-1.63,2.18,2.18,0,0,1,.62-1.05,1.73,1.73,0,0,1,1.14-.36,1.63,1.63,0,0,1,1.09.36,2.14,2.14,0,0,1,.65,1A5.64,5.64,0,0,1,944.36,980.07Zm-3.22,0a6.57,6.57,0,0,0,.12,1.37,1.62,1.62,0,0,0,.41.82,1,1,0,0,0,.74.28,1,1,0,0,0,.73-.28,1.55,1.55,0,0,0,.41-.82,7.23,7.23,0,0,0,0-2.73,1.7,1.7,0,0,0-.4-.83,1,1,0,0,0-.74-.27,1,1,0,0,0-.75.27,1.7,1.7,0,0,0-.4.83A6.47,6.47,0,0,0,941.14,980.07Z" transform="translate(-810 -835)"/><path class="cls-3" d="M949.09,980.07a7,7,0,0,1-.11,1.28,3,3,0,0,1-.34,1,1.67,1.67,0,0,1-.61.6,1.92,1.92,0,0,1-.89.2,1.63,1.63,0,0,1-1.09-.36,2.13,2.13,0,0,1-.64-1,5.25,5.25,0,0,1-.22-1.64,6,6,0,0,1,.2-1.63,2,2,0,0,1,.62-1.05,1.91,1.91,0,0,1,2.23,0,2.2,2.2,0,0,1,.64,1A5.64,5.64,0,0,1,949.09,980.07Zm-3.22,0a6.57,6.57,0,0,0,.12,1.37,1.62,1.62,0,0,0,.41.82,1,1,0,0,0,.74.28,1,1,0,0,0,.73-.28,1.55,1.55,0,0,0,.41-.82,7.23,7.23,0,0,0,0-2.73,1.62,1.62,0,0,0-.4-.83,1,1,0,0,0-.74-.27,1,1,0,0,0-.75.27,1.7,1.7,0,0,0-.4.83A6.47,6.47,0,0,0,945.87,980.07Z" transform="translate(-810 -835)"/><path class="cls-3" d="M956.41,983h-.78l-1.6-2.6-1.62,2.6h-.73l2-3.08-1.83-2.83h.76l1.48,2.36,1.48-2.36h.73l-1.83,2.82Z" transform="translate(-810 -835)"/><path class="cls-3" d="M962.86,983H959v-.56l1.58-1.61c.3-.29.54-.56.74-.79a2.63,2.63,0,0,0,.46-.68,1.71,1.71,0,0,0,.16-.75,1,1,0,0,0-.3-.76,1.09,1.09,0,0,0-.78-.27,1.79,1.79,0,0,0-.75.15,3.27,3.27,0,0,0-.67.41l-.36-.45a3.54,3.54,0,0,1,.51-.35,2.89,2.89,0,0,1,.6-.24,2.41,2.41,0,0,1,.67-.09,2.07,2.07,0,0,1,.94.19,1.36,1.36,0,0,1,.62.54,1.57,1.57,0,0,1,.21.83,2.13,2.13,0,0,1-.18.88,4,4,0,0,1-.52.79c-.23.26-.49.54-.79.84l-1.28,1.28v0h3Z" transform="translate(-810 -835)"/><path class="cls-3" d="M965.59,979.42a2.46,2.46,0,0,1,1,.2,1.66,1.66,0,0,1,.69.59,1.78,1.78,0,0,1,.24.94,2,2,0,0,1-.26,1.05,1.78,1.78,0,0,1-.76.67,2.67,2.67,0,0,1-1.18.24,4.54,4.54,0,0,1-.85-.08,2.48,2.48,0,0,1-.67-.24v-.64a2.64,2.64,0,0,0,.72.28,3.35,3.35,0,0,0,.81.11,2,2,0,0,0,.79-.15,1.1,1.1,0,0,0,.52-.43,1.34,1.34,0,0,0,.19-.74,1.15,1.15,0,0,0-.36-.91,1.65,1.65,0,0,0-1.14-.32,3.65,3.65,0,0,0-.55,0,2.66,2.66,0,0,0-.5.09l-.33-.23.22-2.77h2.94v.62h-2.37l-.14,1.78.39-.07A4.56,4.56,0,0,1,965.59,979.42Z" transform="translate(-810 -835)"/><path class="cls-3" d="M972.36,980.07a7,7,0,0,1-.11,1.28,3,3,0,0,1-.34,1,1.67,1.67,0,0,1-.61.6,1.92,1.92,0,0,1-.89.2,1.65,1.65,0,0,1-1.09-.36,2.13,2.13,0,0,1-.64-1,5.56,5.56,0,0,1-.22-1.64,6,6,0,0,1,.2-1.63,2,2,0,0,1,.62-1.05,1.91,1.91,0,0,1,2.23,0,2.2,2.2,0,0,1,.64,1A5.64,5.64,0,0,1,972.36,980.07Zm-3.22,0a6.57,6.57,0,0,0,.12,1.37,1.62,1.62,0,0,0,.41.82,1,1,0,0,0,.74.28,1,1,0,0,0,.73-.28,1.55,1.55,0,0,0,.41-.82,7.23,7.23,0,0,0,0-2.73,1.62,1.62,0,0,0-.4-.83,1,1,0,0,0-.74-.27,1,1,0,0,0-.75.27,1.7,1.7,0,0,0-.4.83A6.47,6.47,0,0,0,969.14,980.07Z" transform="translate(-810 -835)"/><path class="cls-3" d="M977.28,977.12a2.55,2.55,0,0,1,1.67.45,1.59,1.59,0,0,1,.53,1.28,1.9,1.9,0,0,1-.13.71,1.45,1.45,0,0,1-.39.59,1.91,1.91,0,0,1-.73.41,3.41,3.41,0,0,1-1.09.15h-.72V983h-.68v-5.91Zm-.07.59h-.79v2.41h.64a2.87,2.87,0,0,0,1-.13,1.08,1.08,0,0,0,.57-.39,1.28,1.28,0,0,0,.19-.72,1,1,0,0,0-.38-.88A1.88,1.88,0,0,0,977.21,977.71Z" transform="translate(-810 -835)"/><path class="cls-3" d="M984.66,983h-.78l-1.6-2.6-1.62,2.6h-.73l2-3.08-1.83-2.83h.76l1.47,2.36,1.49-2.36h.72l-1.82,2.82Z" transform="translate(-810 -835)"/><text class="cls-4" transform="translate(135.67 109.75)">XVIID</text></g></svg>