<svg id="Layer_1" data-name="Layer 1" xmlns="http://www.w3.org/2000/svg" viewBox="0 0 1080 1920"><defs><style>.cls-1{fill:#fafafa;}.cls-2{fill:#0c91f0;}.cls-3,.cls-4{fill:#7a7a7a;}.cls-4{font-size:60.56px;font-family:KeaniaOne-Regular, Keania One;}</style></defs><g id="portrait"><rect id="_1080_x_1920" data-name="1080 x 1920" class="cls-1" width="1080" height="1920"/><path class="cls-2" d="M787.19,967.82a1.75,1.75,0,0,1-1.81-1.81V918.77a1.78,1.78,0,0,1,.51-1.31,1.75,1.75,0,0,1,1.3-.5H807a26.24,26.24,0,0,1,10.21,1.81,14.66,14.66,0,0,1,6.76,5.49,16.19,16.19,0,0,1,2.44,9.12A16,16,0,0,1,824,942.5a14.38,14.38,0,0,1-6.76,5.34A27.24,27.24,0,0,1,807,949.58H797.3V966a1.74,1.74,0,0,1-.51,1.3,1.78,1.78,0,0,1-1.31.51Zm9.89-27.25h9.59a8.48,8.48,0,0,0,5.78-1.81,6.88,6.88,0,0,0,2.07-5.45,7.5,7.5,0,0,0-1.85-5.24q-1.86-2-6-2h-9.59Z" transform="translate(-420)"/><path class="cls-2" d="M854.05,968.55a27.46,27.46,0,0,1-11.41-2.18,16.58,16.58,0,0,1-7.48-6.58,22.21,22.21,0,0,1-2.91-11.08q-.07-3.12-.07-6.21t.07-6.29a22.27,22.27,0,0,1,2.94-11,17.13,17.13,0,0,1,7.56-6.72,29.32,29.32,0,0,1,22.53,0,17.31,17.31,0,0,1,7.59,6.72,21.56,21.56,0,0,1,2.91,11q.13,3.19.14,6.29t-.14,6.21a22.42,22.42,0,0,1-2.91,11.08,16.63,16.63,0,0,1-7.48,6.58A27.28,27.28,0,0,1,854.05,968.55Zm0-9.37A9.69,9.69,0,0,0,861,956.6c1.82-1.72,2.77-4.47,2.87-8.25q.15-3.2.15-6c0-1.86,0-3.84-.15-5.92a13.45,13.45,0,0,0-1.38-6.18,8.32,8.32,0,0,0-3.45-3.52,10.57,10.57,0,0,0-5-1.13,10.75,10.75,0,0,0-5,1.13,8.07,8.07,0,0,0-3.46,3.52,14.38,14.38,0,0,0-1.41,6.18c0,2.08-.08,4.06-.08,5.92s0,3.87.08,6q.21,5.67,2.9,8.25A9.68,9.68,0,0,0,854.05,959.18Z" transform="translate(-420)"/><path class="cls-2" d="M886.75,967.82a1.78,1.78,0,0,1-1.31-.51,1.74,1.74,0,0,1-.51-1.3V918.77a1.73,1.73,0,0,1,1.82-1.81H906q9.07,0,14.31,4.17t5.24,12A14.86,14.86,0,0,1,923,942a15.2,15.2,0,0,1-6.83,5.3l10.25,18.17a1.9,1.9,0,0,1,.22.8,1.5,1.5,0,0,1-.44,1.05,1.4,1.4,0,0,1-1.09.47h-8.07a2.58,2.58,0,0,1-2-.69,5.2,5.2,0,0,1-.94-1.27l-8.87-16.64h-8.79V966a1.74,1.74,0,0,1-.51,1.3,1.78,1.78,0,0,1-1.31.51ZM896.49,940h9.3c2.66,0,4.64-.6,5.92-1.82a6.65,6.65,0,0,0,1.93-5.08,7,7,0,0,0-1.89-5.16q-1.89-1.89-6-1.89h-9.3Z" transform="translate(-420)"/><path class="cls-2" d="M947,967.82a1.75,1.75,0,0,1-1.81-1.81v-39H932a1.66,1.66,0,0,1-1.23-.51,1.68,1.68,0,0,1-.51-1.24v-6.54a1.78,1.78,0,0,1,.51-1.31A1.65,1.65,0,0,1,932,917H970a1.73,1.73,0,0,1,1.82,1.81v6.54a1.68,1.68,0,0,1-.51,1.24,1.78,1.78,0,0,1-1.31.51H956.88v39a1.74,1.74,0,0,1-.51,1.3,1.78,1.78,0,0,1-1.31.51Z" transform="translate(-420)"/><path class="cls-2" d="M980.64,967.82a1.76,1.76,0,0,1-1.31-.51,1.74,1.74,0,0,1-.51-1.3V918.77a1.78,1.78,0,0,1,.51-1.31,1.76,1.76,0,0,1,1.31-.5h19.25q9.09,0,14.32,4.17t5.23,12a14.85,14.85,0,0,1-2.54,8.87,15.25,15.25,0,0,1-6.83,5.3l10.25,18.17a1.87,1.87,0,0,1,.21.8,1.49,1.49,0,0,1-.43,1.05,1.41,1.41,0,0,1-1.09.47h-8.07a2.58,2.58,0,0,1-2-.69,5.2,5.2,0,0,1-.94-1.27l-8.87-16.64h-8.79V966a1.74,1.74,0,0,1-.51,1.3,1.78,1.78,0,0,1-1.31.51ZM990.38,940h9.3c2.66,0,4.64-.6,5.92-1.82a6.65,6.65,0,0,0,1.93-5.08,7,7,0,0,0-1.89-5.16q-1.89-1.89-6-1.89h-9.3Z" transform="translate(-420)"/><path class="cls-2" d="M1025.4,967.82a1.4,1.4,0,0,1-1.09-.47,1.49,1.49,0,0,1-.43-1.05,2.73,2.73,0,0,1,.07-.66l17.29-46.72a2.76,2.76,0,0,1,.88-1.38,2.61,2.61,0,0,1,1.81-.58h9.3a2.62,2.62,0,0,1,1.82.58,2.68,2.68,0,0,1,.87,1.38l17.3,46.72a2.73,2.73,0,0,1,.07.66,1.54,1.54,0,0,1-.43,1.05,1.43,1.43,0,0,1-1.1.47h-7.55a2.18,2.18,0,0,1-1.6-.51,2.38,2.38,0,0,1-.65-.94l-3.13-8.14h-20.49l-3.13,8.14a2.5,2.5,0,0,1-.65.94,2.18,2.18,0,0,1-1.6.51Zm15.63-19h15l-7.49-20.93Z" transform="translate(-420)"/><path class="cls-2" d="M1081.36,967.82a1.76,1.76,0,0,1-1.31-.51,1.74,1.74,0,0,1-.51-1.3V918.77a1.78,1.78,0,0,1,.51-1.31,1.76,1.76,0,0,1,1.31-.5h8.21a1.77,1.77,0,0,1,1.31.5,1.81,1.81,0,0,1,.5,1.31V966a1.73,1.73,0,0,1-1.81,1.81Z" transform="translate(-420)"/><path class="cls-2" d="M1115.15,967.82a1.76,1.76,0,0,1-1.31-.51,1.74,1.74,0,0,1-.51-1.3v-39h-13.22a1.74,1.74,0,0,1-1.75-1.75v-6.54a1.78,1.78,0,0,1,.51-1.31,1.67,1.67,0,0,1,1.24-.5h38.07a1.76,1.76,0,0,1,1.31.5,1.78,1.78,0,0,1,.51,1.31v6.54a1.68,1.68,0,0,1-.51,1.24,1.76,1.76,0,0,1-1.31.51H1125v39a1.74,1.74,0,0,1-.51,1.3,1.76,1.76,0,0,1-1.31.51Z" transform="translate(-420)"/><path class="cls-3" d="M822,1079.84h-3.4v-21.78c0-.83,0-1.54,0-2.14s0-1.14,0-1.63.05-1,.09-1.53a15.5,15.5,0,0,1-1.22,1.15l-1.4,1.16-3.52,2.82-1.83-2.37,8.33-6.42H822Z" transform="translate(-420)"/><path class="cls-3" d="M853.94,1064.43a35.52,35.52,0,0,1-.57,6.69,15.19,15.19,0,0,1-1.79,5,8.29,8.29,0,0,1-3.15,3.1,9.51,9.51,0,0,1-4.65,1.06,8.51,8.51,0,0,1-5.66-1.87,11.16,11.16,0,0,1-3.35-5.41,29.21,29.21,0,0,1-1.1-8.55,31.26,31.26,0,0,1,1-8.46,10.74,10.74,0,0,1,3.23-5.45,8.71,8.71,0,0,1,5.88-1.9,8.62,8.62,0,0,1,5.72,1.88,11.16,11.16,0,0,1,3.35,5.42A29.43,29.43,0,0,1,853.94,1064.43Zm-16.76,0a33.21,33.21,0,0,0,.65,7.15,8.49,8.49,0,0,0,2.12,4.28,5.9,5.9,0,0,0,7.67,0,8.45,8.45,0,0,0,2.12-4.27,38.5,38.5,0,0,0,0-14.25,8.57,8.57,0,0,0-2.1-4.28,5.91,5.91,0,0,0-7.73,0,8.57,8.57,0,0,0-2.1,4.28A33.42,33.42,0,0,0,837.18,1064.43Z" transform="translate(-420)"/><path class="cls-3" d="M868.4,1048.66a12.44,12.44,0,0,1,4.73.84,7.23,7.23,0,0,1,3.23,2.47,6.7,6.7,0,0,1,1.17,4,6.4,6.4,0,0,1-.81,3.27,8.39,8.39,0,0,1-2.18,2.44,19.2,19.2,0,0,1-3,1.86,21.36,21.36,0,0,1,3.56,2,8.83,8.83,0,0,1,2.51,2.67,6.85,6.85,0,0,1,.93,3.63,7.9,7.9,0,0,1-1.25,4.47,8,8,0,0,1-3.51,2.89,12.8,12.8,0,0,1-5.27,1,13.87,13.87,0,0,1-5.54-1,7.53,7.53,0,0,1-3.47-2.81,8,8,0,0,1-1.19-4.43,7.28,7.28,0,0,1,.9-3.69,9.34,9.34,0,0,1,2.4-2.7,15.57,15.57,0,0,1,3.26-1.91,17,17,0,0,1-2.81-1.92,8.29,8.29,0,0,1-2-2.51,7.28,7.28,0,0,1-.74-3.35,6.51,6.51,0,0,1,1.19-4,7.41,7.41,0,0,1,3.26-2.48A12.34,12.34,0,0,1,868.4,1048.66Zm-6.68,23.4a5,5,0,0,0,1.66,3.88,8.92,8.92,0,0,0,10,0,5,5,0,0,0,1.75-4,4.7,4.7,0,0,0-.8-2.71,7.7,7.7,0,0,0-2.27-2.09,19.69,19.69,0,0,0-3.47-1.68l-.76-.27a16.29,16.29,0,0,0-3.29,1.77,7.33,7.33,0,0,0-2.07,2.22A5.75,5.75,0,0,0,861.72,1072.06Zm6.64-20.54a6.59,6.59,0,0,0-4.06,1.19,4,4,0,0,0-1.57,3.41,4.65,4.65,0,0,0,.76,2.71,6.78,6.78,0,0,0,2.1,1.89,23.32,23.32,0,0,0,3,1.46,17.93,17.93,0,0,0,2.84-1.48,6.3,6.3,0,0,0,2-1.93,4.8,4.8,0,0,0,.72-2.67,4,4,0,0,0-1.57-3.4A6.66,6.66,0,0,0,868.36,1051.52Z" transform="translate(-420)"/><path class="cls-3" d="M903.18,1064.43a35.52,35.52,0,0,1-.57,6.69,15.19,15.19,0,0,1-1.79,5,8.29,8.29,0,0,1-3.15,3.1,9.51,9.51,0,0,1-4.65,1.06,8.51,8.51,0,0,1-5.66-1.87A11.16,11.16,0,0,1,884,1073a29.21,29.21,0,0,1-1.1-8.55,31.26,31.26,0,0,1,1-8.46,10.74,10.74,0,0,1,3.23-5.45,8.71,8.71,0,0,1,5.88-1.9,8.62,8.62,0,0,1,5.72,1.88,11.16,11.16,0,0,1,3.35,5.42A29.43,29.43,0,0,1,903.18,1064.43Zm-16.76,0a33.21,33.21,0,0,0,.65,7.15,8.49,8.49,0,0,0,2.12,4.28,5.9,5.9,0,0,0,7.67,0,8.45,8.45,0,0,0,2.12-4.27,38.5,38.5,0,0,0,0-14.25,8.57,8.57,0,0,0-2.1-4.28,5.92,5.92,0,0,0-7.74,0,8.64,8.64,0,0,0-2.09,4.28A33.42,33.42,0,0,0,886.42,1064.43Z" transform="translate(-420)"/><path class="cls-3" d="M941.28,1079.84h-4.06l-8.31-13.54-8.43,13.54h-3.8l10.24-16-9.53-14.72h4l7.68,12.26,7.71-12.26h3.79l-9.5,14.66Z" transform="translate(-420)"/><path class="cls-3" d="M967.72,1079.84h-3.4v-21.78c0-.83,0-1.54,0-2.14s0-1.14,0-1.63,0-1,.09-1.53c-.43.45-.84.83-1.21,1.15l-1.41,1.16-3.51,2.82-1.83-2.37,8.32-6.42h2.9Z" transform="translate(-420)"/><path class="cls-3" d="M999.54,1062.2a37.38,37.38,0,0,1-.4,5.45,21,21,0,0,1-1.32,4.94,13.14,13.14,0,0,1-2.53,4,11,11,0,0,1-4,2.7,15.07,15.07,0,0,1-5.75,1c-.6,0-1.29,0-2.06-.11a11.34,11.34,0,0,1-1.89-.33v-3a9.14,9.14,0,0,0,1.83.43,13.27,13.27,0,0,0,2.06.16,10.06,10.06,0,0,0,6.18-1.69,9.36,9.36,0,0,0,3.24-4.6,22.7,22.7,0,0,0,1.11-6.55h-.25a7.8,7.8,0,0,1-4.12,3.22,10,10,0,0,1-3.39.52,9.57,9.57,0,0,1-4.65-1.09,7.53,7.53,0,0,1-3.09-3.18,10.56,10.56,0,0,1-1.11-5,11.7,11.7,0,0,1,1.21-5.49,8.67,8.67,0,0,1,3.4-3.59,10.13,10.13,0,0,1,5.15-1.26,10,10,0,0,1,4.16.86,9.16,9.16,0,0,1,3.29,2.58,12.24,12.24,0,0,1,2.17,4.23A20.32,20.32,0,0,1,999.54,1062.2Zm-10.39-10.57a5.94,5.94,0,0,0-4.53,1.83c-1.16,1.21-1.74,3-1.74,5.5a7.2,7.2,0,0,0,1.5,4.82,5.67,5.67,0,0,0,4.6,1.76,7.51,7.51,0,0,0,3.71-.86,6.59,6.59,0,0,0,2.42-2.18,5,5,0,0,0,.85-2.72,10.27,10.27,0,0,0-.41-2.81,8.67,8.67,0,0,0-1.25-2.64,6.63,6.63,0,0,0-2.12-2A6,6,0,0,0,989.15,1051.63Z" transform="translate(-420)"/><path class="cls-3" d="M1024.11,1079.84H1004v-2.92l8.22-8.35q2.29-2.31,3.86-4.12a15.74,15.74,0,0,0,2.39-3.56,9.12,9.12,0,0,0,.82-3.86,5.07,5.07,0,0,0-1.55-4,5.93,5.93,0,0,0-4.07-1.37,9.64,9.64,0,0,0-3.91.75,17.19,17.19,0,0,0-3.49,2.15l-1.87-2.36a17.38,17.38,0,0,1,2.66-1.83,14.51,14.51,0,0,1,3.09-1.26,13.31,13.31,0,0,1,3.52-.46,11.18,11.18,0,0,1,4.9,1,7.43,7.43,0,0,1,3.19,2.82,8.14,8.14,0,0,1,1.12,4.35,10.56,10.56,0,0,1-1,4.53,18.35,18.35,0,0,1-2.71,4.14q-1.74,2.05-4.08,4.34l-6.68,6.67v.15h15.7Z" transform="translate(-420)"/><path class="cls-3" d="M1048.9,1064.43a35.52,35.52,0,0,1-.57,6.69,15.19,15.19,0,0,1-1.78,5,8.38,8.38,0,0,1-3.16,3.1,9.5,9.5,0,0,1-4.64,1.06,8.52,8.52,0,0,1-5.67-1.87,11.14,11.14,0,0,1-3.34-5.41,28.85,28.85,0,0,1-1.11-8.55,31.26,31.26,0,0,1,1-8.46,10.81,10.81,0,0,1,3.23-5.45,8.74,8.74,0,0,1,5.89-1.9,8.61,8.61,0,0,1,5.71,1.88,11.16,11.16,0,0,1,3.35,5.42A29.09,29.09,0,0,1,1048.9,1064.43Zm-16.76,0a33.21,33.21,0,0,0,.65,7.15,8.49,8.49,0,0,0,2.12,4.28,5.9,5.9,0,0,0,7.67,0,8.38,8.38,0,0,0,2.13-4.27,39.08,39.08,0,0,0,0-14.25,8.73,8.73,0,0,0-2.1-4.28,5.92,5.92,0,0,0-7.74,0,8.48,8.48,0,0,0-2.09,4.28A32.71,32.71,0,0,0,1032.14,1064.43Z" transform="translate(-420)"/><path class="cls-3" d="M1074.51,1049.1c4,0,6.86.78,8.69,2.33a8.21,8.21,0,0,1,2.75,6.65,10.69,10.69,0,0,1-.65,3.71,7.74,7.74,0,0,1-2.07,3.09,9.94,9.94,0,0,1-3.75,2.1,18,18,0,0,1-5.69.77h-3.74v12.09h-3.57V1049.1Zm-.34,3.05h-4.12v12.53h3.34a16.28,16.28,0,0,0,4.91-.63,5.46,5.46,0,0,0,3-2,6.45,6.45,0,0,0,1-3.77,5.44,5.44,0,0,0-2-4.58Q1078.34,1052.15,1074.17,1052.15Z" transform="translate(-420)"/><path class="cls-3" d="M1112.9,1079.84h-4.06l-8.3-13.54-8.43,13.54h-3.81l10.24-16L1089,1049.1h4l7.67,12.26,7.72-12.26h3.78l-9.5,14.66Z" transform="translate(-420)"/><text class="cls-4" transform="translate(465.39 880.62)">XVIID</text></g></svg>