<svg id="Layer_1" data-name="Layer 1" xmlns="http://www.w3.org/2000/svg" viewBox="0 0 1080 1080"><defs><style>.cls-1{fill:#fafafa;}.cls-2{fill:#0c91f0;}.cls-3,.cls-4{fill:#7a7a7a;}.cls-4{font-size:71.21px;font-family:KeaniaOne-Regular, Keania One;}</style></defs><g id="square"><rect id="_1080_x_1080" data-name="1080 x 1080" class="cls-1" width="1080" height="1080"/><path class="cls-2" d="M813.8,970.05a34.64,34.64,0,0,1-13.72-2.39,19.72,19.72,0,0,1-8.33-6.24,14.64,14.64,0,0,1-3-8.2,1.8,1.8,0,0,1,.51-1.24,1.69,1.69,0,0,1,1.29-.55h9.14a2.68,2.68,0,0,1,1.71.47,5.8,5.8,0,0,1,1.11,1.15,9.07,9.07,0,0,0,1.92,2.82,9.89,9.89,0,0,0,3.63,2.26,15.88,15.88,0,0,0,5.73.9q5.55,0,8.33-1.79a5.55,5.55,0,0,0,2.78-4.87,4.63,4.63,0,0,0-1.5-3.59,13.69,13.69,0,0,0-4.7-2.48c-2.13-.74-5-1.54-8.5-2.39a48.26,48.26,0,0,1-10.9-3.55,16.29,16.29,0,0,1-6.75-5.64,16.72,16.72,0,0,1,.56-17.69,18.73,18.73,0,0,1,8-6.23,30.05,30.05,0,0,1,12.22-2.27,30.49,30.49,0,0,1,10.12,1.54,23.21,23.21,0,0,1,7.35,4,19,19,0,0,1,4.49,5.3,12.37,12.37,0,0,1,1.62,5.47,1.78,1.78,0,0,1-.51,1.24,1.7,1.7,0,0,1-1.29.56H825.5a3.32,3.32,0,0,1-1.53-.35,2.44,2.44,0,0,1-1.11-1.19,6.57,6.57,0,0,0-3-3.89,11.65,11.65,0,0,0-6.53-1.67,12.39,12.39,0,0,0-6.63,1.54,5.18,5.18,0,0,0-2.43,4.7,5,5,0,0,0,1.24,3.46,10.07,10.07,0,0,0,4.18,2.48c2,.71,4.58,1.5,7.82,2.35a58.94,58.94,0,0,1,12.22,3.67,15.89,15.89,0,0,1,6.92,5.52,15.16,15.16,0,0,1,2.22,8.5,15.44,15.44,0,0,1-3.2,9.82,20.18,20.18,0,0,1-8.8,6.29A35.87,35.87,0,0,1,813.8,970.05Z" transform="translate(-420 -420)"/><path class="cls-2" d="M886.26,974.75a2.72,2.72,0,0,1-2-.72c-.49-.49-.87-.9-1.15-1.24l-3.08-4.1a23.93,23.93,0,0,1-8.37,1.36,32.2,32.2,0,0,1-13.42-2.56,19.34,19.34,0,0,1-8.76-7.73,27.25,27.25,0,0,1-3.46-13c-.06-2.45-.08-4.89-.08-7.31s0-4.88.08-7.39a26.81,26.81,0,0,1,3.55-12.95,20.1,20.1,0,0,1,8.88-7.9,34.23,34.23,0,0,1,26.41,0,20.44,20.44,0,0,1,8.93,7.9,26,26,0,0,1,3.5,12.95q.16,3.76.17,7.39t-.17,7.31q-.51,10.93-6.24,16.66l6.15,8.71a1,1,0,0,1,.18.35,1.81,1.81,0,0,1,.08.51,1.46,1.46,0,0,1-.43,1.24,1.67,1.67,0,0,1-1.28.55ZM871.65,959a11.36,11.36,0,0,0,8.2-3q3.17-3,3.42-9.7.16-3.76.17-7t-.17-7A16.92,16.92,0,0,0,881.6,925a9.5,9.5,0,0,0-4.06-4.14,12.68,12.68,0,0,0-5.89-1.33,12.54,12.54,0,0,0-5.82,1.33,9.81,9.81,0,0,0-4.1,4.14,16.61,16.61,0,0,0-1.71,7.27q-.07,3.68-.08,7t.08,7q.27,6.66,3.47,9.7A11.38,11.38,0,0,0,871.65,959Z" transform="translate(-420 -420)"/><path class="cls-2" d="M932.48,970.05a31.94,31.94,0,0,1-13.15-2.52,18.68,18.68,0,0,1-8.72-7.77c-2.05-3.51-3.08-8-3.08-13.38V911.52a2,2,0,0,1,2.14-2.13H919a2,2,0,0,1,2.14,2.13V946.3q0,6.33,3,9.4c2,2,4.79,3.07,8.37,3.07s6.3-1,8.29-3.07,3-5.18,3-9.4V911.52a2.05,2.05,0,0,1,.64-1.54,2.17,2.17,0,0,1,1.5-.59h9.4a2,2,0,0,1,1.45.59,2.1,2.1,0,0,1,.6,1.54v34.86c0,5.42-1,9.87-3.08,13.38a18.71,18.71,0,0,1-8.63,7.77A31.63,31.63,0,0,1,932.48,970.05Z" transform="translate(-420 -420)"/><path class="cls-2" d="M964.61,969.2a1.67,1.67,0,0,1-1.28-.56,1.78,1.78,0,0,1-.51-1.23,3.5,3.5,0,0,1,.08-.77l20.34-54.95a3.29,3.29,0,0,1,1-1.62,3.06,3.06,0,0,1,2.13-.68h10.94a3.11,3.11,0,0,1,2.14.68,3.34,3.34,0,0,1,1,1.62l20.34,54.95a3.5,3.5,0,0,1,.08.77,1.78,1.78,0,0,1-.51,1.23,1.67,1.67,0,0,1-1.28.56h-8.89a2.57,2.57,0,0,1-1.88-.6,3.1,3.1,0,0,1-.77-1.11l-3.67-9.57h-24.1l-3.67,9.57a3.1,3.1,0,0,1-.77,1.11,2.57,2.57,0,0,1-1.88.6ZM983,946.9h17.69l-8.8-24.61Z" transform="translate(-420 -420)"/><path class="cls-2" d="M1030.41,969.2a2.05,2.05,0,0,1-2.14-2.14V911.52a2,2,0,0,1,2.14-2.13h22.64q10.68,0,16.83,4.91t6.16,14.14a17.54,17.54,0,0,1-3,10.43,17.87,17.87,0,0,1-8,6.23l12,21.36a2.2,2.2,0,0,1,.26.95,1.78,1.78,0,0,1-.51,1.23,1.7,1.7,0,0,1-1.29.56H1066a3,3,0,0,1-2.31-.81,6.52,6.52,0,0,1-1.11-1.5l-10.42-19.57h-10.34v19.74a2.05,2.05,0,0,1-2.14,2.14Zm11.45-32.73h10.93q4.71,0,7-2.13a7.84,7.84,0,0,0,2.26-6,8.19,8.19,0,0,0-2.22-6.06q-2.22-2.22-7-2.22h-10.93Z" transform="translate(-420 -420)"/><path class="cls-2" d="M1088.68,969.2a2.08,2.08,0,0,1-1.54-.6,2.11,2.11,0,0,1-.59-1.54V911.52a2,2,0,0,1,2.13-2.13h38.71a2,2,0,0,1,2.14,2.13v6.84a2,2,0,0,1-.6,1.45,2.08,2.08,0,0,1-1.54.6h-27.68v13.41h25.8a2.05,2.05,0,0,1,2.14,2.14v6.32a2,2,0,0,1-.6,1.46,2.11,2.11,0,0,1-1.54.59h-25.8v13.85h28.36a2,2,0,0,1,2.14,2.13v6.75a2.05,2.05,0,0,1-2.14,2.14Z" transform="translate(-420 -420)"/><path class="cls-3" d="M797.78,1100.91h-4V1075.3c0-1,0-1.81,0-2.51s0-1.34.05-1.93.06-1.18.11-1.79a18.82,18.82,0,0,1-1.43,1.35l-1.66,1.37-4.12,3.31-2.16-2.79,9.79-7.54h3.42Z" transform="translate(-420 -420)"/><path class="cls-3" d="M835.33,1082.79a41.22,41.22,0,0,1-.67,7.86,17.94,17.94,0,0,1-2.1,5.86,9.76,9.76,0,0,1-3.71,3.65,11.24,11.24,0,0,1-5.46,1.25,10,10,0,0,1-6.67-2.2,13.21,13.21,0,0,1-3.93-6.37,34.19,34.19,0,0,1-1.29-10,37.16,37.16,0,0,1,1.17-10,12.65,12.65,0,0,1,3.8-6.4,10.28,10.28,0,0,1,6.92-2.24,10.08,10.08,0,0,1,6.72,2.22,13,13,0,0,1,3.93,6.37A34.06,34.06,0,0,1,835.33,1082.79Zm-19.71,0a38.67,38.67,0,0,0,.77,8.41,9.88,9.88,0,0,0,2.49,5,6.94,6.94,0,0,0,9,0,10,10,0,0,0,2.5-5,46.23,46.23,0,0,0,0-16.75,10.2,10.2,0,0,0-2.47-5,7,7,0,0,0-9.1,0,10,10,0,0,0-2.46,5A38.87,38.87,0,0,0,815.62,1082.79Z" transform="translate(-420 -420)"/><path class="cls-3" d="M852.34,1064.25a14.63,14.63,0,0,1,5.56,1,8.46,8.46,0,0,1,3.79,2.91,7.81,7.81,0,0,1,1.38,4.7,7.51,7.51,0,0,1-1,3.85,9.76,9.76,0,0,1-2.55,2.87,22.39,22.39,0,0,1-3.56,2.18,25.92,25.92,0,0,1,4.19,2.4,10.57,10.57,0,0,1,2.95,3.14,8.11,8.11,0,0,1,1.09,4.28,9.24,9.24,0,0,1-1.47,5.25,9.43,9.43,0,0,1-4.12,3.4,15,15,0,0,1-6.2,1.19,16.47,16.47,0,0,1-6.52-1.15,8.85,8.85,0,0,1-4.08-3.31,9.43,9.43,0,0,1-1.39-5.21,8.54,8.54,0,0,1,1.06-4.34,10.76,10.76,0,0,1,2.82-3.17,18.7,18.7,0,0,1,3.83-2.25,20.39,20.39,0,0,1-3.3-2.25,9.51,9.51,0,0,1-2.37-3,8.38,8.38,0,0,1-.88-3.94,7.7,7.7,0,0,1,1.39-4.66,8.75,8.75,0,0,1,3.84-2.92A14.27,14.27,0,0,1,852.34,1064.25Zm-7.86,27.52a5.94,5.94,0,0,0,1.95,4.56q2,1.79,5.91,1.79a8.59,8.59,0,0,0,5.81-1.79,6,6,0,0,0,2.05-4.71,5.49,5.49,0,0,0-.94-3.18,9.13,9.13,0,0,0-2.67-2.46,23.52,23.52,0,0,0-4.08-2l-.89-.32a19.36,19.36,0,0,0-3.87,2.09,8.52,8.52,0,0,0-2.43,2.61A6.66,6.66,0,0,0,844.48,1091.77Zm7.81-24.16a7.7,7.7,0,0,0-4.77,1.4,4.72,4.72,0,0,0-1.86,4,5.41,5.41,0,0,0,.9,3.17,7.94,7.94,0,0,0,2.46,2.23,26.39,26.39,0,0,0,3.49,1.72,20.85,20.85,0,0,0,3.34-1.75,7.52,7.52,0,0,0,2.3-2.26A5.69,5.69,0,0,0,859,1073a4.72,4.72,0,0,0-1.84-4A7.92,7.92,0,0,0,852.29,1067.61Z" transform="translate(-420 -420)"/><path class="cls-3" d="M893.23,1082.79a42.05,42.05,0,0,1-.67,7.86,18.17,18.17,0,0,1-2.1,5.86,9.76,9.76,0,0,1-3.71,3.65,11.24,11.24,0,0,1-5.46,1.25,10,10,0,0,1-6.67-2.2,13.21,13.21,0,0,1-3.93-6.37,34.19,34.19,0,0,1-1.29-10,37.16,37.16,0,0,1,1.17-10,12.71,12.71,0,0,1,3.79-6.4,10.33,10.33,0,0,1,6.93-2.24,10.08,10.08,0,0,1,6.72,2.22,13.11,13.11,0,0,1,3.93,6.37A34.06,34.06,0,0,1,893.23,1082.79Zm-19.71,0a38.67,38.67,0,0,0,.77,8.41,10,10,0,0,0,2.48,5,7,7,0,0,0,9,0,9.88,9.88,0,0,0,2.49-5,45.93,45.93,0,0,0,0-16.75,10.12,10.12,0,0,0-2.48-5,7,7,0,0,0-9.09,0,10,10,0,0,0-2.46,5A38.24,38.24,0,0,0,873.52,1082.79Z" transform="translate(-420 -420)"/><path class="cls-3" d="M938,1100.91h-4.77L923.49,1085l-9.92,15.92H909.1l12-18.83-11.2-17.31h4.67l9,14.41,9.07-14.41h4.45L926,1082Z" transform="translate(-420 -420)"/><path class="cls-3" d="M969.12,1100.91h-4V1075.3c0-1,0-1.81,0-2.51s0-1.34,0-1.93.06-1.18.11-1.79a18.82,18.82,0,0,1-1.43,1.35l-1.66,1.37-4.13,3.31-2.15-2.79,9.79-7.54h3.41Z" transform="translate(-420 -420)"/><path class="cls-3" d="M1006.68,1082.79a42.05,42.05,0,0,1-.67,7.86,18.17,18.17,0,0,1-2.1,5.86,9.83,9.83,0,0,1-3.71,3.65,11.24,11.24,0,0,1-5.46,1.25,10,10,0,0,1-6.67-2.2,13.21,13.21,0,0,1-3.93-6.37,34.16,34.16,0,0,1-1.3-10,37.13,37.13,0,0,1,1.18-10,12.71,12.71,0,0,1,3.79-6.4,10.33,10.33,0,0,1,6.93-2.24,10.08,10.08,0,0,1,6.72,2.22,13.11,13.11,0,0,1,3.93,6.37A34.06,34.06,0,0,1,1006.68,1082.79Zm-19.71,0a38.67,38.67,0,0,0,.77,8.41,10,10,0,0,0,2.48,5,7,7,0,0,0,9,0,10,10,0,0,0,2.49-5,45.93,45.93,0,0,0,0-16.75,10.12,10.12,0,0,0-2.48-5,7,7,0,0,0-9.09,0,10,10,0,0,0-2.46,5A38.24,38.24,0,0,0,987,1082.79Z" transform="translate(-420 -420)"/><path class="cls-3" d="M1023.68,1064.25a14.64,14.64,0,0,1,5.57,1,8.46,8.46,0,0,1,3.79,2.91,7.8,7.8,0,0,1,1.37,4.7,7.5,7.5,0,0,1-1,3.85,9.8,9.8,0,0,1-2.56,2.87,21.53,21.53,0,0,1-3.56,2.18,25.09,25.09,0,0,1,4.19,2.4,10.61,10.61,0,0,1,3,3.14,8.2,8.2,0,0,1,1.09,4.28,9.32,9.32,0,0,1-1.47,5.25,9.49,9.49,0,0,1-4.12,3.4,15.09,15.09,0,0,1-6.21,1.19,16.45,16.45,0,0,1-6.51-1.15,8.85,8.85,0,0,1-4.08-3.31,9.43,9.43,0,0,1-1.4-5.21,8.54,8.54,0,0,1,1.07-4.34,10.59,10.59,0,0,1,2.81-3.17,18.78,18.78,0,0,1,3.84-2.25,19.55,19.55,0,0,1-3.3-2.25,9.69,9.69,0,0,1-2.38-3,8.5,8.5,0,0,1-.87-3.94,7.7,7.7,0,0,1,1.39-4.66,8.72,8.72,0,0,1,3.83-2.92A14.34,14.34,0,0,1,1023.68,1064.25Zm-7.86,27.52a5.91,5.91,0,0,0,2,4.56q2,1.79,5.9,1.79a8.56,8.56,0,0,0,5.81-1.79,6,6,0,0,0,2.06-4.71,5.56,5.56,0,0,0-.94-3.18,9.13,9.13,0,0,0-2.67-2.46,24.25,24.25,0,0,0-4.08-2l-.89-.32a19.36,19.36,0,0,0-3.87,2.09,8.56,8.56,0,0,0-2.44,2.61A6.66,6.66,0,0,0,1015.82,1091.77Zm7.81-24.16a7.74,7.74,0,0,0-4.77,1.4,4.74,4.74,0,0,0-1.85,4,5.41,5.41,0,0,0,.9,3.17,7.72,7.72,0,0,0,2.46,2.23,26.39,26.39,0,0,0,3.49,1.72,21.29,21.29,0,0,0,3.34-1.75,7.49,7.49,0,0,0,2.29-2.26,5.69,5.69,0,0,0,.84-3.14,4.69,4.69,0,0,0-1.84-4A7.9,7.9,0,0,0,1023.63,1067.61Z" transform="translate(-420 -420)"/><path class="cls-3" d="M1064.57,1082.79a42.11,42.11,0,0,1-.66,7.86,18.17,18.17,0,0,1-2.1,5.86,9.83,9.83,0,0,1-3.71,3.65,11.25,11.25,0,0,1-5.47,1.25,10,10,0,0,1-6.66-2.2,13.21,13.21,0,0,1-3.93-6.37,33.83,33.83,0,0,1-1.3-10,36.73,36.73,0,0,1,1.18-10,12.64,12.64,0,0,1,3.79-6.4,10.32,10.32,0,0,1,6.92-2.24,10.13,10.13,0,0,1,6.73,2.22,13.11,13.11,0,0,1,3.93,6.37A34.09,34.09,0,0,1,1064.57,1082.79Zm-19.7,0a38.67,38.67,0,0,0,.77,8.41,10,10,0,0,0,2.48,5,7,7,0,0,0,9,0,10,10,0,0,0,2.49-5,45.93,45.93,0,0,0,0-16.75,10.2,10.2,0,0,0-2.48-5,7,7,0,0,0-9.1,0,10.19,10.19,0,0,0-2.46,5A38.94,38.94,0,0,0,1044.87,1082.79Z" transform="translate(-420 -420)"/><path class="cls-3" d="M1094.69,1064.77q7,0,10.22,2.73t3.22,7.83a12.69,12.69,0,0,1-.75,4.36,9.16,9.16,0,0,1-2.43,3.63,11.83,11.83,0,0,1-4.42,2.48,21.54,21.54,0,0,1-6.68.9h-4.4v14.21h-4.21v-36.14Zm-.4,3.59h-4.84v14.73h3.93a19.32,19.32,0,0,0,5.77-.74,6.49,6.49,0,0,0,3.47-2.41,7.58,7.58,0,0,0,1.16-4.44,6.34,6.34,0,0,0-2.3-5.38C1100,1068.94,1097.55,1068.36,1094.29,1068.36Z" transform="translate(-420 -420)"/><path class="cls-3" d="M1139.83,1100.91h-4.77l-9.77-15.92-9.91,15.92h-4.48l12-18.83-11.2-17.31h4.68l9,14.41,9.07-14.41H1139L1127.79,1082Z" transform="translate(-420 -420)"/><text class="cls-4" transform="translate(452.31 446.66)">XVIID</text></g></svg>