<?xml version="1.0" encoding="UTF-8"?>
<svg id="Layer_1" xmlns="http://www.w3.org/2000/svg" viewBox="0 0 64 64">
  <defs>
    <style>
      .cls-1 {
        fill: #848685;
      }

      .cls-2 {
        fill-rule: evenodd;
      }

      .cls-2, .cls-3 {
        fill: #0c91f0;
      }
    </style>
  </defs>
  <g>
    <path class="cls-1" d="M12.68,57.42h-.75c-.25,0-.41.05-.48.14-.07.09-.1.25-.1.47v5.95h-2.82c-.36,0-.61-.06-.74-.18-.13-.12-.2-.32-.2-.6v-6.27c0-.52.1-.89.31-1.14.21-.24.58-.37,1.11-.37h3.68v1.99ZM11.68,54.47h-2.61c-.47,0-.78-.08-.93-.23-.15-.15-.22-.47-.22-.96v-3.24c0-.49.07-.81.22-.96.15-.15.46-.23.93-.23h2.61v5.62ZM14.59,48.87h2.82c.4,0,.66.08.77.23.11.15.17.47.17.96v6.35c0,.35-.05.6-.15.76s-.31.24-.65.24h-4.03v-1.99h.5c.25,0,.41-.05.47-.14.06-.09.09-.25.09-.47v-5.95ZM17.66,63.98h-2.61c-.47,0-.78-.08-.93-.23-.15-.15-.22-.47-.22-.96v-3.26c0-.49.07-.81.22-.96.15-.15.46-.23.93-.23h2.61v5.64Z"/>
    <path class="cls-3" d="M22.15,48.87c.47,0,.8.08.97.23.17.15.3.47.37.96l1.38,11.12c.04.33.13.55.27.65s.36.15.67.17l-.02,1.99h-.92c-1.23,0-2.03-.3-2.42-.9-.21-.32-.35-.64-.44-.95-.08-.31-.16-.76-.23-1.33l-1.63-11.93h2.01ZM27.6,63.98h-1.3l2.28-13.92c.06-.47.17-.79.36-.95s.51-.24.98-.24h1.99l-2.09,12.35c-.1.53-.18.92-.24,1.17-.06.25-.17.52-.32.82-.15.29-.36.49-.63.61-.27.11-.61.17-1.02.17Z"/>
    <path class="cls-3" d="M37.13,63.98h-2.19c-.47,0-.78-.08-.93-.23-.15-.15-.22-.47-.22-.96v-12.73c0-.49.07-.81.22-.96.15-.15.46-.23.93-.23h2.19v15.11Z"/>
    <path class="cls-3" d="M43.46,63.98h-2.19c-.47,0-.78-.08-.93-.23-.15-.15-.22-.47-.22-.96v-12.73c0-.49.07-.81.22-.96.15-.15.46-.23.93-.23h2.19v15.11Z"/>
    <path class="cls-1" d="M49.79,64h-2.19c-.46,0-.77-.08-.92-.24-.15-.16-.23-.48-.23-.95v-12.75c0-.47.08-.79.23-.95.15-.16.46-.24.92-.24h2.19v15.13ZM56.37,56.39l.02,3.53c0,1.66-.21,2.75-.63,3.27-.42.52-1.18.78-2.28.78h-3.07v-1.99h1.55c.35,0,.58-.04.69-.12.11-.08.17-.24.17-.48v-9.9c0-.25-.06-.42-.17-.5s-.34-.13-.69-.13h-1.55v-1.98h3.28c1.02,0,1.72.23,2.12.7.4.47.6,1.38.6,2.73l-.04,4.1Z"/>
  </g>
  <g>
    <g>
      <path class="cls-2" d="M31.77,17.97s-1.86-.21-3.29,1.34c-1.44,1.55-5.82,7.02-6.13,7.53-.32.51-1.09,2.08,0,4.5,1.09,2.43,3.71,2.67,3.71,2.67,0,0,1.74.5,3.3-.71l1.46-5.88c-.67-.39-1.09-1.14-1.09-1.95,0-1.23.9-2.23,2.07-2.23s2.11,1,2.11,2.23c0,.81-.42,1.56-1.09,1.95l1.46,5.88c1.56,1.21,3.3.71,3.3.71,0,0,2.63-.25,3.71-2.67,1.09-2.43.32-3.99,0-4.5-.32-.51-4.7-5.98-6.13-7.53-1.44-1.55-3.39-1.34-3.39-1.34Z"/>
      <ellipse class="cls-3" cx="36.5" cy="13.04" rx="4.41" ry="3.31" transform="translate(17.81 46.99) rotate(-80.83)"/>
      <ellipse class="cls-3" cx="42.85" cy="20.01" rx="4.41" ry="3.31" transform="translate(16.27 59.12) rotate(-80.83)"/>
      <ellipse class="cls-3" cx="27.5" cy="12.99" rx="3.31" ry="4.41" transform="translate(-1.72 4.55) rotate(-9.17)"/>
      <ellipse class="cls-3" cx="21.15" cy="19.96" rx="3.31" ry="4.41" transform="translate(-2.91 3.63) rotate(-9.17)"/>
    </g>
    <g>
      <path class="cls-1" d="M32,42.73c-1.64,0-3.28-.19-4.87-.57-1.57-.37-3.11-.92-4.56-1.64-1.45-.72-2.82-1.6-4.08-2.63-1.27-1.04-2.42-2.23-3.42-3.53-.31-.41-.24-.99.17-1.31.41-.31.99-.24,1.3.17,3.67,4.78,9.45,7.64,15.46,7.64s11.79-2.86,15.46-7.64c.31-.41.9-.48,1.3-.17.41.31.48.9.17,1.31-1,1.3-2.15,2.49-3.42,3.53-1.25,1.03-2.62,1.91-4.08,2.63s-2.99,1.27-4.56,1.64c-1.59.38-3.23.57-4.87.57Z"/>
      <path class="cls-1" d="M13.11,30.03c-.36,0-.71-.22-.86-.58-1.07-2.61-1.61-5.36-1.61-8.18,0-2.64.47-5.21,1.4-7.66.9-2.38,2.21-4.55,3.89-6.47,1.67-1.92,3.65-3.51,5.88-4.72C24.09,1.17,26.58.36,29.18,0c.51-.07.97.29,1.04.8.07.51-.29.98-.8,1.05-9.65,1.29-16.93,9.64-16.93,19.42,0,2.57.5,5.09,1.47,7.47.2.48-.03,1.02-.5,1.22-.12.05-.24.07-.35.07Z"/>
      <path class="cls-1" d="M50.89,30.03c-.12,0-.24-.02-.35-.07-.47-.2-.7-.74-.5-1.22.98-2.38,1.47-4.89,1.47-7.46,0-9.78-7.28-18.12-16.93-19.42-.51-.07-.86-.54-.8-1.05.07-.51.53-.87,1.04-.8,2.6.35,5.08,1.16,7.37,2.41,2.23,1.21,4.2,2.8,5.88,4.72,1.67,1.92,2.98,4.1,3.89,6.47.93,2.45,1.4,5.02,1.4,7.66,0,2.82-.54,5.57-1.61,8.17-.15.36-.49.58-.86.58Z"/>
    </g>
  </g>
</svg>