<?xml version="1.0" encoding="UTF-8"?>
<svg id="Layer_1" xmlns="http://www.w3.org/2000/svg" viewBox="0 0 64 64">
  <defs>
    <style>
      .cls-1 {
        fill: #848685;
      }

      .cls-2 {
        fill-rule: evenodd;
      }

      .cls-2, .cls-3 {
        fill: #0c91f0;
      }
    </style>
  </defs>
  <g>
    <path class="cls-2" d="M31.65,26.92s-2.78-.32-4.93,2c-2.15,2.32-8.71,10.52-9.19,11.28-.47.76-1.63,3.11,0,6.75,1.63,3.64,5.56,4.01,5.56,4.01,0,0,2.61.75,4.94-1.07l2.18-8.8c-1.01-.59-1.63-1.71-1.63-2.93,0-1.85,1.35-3.35,3.1-3.35s3.17,1.5,3.17,3.35c0,1.22-.63,2.34-1.63,2.93l2.18,8.8c2.34,1.82,4.94,1.07,4.94,1.07,0,0,3.94-.37,5.56-4.01,1.63-3.64.47-5.98,0-6.75-.47-.76-7.03-8.96-9.19-11.28-2.15-2.32-5.07-2-5.07-2Z"/>
    <ellipse class="cls-3" cx="38.73" cy="19.53" rx="6.61" ry="4.95" transform="translate(13.28 54.66) rotate(-80.83)"/>
    <ellipse class="cls-3" cx="48.26" cy="29.97" rx="6.61" ry="4.95" transform="translate(10.98 72.83) rotate(-80.83)"/>
    <ellipse class="cls-3" cx="25.27" cy="19.46" rx="4.95" ry="6.61" transform="translate(-2.78 4.28) rotate(-9.17)"/>
    <ellipse class="cls-3" cx="15.74" cy="29.89" rx="4.95" ry="6.61" transform="translate(-4.56 2.89) rotate(-9.17)"/>
  </g>
  <g>
    <path class="cls-1" d="M32,64c-2.46,0-4.91-.28-7.3-.85-2.36-.55-4.66-1.38-6.83-2.46-2.17-1.07-4.23-2.4-6.1-3.94-1.9-1.56-3.62-3.34-5.12-5.29-.47-.61-.35-1.49.25-1.96.61-.47,1.48-.36,1.95.25,5.49,7.17,14.15,11.44,23.15,11.44s17.66-4.28,23.15-11.44c.47-.61,1.34-.72,1.95-.25.61.47.72,1.35.25,1.96-1.5,1.95-3.22,3.73-5.12,5.29-1.88,1.54-3.93,2.86-6.1,3.94s-4.47,1.9-6.83,2.46c-2.39.56-4.84.85-7.3.85Z"/>
    <path class="cls-1" d="M3.7,44.98c-.55,0-1.06-.33-1.29-.86-1.6-3.9-2.42-8.02-2.42-12.25,0-3.95.71-7.81,2.1-11.47,1.36-3.56,3.31-6.82,5.82-9.7,2.51-2.88,5.47-5.26,8.8-7.07C20.16,1.75,23.87.53,27.77.01c.76-.1,1.46.43,1.56,1.2.1.76-.43,1.47-1.19,1.57C13.68,4.71,2.78,17.22,2.78,31.87c0,3.86.74,7.62,2.21,11.18.29.71-.05,1.53-.76,1.82-.17.07-.35.11-.53.11Z"/>
    <path class="cls-1" d="M60.3,44.98c-.18,0-.36-.03-.53-.11-.71-.29-1.05-1.11-.76-1.82,1.46-3.56,2.2-7.33,2.2-11.18,0-14.65-10.9-27.15-25.36-29.09-.76-.1-1.3-.8-1.19-1.57.1-.76.8-1.3,1.56-1.2,3.9.52,7.61,1.74,11.05,3.61,3.33,1.82,6.29,4.2,8.8,7.07,2.51,2.87,4.46,6.14,5.82,9.69,1.4,3.67,2.1,7.53,2.1,11.47,0,4.22-.81,8.34-2.41,12.25-.22.54-.74.86-1.29.86Z"/>
  </g>
</svg>