<?xml version="1.0" encoding="UTF-8"?>
<svg id="Layer_1" xmlns="http://www.w3.org/2000/svg" viewBox="0 0 64 64">
  <defs>
    <style>
      .cls-1 {
        fill: #848685;
      }

      .cls-2 {
        fill-rule: evenodd;
      }

      .cls-2, .cls-3 {
        fill: #0c91f0;
      }
    </style>
  </defs>
  <g>
    <path class="cls-1" d="M28.81,32.8h-.61c-.2,0-.33.04-.39.11-.06.07-.08.2-.08.38v4.79h-2.27c-.29,0-.49-.05-.6-.14-.11-.09-.16-.25-.16-.48v-5.04c0-.41.08-.72.25-.92.17-.2.47-.29.89-.29h2.96v1.6ZM28.01,30.43h-2.1c-.38,0-.63-.06-.75-.18-.12-.12-.18-.38-.18-.77v-2.61c0-.39.06-.65.18-.77.12-.12.37-.18.75-.18h2.1v4.52ZM30.34,25.92h2.27c.33,0,.53.06.62.18.09.12.13.38.13.77v5.11c0,.28-.04.48-.12.61s-.25.19-.52.19h-3.24v-1.6h.4c.2,0,.33-.04.38-.11.05-.07.08-.2.08-.38v-4.79ZM32.81,38.08h-2.1c-.38,0-.63-.06-.75-.18-.12-.12-.18-.38-.18-.77v-2.62c0-.39.06-.65.18-.77.12-.12.37-.19.75-.19h2.1v4.54Z"/>
    <path class="cls-3" d="M36.43,25.92c.38,0,.64.06.78.18.14.12.24.38.29.77l1.11,8.94c.03.27.11.44.22.52s.29.12.54.13l-.02,1.6h-.74c-.99,0-1.64-.24-1.95-.72-.17-.26-.29-.51-.35-.77-.07-.25-.13-.61-.19-1.07l-1.31-9.6h1.61ZM40.82,38.08h-1.04l1.83-11.2c.04-.38.14-.64.29-.76s.41-.19.79-.19h1.6l-1.68,9.94c-.08.43-.14.74-.19.94-.05.2-.14.42-.26.66-.12.24-.29.4-.5.49-.21.09-.49.13-.82.13Z"/>
    <path class="cls-3" d="M48.48,38.08h-1.77c-.38,0-.63-.06-.75-.18-.12-.12-.18-.38-.18-.77v-10.24c0-.39.06-.65.18-.77.12-.12.37-.18.75-.18h1.77v12.16Z"/>
    <path class="cls-3" d="M53.58,38.08h-1.77c-.38,0-.63-.06-.75-.18-.12-.12-.18-.38-.18-.77v-10.24c0-.39.06-.65.18-.77.12-.12.37-.18.75-.18h1.77v12.16Z"/>
    <path class="cls-1" d="M58.67,38.09h-1.77c-.37,0-.62-.06-.74-.19-.12-.13-.19-.38-.19-.77v-10.26c0-.38.06-.64.19-.76.12-.13.37-.19.74-.19h1.77v12.17ZM63.97,31.97l.02,2.84c0,1.33-.17,2.21-.5,2.63-.34.42-.95.63-1.83.63h-2.47v-1.6h1.24c.28,0,.47-.03.55-.1.09-.07.13-.2.13-.39v-7.97c0-.2-.04-.34-.13-.4s-.27-.1-.55-.1h-1.24v-1.6h2.64c.82,0,1.39.19,1.71.56.32.38.48,1.11.48,2.19l-.03,3.3Z"/>
  </g>
  <g>
    <g>
      <path class="cls-2" d="M10.16,30.37s-.89-.1-1.58.64c-.69.74-2.8,3.37-2.95,3.62-.15.25-.52,1,0,2.17.52,1.17,1.79,1.29,1.79,1.29,0,0,.84.24,1.59-.34l.7-2.82c-.32-.19-.52-.55-.52-.94,0-.59.43-1.07.99-1.07s1.02.48,1.02,1.07c0,.39-.2.75-.52.94l.7,2.82c.75.58,1.59.34,1.59.34,0,0,1.26-.12,1.79-1.29.52-1.17.15-1.92,0-2.17-.15-.25-2.26-2.88-2.95-3.62-.69-.74-1.63-.64-1.63-.64Z"/>
      <ellipse class="cls-3" cx="12.43" cy="28" rx="2.12" ry="1.59" transform="translate(-17.19 35.81) rotate(-80.83)"/>
      <ellipse class="cls-3" cx="15.49" cy="31.35" rx="2.12" ry="1.59" transform="translate(-17.93 41.64) rotate(-80.83)"/>
      <ellipse class="cls-3" cx="8.11" cy="27.97" rx="1.59" ry="2.12" transform="translate(-4.36 1.65) rotate(-9.17)"/>
      <ellipse class="cls-3" cx="5.05" cy="31.32" rx="1.59" ry="2.12" transform="translate(-4.93 1.21) rotate(-9.17)"/>
    </g>
    <g>
      <path class="cls-1" d="M10.27,42.27c-.79,0-1.58-.09-2.34-.27-.76-.18-1.49-.44-2.19-.79-.7-.34-1.36-.77-1.96-1.26-.61-.5-1.16-1.07-1.64-1.7-.15-.2-.11-.48.08-.63.2-.15.48-.11.63.08,1.76,2.3,4.54,3.67,7.43,3.67s5.67-1.37,7.43-3.67c.15-.2.43-.23.63-.08.2.15.23.43.08.63-.48.63-1.03,1.2-1.64,1.7-.6.49-1.26.92-1.96,1.26s-1.44.61-2.19.79c-.77.18-1.55.27-2.34.27Z"/>
      <path class="cls-1" d="M1.19,36.16c-.18,0-.34-.1-.41-.28-.51-1.25-.78-2.58-.78-3.93,0-1.27.23-2.51.68-3.68.43-1.14,1.06-2.19,1.87-3.11.8-.92,1.75-1.69,2.82-2.27,1.1-.6,2.29-.99,3.54-1.16.24-.03.47.14.5.38.03.25-.14.47-.38.5-4.64.62-8.14,4.63-8.14,9.33,0,1.24.24,2.45.71,3.59.09.23-.01.49-.24.58-.06.02-.11.03-.17.03Z"/>
      <path class="cls-1" d="M19.35,36.16c-.06,0-.11-.01-.17-.03-.23-.09-.34-.36-.24-.58.47-1.14.71-2.35.71-3.59,0-4.7-3.5-8.71-8.14-9.33-.24-.03-.42-.26-.38-.5.03-.25.26-.42.5-.38,1.25.17,2.44.56,3.54,1.16,1.07.58,2.02,1.35,2.82,2.27.8.92,1.43,1.97,1.87,3.11.45,1.18.68,2.41.68,3.68,0,1.35-.26,2.68-.77,3.93-.07.17-.24.28-.41.28Z"/>
    </g>
  </g>
</svg>