<?xml version="1.0" encoding="UTF-8"?>
<svg id="Symbol" xmlns="http://www.w3.org/2000/svg" viewBox="0 0 64 64">
  <defs>
    <style>
      .cls-1 {
        fill: #8d6e63;
      }
    </style>
  </defs>
  <path class="cls-1" d="M59.7,33.14c-2.18-.73-4.7-.43-5.11-.37-2.49-2.34-4.55-4.54-5.98-6.35-.8-1.02-1.34-2.19-1.55-3.38-.3-1.68-1.31-3.15-2.11-4.09-.79-.93-2.09-1.16-3.17-.58-3.15,1.71-7.8,3.09-9.22,3.49l7.34-7.38c.3-.31.53-.69.66-1.1l1.15-3.7c.38-1.21,1.49-2.03,2.76-2.03h8.08c.32,1.26,1.76,1.66,1.82,1.68.05.01.09,0,.12-.04.03-.04.03-.09,0-.13-1.03-1.75,0-3.72,0-3.74.02-.04.02-.09-.01-.13-.03-.04-.07-.05-.12-.04-1.38.3-1.82,1.08-1.94,1.34l-7.96-.3c-1.87,0-3.5,1.2-4.06,2.99l-1.15,3.7c-.06.2-.18.39-.33.54l-6.55,6.58-.04-13.43.25-.25c3.63-3.17,2.81-5.9,2.77-6.01-.1-.31-.43-.48-.74-.37-.31.1-.47.43-.38.73.02.08.56,1.98-2.1,4.48h-.32c-2.66-2.5-2.13-4.4-2.1-4.48.1-.31-.07-.64-.38-.74-.31-.1-.64.07-.74.38-.04.11-.87,2.83,2.76,6.01l.26.26-.04,13.43-6.55-6.58c-.15-.15-.26-.34-.33-.54l-1.15-3.7c-.56-1.79-2.19-2.99-4.06-2.99l-7.96.3c-.11-.26-.56-1.04-1.94-1.34-.04,0-.09,0-.12.04-.03.04-.03.09-.01.13.01.02,1.03,1.98,0,3.74-.02.04-.02.09,0,.13.03.04.08.06.12.04.06-.02,1.5-.41,1.82-1.68h8.08c1.27,0,2.38.82,2.76,2.03l1.15,3.7c.13.41.36.79.66,1.1l7.34,7.38c-1.42-.4-6.07-1.78-9.22-3.49-1.08-.59-2.38-.35-3.17.58-.8.94-1.81,2.41-2.11,4.09-.21,1.19-.75,2.36-1.55,3.38-.99,1.26-2.84,3.39-5.98,6.35-.41-.06-2.93-.35-5.11.37-.05.02-.08.06-.08.11s.04.1.09.11c.05.01,5.05,1.46,6.02,4.8.01.05.06.08.11.08h0s.09-.03.11-.08c.04-.11.95-2.66-.35-4.55l6.89-7.43s1.18-1.09,1.83-3.25c.38-1.26,1.08-2.23,1.61-2.81.28-.31.74-.38,1.11-.17,1.66.97,5.94,3.27,9.99,3.68l.02,3.95-9.13,8.85c-1.32,1.28-1.59,3.27-.66,4.86,1.98,3.37,2.16,7.48.46,11l-3.17,6.58c-.93-.29-2.23-.06-3.19.19-.21.06-.35.24-.36.46,0,.22.13.4.34.47,1.55.47,3.55,1.49,4.33,3.72.06.18.24.28.43.28.2-.01.36-.15.4-.34.25-1.15.32-2.79-.75-4.08l3.33-6.97c1.82-3.8,1.75-8.31-.18-12.06l-.1-.2c-.31-.6-.14-1.32.39-1.73l8.16-6.19h.11l8.16,6.19c.53.41.7,1.13.39,1.73l-.1.2c-1.93,3.75-2,8.26-.18,12.06l3.33,6.97c-1.07,1.29-1,2.93-.75,4.08.04.19.2.33.4.34.01,0,.02,0,.03,0,.19,0,.34-.11.4-.28.78-2.23,2.78-3.26,4.33-3.72.21-.06.34-.25.34-.47,0-.22-.14-.4-.36-.46-.95-.25-2.26-.48-3.19-.19l-3.17-6.58c-1.7-3.52-1.53-7.64.46-11,.93-1.58.66-3.58-.66-4.86l-9.13-8.85.02-3.95c4.04-.41,8.32-2.71,9.99-3.68.37-.21.83-.14,1.11.17.52.59,1.23,1.55,1.61,2.81.65,2.16,1.78,3.2,1.82,3.24l6.9,7.43c-1.3,1.89-.39,4.44-.35,4.55.02.05.06.08.11.08h0c.05,0,.09-.04.11-.08.98-3.34,5.97-4.79,6.02-4.8.05-.01.08-.06.09-.11s-.03-.1-.08-.11Z"/>
  <path class="cls-1" d="M34.37,30.16c1.37,0,1.69-1.93.38-2.36l-.89-.3v-.93h1.02c1.24,0,1.52-1.75.33-2.13l-1.43-.46v-.93c1.29-.43,2.15-1.63,2.15-2.99v-1.36c0-.87-.71-1.58-1.58-1.58,1.29-1.72,0-3.34,0-3.34,1.32,0,2.39-1.13,2.25-2.45-.72-7.24-4.62-7.24-4.62-7.24,0,0-3.9,0-4.62,7.24-.13,1.32.93,2.45,2.25,2.45,0,0-1.29,1.62,0,3.34-.87,0-1.58.71-1.58,1.58v1.36c0,1.36.87,2.56,2.15,2.99v.93l-1.43.46c-1.18.38-.91,2.13.33,2.13h1.02v.93l-.89.3c-1.3.43-.99,2.36.38,2.36,0,0-3.09,2.01-3.09,6.39s2.15,7.97,5.46,7.97,5.46-3.59,5.46-7.97-3.09-6.39-3.09-6.39Z"/>
</svg>