<?xml version="1.0" encoding="UTF-8"?>
<svg id="Text" xmlns="http://www.w3.org/2000/svg" viewBox="0 0 64 64">
  <defs>
    <style>
      .cls-1 {
        fill: #373737;
      }
    </style>
  </defs>
  <path class="cls-1" d="M9.07,31.23c0,.46-.06.91-.18,1.33s-.29.83-.51,1.2c-.22.37-.48.71-.79,1.02-.3.31-.64.57-1.02.79s-.77.39-1.2.51-.87.18-1.33.18H1.01v-10.05h3.03c.46,0,.91.06,1.33.18s.83.29,1.2.51.71.48,1.02.79c.3.31.56.64.79,1.02.22.37.39.77.51,1.2.12.43.18.87.18,1.33ZM7.05,31.23c0-.42-.08-.81-.24-1.17-.16-.36-.37-.68-.64-.96s-.59-.49-.96-.65c-.37-.16-.76-.24-1.17-.24h-1v6.03h1c.42,0,.81-.08,1.17-.23s.69-.37.96-.64c.27-.27.49-.59.64-.96.16-.37.24-.76.24-1.17ZM12.45,26.71c0,.18-.03.34-.1.5-.07.15-.16.29-.28.4s-.25.21-.41.27c-.16.07-.32.1-.5.1s-.34-.03-.5-.1c-.16-.07-.29-.16-.41-.27-.12-.11-.21-.25-.27-.4-.07-.15-.1-.32-.1-.5s.03-.34.1-.49c.07-.16.16-.29.27-.41.11-.11.25-.21.41-.27.16-.07.32-.1.5-.1s.34.03.5.1c.16.07.29.16.41.27s.21.25.28.41c.07.16.1.32.1.49ZM12.12,36.26h-1.93v-7.51h1.93v7.51ZM17.7,36.26h-4.37v-1.91h4.37c.13,0,.24-.05.34-.14.09-.09.14-.21.14-.34s-.05-.22-.14-.27-.21-.06-.34-.06h-1.99c-.33,0-.64-.06-.93-.19s-.54-.3-.76-.52c-.21-.22-.38-.47-.51-.76-.12-.29-.19-.6-.19-.93s.06-.64.19-.93c.12-.29.29-.54.51-.76s.47-.38.76-.51.6-.19.93-.19h3.88v1.91h-3.88c-.13,0-.24.05-.34.14s-.14.21-.14.34.05.25.14.35c.09.1.21.14.34.14h1.99c.33,0,.63.06.93.17.29.11.54.26.76.46s.39.43.51.71c.13.28.19.58.19.9s-.06.64-.19.93c-.13.29-.3.54-.51.76-.21.22-.47.39-.76.51-.29.12-.6.19-.93.19ZM28.37,35.31c0,.53-.1,1.02-.3,1.49-.2.46-.48.87-.82,1.21-.35.35-.75.62-1.22.82-.46.2-.96.3-1.49.3h-.96v-1.93h.95c.3.01.55-.02.76-.1s.39-.18.53-.32c.14-.13.26-.29.35-.46.09-.17.16-.36.21-.55-.07.12-.18.22-.32.3s-.29.14-.47.19-.35.08-.53.1c-.19.02-.36.03-.52.03-.53,0-1.02-.09-1.49-.27-.46-.18-.87-.44-1.22-.78s-.62-.75-.82-1.24c-.2-.49-.3-1.04-.3-1.66,0-.56.1-1.09.3-1.58.2-.49.48-.91.82-1.26.35-.36.75-.63,1.22-.83.47-.2.96-.3,1.49-.3.24,0,.48.03.72.09.24.06.47.15.69.25s.44.23.64.38.39.3.57.47l.74-.89h.46v6.55ZM26.44,32.44c0-.26-.05-.51-.15-.76s-.24-.46-.41-.65-.38-.34-.61-.46c-.23-.12-.48-.17-.74-.17s-.51.04-.74.13c-.23.09-.43.22-.6.39-.17.17-.31.39-.4.64-.1.25-.15.55-.15.87s.05.59.15.84c.1.25.23.46.4.64.17.18.37.31.6.41.23.1.48.14.74.14s.51-.06.74-.17c.23-.11.43-.27.61-.46s.31-.41.41-.65.15-.5.15-.76ZM32.81,34.42c.08.02.15.04.22.04.08,0,.15.01.22.01.19,0,.37-.03.54-.08.17-.05.34-.12.49-.22.15-.1.29-.21.41-.35s.22-.29.29-.46l1.4,1.41c-.18.25-.38.48-.61.68s-.48.37-.75.51-.55.25-.85.32c-.3.07-.6.11-.91.11-.53,0-1.02-.1-1.49-.29-.46-.2-.87-.47-1.22-.82-.35-.35-.62-.77-.82-1.25-.2-.48-.3-1.01-.3-1.59s.1-1.13.3-1.63c.2-.49.48-.91.82-1.25.35-.35.75-.62,1.22-.81.47-.19.96-.29,1.49-.29.31,0,.62.04.92.11.3.07.58.18.85.32.27.14.52.31.75.51.23.2.44.43.62.68l-3.59,4.33ZM33.79,30.48c-.09-.03-.18-.05-.26-.06-.09,0-.18-.01-.27-.01-.26,0-.51.05-.74.14-.23.1-.43.23-.6.41-.17.18-.31.39-.4.64-.1.25-.15.53-.15.84,0,.07,0,.15.01.24,0,.09.02.18.03.27.02.09.04.18.06.26s.05.16.09.22l2.23-2.96ZM41.48,36.26h-4.38v-1.91h4.38c.13,0,.24-.05.34-.14.09-.09.14-.21.14-.34s-.05-.22-.14-.27-.21-.06-.34-.06h-1.99c-.33,0-.64-.06-.93-.19-.29-.13-.54-.3-.76-.52-.21-.22-.38-.47-.51-.76-.12-.29-.19-.6-.19-.93s.06-.64.19-.93c.12-.29.29-.54.51-.76s.47-.38.76-.51c.29-.12.6-.19.93-.19h3.88v1.91h-3.88c-.13,0-.24.05-.34.14-.09.09-.14.21-.14.34s.05.25.14.35.21.14.34.14h1.99c.33,0,.63.06.92.17s.54.26.76.46.38.43.51.71c.13.28.19.58.19.9s-.06.64-.19.93c-.13.29-.3.54-.51.76-.21.22-.47.39-.76.51s-.6.19-.92.19ZM48.65,36.26c-.46,0-.9-.09-1.3-.26-.41-.17-.76-.42-1.07-.72-.31-.31-.55-.66-.72-1.07-.18-.41-.26-.84-.26-1.3v-2.23h-.93v-1.91h.93v-3h1.91v3h2.9v1.91h-2.9v2.23c0,.2.04.39.11.56s.18.33.31.46.29.24.46.31c.18.08.37.12.57.12h1.45v1.91h-1.45ZM54.16,34.42c.07.02.15.04.22.04.07,0,.15.01.22.01.19,0,.37-.03.54-.08.17-.05.34-.12.49-.22s.29-.21.41-.35c.12-.14.21-.29.29-.46l1.4,1.41c-.18.25-.38.48-.61.68-.23.2-.48.37-.75.51-.27.14-.55.25-.85.32-.3.07-.6.11-.91.11-.53,0-1.03-.1-1.49-.29s-.87-.47-1.22-.82c-.35-.35-.62-.77-.82-1.25-.2-.48-.3-1.01-.3-1.59s.1-1.13.3-1.63c.2-.49.48-.91.82-1.25.35-.35.75-.62,1.22-.81s.96-.29,1.49-.29c.31,0,.62.04.92.11.3.07.58.18.85.32.27.14.52.31.75.51.23.2.44.43.62.68l-3.59,4.33ZM55.14,30.48c-.09-.03-.18-.05-.26-.06-.09,0-.18-.01-.27-.01-.26,0-.51.05-.74.14-.23.1-.43.23-.6.41s-.31.39-.4.64-.15.53-.15.84c0,.07,0,.15,0,.24,0,.09.02.18.04.27.02.09.04.18.06.26s.05.16.09.22l2.23-2.96ZM60.62,36.26h-1.91v-7.51h.46l.63.89c.31-.28.66-.5,1.05-.65.39-.15.8-.23,1.22-.23h1.69v1.91h-1.69c-.2,0-.39.04-.57.11-.18.07-.33.18-.46.31-.13.13-.23.29-.31.46s-.11.37-.11.57v4.13Z"/>
</svg>