<?xml version="1.0" encoding="UTF-8"?>
<svg id="Favicon" xmlns="http://www.w3.org/2000/svg" viewBox="0 0 64 64">
  <defs>
    <style>
      .cls-1 {
        fill: #fff;
      }

      .cls-2 {
        fill: #8d6e63;
      }
    </style>
  </defs>
  <g id="solid">
    <rect class="cls-2" width="64" height="64" rx="10" ry="10"/>
    <g>
      <path class="cls-1" d="M52.93,32.84c-1.65-.55-3.55-.32-3.86-.28-1.88-1.77-3.44-3.43-4.52-4.79-.61-.77-1.01-1.65-1.17-2.56-.22-1.27-.99-2.38-1.59-3.09-.6-.7-1.58-.88-2.39-.44-2.38,1.29-5.89,2.34-6.96,2.64l5.55-5.58c.23-.23.4-.52.5-.83l.87-2.79c.29-.92,1.12-1.53,2.09-1.53h6.1c.24.95,1.33,1.25,1.37,1.27.03,0,.07,0,.09-.03.02-.03.02-.07,0-.1-.78-1.32,0-2.81,0-2.82.02-.03.01-.07,0-.1-.02-.03-.05-.04-.09-.03-1.04.23-1.38.81-1.46,1.01l-6.02-.23c-1.41,0-2.65.91-3.07,2.26l-.87,2.79c-.05.15-.13.3-.25.41l-4.95,4.97-.03-10.15.19-.19c2.74-2.39,2.12-4.46,2.09-4.54-.08-.23-.33-.36-.56-.28-.23.08-.36.32-.29.55.02.06.42,1.5-1.59,3.38h-.24c-2.01-1.89-1.61-3.32-1.59-3.38.07-.23-.05-.48-.28-.56-.23-.08-.48.05-.56.28-.03.09-.66,2.14,2.09,4.54l.19.19-.03,10.15-4.95-4.97c-.11-.11-.2-.26-.25-.41l-.87-2.79c-.42-1.35-1.65-2.26-3.07-2.26l-6.01.23c-.09-.2-.42-.78-1.46-1.01-.03,0-.07,0-.09.03-.02.03-.02.06,0,.1,0,.01.78,1.5,0,2.82-.02.03-.02.07,0,.1.02.03.06.04.09.03.05-.01,1.13-.31,1.37-1.27h6.1c.96,0,1.8.62,2.09,1.53l.87,2.79c.1.31.27.6.5.83l5.55,5.58c-1.07-.3-4.58-1.34-6.96-2.64-.81-.44-1.8-.26-2.39.44-.6.71-1.37,1.82-1.59,3.09-.16.9-.56,1.79-1.17,2.56-.75.95-2.14,2.56-4.52,4.79-.31-.04-2.21-.27-3.86.28-.04.01-.06.05-.06.09s.03.07.06.08c.04.01,3.81,1.1,4.55,3.63.01.04.04.06.08.06h0s.07-.02.08-.06c.03-.08.72-2.01-.27-3.44l5.21-5.61s.89-.82,1.38-2.45c.29-.95.82-1.68,1.21-2.12.21-.23.56-.29.84-.13,1.26.73,4.49,2.47,7.55,2.78l.02,2.99-6.9,6.68c-1,.96-1.2,2.47-.5,3.67,1.5,2.54,1.63,5.65.34,8.31l-2.4,4.97c-.7-.22-1.69-.04-2.41.14-.16.04-.27.18-.27.35,0,.17.1.3.26.35,1.17.35,2.69,1.13,3.27,2.81.05.14.18.21.33.21.15,0,.27-.11.3-.26.19-.87.24-2.11-.57-3.08l2.52-5.27c1.37-2.87,1.32-6.28-.13-9.11l-.08-.15c-.23-.45-.11-1,.3-1.31l6.16-4.68h.08l6.16,4.68c.4.31.53.86.3,1.31l-.08.15c-1.46,2.83-1.51,6.24-.13,9.11l2.52,5.27c-.81.98-.76,2.21-.57,3.08.03.14.15.25.3.26,0,0,.01,0,.02,0,.14,0,.26-.08.3-.21.59-1.69,2.1-2.46,3.27-2.81.16-.05.26-.19.26-.35,0-.17-.11-.3-.27-.35-.72-.19-1.71-.36-2.41-.14l-2.4-4.97c-1.28-2.66-1.16-5.77.34-8.31.7-1.2.5-2.7-.5-3.67l-6.9-6.68.02-2.99c3.06-.31,6.29-2.05,7.55-2.78.28-.16.63-.11.84.13.4.44.93,1.17,1.21,2.12.49,1.63,1.35,2.42,1.38,2.45l5.21,5.62c-.98,1.43-.3,3.36-.27,3.44.01.04.05.06.08.06h0s.07-.03.08-.06c.74-2.53,4.51-3.62,4.55-3.63.04-.01.06-.04.06-.08s-.02-.07-.06-.09Z"/>
      <path class="cls-1" d="M33.79,30.59c1.04,0,1.27-1.46.29-1.78l-.67-.22v-.71h.77c.94,0,1.15-1.32.25-1.61l-1.08-.35v-.71c.97-.32,1.63-1.23,1.63-2.26v-1.02c0-.66-.53-1.19-1.19-1.19.98-1.3,0-2.52,0-2.52,1,0,1.8-.86,1.7-1.85-.55-5.47-3.49-5.47-3.49-5.47,0,0-2.95,0-3.49,5.47-.1.99.7,1.85,1.7,1.85,0,0-.98,1.22,0,2.52-.66,0-1.19.53-1.19,1.19v1.02c0,1.02.66,1.93,1.63,2.26v.71l-1.08.35c-.89.29-.69,1.61.25,1.61h.77v.71l-.67.22c-.99.33-.75,1.78.29,1.78,0,0-2.33,1.52-2.33,4.83s1.63,6.02,4.12,6.02,4.12-2.71,4.12-6.02-2.33-4.83-2.33-4.83Z"/>
    </g>
  </g>
</svg>