<?xml version="1.0" encoding="UTF-8"?>
<svg id="Symbol" xmlns="http://www.w3.org/2000/svg" viewBox="0 0 64 64">
  <path d="M59.78,33.25c0,.05-.04.1-.09.11-.05.01-5.05,1.46-6.02,4.8-.01.05-.06.08-.11.08h0s-.09-.03-.11-.08c-.04-.11-.95-2.66.35-4.55l-6.9-7.43s-1.17-1.08-1.82-3.24c-.38-1.26-1.08-2.23-1.61-2.81-.28-.31-.74-.38-1.11-.17-1.47.86-4.99,2.75-8.58,3.46v.56l1.43.46c1.18.38.91,2.13-.33,2.13h-1.02v.93l.89.3c1.12.37,1.04,1.83.13,2.25l6.6,6.4c1.32,1.28,1.59,3.27.66,4.86-1.99,3.37-2.16,7.48-.46,11l3.17,6.58c.93-.29,2.24-.06,3.19.19.21.06.35.24.36.46,0,.22-.13.4-.34.47-1.55.47-3.55,1.49-4.33,3.72-.06.17-.22.28-.4.28,0,0-.02,0-.03,0-.2-.01-.36-.15-.4-.34-.25-1.15-.32-2.79.75-4.08l-3.33-6.98c-1.82-3.8-1.75-8.31.18-12.06l.1-.2c.31-.6.14-1.32-.39-1.73l-2.76-2.09s0,.02,0,.03c0,4.38-2.15,7.97-5.46,7.97s-5.46-3.59-5.46-7.97c0-.01,0-.02,0-.03l-2.76,2.09c-.53.41-.7,1.13-.39,1.73l.1.2c1.93,3.75,2,8.26.18,12.06l-3.33,6.98c1.07,1.29,1,2.93.75,4.08-.04.19-.2.33-.4.34-.19,0-.37-.1-.43-.28-.78-2.23-2.78-3.26-4.33-3.72-.21-.06-.34-.25-.34-.47,0-.22.14-.4.36-.46.95-.25,2.26-.48,3.19-.19l3.17-6.58c1.7-3.52,1.53-7.64-.46-11-.93-1.58-.66-3.58.66-4.86l6.6-6.4c-.91-.41-.98-1.87.13-2.25l.89-.3v-.93h-1.02c-1.24,0-1.52-1.75-.33-2.13l1.43-.46v-.56c-3.59-.71-7.11-2.6-8.58-3.46-.37-.21-.83-.14-1.11.17-.52.59-1.23,1.55-1.61,2.81-.65,2.16-1.78,3.2-1.83,3.25l-6.89,7.43c1.3,1.89.39,4.44.35,4.55-.02.05-.06.08-.11.08h0c-.05,0-.09-.04-.11-.08-.98-3.35-5.97-4.79-6.02-4.8-.05-.01-.08-.06-.09-.11,0-.05.03-.1.08-.11,2.18-.73,4.7-.43,5.11-.37,3.14-2.96,4.99-5.08,5.98-6.35.8-1.02,1.34-2.19,1.55-3.38.3-1.68,1.31-3.15,2.11-4.09.79-.93,2.09-1.16,3.17-.58,1.79.97,4.06,1.84,5.94,2.47-.06-.25-.11-.51-.11-.78v-1.36c0-.08.01-.15.02-.23l-3.99-4.01c-.3-.31-.53-.69-.66-1.1l-1.15-3.7c-.38-1.21-1.49-2.03-2.76-2.03h-8.08c-.32,1.26-1.76,1.66-1.82,1.68-.05.01-.1,0-.12-.04-.03-.04-.03-.09,0-.13,1.03-1.75,0-3.72,0-3.74-.02-.04-.02-.09.01-.13.03-.04.08-.05.12-.04,1.38.3,1.82,1.08,1.94,1.34l7.96-.3c1.88,0,3.51,1.2,4.06,2.99l1.15,3.7c.06.2.18.39.33.54l3.8,3.82c.23-.13.49-.21.77-.21-1.29-1.72,0-3.34,0-3.34-1.32,0-2.39-1.13-2.25-2.45.37-3.67,1.55-5.48,2.63-6.37-2-2.52-1.41-4.47-1.38-4.57.1-.31.43-.48.74-.38.3.1.47.43.38.74-.02.07-.43,1.54,1.26,3.59.58-.25,1-.25,1-.25,0,0,.42,0,1,.25,1.7-2.05,1.28-3.52,1.26-3.59-.1-.3.07-.63.38-.73.31-.1.64.07.74.37.03.1.61,2.06-1.38,4.57,1.08.89,2.26,2.7,2.63,6.37.13,1.32-.93,2.45-2.25,2.45,0,0,1.29,1.62,0,3.34.28,0,.54.08.77.21l3.8-3.82c.15-.15.26-.34.33-.54l1.15-3.7c.56-1.79,2.19-2.99,4.06-2.99l7.96.3c.11-.26.56-1.04,1.94-1.34.05-.01.09,0,.12.04.03.04.03.09.01.13-.01.02-1.03,1.98,0,3.74.02.04.02.09,0,.13-.03.04-.08.05-.12.04-.06-.02-1.5-.41-1.82-1.68h-8.08c-1.27,0-2.38.82-2.76,2.03l-1.15,3.7c-.13.41-.36.79-.66,1.1l-3.99,4.01c.01.07.02.15.02.22v1.36c0,.27-.04.53-.11.78,1.89-.64,4.16-1.5,5.94-2.47,1.08-.58,2.38-.35,3.17.58.8.94,1.81,2.41,2.11,4.09.21,1.19.75,2.36,1.55,3.38,1.42,1.81,3.49,4,5.98,6.35.41-.06,2.93-.35,5.11.37.05.02.08.06.08.11Z"/>
</svg>