<?xml version="1.0" encoding="UTF-8"?>
<svg id="Abstract" xmlns="http://www.w3.org/2000/svg" viewBox="0 0 64 64">
  <path d="M7.51,26.23c-.22-.38-.49-.72-.8-1.04-.31-.31-.66-.58-1.04-.8s-.79-.4-1.23-.52c-.44-.12-.89-.18-1.36-.18H0v10.25h3.09c.47,0,.93-.06,1.36-.18.44-.12.84-.29,1.23-.52s.73-.49,1.04-.8c.31-.31.58-.66.8-1.04.22-.38.4-.79.52-1.22s.18-.89.18-1.36-.06-.93-.18-1.36c-.12-.44-.29-.84-.52-1.22ZM5.92,30.01c-.16.37-.38.7-.66.98-.28.28-.61.5-.98.66s-.77.24-1.2.24h-1.02v-6.15h1.02c.42,0,.82.08,1.2.24.37.16.7.38.98.66.28.28.5.6.66.98.16.37.24.77.24,1.19s-.08.82-.24,1.2ZM9.37,26.28h1.97v7.66h-1.97v-7.66ZM11.56,23.69c.07.16.1.33.1.5s-.03.35-.1.51c-.07.16-.16.29-.28.41-.12.12-.26.21-.42.28-.16.07-.33.1-.51.1s-.35-.03-.51-.1c-.16-.07-.3-.16-.41-.28-.12-.12-.21-.25-.28-.41-.07-.16-.1-.33-.1-.51s.03-.34.1-.5c.07-.16.16-.3.28-.41.12-.12.26-.21.41-.28.16-.07.33-.1.51-.1s.35.03.51.1c.16.07.3.16.42.28s.21.26.28.41ZM35.47,26.95c-.24-.21-.49-.38-.77-.52-.27-.14-.56-.25-.87-.33-.3-.08-.62-.11-.94-.11-.54,0-1.04.1-1.52.29-.47.2-.89.47-1.24.82-.18.18-.34.38-.48.6-.08-.11-.16-.21-.23-.3-.27-.32-.71-.4-1.08-.2-.61.33-1.39.63-2.03.84.02-.09.04-.17.04-.27v-.46s-.01-.05-.01-.07l1.36-1.37c.1-.1.18-.23.23-.37l.39-1.26c.13-.41.51-.69.94-.69h2.75c.11.43.6.57.62.57.02,0,.03,0,.04-.01,0-.01.01-.03,0-.04-.35-.6,0-1.27,0-1.27,0-.01,0-.03,0-.04,0-.01-.02-.02-.04-.01-.47.1-.62.37-.66.46l-2.71-.1c-.64,0-1.19.41-1.38,1.02l-.39,1.26c-.02.07-.06.13-.11.18l-1.3,1.31c-.08-.04-.16-.08-.26-.08.44-.59,0-1.14,0-1.14.45,0,.81-.39.77-.83-.13-1.26-.53-1.87-.9-2.17.68-.85.49-1.52.47-1.55-.03-.1-.15-.16-.25-.13-.1.03-.16.15-.13.25,0,.02.15.53-.43,1.22-.2-.09-.34-.09-.34-.09,0,0-.14,0-.34.09-.58-.7-.44-1.2-.43-1.22.03-.1-.02-.22-.13-.25-.1-.03-.22.02-.25.13-.01.03-.2.7.47,1.55-.37.3-.77.92-.9,2.17-.04.45.32.83.77.83,0,0-.44.55,0,1.14-.1,0-.18.03-.26.08l-1.3-1.31c-.05-.05-.09-.12-.11-.18l-.39-1.26c-.19-.61-.75-1.02-1.39-1.02l-2.71.1c-.04-.09-.19-.35-.66-.46-.01,0-.03,0-.04.01,0,.01-.01.03,0,.04,0,0,.35.68,0,1.27,0,.01,0,.03,0,.04,0,.01.03.02.04.01.02,0,.51-.14.62-.57h2.75c.43,0,.81.28.94.69l.39,1.26c.04.14.12.27.23.37l1.36,1.37s-.01.05-.01.07v.46c0,.09.02.18.04.27-.65-.22-1.42-.51-2.03-.84-.37-.2-.81-.12-1.08.2-.27.32-.62.82-.72,1.39-.07.41-.25.81-.53,1.15-.07.09-.16.2-.26.32-.1-.15-.21-.28-.34-.4-.22-.2-.48-.36-.77-.47-.3-.11-.61-.17-.94-.17h-2.03c-.13,0-.25-.05-.34-.15-.1-.1-.14-.22-.14-.35s.05-.25.14-.34c.1-.09.21-.14.34-.14h3.95v-1.95h-3.95c-.34,0-.66.06-.95.19-.3.13-.55.3-.77.52-.22.22-.39.48-.52.77-.13.3-.19.61-.19.95s.06.66.19.95c.13.3.3.55.52.78.22.22.48.4.77.53.3.13.61.19.95.19h2.03c.13,0,.25.02.34.06.1.04.14.13.14.27s-.05.25-.14.34c-.1.1-.21.14-.34.14h-4.46v1.94h4.46c.19,0,.37-.03.55-.07.01.03.03.05.04.08,0,.02.02.03.04.03h0s.03-.01.04-.03c0,0,.02-.06.04-.13.08-.02.16-.04.24-.07.3-.13.55-.3.77-.52.22-.22.39-.48.52-.77.13-.29.19-.61.19-.95s-.06-.64-.19-.92c0,0,0,0,0,0l.66-.71s.4-.37.62-1.11c.13-.43.37-.76.55-.96.09-.11.25-.13.38-.06.5.29,1.7.94,2.92,1.18v.19l-.49.16c-.4.13-.31.72.11.72h.35v.32l-.3.1c-.38.13-.35.62-.05.77l-2.25,2.18c-.45.44-.54,1.12-.22,1.66.68,1.15.73,2.55.16,3.75l-1.08,2.24c-.32-.1-.76-.02-1.09.07-.07.02-.12.08-.12.16,0,.08.04.14.12.16.53.16,1.21.51,1.48,1.27.02.06.08.1.15.1.07,0,.12-.05.14-.12.08-.39.11-.95-.26-1.39l1.14-2.38c.62-1.3.6-2.83-.06-4.11l-.03-.07c-.1-.2-.05-.45.13-.59l.94-.71s0,0,0,.01c0,1.49.73,2.72,1.86,2.72s1.86-1.22,1.86-2.72c0,0,0,0,0-.01l.94.71c.18.14.24.39.13.59l-.03.07c-.66,1.28-.68,2.82-.06,4.11l1.14,2.38c-.36.44-.34,1-.26,1.39.01.07.07.11.14.12,0,0,0,0,.01,0,.06,0,.12-.04.14-.1.26-.76.95-1.11,1.48-1.27.07-.02.12-.08.12-.16,0-.08-.05-.14-.12-.16-.32-.08-.77-.16-1.09-.07l-1.08-2.24c-.58-1.2-.52-2.6.16-3.75.32-.54.23-1.22-.22-1.66l-2.25-2.18c.31-.14.34-.64-.05-.77l-.3-.1v-.32h.35c.42,0,.52-.59.11-.72l-.49-.16v-.19c1.22-.24,2.42-.89,2.92-1.18.12-.07.28-.05.38.06.12.13.25.34.38.58-.2.5-.31,1.05-.31,1.65s.1,1.13.31,1.63c.2.49.49.92.84,1.28.35.36.77.64,1.24.84.47.2.98.3,1.52.3.32,0,.63-.04.93-.11.3-.07.59-.18.87-.33s.53-.32.76-.52c.24-.21.44-.44.63-.69l-1.43-1.44c-.08.17-.17.33-.3.47-.12.14-.26.26-.41.36-.15.1-.32.17-.5.23-.07.02-.15.02-.23.03-.26,0-.45.03-.51.03-.06-.06-.11-.11-.17-.16l3.56-4.29c-.18-.26-.39-.49-.63-.7ZM31.15,31.02l.02.03h0s0-.01-.02-.03ZM31.38,30.77c-.14-.15-.27-.3-.4-.45,0-.01,0-.03,0-.04,0-.09-.01-.17-.01-.24,0-.32.05-.61.15-.86.1-.25.24-.47.41-.65.17-.18.38-.32.61-.42.24-.1.49-.15.75-.15.1,0,.19,0,.28.01.09,0,.18.03.27.06l-2.06,2.73ZM43.52,30.58c.13.28.19.59.19.92s-.06.65-.19.95c-.13.29-.3.55-.52.77-.22.22-.48.4-.77.52-.3.13-.61.19-.94.19h-4.46v-1.94h4.46c.13,0,.25-.05.34-.14.1-.09.14-.21.14-.34s-.05-.23-.14-.27c-.1-.04-.21-.06-.34-.06h-2.03c-.34,0-.66-.06-.95-.19-.3-.13-.55-.3-.77-.53-.22-.22-.39-.48-.52-.78-.13-.29-.19-.61-.19-.95s.06-.66.19-.95c.13-.29.3-.55.52-.77s.48-.39.77-.52c.3-.13.61-.19.95-.19h3.95v1.95h-3.95c-.13,0-.25.05-.34.14-.1.1-.14.21-.14.34s.05.26.14.35c.1.1.21.15.34.15h2.03c.33,0,.65.06.94.17.3.11.55.27.77.47.22.2.39.44.52.72ZM47.11,26.29h2.96v1.95h-2.96v2.27c0,.21.04.4.11.58.08.18.18.33.31.47s.29.24.47.32c.18.08.37.12.58.12h1.48v1.94h-1.48c-.47,0-.92-.09-1.33-.27-.41-.18-.78-.42-1.09-.74-.31-.31-.56-.68-.74-1.09-.18-.41-.27-.86-.27-1.33v-2.27h-.95v-1.95h.95v-3.06h1.94v3.06ZM57.24,26.95c-.24-.21-.49-.38-.77-.52-.27-.14-.56-.25-.87-.33-.3-.08-.62-.11-.94-.11-.54,0-1.04.1-1.52.29-.47.2-.89.47-1.24.82-.36.35-.64.78-.84,1.28-.21.5-.31,1.05-.31,1.66s.1,1.13.31,1.63c.2.49.49.92.84,1.28.35.36.77.64,1.24.84.47.2.98.3,1.52.3.32,0,.63-.04.93-.11.3-.07.59-.18.87-.33s.53-.32.76-.52c.24-.21.44-.44.63-.69l-1.43-1.44c-.08.17-.17.33-.3.47-.12.14-.26.26-.41.36s-.32.17-.5.23c-.18.05-.36.08-.55.08-.08,0-.15,0-.23-.01-.08,0-.15-.02-.23-.05l3.66-4.41c-.18-.26-.39-.49-.63-.7ZM52.93,31.06c-.04-.07-.07-.14-.09-.23-.02-.09-.04-.18-.06-.27-.02-.09-.03-.19-.04-.27,0-.09-.01-.17-.01-.24,0-.32.05-.61.15-.86.1-.25.24-.47.41-.65.17-.18.38-.32.61-.42.24-.1.49-.15.75-.15.1,0,.19,0,.28.01.09,0,.18.03.27.06l-2.27,3.02ZM64,26.29v1.95h-1.72c-.2,0-.4.04-.58.11-.18.08-.34.18-.47.31-.13.13-.24.29-.31.47-.08.18-.11.37-.11.58v4.22h-1.95v-7.66h.47l.64.91c.31-.29.67-.51,1.07-.66.4-.16.81-.23,1.24-.23h1.72Z"/>
</svg>