<?xml version="1.0" encoding="UTF-8"?>
<svg id="Vertical" xmlns="http://www.w3.org/2000/svg" viewBox="0 0 64 64">
  <path d="M50.24,22.41s-.02.06-.06.07c-.03,0-3.31.96-3.95,3.15,0,.03-.04.05-.07.06h0s-.06-.02-.07-.05c-.03-.07-.62-1.75.23-2.99l-4.53-4.88s-.77-.71-1.2-2.13c-.25-.83-.71-1.46-1.05-1.85-.18-.2-.49-.25-.73-.11-.96.56-3.27,1.8-5.63,2.27v.37l.94.3c.78.25.6,1.4-.22,1.4h-.67v.61l.58.19c.73.24.68,1.2.09,1.47l4.34,4.2c.87.84,1.04,2.15.43,3.19-1.3,2.21-1.42,4.91-.3,7.22l2.08,4.32c.61-.19,1.47-.04,2.09.13.14.04.23.15.24.3,0,.14-.09.26-.22.31-1.02.31-2.33.98-2.84,2.44-.04.11-.14.19-.26.19,0,0-.01,0-.02,0-.13,0-.24-.1-.26-.22-.16-.76-.21-1.83.49-2.68l-2.19-4.58c-1.19-2.5-1.15-5.46.12-7.92l.07-.13c.2-.39.09-.87-.26-1.14l-1.81-1.37s0,.01,0,.02c0,2.87-1.41,5.23-3.58,5.23s-3.58-2.36-3.58-5.23c0,0,0-.01,0-.02l-1.81,1.37c-.35.27-.46.74-.26,1.14l.07.13c1.27,2.46,1.31,5.42.12,7.92l-2.19,4.58c.7.85.66,1.92.49,2.68-.03.13-.13.21-.26.22-.13,0-.24-.07-.28-.19-.51-1.47-1.83-2.14-2.84-2.44-.14-.04-.23-.16-.22-.31,0-.15.1-.26.24-.3.62-.16,1.48-.31,2.09-.13l2.08-4.32c1.12-2.31,1-5.01-.3-7.22-.61-1.04-.43-2.35.43-3.19l4.34-4.2c-.6-.27-.65-1.23.09-1.47l.58-.19v-.61h-.67c-.82,0-.99-1.15-.22-1.4l.94-.3v-.37c-2.36-.47-4.66-1.71-5.63-2.27-.24-.14-.55-.09-.73.11-.34.38-.81,1.02-1.05,1.85-.43,1.42-1.17,2.1-1.2,2.13l-4.52,4.87c.86,1.24.26,2.92.23,2.99-.01.03-.04.05-.07.05h0s-.06-.02-.07-.06c-.64-2.2-3.92-3.14-3.95-3.15-.03,0-.06-.04-.06-.07,0-.03.02-.06.05-.07,1.43-.48,3.08-.28,3.35-.24,2.06-1.94,3.27-3.34,3.92-4.17.53-.67.88-1.44,1.02-2.22.2-1.1.86-2.07,1.39-2.69.52-.61,1.37-.76,2.08-.38,1.18.64,2.67,1.21,3.91,1.63-.04-.17-.08-.33-.08-.51v-.89s.02-.09.03-.14l-2.63-2.64c-.2-.2-.35-.45-.43-.72l-.76-2.43c-.25-.8-.98-1.33-1.81-1.33h-5.3c-.21.83-1.15,1.09-1.19,1.1-.03,0-.06,0-.08-.03-.02-.02-.02-.06,0-.09.68-1.15,0-2.44,0-2.45-.01-.03-.01-.06,0-.08.02-.02.05-.03.08-.03.91.2,1.2.71,1.27.88l5.22-.2c1.23,0,2.3.79,2.67,1.96l.76,2.43c.04.13.12.26.21.36l2.5,2.52c.15-.08.31-.15.5-.15-.85-1.13,0-2.19,0-2.19-.87,0-1.57-.74-1.48-1.61.24-2.41,1.02-3.59,1.72-4.18-1.31-1.65-.93-2.94-.91-3,.07-.2.29-.31.49-.25.2.07.31.28.25.48-.01.05-.28,1.01.83,2.36.38-.16.66-.17.66-.17,0,0,.27,0,.66.17,1.11-1.34.84-2.31.83-2.36-.06-.2.05-.42.25-.48.2-.07.42.04.49.25.02.06.4,1.35-.91,3,.71.59,1.48,1.77,1.72,4.18.09.86-.61,1.61-1.48,1.61,0,0,.85,1.06,0,2.19.18,0,.35.06.5.15l2.5-2.52c.1-.1.17-.22.21-.36l.76-2.43c.37-1.17,1.44-1.96,2.67-1.96l5.23.2c.07-.17.37-.68,1.27-.88.03,0,.06,0,.08.03.02.02.02.06,0,.08,0,.01-.68,1.3,0,2.45.02.03.01.06,0,.09-.02.03-.05.04-.08.03-.04-.01-.98-.27-1.19-1.1h-5.3c-.84,0-1.56.54-1.81,1.33l-.76,2.43c-.08.27-.23.52-.43.72l-2.63,2.64s.03.09.03.14v.89c0,.18-.04.35-.08.51,1.24-.42,2.73-.99,3.91-1.63.71-.38,1.56-.23,2.08.38.52.62,1.19,1.58,1.39,2.69.14.78.49,1.55,1.02,2.22.93,1.19,2.29,2.63,3.92,4.17.27-.04,1.92-.23,3.35.24.03.01.05.04.05.07ZM8.03,54c-.12-.44-.29-.84-.52-1.22s-.49-.72-.8-1.04c-.31-.31-.66-.58-1.04-.81-.38-.22-.79-.4-1.23-.52-.44-.12-.89-.18-1.36-.18H0v10.25h3.09c.47,0,.93-.06,1.36-.18.44-.12.84-.29,1.23-.52.38-.22.73-.49,1.04-.81.31-.31.58-.66.8-1.04s.4-.79.52-1.22c.12-.44.18-.89.18-1.36s-.06-.93-.18-1.36ZM5.92,56.56c-.16.37-.38.7-.66.98-.28.28-.61.5-.98.66-.37.16-.77.24-1.2.24h-1.02v-6.15h1.02c.42,0,.82.08,1.2.24.37.16.7.38.98.66.28.28.5.6.66.98.16.37.24.77.24,1.19s-.08.82-.24,1.2ZM11.56,50.25c-.07-.16-.16-.3-.28-.41-.12-.12-.26-.21-.42-.28-.16-.07-.33-.11-.51-.11s-.35.04-.51.11c-.16.07-.3.16-.41.28-.12.12-.21.25-.28.41-.07.16-.1.33-.1.5s.04.35.1.51c.07.16.16.29.28.41.12.12.25.21.41.28.16.07.33.1.51.1s.35-.04.51-.1c.16-.07.3-.16.42-.28.12-.12.21-.25.28-.41s.1-.33.1-.51-.03-.34-.1-.5ZM11.33,52.83h-1.97v7.66h1.97v-7.66ZM17.97,60.3c.3-.13.55-.3.77-.52.22-.22.39-.48.52-.77.13-.29.19-.61.19-.95s-.06-.64-.19-.92c-.13-.28-.3-.52-.52-.72-.22-.2-.48-.36-.77-.47-.3-.11-.61-.17-.94-.17h-2.03c-.13,0-.25-.05-.34-.15-.1-.1-.14-.22-.14-.35s.05-.25.14-.34.21-.14.34-.14h3.95v-1.94h-3.95c-.34,0-.65.06-.95.19-.3.13-.55.3-.77.52-.22.22-.39.48-.52.77s-.19.61-.19.95.06.66.19.95.3.55.52.78c.22.22.48.4.77.53.3.13.61.19.95.19h2.03c.13,0,.25.02.34.07s.14.13.14.27-.05.25-.14.34-.21.14-.34.14h-4.46v1.94h4.46c.33,0,.65-.06.94-.19ZM27.9,52.85h-.47l-.76.91c-.18-.17-.38-.33-.58-.48-.21-.15-.43-.28-.65-.39-.23-.11-.46-.2-.71-.26-.24-.06-.49-.09-.74-.09-.54,0-1.05.1-1.52.31s-.89.49-1.24.85c-.36.36-.64.79-.84,1.29-.21.5-.31,1.03-.31,1.61,0,.63.1,1.19.31,1.69.2.5.48.92.84,1.27.35.35.77.61,1.24.8.47.18.98.28,1.52.28.16,0,.34,0,.53-.03.19-.02.37-.05.54-.1.17-.05.33-.11.48-.19.14-.08.25-.18.33-.3-.05.2-.12.38-.21.56s-.21.33-.35.47c-.15.14-.33.24-.54.32-.21.08-.47.12-.78.12h-.97s0,1.94,0,1.94h.98c.54.01,1.04-.09,1.52-.29.47-.21.89-.48,1.24-.84.35-.35.64-.76.84-1.24.21-.47.31-.98.31-1.52v-6.68ZM25.78,57.37c-.1.25-.24.47-.42.67-.18.19-.38.35-.62.46-.24.12-.49.18-.75.18s-.52-.05-.75-.15c-.24-.1-.44-.24-.61-.42s-.31-.4-.41-.65c-.1-.26-.15-.54-.15-.86s.05-.63.15-.89c.1-.26.24-.48.41-.65.17-.18.38-.31.61-.4.24-.09.49-.14.75-.14s.52.06.75.18c.24.12.44.27.62.46.18.19.32.41.42.67.1.25.15.51.15.77s-.05.53-.15.78ZM36.1,54.21c-.18-.26-.39-.49-.63-.7-.24-.21-.49-.38-.77-.53-.27-.14-.56-.25-.87-.33-.3-.07-.62-.11-.94-.11-.54,0-1.05.1-1.52.29s-.89.47-1.24.82c-.36.35-.64.78-.84,1.28-.21.5-.31,1.05-.31,1.66s.1,1.13.31,1.63c.2.49.48.92.84,1.28.35.36.77.64,1.24.84s.98.3,1.52.3c.32,0,.63-.04.93-.11.3-.07.59-.18.86-.32.27-.14.53-.32.77-.52.24-.21.44-.44.63-.69l-1.43-1.44c-.08.17-.18.33-.3.47-.12.14-.26.26-.42.36-.15.1-.32.17-.5.22s-.36.08-.55.08c-.08,0-.15,0-.23-.01-.08,0-.15-.02-.23-.05l3.66-4.41ZM31.16,57.61c-.04-.07-.07-.14-.09-.23-.02-.08-.04-.18-.06-.27s-.03-.18-.04-.28-.01-.17-.01-.24c0-.32.05-.61.15-.86.1-.25.24-.47.41-.65.17-.18.38-.32.61-.42.24-.1.49-.15.75-.15.1,0,.19,0,.28.01s.18.03.27.06l-2.27,3.02ZM42.22,60.3c.3-.13.55-.3.77-.52.22-.22.39-.48.52-.77.13-.29.19-.61.19-.95s-.06-.64-.19-.92c-.13-.28-.3-.52-.52-.72-.22-.2-.48-.36-.77-.47-.3-.11-.61-.17-.94-.17h-2.03c-.13,0-.25-.05-.34-.15-.1-.1-.14-.22-.14-.35s.05-.25.14-.34.21-.14.34-.14h3.95v-1.94h-3.95c-.34,0-.65.06-.95.19-.3.13-.55.3-.77.52-.22.22-.39.48-.52.77s-.19.61-.19.95.06.66.19.95.3.55.52.78c.22.22.48.4.77.53.3.13.61.19.95.19h2.03c.13,0,.25.02.34.07s.14.13.14.27-.05.25-.14.34-.21.14-.34.14h-4.46v1.94h4.46c.33,0,.65-.06.94-.19ZM50.07,60.49v-1.94h-1.48c-.2,0-.4-.04-.58-.12-.18-.08-.34-.18-.47-.32-.13-.13-.24-.29-.31-.47-.08-.18-.11-.37-.11-.57v-2.27h2.96v-1.94h-2.96v-3.06h-1.94v3.06h-.95v1.94h.95v2.27c0,.47.09.91.27,1.33.18.42.42.78.74,1.09.31.31.68.56,1.09.74.41.18.86.27,1.33.27h1.48ZM57.87,54.21c-.18-.26-.39-.49-.63-.7-.24-.21-.49-.38-.77-.53-.27-.14-.56-.25-.87-.33-.3-.07-.62-.11-.94-.11-.54,0-1.05.1-1.52.29s-.89.47-1.24.82c-.36.35-.64.78-.84,1.28-.21.5-.31,1.05-.31,1.66s.1,1.13.31,1.63c.2.49.48.92.84,1.28.35.36.77.64,1.24.84s.98.3,1.52.3c.32,0,.63-.04.93-.11.3-.07.59-.18.86-.32.27-.14.53-.32.77-.52.24-.21.44-.44.63-.69l-1.43-1.44c-.08.17-.18.33-.3.47-.12.14-.26.26-.42.36-.15.1-.32.17-.5.22s-.36.08-.55.08c-.08,0-.15,0-.23-.01-.08,0-.15-.02-.23-.05l3.66-4.41ZM52.93,57.61c-.04-.07-.07-.14-.09-.23-.02-.08-.04-.18-.06-.27s-.03-.18-.04-.28-.01-.17-.01-.24c0-.32.05-.61.15-.86.1-.25.24-.47.41-.65.17-.18.38-.32.61-.42.24-.1.49-.15.75-.15.1,0,.19,0,.28.01s.18.03.27.06l-2.27,3.02ZM60.8,56.27c0-.21.04-.4.11-.58.08-.18.18-.34.31-.47.13-.13.29-.24.47-.31s.37-.11.58-.11h1.72v-1.94h-1.72c-.43,0-.84.08-1.24.23-.4.15-.76.38-1.07.66l-.64-.91h-.47v7.66h1.95v-4.22Z"/>
</svg>