<?xml version="1.0" encoding="UTF-8"?>
<svg id="Vertical" xmlns="http://www.w3.org/2000/svg" viewBox="0 0 64 64">
  <defs>
    <style>
      .cls-1 {
        fill: #373737;
      }

      .cls-2 {
        fill: #8d6e63;
      }
    </style>
  </defs>
  <g>
    <path class="cls-2" d="M50.18,22.33c-1.43-.48-3.08-.28-3.35-.24-1.63-1.54-2.99-2.98-3.92-4.17-.53-.67-.88-1.44-1.02-2.22-.19-1.1-.86-2.07-1.39-2.69-.52-.61-1.37-.76-2.08-.38-2.07,1.12-5.12,2.03-6.05,2.29l4.82-4.85c.2-.2.35-.45.43-.72l.76-2.43c.25-.8.98-1.33,1.81-1.33h5.3c.21.83,1.15,1.09,1.19,1.1.03,0,.06,0,.08-.03.02-.02.02-.06,0-.09-.68-1.15,0-2.44,0-2.45.01-.03.01-.06,0-.08-.02-.02-.05-.04-.08-.03-.91.2-1.2.71-1.27.88l-5.23-.2c-1.23,0-2.3.79-2.67,1.96l-.76,2.43c-.04.13-.12.26-.21.36l-4.3,4.32-.02-8.82.16-.16c2.38-2.08,1.84-3.87,1.82-3.95-.07-.2-.29-.31-.49-.25-.2.07-.31.28-.25.48.02.05.37,1.3-1.38,2.94h-.21c-1.75-1.64-1.4-2.89-1.38-2.94.06-.2-.05-.42-.25-.48-.2-.07-.42.04-.49.25-.02.07-.57,1.86,1.81,3.94l.17.17-.02,8.82-4.3-4.32c-.1-.1-.17-.22-.21-.36l-.76-2.43c-.37-1.17-1.44-1.96-2.67-1.96l-5.22.2c-.07-.17-.37-.68-1.27-.88-.03,0-.06,0-.08.03-.02.02-.02.06,0,.08,0,.01.68,1.3,0,2.45-.02.03-.01.06,0,.09.02.02.05.04.08.03.04-.01.98-.27,1.19-1.1h5.3c.84,0,1.56.54,1.81,1.33l.76,2.43c.08.27.23.52.43.72l4.82,4.85c-.93-.26-3.98-1.17-6.05-2.29-.71-.38-1.56-.23-2.08.38-.52.62-1.19,1.58-1.39,2.69-.14.78-.49,1.55-1.02,2.22-.65.83-1.86,2.22-3.92,4.17-.27-.04-1.92-.23-3.35.24-.03.01-.05.04-.05.07s.02.06.06.07c.03,0,3.31.96,3.95,3.15,0,.03.04.05.07.06h0s.06-.02.07-.05c.03-.07.62-1.75-.23-2.99l4.52-4.87s.77-.71,1.2-2.13c.25-.83.71-1.46,1.05-1.85.18-.2.49-.25.73-.11,1.09.64,3.9,2.14,6.56,2.42l.02,2.6-5.99,5.81c-.87.84-1.04,2.15-.43,3.19,1.3,2.21,1.42,4.91.3,7.22l-2.08,4.32c-.61-.19-1.47-.04-2.09.13-.14.04-.23.15-.24.3,0,.14.09.26.22.31,1.02.31,2.33.98,2.84,2.44.04.12.16.19.28.19.13,0,.24-.1.26-.22.16-.76.21-1.83-.49-2.68l2.19-4.58c1.19-2.5,1.15-5.46-.12-7.92l-.07-.13c-.2-.39-.09-.87.26-1.14l5.35-4.06h.07l5.35,4.06c.35.27.46.74.26,1.14l-.07.13c-1.27,2.46-1.31,5.42-.12,7.92l2.19,4.58c-.7.85-.66,1.92-.49,2.68.03.13.13.21.26.22,0,0,.01,0,.02,0,.12,0,.22-.07.26-.19.51-1.47,1.83-2.14,2.84-2.44.14-.04.23-.16.22-.31,0-.15-.1-.26-.24-.3-.62-.16-1.48-.31-2.09-.13l-2.08-4.32c-1.12-2.31-1-5.01.3-7.22.61-1.04.43-2.35-.43-3.19l-5.99-5.81.02-2.6c2.66-.27,5.46-1.78,6.56-2.42.24-.14.55-.09.73.11.34.38.81,1.02,1.05,1.85.43,1.42,1.17,2.1,1.2,2.13l4.53,4.88c-.86,1.24-.26,2.92-.23,2.99.01.03.04.05.07.05h0s.06-.02.07-.06c.64-2.19,3.92-3.14,3.95-3.15.03,0,.06-.04.06-.07s-.02-.06-.05-.07Z"/>
    <path class="cls-2" d="M33.56,20.38c.9,0,1.11-1.26.25-1.55l-.58-.19v-.61h.67c.82,0,.99-1.15.22-1.4l-.94-.3v-.61c.84-.28,1.41-1.07,1.41-1.96v-.89c0-.57-.46-1.04-1.04-1.04.85-1.13,0-2.19,0-2.19.87,0,1.57-.74,1.48-1.61-.47-4.75-3.04-4.75-3.04-4.75,0,0-2.56,0-3.04,4.75-.09.86.61,1.61,1.48,1.61,0,0-.85,1.06,0,2.19-.57,0-1.04.46-1.04,1.04v.89c0,.89.57,1.68,1.41,1.96v.61l-.94.3c-.78.25-.6,1.4.22,1.4h.67v.61l-.58.19c-.86.29-.65,1.55.25,1.55,0,0-2.03,1.32-2.03,4.19s1.41,5.23,3.58,5.23,3.58-2.36,3.58-5.23-2.03-4.19-2.03-4.19Z"/>
  </g>
  <g>
    <path class="cls-1" d="M8.21,55.36c0,.47-.06.93-.18,1.36-.12.44-.29.84-.52,1.22s-.49.72-.8,1.04c-.31.31-.66.58-1.04.81-.38.22-.79.4-1.23.52-.44.12-.89.18-1.36.18H0v-10.25h3.09c.47,0,.93.06,1.36.18.44.12.84.29,1.23.52.38.22.73.49,1.04.81.31.31.58.66.8,1.04s.4.79.52,1.22c.12.44.18.89.18,1.36ZM6.16,55.36c0-.42-.08-.82-.24-1.19-.16-.37-.38-.7-.66-.98-.28-.28-.61-.5-.98-.66-.37-.16-.77-.24-1.2-.24h-1.02v6.15h1.02c.42,0,.82-.08,1.2-.24.37-.16.7-.38.98-.66.28-.28.5-.61.66-.98.16-.37.24-.77.24-1.2Z"/>
    <path class="cls-1" d="M11.67,50.75c0,.18-.03.35-.1.51s-.16.29-.28.41c-.12.12-.26.21-.42.28-.16.07-.33.1-.51.1s-.35-.04-.51-.1c-.16-.07-.3-.16-.41-.28-.12-.12-.21-.25-.28-.41-.07-.16-.1-.33-.1-.51s.04-.34.1-.5c.07-.16.16-.3.28-.41.12-.12.25-.21.41-.28.16-.07.33-.11.51-.11s.35.04.51.11c.16.07.3.16.42.28.12.12.21.25.28.41.07.16.1.33.1.5ZM11.33,60.49h-1.97v-7.66h1.97v7.66Z"/>
    <path class="cls-1" d="M17.02,60.49h-4.46v-1.94h4.46c.13,0,.25-.05.34-.14s.14-.21.14-.34-.05-.23-.14-.27-.21-.07-.34-.07h-2.03c-.34,0-.65-.06-.95-.19-.3-.13-.55-.3-.77-.53-.22-.22-.39-.48-.52-.78s-.19-.61-.19-.95.06-.65.19-.95.3-.55.52-.77c.22-.22.48-.39.77-.52.3-.13.61-.19.95-.19h3.95v1.94h-3.95c-.13,0-.25.05-.34.14s-.14.21-.14.34.05.26.14.35c.1.1.21.15.34.15h2.03c.33,0,.65.06.94.17.3.11.55.27.77.47.22.2.39.44.52.72.13.28.19.59.19.92s-.06.65-.19.95c-.13.29-.3.55-.52.77-.22.22-.48.4-.77.52-.3.13-.61.19-.94.19Z"/>
    <path class="cls-1" d="M27.9,59.52c0,.54-.1,1.04-.31,1.52-.2.47-.49.88-.84,1.24-.35.35-.77.63-1.24.84-.47.21-.98.31-1.52.31h-.98v-1.97h.97c.3.01.56-.03.78-.11.21-.08.4-.18.54-.32.15-.14.26-.29.35-.47s.16-.36.21-.56c-.08.12-.19.23-.33.3-.14.08-.3.14-.48.19-.17.05-.35.08-.54.1-.19.02-.36.03-.53.03-.54,0-1.05-.09-1.52-.28-.47-.19-.89-.45-1.24-.8-.36-.35-.64-.77-.84-1.27-.21-.5-.31-1.06-.31-1.69,0-.58.1-1.11.31-1.61.2-.49.48-.92.84-1.29.35-.36.77-.64,1.24-.85s.98-.31,1.52-.31c.25,0,.49.03.74.09.24.06.48.15.71.26.23.11.45.24.65.39.21.15.4.31.58.48l.76-.91h.47v6.68ZM25.94,56.59c0-.27-.05-.53-.15-.77-.1-.25-.24-.47-.42-.67-.18-.19-.38-.35-.62-.46-.24-.12-.49-.18-.75-.18s-.52.04-.75.14c-.24.09-.44.22-.61.4-.17.18-.31.39-.41.65-.1.26-.15.56-.15.89s.05.61.15.86c.1.25.24.47.41.65s.38.32.61.42c.24.1.49.15.75.15s.52-.06.75-.18c.24-.12.44-.27.62-.46.18-.19.32-.42.42-.67.1-.25.15-.51.15-.78Z"/>
    <path class="cls-1" d="M32.44,58.62c.08.02.15.04.23.05.08,0,.15.01.23.01.19,0,.37-.03.55-.08s.34-.13.5-.22c.16-.1.29-.22.42-.36.12-.14.22-.3.3-.47l1.43,1.44c-.18.26-.39.49-.63.69-.24.21-.49.38-.77.52-.27.14-.56.25-.86.32-.3.07-.61.11-.93.11-.54,0-1.05-.1-1.52-.3s-.89-.48-1.24-.84c-.36-.36-.64-.78-.84-1.28-.21-.49-.31-1.03-.31-1.63s.1-1.16.31-1.66c.2-.5.48-.93.84-1.28.35-.35.77-.63,1.24-.82s.98-.29,1.52-.29c.32,0,.63.04.94.11.31.08.59.19.87.33.27.14.53.32.77.53.24.21.45.44.63.7l-3.66,4.41ZM33.44,54.59c-.09-.03-.18-.05-.27-.06s-.18-.01-.28-.01c-.27,0-.52.05-.75.15-.24.1-.44.24-.61.42-.17.18-.31.4-.41.65-.1.25-.15.54-.15.86,0,.07,0,.15.01.24s.02.18.04.28.04.18.06.27c.02.09.05.16.09.23l2.27-3.02Z"/>
    <path class="cls-1" d="M41.28,60.49h-4.46v-1.94h4.46c.13,0,.25-.05.34-.14s.14-.21.14-.34-.05-.23-.14-.27-.21-.07-.34-.07h-2.03c-.34,0-.65-.06-.95-.19-.3-.13-.55-.3-.77-.53-.22-.22-.39-.48-.52-.78s-.19-.61-.19-.95.06-.65.19-.95.3-.55.52-.77c.22-.22.48-.39.77-.52.3-.13.61-.19.95-.19h3.95v1.94h-3.95c-.13,0-.25.05-.34.14s-.14.21-.14.34.05.26.14.35c.1.1.21.15.34.15h2.03c.33,0,.65.06.94.17.3.11.55.27.77.47.22.2.39.44.52.72.13.28.19.59.19.92s-.06.65-.19.95c-.13.29-.3.55-.52.77-.22.22-.48.4-.77.52-.3.13-.61.19-.94.19Z"/>
    <path class="cls-1" d="M48.59,60.49c-.47,0-.91-.09-1.33-.27-.41-.18-.78-.42-1.09-.74-.31-.31-.56-.68-.74-1.09-.18-.41-.27-.86-.27-1.33v-2.27h-.95v-1.94h.95v-3.06h1.94v3.06h2.96v1.94h-2.96v2.27c0,.21.04.4.11.57.08.18.18.34.31.47.13.13.29.24.47.32.18.08.37.12.58.12h1.48v1.94h-1.48Z"/>
    <path class="cls-1" d="M54.21,58.62c.08.02.15.04.23.05.08,0,.15.01.23.01.19,0,.37-.03.55-.08s.34-.13.5-.22c.16-.1.29-.22.42-.36.12-.14.22-.3.3-.47l1.43,1.44c-.18.26-.39.49-.63.69-.24.21-.49.38-.77.52-.27.14-.56.25-.86.32-.3.07-.61.11-.93.11-.54,0-1.05-.1-1.52-.3s-.89-.48-1.24-.84c-.36-.36-.64-.78-.84-1.28-.21-.49-.31-1.03-.31-1.63s.1-1.16.31-1.66c.2-.5.48-.93.84-1.28.35-.35.77-.63,1.24-.82s.98-.29,1.52-.29c.32,0,.63.04.94.11.31.08.59.19.87.33.27.14.53.32.77.53.24.21.45.44.63.7l-3.66,4.41ZM55.21,54.59c-.09-.03-.18-.05-.27-.06s-.18-.01-.28-.01c-.27,0-.52.05-.75.15-.24.1-.44.24-.61.42-.17.18-.31.4-.41.65-.1.25-.15.54-.15.86,0,.07,0,.15.01.24s.02.18.04.28.04.18.06.27c.02.09.05.16.09.23l2.27-3.02Z"/>
    <path class="cls-1" d="M60.8,60.49h-1.95v-7.66h.47l.64.91c.32-.28.67-.51,1.07-.66.4-.16.82-.23,1.24-.23h1.72v1.94h-1.72c-.21,0-.4.04-.58.11s-.34.18-.47.31c-.13.13-.24.29-.31.47-.08.18-.11.37-.11.58v4.22Z"/>
  </g>
</svg>