<?xml version="1.0" encoding="UTF-8"?>
<svg id="Favicon" xmlns="http://www.w3.org/2000/svg" viewBox="0 0 64 64">
  <path d="M54,0H10C4.48,0,0,4.48,0,10v44c0,5.52,4.48,10,10,10h44c5.52,0,10-4.48,10-10V10c0-5.52-4.48-10-10-10ZM49.31,32.83s-3.15.91-3.76,3c0,.03-.04.05-.07.05h0s-.06-.02-.07-.05c-.03-.07-.59-1.67.22-2.85l-4.31-4.65s-.73-.68-1.14-2.03c-.24-.79-.68-1.39-1-1.76-.17-.19-.46-.24-.69-.1-.92.54-3.12,1.72-5.36,2.16v.35l.89.29c.74.24.57,1.33-.21,1.33h-.64v.58l.55.18c.7.23.65,1.15.08,1.4l4.13,4c.82.8.99,2.05.41,3.04-1.24,2.11-1.35,4.68-.29,6.88l1.98,4.11c.58-.18,1.4-.04,1.99.12.13.03.22.15.22.29,0,.14-.08.25-.21.29-.97.29-2.22.93-2.71,2.33-.04.11-.14.18-.25.18,0,0-.01,0-.02,0-.12,0-.23-.09-.25-.21-.16-.72-.2-1.74.47-2.55l-2.08-4.36c-1.14-2.38-1.1-5.2.11-7.54l.06-.12c.19-.37.09-.83-.25-1.08l-1.72-1.31s0,.01,0,.02c0,2.74-1.35,4.98-3.41,4.98s-3.41-2.24-3.41-4.98c0,0,0-.01,0-.02l-1.72,1.31c-.33.25-.44.71-.25,1.08l.06.12c1.21,2.34,1.25,5.16.11,7.54l-2.08,4.36c.67.81.63,1.83.47,2.55-.03.12-.13.2-.25.21-.12,0-.23-.06-.27-.18-.48-1.39-1.74-2.04-2.71-2.33-.13-.04-.22-.15-.21-.29,0-.14.09-.25.22-.29.6-.16,1.41-.3,1.99-.12l1.98-4.11c1.06-2.2.96-4.77-.29-6.88-.58-.99-.41-2.24.41-3.04l4.13-4c-.57-.26-.62-1.17.08-1.4l.55-.18v-.58h-.64c-.78,0-.95-1.09-.21-1.33l.89-.29v-.35c-2.24-.45-4.44-1.62-5.36-2.16-.23-.13-.52-.09-.69.1-.33.37-.77.97-1,1.76-.4,1.35-1.11,2-1.14,2.03l-4.31,4.64c.81,1.18.25,2.78.22,2.85-.01.03-.04.05-.07.05h0s-.06-.02-.07-.05c-.61-2.09-3.73-2.99-3.76-3-.03,0-.05-.04-.05-.07s.02-.06.05-.07c1.36-.45,2.94-.27,3.19-.23,1.96-1.85,3.12-3.18,3.74-3.97.5-.64.84-1.37.97-2.11.19-1.05.82-1.97,1.32-2.56.49-.58,1.31-.73,1.98-.36,1.12.61,2.54,1.15,3.72,1.55-.04-.16-.07-.32-.07-.49v-.85s.02-.08.03-.13l-2.5-2.52c-.19-.19-.33-.43-.41-.69l-.72-2.31c-.24-.76-.93-1.27-1.73-1.27h-5.05c-.2.79-1.1,1.04-1.14,1.05-.03,0-.06,0-.08-.03-.02-.02-.02-.06,0-.08.64-1.09,0-2.32,0-2.33-.01-.03-.01-.06,0-.08.02-.02.05-.03.07-.03.86.19,1.14.67,1.21.84l4.97-.19c1.17,0,2.19.75,2.54,1.87l.72,2.31c.04.13.11.24.2.34l2.38,2.4c.14-.08.3-.14.48-.14-.81-1.08,0-2.09,0-2.09-.83,0-1.49-.71-1.41-1.53.23-2.29.97-3.42,1.64-3.98-1.25-1.57-.88-2.8-.86-2.86.06-.19.27-.3.46-.23.19.06.3.27.24.46-.01.04-.27.96.79,2.24.36-.16.62-.16.62-.16,0,0,.26,0,.62.16,1.06-1.28.8-2.2.79-2.24-.06-.19.05-.4.24-.46.19-.06.4.04.46.23.02.06.38,1.28-.86,2.86.67.56,1.41,1.69,1.64,3.98.08.82-.58,1.53-1.41,1.53,0,0,.81,1.01,0,2.09.18,0,.33.06.48.14l2.38-2.4c.09-.09.16-.21.2-.34l.72-2.31c.35-1.12,1.37-1.87,2.54-1.87l4.98.19c.07-.16.35-.65,1.21-.84.03,0,.06,0,.07.03.02.02.02.05,0,.08,0,.01-.64,1.24,0,2.33.02.03.01.06,0,.08-.02.02-.05.03-.08.03-.04-.01-.94-.26-1.14-1.05h-5.05c-.8,0-1.49.51-1.73,1.27l-.72,2.31c-.08.26-.22.49-.41.69l-2.5,2.52s.03.08.03.13v.85c0,.17-.03.33-.07.49,1.18-.4,2.6-.94,3.72-1.55.67-.37,1.49-.22,1.98.36.5.59,1.13,1.51,1.32,2.56.13.75.47,1.48.97,2.11.89,1.13,2.18,2.5,3.74,3.97.26-.03,1.83-.22,3.19.23.03,0,.05.04.05.07s-.02.06-.05.07Z"/>
</svg>