<?xml version="1.0" encoding="UTF-8"?>
<svg id="Horizontal" xmlns="http://www.w3.org/2000/svg" viewBox="0 0 64 64">
  <defs>
    <style>
      .cls-1 {
        fill: #373737;
      }

      .cls-2 {
        fill: #8d6e63;
      }
    </style>
  </defs>
  <g>
    <path class="cls-2" d="M20.51,32.42c-.8-.27-1.74-.16-1.89-.14-.92-.87-1.68-1.68-2.21-2.35-.3-.38-.49-.81-.57-1.25-.11-.62-.48-1.16-.78-1.51-.29-.34-.77-.43-1.17-.21-1.16.63-2.88,1.14-3.41,1.29l2.71-2.73c.11-.11.2-.25.24-.41l.43-1.37c.14-.45.55-.75,1.02-.75h2.99c.12.47.65.61.67.62.02,0,.03,0,.05-.02.01-.01.01-.03,0-.05-.38-.65,0-1.37,0-1.38,0-.01,0-.03,0-.05-.01-.01-.03-.02-.04-.02-.51.11-.67.4-.72.5l-2.94-.11c-.69,0-1.29.44-1.5,1.1l-.43,1.37c-.02.08-.07.14-.12.2l-2.42,2.43v-4.97s.08-.09.08-.09c1.34-1.17,1.04-2.18,1.02-2.22-.04-.11-.16-.18-.27-.14-.11.04-.18.16-.14.27,0,.03.21.73-.78,1.66h-.12c-.98-.92-.79-1.63-.78-1.65.04-.11-.03-.24-.14-.27-.11-.04-.24.02-.27.14-.01.04-.32,1.05,1.02,2.22l.09.09v4.97s-2.43-2.43-2.43-2.43c-.06-.06-.1-.12-.12-.2l-.43-1.37c-.21-.66-.81-1.1-1.5-1.1l-2.94.11c-.04-.1-.21-.38-.72-.5-.02,0-.03,0-.04.02-.01.01-.01.03,0,.05,0,0,.38.73,0,1.38,0,.02,0,.03,0,.05.01.01.03.02.05.02.02,0,.55-.15.67-.62h2.99c.47,0,.88.3,1.02.75l.43,1.37c.05.15.13.29.24.41l2.71,2.73c-.52-.15-2.24-.66-3.41-1.29-.4-.22-.88-.13-1.17.21-.3.35-.67.89-.78,1.51-.08.44-.28.87-.57,1.25-.37.47-1.05,1.25-2.21,2.35-.15-.02-1.08-.13-1.89.14-.02,0-.03.02-.03.04s.01.04.03.04c.02,0,1.87.54,2.23,1.78,0,.02.02.03.04.03h0s.03-.01.04-.03c.01-.04.35-.98-.13-1.68l2.55-2.74s.44-.4.68-1.2c.14-.47.4-.82.59-1.04.1-.11.27-.14.41-.06.61.36,2.2,1.21,3.69,1.36v1.46s-3.37,3.27-3.37,3.27c-.49.47-.59,1.21-.24,1.8.73,1.25.8,2.77.17,4.07l-1.17,2.43c-.34-.11-.83-.02-1.18.07-.08.02-.13.09-.13.17,0,.08.05.15.13.17.57.17,1.31.55,1.6,1.38.02.07.09.1.16.1.07,0,.13-.05.15-.13.09-.43.12-1.03-.28-1.51l1.23-2.58c.67-1.41.65-3.07-.07-4.46l-.04-.07c-.11-.22-.05-.49.14-.64l3.02-2.29h.04l3.01,2.29c.2.15.26.42.15.64l-.04.07c-.71,1.39-.74,3.05-.07,4.46l1.23,2.58c-.4.48-.37,1.08-.28,1.51.02.07.07.12.15.13,0,0,0,0,.01,0,.07,0,.13-.04.15-.1.29-.82,1.03-1.2,1.6-1.38.08-.02.13-.09.13-.17,0-.08-.05-.15-.13-.17-.35-.09-.84-.18-1.18-.07l-1.17-2.43c-.63-1.3-.57-2.82.17-4.07.34-.58.24-1.32-.24-1.8l-3.37-3.27v-1.46c1.5-.15,3.09-1,3.7-1.36.14-.08.31-.05.41.06.19.22.45.57.59,1.04.24.8.66,1.18.67,1.2l2.55,2.75c-.48.7-.15,1.64-.13,1.68,0,.02.02.03.04.03h0s.03-.01.04-.03c.36-1.24,2.21-1.77,2.23-1.78.02,0,.03-.02.03-.04s-.01-.04-.03-.04Z"/>
    <path class="cls-2" d="M11.14,31.32c.51,0,.62-.71.14-.87l-.33-.11v-.35h.38c.46,0,.56-.65.12-.79l-.53-.17v-.35c.48-.16.8-.6.8-1.1v-.5c0-.32-.26-.58-.58-.58.48-.64,0-1.23,0-1.23.49,0,.88-.42.83-.91-.27-2.68-1.71-2.68-1.71-2.68,0,0-1.44,0-1.71,2.68-.05.49.34.91.83.91,0,0-.48.6,0,1.23-.32,0-.58.26-.58.58v.5c0,.5.32.95.8,1.1v.35l-.53.17c-.44.14-.34.79.12.79h.38v.35l-.33.11c-.48.16-.37.87.14.87,0,0-1.14.74-1.14,2.36s.8,2.95,2.02,2.95,2.02-1.33,2.02-2.95-1.14-2.36-1.14-2.36Z"/>
  </g>
  <g>
    <path class="cls-1" d="M29.48,31.34c0,.29-.04.57-.11.84-.07.27-.18.52-.32.75s-.3.44-.49.64c-.19.19-.4.36-.64.49-.23.14-.48.24-.75.32-.27.08-.55.11-.84.11h-1.9v-6.29h1.9c.29,0,.57.04.84.11.27.08.52.18.75.32.23.14.45.3.64.49.19.19.35.4.49.64s.24.48.32.75c.07.27.11.55.11.84ZM28.22,31.34c0-.26-.05-.5-.15-.73-.1-.23-.23-.43-.4-.6-.17-.17-.37-.31-.6-.41-.23-.1-.47-.15-.74-.15h-.63v3.77h.63c.26,0,.51-.05.74-.15.23-.1.43-.23.6-.4.17-.17.31-.37.4-.6.1-.23.15-.47.15-.74Z"/>
    <path class="cls-1" d="M31.6,28.51c0,.11-.02.21-.06.31s-.1.18-.17.25c-.07.07-.16.13-.26.17-.1.04-.2.06-.31.06s-.22-.02-.31-.06c-.1-.04-.18-.1-.25-.17-.07-.07-.13-.16-.17-.25-.04-.1-.06-.2-.06-.31s.02-.21.06-.31c.04-.1.1-.18.17-.25.07-.07.16-.13.25-.17.1-.04.2-.06.31-.06s.22.02.31.06c.1.04.18.1.26.17.07.07.13.16.17.25.04.1.06.2.06.31ZM31.39,34.49h-1.21v-4.7h1.21v4.7Z"/>
    <path class="cls-1" d="M34.89,34.49h-2.74v-1.19h2.74c.08,0,.15-.03.21-.09s.09-.13.09-.21-.03-.14-.09-.17-.13-.04-.21-.04h-1.25c-.21,0-.4-.04-.58-.12-.18-.08-.34-.19-.47-.32-.13-.14-.24-.29-.32-.48s-.12-.38-.12-.58.04-.4.12-.58.18-.34.32-.47c.13-.13.29-.24.47-.32.18-.08.38-.12.58-.12h2.43v1.19h-2.43c-.08,0-.15.03-.21.09s-.09.13-.09.21.03.16.09.22c.06.06.13.09.21.09h1.25c.2,0,.4.03.58.1.18.07.34.16.47.29.13.12.24.27.32.44.08.17.12.36.12.57s-.04.4-.12.58c-.08.18-.19.34-.32.47-.13.14-.29.24-.47.32-.18.08-.37.12-.58.12Z"/>
    <path class="cls-1" d="M41.56,33.9c0,.33-.06.64-.19.93-.13.29-.3.54-.52.76-.22.22-.47.39-.76.51-.29.13-.6.19-.93.19h-.6v-1.21h.59c.19,0,.35-.02.48-.06.13-.05.24-.11.33-.2.09-.08.16-.18.22-.29s.1-.22.13-.34c-.05.08-.11.14-.2.19-.09.05-.19.09-.29.12-.11.03-.22.05-.33.06-.12.01-.22.02-.32.02-.33,0-.64-.06-.93-.17-.29-.11-.55-.28-.76-.49-.22-.21-.39-.47-.52-.78-.13-.31-.19-.65-.19-1.04,0-.35.06-.68.19-.99.13-.3.3-.57.52-.79.22-.22.47-.4.76-.52s.6-.19.93-.19c.15,0,.3.02.45.06.15.04.29.09.43.16.14.07.27.15.4.24.13.09.25.19.36.29l.46-.56h.29v4.1ZM40.36,32.1c0-.16-.03-.32-.09-.48-.06-.15-.15-.29-.26-.41-.11-.12-.23-.21-.38-.29-.15-.07-.3-.11-.46-.11s-.32.03-.46.08c-.15.06-.27.14-.38.25-.11.11-.19.24-.25.4-.06.16-.09.34-.09.55s.03.37.09.53c.06.16.15.29.25.4s.23.2.38.26c.14.06.3.09.46.09s.32-.04.46-.11c.15-.07.27-.17.38-.29.11-.12.19-.25.26-.41.06-.15.09-.31.09-.48Z"/>
    <path class="cls-1" d="M44.35,33.34s.09.02.14.03c.05,0,.09,0,.14,0,.12,0,.23-.02.34-.05s.21-.08.3-.14c.1-.06.18-.13.25-.22.07-.09.14-.18.18-.29l.88.88c-.11.16-.24.3-.38.43-.15.13-.3.23-.47.32-.17.09-.35.15-.53.2-.19.05-.38.07-.57.07-.33,0-.64-.06-.93-.18s-.55-.29-.76-.51c-.22-.22-.39-.48-.52-.78-.13-.3-.19-.63-.19-1s.06-.71.19-1.02c.13-.31.3-.57.52-.79.22-.22.47-.38.76-.5s.6-.18.93-.18c.2,0,.39.02.57.07.19.05.36.11.53.2.17.09.33.2.47.32.15.13.27.27.39.43l-2.25,2.71ZM44.96,30.87c-.06-.02-.11-.03-.16-.04s-.11,0-.17,0c-.16,0-.32.03-.46.09-.15.06-.27.15-.38.26-.11.11-.19.25-.25.4-.06.16-.09.33-.09.53,0,.04,0,.09,0,.15s.01.11.02.17.02.11.04.16c.01.05.03.1.06.14l1.4-1.85Z"/>
    <path class="cls-1" d="M49.77,34.49h-2.74v-1.19h2.74c.08,0,.15-.03.21-.09s.09-.13.09-.21-.03-.14-.09-.17-.13-.04-.21-.04h-1.25c-.21,0-.4-.04-.58-.12-.18-.08-.34-.19-.47-.32-.13-.14-.24-.29-.32-.48s-.12-.38-.12-.58.04-.4.12-.58.18-.34.32-.47c.13-.13.29-.24.47-.32.18-.08.38-.12.58-.12h2.43v1.19h-2.43c-.08,0-.15.03-.21.09s-.09.13-.09.21.03.16.09.22c.06.06.13.09.21.09h1.25c.2,0,.4.03.58.1.18.07.34.16.47.29.13.12.24.27.32.44.08.17.12.36.12.57s-.04.4-.12.58c-.08.18-.19.34-.32.47-.13.14-.29.24-.47.32-.18.08-.37.12-.58.12Z"/>
    <path class="cls-1" d="M54.26,34.49c-.29,0-.56-.05-.82-.16-.25-.11-.48-.26-.67-.45-.19-.19-.34-.42-.45-.67-.11-.25-.16-.53-.16-.82v-1.4h-.58v-1.19h.58v-1.88h1.19v1.88h1.82v1.19h-1.82v1.4c0,.13.02.24.07.35.05.11.11.21.19.29.08.08.18.15.29.2.11.05.23.07.36.07h.91v1.19h-.91Z"/>
    <path class="cls-1" d="M57.71,33.34s.09.02.14.03c.05,0,.09,0,.14,0,.12,0,.23-.02.34-.05s.21-.08.3-.14c.1-.06.18-.13.25-.22.07-.09.14-.18.18-.29l.88.88c-.11.16-.24.3-.38.43-.15.13-.3.23-.47.32-.17.09-.35.15-.53.2-.19.05-.38.07-.57.07-.33,0-.64-.06-.93-.18s-.55-.29-.76-.51c-.22-.22-.39-.48-.52-.78-.13-.3-.19-.63-.19-1s.06-.71.19-1.02c.13-.31.3-.57.52-.79.22-.22.47-.38.76-.5s.6-.18.93-.18c.2,0,.39.02.57.07.19.05.36.11.53.2.17.09.33.2.47.32.15.13.27.27.39.43l-2.25,2.71ZM58.32,30.87c-.06-.02-.11-.03-.16-.04s-.11,0-.17,0c-.16,0-.32.03-.46.09-.15.06-.27.15-.38.26-.11.11-.19.25-.25.4-.06.16-.09.33-.09.53,0,.04,0,.09,0,.15s.01.11.02.17.02.11.04.16c.01.05.03.1.06.14l1.4-1.85Z"/>
    <path class="cls-1" d="M61.75,34.49h-1.2v-4.7h.29l.39.56c.19-.17.41-.31.66-.41.25-.1.5-.14.76-.14h1.06v1.19h-1.06c-.13,0-.24.02-.36.07s-.21.11-.29.19c-.08.08-.15.18-.19.29-.05.11-.07.23-.07.36v2.59Z"/>
  </g>
</svg>