<?xml version="1.0" encoding="UTF-8"?>
<svg id="Favicon" xmlns="http://www.w3.org/2000/svg" viewBox="0 0 64 64">
  <defs>
    <style>
      .cls-1 {
        fill: #fff;
      }

      .cls-2 {
        fill: #8d6e63;
      }
    </style>
  </defs>
  <g id="solid">
    <rect class="cls-2" width="64" height="64" rx="10" ry="10"/>
    <g>
      <path class="cls-1" d="M49.31,32.69c-1.36-.45-2.93-.27-3.19-.23-1.55-1.46-2.85-2.84-3.74-3.97-.5-.64-.84-1.37-.97-2.11-.19-1.05-.82-1.97-1.32-2.56-.49-.58-1.31-.73-1.98-.36-1.97,1.07-4.87,1.93-5.76,2.18l4.59-4.61c.19-.19.33-.43.41-.69l.72-2.31c.24-.76.93-1.27,1.73-1.27h5.05c.2.79,1.1,1.04,1.14,1.05.03,0,.06,0,.08-.03.02-.02.02-.06,0-.08-.64-1.09,0-2.32,0-2.33.01-.03.01-.06,0-.08-.02-.02-.04-.03-.07-.03-.86.19-1.14.67-1.21.84l-4.98-.19c-1.17,0-2.19.75-2.54,1.87l-.72,2.31c-.04.13-.11.24-.2.34l-4.09,4.11-.02-8.4.16-.16c2.27-1.98,1.75-3.69,1.73-3.76-.06-.19-.27-.3-.46-.23-.19.06-.3.27-.24.46.02.05.35,1.24-1.31,2.8h-.2c-1.66-1.56-1.33-2.75-1.31-2.8.06-.19-.04-.4-.24-.46-.19-.06-.4.04-.46.23-.02.07-.54,1.77,1.73,3.75l.16.16-.02,8.4-4.09-4.11c-.09-.09-.16-.21-.2-.34l-.72-2.31c-.35-1.12-1.37-1.87-2.54-1.87l-4.97.19c-.07-.16-.35-.65-1.21-.84-.03,0-.06,0-.07.03-.02.02-.02.05,0,.08,0,.01.65,1.24,0,2.33-.01.03-.01.06,0,.08.02.02.05.03.08.03.04-.01.93-.26,1.14-1.05h5.05c.8,0,1.49.51,1.73,1.27l.72,2.31c.08.26.22.49.41.69l4.59,4.61c-.89-.25-3.79-1.11-5.76-2.18-.67-.37-1.49-.22-1.98.36-.5.59-1.13,1.51-1.32,2.56-.13.75-.47,1.48-.97,2.11-.62.79-1.77,2.12-3.74,3.97-.26-.03-1.83-.22-3.19.23-.03,0-.05.04-.05.07s.02.06.05.07c.03,0,3.15.91,3.76,3,0,.03.04.05.07.05h0s.06-.02.07-.05c.02-.07.59-1.67-.22-2.85l4.31-4.64s.74-.68,1.14-2.03c.24-.79.68-1.39,1-1.76.17-.19.46-.24.69-.1,1.04.61,3.71,2.04,6.24,2.3v2.47s-5.69,5.53-5.69,5.53c-.82.8-.99,2.05-.41,3.04,1.24,2.11,1.35,4.68.29,6.88l-1.98,4.11c-.58-.18-1.4-.04-1.99.12-.13.03-.22.15-.22.29,0,.14.08.25.21.29.97.29,2.22.93,2.71,2.33.04.11.15.18.27.18.12,0,.23-.09.25-.21.16-.72.2-1.74-.47-2.55l2.08-4.36c1.14-2.38,1.1-5.2-.11-7.54l-.06-.12c-.19-.37-.09-.83.25-1.08l5.1-3.87h.07l5.1,3.87c.33.25.44.71.25,1.08l-.06.12c-1.21,2.34-1.25,5.16-.11,7.54l2.08,4.36c-.67.81-.63,1.83-.47,2.55.03.12.13.2.25.21,0,0,.01,0,.02,0,.12,0,.21-.07.25-.18.48-1.39,1.74-2.04,2.71-2.33.13-.04.22-.15.21-.29,0-.14-.09-.25-.22-.29-.59-.16-1.41-.3-1.99-.12l-1.98-4.11c-1.06-2.2-.96-4.77.29-6.88.58-.99.41-2.24-.41-3.04l-5.71-5.53v-2.47c2.54-.26,5.22-1.69,6.26-2.3.23-.13.52-.09.69.1.33.37.77.97,1,1.76.41,1.35,1.11,2,1.14,2.03l4.31,4.65c-.81,1.18-.25,2.78-.22,2.85.01.03.04.05.07.05h0s.06-.02.07-.05c.61-2.09,3.73-2.99,3.76-3,.03,0,.05-.04.05-.07s-.02-.06-.05-.07Z"/>
      <path class="cls-1" d="M33.48,30.83c.86,0,1.05-1.2.24-1.48l-.55-.18v-.58h.64c.78,0,.95-1.09.21-1.33l-.89-.29v-.58c.8-.27,1.35-1.02,1.35-1.87v-.85c0-.55-.44-.99-.99-.99.81-1.08,0-2.09,0-2.09.83,0,1.49-.71,1.41-1.53-.45-4.53-2.89-4.53-2.89-4.53,0,0-2.44,0-2.89,4.53-.08.82.58,1.53,1.41,1.53,0,0-.81,1.01,0,2.09-.55,0-.99.44-.99.99v.85c0,.85.54,1.6,1.35,1.87v.58l-.89.29c-.74.24-.57,1.33.21,1.33h.64v.58l-.55.18c-.81.27-.62,1.48.24,1.48,0,0-1.93,1.26-1.93,3.99s1.35,4.98,3.41,4.98,3.41-2.24,3.41-4.98-1.93-3.99-1.93-3.99Z"/>
    </g>
  </g>
</svg>