<?xml version="1.0" encoding="UTF-8"?>
<svg id="Horizontal" xmlns="http://www.w3.org/2000/svg" viewBox="0 0 64 64">
  <path d="M20.54,32.46s-.01.04-.03.04c-.02,0-1.87.54-2.23,1.78,0,.02-.02.03-.04.03h0s-.03-.01-.04-.03c-.01-.04-.35-.98.13-1.68l-2.55-2.75s-.43-.4-.67-1.2c-.14-.47-.4-.82-.59-1.04-.1-.11-.27-.14-.41-.06-.54.32-1.84,1.02-3.17,1.28v.21l.53.17c.44.14.34.79-.12.79h-.38v.34l.33.11c.41.14.38.68.05.83l2.44,2.37c.49.47.59,1.21.24,1.79-.73,1.25-.8,2.77-.17,4.07l1.17,2.43c.34-.11.83-.02,1.18.07.08.02.13.09.13.17,0,.08-.05.15-.13.17-.57.17-1.31.55-1.6,1.38-.02.06-.08.1-.15.1,0,0,0,0-.01,0-.07,0-.13-.06-.15-.13-.09-.43-.12-1.03.28-1.51l-1.23-2.58c-.67-1.41-.65-3.07.07-4.46l.04-.07c.11-.22.05-.49-.15-.64l-1.02-.77s0,0,0,.01c0,1.62-.8,2.95-2.02,2.95s-2.02-1.33-2.02-2.95c0,0,0,0,0-.01l-1.02.77c-.2.15-.26.42-.14.64l.04.07c.71,1.39.74,3.05.07,4.46l-1.23,2.58c.4.48.37,1.08.28,1.51-.02.07-.07.12-.15.13-.07,0-.14-.04-.16-.1-.29-.82-1.03-1.2-1.6-1.38-.08-.02-.13-.09-.13-.17,0-.08.05-.15.13-.17.35-.09.84-.18,1.18-.07l1.17-2.43c.63-1.3.57-2.82-.17-4.07-.34-.58-.24-1.32.24-1.79l2.44-2.37c-.34-.15-.36-.69.05-.83l.33-.11v-.34h-.38c-.46,0-.56-.65-.12-.79l.53-.17v-.21c-1.33-.26-2.63-.96-3.17-1.28-.14-.08-.31-.05-.41.06-.19.22-.45.57-.59,1.04-.24.8-.66,1.18-.68,1.2l-2.55,2.74c.48.7.15,1.64.13,1.68,0,.02-.02.03-.04.03h0s-.04-.01-.04-.03c-.36-1.24-2.21-1.77-2.23-1.78-.02,0-.03-.02-.03-.04,0-.02.01-.04.03-.04.81-.27,1.74-.16,1.89-.14,1.16-1.09,1.84-1.88,2.21-2.35.3-.38.49-.81.57-1.25.11-.62.48-1.17.78-1.51.29-.34.77-.43,1.17-.21.66.36,1.5.68,2.2.92-.02-.09-.05-.19-.05-.29v-.5s.01-.05.02-.08l-1.48-1.49c-.11-.11-.2-.25-.24-.41l-.43-1.37c-.14-.45-.55-.75-1.02-.75h-2.99c-.12.47-.65.61-.67.62-.02,0-.04,0-.05-.02-.01-.01-.01-.03,0-.05.38-.65,0-1.37,0-1.38,0-.01,0-.03,0-.05.01-.01.03-.02.04-.02.51.11.67.4.72.5l2.94-.11c.69,0,1.3.44,1.5,1.1l.43,1.37c.02.08.07.14.12.2l1.41,1.42c.08-.05.18-.08.28-.08-.48-.64,0-1.23,0-1.23-.49,0-.88-.42-.83-.91.14-1.36.58-2.03.97-2.36-.74-.93-.53-1.65-.51-1.69.04-.11.16-.18.27-.14.11.04.18.16.14.27,0,.03-.16.57.47,1.33.22-.09.37-.09.37-.09,0,0,.15,0,.37.09.63-.76.47-1.3.47-1.33-.04-.11.03-.23.14-.27.11-.04.24.02.27.14.01.04.22.76-.51,1.69.4.33.84,1,.97,2.36.05.49-.34.91-.83.91,0,0,.48.6,0,1.23.1,0,.2.03.28.08l1.41-1.42c.06-.06.1-.13.12-.2l.43-1.37c.21-.66.81-1.1,1.5-1.1l2.94.11c.04-.1.21-.38.72-.5.02,0,.03,0,.04.02.01.01.01.03,0,.05,0,0-.38.73,0,1.38,0,.02,0,.03,0,.05-.01.01-.03.02-.05.02-.02,0-.55-.15-.67-.62h-2.99c-.47,0-.88.3-1.02.75l-.43,1.37c-.05.15-.13.29-.24.41l-1.48,1.49s.02.05.02.08v.5c0,.1-.02.19-.05.29.7-.24,1.54-.55,2.2-.92.4-.22.88-.13,1.17.21.3.35.67.89.78,1.51.08.44.28.87.57,1.25.53.67,1.29,1.48,2.21,2.35.15-.02,1.08-.13,1.89.14.02,0,.03.02.03.04ZM29.37,30.51c-.07-.27-.18-.52-.32-.75s-.3-.44-.49-.64c-.19-.19-.4-.36-.64-.49-.23-.14-.48-.24-.75-.32-.27-.07-.55-.11-.84-.11h-1.9v6.29h1.9c.29,0,.57-.04.84-.11.27-.07.52-.18.75-.32.23-.14.45-.3.64-.49.19-.19.35-.4.49-.64s.24-.48.32-.75c.07-.27.11-.55.11-.84s-.04-.57-.11-.84ZM28.07,32.08c-.1.23-.23.43-.4.6-.17.17-.37.31-.6.4-.23.1-.47.15-.74.15h-.63v-3.77h.63c.26,0,.51.05.74.15.23.1.43.23.6.41.17.17.31.37.4.6.1.23.15.47.15.73s-.05.51-.15.74ZM31.54,28.2c-.04-.1-.1-.18-.17-.25-.07-.07-.16-.13-.26-.17-.1-.04-.2-.06-.31-.06s-.22.02-.31.06c-.1.04-.18.1-.25.17-.07.07-.13.16-.17.25-.04.1-.06.2-.06.31s.02.21.06.31c.04.1.1.18.17.25.07.07.16.13.25.17.1.04.2.06.31.06s.22-.02.31-.06c.1-.04.18-.1.26-.17.07-.07.13-.16.17-.25s.06-.2.06-.31-.02-.21-.06-.31ZM31.39,29.79h-1.21v4.7h1.21v-4.7ZM35.46,34.37c.18-.08.34-.18.47-.32.13-.14.24-.29.32-.47.08-.18.12-.37.12-.58s-.04-.39-.12-.57c-.08-.17-.19-.32-.32-.44-.13-.12-.29-.22-.47-.29-.18-.07-.37-.1-.58-.1h-1.25c-.08,0-.15-.03-.21-.09-.06-.06-.09-.13-.09-.22s.03-.15.09-.21.13-.09.21-.09h2.43v-1.19h-2.43c-.21,0-.4.04-.58.12-.18.08-.34.18-.47.32-.13.13-.24.29-.32.47s-.12.38-.12.58.04.4.12.58.18.34.32.48c.13.14.29.24.47.32.18.08.38.12.58.12h1.25c.08,0,.15.01.21.04s.09.08.09.17-.03.15-.09.21-.13.09-.21.09h-2.74v1.19h2.74c.2,0,.4-.04.58-.12ZM41.56,29.8h-.29l-.46.56c-.11-.1-.23-.2-.36-.29-.13-.09-.26-.17-.4-.24-.14-.07-.29-.12-.43-.16-.15-.04-.3-.06-.45-.06-.33,0-.64.06-.93.19s-.55.3-.76.52c-.22.22-.39.49-.52.79-.13.3-.19.63-.19.99,0,.39.06.73.19,1.04.13.31.3.57.52.78.22.21.47.38.76.49.29.11.6.17.93.17.1,0,.21,0,.32-.02.12-.01.23-.03.33-.06.11-.03.2-.07.29-.12.09-.05.16-.11.2-.19-.03.12-.08.23-.13.34s-.13.2-.22.29c-.09.08-.2.15-.33.2-.13.05-.29.07-.48.07h-.59s0,1.19,0,1.19h.6c.33,0,.64-.05.93-.18.29-.13.55-.3.76-.51.22-.22.39-.47.52-.76.13-.29.19-.6.19-.93v-4.1ZM40.26,32.57c-.06.15-.15.29-.26.41-.11.12-.23.21-.38.29-.15.07-.3.11-.46.11s-.32-.03-.46-.09c-.15-.06-.27-.15-.38-.26s-.19-.25-.25-.4c-.06-.16-.09-.33-.09-.53s.03-.39.09-.55c.06-.16.15-.29.25-.4.11-.11.23-.19.38-.25.14-.06.3-.08.46-.08s.32.04.46.11c.15.07.27.17.38.29.11.12.19.25.26.41.06.15.09.31.09.48s-.03.32-.09.48ZM46.59,30.63c-.11-.16-.24-.3-.39-.43-.15-.13-.3-.23-.47-.32-.17-.09-.35-.16-.53-.2-.19-.05-.38-.07-.57-.07-.33,0-.64.06-.93.18s-.55.29-.76.5c-.22.22-.39.48-.52.79-.13.31-.19.65-.19,1.02s.06.7.19,1c.13.3.3.56.52.78.22.22.47.39.76.51s.6.18.93.18c.2,0,.39-.02.57-.07.19-.04.36-.11.53-.2.17-.09.32-.19.47-.32.14-.13.27-.27.38-.43l-.88-.88c-.05.11-.11.2-.18.29-.07.09-.16.16-.25.22-.09.06-.2.11-.3.14s-.22.05-.34.05c-.05,0-.09,0-.14,0-.05,0-.09-.01-.14-.03l2.25-2.71ZM43.56,32.72s-.04-.09-.06-.14c-.01-.05-.03-.11-.04-.16s-.02-.11-.02-.17,0-.11,0-.15c0-.2.03-.37.09-.53.06-.16.15-.29.25-.4.11-.11.23-.2.38-.26.14-.06.3-.09.46-.09.06,0,.11,0,.17,0s.11.02.16.04l-1.4,1.85ZM50.35,34.37c.18-.08.34-.18.47-.32.13-.14.24-.29.32-.47.08-.18.12-.37.12-.58s-.04-.39-.12-.57c-.08-.17-.19-.32-.32-.44-.13-.12-.29-.22-.47-.29-.18-.07-.37-.1-.58-.1h-1.25c-.08,0-.15-.03-.21-.09-.06-.06-.09-.13-.09-.22s.03-.15.09-.21.13-.09.21-.09h2.43v-1.19h-2.43c-.21,0-.4.04-.58.12-.18.08-.34.18-.47.32-.13.13-.24.29-.32.47s-.12.38-.12.58.04.4.12.58.18.34.32.48c.13.14.29.24.47.32.18.08.38.12.58.12h1.25c.08,0,.15.01.21.04s.09.08.09.17-.03.15-.09.21-.13.09-.21.09h-2.74v1.19h2.74c.2,0,.4-.04.58-.12ZM55.17,34.49v-1.19h-.91c-.13,0-.24-.02-.36-.07-.11-.05-.21-.11-.29-.2-.08-.08-.15-.18-.19-.29-.05-.11-.07-.23-.07-.35v-1.4h1.82v-1.19h-1.82v-1.88h-1.19v1.88h-.58v1.19h.58v1.4c0,.29.05.56.16.82.11.25.26.48.45.67.19.19.42.34.67.45.25.11.53.16.82.16h.91ZM59.95,30.63c-.11-.16-.24-.3-.39-.43-.15-.13-.3-.23-.47-.32-.17-.09-.35-.16-.53-.2-.19-.05-.38-.07-.57-.07-.33,0-.64.06-.93.18s-.55.29-.76.5c-.22.22-.39.48-.52.79-.13.31-.19.65-.19,1.02s.06.7.19,1c.13.3.3.56.52.78.22.22.47.39.76.51s.6.18.93.18c.2,0,.39-.02.57-.07.19-.04.36-.11.53-.2.17-.09.32-.19.47-.32.14-.13.27-.27.38-.43l-.88-.88c-.05.11-.11.2-.18.29-.07.09-.16.16-.25.22-.09.06-.2.11-.3.14s-.22.05-.34.05c-.05,0-.09,0-.14,0-.05,0-.09-.01-.14-.03l2.25-2.71ZM56.93,32.72s-.04-.09-.06-.14c-.01-.05-.03-.11-.04-.16s-.02-.11-.02-.17,0-.11,0-.15c0-.2.03-.37.09-.53.06-.16.15-.29.25-.4.11-.11.23-.2.38-.26.14-.06.3-.09.46-.09.06,0,.11,0,.17,0s.11.02.16.04l-1.4,1.85ZM61.75,31.9c0-.13.02-.24.07-.36.05-.11.11-.21.19-.29.08-.08.18-.15.29-.19s.23-.07.36-.07h1.06v-1.19h-1.06c-.26,0-.52.05-.76.14-.25.09-.46.23-.66.41l-.39-.56h-.29v4.7h1.2v-2.59Z"/>
</svg>