<?xml version="1.0" encoding="UTF-8"?>
<svg id="Outline" xmlns="http://www.w3.org/2000/svg" viewBox="0 0 64 64">
  <path d="M34.74.97c.24,0,.46.15.54.39.03.09.59,1.99-1.34,4.43,1.05.87,2.19,2.62,2.55,6.18.13,1.28-.9,2.38-2.19,2.38,0,0,1.25,1.57,0,3.24.27,0,.53.08.75.2l3.69-3.71c.15-.15.25-.33.32-.53l1.12-3.59c.54-1.73,2.12-2.9,3.94-2.9l7.72.29c.11-.25.54-1,1.88-1.3,0,0,.02,0,.03,0,.04,0,.07.02.09.05.03.04.03.08,0,.12,0,.02-1,1.92,0,3.62.02.04.02.09,0,.13-.02.03-.06.04-.09.04,0,0-.02,0-.03,0-.06-.02-1.45-.4-1.76-1.62h-7.83c-1.23,0-2.31.79-2.68,1.97l-1.12,3.59c-.12.4-.35.77-.64,1.06l-3.86,3.89c.01.07.02.14.02.22v1.31c0,.26-.04.51-.1.75,1.83-.62,4.03-1.46,5.76-2.4.38-.21.8-.31,1.2-.31.7,0,1.39.3,1.87.87.77.91,1.76,2.34,2.05,3.97.21,1.16.72,2.29,1.5,3.28,1.38,1.75,3.38,3.88,5.8,6.15.19-.03.84-.1,1.7-.1.95,0,2.15.1,3.25.47.05.02.08.06.08.11,0,.05-.03.09-.08.11-.05.01-4.89,1.41-5.84,4.66-.01.05-.06.08-.11.08h0s-.09-.03-.11-.07c-.04-.11-.92-2.58.34-4.42l-6.69-7.21s-1.14-1.05-1.77-3.14c-.37-1.22-1.05-2.16-1.56-2.73-.16-.18-.4-.28-.63-.28-.15,0-.3.04-.44.12-1.42.83-4.83,2.67-8.32,3.36v.54l1.39.45c1.15.37.88,2.06-.32,2.06h-.99v.91l.86.29c1.08.36,1.01,1.78.13,2.18l6.4,6.2c1.28,1.24,1.54,3.17.64,4.71-1.93,3.27-2.09,7.26-.44,10.67l3.08,6.38c.3-.09.63-.13.98-.13.71,0,1.49.15,2.11.31.21.05.34.23.35.44,0,.21-.13.39-.33.45-1.5.45-3.45,1.45-4.2,3.61-.06.17-.21.27-.39.27,0,0-.02,0-.03,0-.19-.01-.35-.15-.39-.33-.24-1.12-.31-2.7.73-3.96l-3.23-6.76c-1.76-3.69-1.7-8.06.17-11.7l.1-.19c.3-.58.14-1.28-.38-1.68l-2.67-2.03s0,.02,0,.03c0,4.25-2.09,7.73-5.29,7.73s-5.29-3.48-5.29-7.73c0,0,0-.02,0-.03l-2.67,2.03c-.52.39-.68,1.1-.38,1.68l.1.19c1.87,3.64,1.94,8.01.17,11.7l-3.23,6.76c1.04,1.25.97,2.84.73,3.96-.04.19-.2.32-.39.33,0,0,0,0,0,0-.19,0-.35-.1-.42-.27-.75-2.16-2.7-3.16-4.2-3.61-.2-.06-.33-.24-.33-.45,0-.21.14-.39.35-.44.62-.16,1.39-.31,2.1-.31.35,0,.69.04.99.13l3.08-6.38c1.65-3.41,1.48-7.4-.44-10.67-.9-1.53-.64-3.47.64-4.71l6.4-6.2c-.88-.4-.95-1.82.13-2.18l.86-.29v-.91h-.99c-1.2,0-1.47-1.69-.32-2.06l1.39-.45v-.54c-3.48-.69-6.89-2.52-8.32-3.36-.14-.08-.29-.12-.44-.12-.24,0-.47.1-.63.28-.51.57-1.19,1.5-1.56,2.73-.63,2.09-1.73,3.11-1.77,3.15l-6.68,7.2c1.26,1.83.38,4.31.34,4.42-.02.05-.06.07-.11.07h0s-.09-.03-.11-.08c-.95-3.24-5.79-4.64-5.84-4.66-.05-.01-.08-.06-.08-.11,0-.05.03-.1.08-.11,1.11-.37,2.31-.47,3.26-.47.86,0,1.51.08,1.7.1,3.05-2.87,4.83-4.93,5.8-6.15.78-.99,1.3-2.12,1.5-3.28.29-1.63,1.27-3.06,2.05-3.97.48-.57,1.17-.87,1.87-.87.41,0,.82.1,1.2.31,1.73.94,3.93,1.78,5.76,2.4-.06-.24-.1-.49-.1-.75v-1.31c0-.07.01-.15.02-.22l-3.86-3.89c-.29-.3-.52-.66-.64-1.06l-1.12-3.59c-.37-1.18-1.44-1.97-2.68-1.97h-7.83c-.31,1.23-1.7,1.61-1.76,1.62,0,0-.02,0-.03,0-.03,0-.07-.02-.09-.05-.03-.04-.03-.09,0-.13,1-1.7,0-3.6,0-3.62-.02-.04-.02-.09,0-.12.02-.03.06-.04.09-.04,0,0,.02,0,.02,0,1.34.29,1.77,1.05,1.88,1.3l7.72-.29c1.82,0,3.4,1.16,3.94,2.9l1.12,3.59c.06.2.17.38.32.53l3.69,3.71c.22-.13.48-.2.75-.2-1.25-1.67,0-3.24,0-3.24-1.28,0-2.31-1.1-2.19-2.38.35-3.56,1.5-5.31,2.55-6.18-1.94-2.44-1.37-4.34-1.34-4.43.08-.24.3-.39.54-.39.06,0,.12,0,.18.03.3.1.46.42.37.71-.02.07-.42,1.49,1.23,3.48.56-.24.97-.25.97-.25,0,0,.4,0,.97.25,1.65-1.99,1.25-3.41,1.22-3.48-.09-.3.07-.62.37-.71.06-.02.12-.03.18-.03M34.74,0h0c-.16,0-.33.03-.48.08-.8.26-1.24,1.12-.99,1.93,0,.01.18.8-.66,2.05-.32-.07-.54-.08-.6-.08-.07,0-.3,0-.62.08-.84-1.25-.66-2.04-.65-2.08.25-.77-.2-1.64-1-1.9C29.59.03,29.43,0,29.26,0c-.67,0-1.25.43-1.46,1.06-.08.23-.63,2.15.99,4.62-1.21,1.37-1.96,3.45-2.24,6.19-.09.87.2,1.74.79,2.39.28.31.61.55.98.73-.06.21-.1.42-.12.65l-2.24-2.26s-.06-.08-.08-.13l-1.12-3.59c-.67-2.14-2.62-3.58-4.87-3.58l-7.2.27c-.37-.46-1.04-1-2.19-1.26-.07-.02-.16-.03-.23-.03-.34,0-.66.16-.86.43-.26.34-.29.8-.09,1.17,0,0,.73,1.47.02,2.67-.22.39-.19.86.07,1.2.2.27.52.43.86.43.09,0,.21-.02.29-.04.16-.04,1.47-.42,2.14-1.59h7.19c.81,0,1.51.52,1.75,1.29l1.12,3.59c.17.55.47,1.05.88,1.46l3.56,3.58v.5c-1.69-.62-3.13-1.25-4.23-1.85-.51-.28-1.09-.43-1.67-.43-1,0-1.95.44-2.61,1.21-.85,1-1.94,2.58-2.26,4.43-.18,1-.63,1.99-1.31,2.85-.91,1.15-2.57,3.07-5.38,5.74-.34-.03-.81-.06-1.36-.06-1.34,0-2.54.17-3.56.52-.44.14-.75.58-.74,1.06.01.48.33.89.79,1.02.03,0,4.38,1.31,5.17,3.99.13.45.53.76,1,.78h0c.49,0,.9-.29,1.06-.71.1-.28.87-2.56-.06-4.6l6.18-6.66c.24-.23,1.36-1.39,2.01-3.56.3-1,.85-1.79,1.29-2.29,1.13.66,3.62,2,6.41,2.88-.57.44-.86,1.15-.74,1.91.1.66.49,1.19,1.03,1.48-.4.36-.64.87-.67,1.44-.02.42.08.82.27,1.18l-5.71,5.53c-1.6,1.55-1.93,3.98-.8,5.9,1.76,2.99,1.91,6.63.4,9.76l-2.76,5.72c-.14-.01-.28-.02-.43-.02-.68,0-1.47.12-2.35.35-.63.16-1.06.71-1.07,1.36-.01.65.4,1.21,1.02,1.4,1.29.39,2.95,1.22,3.57,3,.2.56.72.93,1.33.93.02,0,.04,0,.07,0,.63-.04,1.14-.48,1.27-1.09.35-1.64.16-3.1-.56-4.26l2.99-6.25c1.89-3.96,1.82-8.66-.19-12.56l-.1-.19c-.08-.16-.04-.35.1-.46l1.24-.94c.56,4.08,2.97,6.87,6.14,6.87s5.58-2.79,6.14-6.86l1.24.94c.14.11.19.3.1.46l-.1.19c-2.01,3.9-2.08,8.6-.19,12.56l2.99,6.25c-.72,1.16-.91,2.62-.56,4.26.13.61.64,1.05,1.27,1.09.02,0,.04,0,.06,0h0c.63,0,1.14-.36,1.33-.93.62-1.78,2.28-2.61,3.56-3,.62-.19,1.03-.75,1.02-1.4-.01-.65-.44-1.2-1.07-1.36-.88-.23-1.67-.35-2.35-.35-.15,0-.29,0-.43.02l-2.76-5.72c-1.51-3.12-1.36-6.77.4-9.76,1.13-1.92.8-4.35-.8-5.9l-5.71-5.53c.19-.35.29-.76.27-1.18-.03-.57-.27-1.07-.67-1.43.54-.29.93-.82,1.03-1.48.12-.76-.17-1.47-.74-1.91,2.79-.88,5.27-2.22,6.41-2.88.44.5.99,1.28,1.29,2.29.65,2.16,1.77,3.32,2.01,3.55l6.19,6.67c-.96,2.12-.1,4.5-.06,4.61.15.42.56.71,1.02.71.5-.02.9-.33,1.04-.77.79-2.7,5.14-3.99,5.18-4.01.45-.12.77-.55.78-1.02,0-.48-.3-.91-.76-1.05-1.01-.34-2.21-.51-3.54-.51-.55,0-1.02.03-1.36.06-2.23-2.12-4.09-4.1-5.38-5.74-.68-.86-1.13-1.85-1.31-2.85-.33-1.84-1.41-3.42-2.26-4.43-.66-.77-1.61-1.21-2.61-1.21-.58,0-1.15.15-1.66.43-1.09.6-2.54,1.22-4.23,1.85v-.5l3.56-3.58c.41-.41.71-.91.88-1.46l1.12-3.58c.24-.77.94-1.29,1.75-1.29h7.19c.67,1.17,1.99,1.55,2.16,1.59.08.02.19.04.28.04.33,0,.65-.16.86-.42.27-.37.3-.84.07-1.22-.71-1.2.02-2.67.03-2.68.19-.36.15-.82-.1-1.15-.22-.28-.53-.43-.87-.43-.07,0-.16,0-.23.02-1.16.26-1.83.8-2.2,1.26l-7.17-.27h0c-2.28,0-4.23,1.44-4.9,3.58l-1.12,3.59s-.04.1-.08.13l-2.24,2.26c-.02-.23-.07-.45-.12-.65.37-.18.7-.42.98-.73.59-.65.88-1.53.79-2.39-.27-2.74-1.02-4.82-2.24-6.19,1.61-2.47,1.06-4.39.99-4.62-.21-.64-.8-1.06-1.46-1.06h0Z"/>
</svg>