<?xml version="1.0" encoding="UTF-8"?>
<svg id="Favicon" xmlns="http://www.w3.org/2000/svg" viewBox="0 0 64 64">
  <path d="M54,0H10C4.48,0,0,4.48,0,10v44c0,5.52,4.48,10,10,10h44c5.52,0,10-4.48,10-10V10c0-5.52-4.48-10-10-10ZM52.92,33.01s-3.81,1.1-4.55,3.63c-.01.04-.04.06-.08.06h0s-.07-.02-.08-.06c-.03-.08-.72-2.01.27-3.44l-5.21-5.62s-.89-.82-1.38-2.45c-.29-.95-.82-1.68-1.21-2.12-.21-.23-.56-.29-.84-.13-1.11.65-3.77,2.08-6.48,2.61v.42l1.08.35c.89.29.69,1.61-.25,1.61h-.77v.71l.67.22c.84.28.79,1.38.1,1.7l4.99,4.83c1,.96,1.2,2.47.5,3.67-1.5,2.54-1.63,5.65-.34,8.31l2.4,4.97c.7-.22,1.69-.04,2.41.14.16.04.27.18.27.35,0,.17-.1.3-.26.35-1.17.35-2.69,1.13-3.27,2.81-.05.13-.16.21-.3.21,0,0-.01,0-.02,0-.15,0-.27-.11-.3-.26-.19-.87-.24-2.11.57-3.08l-2.52-5.27c-1.37-2.87-1.32-6.28.13-9.11l.08-.15c.23-.45.11-1-.3-1.31l-2.08-1.58s0,.02,0,.02c0,3.31-1.63,6.02-4.12,6.02s-4.12-2.71-4.12-6.02c0,0,0-.01,0-.02l-2.08,1.58c-.4.31-.53.86-.3,1.31l.08.15c1.46,2.83,1.51,6.24.13,9.11l-2.52,5.27c.81.98.76,2.21.57,3.08-.03.14-.15.25-.3.26-.15,0-.28-.07-.33-.21-.59-1.69-2.1-2.46-3.27-2.81-.16-.05-.26-.19-.26-.35,0-.17.11-.3.27-.35.72-.19,1.71-.36,2.41-.14l2.4-4.97c1.28-2.66,1.15-5.77-.34-8.31-.7-1.2-.5-2.7.5-3.67l4.99-4.83c-.69-.31-.74-1.41.1-1.7l.67-.22v-.71h-.77c-.94,0-1.15-1.32-.25-1.61l1.08-.35v-.42c-2.71-.54-5.37-1.96-6.48-2.61-.28-.16-.63-.11-.84.13-.4.44-.93,1.17-1.21,2.12-.49,1.63-1.35,2.42-1.38,2.45l-5.21,5.61c.98,1.43.3,3.36.27,3.44-.01.04-.05.06-.08.06h0s-.07-.03-.08-.06c-.74-2.53-4.51-3.62-4.55-3.63-.04-.01-.06-.04-.06-.08s.02-.07.06-.09c1.65-.55,3.55-.32,3.86-.28,2.37-2.24,3.77-3.84,4.52-4.79.61-.77,1.01-1.65,1.17-2.56.22-1.27.99-2.38,1.59-3.09.6-.7,1.58-.88,2.39-.44,1.35.73,3.06,1.39,4.49,1.87-.05-.19-.08-.38-.08-.59v-1.02c0-.06.02-.1.03-.16l-3.03-3.04c-.23-.23-.4-.52-.5-.83l-.87-2.79c-.29-.92-1.12-1.53-2.09-1.53h-6.1c-.24.95-1.33,1.25-1.37,1.27-.03,0-.07,0-.09-.03-.02-.03-.02-.07,0-.1.78-1.32,0-2.81,0-2.82-.02-.03-.01-.07,0-.1.02-.03.06-.04.09-.03,1.04.23,1.38.81,1.46,1.01l6.01-.23c1.42,0,2.65.91,3.07,2.26l.87,2.79c.05.15.13.3.25.41l2.88,2.9c.17-.1.36-.17.58-.17-.98-1.3,0-2.52,0-2.52-1,0-1.8-.86-1.7-1.85.28-2.77,1.17-4.14,1.98-4.81-1.51-1.9-1.07-3.38-1.04-3.45.08-.23.33-.36.56-.28.23.08.36.32.28.56-.02.05-.33,1.16.96,2.71.44-.19.75-.19.75-.19,0,0,.31,0,.75.19,1.28-1.55.97-2.66.95-2.71-.07-.23.05-.48.29-.55.23-.08.48.05.56.28.02.07.46,1.55-1.04,3.45.81.67,1.71,2.04,1.98,4.81.1.99-.7,1.85-1.7,1.85,0,0,.98,1.22,0,2.52.21,0,.4.07.58.17l2.88-2.9c.11-.11.2-.26.25-.41l.87-2.79c.42-1.35,1.65-2.26,3.07-2.26l6.02.23c.09-.2.42-.78,1.46-1.01.04,0,.07,0,.09.03.02.03.02.06,0,.1,0,.01-.78,1.5,0,2.82.02.03.02.07,0,.1-.02.03-.06.04-.09.03-.05-.01-1.13-.31-1.37-1.27h-6.1c-.96,0-1.8.62-2.09,1.53l-.87,2.79c-.1.31-.27.6-.5.83l-3.03,3.04c0,.05.03.1.03.16v1.02c0,.2-.03.4-.08.59,1.43-.48,3.14-1.14,4.49-1.87.81-.44,1.8-.26,2.39.44.6.71,1.37,1.82,1.59,3.09.16.9.56,1.79,1.17,2.56,1.08,1.37,2.64,3.02,4.52,4.79.31-.04,2.21-.27,3.86.28.04.01.06.05.06.09s-.03.07-.06.08Z"/>
</svg>