<?xml version="1.0" encoding="UTF-8"?>
<svg id="Abstract" xmlns="http://www.w3.org/2000/svg" viewBox="0 0 64 64">
  <defs>
    <style>
      .cls-1 {
        fill: #373737;
      }

      .cls-2 {
        fill: #8d6e63;
      }
    </style>
  </defs>
  <g>
    <path class="cls-1" d="M8.21,28.81c0,.47-.06.93-.18,1.36s-.29.84-.52,1.22c-.22.38-.49.72-.8,1.04-.31.31-.66.58-1.04.8s-.79.4-1.23.52c-.44.12-.89.18-1.36.18H0v-10.25h3.09c.47,0,.93.06,1.36.18.44.12.84.29,1.23.52s.73.49,1.04.8c.31.31.58.66.8,1.04.22.38.4.79.52,1.22.12.44.18.89.18,1.36ZM6.16,28.81c0-.42-.08-.82-.24-1.19-.16-.37-.38-.7-.66-.98s-.61-.5-.98-.66c-.37-.16-.77-.24-1.2-.24h-1.02v6.15h1.02c.42,0,.82-.08,1.2-.24s.7-.38.98-.66c.28-.28.5-.61.66-.98.16-.37.24-.77.24-1.2Z"/>
    <path class="cls-1" d="M11.67,24.2c0,.18-.03.35-.1.51s-.16.29-.28.41-.26.21-.42.28c-.16.07-.33.1-.51.1s-.35-.03-.51-.1c-.16-.07-.3-.16-.41-.28-.12-.12-.21-.25-.28-.41s-.1-.33-.1-.51.03-.34.1-.5c.07-.16.16-.3.28-.41.12-.12.25-.21.41-.28.16-.07.33-.1.51-.1s.35.03.51.1c.16.07.3.16.42.28s.21.25.28.41c.07.16.1.33.1.5ZM11.33,33.94h-1.97v-7.66h1.97v7.66Z"/>
    <path class="cls-1" d="M17.02,33.94h-4.46v-1.94h4.46c.13,0,.25-.05.34-.14.1-.09.14-.21.14-.34s-.05-.23-.14-.27c-.1-.04-.21-.06-.34-.06h-2.03c-.34,0-.66-.06-.95-.19-.3-.13-.55-.3-.77-.53-.22-.22-.39-.48-.52-.78-.13-.29-.19-.61-.19-.95s.06-.66.19-.95c.13-.29.3-.55.52-.77s.48-.39.77-.52c.3-.13.61-.19.95-.19h3.95v1.95h-3.95c-.13,0-.25.05-.34.14-.1.1-.14.21-.14.34s.05.26.14.35c.1.1.21.15.34.15h2.03c.33,0,.65.06.94.17.3.11.55.27.77.47s.39.44.52.72c.13.28.19.59.19.92s-.06.65-.19.95c-.13.29-.3.55-.52.77-.22.22-.48.4-.77.52-.3.13-.61.19-.94.19Z"/>
    <path class="cls-1" d="M32.44,32.06c.08.02.15.04.23.05.08,0,.15.01.23.01.19,0,.37-.03.55-.08.18-.05.34-.13.5-.23s.29-.22.41-.36c.12-.14.22-.3.3-.47l1.43,1.44c-.18.26-.39.49-.63.69s-.49.38-.76.52-.56.25-.87.33c-.3.07-.61.11-.93.11-.54,0-1.04-.1-1.52-.3-.47-.2-.89-.48-1.24-.84-.36-.36-.64-.78-.84-1.28-.21-.49-.31-1.03-.31-1.63s.1-1.16.31-1.66c.2-.5.49-.93.84-1.28.35-.35.77-.63,1.24-.82.47-.2.98-.29,1.52-.29.32,0,.63.04.94.11.31.08.59.19.87.33.27.14.53.32.77.52.24.21.45.44.63.7l-3.66,4.41ZM33.44,28.04c-.09-.03-.18-.05-.27-.06-.09,0-.18-.01-.28-.01-.27,0-.52.05-.75.15-.24.1-.44.24-.61.42-.17.18-.31.4-.41.65-.1.25-.15.54-.15.86,0,.07,0,.15.01.24,0,.09.02.18.04.27.02.09.04.18.06.27s.05.16.09.23l2.27-3.02Z"/>
    <path class="cls-1" d="M41.28,33.94h-4.46v-1.94h4.46c.13,0,.25-.05.34-.14.1-.09.14-.21.14-.34s-.05-.23-.14-.27c-.1-.04-.21-.06-.34-.06h-2.03c-.34,0-.66-.06-.95-.19-.3-.13-.55-.3-.77-.53-.22-.22-.39-.48-.52-.78-.13-.29-.19-.61-.19-.95s.06-.66.19-.95c.13-.29.3-.55.52-.77s.48-.39.77-.52c.3-.13.61-.19.95-.19h3.95v1.95h-3.95c-.13,0-.25.05-.34.14-.1.1-.14.21-.14.34s.05.26.14.35c.1.1.21.15.34.15h2.03c.33,0,.65.06.94.17.3.11.55.27.77.47s.39.44.52.72c.13.28.19.59.19.92s-.06.65-.19.95c-.13.29-.3.55-.52.77-.22.22-.48.4-.77.52-.3.13-.61.19-.94.19Z"/>
    <path class="cls-1" d="M48.59,33.94c-.47,0-.92-.09-1.33-.27-.41-.18-.78-.42-1.09-.74-.31-.31-.56-.68-.74-1.09-.18-.41-.27-.86-.27-1.33v-2.27h-.95v-1.95h.95v-3.06h1.94v3.06h2.96v1.95h-2.96v2.27c0,.21.04.4.11.58s.18.33.31.47.29.24.47.32c.18.08.37.12.58.12h1.48v1.94h-1.48Z"/>
    <path class="cls-1" d="M54.21,32.06c.08.02.15.04.23.05.08,0,.15.01.23.01.19,0,.37-.03.55-.08.18-.05.34-.13.5-.23s.29-.22.41-.36c.12-.14.22-.3.3-.47l1.43,1.44c-.18.26-.39.49-.63.69s-.49.38-.76.52-.56.25-.87.33c-.3.07-.61.11-.93.11-.54,0-1.04-.1-1.52-.3-.47-.2-.89-.48-1.24-.84-.36-.36-.64-.78-.84-1.28-.21-.49-.31-1.03-.31-1.63s.1-1.16.31-1.66c.2-.5.49-.93.84-1.28.35-.35.77-.63,1.24-.82.47-.2.98-.29,1.52-.29.32,0,.63.04.94.11.31.08.59.19.87.33.27.14.53.32.77.52.24.21.45.44.63.7l-3.66,4.41ZM55.21,28.04c-.09-.03-.18-.05-.27-.06-.09,0-.18-.01-.28-.01-.27,0-.52.05-.75.15-.24.1-.44.24-.61.42-.17.18-.31.4-.41.65-.1.25-.15.54-.15.86,0,.07,0,.15.01.24,0,.09.02.18.04.27.02.09.04.18.06.27s.05.16.09.23l2.27-3.02Z"/>
    <path class="cls-1" d="M60.8,33.94h-1.95v-7.66h.47l.64.91c.31-.29.67-.51,1.07-.66.4-.16.81-.23,1.24-.23h1.72v1.95h-1.72c-.2,0-.4.04-.58.11-.18.08-.34.18-.47.31-.13.13-.24.29-.31.47-.08.18-.11.37-.11.58v4.22Z"/>
  </g>
  <g>
    <path class="cls-2" d="M34.44,32.24c-.74-.25-1.6-.15-1.74-.13-.85-.8-1.55-1.55-2.04-2.16-.27-.35-.46-.75-.53-1.15-.1-.57-.45-1.07-.72-1.39-.27-.32-.71-.4-1.08-.2-1.07.58-2.66,1.05-3.14,1.19l2.5-2.52c.1-.1.18-.23.23-.37l.39-1.26c.13-.41.51-.69.94-.69h2.75c.11.43.6.57.62.57.02,0,.03,0,.04-.01,0-.01.01-.03,0-.04-.35-.6,0-1.27,0-1.27,0-.01,0-.03,0-.04,0-.01-.02-.02-.04-.01-.47.1-.62.37-.66.46l-2.71-.1c-.64,0-1.19.41-1.38,1.02l-.39,1.26c-.02.07-.06.13-.11.18l-2.23,2.24v-4.58s.07-.09.07-.09c1.24-1.08.96-2.01.94-2.05-.03-.1-.15-.16-.25-.13-.1.03-.16.15-.13.25,0,.03.19.67-.72,1.53h-.11c-.91-.85-.72-1.5-.72-1.53.03-.1-.02-.22-.13-.25-.1-.03-.22.02-.25.13-.01.04-.3.97.94,2.05l.09.09v4.58s-2.24-2.24-2.24-2.24c-.05-.05-.09-.12-.11-.18l-.39-1.26c-.19-.61-.75-1.02-1.39-1.02l-2.71.1c-.04-.09-.19-.35-.66-.46-.01,0-.03,0-.04.01,0,.01-.01.03,0,.04,0,0,.35.68,0,1.27,0,.01,0,.03,0,.04,0,.01.03.02.04.01.02,0,.51-.14.62-.57h2.75c.43,0,.81.28.94.69l.39,1.26c.04.14.12.27.23.37l2.5,2.52c-.48-.14-2.07-.61-3.14-1.19-.37-.2-.81-.12-1.08.2-.27.32-.62.82-.72,1.39-.07.41-.25.81-.53,1.15-.34.43-.97,1.15-2.04,2.16-.14-.02-1-.12-1.74.13-.02,0-.03.02-.03.04s.01.03.03.04c.02,0,1.72.5,2.05,1.64,0,.02.02.03.04.03h0s.03-.01.04-.03c.01-.04.32-.91-.12-1.55l2.35-2.53s.4-.37.62-1.11c.13-.43.37-.76.55-.96.09-.11.25-.13.38-.06.57.33,2.03,1.11,3.4,1.25v1.35s-3.1,3.01-3.1,3.01c-.45.44-.54,1.12-.22,1.66.68,1.15.73,2.55.16,3.75l-1.08,2.24c-.32-.1-.76-.02-1.09.07-.07.02-.12.08-.12.16,0,.08.04.14.12.16.53.16,1.21.51,1.48,1.27.02.06.08.1.15.1.07,0,.12-.05.14-.12.08-.39.11-.95-.26-1.39l1.14-2.38c.62-1.3.6-2.83-.06-4.11l-.03-.07c-.1-.2-.05-.45.13-.59l2.78-2.11h.04l2.78,2.11c.18.14.24.39.13.59l-.03.07c-.66,1.28-.68,2.82-.06,4.11l1.14,2.38c-.36.44-.34,1-.26,1.39.01.07.07.11.14.12,0,0,0,0,.01,0,.06,0,.12-.04.14-.1.26-.76.95-1.11,1.48-1.27.07-.02.12-.08.12-.16,0-.08-.05-.14-.12-.16-.32-.08-.77-.16-1.09-.07l-1.08-2.24c-.58-1.2-.52-2.6.16-3.75.32-.54.23-1.22-.22-1.66l-3.11-3.01v-1.35c1.39-.14,2.85-.92,3.41-1.25.12-.07.28-.05.38.06.18.2.42.53.55.96.22.74.61,1.09.62,1.1l2.35,2.53c-.44.64-.13,1.51-.12,1.55,0,.02.02.03.04.03h0s.03-.01.04-.03c.33-1.14,2.04-1.63,2.05-1.64.02,0,.03-.02.03-.04s-.01-.03-.03-.04Z"/>
    <path class="cls-2" d="M25.81,31.22c.47,0,.58-.66.13-.8l-.3-.1v-.32h.35c.42,0,.52-.59.11-.72l-.49-.16v-.32c.44-.15.73-.56.73-1.02v-.46c0-.3-.24-.54-.54-.54.44-.59,0-1.14,0-1.14.45,0,.81-.39.77-.83-.25-2.47-1.58-2.47-1.58-2.47,0,0-1.33,0-1.58,2.47-.04.45.32.83.77.83,0,0-.44.55,0,1.14-.3,0-.54.24-.54.54v.46c0,.46.3.87.73,1.02v.32l-.49.16c-.4.13-.31.72.11.72h.35v.32l-.3.1c-.44.15-.34.8.13.8,0,0-1.05.69-1.05,2.18s.73,2.72,1.86,2.72,1.86-1.22,1.86-2.72-1.05-2.18-1.05-2.18Z"/>
  </g>
</svg>