<?xml version="1.0" encoding="UTF-8"?>
<svg id="Vertical" xmlns="http://www.w3.org/2000/svg" viewBox="0 0 64 64">
  <defs>
    <style>
      .cls-1 {
        fill: #24292f;
        fill-rule: evenodd;
      }

      .cls-2 {
        fill: #0f0d0e;
      }
    </style>
  </defs>
  <g id="solid">
    <g>
      <path class="cls-2" d="M14.83,55.34h-4.69c-.12,0-.22.1-.22.22v2.29c0,.12.1.22.22.22h1.83v2.85s-.41.14-1.55.14c-1.34,0-3.21-.49-3.21-4.61s1.95-4.66,3.78-4.66c1.59,0,2.27.28,2.7.41.14.04.26-.09.26-.22l.52-2.22c0-.06-.02-.12-.08-.17-.18-.13-1.25-.73-3.97-.73-3.13,0-6.35,1.33-6.35,7.74s3.68,7.36,6.78,7.36c2.57,0,4.13-1.1,4.13-1.1.06-.04.07-.13.07-.17v-7.16c0-.12-.1-.22-.22-.22Z"/>
      <path class="cls-2" d="M39.02,49.64c0-.12-.1-.22-.22-.22h-2.64c-.12,0-.22.1-.22.22,0,0,0,5.11,0,5.11h-4.12v-5.11c0-.12-.1-.22-.22-.22h-2.64c-.12,0-.22.1-.22.22v13.83c0,.12.1.22.22.22h2.64c.12,0,.22-.1.22-.22v-5.92h4.12s0,5.92,0,5.92c0,.12.1.22.22.22h2.65c.12,0,.22-.1.22-.22v-13.83Z"/>
      <g>
        <path class="cls-2" d="M19.82,51.46c0-.95-.76-1.72-1.7-1.72s-1.7.77-1.7,1.72.76,1.72,1.7,1.72,1.7-.77,1.7-1.72Z"/>
        <path class="cls-2" d="M19.63,60.55v-6.38c0-.12-.1-.22-.22-.22h-2.63c-.12,0-.23.12-.23.25v9.15c0,.27.17.35.38.35h2.37c.26,0,.32-.13.32-.35v-2.78Z"/>
      </g>
      <path class="cls-2" d="M49.06,53.97h-2.62c-.12,0-.22.1-.22.22v6.78s-.67.49-1.61.49-1.2-.43-1.2-1.36v-5.91c0-.12-.1-.22-.22-.22h-2.66c-.12,0-.22.1-.22.22v6.36c0,2.75,1.53,3.42,3.64,3.42,1.73,0,3.12-.96,3.12-.96,0,0,.07.5.1.56.03.06.11.12.19.12h1.69c.12,0,.22-.11.22-.23v-9.28c0-.12-.1-.22-.22-.22Z"/>
      <path class="cls-2" d="M56.23,53.66c-1.49,0-2.5.66-2.5.66v-4.68c0-.12-.1-.22-.22-.22h-2.65c-.12,0-.22.1-.22.22v13.83c0,.12.1.22.22.22h1.84c.08,0,.15-.04.19-.12.05-.07.11-.64.11-.64,0,0,1.08,1.03,3.14,1.03,2.41,0,3.79-1.22,3.79-5.48s-2.21-4.82-3.7-4.82ZM55.2,61.45c-.91-.03-1.53-.44-1.53-.44v-4.38s.61-.37,1.36-.44c.94-.08,1.85.2,1.85,2.45,0,2.38-.41,2.84-1.68,2.81Z"/>
      <path class="cls-2" d="M27.22,53.95h-1.98s0-2.62,0-2.62c0-.1-.05-.15-.17-.15h-2.7c-.11,0-.16.05-.16.15v2.71s-1.35.33-1.45.35c-.09.03-.16.11-.16.21v1.7c0,.12.1.22.22.22h1.39v4.09c0,3.04,2.13,3.34,3.57,3.34.66,0,1.44-.21,1.57-.26.08-.03.12-.11.12-.2v-1.87c0-.12-.1-.22-.22-.22s-.41.05-.72.05c-.97,0-1.3-.45-1.3-1.04s0-3.89,0-3.89h1.98c.12,0,.22-.1.22-.22v-2.13c0-.12-.1-.22-.22-.22Z"/>
    </g>
    <path class="cls-1" d="M32.02,0C20.19,0,10.64,9.63,10.64,21.54c0,9.52,6.12,17.58,14.62,20.43,1.06.21,1.45-.46,1.45-1.03,0-.5-.04-2.21-.04-3.99-5.95,1.28-7.19-2.57-7.19-2.57-.96-2.5-2.37-3.14-2.37-3.14-1.95-1.32.14-1.32.14-1.32,2.16.14,3.29,2.21,3.29,2.21,1.91,3.28,4.99,2.35,6.23,1.78.18-1.39.74-2.35,1.35-2.89-4.74-.5-9.73-2.35-9.73-10.63,0-2.35.85-4.28,2.19-5.78-.21-.53-.96-2.75.21-5.71,0,0,1.81-.57,5.88,2.21,1.74-.47,3.54-.71,5.35-.71,1.81,0,3.65.25,5.34.71,4.07-2.78,5.88-2.21,5.88-2.21,1.17,2.96.42,5.17.21,5.71,1.38,1.5,2.19,3.42,2.19,5.78,0,8.27-4.99,10.09-9.77,10.63.78.68,1.45,1.96,1.45,3.99,0,2.89-.04,5.21-.04,5.92,0,.57.39,1.25,1.45,1.03,8.5-2.85,14.62-10.91,14.62-20.43.04-11.91-9.56-21.54-21.34-21.54Z"/>
  </g>
</svg>