<?xml version="1.0" encoding="UTF-8"?>
<svg id="Outline" xmlns="http://www.w3.org/2000/svg" viewBox="0 0 64 64">
  <defs>
    <style>
      .cls-1 {
        fill: #231f20;
      }
    </style>
  </defs>
  <g id="compound">
    <path class="cls-1" d="M41.03,63.49c-.96,0-1.62-.36-2.04-.7-.72-.59-1.13-1.5-1.13-2.49,0-.34,0-.93.01-1.72.01-1.58.04-3.95.04-6.68s-1.04-4.03-1.49-4.42c-.5-.43-.69-1.12-.5-1.75s.75-1.08,1.4-1.16c6.44-.72,12.4-2.85,12.4-13.44,0-2.77-.9-5.15-2.68-7.08-.43-.47-.56-1.14-.32-1.74.26-.65.95-2.84.05-5.87-.98.14-3.02.7-6.22,2.89-.4.27-.9.36-1.37.23-2.29-.62-4.76-.95-7.15-.95-2.42,0-4.82.32-7.16.96-.47.13-.97.04-1.37-.23-3.18-2.17-5.2-2.74-6.22-2.88-.9,3.03-.21,5.21.05,5.86.23.59.11,1.25-.31,1.72-1.79,1.99-2.69,4.38-2.69,7.1,0,10.7,6.24,12.8,12.34,13.44.65.07,1.21.52,1.41,1.14.2.63.01,1.31-.48,1.75-.33.29-1.13,1.18-1.37,3.07-.07.57-.43,1.06-.95,1.3-2.87,1.32-6.58,1.55-9.36-1.12.5.99,2.37,3.54,8.17,2.3.49-.11,1,.02,1.39.33.39.32.62.79.62,1.29,0,1.65.02,3.25.04,4.36,0,.6.01,1.06.01,1.31,0,.99-.41,1.9-1.13,2.49-.53.44-1.47.9-2.91.61-.07-.01-.13-.03-.2-.05C8.8,58.95,0,46.66,0,32.76,0,14.97,14.37.51,32.02.51c8.52,0,16.54,3.34,22.58,9.39,6.08,6.1,9.42,14.22,9.39,22.86,0,13.9-8.8,26.19-21.89,30.59-.07.02-.13.04-.2.05-.31.06-.61.09-.87.09ZM41.58,61.78h0,0ZM40.38,47.47c.48,1.1.84,2.54.84,4.43,0,2.75-.02,5.13-.04,6.71,0,.67-.01,1.2-.01,1.55,11.67-3.98,19.51-14.98,19.51-27.41.02-7.76-2.97-15.04-8.43-20.52-5.41-5.43-12.6-8.42-20.23-8.42C16.2,3.82,3.32,16.8,3.32,32.76c0,12.43,7.83,23.42,19.5,27.4,0-.27,0-.65-.01-1.12,0-.67-.02-1.53-.03-2.46-6.45.66-9.44-2.91-10.13-5.08-1.03-2.68-2.45-3.44-2.51-3.47-.06-.03-.16-.08-.21-.12-.64-.43-2.33-1.58-1.82-3.24.32-1.06,1.4-1.66,2.95-1.66.04,0,.07,0,.11,0,3.93.26,5.94,3.85,6.02,4,1.63,2.8,3.99,2.81,5.92,2.14.13-.58.3-1.12.52-1.63-4.88-.92-12.62-3.97-12.62-16.37,0-3.18,1-6.12,2.92-8.57-.43-1.61-.84-4.65.62-8.35.18-.46.57-.82,1.04-.97.54-.17,3.43-.8,9.15,2.93,2.38-.58,4.83-.88,7.29-.88,2.43,0,4.93.3,7.29.88,5.72-3.72,8.61-3.1,9.15-2.93.48.15.86.51,1.04.97,1.46,3.69,1.05,6.72.62,8.34,1.93,2.41,2.91,5.3,2.91,8.58,0,11.69-6.61,15.15-12.66,16.34Z"/>
  </g>
</svg>