<?xml version="1.0" encoding="UTF-8"?>
<svg id="Favicon" xmlns="http://www.w3.org/2000/svg" viewBox="0 0 64 64">
  <defs>
    <style>
      .cls-1 {
        fill: #231f20;
        fill-rule: evenodd;
      }
    </style>
  </defs>
  <g id="compound">
    <path class="cls-1" d="M54,0H10C4.48,0,0,4.48,0,10v44c0,5.52,4.48,10,10,10h44c5.52,0,10-4.48,10-10V10c0-5.52-4.48-10-10-10ZM38.31,51.63c-.99.2-1.36-.43-1.36-.97,0-.67.03-2.84.03-5.54,0-1.9-.63-3.1-1.36-3.74,4.47-.5,9.15-2.2,9.15-9.95,0-2.2-.76-4.01-2.05-5.41.2-.5.9-2.57-.2-5.34,0,0-1.69-.53-5.5,2.07-1.59-.43-3.31-.67-5-.67-1.69,0-3.37.23-5,.67-3.81-2.6-5.5-2.07-5.5-2.07-1.09,2.77-.4,4.84-.2,5.34-1.26,1.4-2.05,3.2-2.05,5.41,0,7.75,4.67,9.48,9.11,9.95-.56.5-1.09,1.4-1.26,2.7-1.16.53-4.04,1.4-5.83-1.67,0,0-1.06-1.94-3.08-2.07,0,0-1.96,0-.13,1.24,0,0,1.33.6,2.22,2.94,0,0,1.16,3.61,6.73,2.4,0,1.67.03,3.27.03,3.74,0,.53-.36,1.17-1.36.97-7.95-2.67-13.69-10.22-13.69-19.13,0-11.15,8.95-20.17,20.02-20.17s20.02,9.01,19.98,20.17c0,8.91-5.73,16.46-13.69,19.13Z"/>
  </g>
</svg>