<?xml version="1.0" encoding="UTF-8"?>
<svg id="Horizontal" xmlns="http://www.w3.org/2000/svg" viewBox="0 0 64 64">
  <defs>
    <style>
      .cls-1 {
        fill: #24292f;
        fill-rule: evenodd;
      }

      .cls-2 {
        fill: #0f0d0e;
      }
    </style>
  </defs>
  <g id="solid">
    <g>
      <path class="cls-2" d="M31.98,31.23h-3.33c-.09,0-.16.07-.16.16v1.63c0,.09.07.16.16.16h1.3v2.02s-.29.1-1.1.1c-.95,0-2.28-.35-2.28-3.27s1.38-3.31,2.69-3.31c1.13,0,1.61.2,1.92.29.1.03.19-.07.19-.15l.37-1.57s-.01-.09-.06-.12c-.13-.09-.89-.52-2.82-.52-2.22,0-4.51.95-4.51,5.5s2.61,5.23,4.81,5.23c1.82,0,2.93-.78,2.93-.78.05-.03.05-.09.05-.12v-5.08c0-.09-.07-.16-.16-.16Z"/>
      <path class="cls-2" d="M49.16,27.18c0-.09-.07-.16-.15-.16h-1.88c-.09,0-.16.07-.16.16,0,0,0,3.63,0,3.63h-2.92v-3.63c0-.09-.07-.16-.15-.16h-1.88c-.09,0-.15.07-.15.16v9.82c0,.09.07.16.15.16h1.88c.09,0,.15-.07.15-.16v-4.2h2.92s0,4.2,0,4.2c0,.09.07.16.16.16h1.88c.09,0,.15-.07.15-.16v-9.82Z"/>
      <g>
        <path class="cls-2" d="M35.52,28.47c0-.68-.54-1.22-1.21-1.22s-1.21.55-1.21,1.22.54,1.22,1.21,1.22,1.21-.55,1.21-1.22Z"/>
        <path class="cls-2" d="M35.39,34.93v-4.53c0-.09-.07-.16-.16-.16h-1.87c-.09,0-.16.09-.16.17v6.49c0,.19.12.25.27.25h1.69c.18,0,.23-.09.23-.25v-1.98Z"/>
      </g>
      <path class="cls-2" d="M56.29,30.26h-1.86c-.09,0-.15.07-.15.16v4.81s-.47.35-1.14.35-.85-.3-.85-.96v-4.2c0-.09-.07-.16-.15-.16h-1.89c-.09,0-.16.07-.16.16v4.52c0,1.95,1.09,2.43,2.59,2.43,1.23,0,2.22-.68,2.22-.68,0,0,.05.36.07.4.02.04.08.08.14.08h1.2c.09,0,.16-.08.16-.16v-6.59c0-.09-.07-.16-.16-.16Z"/>
      <path class="cls-2" d="M61.38,30.04c-1.06,0-1.78.47-1.78.47v-3.32c0-.09-.07-.16-.15-.16h-1.88c-.09,0-.16.07-.16.16v9.82c0,.09.07.16.16.16h1.31c.06,0,.1-.03.14-.08.03-.05.08-.45.08-.45,0,0,.77.73,2.23.73,1.71,0,2.69-.87,2.69-3.89s-1.57-3.42-2.62-3.42ZM60.64,35.57c-.65-.02-1.08-.31-1.08-.31v-3.11s.43-.26.96-.31c.67-.06,1.32.14,1.32,1.74,0,1.69-.29,2.02-1.2,1.99Z"/>
      <path class="cls-2" d="M40.78,30.24h-1.41s0-1.86,0-1.86c0-.07-.04-.11-.12-.11h-1.92c-.07,0-.11.03-.11.1v1.92s-.96.23-1.03.25c-.06.02-.11.08-.11.15v1.21c0,.09.07.16.16.16h.98v2.9c0,2.16,1.51,2.37,2.53,2.37.47,0,1.02-.15,1.12-.18.06-.02.09-.08.09-.14v-1.33c0-.09-.07-.16-.15-.16s-.29.03-.51.03c-.69,0-.93-.32-.93-.74s0-2.76,0-2.76h1.41c.09,0,.16-.07.16-.16v-1.51c0-.09-.07-.16-.16-.16Z"/>
    </g>
    <path class="cls-1" d="M10.28,21.9c-5.68,0-10.28,4.63-10.28,10.35,0,4.58,2.94,8.45,7.03,9.82.51.1.7-.22.7-.5,0-.24-.02-1.06-.02-1.92-2.86.62-3.45-1.23-3.45-1.23-.46-1.2-1.14-1.51-1.14-1.51-.94-.63.07-.63.07-.63,1.04.07,1.58,1.06,1.58,1.06.92,1.58,2.4,1.13,2.99.86.08-.67.36-1.13.65-1.39-2.28-.24-4.68-1.13-4.68-5.11,0-1.13.41-2.06,1.05-2.78-.1-.26-.46-1.32.1-2.74,0,0,.87-.27,2.82,1.06.84-.23,1.7-.34,2.57-.34.87,0,1.75.12,2.57.34,1.96-1.34,2.82-1.06,2.82-1.06.56,1.42.2,2.49.1,2.74.66.72,1.06,1.65,1.06,2.78,0,3.98-2.4,4.85-4.7,5.11.37.33.7.94.7,1.92,0,1.39-.02,2.5-.02,2.85,0,.27.19.6.7.5,4.08-1.37,7.03-5.25,7.03-9.82.02-5.73-4.59-10.35-10.26-10.35Z"/>
  </g>
</svg>