<?xml version="1.0" encoding="UTF-8"?>
<svg id="Symbol" xmlns="http://www.w3.org/2000/svg" viewBox="0 0 64 64">
  <defs>
    <style>
      .cls-1 {
        fill: #24292f;
        fill-rule: evenodd;
      }
    </style>
  </defs>
  <g id="solid">
    <path class="cls-1" d="M32.03.53C14.32.53,0,14.96,0,32.8c0,14.26,9.17,26.33,21.9,30.61,1.59.32,2.17-.69,2.17-1.55,0-.75-.05-3.31-.05-5.98-8.91,1.92-10.76-3.85-10.76-3.85-1.43-3.74-3.55-4.7-3.55-4.7-2.92-1.98.21-1.98.21-1.98,3.23.21,4.93,3.31,4.93,3.31,2.86,4.91,7.48,3.53,9.33,2.67.26-2.08,1.11-3.53,2.02-4.33-7.11-.75-14.58-3.53-14.58-15.92,0-3.53,1.27-6.41,3.29-8.65-.32-.8-1.43-4.11.32-8.55,0,0,2.7-.85,8.8,3.31,2.61-.71,5.3-1.07,8.01-1.07,2.7,0,5.46.37,8.01,1.07,6.1-4.17,8.8-3.31,8.8-3.31,1.75,4.43.64,7.75.32,8.55,2.07,2.24,3.29,5.13,3.29,8.65,0,12.39-7.48,15.12-14.63,15.92,1.17,1.01,2.17,2.94,2.17,5.98,0,4.33-.05,7.8-.05,8.87,0,.85.58,1.87,2.17,1.55,12.73-4.27,21.9-16.35,21.9-30.61.05-17.84-14.32-32.26-31.97-32.26Z"/>
  </g>
</svg>