<?xml version="1.0" encoding="UTF-8"?>
<svg id="Text" xmlns="http://www.w3.org/2000/svg" viewBox="0 0 64 64">
  <defs>
    <style>
      .cls-1 {
        fill: #0f0d0e;
      }
    </style>
  </defs>
  <g id="_x33_d">
    <path class="cls-1" d="M12.47,30.76h-5.34c-.14,0-.25.11-.25.25v2.61c0,.14.11.25.25.25h2.08v3.24s-.47.16-1.76.16c-1.53,0-3.66-.56-3.66-5.24s2.22-5.3,4.3-5.3c1.8,0,2.58.32,3.07.47.16.05.3-.11.3-.24l.6-2.52c0-.06-.02-.14-.1-.19-.2-.14-1.43-.83-4.52-.83-3.56,0-7.22,1.52-7.22,8.81s4.19,8.38,7.71,8.38c2.92,0,4.69-1.25,4.69-1.25.07-.04.08-.14.08-.19v-8.14c0-.14-.11-.25-.25-.25Z"/>
    <path class="cls-1" d="M39.98,24.28c0-.14-.11-.25-.25-.25h-3.01c-.14,0-.25.11-.25.25,0,0,0,5.81,0,5.81h-4.69v-5.81c0-.14-.11-.25-.25-.25h-3.01c-.14,0-.25.11-.25.25v15.73c0,.14.11.25.25.25h3.01c.14,0,.25-.11.25-.25v-6.73h4.69s0,6.73,0,6.73c0,.14.11.25.25.25h3.01c.14,0,.25-.11.25-.25v-15.73Z"/>
    <g>
      <path class="cls-1" d="M18.14,26.35c0-1.08-.87-1.96-1.94-1.96s-1.94.87-1.94,1.96.87,1.96,1.94,1.96,1.94-.88,1.94-1.96Z"/>
      <path class="cls-1" d="M17.93,36.69v-7.26c0-.14-.11-.25-.25-.25h-3c-.14,0-.26.14-.26.28v10.4c0,.31.19.4.44.4h2.7c.3,0,.37-.15.37-.4v-3.17Z"/>
    </g>
    <path class="cls-1" d="M51.41,29.21h-2.98c-.14,0-.25.11-.25.25v7.71s-.76.55-1.83.55-1.36-.49-1.36-1.54v-6.73c0-.14-.11-.25-.25-.25h-3.03c-.14,0-.25.11-.25.25v7.24c0,3.13,1.74,3.89,4.14,3.89,1.97,0,3.55-1.09,3.55-1.09,0,0,.08.57.11.64.03.07.12.14.22.14h1.93c.14,0,.25-.12.25-.26v-10.56c0-.14-.11-.25-.25-.25Z"/>
    <path class="cls-1" d="M59.56,28.85c-1.69,0-2.85.76-2.85.76v-5.33c0-.14-.11-.25-.25-.25h-3.01c-.14,0-.25.11-.25.25v15.73c0,.14.11.25.25.25h2.09c.09,0,.17-.05.22-.13.05-.08.13-.73.13-.73,0,0,1.23,1.17,3.57,1.17,2.74,0,4.31-1.39,4.31-6.24s-2.51-5.48-4.2-5.48ZM58.39,37.72c-1.03-.03-1.74-.5-1.74-.5v-4.98s.69-.42,1.54-.5c1.07-.1,2.11.23,2.11,2.79,0,2.7-.47,3.24-1.91,3.19Z"/>
    <path class="cls-1" d="M26.57,29.18h-2.25s0-2.98,0-2.98c0-.11-.06-.17-.19-.17h-3.07c-.12,0-.18.05-.18.17v3.08s-1.54.37-1.64.4c-.1.03-.18.13-.18.24v1.93c0,.14.11.25.25.25h1.58v4.65c0,3.46,2.42,3.8,4.06,3.8.75,0,1.64-.24,1.79-.29.09-.03.14-.13.14-.23v-2.13c0-.14-.11-.25-.25-.25s-.47.05-.81.05c-1.11,0-1.48-.51-1.48-1.18s0-4.42,0-4.42h2.26c.14,0,.25-.11.25-.25v-2.42c0-.14-.11-.25-.25-.25Z"/>
  </g>
</svg>