<?xml version="1.0" encoding="UTF-8"?>
<svg id="Favicon" xmlns="http://www.w3.org/2000/svg" viewBox="0 0 64 64">
  <defs>
    <style>
      .cls-1 {
        fill: #fff;
        fill-rule: evenodd;
      }

      .cls-2 {
        fill: #24292f;
      }
    </style>
  </defs>
  <g id="solid">
    <rect class="cls-2" width="64" height="64" rx="10" ry="10"/>
    <path class="cls-1" d="M32.02,12.33c-11.07,0-20.02,9.01-20.02,20.17,0,8.91,5.73,16.46,13.69,19.13.99.2,1.36-.43,1.36-.97,0-.47-.03-2.07-.03-3.74-5.57,1.2-6.73-2.4-6.73-2.4-.89-2.34-2.22-2.94-2.22-2.94-1.82-1.24.13-1.24.13-1.24,2.02.13,3.08,2.07,3.08,2.07,1.79,3.07,4.67,2.2,5.83,1.67.17-1.3.7-2.2,1.26-2.7-4.44-.47-9.11-2.2-9.11-9.95,0-2.2.79-4.01,2.05-5.41-.2-.5-.89-2.57.2-5.34,0,0,1.69-.53,5.5,2.07,1.63-.44,3.31-.67,5-.67,1.69,0,3.41.23,5,.67,3.81-2.6,5.5-2.07,5.5-2.07,1.09,2.77.4,4.84.2,5.34,1.29,1.4,2.05,3.2,2.05,5.41,0,7.75-4.67,9.45-9.15,9.95.73.63,1.36,1.84,1.36,3.74,0,2.7-.03,4.87-.03,5.54,0,.53.36,1.17,1.36.97,7.95-2.67,13.69-10.22,13.69-19.13.03-11.15-8.95-20.17-19.98-20.17Z"/>
  </g>
</svg>