<?xml version="1.0" encoding="UTF-8"?>
<svg id="Layer_1" xmlns="http://www.w3.org/2000/svg" viewBox="0 0 64 64">
  <defs>
    <style>
      .cls-1 {
        fill: #231f20;
      }
    </style>
  </defs>
  <path class="cls-1" d="M50.36,27.8c-7.13,0-12.93-5.8-12.93-12.93S43.23,1.94,50.36,1.94s12.93,5.8,12.93,12.93-5.8,12.93-12.93,12.93ZM50.36,5.48c-5.18,0-9.4,4.22-9.4,9.4s4.22,9.4,9.4,9.4,9.4-4.22,9.4-9.4-4.22-9.4-9.4-9.4ZM50.37,14.04c.17,0,.61.04.95.4.73.79,2.91,3.51,3.1,3.79.1.17.31.65-.06,1.47-.33.74-1.15.84-1.17.85-.07,0-.1,0-.16.03-.03,0-.1.02-.21.02-.16,0-.3-.03-.44-.08l-.53-2.16c.3-.37.46-.84.46-1.34,0-1.16-.92-2.11-2.05-2.11s-2.02.95-2.02,2.11c0,.49.17.97.46,1.34l-.53,2.16c-.13.06-.28.08-.44.08-.11,0-.19-.01-.21-.02-.06-.02-.08-.02-.15-.03-.03,0-.85-.11-1.18-.85-.37-.82-.16-1.31-.07-1.46.2-.29,2.37-3.02,3.1-3.8.34-.36.75-.4.91-.4,0,0,.02,0,.02,0,.04,0,.07.01.09.01s.05,0,.09,0c0,0,.02,0,.04,0M50.37,13.1c-.08,0-.13,0-.13,0,0,0-.04,0-.12,0-.28,0-1.01.07-1.6.7-.75.81-3.04,3.67-3.21,3.94-.16.27-.57,1.09,0,2.36.57,1.27,1.94,1.4,1.94,1.4,0,0,.19.05.47.05.34,0,.81-.08,1.26-.43l.76-3.07c-.35-.21-.57-.6-.57-1.02,0-.65.47-1.17,1.08-1.17s1.11.52,1.11,1.17c0,.43-.22.82-.57,1.02l.76,3.07c.45.35.92.43,1.26.43.28,0,.47-.05.47-.05,0,0,1.37-.13,1.94-1.4.57-1.27.16-2.09,0-2.36-.16-.27-2.46-3.13-3.21-3.94-.59-.64-1.35-.7-1.64-.7h0ZM52.87,9.17s.02,0,.04,0c.12.01.23.08.33.21.22.27.32.73.26,1.19-.09.77-.57,1.31-.95,1.31-.01,0-.02,0-.04,0-.12-.01-.23-.08-.33-.21-.22-.27-.32-.73-.26-1.19.09-.77.57-1.31.95-1.31M52.87,8.23c-.91,0-1.73.93-1.88,2.14-.15,1.26.49,2.36,1.45,2.45.04,0,.08,0,.12,0,.91,0,1.73-.93,1.88-2.14.15-1.26-.49-2.36-1.45-2.45-.04,0-.08,0-.12,0h0ZM56.2,12.81s.02,0,.04,0c.12.01.23.08.33.21.22.27.32.73.26,1.19-.09.77-.57,1.31-.95,1.31-.01,0-.02,0-.04,0-.12-.01-.23-.08-.33-.21-.22-.27-.32-.73-.26-1.19.09-.77.57-1.31.95-1.31M56.2,11.87c-.91,0-1.73.93-1.88,2.14-.15,1.26.49,2.36,1.45,2.45.04,0,.08,0,.12,0,.91,0,1.73-.93,1.88-2.14.15-1.26-.49-2.36-1.45-2.45-.04,0-.08,0-.12,0h0ZM47.85,9.14c.37,0,.85.54.95,1.31.06.46-.05.92-.26,1.19-.1.13-.21.19-.33.21-.01,0-.02,0-.04,0-.37,0-.85-.54-.95-1.31-.06-.46.05-.92.26-1.19.1-.13.21-.19.33-.21.01,0,.02,0,.04,0M47.85,8.2s-.08,0-.12,0c-.95.09-1.6,1.18-1.45,2.45.15,1.21.98,2.14,1.88,2.14.04,0,.08,0,.12,0,.95-.09,1.6-1.18,1.45-2.45-.15-1.21-.98-2.14-1.88-2.14h0ZM44.53,12.79c.37,0,.85.54.95,1.31.06.46-.05.92-.26,1.19-.1.13-.21.19-.33.21-.01,0-.02,0-.04,0-.37,0-.85-.54-.95-1.31-.06-.46.05-.92.26-1.19.1-.13.21-.19.33-.21.01,0,.02,0,.04,0M44.53,11.84s-.08,0-.12,0c-.95.09-1.6,1.18-1.45,2.45.15,1.21.98,2.14,1.88,2.14.04,0,.08,0,.12,0,.95-.09,1.6-1.18,1.45-2.45-.15-1.21-.98-2.14-1.88-2.14h0ZM63.45,19.07c-.62,1.92-1.65,3.64-2.98,5.09v20.11c0,7.85-6.39,14.24-14.24,14.24H11.55c2.96,2.21,6.61,3.53,10.57,3.53h24.1c9.8,0,17.78-7.97,17.78-17.78v-20.9c0-1.49-.2-2.92-.55-4.3ZM56.12,44.18c0,5.52-4.49,10.01-10.01,10.01H13.54c-5.52,0-10.01-4.49-10.01-10.01v-22.71l26.36,14.08,15.05-8.03c-1.26-.54-2.43-1.28-3.46-2.15l-11.58,6.19L3.67,17.54c.77-4.76,4.89-8.41,9.87-8.41h24.34c.6-1.3,1.4-2.49,2.35-3.53H13.54C6.07,5.6,0,11.67,0,19.14v25.04c0,7.46,6.07,13.54,13.54,13.54h32.57c7.46,0,13.54-6.07,13.54-13.54v-19.19c-1.04.96-2.23,1.76-3.53,2.36v16.83Z"/>
</svg>