<?xml version="1.0" encoding="UTF-8"?>
<svg id="Layer_1" xmlns="http://www.w3.org/2000/svg" viewBox="0 0 64 64">
  <defs>
    <style>
      .cls-1 {
        fill: #231f20;
      }
    </style>
  </defs>
  <path class="cls-1" d="M18.84,32.52h-.39c-.13,0-.21.02-.25.07-.04.05-.05.13-.05.24v3.1h-1.47c-.19,0-.32-.03-.39-.09-.07-.06-.1-.16-.1-.31v-3.26c0-.27.05-.47.16-.59.11-.13.3-.19.58-.19h1.91v1.03ZM18.32,30.99h-1.36c-.25,0-.41-.04-.48-.12s-.11-.25-.11-.5v-1.68c0-.25.04-.42.11-.5s.24-.12.48-.12h1.36v2.92ZM19.83,28.08h1.47c.21,0,.34.04.4.12.06.08.09.25.09.5v3.3c0,.18-.03.31-.08.4-.05.08-.16.13-.34.13h-2.1v-1.03h.26c.13,0,.21-.02.24-.07.03-.05.05-.13.05-.24v-3.1ZM21.43,35.93h-1.36c-.25,0-.41-.04-.48-.12s-.11-.25-.11-.5v-1.69c0-.25.04-.42.11-.5.08-.08.24-.12.48-.12h1.36v2.93ZM23.77,28.08c.25,0,.41.04.51.12.09.08.15.25.19.5l.72,5.78c.02.17.07.29.14.34.07.05.19.08.35.09v1.03h-.49c-.64,0-1.06-.16-1.26-.47-.11-.17-.18-.33-.23-.49-.04-.16-.08-.39-.12-.69l-.85-6.2h1.04ZM26.6,35.93h-.67l1.18-7.23c.03-.25.09-.41.18-.49.09-.08.26-.13.51-.13h1.03l-1.09,6.42c-.05.28-.09.48-.13.61s-.09.27-.17.42c-.08.15-.19.26-.33.31-.14.06-.31.09-.53.09ZM31.55,35.93h-1.14c-.25,0-.41-.04-.48-.12-.08-.08-.11-.25-.11-.5v-6.62c0-.25.04-.42.11-.5.08-.08.24-.12.48-.12h1.14v7.85ZM34.85,35.93h-1.14c-.25,0-.41-.04-.48-.12-.08-.08-.11-.25-.11-.5v-6.62c0-.25.04-.42.11-.5.08-.08.24-.12.48-.12h1.14v7.85ZM38.14,35.94h-1.14c-.24,0-.4-.04-.48-.13-.08-.08-.12-.25-.12-.49v-6.63c0-.25.04-.41.12-.49.08-.08.24-.13.48-.13h1.14v7.86ZM41.56,31.99v1.84c.01.86-.1,1.43-.31,1.7s-.61.41-1.18.41h-1.6v-1.03h.8c.18,0,.3-.02.36-.07.06-.04.09-.13.09-.25v-5.15c0-.13-.03-.22-.09-.26-.06-.04-.18-.06-.36-.06h-.8v-1.03h1.71c.53,0,.9.12,1.1.36.21.24.31.71.31,1.42l-.02,2.13ZM45.89,28.33c.05,0,.1.01.16.04s.1.06.14.1l3,4.5h-.29s3.01-4.5,3.01-4.5c.08-.11.18-.16.29-.14.09,0,.16.03.22.09s.09.14.09.23v6.95c0,.09-.03.16-.1.23-.07.06-.15.1-.24.1s-.17-.03-.24-.1c-.07-.07-.1-.14-.1-.23v-6.29l.2.02-2.75,4.16s-.06.08-.1.1c-.05.03-.1.04-.15.04s-.1-.01-.15-.04c-.05-.02-.09-.06-.11-.1l-2.76-4.2.21-.14v6.45c0,.09-.03.16-.09.23-.06.06-.14.1-.23.1s-.17-.03-.23-.1c-.06-.07-.09-.14-.09-.23v-6.95c0-.08.03-.15.09-.22.06-.07.14-.1.23-.1ZM58.93,30.38c.09,0,.17.03.23.1.06.07.09.14.09.24v4.89c0,.09-.03.16-.1.23-.07.06-.14.1-.23.1-.1,0-.18-.03-.24-.1-.06-.07-.09-.14-.09-.23v-1.29l.18-.08c0,.2-.06.4-.17.61-.11.21-.27.41-.46.59-.2.18-.43.32-.69.43-.26.11-.55.17-.85.17-.49,0-.93-.13-1.32-.38s-.69-.6-.91-1.04c-.22-.44-.33-.94-.33-1.49s.11-1.06.34-1.49.53-.77.91-1.02c.38-.25.81-.37,1.29-.37.31,0,.6.05.87.16s.51.26.71.45.36.4.48.65c.12.24.17.49.17.75l-.23-.16v-1.38c0-.09.03-.17.09-.24.06-.07.14-.1.24-.1ZM56.67,35.43c.38,0,.72-.1,1.02-.3s.53-.47.7-.83.26-.74.26-1.18-.09-.8-.26-1.15-.4-.62-.7-.82c-.3-.2-.64-.3-1.02-.3s-.71.1-1.02.29c-.3.19-.54.46-.71.8s-.25.73-.25,1.17.08.83.25,1.18.4.63.7.83c.3.2.64.3,1.02.3ZM61.26,29.55c-.15,0-.27-.03-.34-.1-.08-.07-.11-.17-.11-.3v-.11c0-.13.04-.23.12-.3s.2-.1.34-.1c.14,0,.24.03.32.1.08.07.11.17.11.3v.11c0,.13-.04.23-.11.3-.08.07-.19.1-.33.1ZM61.59,35.6c0,.09-.03.16-.1.23-.07.06-.14.1-.23.1-.1,0-.18-.03-.24-.1-.06-.07-.09-.14-.09-.23v-5c0-.09.03-.16.09-.23.06-.07.14-.1.23-.1s.17.03.23.1c.06.07.09.14.09.23v5ZM64,35.6c0,.09-.03.16-.1.23-.07.06-.14.1-.23.1-.09,0-.17-.03-.23-.1-.06-.07-.09-.14-.09-.23v-7.39c0-.09.03-.16.1-.23.07-.06.14-.1.23-.1.09,0,.17.03.23.1.06.07.09.14.09.23v7.39ZM10.42,25.76c-1.16,0-2.1.94-2.1,2.1s.94,2.1,2.1,2.1,2.1-.94,2.1-2.1-.94-2.1-2.1-2.1ZM10.58,26.84c.03-.28.24-.5.45-.48.21.02.36.26.32.55-.03.28-.24.5-.45.48-.21-.02-.36-.26-.32-.55ZM9.85,26.36c.21-.02.41.19.45.48.03.28-.11.53-.32.55-.21.02-.41-.19-.45-.48-.03-.28.11-.53.32-.55ZM8.78,27.72c-.03-.28.11-.53.32-.55.21-.02.41.19.45.48.03.28-.11.53-.32.55-.21.02-.41-.19-.45-.48ZM11.52,29.02c-.13.28-.43.31-.43.31,0,0-.2.06-.39-.08l-.17-.69c.08-.05.13-.13.13-.23,0-.14-.11-.26-.25-.26s-.24.12-.24.26c0,.1.05.18.13.23l-.17.69c-.18.14-.39.08-.39.08,0,0-.31-.03-.43-.31-.13-.28-.04-.47,0-.53.04-.06.55-.7.72-.88.17-.18.39-.16.39-.16,0,0,.23-.02.4.16.17.18.68.82.72.88.04.06.13.24,0,.53ZM11.65,28.21c-.21-.02-.36-.26-.32-.55s.24-.5.45-.48c.21.02.36.26.32.55-.03.28-.24.5-.45.48ZM7.51,27.7c0-.45.1-.88.29-1.26H2.14c-1.1,0-2,.83-2.12,1.9l5.84,3.09,2.75-1.46c-.67-.53-1.09-1.35-1.09-2.27ZM9.44,30.44l-3.4,1.8c-.06.03-.12.05-.19.05s-.13-.02-.19-.05l-5.66-3v5.1c0,1.18.96,2.14,2.14,2.14h7.43c1.18,0,2.14-.96,2.14-2.14v-4.03c-.39.19-.82.3-1.28.3-.34,0-.67-.06-.97-.17ZM13.23,28.4c-.12.5-.38.95-.73,1.32v4.63c0,1.62-1.32,2.94-2.94,2.94H2.14c-.57,0-1.1-.16-1.55-.44.52.84,1.45,1.4,2.5,1.4h7.43c1.62,0,2.94-1.32,2.94-2.94v-5.77c0-.4-.08-.78-.22-1.13Z"/>
</svg>