<?xml version="1.0" encoding="UTF-8"?>
<svg id="Layer_1" xmlns="http://www.w3.org/2000/svg" viewBox="0 0 64 64">
  <defs>
    <style>
      .cls-1, .cls-2 {
        fill: #848685;
      }

      .cls-2 {
        fill-rule: evenodd;
      }

      .cls-3 {
        fill: #0c91f0;
      }
    </style>
  </defs>
  <g>
    <path class="cls-3" d="M35.7,11.58c0-2.15.5-4.19,1.38-6.01H10.15C4.93,5.56.63,9.52.06,14.59l27.75,14.7,13.08-6.93c-3.16-2.53-5.19-6.42-5.19-10.78Z"/>
    <path class="cls-3" d="M44.9,24.59l-16.19,8.58c-.28.15-.59.22-.9.22s-.62-.07-.9-.22L0,18.91v24.23c0,5.6,4.55,10.15,10.15,10.15h35.31c5.6,0,10.15-4.55,10.15-10.15v-19.18c-1.84.91-3.91,1.43-6.1,1.43-1.62,0-3.17-.28-4.62-.8Z"/>
  </g>
  <path class="cls-1" d="M62.93,14.88c-.59,2.39-1.8,4.54-3.46,6.26v22c0,7.72-6.28,14-14,14H10.15c-2.7,0-5.23-.77-7.37-2.1,2.47,3.98,6.88,6.63,11.9,6.63h35.31c7.72,0,14-6.28,14-14v-27.43c0-1.9-.38-3.71-1.07-5.36Z"/>
  <path class="cls-2" d="M49.54,2.32c-5.49,0-9.97,4.47-9.97,9.97s4.47,9.97,9.97,9.97,9.97-4.47,9.97-9.97-4.47-9.97-9.97-9.97ZM50.21,7.49c.16-1.34,1.12-2.36,2.13-2.27,1.01.09,1.7,1.26,1.54,2.6s-1.12,2.36-2.13,2.27c-1.01-.09-1.7-1.26-1.54-2.6ZM46.74,5.19c1.01-.09,1.97.92,2.13,2.27.16,1.34-.52,2.51-1.54,2.6s-1.97-.92-2.13-2.27.52-2.51,1.54-2.6ZM41.67,11.67c-.16-1.34.52-2.51,1.54-2.6s1.97.92,2.13,2.27-.52,2.51-1.54,2.6-1.97-.92-2.13-2.27ZM54.71,17.84c-.6,1.35-2.07,1.49-2.07,1.49,0,0-.97.28-1.84-.4l-.81-3.27c.37-.22.61-.64.61-1.09,0-.69-.53-1.24-1.18-1.24s-1.15.56-1.15,1.24c0,.45.23.87.61,1.09l-.81,3.27c-.87.68-1.84.4-1.84.4,0,0-1.46-.14-2.07-1.49-.6-1.35-.18-2.22,0-2.51s2.61-3.33,3.41-4.19,1.83-.74,1.83-.74c0,0,1.08-.12,1.88.74s3.24,3.91,3.41,4.19c.18.28.6,1.16,0,2.51ZM55.29,13.97c-1.01-.09-1.7-1.26-1.54-2.6s1.12-2.36,2.13-2.27,1.7,1.26,1.54,2.6c-.16,1.34-1.12,2.36-2.13,2.27Z"/>
</svg>