<?xml version="1.0" encoding="UTF-8"?>
<svg id="Layer_1" xmlns="http://www.w3.org/2000/svg" viewBox="0 0 64 64">
  <defs>
    <style>
      .cls-1 {
        fill: #231f20;
      }
    </style>
  </defs>
  <path class="cls-1" d="M4.27,32.04h-.51c-.17,0-.28.03-.32.09s-.07.17-.07.32v4.01h-1.9c-.24,0-.41-.04-.5-.12-.09-.08-.13-.21-.13-.4v-4.22c0-.35.07-.6.21-.77.14-.16.39-.25.75-.25h2.48v1.34ZM3.59,30.05h-1.76c-.32,0-.53-.05-.63-.15-.1-.1-.15-.32-.15-.65v-2.18c0-.33.05-.54.15-.65.1-.1.31-.16.63-.16h1.76v3.79ZM5.55,26.28h1.9c.27,0,.45.05.52.15.07.1.11.32.11.65v4.28c0,.23-.03.41-.1.51-.07.11-.21.16-.44.16h-2.72v-1.34h.34c.17,0,.27-.03.32-.09.04-.06.06-.17.06-.32v-4.01ZM7.62,36.46h-1.76c-.32,0-.53-.05-.63-.15s-.15-.32-.15-.65v-2.2c0-.33.05-.54.15-.65.1-.1.31-.16.63-.16h1.76v3.8ZM10.65,26.28c.32,0,.54.05.66.15.12.1.2.32.25.65l.93,7.49c.03.23.09.37.18.44.09.07.24.1.45.11v1.34h-.63c-.83,0-1.37-.2-1.63-.61-.14-.22-.24-.43-.3-.64-.06-.21-.11-.51-.15-.89l-1.1-8.04h1.35ZM14.32,36.46h-.87l1.54-9.38c.04-.32.12-.53.24-.64.12-.11.34-.16.66-.16h1.34l-1.41,8.32c-.07.36-.12.62-.16.79s-.12.35-.22.55c-.1.2-.24.33-.42.41-.18.08-.41.11-.69.11ZM20.74,36.46h-1.48c-.32,0-.53-.05-.63-.15-.1-.1-.15-.32-.15-.65v-8.58c0-.33.05-.54.15-.65.1-.1.31-.15.63-.15h1.48v10.18ZM25.01,36.46h-1.48c-.32,0-.53-.05-.63-.15s-.15-.32-.15-.65v-8.58c0-.33.05-.54.15-.65.1-.1.31-.15.63-.15h1.48v10.18ZM29.28,36.47h-1.48c-.31,0-.52-.05-.62-.16-.1-.11-.16-.32-.16-.64v-8.59c0-.32.05-.53.16-.64.1-.11.31-.16.62-.16h1.48v10.2ZM33.71,31.35v2.38c.01,1.12-.13,1.85-.41,2.2s-.79.53-1.54.53h-2.07v-1.34h1.04c.23,0,.39-.03.46-.08.07-.06.11-.16.11-.32v-6.67c0-.17-.04-.28-.11-.34-.08-.06-.23-.08-.46-.08h-1.04v-1.34h2.21c.69,0,1.16.16,1.43.47.27.31.4.93.4,1.84l-.03,2.76ZM39.33,26.6c.06,0,.13.02.2.05.07.03.13.08.18.13l3.89,5.83h-.38s3.9-5.83,3.9-5.83c.1-.14.23-.2.38-.18.11,0,.21.04.29.12.08.08.12.18.12.3v9.01c0,.11-.04.21-.13.3s-.2.13-.32.13-.23-.04-.31-.13c-.08-.08-.13-.18-.13-.3v-8.15l.25.03-3.56,5.39c-.03.06-.07.1-.13.13-.06.03-.12.05-.19.05s-.13-.02-.19-.05c-.06-.03-.11-.08-.15-.13l-3.58-5.45.27-.18v8.36c0,.11-.04.21-.12.3s-.18.13-.3.13-.22-.04-.3-.13c-.07-.08-.11-.18-.11-.3v-9.01c0-.1.04-.2.12-.29.08-.09.18-.13.3-.13ZM56.23,29.26c.12,0,.22.04.3.13.08.08.12.19.12.31v6.34c0,.11-.04.21-.13.3s-.18.13-.3.13c-.13,0-.24-.04-.31-.13-.08-.08-.11-.18-.11-.3v-1.68l.24-.1c0,.25-.07.52-.22.8-.15.28-.34.53-.6.76-.25.23-.55.42-.89.56-.34.15-.71.22-1.11.22-.64,0-1.21-.16-1.71-.49-.5-.33-.9-.78-1.18-1.35-.29-.57-.43-1.22-.43-1.93s.15-1.38.44-1.94.68-1,1.18-1.32c.5-.32,1.06-.48,1.68-.48.4,0,.78.07,1.13.21.35.14.66.33.92.58s.47.52.62.84.23.64.23.98l-.3-.21v-1.79c0-.12.04-.23.11-.31.07-.08.18-.13.31-.13ZM53.3,35.81c.5,0,.94-.13,1.32-.39.38-.26.69-.61.91-1.07.22-.46.33-.96.33-1.53s-.11-1.04-.33-1.49-.52-.8-.91-1.06-.83-.39-1.32-.39-.93.12-1.32.37c-.39.25-.7.59-.92,1.04s-.33.95-.33,1.52.11,1.07.33,1.53c.22.46.52.81.91,1.07.38.26.83.39,1.32.39ZM59.25,28.19c-.2,0-.34-.04-.44-.13-.1-.09-.15-.22-.15-.39v-.14c0-.17.05-.3.16-.39s.26-.13.44-.13c.18,0,.32.04.41.13.1.09.15.22.15.39v.14c0,.17-.05.3-.15.39-.1.09-.24.13-.43.13ZM59.68,36.04c0,.11-.04.21-.13.3-.08.08-.18.13-.3.13-.13,0-.24-.04-.31-.13-.08-.08-.11-.18-.11-.3v-6.48c0-.11.04-.21.12-.3.08-.08.18-.13.3-.13s.22.04.3.13c.08.08.12.18.12.3v6.48ZM62.8,36.04c0,.11-.04.21-.13.3s-.18.13-.3.13c-.12,0-.22-.04-.3-.13s-.12-.18-.12-.3v-9.58c0-.11.04-.21.13-.3.08-.08.18-.13.29-.13.12,0,.22.04.3.13s.12.18.12.3v9.58Z"/>
</svg>