<?xml version="1.0" encoding="UTF-8"?>
<svg id="Layer_1" xmlns="http://www.w3.org/2000/svg" viewBox="0 0 64 64">
  <defs>
    <style>
      .cls-1, .cls-2 {
        fill: #848685;
      }

      .cls-2 {
        fill-rule: evenodd;
      }

      .cls-3 {
        fill: #0c91f0;
      }
    </style>
  </defs>
  <g>
    <path class="cls-1" d="M3.55,50.39h-.52c-.17,0-.29.03-.33.09-.05.06-.07.17-.07.33v4.14H.65c-.25,0-.42-.04-.52-.12-.09-.08-.14-.22-.14-.41v-4.36c0-.36.07-.62.22-.79.15-.17.4-.25.77-.25h2.56v1.38ZM2.85,48.33h-1.82c-.33,0-.55-.05-.65-.16s-.15-.33-.15-.67v-2.25c0-.34.05-.56.15-.67s.32-.16.65-.16h1.82v3.91ZM4.87,44.44h1.96c.28,0,.46.05.54.16.08.11.12.33.12.67v4.42c0,.24-.03.42-.1.53-.07.11-.22.17-.45.17h-2.81v-1.38h.35c.17,0,.28-.03.33-.09.04-.06.07-.17.07-.33v-4.14ZM7.01,54.95h-1.82c-.33,0-.55-.05-.65-.16s-.15-.33-.15-.67v-2.27c0-.34.05-.56.15-.67.1-.11.32-.16.65-.16h1.82v3.93Z"/>
    <path class="cls-1" d="M10.14,44.44c.33,0,.55.05.68.16.12.11.21.33.25.67l.96,7.74c.03.23.09.38.19.45.1.07.25.11.47.12v1.38h-.65c-.85,0-1.42-.21-1.69-.63-.15-.22-.25-.44-.31-.66-.06-.22-.11-.53-.16-.92l-1.13-8.3h1.4ZM13.93,54.95h-.9l1.58-9.69c.04-.33.12-.55.25-.66.13-.11.35-.17.68-.17h1.38l-1.45,8.59c-.07.37-.12.64-.17.81s-.12.36-.23.57c-.11.2-.25.34-.44.42-.18.08-.42.12-.71.12Z"/>
    <path class="cls-1" d="M20.56,54.95h-1.53c-.33,0-.55-.05-.65-.16-.1-.11-.15-.33-.15-.67v-8.86c0-.34.05-.56.15-.67.1-.11.32-.16.65-.16h1.53v10.51Z"/>
    <path class="cls-1" d="M24.97,54.95h-1.53c-.33,0-.55-.05-.65-.16-.1-.11-.15-.33-.15-.67v-8.86c0-.34.05-.56.15-.67.1-.11.32-.16.65-.16h1.53v10.51Z"/>
    <path class="cls-1" d="M29.37,54.97h-1.53c-.32,0-.53-.06-.64-.17-.11-.11-.16-.33-.16-.66v-8.87c0-.33.05-.55.16-.66.11-.11.32-.17.64-.17h1.53v10.53ZM33.96,49.67v2.46c.01,1.15-.13,1.91-.42,2.28s-.82.55-1.59.55h-2.14v-1.38h1.08c.24,0,.4-.03.48-.09.08-.06.12-.17.12-.33v-6.89c0-.17-.04-.29-.12-.35-.08-.06-.24-.09-.48-.09h-1.08v-1.38h2.28c.71,0,1.2.16,1.48.49.28.33.41.96.41,1.9l-.03,2.85Z"/>
    <path class="cls-1" d="M39.76,44.77c.07,0,.14.02.21.05s.13.08.18.14l4.01,6.02-.39-.02,4.03-6.01c.11-.15.24-.21.39-.19.12,0,.22.04.3.12s.12.19.12.31v9.31c0,.12-.05.22-.14.31-.09.09-.2.13-.33.13s-.23-.04-.32-.13c-.09-.09-.13-.19-.13-.31v-8.42l.26.03-3.68,5.57c-.03.06-.08.1-.14.14-.06.03-.13.05-.2.05s-.13-.02-.2-.05c-.06-.03-.11-.08-.15-.14l-3.69-5.63.28-.19v8.64c0,.12-.04.22-.12.31-.08.09-.19.13-.31.13s-.23-.04-.31-.13c-.08-.09-.12-.19-.12-.31v-9.31c0-.11.04-.21.12-.3.08-.09.19-.14.31-.14Z"/>
    <path class="cls-1" d="M57.21,47.52c.13,0,.23.04.31.13.08.09.12.19.12.32v6.54c0,.12-.04.22-.13.31-.09.09-.19.13-.31.13-.14,0-.24-.04-.32-.13-.08-.09-.12-.19-.12-.31v-1.73l.25-.1c0,.26-.08.54-.23.82-.15.29-.36.55-.62.79-.26.24-.57.43-.92.58-.35.15-.73.23-1.14.23-.66,0-1.25-.17-1.77-.51s-.93-.8-1.22-1.4c-.3-.59-.44-1.25-.44-1.99s.15-1.42.45-2,.71-1.03,1.22-1.36c.51-.33,1.09-.49,1.73-.49.42,0,.81.07,1.17.22s.68.34.95.6.48.54.64.87c.15.32.23.66.23,1.01l-.31-.22v-1.85c0-.13.04-.23.12-.32.08-.09.18-.13.32-.13ZM54.18,54.28c.51,0,.97-.13,1.37-.4s.71-.64.94-1.11.34-1,.34-1.58-.11-1.07-.34-1.53-.54-.82-.94-1.09c-.4-.27-.85-.4-1.37-.4s-.96.13-1.36.39c-.4.26-.72.61-.95,1.07s-.34.98-.34,1.57.11,1.11.34,1.58.54.84.94,1.11c.4.27.85.4,1.37.4Z"/>
    <path class="cls-1" d="M60.34,46.41c-.2,0-.36-.05-.46-.14-.1-.09-.15-.23-.15-.4v-.15c0-.18.06-.31.17-.4s.26-.14.46-.14c.18,0,.33.05.43.14.1.09.15.22.15.4v.15c0,.17-.05.31-.15.4-.1.09-.25.14-.44.14ZM60.77,54.51c0,.12-.04.22-.13.31-.09.09-.19.13-.31.13-.14,0-.24-.04-.32-.13-.08-.09-.12-.19-.12-.31v-6.69c0-.12.04-.22.12-.31.08-.09.19-.13.31-.13s.23.04.31.13c.08.09.12.19.12.31v6.69Z"/>
    <path class="cls-1" d="M64,54.51c0,.12-.04.22-.13.31-.09.09-.19.13-.31.13-.13,0-.23-.04-.31-.13-.08-.09-.12-.19-.12-.31v-9.89c0-.12.04-.22.13-.31.09-.09.19-.13.31-.13.13,0,.23.04.31.13.08.09.12.19.12.31v9.89Z"/>
  </g>
  <g>
    <path class="cls-2" d="M41.12,8.9c-2.86,0-5.18,2.32-5.18,5.18s2.32,5.18,5.18,5.18,5.18-2.32,5.18-5.18-2.32-5.18-5.18-5.18ZM41.51,11.59c.09-.7.58-1.23,1.11-1.18.53.05.88.65.8,1.35-.09.7-.58,1.23-1.11,1.18-.53-.05-.88-.65-.8-1.35ZM39.71,10.39c.53-.05,1.02.48,1.11,1.18.09.7-.27,1.3-.8,1.35-.53.05-1.02-.48-1.11-1.18-.09-.7.27-1.3.8-1.35ZM37.07,13.76c-.09-.7.27-1.3.8-1.35.53-.05,1.02.48,1.11,1.18.09.7-.27,1.3-.8,1.35-.53.05-1.02-.48-1.11-1.18ZM43.85,16.97c-.31.7-1.07.77-1.07.77,0,0-.5.15-.95-.21l-.42-1.7c.19-.11.32-.33.32-.57,0-.36-.27-.65-.61-.65s-.6.29-.6.65c0,.24.12.45.32.57l-.42,1.7c-.45.35-.95.21-.95.21,0,0-.76-.07-1.07-.77-.31-.7-.09-1.16,0-1.3.09-.15,1.36-1.73,1.77-2.18.42-.45.95-.39.95-.39,0,0,.56-.06.98.39.42.45,1.68,2.03,1.77,2.18.09.15.31.6,0,1.3ZM44.15,14.96c-.53-.05-.88-.65-.8-1.35s.58-1.23,1.11-1.18c.53.05.88.65.8,1.35-.09.7-.58,1.23-1.11,1.18Z"/>
    <g>
      <path class="cls-3" d="M33.92,13.71c0-1.12.26-2.18.72-3.13h-13.99c-2.71,0-4.95,2.06-5.24,4.69l14.42,7.64,6.8-3.6c-1.64-1.32-2.7-3.34-2.7-5.6Z"/>
      <path class="cls-3" d="M38.7,20.48l-8.41,4.46c-.15.08-.31.12-.47.12s-.32-.04-.47-.12l-13.98-7.41v12.59c0,2.91,2.37,5.28,5.28,5.28h18.35c2.91,0,5.28-2.37,5.28-5.28v-9.97c-.96.47-2.03.74-3.17.74-.84,0-1.65-.15-2.4-.41Z"/>
    </g>
    <path class="cls-1" d="M48.07,15.43c-.31,1.24-.94,2.36-1.8,3.25v11.44c0,4.01-3.26,7.28-7.28,7.28h-18.35c-1.4,0-2.72-.4-3.83-1.09,1.29,2.07,3.58,3.45,6.18,3.45h18.35c4.01,0,7.28-3.26,7.28-7.28v-14.26c0-.99-.2-1.93-.56-2.79Z"/>
  </g>
</svg>