<?xml version="1.0" encoding="UTF-8"?>
<svg id="Layer_1" xmlns="http://www.w3.org/2000/svg" viewBox="0 0 64 64">
  <defs>
    <style>
      .cls-1 {
        fill: #231f20;
        fill-rule: evenodd;
      }
    </style>
  </defs>
  <path class="cls-1" d="M49.54,2.32c-5.49,0-9.97,4.47-9.97,9.97s4.47,9.97,9.97,9.97,9.97-4.47,9.97-9.97-4.47-9.97-9.97-9.97ZM50.3,7.49c.16-1.34,1.12-2.36,2.13-2.27,1.01.09,1.7,1.26,1.54,2.6-.16,1.34-1.12,2.36-2.13,2.27-1.01-.09-1.7-1.26-1.54-2.6ZM46.83,5.19c1.01-.09,1.97.92,2.13,2.27.16,1.34-.52,2.51-1.54,2.6-1.01.09-1.97-.92-2.13-2.27-.16-1.34.52-2.51,1.54-2.6ZM41.75,11.67c-.16-1.34.52-2.51,1.54-2.6,1.01-.09,1.97.92,2.13,2.27.16,1.34-.52,2.51-1.54,2.6-1.01.09-1.97-.92-2.13-2.27ZM54.8,17.84c-.6,1.35-2.07,1.49-2.07,1.49,0,0-.97.28-1.84-.4l-.81-3.27c.37-.22.61-.64.61-1.09,0-.69-.53-1.24-1.18-1.24s-1.15.56-1.15,1.24c0,.45.23.87.61,1.09l-.81,3.27c-.87.68-1.84.4-1.84.4,0,0-1.46-.14-2.07-1.49-.6-1.35-.18-2.22,0-2.51.18-.28,2.61-3.33,3.41-4.19.8-.86,1.83-.74,1.83-.74,0,0,1.08-.12,1.88.74.8.86,3.24,3.91,3.41,4.19.18.28.6,1.16,0,2.51ZM55.37,13.97c-1.01-.09-1.7-1.26-1.54-2.6s1.12-2.36,2.13-2.27c1.01.09,1.7,1.26,1.54,2.6-.16,1.34-1.12,2.36-2.13,2.27ZM40.89,22.36l-13.08,6.93L.06,14.59C.63,9.52,4.93,5.56,10.15,5.56h26.93c-.88,1.82-1.38,3.86-1.38,6.01,0,4.36,2.03,8.25,5.19,10.78ZM49.52,25.39c2.19,0,4.26-.51,6.1-1.43v19.18c0,5.6-4.55,10.15-10.15,10.15H10.15c-5.6,0-10.15-4.55-10.15-10.15v-24.23l26.91,14.26c.28.15.59.22.9.22s.62-.07.9-.22l16.19-8.58c1.45.51,3,.8,4.62.8ZM64,20.24v27.43c0,7.72-6.28,14-14,14H14.68c-5.02,0-9.43-2.66-11.9-6.63,2.14,1.33,4.67,2.1,7.37,2.1h35.31c7.72,0,14-6.28,14-14v-22c1.66-1.72,2.87-3.87,3.46-6.26.69,1.65,1.07,3.46,1.07,5.36Z"/>
</svg>