<?xml version="1.0" encoding="UTF-8"?>
<svg id="Layer_1" xmlns="http://www.w3.org/2000/svg" viewBox="0 0 64 64">
  <defs>
    <style>
      .cls-1 {
        fill: #231f20;
      }
    </style>
  </defs>
  <path class="cls-1" d="M41.79,18.97c.5-.54,1.15-.47,1.15-.47,0,0,.68-.07,1.18.47s2.02,2.44,2.13,2.62c.11.18.38.72,0,1.57-.38.84-1.29.93-1.29.93,0,0-.61.17-1.15-.25l-.51-2.04c.23-.14.38-.4.38-.68,0-.43-.33-.78-.74-.78s-.72.35-.72.78c0,.28.15.54.38.68l-.51,2.04c-.54.42-1.15.25-1.15.25,0,0-.91-.09-1.29-.93-.38-.84-.11-1.39,0-1.57.11-.18,1.63-2.08,2.13-2.62ZM39.43,20.71c.63-.06,1.06-.79.96-1.63s-.7-1.48-1.33-1.42-1.06.79-.96,1.63c.1.84.7,1.48,1.33,1.42ZM41.64,18.29c.63-.06,1.06-.79.96-1.63-.1-.84-.7-1.48-1.33-1.42s-1.06.79-.96,1.63c.1.84.7,1.48,1.33,1.42ZM44.4,18.3c.63.06,1.23-.58,1.33-1.42.1-.84-.33-1.57-.96-1.63-.63-.06-1.23.58-1.33,1.42-.1.84.33,1.57.96,1.63ZM46.61,20.73c.63.06,1.23-.58,1.33-1.42.1-.84-.33-1.57-.96-1.63-.63-.06-1.23.58-1.33,1.42-.1.84.33,1.57.96,1.63ZM64,10v44c0,5.52-4.48,10-10,10H10c-5.52,0-10-4.48-10-10V10C0,4.48,4.48,0,10,0h44c5.52,0,10,4.48,10,10ZM36.74,19.68c0,3.43,2.79,6.23,6.23,6.23s6.23-2.79,6.23-6.23-2.79-6.23-6.23-6.23-6.23,2.79-6.23,6.23ZM12.04,21.12l17.34,9.19,8.18-4.33c-1.98-1.58-3.25-4.02-3.25-6.74,0-1.35.31-2.62.86-3.76h-16.83c-3.26,0-5.95,2.47-6.31,5.64ZM12,38.97c0,3.5,2.85,6.35,6.35,6.35h22.07c3.5,0,6.35-2.85,6.35-6.35v-11.99c-1.15.57-2.45.89-3.81.89-1.01,0-1.98-.18-2.89-.5l-10.12,5.36c-.18.09-.37.14-.56.14s-.39-.05-.56-.14l-16.82-8.91v15.15ZM52,24.65c0-1.19-.24-2.32-.67-3.35-.37,1.5-1.13,2.84-2.16,3.91v13.75c0,4.83-3.93,8.75-8.75,8.75h-22.07c-1.69,0-3.27-.48-4.61-1.31,1.55,2.49,4.3,4.15,7.44,4.15h22.07c4.83,0,8.75-3.93,8.75-8.75v-17.15Z"/>
</svg>