<?xml version="1.0" encoding="utf-8"?>
<!-- Generator: Adobe Illustrator 15.1.0, SVG Export Plug-In . SVG Version: 6.00 Build 0)  -->
<!DOCTYPE svg PUBLIC "-//W3C//DTD SVG 1.1//EN" "http://www.w3.org/Graphics/SVG/1.1/DTD/svg11.dtd">
<svg version="1.1" id="contents" xmlns="http://www.w3.org/2000/svg" xmlns:xlink="http://www.w3.org/1999/xlink" x="0px" y="0px"
	 width="162px" height="23px" viewBox="0.167 7.5 162 23" enable-background="new 0.167 7.5 162 23" xml:space="preserve">
<g>
	<path fill="#FFFFFF" d="M54.253,23.87c-0.64-0.256-1.026-0.412-1.155-0.449c-0.252-0.066-0.533-0.099-0.841-0.099
		c-0.814,0-1.439,0.17-1.876,0.513c-0.43,0.345-0.646,0.83-0.646,1.458v3.798h-6.441v-9.845h6.441l-0.131,1.317h0.131
		c0.569-0.637,1.175-1.059,1.812-1.259c0.633-0.201,1.541-0.303,2.707-0.303V23.87z"/>
	<path fill="#FFFFFF" d="M61.727,20.958h0.218c0.263-0.581,0.748-1.053,1.472-1.413c0.719-0.358,1.52-0.543,2.4-0.543
		c0.942,0,1.737,0.185,2.377,0.549c0.646,0.368,1.118,0.887,1.415,1.564h0.133c0.391-0.713,0.91-1.242,1.553-1.592
		c0.645-0.347,1.461-0.521,2.447-0.521c1.52,0,2.682,0.391,3.494,1.168c0.736,0.713,1.107,1.642,1.107,2.788v6.133h-6.244v-4.897
		c0-0.399-0.039-0.689-0.117-0.856c-0.133-0.292-0.404-0.438-0.824-0.438c-0.406,0-0.676,0.142-0.809,0.423
		c-0.074,0.17-0.115,0.456-0.115,0.871v4.897H64v-4.897c0-0.415-0.034-0.697-0.11-0.856c-0.148-0.292-0.434-0.438-0.873-0.438
		c-0.405,0-0.672,0.142-0.791,0.423c-0.08,0.17-0.117,0.456-0.117,0.871v4.897h-6.249v-9.845h6.085L61.727,20.958z"/>
	<path fill="#FFFFFF" d="M90.317,27.796h-0.133c-0.664,0.506-1.254,0.871-1.779,1.1c-0.672,0.28-1.428,0.42-2.275,0.42
		c-1.693,0-3.076-0.545-4.154-1.659c-0.965-0.999-1.445-2.15-1.445-3.463c0-1.34,0.492-2.513,1.479-3.516
		c1.102-1.117,2.523-1.676,4.285-1.676c1.635,0,2.934,0.467,3.891,1.393h0.133l-0.199-1.148h6.35v9.845h-6.35L90.317,27.796z
		 M88.601,25.546c0.561,0,0.988-0.143,1.279-0.432c0.291-0.284,0.438-0.629,0.438-1.031c0-0.384-0.16-0.701-0.484-0.957
		c-0.313-0.255-0.729-0.379-1.232-0.379c-0.492,0-0.896,0.132-1.203,0.398c-0.305,0.26-0.463,0.579-0.463,0.966
		c0,0.419,0.146,0.767,0.422,1.034C87.64,25.412,88.05,25.546,88.601,25.546z"/>
	<path fill="#FFFFFF" d="M108.575,27.625h-0.166c-0.553,0.526-1.193,0.941-1.934,1.241c-0.74,0.298-1.535,0.449-2.385,0.449
		c-1.672,0-3.029-0.545-4.07-1.639c-0.939-0.99-1.402-2.131-1.402-3.424c0-1.382,0.436-2.562,1.334-3.547
		c1.023-1.132,2.412-1.704,4.17-1.704c0.77,0,1.512,0.143,2.225,0.425c0.715,0.28,1.297,0.661,1.764,1.137h0.232l-0.266-2.361
		v-4.149h6.416v15.038h-6.049L108.575,27.625z M104.96,24.139c0,0.392,0.145,0.726,0.43,0.999c0.287,0.27,0.688,0.408,1.205,0.408
		c0.484,0,0.885-0.15,1.203-0.453c0.318-0.298,0.471-0.625,0.471-0.981c0-0.359-0.152-0.675-0.477-0.948
		c-0.32-0.278-0.723-0.416-1.197-0.416c-0.494,0-0.889,0.136-1.184,0.408C105.114,23.423,104.96,23.752,104.96,24.139z"/>
	<path fill="#FFFFFF" d="M124.187,16.195c0,0.761-0.355,1.35-1.072,1.771c-0.635,0.377-1.461,0.564-2.469,0.564
		c-1,0-1.82-0.184-2.459-0.55c-0.725-0.421-1.082-1.02-1.082-1.786c0-0.692,0.33-1.248,0.994-1.667
		c0.666-0.418,1.512-0.624,2.547-0.624c1.031,0,1.883,0.206,2.543,0.624C123.858,14.947,124.187,15.503,124.187,16.195z
		 M117.429,19.262h6.463v9.845h-6.463V19.262z"/>
	<path fill="#FFFFFF" d="M126.97,14.053h6.477v15.038h-6.477V14.053z"/>
	<path fill="#FFFFFF" d="M136.28,14.053h6.479v15.038h-6.479V14.053z"/>
	<path fill="#FFFFFF" d="M161.167,24.28c0,1.557-0.816,2.805-2.453,3.742c-1.504,0.863-3.365,1.293-5.57,1.293
		c-2.203,0-4.068-0.43-5.586-1.293c-1.662-0.949-2.49-2.193-2.49-3.742c0-1.673,0.795-2.983,2.389-3.941
		c1.473-0.89,3.369-1.337,5.688-1.337c2.285,0,4.164,0.447,5.635,1.337C160.372,21.307,161.167,22.619,161.167,24.28z
		 M151.312,24.193c0,0.395,0.18,0.72,0.527,0.983c0.34,0.241,0.775,0.369,1.305,0.369c0.492,0,0.922-0.132,1.262-0.387
		c0.346-0.26,0.518-0.581,0.518-0.966c0-0.394-0.168-0.73-0.498-1.019c-0.34-0.286-0.766-0.428-1.281-0.428
		c-0.529,0-0.965,0.142-1.305,0.428C151.491,23.463,151.312,23.8,151.312,24.193z"/>
	<path fill="#FFFFFF" d="M17.433,28.959c0,0.045,0.007,0.087,0.007,0.132h-3.118c0.266-1.988,0.978-3.86,2.088-5.537
		c1.302-1.953,3.133-3.631,5.318-4.936c0.322,0.079,0.639,0.165,0.951,0.257c-1.382,1.048-2.55,2.308-3.428,3.732
		C18.093,24.495,17.433,26.657,17.433,28.959z M16.409,21.785c0.883-1.324,2.015-2.515,3.325-3.554
		c-1.01-0.146-2.054-0.222-3.123-0.222c-2.313,0-4.509,0.355-6.479,0.992c0,0-0.851,0.812-1.704,1.223
		c-0.101-0.281-0.072-0.547-0.072-0.547c-4.322,1.911-7.189,5.276-7.189,9.107c0,0.101,0.018,0.201,0.018,0.306H3.24
		c0.794-1.344,2.688-2.288,4.9-2.288c2.21,0,4.105,0.944,4.901,2.288h1.166c0-0.051-0.011-0.101-0.011-0.149
		C14.197,26.35,14.991,23.91,16.409,21.785z M26.225,20.358c-1.692,1.084-3.108,2.572-4.063,4.359
		c-0.711,1.322-1.169,2.803-1.334,4.373h11.192c0.012-0.104,0.029-0.205,0.029-0.306C32.05,25.372,29.773,22.333,26.225,20.358z
		 M22.162,23.32c0.733-1.371,1.733-2.563,2.933-3.535c-0.28-0.131-0.574-0.252-0.863-0.369c-2.069,1.199-3.795,2.829-4.98,4.762
		c-0.912,1.486-1.503,3.151-1.718,4.913h3.219c0-0.043-0.002-0.079-0.002-0.118C20.75,26.925,21.256,24.998,22.162,23.32z
		 M41.313,8.685c-11.192,0.025-21.1,3.262-27.276,8.23c0.389-0.017,0.772-0.042,1.163-0.042c0.48,0,0.951,0.019,1.418,0.052
		c1.385,0.08,2.718,0.277,3.987,0.576c3.149-2.215,7.209-3.574,11.669-3.623v5.341h-6.996c0.672,0.352,1.315,0.724,1.9,1.138
		c1.272,0.892,2.337,1.93,3.148,3.068h1.947v5.666h0.159h8.88V8.685z M11.148,16.667c0.511-0.952,0.718-1.977,0.633-3.063
		C10.86,14.107,10.13,14.89,9.6,15.97c-0.563,1.149-0.777,2.23-0.674,3.102C9.978,18.426,10.71,17.545,11.148,16.667z"/>
</g>
</svg>
