<?xml version="1.0" encoding="UTF-8" standalone="no"?>
<!-- Created with Inkscape (http://www.inkscape.org/) -->

<svg
   width="42.96146mm"
   height="27.37978mm"
   viewBox="0 0 42.96146 27.37978"
   version="1.1"
   id="svg1051"
   xmlns="http://www.w3.org/2000/svg"
   xmlns:svg="http://www.w3.org/2000/svg">
  <defs
     id="defs1048" />
  <g
     id="layer1"
     transform="translate(-67.247438,-146.76454)">
    <path
       d="m 83.678425,155.36733 c -1.255536,-0.74119 -3.078691,-1.20685 -5.129741,-1.20685 -1.938867,0 -3.692173,0.41592 -4.949825,1.08937 1.448152,0.57927 3.251552,0.92287 5.207,0.92217 1.817158,0 3.495674,-0.29704 4.872566,-0.80469 z m 0.736247,4.34305 c -0.01658,-0.0247 0.01199,-0.055 0.01199,-0.055 0.621947,-0.5528 1.00083,-1.19062 1.00083,-1.85173 0,-0.62441 -0.294216,-1.21179 -0.809977,-1.72508 -1.844675,0.90629 -4.328936,1.46262 -7.061553,1.46403 -2.067983,3.5e-4 -3.994856,-0.31891 -5.609167,-0.86642 -0.222602,0.35665 -0.341489,0.73871 -0.341489,1.13418 0,0.78069 0.464609,1.50283 1.257653,2.0962 1.227667,-0.76024 3.137253,-1.24777 5.284611,-1.24777 3.70452,0 6.712303,1.45344 6.712303,3.2519 0,1.79776 -3.004608,3.25402 -6.712303,3.25402 -0.281516,0 -0.559153,-0.008 -0.831144,-0.0229 0,0 -0.07655,0.001 -0.07479,-0.0621 0.0018,-0.0483 0.09384,-0.0508 0.09384,-0.0508 3.111853,-0.001 5.634214,-1.24354 5.633155,-2.77283 0,-1.5307 -2.522714,-2.77107 -5.634566,-2.77072 -1.533525,7.1e-4 -2.91077,0.30022 -3.913011,0.78776 1.268236,0.7306 3.09633,1.18992 5.125861,1.18992 0,0 0.112536,0.004 0.115711,0.0663 0.0014,0.0854 -0.09243,0.084 -0.09243,0.084 -0.333728,0.0208 -0.677333,0.0314 -1.024114,0.0314 -1.859139,-7.1e-4 -3.576461,-0.31891 -4.957233,-0.85619 -0.531636,0.42403 -0.836789,0.92498 -0.836789,1.46261 0,0.50059 0.306564,0.98672 0.8128,1.40547 0,0 0.02399,0.024 0.01023,0.0413 -0.01552,0.0169 -0.04798,-0.005 -0.04798,-0.005 -0.690386,-0.51011 -1.091847,-1.12359 -1.091847,-1.78011 0,-0.48437 0.216958,-0.94298 0.607836,-1.35679 -1.698625,-0.78528 -2.768247,-1.92898 -2.768247,-3.19969 0,-0.56938 0.213783,-1.11125 0.60078,-1.60831 -1.634772,-0.9525 -2.628194,-2.21227 -2.628194,-3.59375 0,-2.97462 4.615391,-5.38762 10.306755,-5.38974 0.434269,0 0.858661,0.0145 1.277408,0.0399 0,0 0.11677,-0.003 0.1143,0.10337 -0.0021,0.0794 -0.141464,0.0857 -0.141464,0.0857 -4.780844,0 -8.653285,2.05564 -8.652933,4.58964 0,1.00577 0.608542,1.93569 1.644297,2.6924 1.486959,-0.74648 3.516137,-1.20614 5.752395,-1.20614 2.910064,0.001 5.468761,0.78069 6.943372,1.95897 1.776236,-0.8382 2.88678,-2.06657 2.885722,-3.43782 0,-0.82797 -0.470253,-1.63195 -1.248481,-2.3248 0,0 -0.03457,-0.0392 -0.01164,-0.0692 0.02117,-0.0296 0.06809,0.006 0.06809,0.006 1.063625,0.84843 1.680633,1.86055 1.680633,2.94958 0.0011,1.38465 -0.999772,2.64865 -2.644422,3.60327 0.385233,0.49495 0.597958,1.03716 0.597958,1.60443 0,0.86536 -0.495652,1.67146 -1.347963,2.34491 0,0 -0.04057,0.0272 -0.0568,0.005"
       style="fill:#0080bd;fill-opacity:1;fill-rule:nonzero;stroke:none;stroke-width:0.352778"
       id="path551" />
    <path
       d="m 108.80714,166.51017 h -1.51201 c 0,0 -1.73461,5.6074 -1.77412,5.73511 -0.0392,-0.12877 -1.70744,-5.73511 -1.70744,-5.73511 h -1.7085 c 0,0 -1.65277,5.6007 -1.69263,5.73264 -0.0384,-0.13335 -1.673932,-5.73264 -1.673932,-5.73264 h -1.700036 l 2.572808,7.42385 h 1.58856 c 0,0 1.6704,-5.52661 1.70815,-5.65255 0.0395,0.12594 1.77553,5.65255 1.77553,5.65255 h 1.58997 l 2.58833,-7.42385 h -0.0547"
       style="fill:#000000;fill-opacity:1;fill-rule:nonzero;stroke:none;stroke-width:0.352778"
       id="path553" />
    <path
       d="m 85.297675,167.93433 c 0,-0.10548 0,-1.35572 0,-1.7339 l -1.476375,0.51505 v 7.21854 h 1.5621 v -4.30953 c 0.276578,-2.30505 3.630083,-1.84432 3.630083,-1.84432 v -1.55187 c -1.000477,0 -3.029302,0.61277 -3.715808,1.70603"
       style="fill:#000000;fill-opacity:1;fill-rule:nonzero;stroke:none;stroke-width:0.352778"
       id="path555" />
    <path
       d="m 78.89617,166.29991 c -1.067153,0.0138 -1.921934,0.39017 -2.541411,1.11337 0,-0.10301 0,-3.55318 0,-4.32223 l -1.559984,0.55985 v 9.97197 l 1.477434,0.31115 c 0,0 0,-0.76905 0,-0.88441 0.367947,0.48189 1.020233,1.09467 2.422525,1.09467 2.886074,0 3.914774,-2.13889 3.914774,-4.14091 0,-2.21544 -1.492602,-3.70346 -3.713338,-3.70346 z m -0.236714,6.70031 c -1.093611,0 -2.371725,-0.63817 -2.371725,-2.43346 0,-2.04435 0.7874,-3.08151 2.340328,-3.08151 2.124427,0 2.370313,1.54975 2.370313,2.71568 0,1.75225 -0.872419,2.79929 -2.338916,2.79929"
       style="fill:#000000;fill-opacity:1;fill-rule:nonzero;stroke:none;stroke-width:0.352778"
       id="path557" />
    <path
       d="m 78.659456,173.00022 c 1.466497,0 2.338916,-1.04704 2.338916,-2.79929 0,-1.16593 -0.245886,-2.71568 -2.370313,-2.71568 -1.552928,0 -2.340328,1.03716 -2.340328,3.08151 0,1.79529 1.278114,2.43346 2.371725,2.43346 z m 0.236714,-6.70031 c 2.220736,0 3.713338,1.48802 3.713338,3.70346 0,2.00202 -1.0287,4.14091 -3.914774,4.14091 -1.402292,0 -2.054578,-0.61278 -2.422525,-1.09467 v 0.88441 l -1.477434,-0.31115 v -9.97197 l 1.559984,-0.55985 v 4.32223 c 0.619477,-0.7232 1.474258,-1.09961 2.541411,-1.11337"
       style="fill:#000000;fill-opacity:1;fill-rule:nonzero;stroke:none;stroke-width:0.352778"
       id="path559" />
    <path
       d="m 96.674053,170.62179 c 0,-2.74778 -1.34232,-4.32188 -3.687234,-4.32188 -2.57175,0 -4.107038,1.54058 -4.107038,4.12609 0,2.22285 1.540933,3.71828 3.833283,3.71828 1.325033,0 1.893005,-0.26423 2.320925,-0.51118 0.737305,-0.42545 1.150408,-1.04598 1.35643,-1.50883 l -1.332441,-0.52246 c -0.0575,0.50906 -0.813506,1.39841 -2.150886,1.39841 -1.574095,0 -2.410531,-0.81068 -2.4257,-2.33997 0.07761,0 6.192661,0 6.192661,0 z m -6.190545,-1.02199 c 0.02293,-1.14971 1.070328,-2.11455 2.310342,-2.11455 1.430161,0 2.210858,0.71437 2.3241,2.11455 -0.08326,0 -4.554008,0 -4.634442,0"
       style="fill:#000000;fill-opacity:1;fill-rule:nonzero;stroke:none;stroke-width:0.352778"
       id="path561" />
    <path
       d="m 90.483508,169.5998 h 4.634442 c -0.113242,-1.40018 -0.893939,-2.11455 -2.3241,-2.11455 -1.240014,0 -2.287411,0.96484 -2.310342,2.11455 z m 6.190545,1.02199 v 0.0385 h -6.192661 c 0.01517,1.52929 0.851605,2.33997 2.4257,2.33997 1.33738,0 2.093383,-0.88935 2.150886,-1.39841 l 1.332441,0.52246 c -0.206022,0.46285 -0.619125,1.08338 -1.35643,1.50883 -0.42792,0.24695 -0.995892,0.51118 -2.320925,0.51118 -2.29235,0 -3.833283,-1.49543 -3.833283,-3.71828 0,-2.58551 1.535288,-4.12609 4.107038,-4.12609 2.344914,0 3.687234,1.5741 3.687234,4.32188"
       style="fill:#000000;fill-opacity:1;fill-rule:nonzero;stroke:none;stroke-width:0.352778"
       id="path563" />
    <path
       d="m 107.91249,172.76527 h 0.93522 v 0.13723 h -0.38982 v 1.01247 h -0.15628 v -1.01247 h -0.38912 v -0.13723"
       style="fill:#000000;fill-opacity:1;fill-rule:nonzero;stroke:none;stroke-width:0.352778"
       id="path565" />
    <path
       d="m 107.91249,172.76527 h 0.93522 v 0.13723 h -0.38982 v 1.01247 h -0.15628 v -1.01247 h -0.38912 v -0.13723"
       style="fill:#000000;fill-opacity:1;fill-rule:nonzero;stroke:none;stroke-width:0.352778"
       id="path567" />
    <path
       d="m 110.05774,173.91497 v -0.6798 c 0,-0.0328 0.003,-0.1785 0.003,-0.28575 h -0.003 l -0.3228,0.96555 h -0.15416 l -0.3235,-0.9652 h -0.003 c 0,0.1069 0.003,0.25259 0.003,0.2854 v 0.6798 h -0.14993 v -1.1497 h 0.22225 l 0.32844,0.97155 h 0.003 l 0.32667,-0.97155 h 0.22119 v 1.1497 h -0.15098"
       style="fill:#000000;fill-opacity:1;fill-rule:nonzero;stroke:none;stroke-width:0.352778"
       id="path569" />
    <path
       d="m 110.05774,173.91497 v -0.6798 c 0,-0.0328 0.003,-0.1785 0.003,-0.28575 h -0.003 l -0.3228,0.96555 h -0.15416 l -0.3235,-0.9652 h -0.003 c 0,0.1069 0.003,0.25259 0.003,0.2854 v 0.6798 h -0.14993 v -1.1497 h 0.22225 l 0.32844,0.97155 h 0.003 l 0.32667,-0.97155 h 0.22119 v 1.1497 h -0.15098"
       style="fill:#000000;fill-opacity:1;fill-rule:nonzero;stroke:none;stroke-width:0.352778"
       id="path571" />
  </g>
</svg>
