<?xml version="1.0" encoding="UTF-8"?> <svg xmlns="http://www.w3.org/2000/svg" width="185" height="39" viewBox="0 0 185 39" fill="none"><path d="M0 1.90636C1.72886 1.56474 5.2315 1.31128 8.52083 1.31128C12.5399 1.31128 15.0097 1.69698 17.1203 2.92021C19.1522 3.97813 20.6229 5.92868 20.6229 8.5184C20.6229 11.1081 19.1073 13.4444 15.8292 14.6345V14.7227C19.1522 15.6153 21.622 18.0728 21.622 21.7645C21.622 24.3542 20.4096 26.3929 18.5909 27.8366C16.4691 29.4896 12.9328 30.4263 7.12876 30.4263C3.88433 30.4263 1.47066 30.2169 0 30.0075L0 1.90636ZM6.52254 12.8603H8.68923C12.147 12.8603 14.0105 11.4608 14.0105 9.33388C14.0105 7.20701 12.3266 6.02786 9.34036 6.02786C7.91461 6.02786 7.09508 6.11602 6.53376 6.19317V12.8603H6.52254ZM6.52254 25.5444C7.17367 25.6326 7.94829 25.6326 9.07093 25.6326C12.0571 25.6326 14.6954 24.4865 14.6954 21.511C14.6954 18.5356 12.0571 17.4777 8.76781 17.4777H6.52254V25.5444Z" fill="#311C6B"></path><path d="M23.306 16.2106C23.306 13.158 23.2162 11.1634 23.1376 9.37813H28.7957L29.009 13.2021H29.1774C30.2551 10.1936 32.8484 8.91528 34.8804 8.91528C35.4866 8.91528 35.7897 8.91528 36.2612 9.00344V15.1196C35.7897 14.9873 35.2284 14.9102 34.4875 14.9102C32.0626 14.9102 30.4235 16.1885 29.9857 18.1832C29.8959 18.6019 29.851 19.1199 29.851 19.6268V30.1509H23.2835V16.2326L23.306 16.2106Z" fill="#311C6B"></path><path d="M45.6577 3.60349C45.6577 5.38874 44.2769 6.83237 42.1102 6.83237C39.9435 6.83237 38.6525 5.38874 38.6974 3.60349C38.6525 1.7411 40.0333 0.341553 42.1551 0.341553C44.2769 0.341553 45.6128 1.7411 45.6577 3.60349ZM38.8658 30.1288V9.378H45.4332V30.1288H38.8658Z" fill="#311C6B"></path><path d="M68.9972 27.1205C68.9972 31.1097 68.1777 34.3827 65.7977 36.4544C63.4626 38.405 60.308 39.0001 57.1982 39.0001C54.4365 39.0001 51.4952 38.4491 49.5867 37.3912L50.889 32.5093C52.2249 33.2696 54.56 34.0741 57.0298 34.0741C60.1396 34.0741 62.5195 32.4211 62.5195 28.5971V27.2417H62.4297C61.1724 28.9828 59.1404 29.9526 56.7267 29.9526C51.4952 29.9526 47.7793 25.798 47.7793 19.8142C47.7793 13.147 52.1913 8.9043 57.3779 8.9043C60.2743 8.9043 62.0929 10.1385 63.1707 11.8356H63.2605L63.4738 9.37816H69.1768C69.087 10.6895 69.0084 12.4307 69.0084 15.5274V27.1094L68.9972 27.1205ZM62.4297 17.8305C62.4297 17.4118 62.3848 16.982 62.295 16.6404C61.8235 14.9433 60.5662 13.7972 58.7475 13.7972C56.3675 13.7972 54.4253 15.9241 54.4253 19.6929C54.4253 22.7896 55.9858 25.214 58.7475 25.214C60.4314 25.214 61.7786 24.112 62.2052 22.5802C62.3736 22.1173 62.4185 21.4341 62.4185 20.8831V17.8305H62.4297Z" fill="#311C6B"></path><path d="M72.545 0H79.1124V11.8355H79.2022C79.8983 10.9429 80.7627 10.2266 81.7955 9.70867C82.7947 9.20175 83.9959 8.90421 85.2084 8.90421C89.407 8.90421 92.5953 11.7474 92.5953 17.9847V30.1178H86.0279V18.701C86.0279 15.9901 85.0736 14.1167 82.6151 14.1167C80.8862 14.1167 79.8085 15.2187 79.3257 16.3648C79.1573 16.7836 79.1124 17.3346 79.1124 17.8084V30.1178H72.545V0Z" fill="#311C6B"></path><path d="M103.496 3.73584V9.37811H108.211V14.1278H103.496V21.6434C103.496 24.145 104.102 25.2911 106.089 25.2911C106.999 25.2911 107.391 25.247 108.031 25.1258L108.076 30.0077C107.212 30.3493 105.651 30.6027 103.799 30.6027C101.677 30.6027 99.9035 29.8424 98.8706 28.7734C97.6582 27.5392 97.052 25.5445 97.052 22.6242V14.1388H94.2454V9.38913H97.052V5.48803L103.496 3.74686V3.73584Z" fill="#311C6B"></path><path d="M111.276 25.6326C112.96 26.6465 115.43 27.495 118.023 27.495C121.874 27.495 124.119 25.5004 124.119 22.6131C124.119 19.9353 122.559 18.4145 118.629 16.9268C113.869 15.2738 110.939 12.8494 110.939 8.81602C110.939 4.36391 114.7 1.04688 120.369 1.04688C123.356 1.04688 125.511 1.73012 126.813 2.44642L125.781 5.4549C124.826 4.94798 122.884 4.09943 120.246 4.09943C116.272 4.09943 114.756 6.43568 114.756 8.38624C114.756 11.0641 116.53 12.3755 120.549 13.9073C125.477 15.7697 127.981 18.1059 127.981 22.3156C127.981 26.7236 124.658 30.5917 117.776 30.5917C114.97 30.5917 111.893 29.7431 110.344 28.7293L111.298 25.6326H111.276Z" fill="#311C6B"></path><path d="M135.491 3.82405C135.536 5.10237 134.582 6.11622 133.066 6.11622C131.73 6.11622 130.776 5.10237 130.776 3.82405C130.776 2.54572 131.775 1.48779 133.156 1.48779C134.537 1.48779 135.491 2.50164 135.491 3.82405ZM131.259 30.14V9.58754H135.065V30.1289H131.259V30.14Z" fill="#311C6B"></path><path d="M157.495 27.1644C157.495 31.8699 156.541 34.7572 154.509 36.5425C152.477 38.4159 149.536 38.9999 146.898 38.9999C144.259 38.9999 141.621 38.4048 139.937 37.3028L140.892 34.4597C142.272 35.3082 144.439 36.0686 147.032 36.0686C150.928 36.0686 153.779 34.074 153.779 28.8945V26.6024H153.69C152.522 28.5088 150.277 30.0406 147.032 30.0406C141.846 30.0406 138.13 25.7097 138.13 20.0234C138.13 13.0587 142.755 9.11353 147.56 9.11353C151.186 9.11353 153.184 10.9759 154.083 12.684H154.172L154.341 9.58739H157.664C157.574 11.0751 157.495 12.7281 157.495 15.2297V27.1534V27.1644ZM153.735 17.6982C153.735 17.059 153.69 16.508 153.521 16.0011C152.825 13.8411 150.973 12.0559 148.2 12.0559C144.574 12.0559 141.98 15.0644 141.98 19.825C141.98 23.8584 144.057 27.2085 148.166 27.2085C150.501 27.2085 152.623 25.7648 153.443 23.3845C153.656 22.7453 153.746 22.029 153.746 21.3899V17.6982H153.735Z" fill="#311C6B"></path><path d="M161.211 15.1525C161.211 13.0256 161.166 11.2955 161.042 9.58735H164.41L164.624 12.9815H164.713C165.746 11.031 168.171 9.12451 171.629 9.12451C174.525 9.12451 179.016 10.8216 179.016 17.8634V30.1287H175.21V18.2932C175.21 14.9872 173.953 12.2211 170.372 12.2211C167.868 12.2211 165.915 13.9623 165.275 16.0451C165.106 16.508 165.017 17.1471 165.017 17.7863V30.1398H161.211V15.1635V15.1525Z" fill="#311C6B"></path><path d="M182.036 8.41943C183.709 8.41943 185 9.69776 185 11.2846C185 12.8715 183.698 14.1609 182.014 14.1609C180.33 14.1609 179.016 12.9046 179.016 11.2846C179.016 9.6647 180.352 8.41943 182.014 8.41943H182.036ZM182.003 8.99248C180.723 8.99248 179.769 10.0173 179.769 11.2736C179.769 12.5299 180.723 13.5548 182.047 13.5548C183.327 13.5768 184.27 12.5409 184.27 11.2736C184.27 10.0063 183.327 8.99248 182.025 8.99248H182.003ZM181.565 12.7613H180.891V9.91816C181.161 9.86306 181.531 9.81898 182.014 9.81898C182.564 9.81898 182.811 9.90714 183.024 10.0504C183.181 10.1716 183.305 10.403 183.305 10.6565C183.305 10.9871 183.058 11.2295 182.699 11.3397V11.3728C182.979 11.461 183.148 11.6814 183.237 12.0671C183.327 12.5079 183.383 12.6842 183.451 12.7613H182.721C182.631 12.6511 182.575 12.4087 182.485 12.0781C182.429 11.7695 182.25 11.6263 181.879 11.6263H181.565V12.7613ZM181.576 11.1524H181.902C182.272 11.1524 182.575 11.0312 182.575 10.7336C182.575 10.4692 182.384 10.2928 181.958 10.2928C181.778 10.2928 181.655 10.3149 181.587 10.3259V11.1414L181.576 11.1524Z" fill="#311C6B"></path></svg> 