<svg xmlns="http://www.w3.org/2000/svg" id="Layer_1" viewBox="0 0 360 120"><path d="m113.41,72.63c-1.87,0-3.6-.32-5.2-.96s-2.99-1.53-4.18-2.68c-1.19-1.14-2.12-2.48-2.78-4.01-.67-1.53-1-3.18-1-4.95s.33-3.46,1-4.99,1.6-2.86,2.8-4.01c1.2-1.14,2.6-2.04,4.2-2.68,1.6-.64,3.32-.96,5.16-.96,1.35,0,2.68.2,3.99.59,1.31.4,2.51.95,3.62,1.66,1.11.71,2.04,1.56,2.78,2.54l-4.06,3.99c-.86-1.1-1.83-1.91-2.89-2.45-1.06-.54-2.21-.81-3.45-.81-.98,0-1.9.18-2.75.54-.85.36-1.59.86-2.22,1.49s-1.12,1.38-1.47,2.24-.53,1.81-.53,2.83.18,1.93.54,2.78c.36.85.86,1.6,1.5,2.24s1.4,1.14,2.28,1.49c.88.35,1.83.53,2.85.53,1.19,0,2.29-.26,3.31-.77,1.02-.51,1.93-1.27,2.75-2.27l3.96,3.88c-.75.96-1.67,1.79-2.77,2.5s-2.29,1.26-3.57,1.64c-1.28.38-2.58.58-3.88.58Z"></path><path d="m132.24,72.59c-1.31,0-2.47-.25-3.48-.74s-1.81-1.17-2.38-2.03c-.57-.86-.86-1.85-.86-2.97,0-1.77.67-3.14,2.01-4.11,1.34-.97,3.21-1.45,5.62-1.45,1.45,0,2.85.17,4.2.53v-.91c0-.93-.3-1.63-.89-2.08-.6-.46-1.48-.68-2.64-.68-.72,0-1.54.12-2.43.35-.9.23-1.96.61-3.17,1.12l-2.03-4.17c1.52-.68,2.98-1.18,4.39-1.52,1.41-.34,2.83-.51,4.25-.51,2.57,0,4.56.61,5.99,1.84,1.42,1.22,2.13,2.95,2.13,5.16v11.87h-5.6v-1.12c-.75.51-1.54.88-2.36,1.1s-1.74.33-2.75.33Zm-1.33-5.85c0,.58.26,1.04.77,1.37.51.33,1.22.49,2.13.49.68,0,1.31-.07,1.91-.21.59-.14,1.14-.36,1.63-.67v-2.38c-.54-.14-1.08-.25-1.65-.32-.56-.07-1.13-.1-1.71-.1-.98,0-1.74.16-2.28.47-.54.32-.8.76-.8,1.35Z"></path><path d="m149.57,52.05c-.86,0-1.6-.3-2.21-.91s-.91-1.34-.91-2.21.3-1.6.91-2.21,1.34-.91,2.21-.91,1.6.3,2.21.91c.61.61.91,1.34.91,2.21s-.3,1.6-.91,2.21c-.61.61-1.34.91-2.21.91Zm-2.83,20.23v-18.51h5.67v18.51h-5.67Z"></path><path d="m154.4,72.28l7.04-9.38-6.93-9.13h6.58l3.64,4.97,3.6-4.97h6.33l-6.83,9.06,7.21,9.45h-6.58l-3.88-5.29-3.85,5.29h-6.33Z"></path><path d="m182.43,72.59c-1.31,0-2.47-.25-3.48-.74s-1.81-1.17-2.38-2.03c-.57-.86-.86-1.85-.86-2.97,0-1.77.67-3.14,2.01-4.11,1.34-.97,3.21-1.45,5.62-1.45,1.45,0,2.85.17,4.2.53v-.91c0-.93-.3-1.63-.89-2.08-.6-.46-1.48-.68-2.64-.68-.72,0-1.54.12-2.43.35-.9.23-1.96.61-3.17,1.12l-2.03-4.17c1.52-.68,2.98-1.18,4.39-1.52,1.41-.34,2.83-.51,4.25-.51,2.57,0,4.56.61,5.99,1.84,1.42,1.22,2.13,2.95,2.13,5.16v11.87h-5.6v-1.12c-.75.51-1.54.88-2.36,1.1s-1.74.33-2.75.33Zm-1.33-5.85c0,.58.26,1.04.77,1.37.51.33,1.22.49,2.13.49.68,0,1.31-.07,1.91-.21.59-.14,1.14-.36,1.63-.67v-2.38c-.54-.14-1.08-.25-1.65-.32-.56-.07-1.13-.1-1.71-.1-.98,0-1.74.16-2.28.47-.54.32-.8.76-.8,1.35Z"></path><path d="m204.45,72.28v-24.5h7.59l6.05,11.55,6.06-11.55h7.59v24.5h-5.67v-16.7l-8.05,14.95-8.05-15.01v16.76h-5.53Z"></path><path d="m241.51,72.59c-1.31,0-2.47-.25-3.48-.74s-1.81-1.17-2.38-2.03c-.57-.86-.86-1.85-.86-2.97,0-1.77.67-3.14,2.01-4.11,1.34-.97,3.21-1.45,5.62-1.45,1.45,0,2.85.17,4.2.53v-.91c0-.93-.3-1.63-.89-2.08-.6-.46-1.48-.68-2.64-.68-.72,0-1.54.12-2.43.35-.9.23-1.96.61-3.17,1.12l-2.03-4.17c1.52-.68,2.98-1.18,4.39-1.52,1.41-.34,2.83-.51,4.25-.51,2.57,0,4.56.61,5.99,1.84,1.42,1.22,2.13,2.95,2.13,5.16v11.87h-5.6v-1.12c-.75.51-1.54.88-2.36,1.1s-1.74.33-2.75.33Zm-1.33-5.85c0,.58.26,1.04.77,1.37.51.33,1.22.49,2.13.49.68,0,1.31-.07,1.91-.21.59-.14,1.14-.36,1.63-.67v-2.38c-.54-.14-1.08-.25-1.65-.32-.56-.07-1.13-.1-1.71-.1-.98,0-1.74.16-2.28.47-.54.32-.8.76-.8,1.35Zm.32-15.85l3.08-4.76h6.33l-4.9,4.76h-4.51Z"></path><path d="m265.45,79.77c-1.49,0-2.91-.14-4.25-.42-1.34-.28-2.56-.68-3.66-1.19l1.89-4.41c1,.47,2,.82,2.98,1.05.98.23,1.96.35,2.94.35,1.33,0,2.33-.27,3.01-.8.68-.54,1.01-1.34,1.01-2.42v-1.05c-1.45.98-3.04,1.47-4.79,1.47s-3.34-.42-4.76-1.26c-1.42-.84-2.56-1.98-3.4-3.41s-1.26-3.03-1.26-4.78.43-3.34,1.28-4.76,2.01-2.55,3.46-3.38,3.09-1.24,4.88-1.24c.84,0,1.66.1,2.45.31.79.21,1.53.51,2.21.91v-.98h5.6v18.23c0,2.5-.82,4.42-2.47,5.76-1.64,1.34-4.02,2.01-7.12,2.01Zm.1-12.18c.77,0,1.48-.12,2.12-.35.64-.23,1.21-.57,1.7-1.01v-6.54c-.49-.42-1.06-.75-1.7-1-.64-.25-1.34-.37-2.08-.37-.91,0-1.73.2-2.47.61-.73.41-1.32.96-1.75,1.65s-.65,1.46-.65,2.33.21,1.69.63,2.4c.42.71,1,1.27,1.73,1.68.73.41,1.56.61,2.47.61Z"></path><path d="m281.8,52.05c-.86,0-1.6-.3-2.21-.91s-.91-1.34-.91-2.21.3-1.6.91-2.21,1.34-.91,2.21-.91,1.6.3,2.21.91c.61.61.91,1.34.91,2.21s-.3,1.6-.91,2.21c-.61.61-1.34.91-2.21.91Zm-2.83,20.23v-18.51h5.67v18.51h-5.67Z"></path><path d="m297.51,72.63c-1.84,0-3.51-.42-4.99-1.26-1.48-.84-2.65-1.99-3.52-3.45s-1.29-3.09-1.29-4.88.43-3.45,1.29-4.9c.86-1.45,2.04-2.6,3.52-3.45,1.48-.85,3.14-1.28,4.99-1.28,1.52,0,2.96.3,4.34.89s2.54,1.44,3.5,2.54l-3.46,3.6c-.65-.75-1.32-1.29-2-1.63-.68-.34-1.42-.51-2.24-.51s-1.55.2-2.21.61-1.17.97-1.54,1.68c-.37.71-.56,1.52-.56,2.43s.19,1.69.58,2.4c.39.71.92,1.27,1.59,1.68s1.44.61,2.28.61c.77,0,1.48-.16,2.13-.49.65-.33,1.28-.83,1.89-1.5l3.36,3.5c-.93,1.07-2.08,1.91-3.43,2.5-1.35.6-2.77.89-4.24.89Z"></path><path d="m313.75,72.59c-1.31,0-2.47-.25-3.48-.74s-1.81-1.17-2.38-2.03c-.57-.86-.86-1.85-.86-2.97,0-1.77.67-3.14,2.01-4.11,1.34-.97,3.21-1.45,5.62-1.45,1.45,0,2.85.17,4.2.53v-.91c0-.93-.3-1.63-.89-2.08-.6-.46-1.48-.68-2.64-.68-.72,0-1.54.12-2.43.35-.9.23-1.96.61-3.17,1.12l-2.03-4.17c1.52-.68,2.98-1.18,4.39-1.52,1.41-.34,2.83-.51,4.25-.51,2.57,0,4.56.61,5.99,1.84,1.42,1.22,2.13,2.95,2.13,5.16v11.87h-5.6v-1.12c-.75.51-1.54.88-2.36,1.1s-1.74.33-2.75.33Zm-1.33-5.85c0,.58.26,1.04.77,1.37.51.33,1.22.49,2.13.49.68,0,1.31-.07,1.91-.21.59-.14,1.14-.36,1.63-.67v-2.38c-.54-.14-1.08-.25-1.65-.32-.56-.07-1.13-.1-1.71-.1-.98,0-1.74.16-2.28.47-.54.32-.8.76-.8,1.35Z"></path><path d="m85.34,59.86c0,4.13,0,8.27,0,12.4,0,1.37-.57,2.37-1.76,3.05-7.22,4.16-14.43,8.32-21.64,12.5-1.01.58-1.96.6-2.97.01-7.29-4.22-14.6-8.42-21.89-12.65-1.03-.59-1.55-1.54-1.55-2.73,0-.73,0-1.45,0-2.18s0-1.45,0-2.18,0-1.45,0-2.18,0-1.45,0-2.18,0-1.45,0-2.18,0-1.45,0-2.18c0-.73,0-1.45,0-2.18s0-1.45,0-2.18,0-1.45,0-2.18,0-1.45,0-2.18c0-.71,0-1.43,0-2.14,0-.53-.02-1.07.06-1.59.07-.46.3-.92.58-1.28.29-.37.64-.68,1.02-.95.28-.2.57-.38.87-.55,6.78-3.86,13.52-7.8,20.25-11.75,1.41-.83,2.69-.81,4.1,0,6.97,4.06,13.96,8.1,20.97,12.09,1.34.76,1.93,1.72,1.9,3.28-.07,4.04-.02,8.08-.02,12.12h.05Zm-24.74-2.96c.34-.11.68-.15.95-.31,5.46-3.16,10.9-6.32,16.35-9.5.72-.42.72-.76,0-1.17-5.48-3.17-10.96-6.33-16.44-9.49-.64-.37-1.26-.37-1.9,0-5.43,3.16-10.86,6.31-16.29,9.47-.76.44-.76.77,0,1.21,5.46,3.16,10.91,6.31,16.38,9.45.28.16.61.22.94.34Zm-20.87,4.71s-.02,0-.02,0c0,3.08.01,6.17,0,9.25,0,.83.32,1.4,1.03,1.81,5.4,3.11,10.8,6.23,16.19,9.34.92.53,1.16.39,1.16-.7.02-6.17.03-12.33.06-18.5,0-.88-.33-1.48-1.1-1.92-5.38-3.09-10.76-6.2-16.13-9.3-.91-.52-1.18-.37-1.18.7,0,3.11,0,6.22,0,9.32Z"></path></svg>