<svg xmlns="http://www.w3.org/2000/svg" xmlns:xlink="http://www.w3.org/1999/xlink" viewBox="0 0 48.8 75.6"><defs><style>.cls-1{fill:url(#linear-gradient);}.cls-2{fill:url(#linear-gradient-2);}.cls-3{fill:url(#linear-gradient-3);}.cls-4{fill:url(#linear-gradient-4);}.cls-5{fill:#0070c5;}.cls-6{fill:url(#linear-gradient-5);}.cls-7{fill:url(#linear-gradient-6);}.cls-8{fill:url(#linear-gradient-7);}.cls-9{fill:url(#linear-gradient-8);}.cls-10{fill:url(#linear-gradient-9);}</style><linearGradient id="linear-gradient" x1="-727.56" y1="-85.85" x2="-728.05" y2="-85.8" gradientTransform="translate(14733.51 4089.2) scale(20.22 47.23)" gradientUnits="userSpaceOnUse"><stop offset="0" stop-color="#7dd2f7"/><stop offset="1" stop-color="#b1e4fa"/></linearGradient><linearGradient id="linear-gradient-2" x1="-739.45" y1="-52.96" x2="-738.44" y2="-52.28" gradientTransform="translate(22572.77 885.64) scale(30.5 16.66)" gradientUnits="userSpaceOnUse"><stop offset="0" stop-color="#33bef2"/><stop offset="0.75" stop-color="#88e1b8"/></linearGradient><linearGradient id="linear-gradient-3" x1="-714.38" y1="-32.72" x2="-714.13" y2="-32.47" gradientTransform="translate(10248.5 397.99) scale(14.33 11.99)" xlink:href="#linear-gradient"/><linearGradient id="linear-gradient-4" x1="-729.33" y1="1.21" x2="-728.5" y2="2.72" gradientTransform="translate(15237.47 -3.56) scale(20.88 8.09)" gradientUnits="userSpaceOnUse"><stop offset="0" stop-color="#33bef2"/><stop offset="0.85" stop-color="#88e1b8"/></linearGradient><linearGradient id="linear-gradient-5" x1="-735.59" y1="-87.98" x2="-735.96" y2="-87.43" gradientTransform="translate(19531.2 4732.97) scale(26.53 53.4)" gradientUnits="userSpaceOnUse"><stop offset="0" stop-color="#00aeff"/><stop offset="1" stop-color="#88e1b8"/></linearGradient><linearGradient id="linear-gradient-6" x1="-739.41" y1="-23.92" x2="-739.41" y2="-23.2" gradientTransform="translate(23011.22 315.2) scale(31.1 10.63)" gradientUnits="userSpaceOnUse"><stop offset="0" stop-color="#d1d3d5"/><stop offset="1" stop-color="#f6f7f8"/></linearGradient><linearGradient id="linear-gradient-7" x1="-736.18" y1="-56.27" x2="-735.3" y2="-57.07" gradientTransform="translate(19531.2 1089.37) scale(26.53 18.16)" gradientUnits="userSpaceOnUse"><stop offset="0" stop-color="#f6f7f8" stop-opacity="0.4"/><stop offset="1" stop-color="#f0f2f4" stop-opacity="0"/></linearGradient><linearGradient id="linear-gradient-8" x1="-739.41" y1="-20.59" x2="-739.41" y2="-20.05" gradientTransform="translate(23011.22 277.76) scale(31.1 10.21)" xlink:href="#linear-gradient-6"/><linearGradient id="linear-gradient-9" x1="-731.44" y1="-89.1" x2="-729.95" y2="-88.63" gradientTransform="translate(16019.62 5058.67) scale(21.89 56.51)" gradientUnits="userSpaceOnUse"><stop offset="0.08" stop-color="#fdb814"/><stop offset="0.35" stop-color="#ffe966"/><stop offset="0.75" stop-color="#f6f7f8"/><stop offset="1" stop-color="#f0f2f4"/></linearGradient></defs><title>Asset 1</title><g id="Layer_2" data-name="Layer 2"><g id="Layer_1-2" data-name="Layer 1"><g id="Group_240" data-name="Group 240"><path id="Path_174" data-name="Path 174" class="cls-1" d="M26.5,59.2,18.8,13.3,6.3,12Z"/><path id="Path_175" data-name="Path 175" class="cls-2" d="M18.3,6.2,48.8,16.7,20.5,0Z"/><path id="Path_176" data-name="Path 176" class="cls-3" d="M6.2,12,18.3,6.1,20.5,0Z"/><path id="Path_177" data-name="Path 177" class="cls-4" d="M6.2,12l20.9,2.2L18.3,6.1Z"/><path id="Path_178" data-name="Path 178" class="cls-5" d="M27.1,14.2l21.7,2.4L18.3,6.2Z"/><path id="Path_179" data-name="Path 179" class="cls-6" d="M0,65.4l26.5-6.2L6.2,12Z"/><path id="Path_180" data-name="Path 180" class="cls-7" d="M26.5,59.2l4.6,10.6L0,65.4Z"/><path id="Path_181" data-name="Path 181" class="cls-8" d="M26.5,59.2l-5.1-12L0,65.4Z"/><path id="Path_182" data-name="Path 182" class="cls-9" d="M31.1,69.8l-8.7,5.8L0,65.4Z"/><path id="Path_183" data-name="Path 183" class="cls-10" d="M27.1,14.2,40.6,48.6,31.1,69.9,26.5,59.3,18.7,13.4Z"/></g></g></g></svg>