<svg xmlns="http://www.w3.org/2000/svg" viewBox="0 0 121.7 43.5"><defs><style>.cls-1{isolation:isolate;}.cls-2{fill:#fff;}</style></defs><title>Asset 2</title><g id="Layer_2" data-name="Layer 2"><g id="Layer_1-2" data-name="Layer 1"><g class="cls-1"><path class="cls-2" d="M12.4,14.8a6.81,6.81,0,0,1-2.1,1,11,11,0,0,1-2.7.4,7.94,7.94,0,0,1-3.2-.6A7.76,7.76,0,0,1,2,14,8.74,8.74,0,0,1,.5,11.5,8.8,8.8,0,0,1,0,8.2,11.59,11.59,0,0,1,.5,4.8,7.16,7.16,0,0,1,2.1,2.3,6.08,6.08,0,0,1,4.5.8,8,8,0,0,1,7.7.3a7.27,7.27,0,0,1,4.5,1.3L11,3.8a9.14,9.14,0,0,0-1.4-.7A7.77,7.77,0,0,0,8,2.9,4.15,4.15,0,0,0,4.6,4.3,5.69,5.69,0,0,0,3.4,8.2a5.69,5.69,0,0,0,1.2,3.9A4.24,4.24,0,0,0,8,13.4a4.84,4.84,0,0,0,1.8-.3,6.11,6.11,0,0,0,1.4-.7Z"/><path class="cls-2" d="M17.4,0V12a1.74,1.74,0,0,0,.3,1.2,1.61,1.61,0,0,0,1.1.3H19v2.4a5.31,5.31,0,0,1-1.4.1,3,3,0,0,1-2.5-.9,4,4,0,0,1-.8-2.6V0Z"/><path class="cls-2" d="M23.5,10.9a2.65,2.65,0,0,0,1,2.1,3.59,3.59,0,0,0,2.2.6,7.72,7.72,0,0,0,1.5-.2,3.1,3.1,0,0,0,1.3-.6l1.1,1.8a5.94,5.94,0,0,1-4.1,1.3,6.69,6.69,0,0,1-2.6-.5,4.74,4.74,0,0,1-1.8-1.2A4.53,4.53,0,0,1,21,12.3a8.52,8.52,0,0,1-.4-2.3A6.25,6.25,0,0,1,21,7.5a5.67,5.67,0,0,1,1.2-1.8A4.18,4.18,0,0,1,24,4.6a7.8,7.8,0,0,1,2.2-.4,4.64,4.64,0,0,1,2.1.4,4,4,0,0,1,1.5,1,4.17,4.17,0,0,1,.9,1.6,6.45,6.45,0,0,1,.3,2V10c0,.3-.1.5-.1.7H23.5Zm2.6-4.2a2.35,2.35,0,0,0-1.7.6,3,3,0,0,0-.8,1.8h4.5V8.8a2.54,2.54,0,0,0-.5-1.6A2.46,2.46,0,0,0,26.1,6.7Z"/><path class="cls-2" d="M32.5,12.7A3.1,3.1,0,0,1,33.8,10a5.84,5.84,0,0,1,3.5-.9h1.8V8.7a2,2,0,0,0-.5-1.4A2.35,2.35,0,0,0,37,6.8a7.77,7.77,0,0,0-1.6.2,6.11,6.11,0,0,0-1.4.7L32.9,5.9A7,7,0,0,1,35,4.8a6.9,6.9,0,0,1,2.5-.4,4.78,4.78,0,0,1,3.4,1.1,4.46,4.46,0,0,1,1.2,3.2V13a1.17,1.17,0,0,0,.2.7.85.85,0,0,0,.6.2h.2v1.9c-.2.1-.4.1-.6.2s-.5.1-.8.1a2.41,2.41,0,0,1-1.5-.4,2.28,2.28,0,0,1-.6-1.2,4,4,0,0,1-1.3,1.3,4.65,4.65,0,0,1-2.1.5,4,4,0,0,1-2.7-.9A3.47,3.47,0,0,1,32.5,12.7Zm4.4,1.1a2,2,0,0,0,1.5-.6,2.31,2.31,0,0,0,.5-1.7v-.6H37.4a2.41,2.41,0,0,0-1.5.4,1.5,1.5,0,0,0-.5,1.2,1.05,1.05,0,0,0,.4,1A2,2,0,0,0,36.9,13.8Z"/><path class="cls-2" d="M45,4.7h1.8c.7,0,1.1.3,1.1,1V7.1a3.6,3.6,0,0,1,1.2-1.8,3.3,3.3,0,0,1,2.1-.7,2.77,2.77,0,0,1,.9.1V7.3h-.6a3.33,3.33,0,0,0-2.5.9,4.37,4.37,0,0,0-.8,2.9V16H45.1V4.7Z"/><path class="cls-2" d="M62.4,13.3h6.8v2.5h-10V.6h3.2Z"/><path class="cls-2" d="M71,.2h3.2V3H71Zm3.1,15.6H71V4.7h3.1Z"/><path class="cls-2" d="M77.2,4.7H79c.7,0,1.1.3,1.1,1v.8A4,4,0,0,1,81.5,5a4.14,4.14,0,0,1,2.3-.6,3.71,3.71,0,0,1,2.8,1,4.14,4.14,0,0,1,1,3.1v7.3H84.5v-7c0-1.3-.6-1.9-1.7-1.9a2.14,2.14,0,0,0-1.7.8,3.28,3.28,0,0,0-.6,2.1v6.1H77.2Z"/><path class="cls-2" d="M100.5,15.8H98.7a1.22,1.22,0,0,1-.9-.3,1,1,0,0,1-.3-.8v-.6a2.59,2.59,0,0,1-1.4,1.5,4.65,4.65,0,0,1-2.1.5A3.76,3.76,0,0,1,91.2,15a4.26,4.26,0,0,1-.9-3.1V4.7h3.1v7a2.08,2.08,0,0,0,.4,1.5,1.66,1.66,0,0,0,1.2.5,1.82,1.82,0,0,0,1.6-.8,3.28,3.28,0,0,0,.5-2.1V4.7h3.1V15.8Z"/><path class="cls-2" d="M109.3,10l4,5.8h-3.4l-2.3-3.7-2.3,3.7H102l4-5.7-3.8-5.5h3.4l2.1,3.5,2-3.5H113Z"/><path class="cls-2" d="M119,.6l-.3,2.6L120.9,2l.8,2.1-2.4.7,2,2.1-1.8,1.4L118,5.8l-1.5,2.5-1.8-1.4,1.9-2.1-2.4-.7L115,2l2.2,1.2L116.9.6Z"/></g><g class="cls-1"><path class="cls-2" d="M2.9,38.8H.8V23.6H6a5.26,5.26,0,0,1,3.9,1.3,4.51,4.51,0,0,1,1.4,3.5,4.51,4.51,0,0,1-1.4,3.5A5.26,5.26,0,0,1,6,33.2H2.8v5.6Zm0-7.3H6a3.29,3.29,0,0,0,2.4-.7,2.82,2.82,0,0,0,.8-2.3,3.2,3.2,0,0,0-.8-2.3A3.61,3.61,0,0,0,6,25.5H2.9Z"/><path class="cls-2" d="M14.1,27.8h1c.6,0,.9.3.9.8v1.1a4.71,4.71,0,0,1,1.3-1.5,4.65,4.65,0,0,1,2.1-.5H20c.2,0,.3,0,.4.1v1.6h-.7a3.34,3.34,0,0,0-2.7,1,4.42,4.42,0,0,0-.9,3.1v5.3h-2Z"/><path class="cls-2" d="M32.2,33.3a6.05,6.05,0,0,1-.4,2.4,5.44,5.44,0,0,1-1.1,1.8A5.23,5.23,0,0,1,29,38.7a5.38,5.38,0,0,1-2.2.4,5.09,5.09,0,0,1-2.2-.4,6.57,6.57,0,0,1-1.7-1.2,5.44,5.44,0,0,1-1.1-1.8,6.05,6.05,0,0,1-.4-2.4,6.05,6.05,0,0,1,.4-2.4,5.44,5.44,0,0,1,1.1-1.8,5.23,5.23,0,0,1,1.7-1.2,5.38,5.38,0,0,1,2.2-.4,5.38,5.38,0,0,1,2.2.4,5.23,5.23,0,0,1,1.7,1.2,5.44,5.44,0,0,1,1.1,1.8A6.72,6.72,0,0,1,32.2,33.3Zm-2.1,0a4.48,4.48,0,0,0-.9-3,3.39,3.39,0,0,0-5,0,4.48,4.48,0,0,0-.9,3,4.48,4.48,0,0,0,.9,3,3.39,3.39,0,0,0,5,0A4,4,0,0,0,30.1,33.3Z"/><path class="cls-2" d="M33.3,42a1.72,1.72,0,0,0,.8-.1.68.68,0,0,0,.7-.7c0-.2.1-.4.1-.7V27.8h2V40.6a2.92,2.92,0,0,1-.7,2.2,2.78,2.78,0,0,1-2.2.7h-.5a.9.9,0,0,1-.5-.1V41.9h.3Zm1.6-18.6h2v2.2h-2Z"/><path class="cls-2" d="M41.7,33.8a3.75,3.75,0,0,0,1.1,2.7,4,4,0,0,0,2.7.9,4.28,4.28,0,0,0,2.8-.9l.8,1.3a5.85,5.85,0,0,1-1.7,1,6.65,6.65,0,0,1-2.1.3,5.87,5.87,0,0,1-2.3-.4,5.44,5.44,0,0,1-1.8-1.1,4.18,4.18,0,0,1-1.1-1.8,9.35,9.35,0,0,1-.4-2.5,6.05,6.05,0,0,1,.4-2.4,5.44,5.44,0,0,1,1.1-1.8A3.86,3.86,0,0,1,42.9,28a4.64,4.64,0,0,1,2.1-.4,4.21,4.21,0,0,1,2,.4,3.59,3.59,0,0,1,1.4,1,4.17,4.17,0,0,1,.9,1.6,6.45,6.45,0,0,1,.3,2,5.28,5.28,0,0,1-.1,1.3H41.7ZM45,29.2a3.11,3.11,0,0,0-2.2.8,4.15,4.15,0,0,0-1.1,2.3h5.9v-.2a3.07,3.07,0,0,0-.7-2.2A2.35,2.35,0,0,0,45,29.2Z"/><path class="cls-2" d="M53.6,33.3a4,4,0,0,0,1,3,3.69,3.69,0,0,0,2.7,1.1,5.85,5.85,0,0,0,1.3-.2,2.73,2.73,0,0,0,1.2-.6l.8,1.4a5.62,5.62,0,0,1-3.5,1.1,6.57,6.57,0,0,1-2.5-.4,4.34,4.34,0,0,1-1.7-1.2,4,4,0,0,1-1-1.8,8.52,8.52,0,0,1-.3-2.3A6.05,6.05,0,0,1,52,31a5.44,5.44,0,0,1,1.1-1.8A5.67,5.67,0,0,1,54.9,28a6.05,6.05,0,0,1,2.4-.4,5.33,5.33,0,0,1,3.4,1.1l-.8,1.4a3.13,3.13,0,0,0-1-.5,6.05,6.05,0,0,0-1.5-.2,3.62,3.62,0,0,0-2.7,1A3.84,3.84,0,0,0,53.6,33.3Z"/><path class="cls-2" d="M68.4,38.8c-.2,0-.4.1-.6.1h-.6a3.67,3.67,0,0,1-2.7-.9,4.56,4.56,0,0,1-.8-2.9V29.4H61.8V27.8h1.9V25h2v2.8h2.8v1.6H65.7v5.9a1.91,1.91,0,0,0,.5,1.5,2.5,2.5,0,0,0,1.7.4h.5Z"/></g></g></g></svg>