<?xml version="1.0" encoding="UTF-8"?>
<svg width="720px" height="166px" viewBox="0 0 720 166" version="1.1" xmlns="http://www.w3.org/2000/svg" xmlns:xlink="http://www.w3.org/1999/xlink">
    <title>coolitalogo_画板 1</title>
    <g id="Mob" stroke="none" stroke-width="1" fill="none" fill-rule="evenodd">
        <g id="Coolita-OS-0708" transform="translate(-600.000000, -389.000000)" fill-rule="nonzero">
            <g id="coolitalogo_画板-1" transform="translate(600.000000, 389.000000)">
                <path d="M135.271492,138.37843 C135.271089,141.91073 133.83206,145.29085 131.285359,147.741421 C131.203401,147.823291 131.121443,147.882834 131.032034,147.964704 C116.130602,159.940103 98.9939546,166 80.1734454,166 C58.6665037,166.130886 38.0469064,157.443638 23.1307621,141.96584 C18.2192886,136.855175 14.0008936,131.122383 10.583756,124.914479 C3.50983354,112.049959 -0.133508765,97.5844215 0.00373900261,82.9075473 C-0.121090503,68.3361355 3.52324493,53.9794575 10.583756,41.2280969 C17.421022,28.8183587 27.4130047,18.4288608 39.5521407,11.1072511 C51.8055343,3.72796516 65.8660359,-0.11573699 80.1734454,0.00265467788 C90.6044481,0.00265467788 99.7911812,1.40933613 107.48032,4.18548524 C114.86398,6.82022193 122.419006,11.1965642 129.936779,17.1358859 C130.249709,17.3666115 130.555188,17.5898942 130.838316,17.842948 C135.850542,21.9782456 136.870818,29.25291 133.189192,34.6049224 C129.507567,39.9569349 122.343458,41.6136158 116.681955,38.4221767 C116.319707,38.2347914 115.973345,38.018235 115.646305,37.7746567 L114.633008,37.0303808 C109.417507,32.5647254 104.24671,29.2899114 99.3366875,27.3547941 C94.4266656,25.4196767 88.0190496,24.4670036 80.1361919,24.4670036 C70.4931786,24.4086592 61.0343408,27.104609 52.8740212,32.237244 C44.5168004,37.4908054 37.6694163,44.8233002 33.0029611,53.516092 C23.1587036,71.9135025 23.1587036,94.0057908 33.0029611,112.403201 C37.6894953,121.051924 44.5346258,128.343548 52.8740212,133.570408 C61.037933,138.727425 70.5144791,141.429903 80.1734454,141.355534 C92.3255636,141.355534 104.1424,137.090833 115.370629,128.702844 C116.69055,127.758924 118.138037,127.007135 119.669692,126.470016 C119.813331,126.407352 119.963169,126.359953 120.116735,126.328603 C124.808027,125.118784 129.774721,126.753193 132.827657,130.511434 C133.022841,130.73165 133.20211,130.965445 133.364108,131.211053 C133.535475,131.464107 133.669588,131.68739 133.811151,131.955329 C134.820134,133.943519 135.321776,136.149922 135.271492,138.37843 L135.271492,138.37843 Z" id="路径" fill="#040000"></path>
                <path d="M272.863868,121.57268 C270.196512,131.248267 264.839447,140.134921 256.978941,147.987032 C249.118436,155.839143 240.22228,161.220258 230.454391,163.936865 C216.61606,167.761529 201.825926,165.97759 189.296635,158.972544 C197.250372,154.734064 204.812603,149.800078 211.894657,144.228439 C213.245721,143.186453 214.5943,142.119657 215.940396,141.028052 C216.435465,141.077751 216.933079,141.097635 217.43054,141.087595 C220.044333,141.083737 222.647405,140.7537 225.179284,140.10515 C230.925667,138.607167 236.149849,135.561481 240.281886,131.300366 C244.52264,127.165118 247.567744,121.963372 249.096083,116.243665 C249.879544,113.223347 250.191183,110.100249 250.019972,106.984873 C251.092875,105.667504 252.158328,104.327808 253.164174,103.002997 C258.702713,95.9661101 263.616444,88.4601904 267.849536,80.570521 C269.926201,84.2755244 271.563967,88.2094584 272.729755,92.2928664 C275.496946,101.850785 275.543387,111.989867 272.863868,121.57268 Z" id="路径" fill="#E73B38"></path>
                <path d="M272.863868,121.57268 C270.196512,131.248267 264.839447,140.134921 256.978941,147.987032 C249.118436,155.839143 240.22228,161.220258 230.454391,163.936865 C216.61606,167.761529 201.825926,165.97759 189.296635,158.972544 C197.250372,154.734064 204.812603,149.800078 211.894657,144.228439 C213.245721,143.186453 214.5943,142.119657 215.940396,141.028052 C216.435465,141.077751 216.933079,141.097635 217.43054,141.087595 C220.044333,141.083737 222.647405,140.7537 225.179284,140.10515 C230.925667,138.607167 236.149849,135.561481 240.281886,131.300366 C244.52264,127.165118 247.567744,121.963372 249.096083,116.243665 C249.879544,113.223347 250.191183,110.100249 250.019972,106.984873 C251.092875,105.667504 252.158328,104.327808 253.164174,103.002997 C258.702713,95.9661101 263.616444,88.4601904 267.849536,80.570521 C269.926201,84.2755244 271.563967,88.2094584 272.729755,92.2928664 C275.496946,101.850785 275.543387,111.989867 272.863868,121.57268 Z" id="路径" fill="#040000"></path>
                <path d="M266.918197,68.8779466 C266.545661,69.8901618 266.128421,70.9247053 265.681378,71.9964626 C265.234335,73.0682199 264.809644,73.9539082 264.332798,74.9735662 C260.652144,82.7438066 255.235474,91.1838954 248.686294,99.594213 C247.941222,100.517115 247.255757,101.440017 246.503234,102.370362 L246.503234,102.370362 L244.17116,105.228382 C239.70073,110.579725 234.880117,115.87897 229.798728,120.954931 C224.71734,126.030893 219.494388,130.771931 214.152224,135.230143 C213.198533,136.019076 212.244841,136.770794 211.291149,137.589498 L211.291149,137.589498 C210.367261,138.333774 209.413569,139.040836 208.48968,139.770226 C200.010765,146.33474 191.561653,151.745625 183.753302,155.474448 C182.777258,155.950784 181.793764,156.404793 180.773016,156.821587 C179.752268,157.238382 178.664463,157.662619 177.628814,158.027314 C173.475996,159.714913 169.056151,160.652371 164.575159,160.79602 C160.141983,160.79602 156.379371,159.538194 153.652409,156.791816 C146.469918,149.609554 149.472557,135.952091 158.256951,120.448824 C158.316557,120.753977 158.398515,121.036802 158.458121,121.319627 C159.741403,125.721611 161.557916,129.950615 163.867341,133.912775 C160.387856,141.794657 159.91101,147.123672 161.594872,148.798293 C162.520285,149.516225 163.683909,149.856694 164.850835,149.750966 C167.123304,149.750966 170.319661,149.00669 174.335597,147.451153 C180.40048,145.099242 188.290788,140.75267 197.380662,134.165829 C206.073592,127.775618 214.258995,120.723683 221.863716,113.07305 C229.546299,105.480064 236.630625,97.3059584 243.053553,88.6235863 C249.677239,79.5359775 253.976303,71.6615385 256.360532,65.6031326 C258.998085,58.9046495 259.25141,54.4389941 257.709111,52.868572 C257.090702,52.250823 255.995447,51.9158988 254.482951,51.9158988 C251.815595,51.9158988 247.777307,52.9578851 242.71827,55.1981555 C238.741471,52.8811692 234.485049,51.0803745 230.052053,49.839369 C229.768926,49.7872697 229.433643,49.7053994 229.150516,49.6458573 C238.732137,44.1456584 247.628292,40.8782872 254.728825,40.8782872 C259.139649,40.8782872 262.872458,42.1435562 265.621772,44.8899343 C270.844724,50.0924228 270.732963,58.7409088 266.918197,68.8779466 Z" id="路径" fill="#EB613A"></path>
                <path d="M256.360532,65.5733616 C253.976303,71.6317674 249.654887,79.5062065 243.053553,88.5938152 C242.494749,87.8048828 241.876339,87.0531641 241.228127,86.2940027 C240.579915,85.5348413 239.968956,84.864993 239.290941,84.1877019 C239.149377,84.0537322 239.015264,83.8825488 238.873701,83.7411363 C234.479848,79.2333309 229.057253,75.8570859 223.070732,73.9018089 C220.614301,73.1023769 218.065083,72.6220948 215.485903,72.4727992 C212.353476,72.2628356 209.207736,72.5645042 206.172507,73.3659303 C194.580636,76.6020549 185.52126,85.6489343 182.27806,97.2274157 C181.471563,100.261348 181.159604,103.405254 181.354172,106.538307 C181.485874,109.139323 181.94907,111.712946 182.732554,114.196906 C184.619571,120.205481 187.976827,125.649121 192.500443,130.035097 L192.947486,130.489106 C193.647853,131.158954 194.378024,131.806474 195.108194,132.394452 C195.817294,133.044996 196.563622,133.653846 197.343409,134.217928 C188.253535,140.834541 180.363226,145.151341 174.298343,147.503253 C173.553272,146.758977 172.867806,146.051915 172.197241,145.270425 C171.526677,144.488935 170.878465,143.781873 170.230252,143.037597 C169.306363,141.921184 168.404827,140.80477 167.592699,139.651142 C166.892331,138.720797 166.244119,137.797895 165.655513,136.845222 C165.066906,135.892549 164.388891,134.910105 163.830087,133.92766 C161.526743,129.957393 159.717714,125.720836 158.443219,121.312184 C158.383614,121.029359 158.301656,120.746534 158.24205,120.441381 C157.874481,119.096723 157.566518,117.749583 157.318161,116.399963 C157.009501,114.910391 156.78562,113.404538 156.647597,111.889651 C155.949483,105.193481 156.538722,98.4257331 158.383614,91.9504995 C161.110576,82.2749128 166.467641,73.3063882 174.328146,65.4542774 C182.188652,57.6021667 190.973046,52.4145637 200.658977,49.7500559 C207.112479,47.9591504 213.842399,47.3787343 220.507685,48.0382214 C221.997829,48.2094048 223.532676,48.4029165 225.052622,48.6857414 C226.401202,48.9387952 227.772134,49.2439483 229.120713,49.6086435 C229.40384,49.6681856 229.739123,49.7500559 230.02225,49.8021552 C234.455246,51.0431607 238.711668,52.8439554 242.688467,55.1609417 C243.671962,55.7191487 244.677809,56.3145694 245.668754,56.9546467 C246.659699,57.5947239 247.583588,58.2199157 248.53728,58.889764 C249.654887,59.7010247 250.772495,60.5718275 251.875201,61.5021724 C252.620272,62.1124786 253.365344,62.7897697 254.147669,63.459618 C254.929994,64.1294663 255.630362,64.8439712 256.360532,65.5733616 Z" id="路径" fill="#040000"></path>
                <path d="M397.737872,77.5189898 C392.876783,68.8297264 385.719474,61.6414418 377.047233,56.7388066 C368.292641,51.7744864 358.301231,49.2513911 347.296523,49.2513911 C336.291815,49.2513911 326.076883,51.7744864 317.262686,56.6941501 C308.539688,61.5668937 301.360692,68.7872182 296.542244,77.5338753 C291.662025,86.3088882 289.188387,96.4905825 289.188387,107.729149 C289.188387,118.833745 291.662025,128.933569 296.542244,137.708582 C301.368912,146.429982 308.547603,153.624212 317.262686,158.47388 C326.076883,163.4382 336.180055,165.916639 347.296523,165.916639 C358.412992,165.916639 368.48636,163.415872 377.248402,158.47388 C385.9166,153.585973 393.050325,146.38255 397.849633,137.671368 C402.737302,128.896355 405.20375,118.796531 405.20375,107.691935 C405.233292,96.475697 402.7075,86.2791172 397.737872,77.5189898 Z M347.296523,142.345421 C341.36465,142.43834 335.520562,140.906806 330.398299,137.916979 C325.450552,135.003265 321.400995,130.785511 318.693224,125.72574 C315.780406,120.188 314.312079,114.006113 314.423963,107.751477 C314.332722,101.452797 315.810022,95.2302112 318.723026,89.6432442 C321.39113,84.5337088 325.434786,80.2701077 330.398299,77.3329208 C340.896062,71.4574558 353.696984,71.4574558 364.194747,77.3329208 C369.144576,80.252105 373.156506,84.5231399 375.758259,89.6432442 C378.61796,95.2463717 380.063124,101.462882 379.967914,107.751477 C380.072543,113.994781 378.637025,120.167817 375.788062,125.72574 C373.143963,130.796605 369.126902,135.023424 364.194747,137.924422 C359.071734,140.911648 353.227694,142.440595 347.296523,142.345421 L347.296523,142.345421 Z" id="形状" fill="#040000"></path>
                <path d="M465.449981,152.921581 C465.513773,156.320733 464.221386,159.605626 461.857838,162.05182 C459.494291,164.498013 456.25373,165.904571 452.85082,165.961947 L452.426129,165.961947 C446.330981,166.001471 440.368494,164.183998 435.334186,160.751364 C430.157561,157.148783 426.101068,152.162898 423.629111,146.364511 C420.849751,139.970946 419.463059,133.060115 419.56102,126.090435 L419.56102,16.8084045 C419.56102,16.361839 419.56102,15.9152734 419.613175,15.4612651 C420.269612,9.45234611 425.019779,4.70725139 431.035123,4.05151558 C431.489616,4.05151558 431.936659,3.99197351 432.383702,3.99197351 C432.830745,3.99197351 433.285239,3.99197351 433.732282,4.05151558 C439.747625,4.70725139 444.497793,9.45234611 445.15423,15.4612651 C445.15423,15.9152734 445.213836,16.361839 445.213836,16.8084045 L445.213836,126.112763 C445.213836,130.511434 446.025964,134.158386 447.65767,136.904764 C449.42349,139.963738 451.219113,140.328433 452.426129,140.328433 L452.627298,140.328433 C459.628818,140.319433 465.340015,145.928396 465.449981,152.921581 Z" id="路径" fill="#040000"></path>
                <path d="M503.016492,17.7313066 L489.776569,9.70056967 C487.75003,8.47229287 485.217987,8.43085735 483.152259,9.59216641 C481.086532,10.7534755 479.808052,12.9371077 479.807511,15.3049672 L479.807511,31.3589984 C479.808052,33.7268579 481.086532,35.9104901 483.152259,37.0717992 C485.217987,38.2331083 487.75003,38.1916727 489.776569,36.9633959 L503.016492,28.9698728 C504.990453,27.7840917 506.197784,25.6515201 506.197784,23.3505897 C506.197784,21.0496593 504.990453,18.9170877 503.016492,17.7313066 L503.016492,17.7313066 Z" id="路径" fill="#EB613A"></path>
                <path d="M506.01168,63.8912981 L506.01168,152.94391 C506.01168,153.420246 506.01168,153.874255 505.959525,154.32082 C505.264862,160.953335 499.6674,165.990335 492.991553,165.990335 C486.315707,165.990335 480.718244,160.953335 480.023582,154.32082 C480.023582,153.874255 479.963976,153.420246 479.963976,152.94391 L479.963976,63.8912981 C479.963976,63.4149615 479.963976,62.9386249 480.023582,62.4846166 C480.712301,56.3849157 485.551081,51.5822488 491.6616,50.9334546 C492.116094,50.9334546 492.563137,50.8813553 493.01018,50.8813553 C493.457223,50.8813553 493.963872,50.8813553 494.418365,50.9334546 C500.477456,51.6355247 505.256704,56.4096686 505.959525,62.4622883 C505.989328,62.9386249 506.01168,63.4149615 506.01168,63.8912981 Z" id="路径" fill="#040000"></path>
                <path d="M589.265983,153.144864 C589.253679,160.218086 583.516634,165.949005 576.435849,165.961295 C575.988807,165.961295 575.564116,165.961295 575.117073,165.901753 C568.695392,165.742522 562.437576,163.84403 557.011832,160.408997 C551.166491,156.74572 546.42176,151.571437 543.280162,145.434166 C539.945645,138.899421 538.250417,131.653231 538.340337,124.319058 L538.340337,77.6604022 L531.895468,77.6604022 C531.508031,77.6604022 531.150396,77.6604022 530.748058,77.6008602 C524.925639,77.0041327 520.498544,72.1048268 520.498544,66.2580954 C520.498544,60.411364 524.925639,55.5120582 530.748058,54.9153307 C531.113143,54.9153307 531.493129,54.8632314 531.895468,54.8632314 L538.295633,54.8632314 L538.295633,28.8135748 C538.295633,28.3595665 538.295633,27.913001 538.355239,27.4664354 C539.011096,21.4559017 543.760656,16.7083192 549.777187,16.0492431 C550.22423,16.0492431 550.678724,15.9971438 551.125767,15.9971438 C551.572809,15.9971438 552.027303,15.9971438 552.474346,16.0492431 C558.510343,16.6933062 563.280942,21.4526136 563.933548,27.481321 C563.933548,27.9278865 563.993153,28.374452 563.993153,28.8284603 L563.993153,54.8781169 L578.224021,54.8781169 C578.618909,54.8781169 579.006347,54.8781169 579.401235,54.9302162 C585.223653,55.5269437 589.650748,60.4262495 589.650748,66.2729809 C589.650748,72.1197124 585.223653,77.0190182 579.401235,77.6157457 C579.006347,77.6157457 578.656163,77.6752877 578.224021,77.6752877 L563.993153,77.6752877 L563.993153,124.333944 C563.993153,129.04521 565.229972,132.855903 567.778117,135.966976 C570.169797,138.94408 572.993619,140.343319 576.428399,140.343319 C583.507985,140.347402 589.249558,146.072857 589.265983,153.144864 L589.265983,153.144864 Z" id="路径" fill="#040000"></path>
                <path d="M712.30711,77.9953264 C707.342133,69.2534272 700.142942,61.9848727 691.445105,56.9323184 L691.445105,56.9323184 C682.525171,51.7850691 672.382404,49.1318958 662.081832,49.2513911 C651.723009,49.1566052 641.524209,51.8069509 632.524841,56.9323184 C623.757484,61.929642 616.511403,69.2091403 611.558526,77.9953264 C606.475099,87.0694891 603.862426,97.3165508 603.981147,107.714263 C603.848687,118.024168 606.267273,128.207173 611.022074,137.358772 C615.481532,145.974187 622.193888,153.222066 630.446091,158.332467 C638.755082,163.417046 648.329753,166.060939 658.073347,165.961295 C665.98301,166.009008 673.801583,164.273968 680.947046,160.885334 C685.704965,158.608718 690.086848,155.61947 693.941095,152.021008 C693.941095,152.527115 693.941095,153.003452 694.000701,153.509559 C694.696079,160.378845 700.639343,165.510877 707.544233,165.204453 C714.449122,164.898028 719.9134,159.259754 719.996249,152.355932 L719.996249,107.699378 C720.113931,97.2922737 717.460288,87.0409375 712.30711,77.9953264 L712.30711,77.9953264 Z M690.498864,125.495014 C687.773428,130.580957 683.731024,134.842668 678.793789,137.835109 C668.481695,143.848755 655.726674,143.848755 645.41458,137.835109 C640.443569,134.836096 636.364172,130.565782 633.597744,125.465243 C630.643717,120.01943 629.137849,113.907574 629.224174,107.714263 C629.152607,101.487114 630.657006,95.3428179 633.597744,89.8516415 C636.343642,84.7010708 640.424969,80.3824669 645.41458,77.3478063 C652.974812,72.7408344 662.106794,71.4653561 670.64204,73.8242475 C679.177286,76.1831389 686.354387,81.965969 690.469061,89.7995422 C696.180687,101.003565 696.180687,114.261221 690.469061,125.465243 L690.498864,125.495014 Z" id="形状" fill="#040000"></path>
            </g>
        </g>
    </g>
</svg>