<?xml version="1.0" encoding="UTF-8" standalone="no"?>
<svg xmlns:rdf="http://www.w3.org/1999/02/22-rdf-syntax-ns#" xmlns="http://www.w3.org/2000/svg" height="163.675229452" width="610.96599855" version="1.1" xmlns:cc="http://creativecommons.org/ns#" viewBox="0 0 1524.0997 408.30002" xmlns:dc="http://purl.org/dc/elements/1.1/">
 <g transform="translate(-8.9002 -8.6998)" fill="#222">
  <path d="m849.59 206.39c1.6272-28.09 17.484-43.804 42.394-43.719 27.449 0.21682 42.118 18.79 42.644 43.719 0.30052 26.897-15.138 44.644-42.477 45.306-28.805-0.66265-42.55-18.41-42.56-45.306zm42.56 26.908c16.806-0.0113 18.875-15.011 18.858-26.908 0.0229-13.524-6.3809-24.872-19.149-24.992-15.235 0.32173-19.658 13.794-19.831 24.992 0.37539 11.897 3.2808 26.897 20.122 26.908z"/>
  <path d="m536.57 233.4c10.125 0.005 14.189-8.7502 14.193-15.121h22.679c-1.7242 21.023-17.958 32.872-36.949 32.915-25.238-0.1839-39.91-11.286-39.876-43.694-0.0347-36.625 22.488-43.648 39.964-44.082 23.352 0.008 36.855 11.492 36.834 31.575h-22.652c-0.004-8.4408-5.7244-13.063-14-12.941-12.78-0.0537-18.1 8.9846-18.1 25.448 0 16.883 5.2547 25.729 17.907 25.9z"/>
  <path d="m621.54 225.76 17.122-60.966 23.5-0.00048-35.549 100.74c-7.2752 15.123-7.5793 16.867-35.751 16.87v-17.98c11.578 3.1669 19.941-3.9775 18.956-13.174l-30.936-86.454 24.683-0.00048z"/>
  <path d="m722.41 248.37-1.197-8.3907h-2.0102c-13.632 18.306-50.433 15.546-50.392-13.791-0.0413-18.828 15.139-26.713 28.756-27.172 6.5543-0.76742 10.456-1.1973 15.129-2.2088 8.6593-1.8745 8.7196-7.3004 5.1004-13.082-5.4571-5.0684-25.915-5.2505-25.597 8.1973l-20.77-0.0325c-0.008-22.42 17.115-28.585 37.041-28.25 14.897-0.085 31.273 5.3726 32.66 21.28l-0.0442 52.893c-0.004 4.6565 4.6844 7.5661 4.6844 7.5661v2.8957zm-2.6681-28.436-0.0884-11.855h-0.98348c-0.93255 2.4345-7.7436 3.9202-13.319 4.6376-5.5625 0.71574-11.864 2.2617-13.69 6.158-1.114 2.3777-4.3029 9.0351 2.3294 14.482 10.096 5.2946 23.124-0.0733 25.751-13.423z"/>
  <path d="m781.26 176.33h1.09c7.6955-11.093 15.335-12.949 24.749-12.974 19.34-0.0397 27.352 13.286 27.571 21.624v63.4h-22.75l-0.10004-53.33c-0.11911-10.195-5.4552-13.466-12.617-13.398-7.9903-0.24782-17.47 5.9628-17.463 18.598v48.152l-21.37-0.0225v-83.68h20.89z"/>
  <path d="m1003 176.74v-11.26h21.053v82.088c0 11.657-3.0752 21.603-10.913 27.216-24.613 14.377-66.624 7.493-66.69-17.604h23.498c5.2898 11.862 26.512 12.616 31.656-1.9128 1.1746-5.8684 0.8557-17.557 0.8557-17.557h-1.4366c-5.6938 13.322-29.451 13.891-42.388 3.9181-8.5529-6.5928-13.889-17.291-13.925-32.42 0.0916-50.836 44.111-56.05 58.29-32.468zm-18.892 54.468c13.054-0.15206 18.799-12.923 18.749-24.371-0.053-11.844-5.7673-24.571-18.764-24.565-12.497-0.0106-17.248 12.722-17.272 24.651 0.0237 11.361 4.7967 24.133 17.287 24.285z"/>
  <path d="m1081.8 251.12c-27.157-0.0148-44.147-14.442-44.147-41.435-0.0004-30.908 16.65-47.042 41.893-47.149 26.022 0.10747 39.607 22.319 39.575 38.977l0.042 11.267-59.93-0.0111c-0.3419 20.516 25.45 30.182 36.76 11.511h21.93c-1.9465 9.0047-12.395 26.825-36.123 26.84zm-21.445-52.51 36.651 0.02c0.021-23.338-36.649-23.338-36.651-0.02z"/>
  <path d="m1152 176.33h1.09c7.6955-11.093 15.335-12.949 24.749-12.974 19.34-0.0397 27.352 13.286 27.571 21.624v63.4h-22.75l-0.1-53.33c-0.1191-10.195-5.4553-13.466-12.617-13.398-7.9903-0.24782-17.47 5.9628-17.463 18.598v48.152l-21.37-0.0221v-83.68h20.89z"/>
  <path d="m1293.7 176.44c3.8064-8.3525 14.48-12.97 23.894-12.996 19.34-0.0397 25.568 14.556 26.405 21.536v63.4h-22.15v-53.33c-0.1191-9.2227-4.746-12.846-12.464-12.882-8.8391-0.0271-13.54 3.565-13.886 18.082v48.152l-22.3-0.0221 0.484-53.33zm-47.331-0.11009 0.63 0.00009c7.2294-11.093 13.405-12.949 22.249-12.974 9.4466 1.0026 19.143 2.0437 22.331 13.084h2.121l-20.017 18.61c-0.2247-17.05-26.117-17.05-26.239-0.17509l-0.125 53.527-21.97-0.0221v-83.68h21.02z"/>
  <path d="m1358.5 206.39c1.6272-28.09 17.484-43.804 42.394-43.719 27.449 0.21682 42.118 18.79 42.644 43.719 0.3005 26.897-15.138 44.644-42.477 45.306-28.805-0.66265-42.55-18.41-42.56-45.306zm42.56 26.908c16.806-0.0113 18.875-15.011 18.858-26.908 0.023-13.524-6.3809-24.872-19.149-24.992-15.235 0.32173-19.658 13.794-19.831 24.992 0.3754 11.897 3.2809 26.897 20.122 26.908z"/>
  <path d="m1487.6 163.66c-16.41 0.44847-34.943 11.121-34.734 46.482 0.037 15.713 5.9251 26.268 14.141 33.674 12.079 10.888 37.717 10.318 44.207-5.1094h1.3965l0.037 9.6504h20.363v-111.97h-21.75v38.74h-0.463c-4.1729-8.2008-13.351-11.735-23.197-11.466zm5.2618 18.506c13.199-0.006 19.467 13.215 19.355 25.516-0.1252 13.834-6.082 25.155-19.34 25.312-12.685-0.15793-17.533-13.424-17.557-25.225 0.024-12.391 4.8495-25.615 17.541-25.604z"/>
 </g>
 <g transform="translate(-8.9002 -8.6998)">
  <ellipse rx="177.39" ry="177.39" stroke="#33b5e5" cy="212.85" cx="213.05" stroke-miterlimit="0" stroke-width="53.524" fill="none"/>
  <path d="m225.31 270.92h-24.991c0.003 7.3778 5.2569 9.7165 12.21 9.743 6.7734-0.0266 12.781 0.4632 12.781-9.743zm-75.91-122.11-15.55-37.72c-4.407-9.2725-17.914-3.577-13.749 6.4525l14.836 35.723c-18.291 5.2692-30.876 21.149-31.001 36.221l0.0625 76.085c0.0625 12.24 16.329 33.193 45.306 37.48 34.092 7.6381 92.356 7.3175 127.48 0 25.011-3.2029 44.22-22.417 44.158-37.48v-80.458c0.062-11.378-13.288-27.461-29.72-31.973l14.898-37.981c2.7284-8.2263-9.3445-11.737-12.773-4.7614l-16.563 38.495c-29.964-8.2642-96.007-8.3832-127.39-0.0883zm7.971 43.575c17.956 0 32.388 14.424 32.388 32.37 0 17.947-14.431 32.37-32.388 32.37-17.956 0-32.388-14.424-32.388-32.37 0-17.947 14.431-32.37 32.388-32.37zm111.13 0c17.956 0 32.388 14.424 32.388 32.37 0 17.947-14.431 32.37-32.388 32.37-17.956 0-32.388-14.424-32.388-32.37 0-17.947 14.431-32.37 32.388-32.37z" fill-rule="evenodd" fill="#33b5e5"/>
 </g>
</svg>
