<?xml version="1.0" encoding="UTF-8"?>
<svg width="223.38" height="50.588" version="1.1" xmlns="http://www.w3.org/2000/svg">
 <path d="m63.283 40.39v-32h20.53v5.22h-14.36v8.6h11.56v5.24h-11.56v12.94zm43.86-22.53v22.53h-5.13l-0.46-3.82a7.77 7.77 0 0 1-3 3.18 8.86 8.86 0 0 1-4.67 1.17 8.18 8.18 0 0 1-6.5-2.63c-1.54-1.76-2.32-4.33-2.32-7.72v-12.71h5.82v12.17a7.19 7.19 0 0 0 1.18 4.45 4.34 4.34 0 0 0 3.68 1.55 5.21 5.21 0 0 0 4-1.73 6.91 6.91 0 0 0 1.57-4.81v-11.63zm14.94 23.06a12.06 12.06 0 0 1-6.09-1.5 10.89 10.89 0 0 1-4.16-4.17 12.29 12.29 0 0 1-1.52-6.14 12.25 12.25 0 0 1 1.52-6.13 10.92 10.92 0 0 1 4.18-4.17 12.06 12.06 0 0 1 6.09-1.5 11.61 11.61 0 0 1 7.26 2.25 10 10 0 0 1 3.77 6.2h-6.12a4.52 4.52 0 0 0-1.79-2.57 5.64 5.64 0 0 0-7.25 0.89 7.14 7.14 0 0 0-1.68 5 7.18 7.18 0 0 0 1.68 5 5.37 5.37 0 0 0 4.04 1.9 5.49 5.49 0 0 0 3.16-0.91 4.35 4.35 0 0 0 1.84-2.59h6.13a10.26 10.26 0 0 1-3.77 6.14 11.41 11.41 0 0 1-7.29 2.3zm14.39-0.54v-32.7h5.81v13.63a8.15 8.15 0 0 1 3.07-2.93 9 9 0 0 1 4.43-1.07 8.12 8.12 0 0 1 6.47 2.61c1.53 1.75 2.29 4.33 2.29 7.72v12.75h-5.77v-12.18a7.35 7.35 0 0 0-1.15-4.45 4.29 4.29 0 0 0-3.61-1.54 5.33 5.33 0 0 0-4.12 1.7 6.83 6.83 0 0 0-1.61 4.82v11.65zm35.46 0.54a13.32 13.32 0 0 1-5.27-1 9 9 0 0 1-3.65-2.67 7.88 7.88 0 0 1-1.64-4h5.86a3.82 3.82 0 0 0 1.48 2.25 4.94 4.94 0 0 0 3.11 0.93 4.18 4.18 0 0 0 2.8-0.78 2.28 2.28 0 0 0 0.88-1.77 1.94 1.94 0 0 0-1.27-2 23 23 0 0 0-3.54-1c-1-0.21-2-0.46-3-0.77a13.52 13.52 0 0 1-2.68-1.19 6 6 0 0 1-2-1.81 4.74 4.74 0 0 1-0.77-2.75 6.38 6.38 0 0 1 2.39-5 9.94 9.94 0 0 1 6.7-2.05 10.1 10.1 0 0 1 6.38 1.86 7.57 7.57 0 0 1 2.84 5.14h-5.54q-0.49-2.51-3.77-2.5a4.23 4.23 0 0 0-2.52 0.64 1.88 1.88 0 0 0-0.88 1.59c0 0.66 0.43 1.19 1.31 1.59a20.42 20.42 0 0 0 3.5 1.09c1.57 0.36 3 0.76 4.34 1.2a7.33 7.33 0 0 1 3.16 2 5.35 5.35 0 0 1 1.18 3.7 6.39 6.39 0 0 1-1.09 3.78 7.59 7.59 0 0 1-3.23 2.58 12.27 12.27 0 0 1-5.08 0.94zm16.2-26.57a3.69 3.69 0 0 1-2.61-1 3.17 3.17 0 0 1-1-2.41 3.09 3.09 0 0 1 1-2.39 4.13 4.13 0 0 1 5.22 0 3.1 3.1 0 0 1 1 2.39 3.17 3.17 0 0 1-1 2.41 3.69 3.69 0 0 1-2.61 1.01zm-2.91 26v-22.49h5.79v22.53zm36.59-4.62a2 2 0 0 1-0.8 0.19 1.69 1.69 0 0 1-1.78-1.6v-16.46h-5.5l-0.3 3.06a8 8 0 0 0-3.09-2.68 9.76 9.76 0 0 0-4.45-1 10.75 10.75 0 0 0-5.68 1.52 11 11 0 0 0-3.95 4.18 12.44 12.44 0 0 0-1.45 6.07 12.51 12.51 0 0 0 1.45 6.08 11.1 11.1 0 0 0 3.95 4.23 10.59 10.59 0 0 0 5.68 1.6 11.15 11.15 0 0 0 8.46-3.75 5.57 5.57 0 0 0 5.49 3.75 6.16 6.16 0 0 0 3.54-1.09zm-10.08-1.81a6.52 6.52 0 0 1-9.2 0 6.76 6.76 0 0 1-1.82-4.86 6.62 6.62 0 0 1 1.82-4.82 6.14 6.14 0 0 1 4.59-1.86 6.08 6.08 0 0 1 4.61 1.89 6.72 6.72 0 0 1 1.79 4.83 6.76 6.76 0 0 1-1.79 4.82zm-179.29-4.89c6.16 0.48 12.27-2.21 13-9a0.6 0.6 0 0 0-0.31-0.6 0.58 0.58 0 0 0-0.8 0.33c-3.15 6.91-11.26 4.47-14.52 3.77a62.64 62.64 0 0 0-13.27-1.71c-6.16 0.15-10.19 1.84-13.86 6.41-3.67 4.57-4.25 14.1 2.59 19.28a15.64 15.64 0 0 0 20-1.14 19.93 19.93 0 0 0 5.38-16.63c-2.54-0.37-5-0.87-7.43-1.32-8.79-1.67-14.07 0-16.58 5.18a8.72 8.72 0 0 0 0 7.82 9.34 9.34 0 0 0 6.89 4.9 11.86 11.86 0 0 0 10.07-2.5c3.24-2.78 4.93-7.41 4.78-13l0.95 0.16c0.14 5.81-1.7 10.62-5.11 13.57a12.75 12.75 0 0 1-10.87 2.71 10.28 10.28 0 0 1-7.51-5.34 9.69 9.69 0 0 1 0-8.67 10.35 10.35 0 0 1 6.43-5.6c2.9-0.92 6.56-1 11.19-0.09 3.3 0.6 7.26 1.36 8.98 1.47zm-13.89 8.29c-1.79 3.41-6.36 4-8.52 1.68-2.16-2.32-0.95-5.62 1-7.28a10.64 10.64 0 0 1 8.8-2.06c-0.09 3.26-0.33 5.86-1.28 7.66zm0.53-16.32a67 67 0 0 1 10.87 1.63c-1.51-6.46 0-11.86 4.75-13.65a7.86 7.86 0 0 1 10.75 6.17c0.09 0.49 0.33 0.64 0.65 0.68a0.71 0.71 0 0 0 0.78-0.53 12.07 12.07 0 0 0-3.87-12.38 13.42 13.42 0 0 0-11.18-2.62c-9.41 1.96-13.24 10.77-12.75 20.7zm27.37-6.6c0.84-3.78-3.36-13.4-12.62-12.42a13.32 13.32 0 0 0-9.47 5.44c-2.18 3.16-3 7.34-3 12.47l-0.94-0.08c0-3.27 0.17-8.56 3-12.68a14.1 14.1 0 0 1 9.78-6c10.72-1.42 14.55 9.47 13.25 13.27z" fill="#2f2f31"/>
</svg>
