<svg width="280" height="84" viewBox="0 0 280 84" fill="none" xmlns="http://www.w3.org/2000/svg">
<path d="M15.0867 20.6655V16.8131C15.0867 13.9717 15.3427 11.6271 16.6933 10.2935C17.5761 9.36966 18.812 8.87284 20.8513 8.87284C22.8782 8.85905 24.88 9.31584 26.6953 10.2064L29.7497 2.25743C26.6506 0.793676 23.2626 0.0228895 19.8272 0C13.895 0 10.1167 1.67347 7.79494 4.68919C5.67627 7.44344 4.8288 11.2959 4.8288 16.0199V20.622H0V29.1549H4.8288V63.7137H15.0867V29.1985H27.013L23.7556 20.6655H15.0867Z" fill="#222222"/>
<path d="M59.0666 20.6658L49.0647 49.1932H48.8705L43.2737 32.9292H32.4773L43.4767 61.7442L36.5116 79.8995L45.6572 83.3336L70.2338 20.6658H59.0666Z" fill="#222222"/>
<path d="M42.0123 29.1988H31.057L27.7996 20.6658H39.0727L42.0123 29.1988Z" fill="#E40046"/>
<path d="M105.766 1.00204V25.1017C104.075 23.3709 102.046 21.9966 99.8022 21.0618C97.5581 20.127 95.1454 19.6511 92.7098 19.6629C80.1743 19.6629 71.6113 30.2877 71.6113 42.0804C71.6113 54.6314 80.5097 64.7419 92.542 64.7419C97.3708 64.7419 103.047 62.9028 106.19 58.2136L106.693 63.7396H116.103V0.984619L105.766 1.00204ZM105.766 49.1926C104.689 51.2211 103.067 52.9183 101.079 54.0988C99.0912 55.2793 96.8128 55.8977 94.493 55.8865C86.7775 55.8865 82.037 49.3669 82.037 42.3332C82.037 35.7265 86.1066 28.527 94.6607 28.527C96.8113 28.5263 98.9328 29.0169 100.859 29.9605C102.786 30.904 104.465 32.2749 105.766 33.9658V49.1926Z" fill="#222222"/>
<path d="M166.016 39.6575C166.016 28.1089 157.285 19.6631 145.421 19.6631C133.062 19.6631 123.475 29.5383 123.475 42.5076C123.475 55.3027 131.95 64.7595 145.421 64.7595C154.487 64.7595 160.172 61.4125 165.001 54.3875L158.053 49.7855C155.334 54.3003 151.697 56.4793 146.012 56.4793C138.897 56.4793 134.492 51.2497 133.812 44.765H165.592C165.86 43.0751 166.002 41.368 166.016 39.6575ZM134.404 37.4872C135.763 31.9613 139.409 27.7776 145.677 27.7776C151.097 27.7776 155.255 31.8741 155.511 37.4872H134.404Z" fill="#222222"/>
<path d="M202.368 4.18445C196.309 4.21888 190.395 6.02446 185.374 9.37341C180.352 12.7224 176.448 17.4647 174.153 23.002C171.858 28.5393 171.276 34.6237 172.479 40.4874C173.683 46.3512 176.618 51.7317 180.915 55.9501C185.213 60.1685 190.679 63.0359 196.625 64.1905C202.571 65.3452 208.729 64.7353 214.325 62.4378C219.92 60.1403 224.7 56.2583 228.063 51.2813C231.426 46.3043 233.221 40.4554 233.221 34.4724C233.256 30.4707 232.48 26.5026 230.94 22.801C229.399 19.0995 227.125 15.7392 224.251 12.9176C221.376 10.0961 217.96 7.87003 214.202 6.3703C210.444 4.87058 206.421 4.1274 202.368 4.18445V4.18445ZM202.368 55.6086C191.016 55.6086 182.709 46.3174 182.709 34.4376C182.709 22.5577 191.016 13.2665 202.368 13.2665C213.721 13.2665 222.116 22.5577 222.116 34.4376C222.116 46.3174 213.809 55.6435 202.368 55.6435V55.6086Z" fill="#222222"/>
<path d="M261.444 28.0303C256.695 26.4353 250.851 24.5962 250.851 19.9942C250.851 15.5665 254.744 13.1347 259.678 13.1347C264.251 13.1347 269.001 15.4793 272.037 18.1551L278.217 10.7117C272.774 6.44537 266.019 4.14217 259.069 4.18341C249.359 4.18341 240.337 9.41298 240.337 20.4997C240.337 30.6189 248.732 34.4452 256.695 37.3128C262.874 39.4918 268.895 41.5836 268.895 47.188C268.895 53.2891 263.598 55.8081 258.39 55.8081C252.29 55.8081 248.388 53.5506 243.223 48.6087L236.099 55.3897C242.544 61.6652 249.341 64.7593 258.31 64.7593C268.135 64.7593 280 59.5298 280 46.604C280 34.7764 270.166 30.9589 261.444 28.0303Z" fill="#222222"/>
</svg>
