<?xml version="1.0" encoding="UTF-8" standalone="no"?>
<!-- Created with Inkscape (http://www.inkscape.org/) -->

<svg
   width="137.77127mm"
   height="29.969292mm"
   viewBox="0 0 137.77127 29.969292"
   version="1.1"
   id="svg126187"
   xmlns="http://www.w3.org/2000/svg"
   xmlns:svg="http://www.w3.org/2000/svg">
  <defs
     id="defs126184" />
  <g
     id="layer1"
     transform="translate(-57.656586,-74.04793)">
    <g
       id="layer1-7"
       transform="translate(29.092012,-10.995987)">
      <path
         id="rect67919"
         style="stroke-width:1.05158;fill:#000000"
         d="M 28.564574,107.9508 H 166.33584 v 0.57992 H 28.564574 Z" />
      <g
         aria-label="GRAPHIC ENVIRONMENT OPERATING SYSTEM"
         id="text69755"
         style="font-size:6.35px;line-height:1.25;font-family:'GoudyOlSt XBd BT';-inkscape-font-specification:'GoudyOlSt XBd BT';stroke-width:0.264583;fill:#000000">
        <path
           d="m 32.384286,113.79148 v -0.69763 q 0,-0.18914 -0.08372,-0.25735 -0.08062,-0.0682 -0.328662,-0.0868 -0.120923,-0.0124 -0.124024,-0.0806 -0.0031,-0.0589 0.10542,-0.0589 l 0.124024,0.003 0.232544,0.003 q 0.47749,0 0.555004,-0.006 0.213941,-0.0155 0.248047,-0.0155 0.07131,0 0.07131,0.0589 0,0.0527 -0.09302,0.0775 -0.235644,0.0558 -0.235644,0.34107 l 0.0031,0.0992 v 0.99219 l 0.0062,0.0992 -0.0186,0.0465 q -0.0186,0.0155 -0.08992,0.0248 -0.08372,0.0124 -0.257349,0.11162 l -0.204638,0.12093 q -0.604615,0.35036 -1.299146,0.35036 -0.930176,0 -1.525488,-0.59531 -0.595313,-0.59841 -0.595313,-1.52859 0,-0.97668 0.629419,-1.62781 0.63252,-0.65112 1.581299,-0.65112 0.365869,0 0.775147,0.10542 0.412378,0.10542 0.657324,0.26355 0.03721,0.0248 0.05271,0.0248 0.0217,0 0.05891,-0.0248 l 0.07441,-0.0558 q 0.0217,-0.0186 0.04341,-0.0186 0.05581,0 0.05581,0.14572 0,0.0682 0.0186,0.21084 l 0.03101,0.29146 q 0.0155,0.11782 0.04341,0.23564 0.0155,0.0558 0.0155,0.0899 0,0.0744 -0.06201,0.0775 -0.04031,0.003 -0.06821,-0.0527 -0.241846,-0.4961 -0.744141,-0.80616 -0.502295,-0.31005 -1.063501,-0.31005 -0.700732,0 -1.144116,0.5333 -0.443384,0.5333 -0.443384,1.37666 0,0.90537 0.508496,1.51618 0.511597,0.60772 1.265039,0.60772 0.719336,0 1.125513,-0.5085 0.09922,-0.12402 0.09922,-0.42478 z"
           style="font-family:'Goudy Old Style';-inkscape-font-specification:'Goudy Old Style';fill:#000000"
           id="path27" />
        <path
           d="m 35.816634,112.70318 0.855762,1.26503 0.09922,0.14883 q 0.396874,0.58291 0.731738,0.60462 l 0.09922,0.006 q 0.05581,0.003 0.05271,0.0434 -0.0031,0.0465 -0.139526,0.0837 -0.133325,0.0372 -0.303857,0.0372 -0.279053,0 -0.502295,-0.15193 -0.220142,-0.15503 -0.449585,-0.50229 l -0.772046,-1.17823 -0.04341,-0.0682 q -0.07441,-0.12712 -0.241846,-0.12712 H 34.79034 l -0.06821,0.0124 q -0.03721,0.0217 -0.03721,0.0992 v 0.96738 l 0.0031,0.12402 q 0,0.26665 0.0248,0.36587 0.02791,0.0961 0.127124,0.17364 0.133326,0.10542 0.412378,0.13332 0.111622,0.0124 0.114722,0.0713 0.0062,0.062 -0.102319,0.062 -0.04341,0 -0.182935,-0.0124 -0.127124,-0.0124 -0.393774,-0.0124 l -0.297656,-0.003 -0.161231,0.003 q -0.10542,0 -0.254248,0.0155 -0.120923,0.0124 -0.167432,0.0124 -0.07751,0 -0.07751,-0.0651 0,-0.0465 0.07751,-0.062 0.248047,-0.0465 0.325562,-0.22324 0.07752,-0.17983 0.07752,-0.70383 v -2.22622 l -0.0062,-0.32246 q 0,-0.4837 -0.337963,-0.53951 l -0.145728,-0.0217 q -0.09922,-0.0186 -0.09922,-0.0744 0,-0.0651 0.10542,-0.0651 0.02481,0 0.217041,0.0124 0.111621,0.009 0.275952,0.009 0.142627,0 0.486792,-0.0217 0.248047,-0.0155 0.437183,-0.0155 0.713135,0 1.075903,0.26975 0.362769,0.26665 0.362769,0.79685 0,0.69763 -0.765845,1.07901 z m -0.911572,-0.0682 h 0.350366 q 0.406177,0 0.638721,-0.22324 0.232544,-0.22324 0.232544,-0.61082 0,-0.44958 -0.31626,-0.73793 -0.31626,-0.29146 -0.806152,-0.29146 -0.182935,0 -0.254248,0.062 -0.06821,0.0589 -0.06821,0.21704 l 0.0031,0.10232 v 1.25884 q 0,0.14573 0.03721,0.18604 0.04031,0.0372 0.182935,0.0372 z"
           style="font-family:'Goudy Old Style';-inkscape-font-specification:'Goudy Old Style';fill:#000000"
           id="path29" />
        <path
           d="m 40.117147,113.20857 h -1.122412 q -0.229444,0 -0.285254,0.0372 -0.05581,0.0372 -0.148828,0.24804 l -0.201539,0.45579 q -0.136425,0.31316 -0.136425,0.46509 0,0.14573 0.07131,0.21084 0.07441,0.0651 0.288355,0.11162 0.09302,0.0186 0.09612,0.0744 0.0031,0.0527 -0.08682,0.0527 -0.03411,0 -0.10542,-0.003 l -0.297656,-0.0155 q -0.148828,-0.006 -0.344165,-0.006 -0.08992,0 -0.139526,0.003 -0.15813,0.0124 -0.173633,0.0124 -0.08372,0 -0.08372,-0.0558 0,-0.0496 0.05271,-0.0651 l 0.114722,-0.0341 q 0.06201,-0.0186 0.167431,-0.14883 0.10542,-0.13332 0.173633,-0.27595 l 0.08992,-0.20464 1.593701,-3.53776 q 0.04031,-0.093 0.08992,-0.093 0.04961,0 0.08372,0.0899 l 1.333252,3.41065 0.06821,0.16743 q 0.145728,0.37517 0.241846,0.46819 0.09612,0.0899 0.390674,0.14263 0.09612,0.0186 0.09302,0.0775 -0.0031,0.0527 -0.08682,0.0527 -0.02791,0 -0.117823,-0.006 -0.16123,-0.0155 -0.573608,-0.0155 -0.430981,0 -0.539502,0.0186 -0.06511,0.0124 -0.09612,0.0124 -0.08062,0 -0.08062,-0.0651 0,-0.0496 0.07751,-0.0651 l 0.09612,-0.0217 q 0.155029,-0.031 0.155029,-0.21084 0,-0.16433 -0.189136,-0.65422 l -0.155029,-0.40928 q -0.06511,-0.17053 -0.10232,-0.19533 -0.03721,-0.0279 -0.210839,-0.0279 z m 0.03721,-0.49609 -0.486792,-1.22783 -0.0248,-0.0651 q -0.03721,-0.0992 -0.08062,-0.10232 -0.0217,-0.003 -0.04961,0.0589 l -0.604614,1.34256 q -0.04031,0.0868 -0.04031,0.11472 0,0.0806 0.142626,0.0806 l 0.08372,0.003 h 0.936377 q 0.15503,0 0.15503,-0.0775 0,-0.0217 -0.0155,-0.0713 z"
           style="font-family:'Goudy Old Style';-inkscape-font-specification:'Goudy Old Style';fill:#000000"
           id="path31" />
        <path
           d="m 43.090608,111.09087 v 2.58589 l -0.0031,0.30076 0.0093,0.26045 q 0.03411,0.37517 0.279053,0.43718 0.170532,0.0465 0.257349,0.0465 0.09302,0 0.09612,0.0558 0.0062,0.0806 -0.108521,0.0806 -0.05271,0 -0.207739,-0.0124 -0.09922,-0.006 -0.322461,-0.006 l -0.220141,-0.006 -0.241846,0.003 q -0.182935,0 -0.275952,0.0124 -0.120923,0.0155 -0.176734,0.0155 -0.08062,0 -0.08062,-0.062 0,-0.0589 0.102319,-0.0744 0.241846,-0.0372 0.328663,-0.27285 0.08992,-0.23565 0.08992,-0.84956 v -1.88206 q 0,-0.65112 -0.07751,-0.82166 -0.07752,-0.17363 -0.387573,-0.20773 -0.08372,-0.006 -0.08062,-0.062 0.0031,-0.0713 0.120923,-0.0713 0.05891,0 0.15813,0.0155 0.195337,0.0279 0.322461,0.0279 0.198438,0 0.576709,-0.0341 0.195337,-0.0155 0.31936,-0.0155 0.648023,0 1.051099,0.31316 0.406177,0.31006 0.406177,0.81235 0,0.60772 -0.496094,0.95808 -0.37207,0.26045 -0.787549,0.26045 -0.195337,0 -0.359668,-0.0434 -0.16123,-0.0434 -0.155029,-0.093 0.0062,-0.0372 0.05891,-0.0372 0.02481,0 0.06201,0.009 0.07131,0.0217 0.229443,0.0217 0.446485,0 0.713135,-0.24495 0.269751,-0.24495 0.269751,-0.65112 0,-0.46819 -0.353467,-0.77515 -0.353467,-0.30696 -0.896069,-0.30696 -0.124024,0 -0.170532,0.0465 -0.04651,0.0465 -0.04651,0.17673 z"
           style="font-family:'Goudy Old Style';-inkscape-font-specification:'Goudy Old Style';fill:#000000"
           id="path33" />
        <path
           d="m 46.715194,112.51404 h 1.829346 q 0.136426,0 0.173633,-0.0248 0.03721,-0.0248 0.03721,-0.11162 v -1.0573 q 0,-0.31936 -0.08372,-0.45268 -0.08062,-0.13333 -0.300757,-0.18294 -0.09302,-0.0186 -0.08992,-0.0744 0.0031,-0.0527 0.07751,-0.0527 0.06511,0 0.21084,0.0155 0.204638,0.0217 0.434082,0.0217 0.331762,0 0.465088,-0.0186 0.08372,-0.0124 0.114721,-0.0124 0.07441,0 0.07441,0.0589 0,0.0465 -0.07441,0.062 l -0.127124,0.0279 q -0.09612,0.0186 -0.16123,0.13953 -0.06511,0.11782 -0.06511,0.27285 v 2.99826 q 0,0.33177 0.09302,0.45889 0.09302,0.12712 0.356567,0.15503 0.09612,0.0124 0.09922,0.062 0.0062,0.0744 -0.08682,0.0744 -0.06201,0 -0.161231,-0.0155 -0.07441,-0.0124 -0.310058,-0.0124 l -0.229444,-0.003 -0.232544,0.006 q -0.05581,0 -0.148828,0.009 -0.192236,0.0155 -0.21394,0.0155 -0.07752,0.003 -0.07441,-0.062 0.0031,-0.0558 0.10542,-0.0713 0.325561,-0.0558 0.325561,-0.5302 l 0.0031,-0.12092 v -1.13792 q 0,-0.14573 -0.02791,-0.17053 -0.02791,-0.0248 -0.186036,-0.0248 h -1.826245 q -0.176733,0 -0.220141,0.0372 -0.04341,0.0341 -0.04341,0.17984 v 1.13791 q 0,0.32246 0.10232,0.45269 0.102319,0.13022 0.381372,0.16123 0.114722,0.0124 0.117822,0.0806 0.0031,0.0651 -0.08992,0.0651 -0.04031,0 -0.151929,-0.0155 -0.08371,-0.0155 -0.37207,-0.0155 l -0.260449,-0.003 -0.204639,0.006 q -0.07751,0 -0.195337,0.009 -0.16123,0.0124 -0.195337,0.0124 -0.07751,0 -0.07751,-0.0589 0,-0.0558 0.08062,-0.0744 l 0.155029,-0.0372 q 0.136426,-0.031 0.186035,-0.20464 0.04961,-0.17363 0.04961,-0.60771 v -2.6603 q 0,-0.26976 -0.102319,-0.39068 -0.10232,-0.12092 -0.36587,-0.16123 -0.08992,-0.0124 -0.08992,-0.0682 0,-0.0651 0.08062,-0.062 0.05891,0.003 0.186035,0.0186 0.241845,0.0279 0.567407,0.0279 0.220142,0 0.412378,-0.0248 0.08372,-0.0124 0.130225,-0.0124 0.08992,0 0.08992,0.0651 0,0.0496 -0.08372,0.0713 -0.20774,0.0527 -0.279053,0.15193 -0.07131,0.0961 -0.07131,0.32556 v 1.10691 q 0,0.17674 0.03411,0.21084 0.03721,0.0341 0.229443,0.0341 z"
           style="font-family:'Goudy Old Style';-inkscape-font-specification:'Goudy Old Style';fill:#000000"
           id="path35" />
        <path
           d="m 51.313362,111.50325 v 2.31924 q 0,0.43408 0.05271,0.57361 0.06201,0.15813 0.151928,0.22324 0.09302,0.0651 0.288355,0.093 0.155029,0.0217 0.155029,0.0775 0,0.0744 -0.09612,0.0744 -0.04651,0 -0.117822,-0.009 -0.09612,-0.0124 -0.328662,-0.0124 l -0.449585,-0.006 -0.365869,0.0217 q -0.08992,0.009 -0.148829,0.009 -0.08371,0 -0.08371,-0.0651 0,-0.0558 0.09612,-0.0713 0.235644,-0.0403 0.303857,-0.16123 0.06821,-0.12403 0.06821,-0.5178 v -2.6541 q 0,-0.38447 -0.08992,-0.5178 -0.08682,-0.13332 -0.375171,-0.17983 -0.09612,-0.0186 -0.09922,-0.0744 -0.0031,-0.0682 0.08992,-0.0682 0.02481,0 0.05581,0.003 0.226343,0.0248 0.601514,0.0248 0.229443,0 0.393774,-0.009 l 0.207739,-0.0155 q 0.05891,-0.003 0.07751,-0.003 0.08372,0 0.08372,0.0589 0,0.0558 -0.08061,0.0837 l -0.161231,0.062 q -0.229443,0.0868 -0.229443,0.74104 z"
           style="font-family:'Goudy Old Style';-inkscape-font-specification:'Goudy Old Style';fill:#000000"
           id="path37" />
        <path
           d="m 56.224689,110.95755 0.09922,0.74414 0.0093,0.0775 -0.0093,0.031 q -0.0155,0.0279 -0.04651,0.031 -0.03721,0.003 -0.111621,-0.13022 -0.579809,-1.01699 -1.571997,-1.01699 -0.790649,0 -1.246435,0.48679 -0.455786,0.48679 -0.455786,1.33015 0,0.97048 0.505395,1.5875 0.508496,0.61392 1.305347,0.61392 0.465088,0 0.914673,-0.24805 0.449585,-0.24805 0.623217,-0.60152 0.08062,-0.16433 0.124024,-0.16743 0.04961,-0.003 0.04961,0.0589 l -0.0031,0.0341 -0.0124,0.0682 -0.07131,0.37827 -0.0124,0.0558 q -0.0124,0.0806 -0.145727,0.16743 -0.716235,0.45578 -1.578198,0.45578 -0.998389,0 -1.609204,-0.59221 -0.610816,-0.59221 -0.610816,-1.55959 0,-0.96739 0.63252,-1.60611 0.632519,-0.64182 1.5875,-0.64182 0.654223,0 1.203027,0.29456 l 0.124023,0.0651 0.04961,0.0217 0.05271,0.0186 q 0.0155,0 0.04651,-0.0248 0.06821,-0.0496 0.09302,-0.0496 0.04961,0 0.06511,0.11783 z"
           style="font-family:'Goudy Old Style';-inkscape-font-specification:'Goudy Old Style';fill:#000000"
           id="path39" />
        <path
           d="m 59.489607,111.08467 v 1.24644 q 0,0.14262 0.02481,0.17363 0.0279,0.0279 0.16123,0.0279 h 0.477491 q 0.325561,0 0.514697,-0.0372 0.167431,-0.0341 0.217041,-0.0899 0.04961,-0.0558 0.08992,-0.26045 0.0155,-0.0775 0.07752,-0.0744 0.05891,0.003 0.05891,0.0837 0,0.0217 -0.0031,0.0682 -0.02481,0.30076 -0.02481,0.54881 0,0.18913 0.0186,0.37517 0.0062,0.062 0.0062,0.0899 0,0.0775 -0.05891,0.0775 -0.06511,0 -0.07751,-0.0682 l -0.0186,-0.0868 q -0.03721,-0.20774 -0.148828,-0.28215 -0.111621,-0.0744 -0.378272,-0.0744 h -0.685229 q -0.151929,0 -0.204639,0.031 -0.04961,0.031 -0.04961,0.12402 l 0.0031,0.10232 v 1.14102 q 0,0.26355 0.09302,0.32866 0.09612,0.0651 0.480591,0.0651 1.21853,0 1.565795,-0.5488 0.03411,-0.0527 0.06821,-0.0558 0.05581,-0.003 0.05581,0.0806 0,0.20154 -0.226343,0.48059 -0.272851,0.33487 -0.68833,0.33487 -0.08992,0 -0.241846,-0.0124 -0.592212,-0.0558 -0.979785,-0.0558 -0.542602,0 -0.765844,0.0372 -0.117823,0.0217 -0.161231,0.0217 -0.09922,0 -0.09922,-0.0682 0,-0.0527 0.08062,-0.0744 L 58.788887,114.7 q 0.223242,-0.062 0.223242,-0.43408 l 0.0031,-0.20154 v -2.61999 q 0,-0.44339 -0.09922,-0.59531 -0.09612,-0.15503 -0.378272,-0.15503 -0.08992,0 -0.08992,-0.0589 0,-0.0868 0.139527,-0.0868 0.07751,0 0.207739,0.0155 0.443384,0.0496 1.066602,0.0496 0.378271,0 0.669726,-0.0124 l 0.440283,-0.0217 q 0.182935,-0.006 0.223242,-0.0124 0.08372,-0.0124 0.124024,-0.0124 0.102319,0 0.102319,0.0899 0,0.0279 -0.0093,0.0713 -0.0093,0.0434 -0.0248,0.24805 l -0.0124,0.18293 q -0.0155,0.17984 -0.03101,0.22634 -0.0155,0.0434 -0.06821,0.0465 -0.05891,0.003 -0.05891,-0.093 v -0.0806 q 0,-0.0992 -0.03721,-0.18914 -0.05891,-0.13952 -0.238746,-0.18603 -0.179834,-0.0465 -0.660424,-0.0465 h -0.486792 q -0.192237,0 -0.248047,0.0496 -0.05581,0.0465 -0.05581,0.21084 z"
           style="font-family:'Goudy Old Style';-inkscape-font-specification:'Goudy Old Style';fill:#000000"
           id="path41" />
        <path
           d="m 65.945029,111.7854 v 2.59829 q 0,0.35037 -0.0155,0.42788 -0.0155,0.0744 -0.08682,0.0713 -0.04651,-0.003 -0.07131,-0.0279 l -0.06821,-0.0806 -2.613794,-2.98897 -0.03101,-0.0341 q -0.0186,-0.0186 -0.04341,-0.0186 -0.05891,0 -0.05891,0.13953 v 2.1022 l -0.0031,0.13022 0.0093,0.22014 q 0.0217,0.20464 0.10542,0.28216 0.08372,0.0775 0.328662,0.11472 0.102319,0.0124 0.102319,0.0806 0,0.062 -0.06511,0.062 -0.04341,0 -0.09302,-0.006 -0.03411,-0.006 -0.26975,-0.0186 l -0.31626,-0.0155 -0.148828,0.006 q -0.120923,0 -0.229444,0.0155 -0.08062,0.0124 -0.114721,0.0124 -0.08062,0 -0.08682,-0.0589 -0.0031,-0.0465 0.08682,-0.0775 0.260449,-0.0899 0.350366,-0.23875 0.09302,-0.15193 0.09302,-0.48679 v -2.1084 q 0,-0.5364 -0.170532,-0.84336 -0.170532,-0.31006 -0.492993,-0.35346 -0.08372,-0.0124 -0.08372,-0.0713 0,-0.0589 0.06821,-0.0589 0.0155,0 0.04961,0.003 l 0.127124,0.003 0.20774,0.006 0.04961,-0.003 q 0.07441,-0.003 0.114722,-0.003 0.07751,0 0.155029,0.0899 l 2.852539,3.23081 q 0.06821,0.0775 0.08682,0.0744 0.03101,-0.003 0.03411,-0.0589 v -1.53479 l 0.0031,-0.41858 -0.03721,-0.71313 q -0.03101,-0.26355 -0.155029,-0.37207 -0.120923,-0.11162 -0.440283,-0.16433 -0.08992,-0.0155 -0.08992,-0.0775 0,-0.0589 0.08992,-0.0589 0.04031,0 0.130225,0.009 0.21394,0.0248 0.573608,0.0248 0.192236,0 0.306958,-0.0186 0.09922,-0.0186 0.151929,-0.0186 0.08061,0 0.08682,0.0651 0.0031,0.0403 -0.06201,0.0589 -0.189135,0.0465 -0.251147,0.15503 -0.05891,0.10852 -0.05891,0.40618 v 0.33486 z"
           style="font-family:'Goudy Old Style';-inkscape-font-specification:'Goudy Old Style';fill:#000000"
           id="path43" />
        <path
           d="m 67.737164,111.32962 1.193726,2.73161 q 0.04341,0.10232 0.08061,0.0992 0.03101,0 0.111621,-0.17673 l 0.04961,-0.11472 0.682128,-1.61231 q 0.440284,-1.0387 0.440284,-1.33635 0,-0.10232 -0.04651,-0.14263 -0.04651,-0.0434 -0.189136,-0.0713 -0.173633,-0.0341 -0.170532,-0.0868 0.0031,-0.0589 0.102319,-0.0589 0.0217,0 0.08992,0.003 0.229444,0.0124 0.275952,0.0124 h 0.127124 l 0.139527,-0.003 h 0.07751 l 0.26355,-0.003 q 0.06201,0 0.06201,0.0527 0,0.0434 -0.06511,0.0651 -0.223243,0.0837 -0.337964,0.35967 l -0.08372,0.20154 -1.540991,3.61218 q -0.06511,0.15193 -0.127124,0.15193 -0.06511,0 -0.133325,-0.15503 l -1.571998,-3.64009 q -0.111621,-0.25114 -0.201538,-0.35036 -0.08992,-0.0992 -0.244946,-0.12713 -0.16123,-0.031 -0.189136,-0.0434 -0.031,-0.0155 -0.031,-0.0527 0,-0.062 0.08682,-0.062 0.02481,0 0.08992,0.006 0.05271,0.006 0.313159,0.006 l 0.294556,0.003 0.207739,-0.003 q 0.06511,0 0.198438,-0.0124 0.06201,-0.006 0.08682,-0.006 0.08372,0 0.08372,0.0589 0,0.0434 -0.06201,0.0682 -0.127124,0.0465 -0.16123,0.0806 -0.03101,0.031 -0.03101,0.11162 0,0.13333 0.130224,0.43409 z"
           style="font-family:'Goudy Old Style';-inkscape-font-specification:'Goudy Old Style';fill:#000000"
           id="path45" />
        <path
           d="m 72.177206,111.50325 v 2.31924 q 0,0.43408 0.05271,0.57361 0.06201,0.15813 0.151928,0.22324 0.09302,0.0651 0.288355,0.093 0.155029,0.0217 0.155029,0.0775 0,0.0744 -0.09612,0.0744 -0.04651,0 -0.117822,-0.009 -0.09612,-0.0124 -0.328662,-0.0124 l -0.449585,-0.006 -0.36587,0.0217 q -0.08992,0.009 -0.148828,0.009 -0.08371,0 -0.08371,-0.0651 0,-0.0558 0.09612,-0.0713 0.235644,-0.0403 0.303857,-0.16123 0.06821,-0.12403 0.06821,-0.5178 v -2.6541 q 0,-0.38447 -0.08992,-0.5178 -0.08682,-0.13332 -0.375171,-0.17983 -0.09612,-0.0186 -0.09922,-0.0744 -0.0031,-0.0682 0.08992,-0.0682 0.02481,0 0.05581,0.003 0.226343,0.0248 0.601514,0.0248 0.229443,0 0.393774,-0.009 l 0.207739,-0.0155 q 0.05891,-0.003 0.07752,-0.003 0.08372,0 0.08372,0.0589 0,0.0558 -0.08062,0.0837 l -0.16123,0.062 q -0.229443,0.0868 -0.229443,0.74104 z"
           style="font-family:'Goudy Old Style';-inkscape-font-specification:'Goudy Old Style';fill:#000000"
           id="path47" />
        <path
           d="m 75.38941,112.70318 0.855762,1.26503 0.09922,0.14883 q 0.396875,0.58291 0.731738,0.60462 l 0.09922,0.006 q 0.05581,0.003 0.05271,0.0434 -0.0031,0.0465 -0.139527,0.0837 -0.133325,0.0372 -0.303857,0.0372 -0.279053,0 -0.502295,-0.15193 -0.220141,-0.15503 -0.449585,-0.50229 l -0.772046,-1.17823 -0.04341,-0.0682 q -0.07441,-0.12712 -0.241846,-0.12712 h -0.412378 l -0.06821,0.0124 q -0.03721,0.0217 -0.03721,0.0992 v 0.96738 l 0.0031,0.12402 q 0,0.26665 0.02481,0.36587 0.02791,0.0961 0.127124,0.17364 0.133325,0.10542 0.412378,0.13332 0.111621,0.0124 0.114721,0.0713 0.0062,0.062 -0.102319,0.062 -0.04341,0 -0.182934,-0.0124 -0.127125,-0.0124 -0.393775,-0.0124 l -0.297656,-0.003 -0.161231,0.003 q -0.10542,0 -0.254248,0.0155 -0.120923,0.0124 -0.167431,0.0124 -0.07751,0 -0.07751,-0.0651 0,-0.0465 0.07751,-0.062 0.248047,-0.0465 0.325561,-0.22324 0.07751,-0.17983 0.07751,-0.70383 v -2.22622 l -0.0062,-0.32246 q 0,-0.4837 -0.337964,-0.53951 l -0.145728,-0.0217 q -0.09922,-0.0186 -0.09922,-0.0744 0,-0.0651 0.105419,-0.0651 0.02481,0 0.217041,0.0124 0.111622,0.009 0.275953,0.009 0.142627,0 0.486792,-0.0217 0.248046,-0.0155 0.437182,-0.0155 0.713135,0 1.075904,0.26975 0.362768,0.26665 0.362768,0.79685 0,0.69763 -0.765845,1.07901 z m -0.911572,-0.0682 h 0.350366 q 0.406177,0 0.638721,-0.22324 0.232544,-0.22324 0.232544,-0.61082 0,-0.44958 -0.31626,-0.73793 -0.31626,-0.29146 -0.806152,-0.29146 -0.182935,0 -0.254248,0.062 -0.06821,0.0589 -0.06821,0.21704 l 0.0031,0.10232 v 1.25884 q 0,0.14573 0.03721,0.18604 0.04031,0.0372 0.182934,0.0372 z"
           style="font-family:'Goudy Old Style';-inkscape-font-specification:'Goudy Old Style';fill:#000000"
           id="path49" />
        <path
           d="m 79.36126,110.51416 q 0.970484,0 1.590601,0.60152 0.623218,0.59841 0.623218,1.53479 0,0.99218 -0.626319,1.6278 -0.626318,0.63562 -1.603003,0.63562 -1.001489,0 -1.621606,-0.60771 -0.617017,-0.60772 -0.617017,-1.5937 0,-0.42788 0.161231,-0.84646 0.164331,-0.42168 0.440283,-0.70384 0.291455,-0.29765 0.737939,-0.47128 0.446485,-0.17674 0.914673,-0.17674 z m -0.201538,0.20154 q -0.719336,0 -1.144116,0.48679 -0.42168,0.48369 -0.42168,1.30535 0,0.93948 0.539502,1.5844 0.542603,0.64492 1.330152,0.64492 0.719335,0 1.187524,-0.524 0.468188,-0.5271 0.468188,-1.33325 0,-0.92708 -0.561206,-1.54409 -0.561206,-0.62012 -1.398364,-0.62012 z"
           style="font-family:'Goudy Old Style';-inkscape-font-specification:'Goudy Old Style';fill:#000000"
           id="path51" />
        <path
           d="m 85.850787,111.7854 v 2.59829 q 0,0.35037 -0.0155,0.42788 -0.0155,0.0744 -0.08682,0.0713 -0.04651,-0.003 -0.07131,-0.0279 l -0.06821,-0.0806 -2.613794,-2.98897 -0.03101,-0.0341 q -0.0186,-0.0186 -0.04341,-0.0186 -0.05891,0 -0.05891,0.13953 v 2.1022 l -0.0031,0.13022 0.0093,0.22014 q 0.0217,0.20464 0.10542,0.28216 0.08372,0.0775 0.328662,0.11472 0.102319,0.0124 0.102319,0.0806 0,0.062 -0.06511,0.062 -0.04341,0 -0.09302,-0.006 -0.03411,-0.006 -0.269751,-0.0186 l -0.316259,-0.0155 -0.148828,0.006 q -0.120923,0 -0.229444,0.0155 -0.08061,0.0124 -0.114722,0.0124 -0.08061,0 -0.08682,-0.0589 -0.0031,-0.0465 0.08682,-0.0775 0.26045,-0.0899 0.350367,-0.23875 0.09302,-0.15193 0.09302,-0.48679 v -2.1084 q 0,-0.5364 -0.170532,-0.84336 -0.170532,-0.31006 -0.492993,-0.35346 -0.08372,-0.0124 -0.08372,-0.0713 0,-0.0589 0.06821,-0.0589 0.0155,0 0.04961,0.003 l 0.127124,0.003 0.20774,0.006 0.04961,-0.003 q 0.07441,-0.003 0.114722,-0.003 0.07751,0 0.155029,0.0899 l 2.852539,3.23081 q 0.06821,0.0775 0.08682,0.0744 0.03101,-0.003 0.03411,-0.0589 v -1.53479 l 0.0031,-0.41858 -0.03721,-0.71313 q -0.031,-0.26355 -0.155029,-0.37207 -0.120923,-0.11162 -0.440283,-0.16433 -0.08992,-0.0155 -0.08992,-0.0775 0,-0.0589 0.08992,-0.0589 0.04031,0 0.130225,0.009 0.21394,0.0248 0.573608,0.0248 0.192236,0 0.306958,-0.0186 0.09922,-0.0186 0.151929,-0.0186 0.08062,0 0.08682,0.0651 0.0031,0.0403 -0.06201,0.0589 -0.189135,0.0465 -0.251147,0.15503 -0.05891,0.10852 -0.05891,0.40618 v 0.33486 z"
           style="font-family:'Goudy Old Style';-inkscape-font-specification:'Goudy Old Style';fill:#000000"
           id="path53" />
        <path
           d="m 90.638092,111.70479 q -0.26355,0.46198 -0.350366,0.64182 l -0.275952,0.59221 -0.31626,0.65112 q -0.02481,0.0558 -0.260449,0.58291 -0.09612,0.21704 -0.167432,0.35657 -0.04031,0.0837 -0.05581,0.11782 -0.06201,0.14573 -0.133325,0.14573 -0.07441,0 -0.142627,-0.15193 -0.0124,-0.0279 -0.08682,-0.17053 l -0.06201,-0.13023 -1.16272,-2.51767 -0.07131,1.53479 q -0.0093,0.18913 -0.0093,0.75654 0,0.54571 0.384473,0.60462 0.189136,0.031 0.189136,0.093 0,0.0713 -0.08992,0.0713 -0.05891,0 -0.114722,-0.006 -0.347266,-0.031 -0.536401,-0.031 -0.226343,0 -0.434082,0.0279 -0.06201,0.009 -0.09612,0.009 -0.09302,0 -0.09302,-0.0682 0,-0.0527 0.07441,-0.0682 0.226343,-0.0527 0.31626,-0.21084 0.08992,-0.15813 0.10852,-0.5395 l 0.04341,-0.89917 q 0.04651,-0.97668 0.04651,-1.23403 0,-0.55191 -0.145727,-0.81546 -0.145728,-0.26665 -0.486792,-0.32866 -0.09302,-0.0155 -0.09302,-0.0775 0,-0.0682 0.07752,-0.0682 0.02791,0 0.102319,0.006 0.04341,0.006 0.21084,0.006 0.254248,0 0.322461,-0.006 0.07131,-0.009 0.114722,-0.009 0.133325,0 0.223242,0.19534 l 0.03411,0.0713 1.292944,2.78743 0.15813,0.31936 q 0.03411,0.0806 0.04961,0.0806 0.0186,0 0.04651,-0.0589 l 0.03721,-0.0837 0.02791,-0.062 1.457275,-3.11919 q 0.04651,-0.0992 0.06821,-0.12093 0.02481,-0.0248 0.08372,-0.0248 0.02481,0 0.136426,0.0124 0.04031,0.003 0.102319,0.003 0.195337,0 0.313159,-0.0124 0.05581,-0.003 0.08992,-0.006 0.06201,-0.003 0.06201,0.062 0,0.0589 -0.06201,0.0744 l -0.133325,0.0341 q -0.15813,0.0372 -0.223242,0.19534 -0.06201,0.15503 -0.06201,0.51159 l 0.0186,0.74725 0.05891,1.68361 0.0155,0.39068 q 0,0.23564 0.08682,0.33796 0.08682,0.10232 0.31626,0.13643 0.164331,0.0248 0.164331,0.0837 0,0.062 -0.114722,0.062 -0.03411,0 -0.07751,-0.003 l -0.241846,-0.0248 q -0.120923,-0.0124 -0.260449,-0.0124 -0.09612,0 -0.303858,0.0124 -0.322461,0.0155 -0.37207,0.0155 -0.08992,0 -0.08992,-0.0558 0,-0.0496 0.07752,-0.0713 0.182934,-0.0496 0.244946,-0.16123 0.06201,-0.11162 0.06201,-0.39068 l -0.0124,-0.50539 z"
           style="font-family:'Goudy Old Style';-inkscape-font-specification:'Goudy Old Style';fill:#000000"
           id="path55" />
        <path
           d="m 93.258086,111.08467 v 1.24644 q 0,0.14262 0.0248,0.17363 0.02791,0.0279 0.161231,0.0279 h 0.47749 q 0.325562,0 0.514697,-0.0372 0.167432,-0.0341 0.217041,-0.0899 0.04961,-0.0558 0.08992,-0.26045 0.0155,-0.0775 0.07751,-0.0744 0.05891,0.003 0.05891,0.0837 0,0.0217 -0.0031,0.0682 -0.0248,0.30076 -0.0248,0.54881 0,0.18913 0.0186,0.37517 0.0062,0.062 0.0062,0.0899 0,0.0775 -0.05891,0.0775 -0.06511,0 -0.07751,-0.0682 l -0.0186,-0.0868 q -0.03721,-0.20774 -0.148828,-0.28215 -0.111621,-0.0744 -0.378271,-0.0744 h -0.68523 q -0.151929,0 -0.204639,0.031 -0.04961,0.031 -0.04961,0.12402 l 0.0031,0.10232 v 1.14102 q 0,0.26355 0.09302,0.32866 0.09612,0.0651 0.480591,0.0651 1.21853,0 1.565796,-0.5488 0.03411,-0.0527 0.06821,-0.0558 0.05581,-0.003 0.05581,0.0806 0,0.20154 -0.226342,0.48059 -0.272852,0.33487 -0.688331,0.33487 -0.08992,0 -0.241845,-0.0124 -0.592212,-0.0558 -0.979785,-0.0558 -0.542603,0 -0.765845,0.0372 -0.117822,0.0217 -0.161231,0.0217 -0.09922,0 -0.09922,-0.0682 0,-0.0527 0.08062,-0.0744 L 92.557357,114.7 q 0.223242,-0.062 0.223242,-0.43408 l 0.0031,-0.20154 v -2.61999 q 0,-0.44339 -0.09922,-0.59531 -0.09612,-0.15503 -0.378271,-0.15503 -0.08992,0 -0.08992,-0.0589 0,-0.0868 0.139526,-0.0868 0.07751,0 0.207739,0.0155 0.443384,0.0496 1.066602,0.0496 0.378271,0 0.669726,-0.0124 l 0.440284,-0.0217 q 0.182934,-0.006 0.223242,-0.0124 0.08372,-0.0124 0.124023,-0.0124 0.10232,0 0.10232,0.0899 0,0.0279 -0.0093,0.0713 -0.0093,0.0434 -0.02481,0.24805 l -0.0124,0.18293 q -0.0155,0.17984 -0.03101,0.22634 -0.0155,0.0434 -0.06821,0.0465 -0.05891,0.003 -0.05891,-0.093 v -0.0806 q 0,-0.0992 -0.03721,-0.18914 -0.05891,-0.13952 -0.238745,-0.18603 -0.179834,-0.0465 -0.660425,-0.0465 h -0.486792 q -0.192236,0 -0.248047,0.0496 -0.05581,0.0465 -0.05581,0.21084 z"
           style="font-family:'Goudy Old Style';-inkscape-font-specification:'Goudy Old Style';fill:#000000"
           id="path57" />
        <path
           d="m 99.713511,111.7854 v 2.59829 q 0,0.35037 -0.0155,0.42788 -0.0155,0.0744 -0.08682,0.0713 -0.04651,-0.003 -0.07131,-0.0279 l -0.06821,-0.0806 -2.613794,-2.98897 -0.03101,-0.0341 q -0.0186,-0.0186 -0.04341,-0.0186 -0.05891,0 -0.05891,0.13953 v 2.1022 l -0.0031,0.13022 0.0093,0.22014 q 0.0217,0.20464 0.10542,0.28216 0.08372,0.0775 0.328662,0.11472 0.10232,0.0124 0.10232,0.0806 0,0.062 -0.06511,0.062 -0.04341,0 -0.09302,-0.006 -0.03411,-0.006 -0.269751,-0.0186 l -0.31626,-0.0155 -0.148828,0.006 q -0.120923,0 -0.229444,0.0155 -0.08061,0.0124 -0.114721,0.0124 -0.08062,0 -0.08682,-0.0589 -0.0031,-0.0465 0.08682,-0.0775 0.260449,-0.0899 0.350366,-0.23875 0.09302,-0.15193 0.09302,-0.48679 v -2.1084 q 0,-0.5364 -0.170533,-0.84336 -0.170532,-0.31006 -0.492993,-0.35346 -0.08372,-0.0124 -0.08372,-0.0713 0,-0.0589 0.06821,-0.0589 0.0155,0 0.04961,0.003 l 0.127124,0.003 0.207739,0.006 0.04961,-0.003 q 0.07441,-0.003 0.114722,-0.003 0.07751,0 0.155029,0.0899 l 2.852539,3.23081 q 0.06821,0.0775 0.08682,0.0744 0.03101,-0.003 0.03411,-0.0589 v -1.53479 l 0.0031,-0.41858 -0.03721,-0.71313 q -0.03101,-0.26355 -0.15503,-0.37207 -0.120922,-0.11162 -0.440283,-0.16433 -0.08992,-0.0155 -0.08992,-0.0775 0,-0.0589 0.08992,-0.0589 0.04031,0 0.130225,0.009 0.21394,0.0248 0.573608,0.0248 0.192237,0 0.306958,-0.0186 0.09922,-0.0186 0.151934,-0.0186 0.0806,0 0.0868,0.0651 0.003,0.0403 -0.062,0.0589 -0.189136,0.0465 -0.251148,0.15503 -0.05891,0.10852 -0.05891,0.40618 v 0.33486 z"
           style="font-family:'Goudy Old Style';-inkscape-font-specification:'Goudy Old Style';fill:#000000"
           id="path59" />
        <path
           d="m 103.63885,110.92344 h -0.87127 q -0.13642,0 -0.17363,0.0372 -0.0341,0.0372 -0.0341,0.18293 v 3.03857 l 0.003,0.12093 q 0.0155,0.36277 0.40617,0.43098 0.10852,0.0186 0.10852,0.0713 0,0.0682 -0.0868,0.0682 -0.0372,0 -0.15193,-0.0186 -0.0589,-0.009 -0.27905,-0.009 l -0.22635,-0.003 -0.24184,0.003 q -0.13023,0 -0.22014,0.009 -0.17674,0.0186 -0.20774,0.0186 -0.093,0 -0.093,-0.0682 0,-0.0496 0.10232,-0.062 0.23874,-0.031 0.32246,-0.13022 0.0837,-0.10232 0.0837,-0.36277 v -3.07268 l -0.003,-0.0806 q 0,-0.11162 -0.0341,-0.14263 -0.031,-0.031 -0.14883,-0.031 h -0.82166 q -0.25114,0 -0.36586,0.10232 -0.11163,0.0992 -0.17364,0.37827 -0.0279,0.12092 -0.0837,0.11782 -0.0558,-0.003 -0.0558,-0.0837 0,-0.0651 0.0372,-0.23875 0.0465,-0.22324 0.0465,-0.36897 0,-0.14263 0.031,-0.18603 0.0341,-0.0465 0.13952,-0.0465 h 3.33623 q 0.17054,0 0.20464,0.0372 0.0372,0.0372 0.0372,0.22015 0,0.18293 0.0155,0.26665 0.0155,0.10542 0.0186,0.15193 0.003,0.093 -0.0651,0.0992 -0.0558,0.003 -0.0744,-0.0961 -0.0403,-0.22015 -0.13022,-0.28526 -0.0899,-0.0682 -0.35037,-0.0682 z"
           style="font-family:'Goudy Old Style';-inkscape-font-specification:'Goudy Old Style';fill:#000000"
           id="path61" />
        <path
           d="m 108.34864,110.51416 q 0.97048,0 1.5906,0.60152 0.62322,0.59841 0.62322,1.53479 0,0.99218 -0.62632,1.6278 -0.62632,0.63562 -1.603,0.63562 -1.00149,0 -1.62161,-0.60771 -0.61701,-0.60772 -0.61701,-1.5937 0,-0.42788 0.16123,-0.84646 0.16433,-0.42168 0.44028,-0.70384 0.29145,-0.29765 0.73794,-0.47128 0.44648,-0.17674 0.91467,-0.17674 z m -0.20154,0.20154 q -0.71933,0 -1.14411,0.48679 -0.42168,0.48369 -0.42168,1.30535 0,0.93948 0.5395,1.5844 0.5426,0.64492 1.33015,0.64492 0.71934,0 1.18752,-0.524 0.46819,-0.5271 0.46819,-1.33325 0,-0.92708 -0.5612,-1.54409 -0.56121,-0.62012 -1.39837,-0.62012 z"
           style="font-family:'Goudy Old Style';-inkscape-font-specification:'Goudy Old Style';fill:#000000"
           id="path63" />
        <path
           d="m 112.09725,111.09087 v 2.58589 l -0.003,0.30076 0.009,0.26045 q 0.0341,0.37517 0.27905,0.43718 0.17054,0.0465 0.25735,0.0465 0.093,0 0.0961,0.0558 0.006,0.0806 -0.10852,0.0806 -0.0527,0 -0.20774,-0.0124 -0.0992,-0.006 -0.32246,-0.006 l -0.22014,-0.006 -0.24185,0.003 q -0.18293,0 -0.27595,0.0124 -0.12092,0.0155 -0.17673,0.0155 -0.0806,0 -0.0806,-0.062 0,-0.0589 0.10232,-0.0744 0.24185,-0.0372 0.32866,-0.27285 0.0899,-0.23565 0.0899,-0.84956 v -1.88206 q 0,-0.65112 -0.0775,-0.82166 -0.0775,-0.17363 -0.38758,-0.20773 -0.0837,-0.006 -0.0806,-0.062 0.003,-0.0713 0.12092,-0.0713 0.0589,0 0.15813,0.0155 0.19534,0.0279 0.32246,0.0279 0.19844,0 0.57671,-0.0341 0.19534,-0.0155 0.31936,-0.0155 0.64802,0 1.0511,0.31316 0.40618,0.31006 0.40618,0.81235 0,0.60772 -0.4961,0.95808 -0.37207,0.26045 -0.78755,0.26045 -0.19533,0 -0.35967,-0.0434 -0.16123,-0.0434 -0.15502,-0.093 0.006,-0.0372 0.0589,-0.0372 0.0248,0 0.062,0.009 0.0713,0.0217 0.22944,0.0217 0.44649,0 0.71314,-0.24495 0.26975,-0.24495 0.26975,-0.65112 0,-0.46819 -0.35347,-0.77515 -0.35347,-0.30696 -0.89607,-0.30696 -0.12402,0 -0.17053,0.0465 -0.0465,0.0465 -0.0465,0.17673 z"
           style="font-family:'Goudy Old Style';-inkscape-font-specification:'Goudy Old Style';fill:#000000"
           id="path65" />
        <path
           d="m 115.45518,111.08467 v 1.24644 q 0,0.14262 0.0248,0.17363 0.0279,0.0279 0.16123,0.0279 h 0.47749 q 0.32557,0 0.5147,-0.0372 0.16743,-0.0341 0.21704,-0.0899 0.0496,-0.0558 0.0899,-0.26045 0.0155,-0.0775 0.0775,-0.0744 0.0589,0.003 0.0589,0.0837 0,0.0217 -0.003,0.0682 -0.0248,0.30076 -0.0248,0.54881 0,0.18913 0.0186,0.37517 0.006,0.062 0.006,0.0899 0,0.0775 -0.0589,0.0775 -0.0651,0 -0.0775,-0.0682 l -0.0186,-0.0868 q -0.0372,-0.20774 -0.14883,-0.28215 -0.11162,-0.0744 -0.37827,-0.0744 h -0.68523 q -0.15193,0 -0.20464,0.031 -0.0496,0.031 -0.0496,0.12402 l 0.003,0.10232 v 1.14102 q 0,0.26355 0.093,0.32866 0.0961,0.0651 0.48059,0.0651 1.21853,0 1.56579,-0.5488 0.0341,-0.0527 0.0682,-0.0558 0.0558,-0.003 0.0558,0.0806 0,0.20154 -0.22635,0.48059 -0.27285,0.33487 -0.68833,0.33487 -0.0899,0 -0.24184,-0.0124 -0.59221,-0.0558 -0.97979,-0.0558 -0.5426,0 -0.76584,0.0372 -0.11782,0.0217 -0.16123,0.0217 -0.0992,0 -0.0992,-0.0682 0,-0.0527 0.0806,-0.0744 L 114.7542,114.7 q 0.22324,-0.062 0.22324,-0.43408 l 0.003,-0.20154 v -2.61999 q 0,-0.44339 -0.0992,-0.59531 -0.0961,-0.15503 -0.37827,-0.15503 -0.0899,0 -0.0899,-0.0589 0,-0.0868 0.13953,-0.0868 0.0775,0 0.20774,0.0155 0.44338,0.0496 1.0666,0.0496 0.37827,0 0.66973,-0.0124 l 0.44028,-0.0217 q 0.18293,-0.006 0.22324,-0.0124 0.0837,-0.0124 0.12403,-0.0124 0.10231,0 0.10231,0.0899 0,0.0279 -0.009,0.0713 -0.009,0.0434 -0.0248,0.24805 l -0.0124,0.18293 q -0.0155,0.17984 -0.031,0.22634 -0.0155,0.0434 -0.0682,0.0465 -0.0589,0.003 -0.0589,-0.093 v -0.0806 q 0,-0.0992 -0.0372,-0.18914 -0.0589,-0.13952 -0.23875,-0.18603 -0.17983,-0.0465 -0.66042,-0.0465 h -0.48679 q -0.19224,0 -0.24805,0.0496 -0.0558,0.0465 -0.0558,0.21084 z"
           style="font-family:'Goudy Old Style';-inkscape-font-specification:'Goudy Old Style';fill:#000000"
           id="path67" />
        <path
           d="m 120.2983,112.70318 0.85576,1.26503 0.0992,0.14883 q 0.39687,0.58291 0.73174,0.60462 l 0.0992,0.006 q 0.0558,0.003 0.0527,0.0434 -0.003,0.0465 -0.13952,0.0837 -0.13333,0.0372 -0.30386,0.0372 -0.27905,0 -0.50229,-0.15193 -0.22015,-0.15503 -0.44959,-0.50229 l -0.77205,-1.17823 -0.0434,-0.0682 q -0.0744,-0.12712 -0.24185,-0.12712 H 119.272 l -0.0682,0.0124 q -0.0372,0.0217 -0.0372,0.0992 v 0.96738 l 0.003,0.12402 q 0,0.26665 0.0248,0.36587 0.0279,0.0961 0.12712,0.17364 0.13333,0.10542 0.41238,0.13332 0.11162,0.0124 0.11472,0.0713 0.006,0.062 -0.10232,0.062 -0.0434,0 -0.18293,-0.0124 -0.12713,-0.0124 -0.39378,-0.0124 l -0.29765,-0.003 -0.16123,0.003 q -0.10542,0 -0.25425,0.0155 -0.12092,0.0124 -0.16743,0.0124 -0.0775,0 -0.0775,-0.0651 0,-0.0465 0.0775,-0.062 0.24804,-0.0465 0.32556,-0.22324 0.0775,-0.17983 0.0775,-0.70383 v -2.22622 l -0.006,-0.32246 q 0,-0.4837 -0.33796,-0.53951 l -0.14573,-0.0217 q -0.0992,-0.0186 -0.0992,-0.0744 0,-0.0651 0.10542,-0.0651 0.0248,0 0.21704,0.0124 0.11162,0.009 0.27595,0.009 0.14263,0 0.4868,-0.0217 0.24804,-0.0155 0.43718,-0.0155 0.71313,0 1.0759,0.26975 0.36277,0.26665 0.36277,0.79685 0,0.69763 -0.76584,1.07901 z m -0.91158,-0.0682 h 0.35037 q 0.40618,0 0.63872,-0.22324 0.23254,-0.22324 0.23254,-0.61082 0,-0.44958 -0.31625,-0.73793 -0.31626,-0.29146 -0.80616,-0.29146 -0.18293,0 -0.25425,0.062 -0.0682,0.0589 -0.0682,0.21704 l 0.003,0.10232 v 1.25884 q 0,0.14573 0.0372,0.18604 0.0403,0.0372 0.18293,0.0372 z"
           style="font-family:'Goudy Old Style';-inkscape-font-specification:'Goudy Old Style';fill:#000000"
           id="path69" />
        <path
           d="m 124.59881,113.20857 h -1.12241 q -0.22945,0 -0.28526,0.0372 -0.0558,0.0372 -0.14883,0.24804 l -0.20153,0.45579 q -0.13643,0.31316 -0.13643,0.46509 0,0.14573 0.0713,0.21084 0.0744,0.0651 0.28836,0.11162 0.093,0.0186 0.0961,0.0744 0.003,0.0527 -0.0868,0.0527 -0.0341,0 -0.10542,-0.003 l -0.29766,-0.0155 q -0.14883,-0.006 -0.34416,-0.006 -0.0899,0 -0.13953,0.003 -0.15813,0.0124 -0.17363,0.0124 -0.0837,0 -0.0837,-0.0558 0,-0.0496 0.0527,-0.0651 l 0.11472,-0.0341 q 0.062,-0.0186 0.16744,-0.14883 0.10542,-0.13332 0.17363,-0.27595 l 0.0899,-0.20464 1.5937,-3.53776 q 0.0403,-0.093 0.0899,-0.093 0.0496,0 0.0837,0.0899 l 1.33325,3.41065 0.0682,0.16743 q 0.14573,0.37517 0.24185,0.46819 0.0961,0.0899 0.39067,0.14263 0.0961,0.0186 0.093,0.0775 -0.003,0.0527 -0.0868,0.0527 -0.0279,0 -0.11783,-0.006 -0.16123,-0.0155 -0.57361,-0.0155 -0.43098,0 -0.5395,0.0186 -0.0651,0.0124 -0.0961,0.0124 -0.0806,0 -0.0806,-0.0651 0,-0.0496 0.0775,-0.0651 l 0.0961,-0.0217 q 0.15503,-0.031 0.15503,-0.21084 0,-0.16433 -0.18913,-0.65422 l -0.15503,-0.40928 q -0.0651,-0.17053 -0.10232,-0.19533 -0.0372,-0.0279 -0.21084,-0.0279 z m 0.0372,-0.49609 -0.48679,-1.22783 -0.0248,-0.0651 q -0.0372,-0.0992 -0.0806,-0.10232 -0.0217,-0.003 -0.0496,0.0589 l -0.60461,1.34256 q -0.0403,0.0868 -0.0403,0.11472 0,0.0806 0.14263,0.0806 l 0.0837,0.003 h 0.93638 q 0.15503,0 0.15503,-0.0775 0,-0.0217 -0.0155,-0.0713 z"
           style="font-family:'Goudy Old Style';-inkscape-font-specification:'Goudy Old Style';fill:#000000"
           id="path71" />
        <path
           d="m 129.2714,110.92344 h -0.87127 q -0.13643,0 -0.17363,0.0372 -0.0341,0.0372 -0.0341,0.18293 v 3.03857 l 0.003,0.12093 q 0.0155,0.36277 0.40618,0.43098 0.10852,0.0186 0.10852,0.0713 0,0.0682 -0.0868,0.0682 -0.0372,0 -0.15193,-0.0186 -0.0589,-0.009 -0.27905,-0.009 l -0.22634,-0.003 -0.24185,0.003 q -0.13022,0 -0.22014,0.009 -0.17673,0.0186 -0.20774,0.0186 -0.093,0 -0.093,-0.0682 0,-0.0496 0.10232,-0.062 0.23875,-0.031 0.32246,-0.13022 0.0837,-0.10232 0.0837,-0.36277 v -3.07268 l -0.003,-0.0806 q 0,-0.11162 -0.0341,-0.14263 -0.031,-0.031 -0.14882,-0.031 h -0.82166 q -0.25115,0 -0.36587,0.10232 -0.11162,0.0992 -0.17363,0.37827 -0.0279,0.12092 -0.0837,0.11782 -0.0558,-0.003 -0.0558,-0.0837 0,-0.0651 0.0372,-0.23875 0.0465,-0.22324 0.0465,-0.36897 0,-0.14263 0.031,-0.18603 0.0341,-0.0465 0.13953,-0.0465 h 3.33623 q 0.17053,0 0.20464,0.0372 0.0372,0.0372 0.0372,0.22015 0,0.18293 0.0155,0.26665 0.0155,0.10542 0.0186,0.15193 0.003,0.093 -0.0651,0.0992 -0.0558,0.003 -0.0744,-0.0961 -0.0403,-0.22015 -0.13023,-0.28526 -0.0899,-0.0682 -0.35036,-0.0682 z"
           style="font-family:'Goudy Old Style';-inkscape-font-specification:'Goudy Old Style';fill:#000000"
           id="path73" />
        <path
           d="m 131.16585,111.50325 v 2.31924 q 0,0.43408 0.0527,0.57361 0.062,0.15813 0.15193,0.22324 0.093,0.0651 0.28836,0.093 0.15503,0.0217 0.15503,0.0775 0,0.0744 -0.0961,0.0744 -0.0465,0 -0.11782,-0.009 -0.0961,-0.0124 -0.32867,-0.0124 l -0.44958,-0.006 -0.36587,0.0217 q -0.0899,0.009 -0.14883,0.009 -0.0837,0 -0.0837,-0.0651 0,-0.0558 0.0961,-0.0713 0.23565,-0.0403 0.30386,-0.16123 0.0682,-0.12403 0.0682,-0.5178 v -2.6541 q 0,-0.38447 -0.0899,-0.5178 -0.0868,-0.13332 -0.37517,-0.17983 -0.0961,-0.0186 -0.0992,-0.0744 -0.003,-0.0682 0.0899,-0.0682 0.0248,0 0.0558,0.003 0.22635,0.0248 0.60152,0.0248 0.22944,0 0.39377,-0.009 l 0.20774,-0.0155 q 0.0589,-0.003 0.0775,-0.003 0.0837,0 0.0837,0.0589 0,0.0558 -0.0806,0.0837 l -0.16123,0.062 q -0.22945,0.0868 -0.22945,0.74104 z"
           style="font-family:'Goudy Old Style';-inkscape-font-specification:'Goudy Old Style';fill:#000000"
           id="path75" />
        <path
           d="m 135.99036,111.7854 v 2.59829 q 0,0.35037 -0.0155,0.42788 -0.0155,0.0744 -0.0868,0.0713 -0.0465,-0.003 -0.0713,-0.0279 l -0.0682,-0.0806 -2.61379,-2.98897 -0.031,-0.0341 q -0.0186,-0.0186 -0.0434,-0.0186 -0.0589,0 -0.0589,0.13953 v 2.1022 l -0.003,0.13022 0.009,0.22014 q 0.0217,0.20464 0.10541,0.28216 0.0837,0.0775 0.32867,0.11472 0.10232,0.0124 0.10232,0.0806 0,0.062 -0.0651,0.062 -0.0434,0 -0.093,-0.006 -0.0341,-0.006 -0.26975,-0.0186 l -0.31626,-0.0155 -0.14883,0.006 q -0.12093,0 -0.22945,0.0155 -0.0806,0.0124 -0.11472,0.0124 -0.0806,0 -0.0868,-0.0589 -0.003,-0.0465 0.0868,-0.0775 0.26045,-0.0899 0.35037,-0.23875 0.093,-0.15193 0.093,-0.48679 v -2.1084 q 0,-0.5364 -0.17054,-0.84336 -0.17053,-0.31006 -0.49299,-0.35346 -0.0837,-0.0124 -0.0837,-0.0713 0,-0.0589 0.0682,-0.0589 0.0155,0 0.0496,0.003 l 0.12712,0.003 0.20774,0.006 0.0496,-0.003 q 0.0744,-0.003 0.11472,-0.003 0.0775,0 0.15503,0.0899 l 2.85254,3.23081 q 0.0682,0.0775 0.0868,0.0744 0.031,-0.003 0.0341,-0.0589 v -1.53479 l 0.003,-0.41858 -0.0372,-0.71313 q -0.031,-0.26355 -0.15503,-0.37207 -0.12093,-0.11162 -0.44029,-0.16433 -0.0899,-0.0155 -0.0899,-0.0775 0,-0.0589 0.0899,-0.0589 0.0403,0 0.13023,0.009 0.21394,0.0248 0.57361,0.0248 0.19223,0 0.30696,-0.0186 0.0992,-0.0186 0.15192,-0.0186 0.0806,0 0.0868,0.0651 0.003,0.0403 -0.062,0.0589 -0.18914,0.0465 -0.25115,0.15503 -0.0589,0.10852 -0.0589,0.40618 v 0.33486 z"
           style="font-family:'Goudy Old Style';-inkscape-font-specification:'Goudy Old Style';fill:#000000"
           id="path77" />
        <path
           d="m 140.4335,113.79148 v -0.69763 q 0,-0.18914 -0.0837,-0.25735 -0.0806,-0.0682 -0.32867,-0.0868 -0.12092,-0.0124 -0.12402,-0.0806 -0.003,-0.0589 0.10542,-0.0589 l 0.12402,0.003 0.23255,0.003 q 0.47749,0 0.555,-0.006 0.21394,-0.0155 0.24805,-0.0155 0.0713,0 0.0713,0.0589 0,0.0527 -0.093,0.0775 -0.23565,0.0558 -0.23565,0.34107 l 0.003,0.0992 v 0.99219 l 0.006,0.0992 -0.0186,0.0465 q -0.0186,0.0155 -0.0899,0.0248 -0.0837,0.0124 -0.25735,0.11162 l -0.20463,0.12093 q -0.60462,0.35036 -1.29915,0.35036 -0.93018,0 -1.52549,-0.59531 -0.59531,-0.59841 -0.59531,-1.52859 0,-0.97668 0.62942,-1.62781 0.63252,-0.65112 1.5813,-0.65112 0.36587,0 0.77514,0.10542 0.41238,0.10542 0.65733,0.26355 0.0372,0.0248 0.0527,0.0248 0.0217,0 0.0589,-0.0248 l 0.0744,-0.0558 q 0.0217,-0.0186 0.0434,-0.0186 0.0558,0 0.0558,0.14572 0,0.0682 0.0186,0.21084 l 0.031,0.29146 q 0.0155,0.11782 0.0434,0.23564 0.0155,0.0558 0.0155,0.0899 0,0.0744 -0.062,0.0775 -0.0403,0.003 -0.0682,-0.0527 -0.24185,-0.4961 -0.74414,-0.80616 -0.5023,-0.31005 -1.0635,-0.31005 -0.70074,0 -1.14412,0.5333 -0.44338,0.5333 -0.44338,1.37666 0,0.90537 0.50849,1.51618 0.5116,0.60772 1.26504,0.60772 0.71934,0 1.12551,-0.5085 0.0992,-0.12402 0.0992,-0.42478 z"
           style="font-family:'Goudy Old Style';-inkscape-font-specification:'Goudy Old Style';fill:#000000"
           id="path79" />
        <path
           d="m 144.6627,110.51416 q 0.33176,0 0.56121,0.0961 l 0.21394,0.0899 q 0.0279,0.0124 0.0558,0.0124 0.0372,0 0.0744,-0.031 l 0.0434,-0.0372 q 0.009,-0.0124 0.0341,-0.0124 0.0775,-0.003 0.0775,0.15193 0,0.0527 0.0403,0.31316 l 0.0496,0.31936 q 0.0155,0.10232 0.0155,0.12713 0,0.0961 -0.0651,0.0961 -0.0496,0 -0.0992,-0.14882 -0.11162,-0.33487 -0.45579,-0.55191 -0.34106,-0.21704 -0.76274,-0.21704 -0.33487,0 -0.56121,0.19844 -0.22324,0.19534 -0.22324,0.48989 0,0.26045 0.14573,0.44959 0.12712,0.16123 0.27595,0.23564 0.15193,0.0744 0.74104,0.26975 1.14722,0.37517 1.14722,1.23093 0,0.57981 -0.42168,0.94878 -0.42168,0.36897 -1.08211,0.36897 -0.23874,0 -0.5271,-0.0682 -0.28525,-0.0682 -0.41858,-0.15813 -0.0558,-0.0372 -0.0744,-0.0775 -0.0186,-0.0434 -0.0558,-0.21705 -0.006,-0.0248 -0.0775,-0.28215 -0.0806,-0.27905 -0.0806,-0.39687 0,-0.093 0.062,-0.0899 0.0558,0.003 0.0992,0.15193 0.11162,0.38447 0.47129,0.64492 0.35967,0.26045 0.78135,0.26045 0.42788,0 0.72243,-0.25115 0.29766,-0.25115 0.29766,-0.61081 0,-0.34417 -0.27285,-0.57981 -0.13953,-0.12093 -0.80615,-0.34417 -0.68834,-0.23254 -0.97669,-0.5147 -0.28525,-0.28215 -0.28525,-0.73173 0,-0.5023 0.37207,-0.81856 0.37517,-0.31626 0.96428,-0.31626 z"
           style="font-family:'Goudy Old Style';-inkscape-font-specification:'Goudy Old Style';fill:#000000"
           id="path81" />
        <path
           d="m 148.43611,114.19456 q 0,0.35967 0.0589,0.44028 0.0589,0.0806 0.33797,0.10852 0.0961,0.009 0.0961,0.0651 0,0.0744 -0.10852,0.0744 -0.0341,0 -0.16123,-0.0155 -0.0775,-0.009 -0.22635,-0.0186 l -0.24494,-0.0124 -0.24185,0.006 q -0.22944,0 -0.30696,0.009 -0.0899,0.0124 -0.11782,0.0124 -0.0713,0 -0.0713,-0.0527 0,-0.062 0.10232,-0.0775 0.26045,-0.0372 0.32866,-0.13643 0.0713,-0.10232 0.0713,-0.43408 l 0.003,-0.13332 v -0.92398 q 0,-0.19844 -0.0279,-0.29145 -0.0279,-0.093 -0.13643,-0.26355 l -0.86506,-1.37356 -0.10542,-0.17054 q -0.0899,-0.14572 -0.25425,-0.23564 -0.16433,-0.093 -0.32556,-0.093 -0.0899,0 -0.0899,-0.0558 0,-0.0682 0.0961,-0.0682 0.0775,0 0.15813,0.009 0.20154,0.0217 0.42168,0.0217 0.45579,0 0.58291,-0.0124 0.13643,-0.0124 0.16433,-0.0124 0.0899,0 0.0899,0.062 0,0.0465 -0.0713,0.0682 -0.20773,0.062 -0.20773,0.21083 0,0.0806 0.13332,0.29766 l 0.0868,0.14883 0.64802,1.02319 0.0403,0.062 q 0.0279,0.0434 0.0558,0.0434 0.0341,0 0.0651,-0.0434 l 0.031,-0.0465 0.44958,-0.68213 0.15193,-0.24185 q 0.21704,-0.34416 0.21704,-0.46199 0,-0.20774 -0.39067,-0.30075 -0.0775,-0.0186 -0.0744,-0.0713 0.003,-0.0527 0.0713,-0.0527 0.0465,0 0.16433,0.0186 0.0899,0.0155 0.43408,0.0155 0.31626,0 0.40307,-0.009 0.11783,-0.0124 0.16434,-0.0155 0.0837,-0.006 0.0837,0.0558 0,0.0496 -0.0775,0.0744 -0.27595,0.0899 -0.45889,0.34727 l -0.20154,0.30075 -0.75344,1.12241 -0.0744,0.10542 q -0.11783,0.16744 -0.11783,0.30696 z"
           style="font-family:'Goudy Old Style';-inkscape-font-specification:'Goudy Old Style';fill:#000000"
           id="path83" />
        <path
           d="m 151.5646,110.51416 q 0.33176,0 0.56121,0.0961 l 0.21394,0.0899 q 0.0279,0.0124 0.0558,0.0124 0.0372,0 0.0744,-0.031 l 0.0434,-0.0372 q 0.009,-0.0124 0.0341,-0.0124 0.0775,-0.003 0.0775,0.15193 0,0.0527 0.0403,0.31316 l 0.0496,0.31936 q 0.0155,0.10232 0.0155,0.12713 0,0.0961 -0.0651,0.0961 -0.0496,0 -0.0992,-0.14882 -0.11162,-0.33487 -0.45579,-0.55191 -0.34106,-0.21704 -0.76274,-0.21704 -0.33486,0 -0.56121,0.19844 -0.22324,0.19534 -0.22324,0.48989 0,0.26045 0.14573,0.44959 0.12712,0.16123 0.27595,0.23564 0.15193,0.0744 0.74104,0.26975 1.14722,0.37517 1.14722,1.23093 0,0.57981 -0.42168,0.94878 -0.42168,0.36897 -1.08211,0.36897 -0.23874,0 -0.5271,-0.0682 -0.28525,-0.0682 -0.41858,-0.15813 -0.0558,-0.0372 -0.0744,-0.0775 -0.0186,-0.0434 -0.0558,-0.21705 -0.006,-0.0248 -0.0775,-0.28215 -0.0806,-0.27905 -0.0806,-0.39687 0,-0.093 0.062,-0.0899 0.0558,0.003 0.0992,0.15193 0.11162,0.38447 0.47129,0.64492 0.35967,0.26045 0.78135,0.26045 0.42788,0 0.72243,-0.25115 0.29766,-0.25115 0.29766,-0.61081 0,-0.34417 -0.27285,-0.57981 -0.13953,-0.12093 -0.80615,-0.34417 -0.68833,-0.23254 -0.97669,-0.5147 -0.28525,-0.28215 -0.28525,-0.73173 0,-0.5023 0.37207,-0.81856 0.37517,-0.31626 0.96428,-0.31626 z"
           style="font-family:'Goudy Old Style';-inkscape-font-specification:'Goudy Old Style';fill:#000000"
           id="path85" />
        <path
           d="m 156.42322,110.92344 h -0.87126 q -0.13643,0 -0.17364,0.0372 -0.0341,0.0372 -0.0341,0.18293 v 3.03857 l 0.003,0.12093 q 0.0155,0.36277 0.40617,0.43098 0.10852,0.0186 0.10852,0.0713 0,0.0682 -0.0868,0.0682 -0.0372,0 -0.15193,-0.0186 -0.0589,-0.009 -0.27905,-0.009 l -0.22635,-0.003 -0.24184,0.003 q -0.13023,0 -0.22014,0.009 -0.17674,0.0186 -0.20774,0.0186 -0.093,0 -0.093,-0.0682 0,-0.0496 0.10232,-0.062 0.23874,-0.031 0.32246,-0.13022 0.0837,-0.10232 0.0837,-0.36277 v -3.07268 l -0.003,-0.0806 q 0,-0.11162 -0.0341,-0.14263 -0.031,-0.031 -0.14883,-0.031 h -0.82166 q -0.25114,0 -0.36586,0.10232 -0.11163,0.0992 -0.17364,0.37827 -0.0279,0.12092 -0.0837,0.11782 -0.0558,-0.003 -0.0558,-0.0837 0,-0.0651 0.0372,-0.23875 0.0465,-0.22324 0.0465,-0.36897 0,-0.14263 0.031,-0.18603 0.0341,-0.0465 0.13952,-0.0465 h 3.33624 q 0.17053,0 0.20463,0.0372 0.0372,0.0372 0.0372,0.22015 0,0.18293 0.0155,0.26665 0.0155,0.10542 0.0186,0.15193 0.003,0.093 -0.0651,0.0992 -0.0558,0.003 -0.0744,-0.0961 -0.0403,-0.22015 -0.13022,-0.28526 -0.0899,-0.0682 -0.35037,-0.0682 z"
           style="font-family:'Goudy Old Style';-inkscape-font-specification:'Goudy Old Style';fill:#000000"
           id="path87" />
        <path
           d="m 158.31458,111.08467 v 1.24644 q 0,0.14262 0.0248,0.17363 0.0279,0.0279 0.16123,0.0279 h 0.47749 q 0.32556,0 0.5147,-0.0372 0.16743,-0.0341 0.21704,-0.0899 0.0496,-0.0558 0.0899,-0.26045 0.0155,-0.0775 0.0775,-0.0744 0.0589,0.003 0.0589,0.0837 0,0.0217 -0.003,0.0682 -0.0248,0.30076 -0.0248,0.54881 0,0.18913 0.0186,0.37517 0.006,0.062 0.006,0.0899 0,0.0775 -0.0589,0.0775 -0.0651,0 -0.0775,-0.0682 l -0.0186,-0.0868 q -0.0372,-0.20774 -0.14882,-0.28215 -0.11163,-0.0744 -0.37828,-0.0744 h -0.68523 q -0.15192,0 -0.20463,0.031 -0.0496,0.031 -0.0496,0.12402 l 0.003,0.10232 v 1.14102 q 0,0.26355 0.093,0.32866 0.0961,0.0651 0.48059,0.0651 1.21853,0 1.56579,-0.5488 0.0341,-0.0527 0.0682,-0.0558 0.0558,-0.003 0.0558,0.0806 0,0.20154 -0.22635,0.48059 -0.27285,0.33487 -0.68833,0.33487 -0.0899,0 -0.24184,-0.0124 -0.59222,-0.0558 -0.97979,-0.0558 -0.5426,0 -0.76584,0.0372 -0.11783,0.0217 -0.16123,0.0217 -0.0992,0 -0.0992,-0.0682 0,-0.0527 0.0806,-0.0744 l 0.11783,-0.0341 q 0.22324,-0.062 0.22324,-0.43408 l 0.003,-0.20154 v -2.61999 q 0,-0.44339 -0.0992,-0.59531 -0.0961,-0.15503 -0.37827,-0.15503 -0.0899,0 -0.0899,-0.0589 0,-0.0868 0.13953,-0.0868 0.0775,0 0.20774,0.0155 0.44338,0.0496 1.0666,0.0496 0.37827,0 0.66972,-0.0124 l 0.44029,-0.0217 q 0.18293,-0.006 0.22324,-0.0124 0.0837,-0.0124 0.12402,-0.0124 0.10232,0 0.10232,0.0899 0,0.0279 -0.009,0.0713 -0.009,0.0434 -0.0248,0.24805 l -0.0124,0.18293 q -0.0155,0.17984 -0.031,0.22634 -0.0155,0.0434 -0.0682,0.0465 -0.0589,0.003 -0.0589,-0.093 v -0.0806 q 0,-0.0992 -0.0372,-0.18914 -0.0589,-0.13952 -0.23875,-0.18603 -0.17983,-0.0465 -0.66042,-0.0465 h -0.4868 q -0.19223,0 -0.24804,0.0496 -0.0558,0.0465 -0.0558,0.21084 z"
           style="font-family:'Goudy Old Style';-inkscape-font-specification:'Goudy Old Style';fill:#000000"
           id="path89" />
        <path
           d="m 164.85682,111.70479 q -0.26355,0.46198 -0.35036,0.64182 l -0.27596,0.59221 -0.31626,0.65112 q -0.0248,0.0558 -0.26044,0.58291 -0.0961,0.21704 -0.16744,0.35657 -0.0403,0.0837 -0.0558,0.11782 -0.062,0.14573 -0.13332,0.14573 -0.0744,0 -0.14263,-0.15193 -0.0124,-0.0279 -0.0868,-0.17053 l -0.062,-0.13023 -1.16272,-2.51767 -0.0713,1.53479 q -0.009,0.18913 -0.009,0.75654 0,0.54571 0.38447,0.60462 0.18914,0.031 0.18914,0.093 0,0.0713 -0.0899,0.0713 -0.0589,0 -0.11472,-0.006 -0.34727,-0.031 -0.5364,-0.031 -0.22635,0 -0.43409,0.0279 -0.062,0.009 -0.0961,0.009 -0.093,0 -0.093,-0.0682 0,-0.0527 0.0744,-0.0682 0.22635,-0.0527 0.31626,-0.21084 0.0899,-0.15813 0.10852,-0.5395 l 0.0434,-0.89917 q 0.0465,-0.97668 0.0465,-1.23403 0,-0.55191 -0.14573,-0.81546 -0.14572,-0.26665 -0.48679,-0.32866 -0.093,-0.0155 -0.093,-0.0775 0,-0.0682 0.0775,-0.0682 0.0279,0 0.10232,0.006 0.0434,0.006 0.21084,0.006 0.25424,0 0.32246,-0.006 0.0713,-0.009 0.11472,-0.009 0.13332,0 0.22324,0.19534 l 0.0341,0.0713 1.29294,2.78743 0.15813,0.31936 q 0.0341,0.0806 0.0496,0.0806 0.0186,0 0.0465,-0.0589 l 0.0372,-0.0837 0.0279,-0.062 1.45728,-3.11919 q 0.0465,-0.0992 0.0682,-0.12093 0.0248,-0.0248 0.0837,-0.0248 0.0248,0 0.13642,0.0124 0.0403,0.003 0.10232,0.003 0.19534,0 0.31316,-0.0124 0.0558,-0.003 0.0899,-0.006 0.062,-0.003 0.062,0.062 0,0.0589 -0.062,0.0744 l -0.13333,0.0341 q -0.15813,0.0372 -0.22324,0.19534 -0.062,0.15503 -0.062,0.51159 l 0.0186,0.74725 0.0589,1.68361 0.0155,0.39068 q 0,0.23564 0.0868,0.33796 0.0868,0.10232 0.31626,0.13643 0.16433,0.0248 0.16433,0.0837 0,0.062 -0.11472,0.062 -0.0341,0 -0.0775,-0.003 l -0.24185,-0.0248 q -0.12092,-0.0124 -0.26045,-0.0124 -0.0961,0 -0.30385,0.0124 -0.32247,0.0155 -0.37208,0.0155 -0.0899,0 -0.0899,-0.0558 0,-0.0496 0.0775,-0.0713 0.18294,-0.0496 0.24495,-0.16123 0.062,-0.11162 0.062,-0.39068 l -0.0124,-0.50539 z"
           style="font-family:'Goudy Old Style';-inkscape-font-specification:'Goudy Old Style';fill:#000000"
           id="path91" />
      </g>
      <g
         aria-label="GEOS™"
         id="text130061"
         style="font-size:27.5167px;line-height:1.25;font-family:'GoudyOlSt XBd BT';-inkscape-font-specification:'GoudyOlSt XBd BT';letter-spacing:6.08542px;word-spacing:0px;fill:#000000;stroke-width:0.264583">
        <path
           d="m 66.861855,101.5835 q 0,0.24184 0.01344,0.45682 0.01344,0.20154 0.04031,0.36277 v 0.10748 q 0,0.21498 -0.241846,0.38964 -0.241846,0.16123 -1.115179,0.49713 -0.06718,0.0269 -0.335897,0.13436 -0.268718,0.094 -0.443385,0.16123 -1.975075,0.75241 -3.56051,1.11518 -1.585435,0.37621 -2.888716,0.37621 -1.746666,0 -3.332101,-0.55088 -1.585435,-0.55087 -2.781229,-1.572 -1.625742,-1.39733 -2.445332,-3.251481 -0.819589,-1.854152 -0.819589,-4.124817 0,-2.324409 0.846461,-4.393536 0.846461,-2.069127 2.41846,-3.587383 1.424204,-1.343588 3.130562,-1.988511 1.706358,-0.644923 3.869536,-0.644923 1.007692,0 1.934768,0.188103 0.927077,0.188102 2.122871,0.658358 0.174666,0.06718 0.403077,0.174667 0.22841,0.107487 0.295589,0.134359 0.45682,0.22841 0.68523,0.309025 0.241846,0.06718 0.416513,0.06718 0.161231,0 0.29559,-0.08062 0.147794,-0.08062 0.38964,-0.349333 0.174667,-0.214974 0.29559,-0.282154 0.134359,-0.08061 0.255282,-0.08061 0.188102,0 0.268718,0.134359 0.09405,0.120923 0.120923,0.604615 l 0.376204,4.433843 q 0.01344,0.174667 0.01344,0.349333 0.01344,0.161231 0.01344,0.282154 0,0.255282 -0.06718,0.335897 -0.06718,0.08062 -0.255282,0.08062 -0.241846,0 -0.389641,-0.107487 -0.134359,-0.107488 -0.362769,-0.564308 -0.09405,-0.214974 -0.214974,-0.429948 -0.107487,-0.214974 -0.241846,-0.443385 -1.410768,-2.257229 -2.87528,-3.238049 -1.451076,-0.994256 -3.318665,-0.994256 -2.593127,0 -4.218869,2.337845 -1.612307,2.337845 -1.612307,6.167073 0,4.191998 1.491384,6.704505 1.491384,2.51252 3.950151,2.51252 1.907897,0 2.955896,-0.92708 1.061435,-0.92708 1.061435,-2.59313 v -1.437638 q 0,-1.168922 -0.268718,-1.719794 -0.268717,-0.550871 -0.91364,-0.75241 -0.255282,-0.09405 -0.510564,-0.147794 -0.241846,-0.05374 -0.510564,-0.08062 -0.550871,-0.107487 -0.68523,-0.22841 -0.134359,-0.134359 -0.134359,-0.403076 0,-0.335898 0.134359,-0.429949 0.134359,-0.09405 0.604615,-0.09405 0.120923,0 0.214974,0.01344 0.09405,0 0.188103,0.01344 0.04031,0.01344 0.09405,0.01344 1.397332,0.08062 2.619998,0.08062 0.940512,0 1.840717,-0.02687 0.900205,-0.04031 1.907896,-0.120923 0.161231,0 0.376205,-0.01344 0.22841,-0.01344 0.268718,-0.01344 0.309025,0 0.403077,0.09405 0.09405,0.08062 0.09405,0.403076 0,0.564308 -0.524,0.712102 h -0.02687 q -0.214974,0.02687 -0.362769,0.09405 -0.147794,0.06718 -0.268717,0.188102 -0.322462,0.29559 -0.510564,1.021128 -0.174667,0.712102 -0.174667,1.706357 z"
           style="letter-spacing:5.82083px;fill:#000000"
           id="path205099" />
        <path
           d="m 78.016732,99.984626 v -10.13066 q 0,-1.20923 -0.188103,-1.827281 -0.174666,-0.618051 -0.604615,-0.98082 -0.214974,-0.174667 -0.470256,-0.282154 -0.255282,-0.107487 -0.779281,-0.214974 -0.05374,-0.01344 -0.134359,-0.02687 -0.06718,-0.01344 -0.255282,-0.05374 -0.134359,-0.04031 -0.241846,-0.188103 -0.107487,-0.16123 -0.107487,-0.335897 0,-0.255282 0.188102,-0.416513 0.201539,-0.16123 0.537436,-0.16123 0.08062,0 0.147795,0.01344 0.08062,0 0.174666,0.01344 0.900205,0.09405 1.706358,0.134358 0.806153,0.04031 1.652614,0.04031 4.501023,0 8.773636,-0.268718 l 0.107487,-0.01344 q 0.22841,0 0.470256,-0.01344 0.255282,-0.01344 0.282154,-0.01344 0.564307,0.01344 0.631487,0.671794 0,0.01344 0,0.01344 v 0.120923 l 0.188102,2.71405 q 0.01344,0.04031 0.01344,0.09405 0.01344,0.05374 0.01344,0.134359 0,0.120923 0.01344,0.268717 0.01344,0.147795 0.01344,0.188103 0,0.362769 -0.120923,0.497128 -0.120923,0.120923 -0.456821,0.120923 -0.214974,0 -0.322461,-0.120923 -0.107487,-0.134359 -0.201538,-0.604615 0,-0.01344 0,-0.04031 -0.05374,-0.376205 -0.134359,-0.618051 -0.335897,-1.047999 -1.262974,-1.451076 -0.927076,-0.416512 -3.305228,-0.416512 -1.464512,0 -1.80041,0.322461 -0.322461,0.322461 -0.322461,1.625743 v 3.667997 q 0,0.873333 0.241846,1.061436 0.241846,0.174666 1.558563,0.174666 1.007692,0 1.639179,-0.282154 0.631487,-0.295589 1.021127,-0.927076 0.120923,-0.214974 0.268718,-0.618051 0.02687,-0.06718 0.04031,-0.107487 l 0.01344,-0.04031 q 0.214974,-0.618051 0.591179,-0.618051 0.282153,0 0.403076,0.147795 0.120923,0.147795 0.120923,0.483692 0,0.22841 -0.04031,0.779282 -0.01344,0.107487 -0.01344,0.161231 -0.04031,0.510563 -0.05374,0.900204 0,0.376205 0,0.725538 0,0.631487 0.04031,1.236102 0.05374,0.604615 0.147795,1.195794 0.01344,0.06718 0.01344,0.161231 0.04031,0.309025 0.04031,0.376205 0,0.322461 -0.107487,0.45682 -0.09405,0.120923 -0.335897,0.120923 -0.268718,0 -0.389641,-0.120923 -0.120923,-0.120923 -0.16123,-0.577743 -0.01344,-0.05374 -0.02687,-0.161231 -0.08062,-0.376205 -0.161231,-0.564307 -0.362769,-0.765846 -1.088307,-1.074872 -0.712102,-0.309025 -2.243793,-0.309025 -0.940513,0 -1.236102,0.29559 -0.282154,0.282153 -0.282154,1.59887 v 3.694867 q 0,1.70636 0.322461,2.12287 0.322462,0.40308 1.303282,0.40308 1.89446,0 3.358972,-0.55087 1.464512,-0.56431 2.512511,-1.70636 0.22841,-0.24185 0.497128,-0.69867 0.05374,-0.0806 0.08061,-0.13435 0.147795,-0.335902 0.282154,-0.443389 0.134359,-0.120923 0.322461,-0.120923 0.241846,0 0.376205,0.188103 0.147795,0.174666 0.147795,0.497129 0,0.59118 -0.201538,1.27641 -0.201539,0.67179 -0.577743,1.34359 -0.618051,1.0883 -1.410769,1.572 -0.779281,0.48369 -1.921332,0.48369 -0.309025,0 -0.75241,-0.0269 -0.429948,-0.0134 -0.953948,-0.0538 -0.241846,-0.0134 -0.765846,-0.0403 -2.499075,-0.12092 -4.151689,-0.12092 -1.316717,0 -3.130562,0.20154 -0.147795,0.0134 -0.201539,0.0134 -0.295589,0.0403 -0.550871,0.0537 -0.241846,0.0269 -0.416513,0.0269 -0.22841,0 -0.403076,-0.17467 -0.174667,-0.17466 -0.174667,-0.40307 0,-0.20154 0.134359,-0.36277 0.147795,-0.16123 0.618051,-0.37621 0.376205,-0.17466 0.591179,-0.33589 0.214974,-0.16123 0.362769,-0.34934 0.282154,-0.34933 0.389641,-0.91364 0.107487,-0.57774 0.107487,-2.001944 z"
           style="letter-spacing:5.82083px;fill:#000000"
           id="path205101" />
        <path
           d="m 102.58063,93.817553 q 0,4.339792 1.84072,7.121017 1.85415,2.78123 4.64881,2.78123 2.60657,0 4.03077,-1.84071 1.4242,-1.85416 1.4242,-5.226564 0,-1.746666 -0.36277,-3.39928 -0.36276,-1.652615 -1.04799,-3.036511 -0.87334,-1.800409 -2.10944,-2.740922 -1.2361,-0.953948 -2.70061,-0.953948 -2.7678,0 -4.24574,1.894461 -1.47795,1.881024 -1.47795,5.401227 z m 5.64307,11.420507 q -4.58164,0 -7.3763,-2.67374 -2.78123,-2.687181 -2.78123,-7.094153 0,-1.746665 0.510564,-3.318664 0.510563,-1.585435 1.504816,-2.875281 1.51826,-2.015383 3.80236,-3.117126 2.29754,-1.115179 4.94441,-1.115179 4.55476,0 7.3763,2.687178 2.83497,2.673742 2.83497,6.973227 0,1.625742 -0.48369,3.157434 -0.47026,1.518255 -1.3839,2.808104 -1.59887,2.23035 -3.88297,3.39928 -2.2841,1.16892 -5.06533,1.16892 z"
           style="letter-spacing:5.82083px;fill:#000000"
           id="path205103" />
        <path
           d="m 127.30575,103.26298 -0.81959,-3.614251 q 0,-0.05374 -0.0134,-0.107487 -0.0134,-0.06718 -0.0537,-0.174667 -0.0269,-0.120923 -0.0537,-0.268718 -0.0269,-0.147794 -0.0269,-0.268717 0,-0.147795 0.16123,-0.241846 0.17467,-0.09405 0.44338,-0.09405 0.16123,0 0.26872,0.120923 0.12092,0.120923 0.34933,0.618051 0,0.02687 0.0269,0.08062 0.3762,0.819588 0.76584,1.410768 0.96739,1.49138 2.24379,2.25723 1.27641,0.76584 2.7678,0.76584 1.67948,0 2.59312,-0.80615 0.92708,-0.80615 0.92708,-2.29754 0,-0.53743 -0.1881,-1.007687 -0.17467,-0.483692 -0.49713,-0.833025 -0.48369,-0.564308 -2.01538,-1.101743 -0.0403,-0.01344 -0.0806,-0.02687 -0.1881,-0.09405 -0.55087,-0.214974 -0.36277,-0.134359 -0.47026,-0.174667 -3.90984,-1.625742 -5.06533,-2.915588 -1.15548,-1.303281 -1.15548,-3.466459 0,-2.552819 1.58543,-4.165126 1.58544,-1.612306 4.08451,-1.612306 1.47795,0 3.26492,0.712102 0.10749,0.04031 0.1478,0.05374 0.0269,0.01344 0.0806,0.04031 0.63149,0.268718 0.83303,0.268718 0.32246,0 0.81959,-0.22841 0.0403,-0.01344 0.0672,-0.02687 0.10748,-0.06718 0.20154,-0.09405 0.10748,-0.04031 0.17466,-0.04031 0.20154,0 0.30903,0.107487 0.10749,0.09405 0.10749,0.282154 0,0.107487 -0.0134,0.188102 0,0.06718 -0.0134,0.134359 -0.0269,0.161231 -0.0403,0.349333 -0.0134,0.174667 -0.0134,0.376205 0,0.524 0.0403,1.088307 0.0537,0.550872 0.17466,1.303281 0.0672,0.389641 0.0941,0.685231 0.0403,0.295589 0.0403,0.523999 0,0.282154 -0.0941,0.389641 -0.094,0.107487 -0.34933,0.107487 -0.26872,0 -0.42995,-0.147794 -0.16123,-0.147795 -0.3359,-0.712103 -0.0134,-0.04031 -0.0537,-0.147794 -0.20154,-0.577744 -0.38964,-0.900205 -0.8599,-1.477948 -2.04226,-2.257229 -1.18235,-0.792718 -2.55282,-0.792718 -1.31671,0 -2.19005,0.75241 -0.85989,0.75241 -0.85989,1.867589 0,1.074871 0.65836,1.746665 0.65835,0.658359 2.94246,1.491384 0.0537,0.02687 0.12092,0.05374 0.0806,0.02687 0.20154,0.05374 2.01538,0.738974 2.8081,1.155487 0.79272,0.403076 1.30328,0.859896 0.9002,0.81959 1.3839,1.975076 0.48369,1.142051 0.48369,2.458768 0,2.942462 -1.74667,4.648822 -1.74666,1.70635 -4.76974,1.70635 -0.88677,0 -2.60656,-0.45682 -0.0941,-0.0269 -0.1478,-0.0403 -0.14779,-0.0403 -0.44338,-0.10749 -0.9002,-0.22841 -1.3839,-0.30903 -0.5643,-0.094 -0.73897,-0.26871 -0.16123,-0.17467 -0.26872,-0.71211 z"
           style="letter-spacing:-1.32292px;fill:#000000"
           id="path205105" />
        <path
           d="m 141.66217,86.030548 h -0.60634 q -0.0834,0 -0.10231,0.01895 -0.0189,0.01895 -0.0189,0.106109 v 2.160075 q 0,0.227376 0.26527,0.272851 0.0985,0.01895 0.0985,0.07579 0,0.07579 -0.0872,0.072 -0.0303,0 -0.1099,-0.01516 -0.0455,-0.0076 -0.19327,-0.0076 h -0.15537 l -0.17054,0.0038 q -0.0909,0 -0.15158,0.0076 -0.12506,0.01137 -0.14779,0.01137 -0.0909,0 -0.0909,-0.072 0,-0.05684 0.0947,-0.06821 0.16295,-0.02274 0.21221,-0.08337 0.0493,-0.06063 0.0493,-0.238745 v -2.148706 q 0,-0.06442 -0.019,-0.07958 -0.0152,-0.01516 -0.0834,-0.01516 h -0.57223 q -0.16674,0 -0.23875,0.06063 -0.0682,0.06063 -0.11368,0.246324 -0.0265,0.106109 -0.0834,0.102319 -0.0644,-0.0038 -0.0644,-0.07958 0,-0.04547 0.0265,-0.170532 0.0303,-0.151585 0.0303,-0.250114 0,-0.181901 0.14401,-0.181901 h 2.32682 q 0.13642,0 0.16295,0.03411 0.0303,0.03411 0.0303,0.208428 0,0.07579 0.008,0.136426 0.0152,0.072 0.0152,0.106109 0.004,0.09095 -0.0682,0.09474 -0.0606,0.0038 -0.0796,-0.08716 -0.0303,-0.144005 -0.0834,-0.181901 -0.0531,-0.0379 -0.22359,-0.0379 z m 3.4258,0.602547 q -0.144,0.246325 -0.20085,0.360013 l -0.18948,0.405487 -0.21979,0.443384 -0.18569,0.397909 q -0.0606,0.136425 -0.11369,0.246324 -0.0303,0.05684 -0.0379,0.07579 -0.053,0.117478 -0.11747,0.117478 -0.0682,0 -0.12506,-0.117478 -0.008,-0.02274 -0.0568,-0.117478 -0.0265,-0.04926 -0.0455,-0.08716 l -0.7655,-1.62953 -0.0455,0.947402 q -0.004,0.08716 -0.004,0.515386 0,0.352433 0.24254,0.390329 0.15537,0.02274 0.15537,0.08716 0,0.07579 -0.0872,0.07579 -0.0417,0 -0.0834,-0.0038 -0.25011,-0.02274 -0.37138,-0.02274 -0.15537,0 -0.29938,0.01895 -0.0455,0.0076 -0.072,0.0076 -0.091,0 -0.091,-0.072 0,-0.05684 0.072,-0.072 0.15158,-0.0379 0.20843,-0.136426 0.0568,-0.102319 0.072,-0.352433 l 0.0303,-0.617705 q 0.0303,-0.655602 0.0303,-0.814765 0,-0.394119 -0.0909,-0.564651 -0.0909,-0.170533 -0.32969,-0.219798 -0.0909,-0.01895 -0.0872,-0.08716 0.004,-0.06442 0.0796,-0.06442 0.0227,0 0.072,0.0038 0.0341,0.0038 0.13264,0.0038 0.17432,0 0.23495,-0.0076 0.0531,-0.0038 0.0872,-0.0038 0.10611,0 0.17812,0.147794 l 0.0227,0.04926 1.01941,2.167654 1.06866,-2.262394 q 0.0568,-0.113688 0.12885,-0.113688 l 0.10232,0.0076 q 0.0227,0.0038 0.0682,0.0038 0.12885,0 0.21601,-0.0076 l 0.0644,-0.0038 q 0.0682,0 0.0682,0.06821 0,0.06063 -0.0644,0.07579 l -0.091,0.02274 q -0.17811,0.04169 -0.17811,0.458543 l 0.0114,0.511596 0.0417,1.15204 0.0114,0.265272 q 0,0.155374 0.053,0.216008 0.0531,0.06063 0.20464,0.08337 0.144,0.01895 0.13642,0.08716 -0.004,0.06442 -0.1061,0.06442 -0.0227,0 -0.0531,-0.0038 l -0.17053,-0.01516 q -0.0758,-0.0076 -0.1819,-0.0076 -0.0568,0 -0.20843,0.0076 l -0.17811,0.01137 -0.0796,0.0038 q -0.0909,0 -0.0909,-0.06442 0,-0.05305 0.072,-0.07579 0.12127,-0.03411 0.15916,-0.102319 0.0379,-0.06821 0.0379,-0.250114 l -0.008,-0.344854 z"
           style="font-size:7.76111px;font-family:'Goudy Old Style';-inkscape-font-specification:'Goudy Old Style';letter-spacing:-1.32292px;baseline-shift:super;fill:#000000"
           id="path205107" />
      </g>
    </g>
  </g>
</svg>
