<?xml version="1.0" encoding="UTF-8" standalone="no"?>
<svg
   xmlns:dc="http://purl.org/dc/elements/1.1/"
   xmlns:cc="http://creativecommons.org/ns#"
   xmlns:rdf="http://www.w3.org/1999/02/22-rdf-syntax-ns#"
   xmlns:svg="http://www.w3.org/2000/svg"
   xmlns="http://www.w3.org/2000/svg"
   xmlns:xlink="http://www.w3.org/1999/xlink"
   id="svg2"
   width="250"
   height="199"
   version="1.1">
  <defs
     id="defs4" />
  <metadata
     id="metadata6">
    <rdf:RDF>
      <cc:Work
         rdf:about="">
        <dc:format>image/svg+xml</dc:format>
        <dc:type
           rdf:resource="http://purl.org/dc/dcmitype/StillImage" />
        <dc:title></dc:title>
      </cc:Work>
    </rdf:RDF>
  </metadata>
  <path
     id="path8"
     style="fill:#4d88bc"
     d="M 124.87525,0.48767 C 56.29299,0.48767 0.719,24.43992 0.719,53.95642 c 0,27.7721 49.2109,50.5868 112.15625,53.1875 -42.37381,-2.5179 -75,-18.16445 -75,-37.09375 0,-14.63465 19.50487,-27.30613 47.9375,-33.46875 4.54972,-17.32721 20.30761,-30.09375 39.0625,-30.09375 18.75463,0 34.51253,12.7669 39.0625,30.09375 28.4489,6.1602 47.96875,18.82895 47.96875,33.46875 0,18.9293 -32.62619,34.57585 -75,37.09375 62.94535,-2.6007 112.15625,-25.4154 112.15625,-53.1875 0,-29.5165 -55.60525,-53.46875 -124.1875,-53.46875 z m 0,10.21875 c -19.96699,0 -36.15625,16.18926 -36.15625,36.15625 0,19.96699 16.18926,36.15625 36.15625,36.15625 19.96699,0 36.15625,-16.18926 36.15625,-36.15625 0,-19.96699 -16.18926,-36.15625 -36.15625,-36.15625 z m 5.90625,14.9375 c 6.72801,0 12.1875,5.45949 12.1875,12.1875 0,6.72801 -5.45949,12.1875 -12.1875,12.1875 -6.72801,0 -12.1875,-5.45949 -12.1875,-12.1875 0,-6.72801 5.45949,-12.1875 12.1875,-12.1875 z" />
  <g
     id="g10"
     style="font-weight:bold;font-size:90px;font-family:'Unanimous Inverted BRK';fill:#4d88bc">
    <path
       id="path12"
       d="m 31.684406,191.139 -1.17,-0.36 q -0.63,-0.27 -0.72,-0.99 l 0,-6.84 q 0,-0.45 -0.81,-1.71 -0.72,-0.9 -1.53,-0.99 l -2.7,0 q -0.81,0 -1.62,1.17 -0.45,0.99 -0.63,1.89 l 0,6.84 0.27,1.53 0.45,1.53 q 2.34,5.31 8.46,5.31 3.87,0 6.57,-2.43 2.7,-2.43 2.7,-6.48 l 0,-44.91 q 0,-2.07 -0.72,-3.6 -0.72,-1.62 -2.07,-2.79 -0.63,-0.54 -1.26,-0.9 -0.54,-0.36 -1.98,-0.99 -1.44,-0.63 -3.24,-0.63 -1.8,0 -3.42,0.63 -1.62,0.54 -2.97,1.62 -0.54,0.54 -1.08,1.17 -0.45,0.54 -0.99,1.62 -0.45,0.99 -0.63,1.71 -0.09,0.63 -0.09,1.62 l 0,24.48 q 0,2.52 1.89,4.59 1.98,1.89 4.23,2.7 l 0.99,0.18 1.62,0.27 q 0.99,0.18 1.44,0.45 0.45,0.27 0.63,0.81 l 0,12.51 q 0,0.45 -0.63,0.72 l -0.99,0.27 z m -0.18,-47.79 1.08,0.18 q 0.54,0 0.72,0.81 l 0,23.58 q 0,0.54 -0.63,0.81 l -0.99,0.18 -1.17,-0.27 q -0.45,-0.27 -0.63,-1.08 l 0,-22.86 q 0,-0.54 0.54,-0.99 l 1.08,-0.36 z" />
    <path
       id="path14"
       d="m 53.387063,113.559 q -1.26,0 -1.8,0.18 -0.54,0.09 -1.53,0.54 -1.62,0.54 -2.79,1.71 -1.08,1.08 -2.07,2.79 -0.72,1.62 -0.72,3.33 l 0,50.94 q 0,1.44 1.08,2.52 1.17,0.9 2.61,0.9 0.99,0 2.25,-0.72 1.26,-0.81 1.35,-2.16 l 0,-50.94 q 0,-0.81 0.63,-1.17 l 1.26,-0.36 1.08,0.27 q 0.54,0.09 0.63,0.72 l 0,50.4 q 0,1.53 1.08,2.88 1.08,1.08 2.88,1.08 1.35,0 2.43,-0.9 1.17,-0.99 1.17,-2.52 l 0,-50.76 q 0,-1.89 -0.81,-3.6 -0.72,-1.8 -2.07,-2.79 -1.26,-0.99 -3.15,-1.62 -1.8,-0.72 -3.51,-0.72 z" />
    <path
       id="path16"
       d="m 75.539719,135.789 q -2.97,0 -5.22,1.44 -2.16,1.35 -3.33,4.23 l -0.36,1.26 -0.18,0.99 0,25.38 q 0,0.9 0.36,1.71 l 0.81,1.53 q 0.81,1.35 1.98,2.25 0.54,0.36 0.9,0.54 0.45,0.18 1.8,0.72 l 3.06,0.45 2.97,0.18 2.34,-0.09 q 1.08,0 1.89,-0.27 0.9,-0.36 1.62,-1.17 0.54,-0.81 0.54,-2.34 0,-1.26 -0.9,-2.43 -0.9,-1.17 -2.34,-1.17 l -6.48,0 q -0.54,0 -0.9,-0.72 l -0.27,-1.17 q 0,-1.26 1.17,-1.53 l 2.25,-0.36 q 2.97,-0.45 5.22,-2.61 2.25,-2.16 2.25,-5.31 l 0,-13.59 -0.18,-0.99 -0.36,-1.26 q -1.08,-2.79 -3.42,-4.23 -2.34,-1.44 -5.22,-1.44 z m 0,7.56 1.08,0.27 q 0.54,0.09 0.63,0.9 l 0,12.15 q 0,0.63 -0.72,0.99 l -1.08,0.18 -1.08,-0.27 q -0.54,-0.27 -0.54,-0.9 l 0,-12.33 q 0,-0.72 0.63,-0.81 l 1.08,-0.18 z" />
    <path
       id="path18"
       d="m 91.846594,135.699 q -1.44,0 -2.52,0.99 -1.08,0.81 -1.08,2.43 l 0,29.16 q 0,1.8 0.81,3.42 0.81,1.35 2.16,2.43 1.35,1.08 3.06,1.71 1.71,0.63 3.51,0.63 l 11.249996,0 q 1.62,0 3.15,-0.54 1.62,-0.63 2.79,-1.71 1.26,-1.17 1.98,-2.7 0.81,-1.53 0.81,-3.24 l 0,-29.7 q 0,-1.44 -1.08,-2.07 -1.08,-0.63 -2.52,-0.81 -1.17,0 -2.43,0.81 -1.17,0.72 -1.35,2.25 l 0,28.98 q 0,0.45 -0.81,0.9 l -1.17,0.27 q -0.81,-0.18 -1.26,-0.36 -0.36,-0.27 -0.36,-0.81 l 0,-28.8 q 0,-1.35 -1.17,-2.16 -1.08,-0.9 -2.52,-1.08 -1.08,0 -2.34,0.72 -1.259996,0.72 -1.349996,2.16 l 0,28.98 q 0,0.72 -0.72,1.08 l -1.17,0.27 -1.08,-0.18 q -0.45,-0.27 -0.63,-0.81 l 0,-28.35 q 0,-1.62 -1.17,-2.7 -1.08,-1.17 -2.79,-1.17 z" />
    <path
       id="path20"
       d="m 124.89347,152.529 q -1.35,0 -2.52,0.72 -1.08,0.72 -1.08,2.34 l 0,12.51 q 0,1.8 0.81,3.33 0.81,1.53 1.98,2.7 1.26,1.08 2.97,1.71 0.81,0.27 1.62,0.45 0.81,0.18 1.8,0.18 3.78,0 6.48,-2.52 2.79,-2.61 2.79,-6.57 l 0,-17.55 q 0,-2.25 -0.9,-3.69 -0.81,-1.53 -2.25,-2.61 -1.35,-1.08 -3.24,-1.62 -1.8,-0.54 -3.69,-0.81 l -0.63,-0.54 -0.36,-0.81 0,-17.28 q 0,-0.63 0.63,-0.99 l 1.26,-0.36 0.9,0.27 q 0.63,0.27 0.72,0.72 l 0,11.97 q 0,0.81 0.72,2.07 0.81,1.26 1.89,1.35 l 2.43,0 q 0.99,0 1.62,-1.17 0.72,-1.26 0.9,-2.43 l 0,-11.25 q 0,-4.05 -2.79,-6.57 -2.79,-2.52 -6.75,-2.52 -1.08,0 -1.62,0.09 -0.54,0.09 -1.89,0.63 -1.35,0.45 -2.61,1.71 -1.17,0.99 -2.07,2.61 -0.72,1.62 -0.72,3.33 l 0,19.17 q 0,1.89 0.81,3.24 0.9,1.26 2.52,2.43 l 3.24,1.44 3.33,0.72 q 0.45,0.18 0.54,0.36 l 0.36,0.54 0,18.09 q 0,0.54 -0.63,0.81 l -0.9,0.18 -1.26,-0.27 q -0.54,-0.27 -0.72,-1.08 l 0,-12.15 q 0,-1.53 -1.08,-2.07 -1.08,-0.63 -2.61,-0.81 z" />
    <path
       id="path22"
       d="m 174.333,135.789 q -3.51,0 -5.76,1.8 -2.25,1.8 -3.33,5.22 l -0.18,0.54 0,0.45 0,29.61 q 0,1.35 1.08,2.25 1.17,0.81 2.52,0.81 1.08,0 2.25,-0.72 1.26,-0.81 1.44,-2.34 l 0,-28.89 q 0,-0.63 0.63,-0.9 l 1.17,-0.27 1.08,0.18 q 0.54,0.09 0.72,0.81 l 0,28.71 q 0,1.44 1.17,2.52 1.17,0.72 2.7,0.9 1.17,0 2.25,-0.72 1.08,-0.72 1.26,-2.16 l 0.18,-28.71 q 0,-2.07 -0.72,-3.6 -0.63,-1.53 -1.89,-2.79 -1.26,-1.35 -3.06,-1.98 -1.71,-0.72 -3.51,-0.72 z" />
    <path
       id="path24"
       d="m 187.03566,167.289 q 0,4.05 2.61,6.66 2.7,2.52 6.57,2.52 3.42,0 6.12,-2.16 2.43,-2.16 2.97,-5.85 l 0,-1.35 0.09,-2.07 0,-2.16 0.09,-1.44 q 0,-3.33 -1.89,-5.49 -1.89,-2.16 -5.13,-3.24 l -1.71,-0.09 q -0.81,0 -1.53,-0.45 l -0.45,-0.45 -0.36,-0.54 0,-6.84 q 0,-0.54 0.63,-0.81 l 1.08,-0.18 q 0.99,0 1.53,0.9 l 0.63,1.8 q 0.36,1.08 0.9,1.89 0.63,0.81 2.52,0.81 1.71,0 2.61,-1.08 0.99,-1.17 0.99,-2.97 0,-3.78 -2.7,-6.3 -2.7,-2.61 -6.48,-2.61 -2.88,0 -5.13,1.44 -2.25,1.35 -3.42,4.23 l -0.36,1.26 -0.18,0.9 0,8.55 0.18,1.17 0.36,1.08 q 0.54,1.62 1.53,2.61 l 2.16,1.44 2.52,0.9 2.97,0.54 q 0.45,0.27 0.72,0.45 0.27,0.18 0.36,0.72 l 0,6.66 q 0,0.63 -0.72,0.99 l -1.17,0.18 q -0.9,0 -1.35,-0.81 l -0.54,-1.89 q -0.27,-0.99 -0.99,-1.8 -0.63,-0.9 -2.43,-0.9 -1.71,0 -2.7,1.08 -0.9,1.08 -0.9,2.7 z" />
    <use
       id="use26"
       x="0"
       y="0"
       xlink:href="#path16"
       transform="translate(76.816411,0)"
       width="100%"
       height="100%" />
    <use
       id="use28"
       height="100%"
       width="100%"
       transform="translate(142.55859,0)"
       xlink:href="#path16"
       y="0"
       x="0" />
  </g>
</svg>
