<?xml version="1.0" encoding="utf-8"?>
<!-- Generator: Adobe Illustrator 24.1.1, SVG Export Plug-In . SVG Version: 6.00 Build 0)  -->
<!DOCTYPE svg PUBLIC "-//W3C//DTD SVG 1.1//EN" "http://www.w3.org/Graphics/SVG/1.1/DTD/svg11.dtd" [
	<!ENTITY ns_extend "http://ns.adobe.com/Extensibility/1.0/">
	<!ENTITY ns_ai "http://ns.adobe.com/AdobeIllustrator/10.0/">
	<!ENTITY ns_graphs "http://ns.adobe.com/Graphs/1.0/">
	<!ENTITY ns_vars "http://ns.adobe.com/Variables/1.0/">
	<!ENTITY ns_imrep "http://ns.adobe.com/ImageReplacement/1.0/">
	<!ENTITY ns_sfw "http://ns.adobe.com/SaveForWeb/1.0/">
	<!ENTITY ns_custom "http://ns.adobe.com/GenericCustomNamespace/1.0/">
	<!ENTITY ns_adobe_xpath "http://ns.adobe.com/XPath/1.0/">
]>
<svg version="1.1" id="圖層_1" xmlns:x="&ns_extend;" xmlns:i="&ns_ai;" xmlns:graph="&ns_graphs;"
	 xmlns="http://www.w3.org/2000/svg" xmlns:xlink="http://www.w3.org/1999/xlink" x="0px" y="0px" width="1016.3209839px"
	 height="187.6119995px" viewBox="0 0 1016.3209839 187.6119995" style="enable-background:new 0 0 1016.3209839 187.6119995;"
	 xml:space="preserve">
<style type="text/css">
	.st0{fill:#1F69FF;}
	.st1{fill-rule:evenodd;clip-rule:evenodd;}
</style>
<metadata>
	<sfw  xmlns="&ns_sfw;">
		<slices></slices>
		<sliceSourceBounds  bottomLeftOrigin="true" height="187.6120148" width="1016.3248901" x="0" y="-0.0000032">
			</sliceSourceBounds>
	</sfw>
</metadata>
<g id="组_38834" transform="translate(0.14 -1.982)">
	<rect id="矩形_12770" x="791.7550049" y="166.9290009" class="st0" width="95.6760025" height="18.7210007"/>
	<g id="组_38833" transform="translate(-0.14 0.982)">
		<g id="组_38832" transform="translate(0 1.018)">
			<path id="路径_4933" class="st1" d="M994.111084,135.0559998
				c13.8054199-5.8740845,22.6115723-19.5964508,22.1999512-34.5940018c0-18.6233368-11.2790527-31.1413269-33.8369141-37.5540047
				l-18.8630371-5.5460014c-7.270752-2.097332-12.6020508-4.7179985-15.9938965-7.8619995
				c-3.2971191-2.9309235-5.1533203-7.1530838-5.0839844-11.5639992
				c-0.0002441-5.6726646,2.4333496-10.3899975,7.3000488-14.1519985s11-5.6436672,18.3999023-5.6450005
				c6.3049316-0.0987148,12.5026855,1.6362495,17.8400879,4.9939995c4.5839844,2.8629551,8.3398438,6.8745956,10.8950195,11.6369991
				c0.1640625,0.2999992,0.4697266,0.8516655,0.9169922,1.6549988c0.767334-0.4773331,1.2976074-0.8050003,1.5910645-0.9830017
				l13.4060059-8.133997c0.2419434-0.1473351,0.6828613-0.4450016,1.322998-0.8929996
				c-0.2666016-0.6513329-0.4743652-1.1266651-0.6230469-1.4260006
				c-3.7385254-7.5703869-9.6848145-13.8291159-17.0539551-17.9500008
				c-8.1401367-4.6873322-17.5727539-7.0309982-28.2973633-7.0309982
				c-8.3037109-0.1419183-16.5383301,1.5303336-24.1289063,4.9000001
				c-6.7570801,2.9872847-12.527832,7.8309402-16.6411133,13.9680004
				c-4.0368652,6.1472301-6.1306152,13.3668308-6.0090332,20.7199955c0,18.2533302,11.0332031,30.6479988,33.1000977,37.1840019
				l20.3391113,5.9209976c6.9040527,2.0966644,12.020752,4.7173233,15.3500977,7.8619995
				c3.2453613,2.9592743,5.0625,7.1705627,4.9890137,11.5619965c0.0830078,5.6407928-2.6557617,10.9506302-7.3000488,14.1529999
				c-4.8747559,3.6380005-11.1315918,5.4570007-18.7700195,5.4570007c-9.03125,0.0060654-17.8339844-2.8391418-25.1530762-8.1299973
				c-3.1159668-2.1550446-5.6582031-5.03862-7.4060059-8.4000015c-0.2451172-0.4820023-0.7546387-1.4486694-1.5280762-2.9000015
				c-1.3039551,0.6786652-2.2463379,1.1786652-2.8269043,1.5l-13.0119629,7.1399994
				c-0.237793,0.1333313-0.7121582,0.4156647-1.4221191,0.8470001c0.2766113,0.6720047,0.4938965,1.1699982,0.6508789,1.4940033
				c3.9047852,8.0306625,10.2946777,14.3973312,19.1708984,19.0999985
				c9.4311523,4.9946747,20.1867676,7.4916687,32.2661133,7.4909973c8.3249512,0.1617432,16.5866699-1.4790955,24.2180176-4.8099976
				L994.111084,135.0559998z"/>
			<path id="路径_4934" d="M754.7878418,39.359993l-3.6999512,0.0279999L732.987793,39.382988h-0.5581055l-0.6289063,1.6230011
				l-25.3999023,70.7429962l-25.3469238-70.6070099c-0.0710449-0.1999969-0.1999512-0.5870056-0.3710938-1.1529999
				l-0.177002-0.576004l-1.7539063-0.0209961h-21.9379883l1.2099609,2.9459991
				c0.1193848,0.2966614,0.2099609,0.5243378,0.2719727,0.6829987l37.0720215,96.4700394l-18.0161133,42.3349915
				c-0.1931152,0.4519958-0.5690918,1.2909851-1.1279297,2.5119934l-1.5129395,3.2170105l4.1950684,0.0390015h18.2810059
				l56.8859863-146.381012l0.7060547-1.8589935L754.7878418,39.359993z"/>
			<path id="路径_4935" d="M612.8481445,38.3439941c-6.6914063-0.1184692-13.2978516,1.5104828-19.1669922,4.7259979
				l-0.6999512,0.3999939c-4.2451172,2.469574-7.8547363,5.8966217-10.5410156,10.0079956l-0.2871094,0.4519958l-1.3369141-13
				H563.03125v98.3350067h21.4208984V82.9799957c0-7.4409943,2.1459961-13.3999939,6.4318848-17.923996
				s9.7939453-6.7700043,16.6000977-6.7700043c6.3068848,0,11.2900391,2.0639954,15.013916,6.1999969
				c3.7370605,4.1529999,5.6130371,9.75,5.6130371,16.8330078v57.946991h21.2370605V77.2489929
				c0.1369629-7.0568695-1.4492188-14.0406799-4.6210938-20.3460083
				c-2.890625-5.7171936-7.3625488-10.4838409-12.8840332-13.7330017c-5.7819824-3.2935944-12.347168-4.9615326-19-4.8269958
				L612.8481445,38.3439941z"/>
			<path id="路径_4936" d="M501.7180176,39.0159912c8.65625-0.1659851,17.194458,2.0263062,24.6999512,6.3419952
				c7.199585,4.2567902,13.038208,10.4755859,16.8330078,17.9290009c4.1416016,8.1669159,6.2182617,17.2245331,6.0479736,26.3800049
				c0,9.8779907-2.0158691,18.642334-6.0479736,26.2929993c-3.8155518,7.4143829-9.6513672,13.5976257-16.8330078,17.8350067
				c-7.5053711,4.3160706-16.0437012,6.5083923-24.6999512,6.3420105
				c-8.682373,0.1585083-17.2462158-2.0320129-24.7860107-6.3399963
				c-7.2211914-4.2180939-13.0908203-10.4067841-16.9210205-17.8410034
				c-4.0358887-7.6426697-6.052002-16.4069977-6.0479736-26.2929993c0-10,2.0159912-18.8246613,6.0479736-26.473999
				c3.8302002-7.4342194,9.6998291-13.6229095,16.9210205-17.8410034
				c7.5400391-4.3074646,16.1037598-6.4979706,24.7860107-6.3399963V39.0159912z M501.7180176,57.9569855
				c-7.9530029,0-14.3199463,2.8789978-19.1619873,8.654007c-4.8666992,5.8053284-7.3029785,13.4906616-7.30896,23.0559998
				c0,9.456665,2.4364014,17.081665,7.30896,22.875c4.8389893,5.776001,11.2080078,8.654007,19.1619873,8.654007
				c7.3303223,0.2286682,14.3487549-2.9707336,18.9840088-8.654007c4.8666992-5.80867,7.3027344-13.43367,7.3079834-22.875
				c-0.0001221-9.5753326-2.4359131-17.2606812-7.3079834-23.0559998
				C516.0667725,60.9277191,509.0483398,57.7283173,501.7180176,57.9569855z"/>
			<path id="路径_4937" d="M408.1759644,38.3529968c6.1724854,0.0171814,12.2231445,1.7186584,17.5,4.9210052
				c5.348999,3.3343201,9.6262207,8.1364746,12.3220215,13.8339996c2.8426514,5.9902039,4.3209229,12.5365143,4.3280029,19.1669922
				l0.0080566,0.9759979v62.0160065h-21.2340088V79.4669952c0-6.4669952-1.6929932-11.6000061-5.0649414-15.4499969
				c-3.3520508-3.8200073-7.9050293-5.7299957-13.7080078-5.7299957c-6.3139648,0-11.3900146,2.0670013-15.3000488,6.2129974
				c-3.7769775,4.0059967-5.7359619,9.2319946-5.8709717,15.723999l-0.0080566,0.7259979v58.3149872h-21.2369385V79.4649811
				c0-6.4649963-1.7220459-11.6000061-5.1529541-15.4449921c-3.4179688-3.8240051-8-5.7350006-13.80896-5.7350006
				c-5.6989746-0.2012482-11.208252,2.0627594-15.1190186,6.2129974c-3.7769775,4.0059967-5.7359619,9.2319946-5.8709717,15.723999
				l-0.0080566,0.7259979V139.26297h-21.4229736V40.9319916h18.0218506l1.1269531,12.723999l0.2550049-0.3999939
				c2.5461426-3.9634552,5.9580078-7.29776,9.9790039-9.7519989l0.6929932-0.4179993
				c5.4228516-3.1716766,11.6060791-4.809082,17.8879395-4.7369995c6.3182373-0.1026764,12.5332031,1.6090088,17.907959,4.9320068
				c4.8103027,3.0252686,8.7937012,7.1982574,11.592041,12.1439972l0.072998,0.1300049
				c2.7403564-4.9229126,6.7412109-9.0280304,11.592041-11.8939972l0.6820068-0.3999939
				c5.5272217-3.1482086,11.7653809-4.8366241,18.1259766-4.9060059l0.8620605-0.0090027l0.8620605,0.0090027
				L408.1759644,38.3529968z"/>
			<path id="路径_4938" d="M277.5029907,38.6809998c-6.2680664-0.1485443-12.4666748,1.3386383-17.9849854,4.3150024
				l-0.6619873,0.3829956c-3.8647461,2.2739258-7.1400757,5.4255676-9.5609741,9.1999969l-0.1820068,0.2910004l-1.1090088-11.552002
				h-19.7650757v98.3209991h21.6660156V82.7089996c0-7.2570038,2.2810059-12.9909973,6.8430176-17.2519989
				s10.7910156-6.4170074,18.7000122-6.4170074c2.4729004-0.0209351,4.9446411,0.1163483,7.4000244,0.4109955l0.6240234,0.1000061
				c0.2667236,0.052002,0.6000366,0.1186829,1,0.1999969l1.2919922,0.2779999l0.0469971-2.5
				c0.0039673-0.3106689,0.0059814-0.5496674,0.0059814-0.7169952V39.6689911l-0.6129761-0.1670074
				c-0.7059937-0.1933289-1.2330322-0.3200073-1.5809937-0.3800049c-2.024292-0.3194733-4.0717163-0.4693298-6.1209717-0.447998
				L277.5029907,38.6809998z"/>
			<path id="路径_4939" d="M170.480011,36.6729889c12.2799683,0,22.0606689,3.1533356,29.34198,9.4600067
				c7.1270142,6.1889954,10.7730103,14.8500061,10.9379883,25.9179993l0.0059814,0.7940063v65.9079895h-18l-1.335022-11.5
				l-0.3109741,0.4450073c-2.4200439,3.3328552-5.5274048,6.1073608-9.1119995,8.1359863l-0.7459717,0.4159851l-0.6779785,0.3569946
				c-5.7634277,2.7983704-12.1130371,4.1764526-18.5180054,4.0190125c-10.5333252,0-19.1259766-2.7763367-25.7780151-8.3289948
				c-6.6729736-5.5809937-10.0209961-12.8910065-10.0209961-21.8610077
				c-0.0982056-6.0986633,1.7591553-12.068512,5.2999878-17.0350037c3.7391357-5.1007233,8.805603-9.0783081,14.6480103-11.5
				c6.4626465-2.71521,13.4051514-4.1033783,20.414978-4.0819702l1.0499878-0.0079956H189.47995v-2.3500061
				c0-6.0599976-1.5469971-10.7140045-4.625-14.0110016l-0.3480225-0.3600006l-0.375-0.3619995
				c-3.574646-3.3333282-8.4973145-5.0050049-14.7680054-5.0149994c-4.7080078-0.0640869-9.3598633,1.0274658-13.5479736,3.1790009
				c-3.5614014,1.8605194-6.656189,4.5020142-9.0529785,7.727005l-0.1439819,0.1999969
				c-0.0869751,0.1289978-0.2000122,0.3000031-0.3280029,0.5l-0.4569702,0.7339935l-0.4710083,0.7689972l-1.8709717-1.378006
				l-0.4379883-0.3300018l-11.164978-8.4869995c-0.1806641-0.1373291-0.4519653-0.3543243-0.8140259-0.651001l-1.0079956-0.8339996
				l0.6359863-1.1529999c0.2390137-0.4199982,0.4329834-0.7380066,0.5869751-0.9600067
				c3.9482422-5.6190033,9.2617188-10.1406097,15.4400024-13.1389771c7.3961182-3.5821381,15.531311-5.3737488,23.7479858-5.2299957
				L170.480011,36.6729889z M188.480011,94.0589905h-20.2449951c-6.1867065,0-11.1616821,1.4393311-14.9249878,4.3179932
				c-3.5183716,2.4417114-5.6014404,6.4655151-5.5640259,10.7480011c-0.1314087,4.0904846,1.7803345,7.9784241,5.0999756,10.371994
				c3.4593506,2.624649,7.96698,3.9393311,13.5230103,3.9440002c7.1430054,0,12.7550049-2.1300049,16.8900146-6.3860016
				c4-4.1190033,6.0720215-9.4409943,6.210022-16.0119934l0.007019-0.7059937v-5.2830048
				c-0.0032959-0.5479889-0.4470215-0.991272-0.9949951-0.9940033L188.480011,94.0589905z"/>
			<path id="路径_4940" d="M22.6000004,1.6649933H0v138.5469971h22.6000004V79.0599976h67.348999v61.1519928h22.5999985V1.6649933
				H89.9489975v56.6599998h-67.348999V1.6649933z"/>
		</g>
		<path id="路径_4941" d="M839.2438965,0.9999933c-38.5605469,0.0000373-69.8200684,31.2595482-69.8198242,69.8200684
			c0,38.560524,31.2595215,69.8199844,69.8200684,69.8199387c38.5603027-0.0000305,69.8198242-31.2595139,69.8198242-69.8200073
			S877.8044434,0.9999936,839.2438965,0.9999942C839.2438965,0.9999942,839.2438965,0.9999942,839.2438965,0.9999933z
			 M839.2438965,121.1569901c-27.800293,0.0005875-50.3374023-22.5355759-50.3381348-50.3359375
			c-0.0004883-27.8003578,22.5356445-50.3374786,50.3359375-50.3380661
			c27.8005371-0.0005875,50.3376465,22.5355797,50.3381348,50.3359375c0,0.000351,0,0.0007095,0,0.0010605
			C889.579834,98.6199265,867.0439453,121.1564026,839.2438965,121.1569901z"/>
	</g>
</g>
</svg>
