<?xml version="1.0" encoding="UTF-8"?>
<!-- Created with Inkscape (http://www.inkscape.org/) -->
<svg version="1.1" viewBox="0 0 155.94 80.55" xmlns="http://www.w3.org/2000/svg">
 <g transform="translate(-.65 -.36)" fill="#005395">
  <g transform="matrix(2.6091 0 -.62919 2.3482 82.643 58.54)">
   <path d="m12.125-5.875c0 2-0.47656 3.5391-1.4219 4.6094-0.94922 1.0625-2.3125 1.5938-4.0938 1.5938-1.7422 0-3.0938-0.54688-4.0625-1.6406-0.96094-1.0938-1.4375-2.6133-1.4375-4.5625v-9.2344h3.0469v9.75c0 0.98047 0.20703 1.7188 0.625 2.2188 0.41406 0.5 1.0234 0.75 1.8281 0.75 0.84375 0 1.4609-0.24219 1.8594-0.73438 0.40625-0.48828 0.60938-1.2344 0.60938-2.2344v-9.75h3.0469z" fill="#005395"/>
  </g>
  <g transform="matrix(2.3482 0 -.62919 2.3482 118.21 58.54)">
   <path d="m12.453 0h-3.5l-2.7188-5.3281-2.7344 5.3281h-3.4531l4.4688-7.9219-4.3594-7.1875h3.4688l2.6719 4.9062 2.5625-4.9062h3.4375l-4.2969 7.1875z" fill="#005395"/>
  </g>
  <path d="m40.93 0.36c-0.60634 0-1.2119 0.018227-1.8124 0.041539l-8.238 22.644h7.1755c4.2677 0 6.5706 3.2875 5.1072 7.3044l-10.162 27.921h-8.5353l10.91-29.933h-6.4146l-10.907 29.933h-8.5353l12.82-35.226h0.0066l7.7132-21.198c-16.966 4.7457-29.408 20.312-29.408 38.787 0 19.024 13.194 34.963 30.93 39.179l7.4728-20.534h0.0066l13.181-36.234h15.72c4.2735 0 6.5691 3.2875 5.1116 7.3044l-8.9311 24.528c-0.67627 1.8656-2.8633 3.3931-4.8514 3.3931h-11.327l-8.2314 22.626c0.40228 0.0058 0.798 0.01312 1.2003 0.01312 22.242 0 40.274-18.034 40.274-40.276s-18.032-40.274-40.274-40.274zm17.56 27.646-8.9792 24.644h6.4146l8.977-24.644z"/>
 </g>
</svg>
