<?xml version="1.0" encoding="utf-8"?><!DOCTYPE svg PUBLIC "-//W3C//DTD SVG 1.1//EN" "http://www.w3.org/Graphics/SVG/1.1/DTD/svg11.dtd"><svg xmlns="http://www.w3.org/2000/svg" xml:space="preserve" width="66.667px" height="58.833px" x="0px" y="0px" version="1.1" viewBox="0 0 66.667 58.833"><path fill-rule="evenodd" d="M61.744 53.917h-1.83c-.08 0-.15.07-.15.15v.25c0 .08.07.149.15.149h.6v3.011c0 .08.061.149.15.149h.34c.08 0 .15-.069.15-.149v-3.011h.59c.08 0 .15-.069.15-.149v-.25c0-.08-.07-.15-.15-.15zm1.98 3.709h.189c.08 0 .13-.069.15-.149l.64-2.801v2.801c0 .08.069.149.149.149h.28c.08 0 .16-.069.16-.149v-3.41c0-.08-.069-.15-.16-.15h-.67c-.08 0-.13.07-.149.15l-.5 2.26-.49-2.26c-.02-.08-.07-.15-.15-.15h-.67c-.09 0-.16.07-.16.15v3.41c0 .08.07.149.16.149h.28a.153.153 0 0 0 .149-.149v-2.801l.641 2.801c.01.08.071.149.151.149zm-50.08-1.229c0 .68.55 1.229 1.22 1.229h4.91c.68 0 1.229-.55 1.229-1.229V33.096c0-.68-.55-1.229-1.229-1.229H9.354a.615.615 0 0 1-.62-.61v-3.68c0-.341.28-.61.62-.61h10.42c.68 0 1.229-.55 1.229-1.23v-23.3c0-.68-.55-1.229-1.229-1.229h-4.91c-.67 0-1.22.55-1.22 1.229v16.561a.62.62 0 0 1-.62.609h-3.67a.62.62 0 0 1-.62-.609V2.436c0-.68-.55-1.229-1.22-1.229h-4.91c-.681 0-1.23.55-1.23 1.229v53.961c0 .68.55 1.229 1.23 1.229h4.91c.67 0 1.22-.55 1.22-1.229V39.836c0-.34.28-.609.62-.609h3.68c.34 0 .61.27.61.609v16.561zm19.62 0V2.436c0-.68-.551-1.229-1.221-1.229h-4.91c-.68 0-1.229.55-1.229 1.229v53.961c0 .68.55 1.229 1.229 1.229h4.91c.67 0 1.221-.549 1.221-1.229zm12.27-47.221c0-.34.271-.61.61-.61h3.68c.34 0 .609.271.609.61v47.221c0 .68.551 1.229 1.23 1.229h4.9c.68 0 1.229-.55 1.229-1.229V2.436c0-.68-.55-1.229-1.229-1.229h-17.17c-.67 0-1.221.55-1.221 1.229v53.961c0 .68.551 1.229 1.221 1.229h4.91c.68 0 1.229-.55 1.229-1.229V9.176z" clip-rule="evenodd"/></svg>