<?xml version="1.0" standalone="no"?><!-- Generator: Gravit.io --><svg xmlns="http://www.w3.org/2000/svg" xmlns:xlink="http://www.w3.org/1999/xlink" style="isolation:isolate" viewBox="0 0 104 10" width="104" height="10"><defs><clipPath id="_clipPath_IWweQhD37usYss0xcks7VYPOa4qPOWa5"><rect width="104" height="10"/></clipPath></defs><g clip-path="url(#_clipPath_IWweQhD37usYss0xcks7VYPOa4qPOWa5)"><path d=" M 30.421 9.402 C 30.23 9.408 30.045 9.333 29.912 9.195 C 29.778 9.057 29.71 8.869 29.722 8.678 L 29.722 0.737 L 31.449 0.737 L 31.449 7.929 L 35.293 7.929 L 35.293 9.402 L 30.421 9.402 Z  M 40.474 9.402 L 40.474 0.737 L 42.213 0.737 L 42.213 9.402 L 40.474 9.402 Z  M 53.924 0.737 L 55.509 0.737 L 55.509 8.907 C 55.507 9.077 55.412 9.232 55.261 9.31 C 55.072 9.415 54.858 9.466 54.642 9.458 C 54.43 9.466 54.219 9.428 54.023 9.347 C 53.856 9.257 53.713 9.127 53.608 8.969 L 49.771 3.584 L 49.771 9.402 L 48.168 9.402 L 48.168 1.399 C 48.154 1.193 48.251 0.995 48.421 0.879 C 48.624 0.768 48.854 0.718 49.084 0.737 C 49.328 0.718 49.572 0.768 49.789 0.879 C 49.998 1.04 50.176 1.237 50.315 1.461 L 53.924 6.512 L 53.924 0.737 Z  M 67.189 2.197 L 63.215 2.197 L 63.215 4.24 L 66.793 4.24 L 66.793 5.701 L 63.215 5.701 L 63.215 7.886 L 67.078 7.886 L 67.078 9.402 L 61.476 9.402 L 61.476 1.461 C 61.464 1.267 61.545 1.079 61.692 0.953 C 61.835 0.826 62.021 0.757 62.212 0.761 L 67.164 0.761 L 67.189 2.197 Z  M 78.145 9.402 L 77.421 7.267 L 74.289 7.267 L 73.54 9.402 L 71.739 9.402 L 74.66 1.417 C 74.896 0.989 75.347 0.723 75.836 0.723 C 76.325 0.723 76.776 0.989 77.012 1.417 L 79.94 9.402 L 78.145 9.402 Z  M 74.765 5.806 L 76.926 5.806 L 75.836 2.594 L 74.765 5.806 Z  M 88.525 9.52 C 87.373 9.579 86.25 9.15 85.43 8.338 C 84.643 7.464 84.236 6.312 84.298 5.138 C 84.243 3.913 84.69 2.719 85.536 1.832 C 86.384 0.992 87.543 0.544 88.736 0.594 C 89.516 0.572 90.287 0.764 90.964 1.151 C 91.522 1.496 91.966 1.998 92.239 2.594 L 90.853 3.33 C 90.44 2.503 89.564 2.013 88.643 2.092 C 87.919 2.062 87.22 2.357 86.737 2.897 C 86.248 3.512 86.003 4.285 86.049 5.069 C 86.003 5.844 86.239 6.609 86.712 7.224 C 87.163 7.751 87.832 8.043 88.525 8.016 C 89.149 8.042 89.759 7.832 90.234 7.428 C 90.67 7.059 90.923 6.519 90.927 5.948 L 88.742 5.948 L 88.742 4.587 L 92.642 4.587 L 92.642 5.54 C 92.682 6.616 92.261 7.659 91.484 8.406 C 90.684 9.153 89.62 9.551 88.525 9.514 L 88.525 9.52 Z  M 104 2.222 L 100.026 2.222 L 100.026 4.265 L 103.604 4.265 L 103.604 5.726 L 100.026 5.726 L 100.026 7.911 L 103.889 7.911 L 103.889 9.402 L 98.287 9.402 L 98.287 1.461 C 98.275 1.267 98.356 1.079 98.503 0.953 C 98.648 0.811 98.845 0.733 99.048 0.737 L 104 0.737 L 104 2.222 Z " fill="rgb(22,124,128)"/><path d=" M 22.294 5.069 C 21.586 5.066 20.91 5.365 20.437 5.893 L 20.295 5.837 C 19.337 5.46 18.349 5.164 17.342 4.952 L 17.342 4.952 C 17.342 2.217 15.125 0 12.39 0 C 9.655 0 7.438 2.217 7.438 4.952 L 7.302 4.952 C 6.331 5.161 5.379 5.449 4.455 5.812 L 4.313 5.868 C 3.477 4.944 2.084 4.785 1.061 5.497 C 0.038 6.209 -0.295 7.571 0.282 8.675 C 0.859 9.78 2.167 10.283 3.336 9.851 C 4.505 9.418 5.17 8.184 4.888 6.97 L 4.888 6.97 C 5.75 6.632 6.638 6.365 7.544 6.171 C 8.072 8.405 10.067 9.983 12.362 9.983 C 14.658 9.983 16.653 8.405 17.181 6.171 C 18.086 6.363 18.974 6.628 19.837 6.964 L 19.837 6.964 C 19.59 7.985 20.015 9.05 20.896 9.622 C 21.777 10.194 22.923 10.147 23.755 9.506 C 24.587 8.865 24.924 7.768 24.595 6.771 C 24.267 5.773 23.344 5.091 22.294 5.069 Z  M 2.487 8.783 C 1.803 8.783 1.249 8.229 1.249 7.545 C 1.249 6.862 1.803 6.307 2.487 6.307 C 3.17 6.307 3.725 6.862 3.725 7.545 C 3.725 8.229 3.17 8.783 2.487 8.783 Z  M 12.39 8.783 C 10.339 8.783 8.676 7.121 8.676 5.069 C 8.676 3.018 10.339 1.356 12.39 1.356 C 14.441 1.356 16.104 3.018 16.104 5.069 C 16.104 7.121 14.441 8.783 12.39 8.783 Z  M 22.294 8.783 C 21.61 8.783 21.056 8.229 21.056 7.545 C 21.056 6.862 21.61 6.307 22.294 6.307 C 22.978 6.307 23.532 6.862 23.532 7.545 C 23.532 8.229 22.978 8.783 22.294 8.783 Z  M 14.247 5.069 C 14.247 6.095 13.416 6.926 12.39 6.926 C 11.365 6.926 10.533 6.095 10.533 5.069 C 10.533 4.044 11.365 3.213 12.39 3.213 C 13.416 3.213 14.247 4.044 14.247 5.069 Z " fill="rgb(22,124,128)"/></g></svg>