<?xml version="1.0" encoding="UTF-8"?>
<svg height="296.91" width="834" xmlns="http://www.w3.org/2000/svg">
 <metadata/>
 <g transform="translate(-95 -491.37)">
  <path d="m791 745.279c-4.97059 0-9-4.02943-9-9.00003 0-4.9705 4.02941-8.99993 9-8.99993 4.97048 0 9 4.02943 9 8.99993 0 4.9706-4.02952 9.00003-9 9.00003z" fill="#2397d4"/>
  <g fill="#2397d4" transform="translate(-.21 7)">
   <path d="m177.891 597.128h-.01c-6.6729 0-12.1071-5.42671-12.1142-12.095-.01-6.69051 5.42514-12.1253 12.1041-12.1324 6.68298 0 12.1162 5.42671 12.1243 12.095 0 6.69052-5.42512 12.1263-12.1041 12.1334z"/>
   <path d="m210.608 588.245c-6.23094 0-11.3025-5.06615-11.3066-11.2917-.01-6.24198 5.06123-11.3164 11.2963-11.3215 6.23916 0 11.3107 5.0651 11.3168 11.2906 0 6.24197-5.06224 11.3164-11.2963 11.3225h-.01z"/>
   <path d="m-10-15.7008a7 7 0 1 1 -14 0 7 7 0 1 1 14 0z" transform="matrix(1.44217 0 0 1.44217 215.72 578.6)"/>
   <path d="m94-16.5223a11.5 11.5 0 1 1 -23 0 11.5 11.5 0 1 1 23 0z" transform="matrix(.80761 0 0 .80761 140.73 552.34)"/>
   <path d="m11-37.5223a10.5 10.5 0 1 1 -21 0 10.5 10.5 0 1 1 21 0z" transform="matrix(.76916 0 0 .76916 187.19 551.3)"/>
  </g>
  <path d="m346 632.279c-24 0-42 18-42 42v40h12v-40c0-18 12-30 30-30s30 12 30 30v40h12v-40c0-18 12-30 30-30s30 12 30 30v40h12v-40c0-24-18-42-42-42-15.6653 0-28.7843 7.6868-36 19.6874-7.21572-12.0006-20.3347-19.6874-36-19.6874z" fill="#262f45"/>
  <path d="m521 632.279c-24 0-42 18-42 42s18 42 42 42c12 0 22.5-4.5 30-12v10h12v-40c0-24-18-42-42-42zm0 12c18 0 30 12 30 30s-12 30-30 30-30-12-30-30 12-30 30-30z" fill="#262f45"/>
  <path d="m725 632.279c-24 0-42 18-42 42s18 42 42 42v-12c-15.9076 0-27.1061-9.3968-29.5-24h71.125c.25558-1.9564.375-3.9482.375-6 0-24-18-42-42-42zm0 12c15.9076 0 27.1061 9.397 29.5 24h-59c2.39394-14.603 13.5924-24 29.5-24z" fill="#262f45"/>
  <path d="m785 634.279h12v80h-12z" fill="#262f45"/>
  <path d="m857 632.279c-24 0-42 18-42 42s18 42 42 42c12 0 22.5-4.5 30-12v10h12v-40c0-24-18-42-42-42zm0 12c18 0 30 12 30 30s-12 30-30 30-30-12-30-30 12-30 30-30z" fill="#262f45"/>
  <path d="m623 632.279c-24 0-42 18-42 42s18 42 42 42c12 0 22.5-4.5 30-12v12c0 18-12 30-30 30v12c24 0 42-18 42-42v-42c0-24-18-42-42-42zm0 12c18 0 30 12 30 30s-12 30-30 30-30-12-30-30 12-30 30-30z" fill="#262f45"/>
  <path d="m143.926 615.041c-10.4504 13.5455-18.9258 28.781-18.9258 47.2379 0 40.0063 30.3584 73 68 73 37.6404 0 68-32.9935 68-73 0-18.4605-8.48889-33.212-19.5302-47.2379-4.14024-4.34463-10.1176-3.69864-14.469-.91856-12.733 6.58855-19.6061 9.22094-34.0008 9.15646-13.922-.0624-21.2367-2.33602-33.9703-9.27735-4.35142-2.65919-10.9636-3.3052-15.1039 1.03943zm9.07419 11.2379c13.1983 7.29754 24.9691 11 40 11 15.0436 0 26.7949-3.70251 40-11 7.2055 10.1598 14 22.7579 14 36 0 32.8013-24.1753 59-54 59-29.8261 0-55-26.1985-55-59 0-13.2246 7.77879-25.8322 15-36z" fill="#262f45"/>
 </g>
</svg>
