<?xml version="1.0" encoding="utf-8"?>
<!DOCTYPE svg PUBLIC "-//W3C//DTD SVG 1.1//EN" "http://www.w3.org/Graphics/SVG/1.1/DTD/svg11.dtd">
<svg xmlns="http://www.w3.org/2000/svg" width="206.487px" height="67.706px" viewBox="137.227 42.791 206.487 67.706" xml:space="preserve">
<g fill="#58595B">
<path d="M188.409,50.299h-5.91c-0.361,0-0.689,0.211-0.836,0.542l-16.752,37.434L147.71,50.833
	c-0.149-0.326-0.473-0.534-0.831-0.534h-5.913c-0.241,0-0.478,0.098-0.646,0.27c-0.171,0.17-0.269,0.406-0.269,0.647v55.375
	c0,0.241,0.098,0.477,0.269,0.647c0.17,0.169,0.405,0.268,0.646,0.268h5.912c0.243,0,0.473-0.096,0.646-0.269
	c0.172-0.173,0.267-0.402,0.267-0.646V68.684l13.654,29.579c0.148,0.324,0.474,0.531,0.832,0.531h5.055
	c0.359,0,0.684-0.209,0.833-0.536l13.417-29.515v37.848c0,0.241,0.098,0.477,0.27,0.647c0.17,0.169,0.406,0.268,0.646,0.268h5.91
	c0.246,0,0.475-0.096,0.649-0.269c0.172-0.173,0.267-0.402,0.267-0.646V51.215c0-0.241-0.096-0.477-0.267-0.647
	C188.887,50.397,188.652,50.299,188.409,50.299z"/>
<path d="M210.02,66.943c-5.085-0.01-9.335,1.926-12.213,5.503c-2.885,3.569-4.414,8.687-4.414,15.012
	c0,6.907,1.688,12.057,4.808,15.489c3.119,3.438,7.602,5.034,12.831,5.024c0.049,0,0.099,0,0.149,0c6.633,0,10.583-2.22,14.5-6.178
	c0.177-0.179,0.274-0.426,0.266-0.678c-0.008-0.253-0.123-0.493-0.312-0.658l-3.81-3.346c-0.363-0.318-0.91-0.3-1.253,0.042
	c-2.979,2.936-5.137,4.053-9.384,4.087c-3.462-0.009-5.961-1.111-7.681-3.137c-1.588-1.873-2.53-4.641-2.665-8.254h24.889
	c0.241,0,0.475-0.097,0.647-0.267c0.17-0.172,0.27-0.408,0.27-0.648V86.37c0-5.831-1.497-10.681-4.366-14.102
	C219.416,68.841,215.177,66.935,210.02,66.943z M200.878,83.819c0.146-2.38,0.322-3.319,1.045-5.115
	c1.333-3.146,4.395-5.18,8.097-5.187c3.703,0.007,6.763,2.041,8.101,5.197l0,0c0.718,1.788,0.896,2.729,1.042,5.104H200.878z"/>
<path d="M246.457,66.944c-5.085-0.01-9.333,1.925-12.213,5.502c-2.885,3.571-4.413,8.687-4.414,15.013
	c0,6.906,1.688,12.056,4.809,15.49c3.119,3.437,7.602,5.031,12.831,5.023c0.047,0.002,0.096,0.002,0.144,0.002
	c6.635,0,10.586-2.223,14.5-6.18c0.181-0.183,0.277-0.424,0.268-0.679c-0.008-0.254-0.118-0.491-0.31-0.658l-3.812-3.346
	c-0.362-0.317-0.908-0.3-1.252,0.042c-2.977,2.935-5.136,4.054-9.382,4.088c-3.462-0.01-5.961-1.112-7.681-3.138
	c-1.587-1.873-2.529-4.641-2.665-8.254h24.889c0.245,0,0.475-0.094,0.647-0.269c0.173-0.171,0.268-0.401,0.268-0.646V86.37
	c0-5.83-1.497-10.681-4.364-14.102C255.851,68.841,251.612,66.935,246.457,66.944z M237.314,83.819
	c0.146-2.38,0.323-3.319,1.045-5.115c1.333-3.146,4.397-5.18,8.097-5.186c3.702,0.006,6.762,2.041,8.102,5.197l0,0
	c0.717,1.788,0.896,2.729,1.039,5.104H237.314L237.314,83.819z M255.402,78.358L255.402,78.358L255.402,78.358L255.402,78.358z"/>
</g>
<g fill="#562A7A">
<path d="M305.843,76.666h-19.521c-0.241,0-0.477,0.098-0.647,0.267c-0.17,0.171-0.269,0.406-0.269,0.65v5.208
	c0,0.242,0.099,0.477,0.269,0.649c0.171,0.168,0.406,0.267,0.647,0.267h12.694v3.285c-0.012,4.17-0.804,6.899-2.9,9.448
	c-2.375,2.879-5.993,4.413-9.794,4.413c-3.424,0.001-6.689-1.315-8.909-3.61c-1.641-1.694-2.489-3.291-3.015-6.015
	c-0.515-2.722-0.618-6.542-0.617-12.326c-0.001-5.784,0.103-9.583,0.617-12.283c0.522-2.705,1.371-4.281,3.013-5.975
	c2.229-2.306,5.503-3.693,8.911-3.692c6.519,0.037,11.039,3.897,12.56,10.561c0.094,0.418,0.467,0.717,0.895,0.717h5.912
	c0.269,0,0.525-0.12,0.697-0.325c0.175-0.205,0.249-0.479,0.204-0.743c-1.654-10.089-9.269-17.362-20.268-17.329
	c-5.747-0.007-10.906,2.119-14.803,6.023c-2.728,2.711-4.147,5.616-4.812,9.229c-0.674,3.616-0.664,7.944-0.666,13.816
	c0.002,5.872-0.008,10.202,0.666,13.819c0.665,3.612,2.085,6.518,4.812,9.229c3.902,3.908,9.131,6.026,14.803,6.022
	c0.005,0,0.009,0,0.017,0c5.903,0,11.374-2.284,15.429-6.668v0.001c3.608-3.834,5.007-8.45,4.991-14.936v-8.788
	c0-0.244-0.099-0.479-0.268-0.65C306.321,76.763,306.086,76.666,305.843,76.666z"/>
<path d="M336.774,102.703l0.654,0.641c4.151-4.245,4.928-9.918,4.927-15.885c0.001-5.969-0.775-11.641-4.927-15.887
	c-2.808-2.812-6.729-4.635-11.621-4.629c-4.893-0.006-8.815,1.817-11.614,4.623c-4.161,4.252-4.935,9.924-4.935,15.893
	c0,5.967,0.772,11.64,4.928,15.885c2.806,2.812,6.728,4.637,11.621,4.628c0.009,0,0.018,0,0.025,0c4.88,0,8.795-1.822,11.588-4.623
	L336.774,102.703L336.774,102.703L336.774,102.703z M334.924,87.459c0.021,4.26-0.307,8.772-2.767,11.173
	c-1.61,1.609-3.855,2.53-6.351,2.532c-2.497-0.003-4.654-0.914-6.276-2.53c-2.465-2.412-2.861-6.928-2.843-11.175
	c-0.019-4.248,0.378-8.765,2.843-11.176c1.622-1.617,3.779-2.529,6.276-2.532c2.494,0.002,4.74,0.923,6.351,2.532
	C334.618,78.686,334.945,83.198,334.924,87.459z"/>
</g>
</svg>