<?xml version="1.0" encoding="utf-8"?>
<!-- Generator: Adobe Illustrator 26.4.1, SVG Export Plug-In . SVG Version: 6.00 Build 0)  -->
<svg version="1.1" id="Layer_1" xmlns="http://www.w3.org/2000/svg" xmlns:xlink="http://www.w3.org/1999/xlink" x="0px" y="0px"
	 viewBox="0 0 4058 459.9" style="enable-background:new 0 0 4058 459.9;" xml:space="preserve">
<style type="text/css">
	.st0{fill:none;}
	.st1{fill:#1C2B33;}
	.st2{fill:url(#SVGID_1_);}
	.st3{fill:url(#SVGID_00000125598180478593946280000002728778240658940293_);}
	.st4{fill:url(#SVGID_00000119828154632531865550000014479451863295368600_);}
	.st5{fill:url(#SVGID_00000167369579946180322220000014271448528226065549_);}
	.st6{fill:url(#SVGID_00000020382505714071403350000005778633225733533595_);}
	.st7{fill:url(#SVGID_00000127025581711508764570000008826364897121432210_);}
	.st8{fill:#0082FB;}
	.st9{fill:url(#SVGID_00000074406645033320476070000005534204813680796592_);}
	.st10{fill:url(#SVGID_00000076565258822452904230000015299154275978847894_);}
	.st11{fill:url(#SVGID_00000011720962778048087050000006231211496346849410_);}
	.st12{fill:url(#SVGID_00000139990642547617793500000014892824400943897529_);}
	.st13{fill:url(#SVGID_00000095323223337495535540000012644458630040469928_);}
	.st14{fill:url(#SVGID_00000054224333388864019420000005213591505512133296_);}
	.st15{fill:url(#SVGID_00000000218937231814822250000006853858695259436691_);}
</style>
<g id="Artboard_outline">
	<rect x="-378.1" y="-373.6" class="st0" width="4811.6" height="1203.4"/>
</g>
<g id="Lockup">
	<g>
		<g>
			<path class="st1" d="M739.5,52.6h75.9l129,233.4l129-233.4h74.2v383.5h-61.9V142.2L972.6,345.7h-58.1L801.4,142.2v293.9h-61.9
				V52.6z"/>
			<path class="st1" d="M1347.3,443c-28.7,0-53.9-6.3-75.6-19c-21.5-12.5-39.1-30.8-50.8-52.7c-12.1-22.5-18.2-48.2-18.2-77.2
				c0-29.4,5.9-55.4,17.8-78.1c11.9-22.6,28.4-40.4,49.4-53.1c21.1-12.8,45.3-19.2,72.7-19.2c27.2,0,50.6,6.4,70.3,19.3
				c19.6,12.9,34.7,30.9,45.3,54.1c10.6,23.2,15.9,50.4,15.9,81.6v17h-210.1c3.8,23.4,13.3,41.8,28.3,55.2
				c15.1,13.4,34.1,20.1,57.1,20.1c18.4,0,34.3-2.7,47.7-8.2c13.3-5.5,25.8-13.8,37.5-24.9l32.9,40.3
				C1434.9,428,1394.8,443,1347.3,443z M1392.5,215.5c-13-13.2-30-19.9-50.9-19.9c-20.5,0-37.6,6.8-51.4,20.3
				c-13.8,13.5-22.5,31.7-26.2,54.5h150.7C1412.9,247,1405.5,228.7,1392.5,215.5L1392.5,215.5z"/>
			<path class="st1" d="M1549.2,201.1h-57v-50.7h57V66.6h59.7v83.8h86.6v50.7h-86.6v128.5c0,21.4,3.7,36.6,11,45.7
				c7.3,9.1,19.8,13.7,37.5,13.7c6.7,0.1,13.4-0.3,20-1c5.5-0.6,11.5-1.5,18.1-2.6v50.1c-7.5,2.2-15.1,3.8-22.9,4.9
				c-8.8,1.3-17.8,1.9-26.7,1.9c-64.5,0-96.7-35.2-96.7-105.7L1549.2,201.1z"/>
			<path class="st1" d="M2006.7,436.1H1948v-40c-10.1,14.7-23.8,26.6-39.7,34.7c-16.1,8.1-34.3,12.2-54.8,12.2
				c-25.2,0-47.5-6.4-67-19.3c-19.5-12.9-34.7-30.6-45.9-53.1c-11.1-22.6-16.7-48.3-16.7-77.4c0-29.2,5.7-55.1,17-77.5
				c11.3-22.5,27-40.1,47-52.9c20-12.8,43-19.2,68.9-19.2c19.5,0,37.1,3.8,52.6,11.4c15.3,7.4,28.6,18.5,38.6,32.2v-36.7h58.6V436.1
				z M1946.9,250.4c-6.4-16.3-16.5-29.1-30.3-38.5c-13.8-9.4-29.7-14.1-47.8-14.1c-25.6,0-45.9,8.6-61.1,25.7
				c-15.2,17.2-22.7,40.4-22.7,69.6c0,29.4,7.3,52.7,21.9,69.8c14.6,17.2,34.4,25.7,59.4,25.7c18.4,0,34.9-4.7,49.3-14.2
				c14.2-9.2,25.1-22.6,31.2-38.3L1946.9,250.4z"/>
			<path class="st1" d="M2152.1,52.6h63.5v161.1h195.9V52.6h63.5v383.5h-63.5V272.6h-195.9v163.5h-63.5V52.6z"/>
			<path class="st1" d="M2547,371.5c-12.3-22.5-18.5-48.5-18.5-78.1c0-29.8,6.2-55.9,18.5-78.3c11.9-22,29.7-40.2,51.5-52.6
				c22-12.6,47.5-18.9,76.6-18.9c29,0,54.6,6.3,76.6,18.9c21.8,12.4,39.6,30.6,51.5,52.6c12.3,22.5,18.5,48.6,18.5,78.3
				c0,29.6-6.2,55.6-18.5,78.1c-11.9,22-29.7,40.2-51.5,52.6c-22,12.6-47.5,18.9-76.6,18.9c-28.9,0-54.3-6.3-76.4-18.9
				C2576.8,411.7,2558.9,393.5,2547,371.5z M2760.5,293.4c0-28.7-7.8-51.7-23.4-69c-15.6-17.3-36.3-26-62-26c-25.7,0-46.4,8.7-62,26
				c-15.6,17.3-23.4,40.4-23.4,69c0,28.5,7.8,51.4,23.4,68.8c15.6,17.3,36.3,26,62,26c25.7,0,46.4-8.7,62-26
				C2752.7,344.8,2760.5,321.9,2760.5,293.4z"/>
			<path class="st1" d="M2872,150.4h58.9v43.8c18.4-32,43.6-47.9,75.6-47.9c10.4,0,18.9,0.9,25.5,2.7v55.1c-9-1.3-18-1.9-27.1-1.9
				c-35.8,0-60.2,16.1-73.1,48.2v185.7H2872L2872,150.4z"/>
			<path class="st1" d="M3077.1,102.1c-7.3-7.2-11-16.4-11-27.5c0-11.3,3.7-20.5,11-27.7c7.3-7.1,16.7-10.7,28.2-10.7
				c11.5,0,20.9,3.6,28.2,10.7c7.3,7.1,11,16.3,11,27.7c0,11.1-3.7,20.3-11,27.5c-7.3,7.2-16.7,10.8-28.2,10.8
				C3093.8,112.9,3084.4,109.3,3077.1,102.1z M3075.5,150.4h59.7v285.7h-59.7V150.4z"/>
			<path class="st1" d="M3264.7,385.4h163v50.7h-236.9v-48.2L3351,201.1h-154.8v-50.7H3425v47.9L3264.7,385.4z"/>
			<path class="st1" d="M3469,371.5c-12.3-22.5-18.5-48.5-18.5-78.1c0-29.8,6.2-55.9,18.5-78.3c11.9-22,29.7-40.2,51.5-52.6
				c22-12.6,47.5-18.9,76.6-18.9c29,0,54.6,6.3,76.6,18.9c21.8,12.4,39.6,30.6,51.5,52.6c12.3,22.5,18.5,48.6,18.5,78.3
				c0,29.6-6.2,55.6-18.5,78.1c-11.9,22-29.7,40.2-51.5,52.6c-22,12.6-47.5,18.9-76.6,18.9c-28.9,0-54.3-6.3-76.4-18.9
				C3498.8,411.7,3480.9,393.5,3469,371.5z M3682.5,293.4c0-28.7-7.8-51.7-23.4-69c-15.6-17.3-36.3-26-62-26c-25.7,0-46.4,8.7-62,26
				c-15.6,17.3-23.4,40.4-23.4,69c0,28.5,7.8,51.4,23.4,68.8s36.3,26,62,26c25.7,0,46.4-8.7,62-26
				C3674.7,344.8,3682.5,321.9,3682.5,293.4z"/>
			<path class="st1" d="M3794,150.4h58.9V192c22.1-32.3,52.9-48.5,92.3-48.5c34,0,60.1,10.6,78.3,31.8
				c18.3,21.2,27.4,51.5,27.4,90.9v169.8h-59.7V273.4c0-26.7-4.7-46.3-14.2-58.9c-9.5-12.6-24.4-18.9-44.7-18.9
				c-17.7,0-33.3,4.6-46.8,13.7c-13.5,9.1-24.1,21.9-31.8,38.3v188.5H3794L3794,150.4z"/>
		</g>
		<g>
			
				<linearGradient id="SVGID_1_" gradientUnits="userSpaceOnUse" x1="346.8372" y1="210.7" x2="210.8293" y2="388.9176" gradientTransform="matrix(1 0 0 -1 0 456.7153)">
				<stop  offset="6.000000e-04" style="stop-color:#0867DF"/>
				<stop  offset="0.4539" style="stop-color:#0668E1"/>
				<stop  offset="0.8591" style="stop-color:#0064E0"/>
			</linearGradient>
			<path class="st2" d="M178.9,39.6c-0.2,0-0.4,0-0.6,0l-0.8,65.9c0.2,0,0.4,0,0.5,0l0,0c43.4,0,77.1,34.2,150.3,157.5l4.5,7.5
				l0.3,0.5l41-61.5l-0.3-0.5l0,0c-9.6-15.7-18.9-30.1-27.8-43.3c-10.3-15.3-20.2-28.9-29.7-41.1C267.9,63.1,227.4,39.6,178.9,39.6z
				"/>
			
				<linearGradient id="SVGID_00000070080323268976033750000011736026454975545774_" gradientUnits="userSpaceOnUse" x1="82.0578" y1="326.1482" x2="175.2997" y2="396.9367" gradientTransform="matrix(1 0 0 -1 0 456.7153)">
				<stop  offset="0.1323" style="stop-color:#0064DF"/>
				<stop  offset="0.9988" style="stop-color:#0064E0"/>
			</linearGradient>
			<path style="fill:url(#SVGID_00000070080323268976033750000011736026454975545774_);" d="M178.3,39.6
				c-48.7,0.3-91.7,31.7-122.8,79.9c-0.1,0.1-0.2,0.3-0.3,0.4l57.1,31.1c0.1-0.1,0.2-0.3,0.3-0.4c18.1-27.3,40.7-44.8,65-45
				c0.2,0,0.4,0,0.5,0l0.8-65.9C178.7,39.6,178.5,39.6,178.3,39.6z"/>
			
				<linearGradient id="SVGID_00000105427637009631452770000010169925377408983222_" gradientUnits="userSpaceOnUse" x1="42.5363" y1="222.269" x2="79.939" y2="316.4231" gradientTransform="matrix(1 0 0 -1 0 456.7153)">
				<stop  offset="1.470000e-02" style="stop-color:#0072EC"/>
				<stop  offset="0.6881" style="stop-color:#0064DF"/>
			</linearGradient>
			<path style="fill:url(#SVGID_00000105427637009631452770000010169925377408983222_);" d="M55.5,119.5c-0.1,0.1-0.2,0.3-0.3,0.4
				c-20.4,31.8-35.6,70.8-43.9,112.9c0,0.2-0.1,0.4-0.1,0.5l64.1,15.1c0-0.2,0.1-0.4,0.1-0.5c6.9-37,19.9-71.3,36.8-97
				c0.1-0.1,0.2-0.3,0.3-0.4L55.5,119.5z"/>
			
				<linearGradient id="SVGID_00000088117245374392584490000005507201742158637702_" gradientUnits="userSpaceOnUse" x1="37.4574" y1="154.251" x2="41.7851" y2="211.7534" gradientTransform="matrix(1 0 0 -1 0 456.7153)">
				<stop  offset="7.310000e-02" style="stop-color:#007CF6"/>
				<stop  offset="0.9943" style="stop-color:#0072EC"/>
			</linearGradient>
			<path style="fill:url(#SVGID_00000088117245374392584490000005507201742158637702_);" d="M75.5,247.9l-64.1-15.1
				c0,0.2-0.1,0.4-0.1,0.5c-4.5,23.1-6.8,46.7-6.8,70.2c0,0.2,0,0.4,0,0.6l65.7,5.9c0-0.2,0-0.4,0-0.6c0-1.4,0-2.8,0-4.2
				c0-19.1,1.8-38.1,5.2-56.8C75.4,248.3,75.4,248.1,75.5,247.9z"/>
			
				<linearGradient id="SVGID_00000144339880660296093580000005343926072635463607_" gradientUnits="userSpaceOnUse" x1="39.847" y1="123.0177" x2="36.7513" y2="146.056" gradientTransform="matrix(1 0 0 -1 0 456.7153)">
				<stop  offset="7.310000e-02" style="stop-color:#007FF9"/>
				<stop  offset="1" style="stop-color:#007CF6"/>
			</linearGradient>
			<path style="fill:url(#SVGID_00000144339880660296093580000005343926072635463607_);" d="M72.2,330.5c-1.2-6.8-1.8-13.6-2-20.5
				c0-0.2,0-0.4,0-0.6l-65.7-5.9c0,0.2,0,0.4,0,0.6v0c-0.1,13.8,1.1,27.5,3.6,41.1c0,0.2,0.1,0.4,0.1,0.5l64.1-14.8
				C72.3,330.9,72.2,330.7,72.2,330.5z"/>
			
				<linearGradient id="SVGID_00000154388104022254890410000008585922242400878491_" gradientUnits="userSpaceOnUse" x1="38.0198" y1="116.9647" x2="57.3123" y2="76.0454" gradientTransform="matrix(1 0 0 -1 0 456.7153)">
				<stop  offset="7.310000e-02" style="stop-color:#007FF9"/>
				<stop  offset="1" style="stop-color:#0082FB"/>
			</linearGradient>
			<path style="fill:url(#SVGID_00000154388104022254890410000008585922242400878491_);" d="M87.2,364.6
				c-7.2-7.8-12.2-19.1-14.9-33.5c0-0.2-0.1-0.4-0.1-0.5L8.1,345.3c0,0.2,0.1,0.4,0.1,0.5c4.8,25.4,14.4,46.7,28,62.7
				c0.1,0.1,0.2,0.3,0.4,0.4l51.1-44C87.4,364.8,87.3,364.7,87.2,364.6z"/>
			<path class="st8" d="M277.2,182.1c-38.6,59.3-62.1,96.5-62.1,96.5c-51.5,80.7-69.3,98.8-97.9,98.8c-12,0-22-4.3-29.6-12.4
				c-0.1-0.1-0.3-0.3-0.4-0.4l-51,44c0.1,0.1,0.2,0.3,0.4,0.4c18.8,21.9,45.3,34.1,78.2,34.1c49.7,0,85.4-23.4,148.9-134.4
				c0,0,26.5-46.7,44.7-78.9C296.9,211.5,286.6,195.7,277.2,182.1z"/>
			
				<linearGradient id="SVGID_00000026123297474712177050000015904370419498655142_" gradientUnits="userSpaceOnUse" x1="334.5428" y1="314.9556" x2="360.0482" y2="350.2308" gradientTransform="matrix(1 0 0 -1 0 456.7153)">
				<stop  offset="0.2799" style="stop-color:#007FF8"/>
				<stop  offset="0.9141" style="stop-color:#0082FB"/>
			</linearGradient>
			<path style="fill:url(#SVGID_00000026123297474712177050000015904370419498655142_);" d="M346,88.6c-0.1,0.1-0.3,0.3-0.4,0.4
				c-10.5,11.3-20.3,23.2-29.4,35.7c9.6,12.2,19.4,25.8,29.7,41.1c12.1-18.7,23.5-33.9,34.6-45.6c0.1-0.1,0.3-0.3,0.4-0.4L346,88.6z
				"/>
			<path class="st8" d="M533.6,82.8c-26.9-27.2-59.1-43.2-93.4-43.2c-36.2,0-66.7,19.9-94.2,49c-0.1,0.1-0.3,0.3-0.4,0.4l35,31.2
				c0.1-0.1,0.3-0.3,0.4-0.4c18.1-18.8,35.6-28.2,55-28.2h0c20.9,0,40.5,9.8,57.4,27.1c0.1,0.1,0.3,0.3,0.4,0.4L534,83.2
				C533.9,83,533.8,82.9,533.6,82.8z"/>
			
				<linearGradient id="SVGID_00000015344983418840778940000011030556484497518746_" gradientUnits="userSpaceOnUse" x1="528.4619" y1="360.6738" x2="581.8192" y2="164.3951" gradientTransform="matrix(1 0 0 -1 0 456.7153)">
				<stop  offset="0" style="stop-color:#0082FB"/>
				<stop  offset="0.9995" style="stop-color:#0081FA"/>
			</linearGradient>
			<path style="fill:url(#SVGID_00000015344983418840778940000011030556484497518746_);" d="M611.6,294.9
				C610,207.5,579.5,129.3,534,83.2c-0.1-0.1-0.3-0.3-0.4-0.4l-40.2,35.9c0.1,0.1,0.3,0.3,0.4,0.4c34.2,35.1,57.6,100.4,59.7,175.8
				c0,0.2,0,0.4,0,0.6l58,0C611.6,295.3,611.6,295.1,611.6,294.9z"/>
			
				<linearGradient id="SVGID_00000070111013760727912640000013875947572511565721_" gradientUnits="userSpaceOnUse" x1="594.7012" y1="156.8863" x2="560.9333" y2="88.6477" gradientTransform="matrix(1 0 0 -1 0 456.7153)">
				<stop  offset="6.190000e-02" style="stop-color:#0081FA"/>
				<stop  offset="1" style="stop-color:#0080F9"/>
			</linearGradient>
			<path style="fill:url(#SVGID_00000070111013760727912640000013875947572511565721_);" d="M611.6,295.5c0-0.2,0-0.4,0-0.6l-58,0
				c0,0.2,0,0.4,0,0.6c0.1,3.5,0.1,7.1,0.1,10.7c0,20.6-3.1,37.2-9.3,49.2c-0.1,0.2-0.2,0.4-0.3,0.5l43.2,45
				c0.1-0.2,0.2-0.3,0.3-0.5c15.7-24.2,23.9-57.9,23.9-98.6C611.6,299.6,611.6,297.5,611.6,295.5z"/>
			
				<linearGradient id="SVGID_00000000188405602481281830000005869508651476937356_" gradientUnits="userSpaceOnUse" x1="534.0878" y1="52.4809" x2="565.6533" y2="73.9801" gradientTransform="matrix(1 0 0 -1 0 456.7153)">
				<stop  offset="0" style="stop-color:#027AF3"/>
				<stop  offset="1" style="stop-color:#0080F9"/>
			</linearGradient>
			<path style="fill:url(#SVGID_00000000188405602481281830000005869508651476937356_);" d="M544.4,355.3c-0.1,0.2-0.2,0.4-0.3,0.5
				c-5.4,10.1-13.1,16.9-23.2,19.8l19.7,62.1c2.6-0.9,5.1-1.9,7.6-3c0.7-0.3,1.5-0.7,2.2-1c0.4-0.2,0.8-0.4,1.3-0.6
				c13.1-6.6,24.5-16.4,32.9-28.4c0.5-0.8,1.1-1.5,1.6-2.3c0.4-0.5,0.7-1.1,1.1-1.7c0.1-0.2,0.2-0.3,0.3-0.5L544.4,355.3z"/>
			
				<linearGradient id="SVGID_00000106866898880549284440000013217147932078194343_" gradientUnits="userSpaceOnUse" x1="484.5894" y1="48.267" x2="528.4528" y2="48.267" gradientTransform="matrix(1 0 0 -1 0 456.7153)">
				<stop  offset="0" style="stop-color:#0377EF"/>
				<stop  offset="0.9994" style="stop-color:#0279F1"/>
			</linearGradient>
			<path style="fill:url(#SVGID_00000106866898880549284440000013217147932078194343_);" d="M508.4,377.4
				c-6.2,0.1-12.4-1.1-18.1-3.5l-20.2,63.6c11.3,3.9,23.4,5.6,36.9,5.6c11.6,0.1,23.2-1.7,34.2-5.4l-19.7-62.1
				C517.2,376.8,512.8,377.4,508.4,377.4z"/>
			
				<linearGradient id="SVGID_00000041273193188426406720000008555005905352721072_" gradientUnits="userSpaceOnUse" x1="446.4547" y1="72.4264" x2="477.9893" y2="53.8738" gradientTransform="matrix(1 0 0 -1 0 456.7153)">
				<stop  offset="1.900000e-03" style="stop-color:#0471E9"/>
				<stop  offset="1" style="stop-color:#0377EF"/>
			</linearGradient>
			<path style="fill:url(#SVGID_00000041273193188426406720000008555005905352721072_);" d="M468,355.6c-0.1-0.1-0.2-0.3-0.4-0.4
				l-46.4,48.3c0.1,0.1,0.3,0.3,0.4,0.4c16.1,17.2,31.5,27.9,49,33.7l20.2-63.5C483.4,370.9,476.3,365.2,468,355.6z"/>
			
				<linearGradient id="SVGID_00000126321534873187214050000011935689783116716175_" gradientUnits="userSpaceOnUse" x1="350.261" y1="209.2277" x2="451.278" y2="82.2184" gradientTransform="matrix(1 0 0 -1 0 456.7153)">
				<stop  offset="0.2765" style="stop-color:#0867DF"/>
				<stop  offset="1" style="stop-color:#0471E9"/>
			</linearGradient>
			<path style="fill:url(#SVGID_00000126321534873187214050000011935689783116716175_);" d="M467.6,355.2
				c-13.9-16.2-31.2-43.2-58.3-86.8l-35.3-58.9l-0.3-0.5l0,0l-41,61.4l0,0l0,0l0.3,0.5l25,42.1c24.3,40.6,44,69.9,63.1,90.4
				c0.1,0.1,0.3,0.3,0.4,0.4l46.4-48.3C467.9,355.5,467.8,355.3,467.6,355.2z"/>
		</g>
	</g>
</g>
</svg>
