<?xml version="1.0" encoding="UTF-8"?>
<svg width="938" height="238" inkscape:version="1.0.2 (e86c870879, 2021-01-15)" sodipodi:docname="OpenVZ-logo.svg" version="1.1" viewBox="0 0 938 238" xmlns="http://www.w3.org/2000/svg" xmlns:cc="http://creativecommons.org/ns#" xmlns:dc="http://purl.org/dc/elements/1.1/" xmlns:inkscape="http://www.inkscape.org/namespaces/inkscape" xmlns:rdf="http://www.w3.org/1999/02/22-rdf-syntax-ns#" xmlns:sodipodi="http://sodipodi.sourceforge.net/DTD/sodipodi-0.dtd">
 <metadata>
  <rdf:RDF>
   <cc:Work rdf:about="">
    <dc:format>image/svg+xml</dc:format>
    <dc:type rdf:resource="http://purl.org/dc/dcmitype/StillImage"/>
    <dc:title/>
   </cc:Work>
  </rdf:RDF>
 </metadata>
 <sodipodi:namedview bordercolor="#666666" borderopacity="1" gridtolerance="10" guidetolerance="10" inkscape:current-layer="g825" inkscape:cx="-127.32099" inkscape:cy="163.51405" inkscape:document-rotation="0" inkscape:pageopacity="0" inkscape:pageshadow="2" inkscape:window-height="1014" inkscape:window-maximized="1" inkscape:window-width="1920" inkscape:window-x="0" inkscape:window-y="36" inkscape:zoom="0.16584594" objecttolerance="10" pagecolor="#ffffff" showgrid="false"/>
 <g transform="matrix(.997 0 0 1 .000281 1.51)">
  <path d="m410 219c-1.25-3.26.116-4.95 5.01-6.2 8.67-2.21 8.06 1.52 8.38-51.4.27-45.6.222-47-1.69-48.9-1.08-1.08-3.69-2.26-5.78-2.61-5.86-.976-6.31-1.24-6.31-3.82 0-4.1.471-4.23 26.3-7.4 4.58-.564 6.73.99 6.73 4.87 0 1.58.229 2.88.509 2.88s2.34-1.32 4.57-2.94c6.53-4.73 12.8-6.35 22.8-5.87 7.45.361 9.51.884 15 3.8 10.8 5.76 16.8 14.8 19.9 29.7 3.99 19.5-4.68 39.7-20.9 48.4-6.16 3.34-6.62 3.43-17.8 3.43-10.5 0-12-.25-17.4-2.75-3.23-1.51-6.04-2.75-6.25-2.75-.209 0-.379 6.32-.379 14 0 16.9.833 19.3 7.26 21 6.82 1.74 6.9 1.8 6.56 4.73l-.317 2.76-22.8.269c-19.2.227-22.9.0409-23.3-1.19zm62.6-47.5c8.73-4.46 14.1-15.8 14.1-29.9 0-13.7-4.38-25.2-11.7-30.8-2.93-2.23-4.9-2.83-10.3-3.14-7.89-.446-12.3 1.39-18.3 7.56l-3.77 3.9.269 23.9.269 23.9 6.34 3.28c7.8 4.04 16.8 4.54 23.1 1.31zm-149 10.9c-9.52-2.49-17.7-6.93-25.1-13.6-7.75-7.01-12.8-14.8-16.5-25.3-2.57-7.35-2.99-10-3.02-19-.0525-17.4 5.54-31.1 17.6-43.1 27.2-27.2 74.2-22.5 94.9 9.44 9.44 14.6 12 36.7 6.14 53.9-9.64 28.6-43.4 45.8-74.1 37.7zm30.4-11.1c10.8-4.05 19.2-14.7 22.9-29.3 3.54-13.9 1.25-36.2-4.97-48.5-11-21.7-40.3-26.3-57.6-9.04-8.99 8.98-13.1 21.3-13 39.5.0141 17.3 3.5 28.8 11.7 38.3 9.49 11.1 26 14.7 41 9.09zm192 10.8c-9.94-3.28-16.1-7.84-21.5-15.9-8.21-12.3-10.4-28.5-5.57-42.1 3.85-10.9 10.2-18 20.6-23 6.09-2.95 7.2-3.15 17.5-3.15 9.95 0 11.6.266 17 2.8 11.7 5.45 19.7 16.2 19.9 26.7l.103 5.5-57 1 .117 7.7c.306 20.1 10.2 31.8 26.7 31.8 8.72 0 14.8-3.03 20.2-10.1 3.99-5.23 5.07-5.71 7.99-3.58 1.32.967 1.66 2.06 1.2 3.88-1.04 4.16-9.09 12.2-15.8 15.8-5.88 3.16-7.03 3.41-16.8 3.66-6.7.169-11.9-.212-14.5-1.05zm28.5-60.2c0-3.77-3.52-9.98-7.11-12.5-3.44-2.45-10.7-3.56-16.3-2.51-6.23 1.17-11.4 6.89-13 14.3l-.7 3.25h37.2zm27.7 59.9c-1.1-1.1-.788-4.85.515-6.15.66-.66 2.49-1.2 4.08-1.2 1.85 0 3.92-1.05 5.8-2.92l2.92-2.92v-26.5c0-26.1-.0381-26.6-2.25-29.1-1.46-1.67-3.8-2.84-6.65-3.32-5.02-.84-7.22-3.22-5.49-5.96.815-1.29 3.54-2.05 10.5-2.92 5.17-.649 11.8-1.51 14.8-1.91 6.39-.867 8.1.564 8.1 6.77 0 2.09.205 3.81.456 3.81.251 0 3.05-1.82 6.22-4.04 8.34-5.84 17.3-8.31 28.1-7.76 12.5.635 18.9 4.33 22.9 13.3 1.51 3.41 1.81 7.75 2.09 30 .179 14.6.77 27.1 1.35 28.6 1.11 2.83 4.6 4.88 8.32 4.88 2.95 0 4.82 2.22 4.4 5.19l-.327 2.31h-46l-.33-2.89c-.377-3.3 1.05-4.57 5.16-4.59 1.78-.01 3.91-1.1 5.75-2.94l2.92-2.92v-25.7c0-29-.4-31-6.74-34-7.06-3.35-20.8.513-30.5 8.58l-3.75 3.12v23.4c0 15 .398 24.3 1.11 25.8 1.23 2.69 4.73 4.66 8.31 4.66 2.95 0 4.82 2.22 4.4 5.19l-.327 2.31-22.6.268c-12.4.148-22.9-.0399-23.2-.417zm160-.15c-.664-.422-9.77-21.6-20.2-47-10.5-25.4-20.1-48.4-21.4-51-3.13-6.18-5.42-8.14-11.3-9.63-4.6-1.17-4.83-1.4-4.83-4.67v-3.43l23.5-.282c12.9-.155 24.5-.034 25.8.269 1.68.412 2.25 1.27 2.25 3.42 0 3.02-1.44 4.09-5.53 4.09-6.59 0-9.64 4.27-7.66 10.7 2.94 9.58 28.7 74.2 29.3 73.6 1.63-1.77 28.9-72.7 28.9-75.1 0-5.21-2.95-7.5-12.3-9.58-2.46-.546-2.77-1.02-2.5-3.84l.311-3.22h22.4c20.2 0 22.5.168 23.5 1.75 1.62 2.58-.35 5.05-4.76 5.97-5.99 1.24-9.39 3.52-12.1 8.1-1.39 2.37-11.3 25.6-22.1 51.7-10.8 26.1-20.1 47.8-20.8 48.2-1.57.996-8.85.998-10.4.003zm68.3-1.42c-.856-1.22-1.56-3.06-1.56-4.08s16.9-23.2 37.6-49.4c20.7-26.1 37.8-48.1 38.1-48.8.742-1.93-2.94-2.51-16.1-2.51-19.8-.003-27.9 3.12-40.2 15.6-4.52 4.59-8.87 8.34-9.67 8.34-2.79 0-4.62-1.23-4.62-3.12 0-2.74 10.7-29.1 12.2-30.1.694-.441 19.6-.808 42-.817l40.7-.0153 1.56 2.22c.856 1.22 1.56 3.15 1.56 4.28 0 1.2-16 22.3-38.1 50.4-29.2 37-37.8 48.5-36.8 49.2 2.32 1.47 29.9 1.06 38.6-.573 15.1-2.86 27.7-11.4 33.4-22.7 2.06-4.05 4.88-4.96 7.43-2.42 1.57 1.57 1.81.531-4.98 21.1-2.54 7.68-5.16 14.3-5.83 14.7-.668.424-22 .778-47.4.787l-46.2.0153z" fill="#040404" inkscape:connector-curvature="0" sodipodi:nodetypes="sssssssssssssssssssscssssssscccsssssssssssssssssssssssscccsssssssssssscccssssscssssssssssssssscccscscssscsssscsscsssscssssssssscssssssccsssssssssscsssssssssscs"/>
  <path d="m73.4 231c-3.53-.455-11.1-1.32-16.9-1.92-28.3-2.96-45.3-13.3-45.3-27.6 0-11 13.4-27.3 35.2-42.9l11-7.79 2.7-11.4c7.96-33.6 26.2-75.4 45.7-105 8.92-13.3 22.9-27.9 30.3-31.6 2.71-1.34 5.08-2.77 5.26-3.17.181-.406 2.97-.739 6.19-.739 6.59 0 11.4 2.36 16.1 7.92 7.25 8.6 12.4 26.6 14 48.7l.71 9.85 14.5 14.8c53.4 54.5 86.7 122 70.3 142-4.47 5.6-11.3 8.76-19.1 8.85-3.63.044-6.88-.363-7.22-.905-.336-.542-1.67-.985-2.97-.985-3.95 0-18.1-4.84-30.9-10.6l-12.2-5.45-10.1 3.07c-13 3.97-29.3 7.43-46.6 9.92-12 1.73-21.9 2.64-48.4 4.47-3.26.225-8.81.0365-12.3-.418zm48.9-12.3c25.8-3.08 52.1-8.81 52.6-11.5.206-1.07-3.77-3.95-12.8-9.32-7.22-4.27-14.3-8.29-15.7-8.93-1.44-.636-4.32-2.69-6.42-4.55-7.22-6.44-6.64-6.53-19.2 2.77-13.5 9.98-28.5 17.8-37.2 19.4-11.5 2.09-19.7-1.86-24.5-11.8-2.29-4.76-2.82-7.4-3.28-16.5-.674-13.1-1.28-13.6-10-6.84-15.1 11.6-25.7 25.4-24.2 31.3 2.14 8.52 16.3 14.6 40.4 17.4 10.1 1.17 45.3.3 60.4-1.49zm131 .406c9.64-7.56 2.53-33.7-18.8-69.2-15.8-26.3-49.6-67.1-54-65.4-1.35.516-1.56 3.2-1.56 19.7 0 10.5-.45 21.5-1 24.4-1.22 6.44-.576 7.22 9.39 11.3 40.8 16.5 54.5 35.7 38.4 53.6-3.98 4.42-6.09 6.04-16.1 12.4l-4.38 2.77 2.15 1.74c2.24 1.81 15.9 7.03 24.4 9.33 2.71.735 8.1 1.36 12 1.4 5.65.0522 7.53-.329 9.6-1.96zm-50.7-21.1c22-11.4 25.4-21.3 11-32.6-10.4-8.24-34.8-20-37.2-18-.61.502-1.64 3.68-2.3 7.05-1.8 9.25-5.74 20.4-9.1 25.6-1.65 2.58-2.77 5.28-2.48 6.02.429 1.12 13 8.58 24.9 14.8 4.4 2.29 5.79 2.04 15.2-2.83zm-112-3.88c3.26-1.44 8.14-4 10.9-5.7 7.8-4.87 21.2-14.9 21.2-15.8 0-.468-4.34-5.14-9.64-10.4-6.45-6.38-10.7-11.6-12.9-15.7-1.79-3.39-3.9-6.16-4.68-6.16-2.74 0-28.2 15.8-29 18-.438 1.18-1.08 5.7-1.43 10-1.07 13.4 1.84 24.6 7.14 27.6 3.59 2.04 11.1 1.22 18.4-1.99zm66.8-20.9c4.45-8.23 8.45-23.8 5.86-22.8-2.39.929-19.9 18.5-19.9 19.9 0 2.76 1.88 5.5 5.17 7.49 3.91 2.37 5.54 1.53 8.86-4.61zm-30.8-14.8c.0131-3.2-6.56-25.6-7.8-26.6-2.22-1.8-11.3.546-12.3 3.18-.956 2.49 3.28 9.4 10.2 16.7 6.3 6.62 9.83 9.04 9.84 6.75zm21.7-8.18c4.99-4.9 7.96-8.57 7.76-9.6-.358-1.85-15.7-6.93-21.3-7.03-3.92-.0753-4.02.864-1.22 11.8 2.66 10.4 3.63 12.8 5.27 12.8.759 0 5.02-3.57 9.46-7.94zm-62.2-16.3c17.3-9.71 19.3-10.7 25.7-13.3l5.31-2.15-.701-7.46c-2.96-31.5-2.46-41.9 2.54-52.1 2.35-4.81 4.11-6.92 7.64-9.19 4.32-2.77 5.05-2.92 12.6-2.56 7.2.348 8.98.866 17.3 5.02 5.09 2.55 9.58 4.62 9.99 4.62 2.43-.0376-1.07-22.8-5.19-33.8-2.4-6.39-7.23-12.1-11.1-13-4.67-1.17-13.1 3.61-21.5 12.2-18.9 19.4-42.9 65-54.8 104-3.66 12.1-4.14 15.2-2.34 15.2.615 0 7.17-3.39 14.6-7.54zm81.2-7.85c4.59-10.4-3.74-12.7-24.1-6.79-6.8 1.97-7.32 3.94-1.44 5.46 2.31.598 7.53 2.12 11.6 3.39 11 3.4 11.6 3.31 14-2.06zm-13.9-19c3.92-.606 7.99-.828 9.04-.493 1.06.335 3 .339 4.32.009l2.4-.6v-33.3l-4.2-3.38c-9.56-7.72-20.1-12.6-27.2-12.8-5.4-.0874-9.34 3.44-11.7 10.5-2.92 8.6-1.58 43.9 1.75 46 .577.356 4.97-.58 9.77-2.08 4.79-1.5 11.9-3.22 15.8-3.83z" fill="#015e31" stroke-width=".986" inkscape:connector-curvature="0" sodipodi:nodetypes="sssscssssssscsssssscssssssssssssssssssssssssscsssssssssssssssssssssssssssssssssssssssscsssssssssssssssssssccccssssss"/>
 </g>
</svg>
