<svg xmlns="http://www.w3.org/2000/svg" xml:space="preserve" width="728" height="503" viewBox="0 0 728 503"><path d="m67.498 109.401 30.458 21.006C165.959 28.736 335.649-8.445 441.02 118.334l29.528-23.383c-129.94-153.056-329.855-99.843-403.05 14.45ZM67.116 393.793l30.833-21.007c69.121 105.585 250.533 139.134 352.376.012l30.404 21.257c-118.102 162.912-331.03 125.709-413.613-.262Z" style="fill:#244e8b;fill-opacity:1;stroke:#244c8a;stroke-width:.5;stroke-dasharray:none;stroke-opacity:1" transform="translate(.655 -.1)"/><path d="M157.64 166.77c-7.9-.057-15.426 2.938-19 8.972-.058.1-.32-.231-.41-.596-1.063-3.267-3.17-6.957-6.193-7.175-3.13-.226-8.91-.142-13.82-.168-.57-.003-1.07.333-1.12.789l-.308 205.414c6.38 7.621 14.634 15.088 23.482 22.709l.041-77.15c.013-.194.09-.334.393-.28 8.627 9.773 26.317 12.005 36.951-.738 3.19-4.557 6.633-10.034 7.7-18.723-.119-20.6.017-45.818.087-68.87.045-14.76.181-28.38-.529-39.085-.442-6.665-3.19-12.026-6.021-15.758-5.076-6.177-13.352-9.285-21.252-9.341zm-4.27 16.843c4.53.398 8.46 3.619 8.151 10.162l.024 104.329c-1.745 8.569-6.217 10.234-10.633 9.552-5.944-.917-10.34-6.005-10.353-13.955.005-32.906-.258-65.791.109-98.697.063-7.75 6.877-11.902 12.701-11.39z" style="fill:#000102;fill-opacity:1;stroke:#000;stroke-width:.5;stroke-linejoin:miter;stroke-dasharray:none;stroke-opacity:1" transform="translate(.655 -.1)"/><path d="M236.186 166.14c-15.522-.25-31.423 8.462-32.498 26.887v23.791l15.37.078c2.194-1.032 4.76-1.012 5.794-5.33l.308-19.234c2.124-9.107 18.456-10.284 17.998 4.248.152 9.222.221 14.983.309 24.332-34.215 13.196-40.191 27.082-41.016 41.092l-.232 37.771c1.117 31.317 30.304 33.105 42.176 19.852 1.666 2.826 3.014 5.824 7.26 7.262l15.062-.155-.309-133.707c.443-17.424-14.7-26.636-30.222-26.886zm8.285 73.233v.541l-.077 52.834c-.656 24.275-20.71 18.879-19.93 5.174l.155-35.299c.961-9.502 4.416-18.233 19.852-23.25zM276.835 119.339c.353-.386.412-.773 1.622-1.159l31.979.155c.825.412.741.357 1.081 1.158l-.077 206.16c-.167.424.079.811-.927 1.312l-23.095-.077c-.657-.384-.765-.847-.85-1.313l.177-185.017c0-1.176-2.064-1.48-2.419-1.456l-6.332-.066c-.426-.276-.824-.618-1.004-1.468zM330.672 168.39c.055-.598.377-.778.719-.926l16.201.231c3.211.226 4.606 3.85 5.575 6.72.138.19.336.456.418.357 8.317-10.093 29.936-13.053 38.96 2.996.343-.116.728-.144.952-.489 9.11-14.098 45.473-20.111 50.19 19.659L444.125 326c-.069.35-.26.454-.444.576l-23.431.049a1.322 1.322 0 0 1-.491-1.025l-.009-130.475c-.859-12.717-19.82-13.202-19.95 3.263.025 43.732.327 83.564.12 127.36-.27.924-.8.934-1.294 1.066L376 326.75c-.572-.326-.674-.76-.693-1.326l.09-129.889c-1.453-14.367-19.76-12.66-20.037 2.875l-.11 127.278c.041.562-.208.978-.666 1.29l-23.203-.064c-.537-.202-.68-.587-.678-1.039z" style="fill:#000102;fill-opacity:1;stroke:#000;stroke-width:.5;stroke-dasharray:none;stroke-opacity:1" transform="translate(.655 -.1)"/><path d="M530.688 112.93c-18.137.063-36.328 9.301-38.385 26.103-2.363 47.854-.134 111.238-.508 159.752 1.428 39.325 73.454 41.602 77.44.904-.23-53.162 1.184-105.047-.49-157.824-1.84-19.889-19.921-28.999-38.057-28.935zm-.198 20.285c7.264-.097 14.513 4.222 13.762 14.262l-.09 147.474c1.162 18.483-28.396 18.293-27.576.576l.045-150.084c-.685-7.62 6.595-12.131 13.86-12.228z" class="UnoptimicedTransforms" style="fill:#244e8b;fill-opacity:1;stroke:#244c8a;stroke-width:.5;stroke-linejoin:miter;stroke-dasharray:none;stroke-opacity:1" transform="translate(.655 -.1)"/><path d="M635.998 171.164c.125 1.09.525 1.633 1.15 1.724l23.422.176c.7-.231.696-.816.752-1.37.03-11.737.229-23.019-.479-34.644-2.617-32.626-66.505-32.15-69.656 1.575l-.125 38.875c2.949 15.712 11.61 23.81 40.02 69.112 2.097 3.346 5.53 10.222 5.543 14.013l.125 38.938c-1.216 10.987-21.734 15.216-22.188-4.125l.25-28.875c.004-.41-.57-.88-1.25-.875l-23.062.125c-.57.113-.93.365-1 .812l.25 33c-.549 37.651 66.756 40.468 72.062 2.313L661.625 257c-1.006-17.311-32.246-54.173-42.273-73.704-2.7-5.258-3.366-9.77-3.414-15.358-.01-11.512.236-16.341.375-28 2.677-9.983 18.069-7.851 19.312-.313z" style="fill:#244e8b;fill-opacity:1;stroke:#244c8a;stroke-width:.5;stroke-linejoin:miter;stroke-dasharray:none;stroke-opacity:1" transform="translate(.655 -.1)"/></svg>