<svg width="112" height="40" fill="none" xmlns="http://www.w3.org/2000/svg"><g clip-path="url(#a)" fill="#000"><path d="M17.756 4.017C8.92 3.608 1.428 10.431 1.018 19.26c-.41 8.827 6.418 16.315 15.253 16.724 8.834.409 16.327-6.414 16.737-15.242.41-8.826-6.42-16.313-15.252-16.724Zm-.19 4.075c6.583.305 11.671 5.884 11.365 12.462a11.868 11.868 0 0 1-1.333 4.953l-7.456-9.463a116.587 116.587 0 0 0-.319-.404 11.97 11.97 0 0 0-9.158-4.359l-.095-.001c-.625 0-1.24.049-1.838.14a11.892 11.892 0 0 1 8.835-3.328ZM16.46 31.91c-6.583-.305-11.671-5.884-11.365-12.461.054-1.158.272-2.269.63-3.313l.062-.046a8.096 8.096 0 0 1 11.147 1.516l5.55 7.038 2.975 3.777a11.907 11.907 0 0 1-9 3.49Z"/><path d="M12.124 20.984c.017-.026.033-.051.048-.078l.03-.057c.021-.04.04-.08.058-.12l.01-.021a1.846 1.846 0 0 0-3.123-1.892l-.02.023a1.645 1.645 0 0 0-.076.102 1.46 1.46 0 0 0-.142.239l-.015.034c-.114.24-.18.506-.18.788a1.847 1.847 0 0 0 3.41.982ZM66.035 18.162V29.61h4.188v-19.2h-4.188v7.753ZM101.147 10.146a9.856 9.856 0 0 0-9.223 6.375 9.805 9.805 0 0 0-.631 3.47 9.835 9.835 0 0 0 1.191 4.697 9.853 9.853 0 0 0 8.662 5.147c5.442 0 9.854-4.407 9.854-9.845 0-5.437-4.411-9.844-9.853-9.844Zm0 15.754a5.91 5.91 0 0 1-5.913-5.909 5.91 5.91 0 0 1 5.913-5.908 5.91 5.91 0 1 1 0 11.817ZM55.647 10.422c-.15-.01-.915-.014-1.067-.014H44.11V29.61h4.065v-4.431h6.405c.148 0 .913-.005 1.06-.013a7.39 7.39 0 0 0 6.947-7.372c0-.07-.003-.14-.005-.21a7.39 7.39 0 0 0-6.935-7.161Zm-.008 10.79c-.145.018-.662.028-.812.028h-6.65v-6.893h6.65c.147 0 .663.01.805.027a3.448 3.448 0 0 1 .007 6.838ZM77.674 20.005c.004-4.819 5.21-7.961 10.42-4.543l2.326-2.951c-6.879-5.37-16.74-1.067-16.75 7.488v.012c.01 8.555 9.871 12.86 16.75 7.489l-2.326-2.952c-5.21 3.419-10.416.275-10.42-4.543Z"/></g><defs><clipPath id="a"><path fill="#fff" transform="translate(1 4)" d="M0 0h110v32H0z"/></clipPath></defs></svg>