<?xml version="1.0" encoding="UTF-8" standalone="no"?>
<!-- Created with Inkscape (http://www.inkscape.org/) -->
<svg
   xmlns:dc="http://purl.org/dc/elements/1.1/"
   xmlns:cc="http://web.resource.org/cc/"
   xmlns:rdf="http://www.w3.org/1999/02/22-rdf-syntax-ns#"
   xmlns:svg="http://www.w3.org/2000/svg"
   xmlns="http://www.w3.org/2000/svg"
   xmlns:sodipodi="http://sodipodi.sourceforge.net/DTD/sodipodi-0.dtd"
   xmlns:inkscape="http://www.inkscape.org/namespaces/inkscape"
   width="753.13306"
   height="231.06007"
   id="svg4237"
   sodipodi:version="0.32"
   inkscape:version="0.44"
   version="1.0"
   sodipodi:docbase="F:\Logos"
   sodipodi:docname="PlaystationPortable.svg">
  <defs
     id="defs4239"><clipPath
   clip-rule="nonzero"
   id="clp2">
<path
   id="path5264"
   d="M 234.2,0.1382 L 5879.3,0.1382 L 5879.3,7919 L 234.2,7919 L 234.2,0.1382 z " />

</clipPath>
<clipPath
   clip-rule="nonzero"
   id="clp3">
<path
   id="path5273"
   d="M 234.06,0 L 5879.3,0 L 5879.3,7919 L 234.06,7919 L 234.06,0 z " />

</clipPath>
<clipPath
   clip-rule="nonzero"
   id="clp4">
<path
   id="path5282"
   d="M 437.5,278.39 L 1028,278.39 L 1028,456.94 L 437.5,456.94 L 437.5,278.39 z " />

</clipPath>
<clipPath
   clip-rule="nonzero"
   id="clp5">
<path
   id="path5291"
   d="M 234.06,0 L 5879.3,0 L 5879.3,7919 L 234.06,7919 L 234.06,0 z " />

</clipPath>
<clipPath
   clip-rule="nonzero"
   id="clp6">
<path
   id="path5330"
   d="M 437.5,278.39 L 1028,278.39 L 1028,456.94 L 437.5,456.94 L 437.5,278.39 z " />

</clipPath>
<clipPath
   clip-rule="nonzero"
   id="clp7">
<path
   id="path5341"
   d="M 234.06,0 L 5879.3,0 L 5879.3,7919 L 234.06,7919 L 234.06,0 z " />

</clipPath>
<clipPath
   clip-rule="nonzero"
   id="clp8">
<path
   id="path5418"
   d="M 4026.3,282.71 L 4726.1,282.71 L 4726.1,453.09 L 4026.3,453.09 L 4026.3,282.71 z " />

</clipPath>
<clipPath
   clip-rule="nonzero"
   id="clp9">
<path
   id="path5427"
   d="M 234.06,0 L 5879.3,0 L 5879.3,7919 L 234.06,7919 L 234.06,0 z " />

</clipPath>
<clipPath
   clip-rule="nonzero"
   id="clp10">
<path
   id="path5476"
   d="M 2444.9,428.65 L 2444.9,306.69 L 2950.9,306.69 L 2950.9,428.65" />

</clipPath>
<clipPath
   clip-rule="nonzero"
   id="clp11">
<path
   id="path5485"
   d="M 234.06,0 L 5879.3,0 L 5879.3,7919 L 234.06,7919 L 234.06,0 z " />

</clipPath>
<clipPath
   clip-rule="nonzero"
   id="clp12">
<path
   id="path5496"
   d="M 2444.9,428.65 L 2444.9,306.69 L 2950.9,306.69 L 2950.9,428.65" />

</clipPath>
<clipPath
   clip-rule="nonzero"
   id="clp13">
<path
   id="path5505"
   d="M 234.06,0 L 5879.3,0 L 5879.3,7919 L 234.06,7919 L 234.06,0 z " />

</clipPath>
<clipPath
   clip-rule="nonzero"
   id="clp14">
<path
   id="path5514"
   d="M 2444.9,428.65 L 2444.9,306.69 L 2950.9,306.69 L 2950.9,428.65" />

</clipPath>
<clipPath
   clip-rule="nonzero"
   id="clp15">
<path
   id="path5523"
   d="M 234.06,0 L 5879.3,0 L 5879.3,7919 L 234.06,7919 L 234.06,0 z " />

</clipPath>





























<clipPath
   clip-rule="nonzero"
   id="clipPath5767">
<path
   id="path5769"
   d="M 234.2,0.1382 L 5879.3,0.1382 L 5879.3,7919 L 234.2,7919 L 234.2,0.1382 z " />

</clipPath>



<clipPath
   clip-rule="nonzero"
   id="clipPath5775">
<path
   id="path5777"
   d="M 234.06,0 L 5879.3,0 L 5879.3,7919 L 234.06,7919 L 234.06,0 z " />

</clipPath>



<clipPath
   clip-rule="nonzero"
   id="clipPath5783">
<path
   id="path5785"
   d="M 437.5,278.39 L 1028,278.39 L 1028,456.94 L 437.5,456.94 L 437.5,278.39 z " />

</clipPath>



<clipPath
   clip-rule="nonzero"
   id="clipPath5791">
<path
   id="path5793"
   d="M 234.06,0 L 5879.3,0 L 5879.3,7919 L 234.06,7919 L 234.06,0 z " />

</clipPath>



<clipPath
   clip-rule="nonzero"
   id="clipPath5814">
<path
   id="path5816"
   d="M 437.5,278.39 L 1028,278.39 L 1028,456.94 L 437.5,456.94 L 437.5,278.39 z " />

</clipPath>



<clipPath
   clip-rule="nonzero"
   id="clipPath5823">
<path
   id="path5825"
   d="M 234.06,0 L 5879.3,0 L 5879.3,7919 L 234.06,7919 L 234.06,0 z " />

</clipPath>



<clipPath
   clip-rule="nonzero"
   id="clipPath5865">
<path
   id="path5867"
   d="M 4026.3,282.71 L 4726.1,282.71 L 4726.1,453.09 L 4026.3,453.09 L 4026.3,282.71 z " />

</clipPath>



<clipPath
   clip-rule="nonzero"
   id="clipPath5873">
<path
   id="path5875"
   d="M 234.06,0 L 5879.3,0 L 5879.3,7919 L 234.06,7919 L 234.06,0 z " />

</clipPath>



<clipPath
   clip-rule="nonzero"
   id="clipPath5901">
<path
   id="path5903"
   d="M 2444.9,428.65 L 2444.9,306.69 L 2950.9,306.69 L 2950.9,428.65" />

</clipPath>



<clipPath
   clip-rule="nonzero"
   id="clipPath5909">
<path
   id="path5911"
   d="M 234.06,0 L 5879.3,0 L 5879.3,7919 L 234.06,7919 L 234.06,0 z " />

</clipPath>



<clipPath
   clip-rule="nonzero"
   id="clipPath5918">
<path
   id="path5920"
   d="M 2444.9,428.65 L 2444.9,306.69 L 2950.9,306.69 L 2950.9,428.65" />

</clipPath>



<clipPath
   clip-rule="nonzero"
   id="clipPath5926">
<path
   id="path5928"
   d="M 234.06,0 L 5879.3,0 L 5879.3,7919 L 234.06,7919 L 234.06,0 z " />

</clipPath>



<clipPath
   clip-rule="nonzero"
   id="clipPath5934">
<path
   id="path5936"
   d="M 2444.9,428.65 L 2444.9,306.69 L 2950.9,306.69 L 2950.9,428.65" />

</clipPath>



<clipPath
   clip-rule="nonzero"
   id="clipPath5942">
<path
   id="path5944"
   d="M 234.06,0 L 5879.3,0 L 5879.3,7919 L 234.06,7919 L 234.06,0 z " />

</clipPath>
















































































































<clipPath
   id="clipPath14221"
   clip-rule="nonzero">
  <path
     d="M 234.06,0 L 5879.3,0 L 5879.3,7919 L 234.06,7919 L 234.06,0 z "
     id="path14223" />
</clipPath>
<clipPath
   id="clipPath14217"
   clip-rule="nonzero">
  <path
     d="M 2444.9,428.65 L 2444.9,306.69 L 2950.9,306.69 L 2950.9,428.65"
     id="path14219" />
</clipPath>
<clipPath
   id="clipPath14213"
   clip-rule="nonzero">
  <path
     d="M 234.06,0 L 5879.3,0 L 5879.3,7919 L 234.06,7919 L 234.06,0 z "
     id="path14215" />
</clipPath>
<clipPath
   id="clipPath14209"
   clip-rule="nonzero">
  <path
     d="M 2444.9,428.65 L 2444.9,306.69 L 2950.9,306.69 L 2950.9,428.65"
     id="path14211" />
</clipPath>
<clipPath
   id="clipPath14205"
   clip-rule="nonzero">
  <path
     d="M 234.06,0 L 5879.3,0 L 5879.3,7919 L 234.06,7919 L 234.06,0 z "
     id="path14207" />
</clipPath>
<clipPath
   id="clipPath14201"
   clip-rule="nonzero">
  <path
     d="M 2444.9,428.65 L 2444.9,306.69 L 2950.9,306.69 L 2950.9,428.65"
     id="path14203" />
</clipPath>
<clipPath
   id="clipPath14197"
   clip-rule="nonzero">
  <path
     d="M 234.06,0 L 5879.3,0 L 5879.3,7919 L 234.06,7919 L 234.06,0 z "
     id="path14199" />
</clipPath>
<clipPath
   id="clipPath14193"
   clip-rule="nonzero">
  <path
     d="M 4026.3,282.71 L 4726.1,282.71 L 4726.1,453.09 L 4026.3,453.09 L 4026.3,282.71 z "
     id="path14195" />
</clipPath>
<clipPath
   id="clipPath14189"
   clip-rule="nonzero">
  <path
     d="M 234.06,0 L 5879.3,0 L 5879.3,7919 L 234.06,7919 L 234.06,0 z "
     id="path14191" />
</clipPath>
<clipPath
   id="clipPath14185"
   clip-rule="nonzero">
  <path
     d="M 437.5,278.39 L 1028,278.39 L 1028,456.94 L 437.5,456.94 L 437.5,278.39 z "
     id="path14187" />
</clipPath>
<clipPath
   id="clipPath14181"
   clip-rule="nonzero">
  <path
     d="M 234.06,0 L 5879.3,0 L 5879.3,7919 L 234.06,7919 L 234.06,0 z "
     id="path14183" />
</clipPath>
<clipPath
   id="clipPath14177"
   clip-rule="nonzero">
  <path
     d="M 437.5,278.39 L 1028,278.39 L 1028,456.94 L 437.5,456.94 L 437.5,278.39 z "
     id="path14179" />
</clipPath>
<clipPath
   id="clipPath14173"
   clip-rule="nonzero">
  <path
     d="M 234.06,0 L 5879.3,0 L 5879.3,7919 L 234.06,7919 L 234.06,0 z "
     id="path14175" />
</clipPath>
<clipPath
   id="clipPath14169"
   clip-rule="nonzero">
  <path
     d="M 234.2,0.1382 L 5879.3,0.1382 L 5879.3,7919 L 234.2,7919 L 234.2,0.1382 z "
     id="path14171" />
</clipPath>
<clipPath
   id="clipPath14165"
   clip-rule="nonzero">
  <path
     d="M 234.06,0 L 5879.3,0 L 5879.3,7919 L 234.06,7919 L 234.06,0 z "
     id="path14167" />
</clipPath>
<clipPath
   id="clipPath14161"
   clip-rule="nonzero">
  <path
     d="M 2444.9,428.65 L 2444.9,306.69 L 2950.9,306.69 L 2950.9,428.65"
     id="path14163" />
</clipPath>
<clipPath
   id="clipPath14157"
   clip-rule="nonzero">
  <path
     d="M 234.06,0 L 5879.3,0 L 5879.3,7919 L 234.06,7919 L 234.06,0 z "
     id="path14159" />
</clipPath>
<clipPath
   id="clipPath14153"
   clip-rule="nonzero">
  <path
     d="M 2444.9,428.65 L 2444.9,306.69 L 2950.9,306.69 L 2950.9,428.65"
     id="path14155" />
</clipPath>
<clipPath
   id="clipPath14149"
   clip-rule="nonzero">
  <path
     d="M 234.06,0 L 5879.3,0 L 5879.3,7919 L 234.06,7919 L 234.06,0 z "
     id="path14151" />
</clipPath>
<clipPath
   id="clipPath14145"
   clip-rule="nonzero">
  <path
     d="M 2444.9,428.65 L 2444.9,306.69 L 2950.9,306.69 L 2950.9,428.65"
     id="path14147" />
</clipPath>
<clipPath
   id="clipPath14141"
   clip-rule="nonzero">
  <path
     d="M 234.06,0 L 5879.3,0 L 5879.3,7919 L 234.06,7919 L 234.06,0 z "
     id="path14143" />
</clipPath>
<clipPath
   id="clipPath14137"
   clip-rule="nonzero">
  <path
     d="M 4026.3,282.71 L 4726.1,282.71 L 4726.1,453.09 L 4026.3,453.09 L 4026.3,282.71 z "
     id="path14139" />
</clipPath>
<clipPath
   id="clipPath14133"
   clip-rule="nonzero">
  <path
     d="M 234.06,0 L 5879.3,0 L 5879.3,7919 L 234.06,7919 L 234.06,0 z "
     id="path14135" />
</clipPath>
<clipPath
   id="clipPath14129"
   clip-rule="nonzero">
  <path
     d="M 437.5,278.39 L 1028,278.39 L 1028,456.94 L 437.5,456.94 L 437.5,278.39 z "
     id="path14131" />
</clipPath>
<clipPath
   id="clipPath14125"
   clip-rule="nonzero">
  <path
     d="M 234.06,0 L 5879.3,0 L 5879.3,7919 L 234.06,7919 L 234.06,0 z "
     id="path14127" />
</clipPath>
<clipPath
   id="clipPath14121"
   clip-rule="nonzero">
  <path
     d="M 437.5,278.39 L 1028,278.39 L 1028,456.94 L 437.5,456.94 L 437.5,278.39 z "
     id="path14123" />
</clipPath>
<clipPath
   id="clipPath14117"
   clip-rule="nonzero">
  <path
     d="M 234.06,0 L 5879.3,0 L 5879.3,7919 L 234.06,7919 L 234.06,0 z "
     id="path14119" />
</clipPath>
<clipPath
   id="clipPath14113"
   clip-rule="nonzero">
  <path
     d="M 234.2,0.1382 L 5879.3,0.1382 L 5879.3,7919 L 234.2,7919 L 234.2,0.1382 z "
     id="path14115" />
</clipPath>
</defs>
  <sodipodi:namedview
     id="base"
     pagecolor="#ffffff"
     bordercolor="#666666"
     borderopacity="1.0"
     inkscape:pageopacity="0.0"
     inkscape:pageshadow="2"
     inkscape:zoom="0.35"
     inkscape:cx="522.4006"
     inkscape:cy="-11.131139"
     inkscape:document-units="px"
     inkscape:current-layer="layer1"
     inkscape:window-width="925"
     inkscape:window-height="573"
     inkscape:window-x="10"
     inkscape:window-y="378" />
  <metadata
     id="metadata4242">
    <rdf:RDF>
      <cc:Work
         rdf:about="">
        <dc:format>image/svg+xml</dc:format>
        <dc:type
           rdf:resource="http://purl.org/dc/dcmitype/StillImage" />
      </cc:Work>
    </rdf:RDF>
  </metadata>
  <g
     inkscape:label="Ebene 1"
     inkscape:groupmode="layer"
     id="layer1"
     transform="translate(2.322326,-490.7257)">
    <path
       style="fill:black;fill-rule:nonzero;stroke:none"
       d="M 126.58912,691.63379 C 133.24647,691.63379 137.24093,690.27804 137.24093,683.94755 C 137.24093,679.26319 134.33578,676.75755 127.67843,676.75755 L 118.47909,676.75755 L 118.47909,691.63379 L 126.58912,691.63379 z M 114.96889,711.18231 L 114.96889,673.74351 L 128.6468,673.74351 C 138.33024,673.74351 140.87223,678.58527 140.87223,684.20173 C 140.87223,692.56586 133.36752,694.64778 126.46801,694.64778 L 118.47909,694.64778 L 118.47909,711.18231 L 114.96889,711.18231"
       class="ps02"
       id="path6905" />
    <path
       style="fill:black;fill-rule:nonzero;stroke:none"
       d="M 145.5929,711.18231 L 148.619,711.18231 L 148.619,673.74351 L 145.5929,673.74351 L 145.5929,711.18231 z "
       class="ps02"
       id="path6907" />
    <path
       style="fill:black;fill-rule:nonzero;stroke:none"
       d="M 174.03808,697.03232 C 171.37519,698.12175 168.59115,698.33955 165.92821,698.54538 C 161.20749,698.90851 158.3025,700.62737 158.3025,704.25862 C 158.3025,707.55101 161.20749,709.10041 164.11253,709.10041 C 169.07536,709.10041 174.03808,706.7037 174.03808,701.24461 L 174.03808,697.03232 z M 168.7122,695.48292 C 169.92267,695.37405 171.85935,695.05933 172.82772,694.58726 C 173.91703,694.12726 174.03808,692.72317 174.03808,691.7911 C 174.03808,688.61977 172.10145,686.33209 167.25968,686.33209 C 163.02317,686.33209 159.99712,687.73621 159.39191,692.40847 L 156.24477,692.40847 C 156.72892,686.06575 161.44959,683.5118 167.38073,683.5118 C 172.82772,683.5118 177.06418,685.6542 177.06418,691.88796 L 177.06418,706.5463 C 177.06418,708.99143 177.79044,709.56038 180.33238,708.62832 L 180.33238,711.07337 C 179.96932,711.23073 178.87986,711.59389 177.91149,711.59389 C 177.42738,711.59389 177.06418,711.54542 176.58007,711.43648 C 174.40129,711.13396 174.03808,709.30612 174.03808,707.42995 C 171.49624,710.34717 167.86489,711.90858 163.99148,711.90858 C 159.27086,711.90858 155.03424,709.35458 155.03424,704.16176 C 155.03424,699.64686 158.18139,696.88704 164.47569,696.0519 L 168.7122,695.48292"
       class="ps02"
       id="path6909" />
    <path
       style="fill:black;fill-rule:nonzero;stroke:none"
       d="M 184.81099,718.50541 C 185.65831,718.66279 186.50562,718.83227 187.35293,718.83227 C 190.98424,718.83227 191.46834,713.72425 192.67886,711.38807 L 182.14811,684.25008 L 185.65831,684.25008 L 194.37349,707.39361 L 202.96752,684.25008 L 206.35677,684.25008 L 196.31012,710.81915 C 193.76818,717.57339 192.07365,721.78577 187.71604,721.78577 C 186.62667,721.78577 185.65831,721.62836 184.81099,721.42261 L 184.81099,718.50541"
       class="ps02"
       id="path6911" />
    <path
       style="fill:black;fill-rule:nonzero;stroke:none"
       d="M 213.74038,699.99789 C 214.34559,706.7037 218.70326,709.14881 224.51329,709.14881 C 231.17064,709.14881 233.95474,705.51751 233.95474,701.40199 C 233.95474,689.80601 211.19844,697.50441 211.19844,682.79756 C 211.19844,677.59273 215.43506,672.76306 223.90808,672.76306 C 232.26011,672.76306 236.49657,677.8469 236.37553,683.94755 L 233.10743,683.94755 C 233.10743,678.22212 228.62881,675.77701 223.90808,675.77701 C 216.64542,675.77701 214.10359,680.19519 214.7088,684.04432 C 216.28237,693.7037 237.58604,686.74367 237.58604,701.24461 C 237.58604,708.11988 232.50211,712.16275 223.90808,712.16275 C 216.04022,712.16275 210.23018,708.11988 210.23018,699.99789 L 213.74038,699.99789"
       class="ps02"
       id="path6913" />
    <path
       style="fill:black;fill-rule:nonzero;stroke:none"
       d="M 253.80588,711.2792 C 253.07952,711.43648 251.74804,711.90858 250.17449,711.90858 C 247.14844,711.90858 245.45381,710.55293 245.45381,706.5463 L 245.45381,686.84044 L 241.5805,686.84044 L 241.5805,684.25008 L 245.45381,684.25008 L 245.45381,676.75755 L 248.60091,676.75755 L 248.60091,684.25008 L 253.56378,684.25008 L 253.56378,686.84044 L 248.60091,686.84044 L 248.60091,705.29958 C 248.60091,707.96259 248.60091,709.10041 251.26394,709.10041 C 252.11127,709.10041 252.95857,708.94301 253.80588,708.73725 L 253.80588,711.2792"
       class="ps02"
       id="path6915" />
    <path
       style="fill:black;fill-rule:nonzero;stroke:none"
       d="M 277.16724,697.03232 C 274.50424,698.12175 271.84135,698.33955 269.17832,698.54538 C 264.45769,698.90851 261.55261,700.62737 261.55261,704.25862 C 261.55261,707.55101 264.45769,709.10041 267.36274,709.10041 C 272.32545,709.10041 277.16724,706.7037 277.16724,701.24461 L 277.16724,697.03232 z M 271.96241,695.48292 C 273.05172,695.37405 274.9885,695.05933 276.07781,694.58726 C 277.04618,694.12726 277.16724,692.72317 277.16724,691.7911 C 277.16724,688.61977 275.35157,686.33209 270.50989,686.33209 C 266.15228,686.33209 263.24722,687.73621 262.64201,692.40847 L 259.49486,692.40847 C 259.97903,686.06575 264.69974,683.5118 270.50989,683.5118 C 275.95678,683.5118 280.31439,685.6542 280.31439,691.88796 L 280.31439,706.5463 C 280.31439,708.99143 280.9196,709.56038 283.58254,708.62832 L 283.58254,711.07337 C 283.09839,711.23073 282.00896,711.59389 281.16174,711.59389 C 280.67748,711.59389 280.19333,711.54542 279.70911,711.43648 C 277.65139,711.13396 277.28835,709.30612 277.28835,707.42995 C 274.6253,710.34717 271.1151,711.90858 267.24168,711.90858 C 262.52098,711.90858 258.16345,709.35458 258.16345,704.16176 C 258.16345,699.64686 261.31056,696.88704 267.60475,696.0519 L 271.96241,695.48292"
       class="ps02"
       id="path6917" />
    <path
       style="fill:black;fill-rule:nonzero;stroke:none"
       d="M 298.71306,711.2792 C 297.9867,711.43648 296.65522,711.90858 295.08165,711.90858 C 292.05556,711.90858 290.36094,710.55293 290.36094,706.5463 L 290.36094,686.84044 L 286.60858,686.84044 L 286.60858,684.25008 L 290.36094,684.25008 L 290.36094,676.75755 L 293.50807,676.75755 L 293.50807,684.25008 L 298.4709,684.25008 L 298.4709,686.84044 L 293.50807,686.84044 L 293.50807,705.29958 C 293.50807,707.96259 293.50807,709.10041 296.17107,709.10041 C 297.01843,709.10041 297.86576,708.94301 298.71306,708.73725 L 298.71306,711.2792"
       class="ps02"
       id="path6919" />
    <path
       style="fill:black;fill-rule:nonzero;stroke:none"
       d="M 308.0333,711.18231 L 305.00725,711.18231 L 305.00725,684.25008 L 308.0333,684.25008 L 308.0333,711.18231 z M 304.7652,678.36735 L 304.7652,673.74351 L 308.27546,673.74351 L 308.27546,678.36735 L 304.7652,678.36735"
       class="ps02"
       id="path6921" />
    <path
       style="fill:black;fill-rule:nonzero;stroke:none"
       d="M 326.43197,686.33209 C 319.89564,686.33209 317.35369,691.88796 317.35369,697.71017 C 317.35369,704.41593 320.50085,709.10041 326.43197,709.10041 C 332.96837,709.10041 335.63126,703.48391 335.63126,697.71017 C 335.63126,691.36751 333.08932,686.33209 326.43197,686.33209 z M 313.96444,697.71017 C 313.96444,689.86653 318.201,683.5118 326.43197,683.5118 C 334.90501,683.5118 339.02051,689.80601 339.02051,697.71017 C 339.02051,706.24378 334.05768,711.90858 326.43197,711.90858 C 319.65352,711.79964 313.96444,707.12733 313.96444,697.71017"
       class="ps02"
       id="path6923" />
    <path
       style="fill:black;fill-rule:nonzero;stroke:none"
       d="M 346.52523,711.18231 L 343.37808,711.18231 L 343.37808,684.25008 L 346.52523,684.25008 L 346.52523,687.99039 C 348.94611,685.3395 351.48796,683.5118 355.11927,683.5118 C 358.50852,683.5118 361.41355,684.55272 363.35028,687.36089 C 364.68176,689.29767 364.8028,691.319 364.8028,693.5463 L 364.8028,711.18231 L 361.65567,711.18231 L 361.65567,693.60682 C 361.65567,688.77717 359.59792,686.33209 354.63509,686.33209 C 350.7617,686.33209 348.09881,688.82557 347.13044,691.57327 C 346.52523,693.29212 346.52523,694.80518 346.52523,696.68128 L 346.52523,711.18231"
       class="ps02"
       id="path6925" />
    <path
       style="fill:black;fill-rule:nonzero;stroke:none"
       d="M 377.0282,702.4309 C 376.66504,702.26137 376.18087,702.17661 375.45463,702.17661 L 374.48626,702.17661 L 374.48626,704.6702 L 375.57573,704.6702 C 376.05983,704.6702 376.54398,704.62173 376.78608,704.52496 C 377.27025,704.33122 377.51235,703.96811 377.51235,703.43549 C 377.51235,702.93922 377.27025,702.60035 377.0282,702.4309 z M 375.69668,701.32942 C 376.54398,701.32942 377.14919,701.40199 377.63341,701.57147 C 378.35966,701.87408 378.60175,702.45507 378.60175,703.33863 C 378.60175,703.95601 378.48072,704.40386 377.9965,704.69438 C 377.75445,704.85166 377.39129,704.96072 377.0282,705.03331 C 377.51235,705.11801 377.87555,705.3601 378.11756,705.72333 C 378.35966,706.09854 378.48072,706.46158 378.48072,706.81264 L 378.48072,707.32108 C 378.48072,707.49049 378.48072,707.67212 378.60175,707.84153 C 378.60175,708.03516 378.60175,708.15622 378.60175,708.21674 L 378.60175,708.3015 L 377.51235,708.3015 C 377.51235,708.27728 377.51235,708.25308 377.51235,708.24098 C 377.51235,708.21674 377.51235,708.18039 377.51235,708.1441 L 377.39129,707.92629 L 377.39129,707.36943 C 377.39129,706.5463 377.14919,706.01378 376.78608,705.75951 C 376.54398,705.60222 376.05983,705.52958 375.45463,705.52958 L 374.48626,705.52958 L 374.48626,708.3015 L 373.27589,708.3015 L 373.27589,701.32942 L 375.69668,701.32942 z M 371.94432,700.96626 C 370.855,702.03139 370.37074,703.32662 370.37074,704.82749 C 370.37074,706.36472 370.855,707.65995 371.94432,708.72509 C 373.03372,709.80239 374.24414,710.335 375.81771,710.335 C 377.39129,710.335 378.60175,709.80239 379.69114,708.72509 C 380.78054,707.65995 381.26471,706.36472 381.26471,704.82749 C 381.26471,703.32662 380.78054,702.03139 379.69114,700.96626 C 378.60175,699.90112 377.39129,699.36851 375.81771,699.36851 C 374.24414,699.36851 373.03372,699.90112 371.94432,700.96626 z M 380.29634,709.31822 C 379.08593,710.55293 377.51235,711.18231 375.81771,711.18231 C 374.1231,711.18231 372.54962,710.55293 371.33911,709.31822 C 370.12873,708.08358 369.52352,706.58264 369.52352,704.82749 C 369.52352,703.09662 370.12873,701.59564 371.33911,700.3731 C 372.54962,699.12634 374.1231,698.52113 375.81771,698.52113 C 377.51235,698.52113 379.08593,699.12634 380.29634,700.3731 C 381.50681,701.58357 382.11202,703.08446 382.11202,704.82749 C 382.11202,706.58264 381.50681,708.08358 380.29634,709.31822"
       class="ps02"
       id="path6927" />
    <path
       style="fill:black;fill-rule:nonzero;stroke:none"
       d="M 403.4157,691.63379 C 410.07304,691.63379 414.18854,690.27804 414.18854,683.94755 C 414.18854,679.26319 411.16252,676.75755 404.5051,676.75755 L 395.30581,676.75755 L 395.30581,691.63379 L 403.4157,691.63379 z M 391.79546,711.18231 L 391.79546,673.74351 L 405.47338,673.74351 C 415.15698,673.74351 417.6988,678.58527 417.6988,684.20173 C 417.6988,692.56586 410.31514,694.64778 403.29464,694.64778 L 395.30581,694.64778 L 395.30581,711.18231 L 391.79546,711.18231"
       class="ps02"
       id="path6929" />
    <path
       style="fill:black;fill-rule:nonzero;stroke:none"
       d="M 431.61882,686.33209 C 425.08251,686.33209 422.41953,691.88796 422.41953,697.71017 C 422.41953,704.41593 425.68772,709.10041 431.61882,709.10041 C 438.15515,709.10041 440.81816,703.48391 440.81816,697.71017 C 440.6971,691.36751 438.27621,686.33209 431.61882,686.33209 z M 419.15132,697.71017 C 419.15132,689.86653 423.26684,683.5118 431.61882,683.5118 C 440.09189,683.5118 444.08635,689.80601 444.08635,697.71017 C 444.08635,706.24378 439.12352,711.90858 431.61882,711.90858 C 424.71935,711.79964 419.15132,707.12733 419.15132,697.71017"
       class="ps02"
       id="path6931" />
    <path
       style="fill:black;fill-rule:nonzero;stroke:none"
       d="M 451.83307,711.18231 L 448.68601,711.18231 L 448.68601,684.25008 L 451.83307,684.25008 L 451.83307,689.29767 L 451.95411,689.29767 C 453.64875,684.97635 456.19069,683.5118 460.6693,683.5118 L 460.6693,686.90096 C 453.64875,686.74367 451.83307,691.93638 451.83307,697.96434 L 451.83307,711.18231"
       class="ps02"
       id="path6933" />
    <path
       style="fill:black;fill-rule:nonzero;stroke:none"
       d="M 478.09956,711.2792 C 477.37331,711.43648 476.04183,711.90858 474.58927,711.90858 C 471.44221,711.90858 469.74753,710.55293 469.74753,706.5463 L 469.74753,686.84044 L 465.99524,686.84044 L 465.99524,684.25008 L 469.74753,684.25008 L 469.74753,676.75755 L 472.89468,676.75755 L 472.89468,684.25008 L 477.97852,684.25008 L 477.97852,686.84044 L 472.89468,686.84044 L 472.89468,705.29958 C 472.89468,707.96259 473.01579,709.10041 475.55764,709.10041 C 476.40494,709.10041 477.37331,708.94301 478.09956,708.73725 L 478.09956,711.2792"
       class="ps02"
       id="path6935" />
    <path
       style="fill:black;fill-rule:nonzero;stroke:none"
       d="M 500.49255,697.03232 C 497.82966,698.12175 495.16668,698.33955 492.50372,698.54538 C 487.78302,698.90851 484.87801,700.62737 484.87801,704.25862 C 484.87801,707.55101 487.78302,709.10041 490.68805,709.10041 C 495.65088,709.10041 500.49255,706.7037 500.49255,701.24461 L 500.49255,697.03232 z M 495.28772,695.48292 C 496.37715,695.37405 498.31381,695.05933 499.40324,694.58726 C 500.3716,694.12726 500.49255,692.72317 500.49255,691.7911 C 500.49255,688.61977 498.67697,686.33209 493.8352,686.33209 C 489.47763,686.33209 486.57265,687.73621 485.96744,692.40847 L 482.82029,692.40847 C 483.30443,686.06575 488.02512,683.5118 493.8352,683.5118 C 499.28218,683.5118 503.6397,685.6542 503.6397,691.88796 L 503.6397,706.5463 C 503.6397,708.99143 504.245,709.56038 506.90789,708.62832 L 506.90789,711.07337 C 506.42379,711.23073 505.33431,711.59389 504.48701,711.59389 C 504.00291,711.59389 503.51864,711.54542 503.03449,711.43648 C 500.97681,711.13396 500.61361,709.30612 500.61361,707.42995 C 497.95072,710.34717 494.44041,711.90858 490.56711,711.90858 C 485.84638,711.90858 481.48871,709.35458 481.48871,704.16176 C 481.48871,699.64686 484.63587,696.88704 490.93015,696.0519 L 495.28772,695.48292"
       class="ps02"
       id="path6937" />
    <path
       style="fill:black;fill-rule:nonzero;stroke:none"
       d="M 525.18548,709.10041 C 530.39036,709.10041 534.26375,705.29958 534.38481,698.54538 C 534.62691,691.7911 531.60082,686.33209 525.18548,686.33209 C 519.4965,686.33209 516.10723,691.5248 516.10723,697.60128 C 516.10723,704.11341 519.25438,709.10041 525.18548,709.10041 z M 516.10723,711.18231 L 512.9601,711.18231 L 512.9601,673.74351 L 516.10723,673.74351 L 516.10723,688.55923 C 518.04387,685.29113 521.91727,683.5118 525.66963,683.5118 C 533.90067,683.5118 537.653,690.22969 537.653,697.77069 C 537.653,705.71116 534.26375,711.90858 525.54868,711.90858 C 522.03833,711.90858 518.04387,709.98397 516.10723,706.44953 L 516.10723,706.44953 L 516.10723,711.18231"
       class="ps02"
       id="path6939" />
    <path
       style="fill:black;fill-rule:nonzero;stroke:none"
       d="M 544.55252,711.18231 L 547.69955,711.18231 L 547.69955,673.74351 L 544.55252,673.74351 L 544.55252,711.18231 z "
       class="ps02"
       id="path6941" />
    <path
       style="fill:black;fill-rule:nonzero;stroke:none"
       d="M 574.81337,695.83395 C 574.81337,690.59273 571.90833,686.33209 566.3403,686.33209 C 560.77227,686.33209 557.86726,690.75014 557.26205,695.83395 L 574.81337,695.83395 z M 557.26205,698.44849 C 557.26205,704.25862 560.4092,709.10041 566.3403,709.10041 C 570.33476,709.10041 573.60286,706.86099 574.45021,702.91504 L 577.96052,702.91504 C 576.38694,707.99882 573.23979,711.90858 566.3403,711.90858 C 557.74617,711.90858 553.99386,705.77168 553.99386,697.81911 C 553.99386,689.96335 558.59353,683.5118 566.3403,683.5118 C 573.72396,683.5118 578.20252,688.77717 578.20252,698.44849 L 557.26205,698.44849"
       class="ps02"
       id="path6943" />
    <path
       style="fill:black;fill-rule:nonzero;stroke:none"
       d="M -2.3223259,490.72569 L 218.219,490.72569 L 218.219,556.12552 L 6.3928567,556.12552 L 6.3928567,612.81023 L -2.3223259,612.81023 L -2.3223259,547.41036 L 209.50392,547.41036 L 209.50392,499.44078 L -2.3223259,499.44078 L -2.3223259,490.72569"
       class="ps02"
       id="path6945" />
    <path
       style="fill:black;fill-rule:nonzero;stroke:none"
       d="M 493.71414,556.12552 L 493.71414,612.81023 L 484.99907,612.81023 L 484.99907,547.41036 L 696.82531,547.41036 L 696.82531,499.44078 L 484.99907,499.44078 L 484.99907,490.72569 L 705.54039,490.72569 L 705.54039,556.12552 L 493.71414,556.12552"
       class="ps02"
       id="path6947" />
    <path
       style="fill:black;fill-rule:nonzero;stroke:none"
       d="M 330.66855,490.72569 L 330.66855,604.09505 L 218.219,604.09505 L 218.219,612.81023 L 339.86777,612.81023 L 339.86777,499.44078 L 452.31727,499.44078 L 452.31727,490.72569 L 330.66855,490.72569"
       class="ps02"
       id="path6949" />
    <path
       style="fill:black;fill-rule:nonzero;stroke:none"
       d="M 728.65974,599.93122 L 723.93901,599.93122 L 723.93901,598.28496 L 735.31709,598.28496 L 735.31709,599.93122 L 730.59643,599.93122 L 730.59643,612.83441 L 728.65974,612.83441 L 728.65974,599.93122"
       class="ps02"
       id="path6951" />
    <path
       style="fill:black;fill-rule:nonzero;stroke:none"
       d="M 743.06391,612.83441 L 739.06945,601.02053 L 739.06945,612.83441 L 737.13283,612.83441 L 737.13283,598.28496 L 739.79572,598.28496 L 743.91121,610.65562 L 748.14775,598.28496 L 750.81073,598.28496 L 750.81073,612.83441 L 748.87399,612.83441 L 748.87399,601.02053 L 745.00059,612.83441 L 743.06391,612.83441"
       class="ps02"
       id="path6953" />
  </g>
</svg>
