<?xml version="1.0" encoding="utf-8"?>
<!-- Generator: Adobe Illustrator 19.0.0, SVG Export Plug-In . SVG Version: 6.00 Build 0)  -->
<svg version="1.1" id="Слой_1" xmlns="http://www.w3.org/2000/svg" xmlns:xlink="http://www.w3.org/1999/xlink" x="0px" y="0px"
	 viewBox="0 0 644 370" style="enable-background:new 0 0 644 370;" xml:space="preserve">
<style type="text/css">
	.st0{fill:#02235E;}
	.st1{fill:#FCFDFD;}
</style>
<g id="layer101">
	<path class="st0" d="M148,331.6c-34.9-6.3-63.1-21.9-87.2-48.3c-15.9-17.5-27.5-40.3-33.4-65.8c-2.6-11-2.8-13.7-2.8-32
		c0-17,0.3-21.5,2.2-30.2c6.4-29.3,19.7-53.8,40.7-74.8c21.5-21.6,47.1-35.1,78-41.2c13.6-2.6,41.6-2.4,55.1,0.5
		c20.2,4.4,39.3,12.3,55.9,23.4c16.2,10.8,34.6,30.9,44.9,49.2c8.6,15.1,17.5,42.3,17.6,53.6c0.1,5.3,1.5,1.7,2.9-7.5
		c2.7-17.2,11.7-39.3,23-56.5c7.6-11.7,27.8-31.8,39.9-39.8c16.6-11,35.6-18.8,55.7-22.9c13.7-2.7,42.5-2.4,56.5,0.6
		c14.3,3,23.5,6.2,36.5,12.5c14.7,7.2,26.9,16,39,28.1c21.5,21.5,35.5,48.1,41.1,78c2.8,14.7,2.6,42.2-0.4,56.2
		c-6.4,29.8-19.2,53.5-40.6,74.9c-21.9,21.8-45.5,34.7-75.6,41.1c-12.3,2.6-46.9,2.6-59-0.1c-42.3-9.2-77-34.2-98.8-71.1
		c-8.3-14-16.2-36.6-17.8-50.7c-0.7-6.4-2.4-8.9-2.4-3.6c-0.1,9.5-6.7,31.1-14,46c-20.1,40.3-55.9,68.4-100.9,79
		C192.9,332.8,159.5,333.6,148,331.6z"/>
</g>
<g id="layer102">
	<path class="st1" d="M160,320c-32-3.1-60.7-16.7-83.5-39.5c-19.1-19.1-31.2-41.4-37.2-68.7c-2.2-10.5-2.5-40.7-0.4-51.3
		c3.7-18.7,12.5-39,23.8-54.6c7.5-10.5,23.7-26.1,34.4-33.2c14.9-9.9,31.7-16.8,49.7-20.4c11.9-2.4,38.3-2.4,50.4,0
		c52.8,10.5,93.3,48.9,106.5,101.1c3.4,13.7,4.3,40.3,1.9,54.6c-7.3,41.9-34.7,79-72.6,98C210.9,317.1,183.9,322.3,160,320z
		 M195.8,306.5c29-5.6,56.3-22.5,74.3-46c38.5-50.4,32.8-121.6-13.1-164.9C221.7,62.5,170.7,52.9,125.4,71
		C90,85.1,62.2,116.9,52.3,154.8c-3.4,13-4.3,37.1-1.9,50.8c6.4,36.8,28.7,68.8,60.6,86.9C136.4,306.9,167.2,312,195.8,306.5z"/>
	<path class="st1" d="M149.6,269.4c-15.5-3.4-27.5-10.2-39.1-21.9c-9-9-14.9-18.6-19.1-31c-3.9-11.5-4.5-28.4-1.5-41
		c6.7-27.7,27.8-49.9,54.9-57.4c6.8-1.9,89.7-11.1,90.5-10c0.2,0.2,2.3,19.5,4.7,42.8c2.9,29.4,4,44.3,3.6,48.5
		c-3.1,27.7-18.2,50.4-41.6,62.5c-11.9,6.2-19.7,8.2-33.5,8.7C160,270.9,154.5,270.5,149.6,269.4z M188.7,256.2
		c26.4-9.8,44.2-34.7,44.3-61.7c0-5.4-3.1-39.1-4.6-50.4l-0.6-4.4l-4,7.4c-23.4,43.3-61.7,79.6-100.7,95.5c-2.2,0.9-2,1.2,3.8,5.2
		c13.2,9.3,23.5,12.3,41.1,11.8C179,259.3,181.5,259,188.7,256.2z M124.1,230.6c27.7-11.2,62.9-43.8,84.1-77.8
		c4.9-8,13.9-25.8,15.3-30.5c0.8-2.9,3-3-37.5,1.2c-35.1,3.6-40.3,4.6-51,10c-35.4,17.8-47.2,63.5-25.2,96.8
		C112.8,234.7,113.8,234.8,124.1,230.6z"/>
	<path class="st1" d="M429,214c-6.7-2.3-12.4-8-14-14.1c-0.7-2.6-1.1-9.5-0.8-17.5c0.3-12.8,0.4-13.4,3.3-17.5
		c1.9-2.7,5-5.4,8.4-7.1c4.8-2.5,6.3-2.8,15.5-2.8c9,0,10.8,0.3,15.4,2.6c6.1,3,9.7,7,11.2,12.2c1.4,5,1.3,26.5-0.2,31.4
		c-1.6,5.3-8.3,11.3-14.9,13.2C445.8,216.5,435.8,216.4,429,214z M450.9,203.5c4.3-2.2,5.6-6.5,5.5-19.3c0-9.7-0.3-11.6-2.1-14
		c-4.9-6.7-20.6-6.8-25.5-0.2c-1.6,2.2-1.9,4.4-1.9,14.6c0,13.2,0.9,16.7,5,18.9C435.4,205.4,447.3,205.4,450.9,203.5z"/>
	<path class="st1" d="M487.3,215c-4.3-0.9-10.4-3.7-13.8-6.4c-2-1.6-1.9-1.7,2.4-5.6c3.9-3.6,4.6-3.9,6-2.6
		c4.8,4.4,15.1,5.9,21.5,3.2c3.7-1.5,5.1-4.4,4.2-8c-0.7-2.9-3.9-4.2-13.5-5.6c-4.1-0.6-9-1.8-10.8-2.7
		c-10.2-4.8-11.9-18.9-3.3-26.7c4.5-4.1,9.3-5.6,17.5-5.6c7.3,0,11.2,1,17.3,4.6l4.6,2.7l-4.3,3.8l-4.2,3.8l-3.7-2.2
		c-4.7-2.8-13.6-3-17.5-0.4c-2.1,1.3-2.7,2.5-2.7,5.2c0,4.4,2.6,5.8,13.3,7.4c14.2,2,19.7,6.9,19.7,17.3
		C520,210.9,505.8,218.6,487.3,215z"/>
	<path class="st1" d="M356,187.1v-28l2.7-2.1c2.6-2,3.6-2.1,19.3-1.8c15.4,0.3,16.9,0.5,21.5,2.8c11.8,6.1,13.2,25.6,2.3,33.1
		c-1.8,1.2-3.4,2.4-3.6,2.5c-0.2,0.1,2.8,5,6.7,10.8L412,215h-7.3h-7.4l-6.7-10l-6.7-10.1l-7.7,0.3l-7.7,0.3l-0.3,9.8l-0.3,9.7H362
		h-6V187.1z M393.8,182.4c1.8-1.2,2.2-2.5,2.2-6.7c0-8.7-1.9-9.7-16.9-9.7H368v9v9h11.8C388.8,184,392.1,183.6,393.8,182.4z"/>
	<path class="st1" d="M522.9,210.3c12.2-30.9,21.5-52.1,23.2-53.5c2.5-2.1,5.8-2.3,8.2-0.5c1.4,0.9,21.5,48.2,24.2,56.7
		c0.6,2,0.4,2.1-6,1.8l-6.7-0.3l-2.3-6c-2.1-5.7-2.4-6-5.1-5.5c-4.3,0.7-12.4,0.6-16-0.2c-3-0.7-3.1-0.6-5.4,5.8l-2.4,6.4h-6.8H521
		L522.9,210.3z M555.9,192.1c1.1-0.7,0.7-2.5-2-9.6c-2.6-6.9-3.5-8.4-4.1-6.9c-0.4,1-2.1,5.1-3.7,8.9c-2.7,6.3-2.8,7.1-1.3,7.7
		C547.3,193.2,554.3,193.1,555.9,192.1z"/>
</g>
</svg>
