<?xml version="1.0" encoding="UTF-8" standalone="no"?>
<svg
   xmlns:dc="http://purl.org/dc/elements/1.1/"
   xmlns:cc="http://creativecommons.org/ns#"
   xmlns:rdf="http://www.w3.org/1999/02/22-rdf-syntax-ns#"
   xmlns:svg="http://www.w3.org/2000/svg"
   xmlns="http://www.w3.org/2000/svg"
   id="svg2"
   version="1.1"
   xml:space="preserve"
   width="365"
   height="273.75"
   viewBox="0 0 365 273.75"><metadata
     id="metadata8"><rdf:RDF><cc:Work
         rdf:about=""><dc:format>image/svg+xml</dc:format><dc:type
           rdf:resource="http://purl.org/dc/dcmitype/StillImage" /><dc:title></dc:title></cc:Work></rdf:RDF></metadata><defs
     id="defs6"><clipPath
       clipPathUnits="userSpaceOnUse"
       id="clipPath16"><path
         d="M 0,450 H 600 V 0 H 0 Z"
         id="path18" /></clipPath></defs><g
     id="g10"
     transform="matrix(0.60833334,0,0,-0.60833334,0,273.75)"
     style="stroke-width:2.05479455"><g
       id="g12"
       style="stroke-width:2.05479455"><g
         id="g14"
         clip-path="url(#clipPath16)"
         style="stroke-width:2.05479455"><g
           id="g20"
           transform="translate(319.5736,293.0836)"
           style="stroke-width:2.05479455"><path
             d="M 0,0 C -5.436,5.189 -10.655,10.292 -14.424,16.118 -3.603,33.97 21.179,45.609 28.342,48.685 32.141,44.834 42.336,35.901 56.593,34.145 50.682,32.079 13.707,18.583 0,0 m 16.23,-40.668 c -1.516,-17.504 -12.45,-32.341 -27.264,-44.599 3.551,5.637 6.22,12.108 6.838,19.25 1.45,16.732 -9.908,28.213 -20.893,39.316 -11.174,11.296 -21.729,21.965 -20.347,37.925 1.61,18.58 12.841,35.372 26.615,49.286 -3.815,-6.819 -6.935,-14.427 -7.573,-21.788 C -28.184,18.06 -15.028,5.518 -3.421,-5.548 7.36,-15.826 17.542,-25.533 16.23,-40.668 m -75.392,-72.687 c 15.585,11.429 27.804,25.866 34.681,41.551 4.45,10.149 6.28,20.036 5.471,29.174 5.498,-6.816 9.224,-14.045 8.462,-22.836 -1.929,-22.273 -28.501,-38.167 -28.882,-38.392 l 0.016,-0.026 c -6.583,-3.515 -13.264,-6.671 -19.748,-9.471 M 16.943,50.367 C 6.598,45.035 -8.561,35.624 -17.81,22.585 c -1.847,4.586 -2.743,9.682 -2.232,15.587 1.5,17.306 19.64,37.524 22.497,40.61 10.631,7.899 20.769,13.98 27.665,17.816 C 25.134,86.195 17.96,68.371 16.943,50.367 m 109.338,5.306 c -0.613,1.629 -2.419,2.467 -4.055,1.881 L 98.968,49.256 C 89.203,46.057 77.848,42.72 68.034,40.843 46.894,36.806 31.76,54.353 31.613,54.526 c -0.873,1.041 -2.311,1.414 -3.581,0.928 -0.29,-0.111 -1.926,-0.749 -4.436,-1.876 2.578,24.597 16.668,48.7 16.822,48.96 0.712,1.205 0.555,2.734 -0.387,3.769 -0.942,1.035 -2.448,1.334 -3.715,0.739 C 35.47,106.647 15.355,97.1 -5.669,80.684 -34.243,58.372 -49.76,35.187 -51.788,11.774 c -1.637,-18.897 10.464,-31.129 22.167,-42.959 0.671,-0.678 1.339,-1.353 2.002,-2.027 3.96,-10.504 3.038,-22.943 -2.701,-36.032 -10.274,-23.434 -33.415,-43.963 -61.901,-54.916 -9.022,-3.468 -16.591,-6.117 -16.666,-6.144 -1.583,-0.552 -2.466,-2.236 -2.023,-3.852 0.386,-1.407 1.663,-2.345 3.071,-2.345 0.21,0 0.421,0.021 0.633,0.064 4.785,0.964 35.342,9.014 65.062,23.984 2.029,1.022 3.998,2.056 5.933,3.095 l 10e-4,-0.002 c 0.008,0.005 0.031,0.018 0.041,0.025 36.781,19.767 56.547,42.661 58.752,68.117 1.407,16.237 -7.837,26.931 -17.944,36.769 12.754,18.446 54.308,32.665 54.785,32.827 l 41.015,14.633 c 13.022,4.246 23.293,8.285 24.029,8.576 1.618,0.639 2.425,2.457 1.813,4.086"
             style="fill:#231f20;fill-opacity:1;fill-rule:nonzero;stroke:none;stroke-width:2.05479455"
             id="path22" /></g><g
           id="g24"
           transform="translate(89.0963,82.8906)"
           style="stroke-width:2.05479455"><path
             d="m 0,0 c -2.256,-5.171 -9.019,-8.395 -16.914,-8.455 -6.829,0 -16.125,3.704 -16.888,12.981 l 6.649,-0.176 c 1.09,-4.657 5.227,-7.21 10.239,-7.21 5.451,0.061 9.083,2.008 10.397,5.049 1.004,2.251 0.189,4.685 0.127,4.745 -1.317,3.527 -5.386,4.319 -10.524,5.839 -5.827,1.704 -12.966,3.103 -15.159,9.064 -1.19,3.101 -0.877,6.69 0.752,9.611 3.633,6.69 13.343,6.873 14.407,6.873 6.891,0 15.885,-2.33 16.466,-11.219 h -6.649 c -1.853,4.48 -4.555,5.622 -9.817,5.622 -0.062,0 -6.013,0 -8.143,-3.893 -0.814,-1.52 -1.002,-3.527 -0.437,-5.109 1.252,-3.344 5.259,-4.136 10.271,-5.595 C -9.269,16.362 -2.13,15.024 0.251,8.88 0.439,8.454 1.942,4.317 0,0"
             style="fill:#231f20;fill-opacity:1;fill-rule:nonzero;stroke:none;stroke-width:2.05479455"
             id="path26" /></g><g
           id="g28"
           transform="translate(134.0226,92.5619)"
           style="stroke-width:2.05479455"><path
             d="M 0,0 -6.813,18.004 -13.687,0 Z M 13.99,-17.519 H 6.691 L 2.128,-5.597 h -17.943 l -4.502,-11.922 h -7.3 l 18.736,45.62 h 4.136 z"
             style="fill:#231f20;fill-opacity:1;fill-rule:nonzero;stroke:none;stroke-width:2.05479455"
             id="path30" /></g><path
           d="m 174.196,75.042 h -6.751 v 45.621 h 6.751 z"
           style="fill:#231f20;fill-opacity:1;fill-rule:nonzero;stroke:none;stroke-width:2.05479455"
           id="path32" /><g
           id="g34"
           transform="translate(226.7896,80.6396)"
           style="stroke-width:2.05479455"><path
             d="m 0,0 v -5.597 h -29.744 v 45.621 h 6.752 V 0 Z"
             style="fill:#231f20;fill-opacity:1;fill-rule:nonzero;stroke:none;stroke-width:2.05479455"
             id="path36" /></g><g
           id="g38"
           transform="translate(250.5667,115.0679)"
           style="stroke-width:2.05479455"><path
             d="m 0,0 v -14.234 h 19.284 v -5.597 H 0 V -40.025 H -6.751 V 5.595 H 23.541 V 0 Z"
             style="fill:#231f20;fill-opacity:1;fill-rule:nonzero;stroke:none;stroke-width:2.05479455"
             id="path40" /></g><path
           d="m 301.032,75.042 h -6.751 v 45.621 h 6.751 z"
           style="fill:#231f20;fill-opacity:1;fill-rule:nonzero;stroke:none;stroke-width:2.05479455"
           id="path42" /><g
           id="g44"
           transform="translate(543.7228,82.8906)"
           style="stroke-width:2.05479455"><path
             d="m 0,0 c -2.256,-5.171 -9.019,-8.395 -16.914,-8.455 -6.829,0 -16.125,3.704 -16.888,12.981 l 6.649,-0.176 c 1.09,-4.657 5.227,-7.21 10.239,-7.21 5.451,0.061 9.083,2.008 10.397,5.049 1.004,2.251 0.189,4.685 0.127,4.745 -1.317,3.527 -5.386,4.319 -10.524,5.839 -5.827,1.704 -12.966,3.103 -15.159,9.064 -1.19,3.101 -0.877,6.69 0.752,9.611 3.633,6.69 13.343,6.873 14.407,6.873 6.891,0 15.885,-2.33 16.466,-11.219 h -6.649 c -1.853,4.48 -4.555,5.622 -9.817,5.622 -0.062,0 -6.013,0 -8.143,-3.893 -0.814,-1.52 -1.002,-3.527 -0.437,-5.109 1.252,-3.344 5.259,-4.136 10.271,-5.595 C -9.269,16.362 -2.13,15.024 0.25,8.88 0.439,8.454 1.942,4.317 0,0"
             style="fill:#231f20;fill-opacity:1;fill-rule:nonzero;stroke:none;stroke-width:2.05479455"
             id="path46" /></g><g
           id="g48"
           transform="translate(409.3908,120.6633)"
           style="stroke-width:2.05479455"><path
             d="m 0,0 v -45.621 h -6.751 v 20.014 h -21.473 v -20.014 h -6.751 V 0 h 6.751 V -20.012 H -6.751 V 0 Z"
             style="fill:#231f20;fill-opacity:1;fill-rule:nonzero;stroke:none;stroke-width:2.05479455"
             id="path50" /></g><g
           id="g52"
           transform="translate(459.7439,97.8537)"
           style="stroke-width:2.05479455"><path
             d="m 0,0 c 0,-9.307 5.452,-17.823 14.097,-17.823 8.702,0 14.074,8.516 14.074,17.823 0,9.245 -5.427,17.761 -14.074,17.761 C 5.452,17.761 0,9.245 0,0 m 34.949,0 c 0,-13.261 -9.359,-23.418 -20.852,-23.418 -11.492,0 -20.849,10.157 -20.849,23.418 0,13.261 9.357,23.358 20.849,23.358 C 25.59,23.358 34.949,13.261 34.949,0"
             style="fill:#231f20;fill-opacity:1;fill-rule:nonzero;stroke:none;stroke-width:2.05479455"
             id="path54" /></g><g
           id="g56"
           transform="translate(354.9301,82.8906)"
           style="stroke-width:2.05479455"><path
             d="m 0,0 c -2.256,-5.171 -9.019,-8.395 -16.914,-8.455 -6.829,0 -16.125,3.704 -16.888,12.981 l 6.649,-0.176 c 1.09,-4.657 5.227,-7.21 10.239,-7.21 5.451,0.061 9.083,2.008 10.397,5.049 1.004,2.251 0.189,4.685 0.127,4.745 -1.317,3.527 -5.386,4.319 -10.524,5.839 -5.827,1.704 -12.966,3.103 -15.159,9.064 -1.19,3.101 -0.877,6.69 0.752,9.611 3.633,6.69 13.343,6.873 14.407,6.873 6.891,0 15.885,-2.33 16.466,-11.219 h -6.649 c -1.853,4.48 -4.555,5.622 -9.817,5.622 -0.062,0 -6.013,0 -8.143,-3.893 -0.814,-1.52 -1.002,-3.527 -0.437,-5.109 1.252,-3.344 5.259,-4.136 10.271,-5.595 C -9.269,16.362 -2.13,15.024 0.25,8.88 0.439,8.454 1.942,4.317 0,0"
             style="fill:#231f20;fill-opacity:1;fill-rule:nonzero;stroke:none;stroke-width:2.05479455"
             id="path58" /></g></g></g></g></svg>