<?xml version="1.0" encoding="utf-8"?>
<!-- Generator: Adobe Illustrator 12.0.0, SVG Export Plug-In . SVG Version: 6.00 Build 51448)  -->
<!DOCTYPE svg PUBLIC "-//W3C//DTD SVG 1.1//EN" "http://www.w3.org/Graphics/SVG/1.1/DTD/svg11.dtd" [
	<!ENTITY ns_svg "http://www.w3.org/2000/svg">
	<!ENTITY ns_xlink "http://www.w3.org/1999/xlink">
]>
<svg  version="1.1" xmlns="&ns_svg;" xmlns:xlink="&ns_xlink;" width="701.152" height="239.856" viewBox="0 0 701.152 239.856"
	 overflow="visible" enable-background="new 0 0 701.152 239.856" xml:space="preserve">
<g id="shield">
	<g>
		<g>
			<g>
				<g>
					<radialGradient id="XMLID_2_" cx="117.73" cy="119.9282" r="117.834" gradientUnits="userSpaceOnUse">
						<stop  offset="0" style="stop-color:#FFF19F"/>
						<stop  offset="1" style="stop-color:#FFC941"/>
					</radialGradient>
					<path fill-rule="evenodd" clip-rule="evenodd" fill="url(#XMLID_2_)" d="M7.344,142.15
						c-3.117-14.261-1.453-33.503,2.017-45.792c9.293-32.924,26.398-55.724,52.416-71.712c9.188-5.646,20.121-9.881,31.68-12.96
						c5.087-0.864,10.177-1.729,15.264-2.593c9.315-1.831,21.784-0.65,29.952,1.152c19.257,4.251,33.985,9.43,47.521,19.008
						c4.224,2.989,7.804,6.948,11.808,10.08c6.281,4.913,12.168,11.833,16.416,18.721h0.288
						c-2.263-7.416-12.909-18.38-18.145-23.616C175.886,13.761,149.858,0.275,107.569,1.03c-5.76,0.864-11.521,1.728-17.28,2.592
						C79.533,6.473,69.009,9.974,60.336,15.143C33.736,30.995,16.147,52.436,5.905,84.838c-3.513,11.11-6.688,29.603-3.744,44.353
						c1.204,6.036,2.09,12.266,3.744,17.567c3.018,9.672,5.711,20.293,11.52,27.361v0.287h0.288
						c-1.632-3.744-3.265-7.488-4.896-11.232C10.246,156.705,8.931,149.41,7.344,142.15z M28.369,168.07h0.288
						c-2.453-8.016-6.192-15.869-8.353-25.055c-4.123-17.54-1.016-40.098,4.32-53.569c1.508-3.808,2.212-8.028,4.607-10.944v-0.576
						h0.288c-2.447,8.137-5.237,16.322-7.199,25.92c-2.48,12.131-0.007,27.566,2.88,36.865c8.395,27.045,22.521,47.734,43.775,61.92
						c9.918,6.617,26.223,15.193,42.336,14.975c-1.768,0.838-5.035-0.084-6.912-0.287c-6.885-0.746-13.144-2.051-18.72-4.031
						c-22.713-8.072-41.573-20.236-53.28-39.168h-0.287c2.41,7.553,11.161,16.344,16.416,21.6
						c14.766,14.768,29.408,22.232,53.279,28.223c8.143,2.045,22.421,3.135,31.969,1.152c5.375-1.15,10.752-2.305,16.128-3.455
						c33.744-10.844,56.79-34.176,67.68-67.969c7.727-23.975,4.407-51.71-4.32-71.711c-1.489-3.413-2.663-7.089-4.896-9.792v-0.288
						h-0.288c2.532,8.396,6.175,16.556,8.352,26.208c3.841,17.025,0.358,37.904-4.319,50.976c-1.515,4.23-2.557,9.184-5.185,12.383
						v0.576h-0.288c1.44-3.84,2.881-7.68,4.32-11.52c1.056-5.088,2.112-10.178,3.168-15.263c2.248-11.11,0.195-25.436-2.304-34.272
						c-7.821-27.656-22.2-49.426-43.488-63.647c-10.163-6.79-26.462-15.688-42.912-15.552c2.002-0.942,6.366,0.171,8.353,0.575
						c6.309,1.284,11.748,1.904,16.991,3.744c16.986,5.961,26.905,12.907,39.456,22.752c5.726,4.492,9.17,11.399,14.112,16.704
						v0.288h0.288c-2.326-7.653-11.416-16.887-16.704-22.176c-18.586-18.59-41.715-30.637-79.776-29.952
						c-4.607,0.672-9.216,1.344-13.823,2.016c-9.686,2.528-19.286,5.441-27.072,10.08C42.641,40.46,26.266,60.001,17.424,90.599
						c-2.795,9.672-5.127,25.922-2.592,38.304c1.06,5.176,2.022,10.671,3.456,15.263c2.6,8.33,5.054,17.529,10.08,23.615V168.07z
						 M226.512,80.807c-2.045-4.934-3.842-11.814-7.488-15.265c1.632,3.84,3.265,7.681,4.896,11.521
						c5.109,12.857,9.222,37.882,5.472,55.296c-10.128,47.032-33.675,74.946-74.304,91.295c-20.443,8.227-54.405,9.568-76.032,1.152
						c-16.34-6.359-28.402-14.688-40.896-24.48c-6.772-5.309-10.854-13.328-16.704-19.584v-0.287h-0.288
						c2.472,7.732,12.966,18.725,18.432,24.191c17.662,17.664,33.852,25.627,62.784,32.256c8.326,1.906,22.831,2.82,32.256,0.863
						c6.517-1.352,13.025-2.107,19.008-4.031c34.956-11.238,60.164-35.055,73.44-67.969
						C237.288,140.48,236.722,105.429,226.512,80.807z"/>
				</g>
				<g>
					<path fill="none" stroke="#FFA33F" stroke-width="2" stroke-linecap="round" stroke-linejoin="round" d="M7.344,142.15
						c-3.117-14.261-1.453-33.503,2.017-45.792c9.293-32.924,26.398-55.724,52.416-71.712c9.188-5.646,20.121-9.881,31.68-12.96
						c5.087-0.864,10.177-1.729,15.264-2.593c9.315-1.831,21.784-0.65,29.952,1.152c19.257,4.251,33.985,9.43,47.521,19.008
						c4.224,2.989,7.804,6.948,11.808,10.08c6.281,4.913,12.168,11.833,16.416,18.721h0.288
						c-2.263-7.416-12.909-18.38-18.145-23.616C175.886,13.761,149.858,0.275,107.569,1.03c-5.76,0.864-11.521,1.728-17.28,2.592
						C79.533,6.473,69.009,9.974,60.336,15.143C33.736,30.995,16.147,52.436,5.905,84.838c-3.513,11.11-6.688,29.603-3.744,44.353
						c1.204,6.036,2.09,12.266,3.744,17.567c3.018,9.672,5.711,20.293,11.52,27.361v0.287h0.288
						c-1.632-3.744-3.265-7.488-4.896-11.232C10.246,156.705,8.931,149.41,7.344,142.15z M28.369,168.07h0.288
						c-2.453-8.016-6.192-15.869-8.353-25.055c-4.123-17.54-1.016-40.098,4.32-53.569c1.508-3.808,2.212-8.028,4.607-10.944v-0.576
						h0.288c-2.447,8.137-5.237,16.322-7.199,25.92c-2.48,12.131-0.007,27.566,2.88,36.865c8.395,27.045,22.521,47.734,43.775,61.92
						c9.918,6.617,26.223,15.193,42.336,14.975c-1.768,0.838-5.035-0.084-6.912-0.287c-6.885-0.746-13.144-2.051-18.72-4.031
						c-22.713-8.072-41.573-20.236-53.28-39.168h-0.287c2.41,7.553,11.161,16.344,16.416,21.6
						c14.766,14.768,29.408,22.232,53.279,28.223c8.143,2.045,22.421,3.135,31.969,1.152c5.375-1.15,10.752-2.305,16.128-3.455
						c33.744-10.844,56.79-34.176,67.68-67.969c7.727-23.975,4.407-51.71-4.32-71.711c-1.489-3.413-2.663-7.089-4.896-9.792v-0.288
						h-0.288c2.532,8.396,6.175,16.556,8.352,26.208c3.841,17.025,0.358,37.904-4.319,50.976c-1.515,4.23-2.557,9.184-5.185,12.383
						v0.576h-0.288c1.44-3.84,2.881-7.68,4.32-11.52c1.056-5.088,2.112-10.178,3.168-15.263c2.248-11.11,0.195-25.436-2.304-34.272
						c-7.821-27.656-22.2-49.426-43.488-63.647c-10.163-6.79-26.462-15.688-42.912-15.552c2.002-0.942,6.366,0.171,8.353,0.575
						c6.309,1.284,11.748,1.904,16.991,3.744c16.986,5.961,26.905,12.907,39.456,22.752c5.726,4.492,9.17,11.399,14.112,16.704
						v0.288h0.288c-2.326-7.653-11.416-16.887-16.704-22.176c-18.586-18.59-41.715-30.637-79.776-29.952
						c-4.607,0.672-9.216,1.344-13.823,2.016c-9.686,2.528-19.286,5.441-27.072,10.08C42.641,40.46,26.266,60.001,17.424,90.599
						c-2.795,9.672-5.127,25.922-2.592,38.304c1.06,5.176,2.022,10.671,3.456,15.263c2.6,8.33,5.054,17.529,10.08,23.615V168.07z
						 M226.512,80.807c-2.045-4.934-3.842-11.814-7.488-15.265c1.632,3.84,3.265,7.681,4.896,11.521
						c5.109,12.857,9.222,37.882,5.472,55.296c-10.128,47.032-33.675,74.946-74.304,91.295c-20.443,8.227-54.405,9.568-76.032,1.152
						c-16.34-6.359-28.402-14.688-40.896-24.48c-6.772-5.309-10.854-13.328-16.704-19.584v-0.287h-0.288
						c2.472,7.732,12.966,18.725,18.432,24.191c17.662,17.664,33.852,25.627,62.784,32.256c8.326,1.906,22.831,2.82,32.256,0.863
						c6.517-1.352,13.025-2.107,19.008-4.031c34.956-11.238,60.164-35.055,73.44-67.969
						C237.288,140.48,236.722,105.429,226.512,80.807z"/>
				</g>
			</g>
		</g>
	</g>
</g>
<g id="Syllable_x5F_Outline">
	<g>
		<g>
			<path fill="#6199CC" d="M66.581,77.817c0,21.213,19.609,36.9,35.366,49.505c11.798,9.438,21.988,17.59,21.988,26.24
				c0,9.406-8.789,14.586-24.748,14.586c-11.319,0-24.232-3.144-39.331-9.51c0.486,5.351,2.957,32.527,3.19,35.093
				c13.853,2.527,30.019,5.022,46.304,5.022c59.681,0,61.404-40.349,61.404-44.949c0-19.709-18.349-33.81-34.538-46.25
				c-12.243-9.409-22.817-17.534-22.817-26.591c0-11.727,15.555-14.825,23.78-14.825c9.66,0,20.442,2.31,32.834,6.986
				c-0.421-5.084-2.543-30.726-2.757-33.3c-15.735-2.917-28.882-4.292-41.209-4.292C69.448,35.531,66.581,70.756,66.581,77.817z"/>
			<path fill="#4981B9" d="M126.049,33.532c-54.934,0-61.468,33.154-61.468,44.286c0,37.752,57.354,57.112,57.354,75.745l0,0l0,0
				c0,11.132-14.762,12.586-22.748,12.586c-14.036,0-29.04-5.082-41.624-10.649l0.362,3.983l0,0l0.051,0.56l0,0l3.217,35.387
				c15.73,2.903,31.944,5.323,48.158,5.323c51.787,0,63.403-30.49,63.403-46.947c0-35.815-57.353-53.723-57.353-72.841l0,0l0,0
				c0-10.165,14.278-12.826,21.78-12.826c10.377,0,21.124,2.78,30.944,6.394l0,0c0.139,0.051,0.275,0.102,0.414,0.153l0,0
				c1.26,0.468,2.505,0.949,3.732,1.44l-3.145-37.994C155.088,35.467,140.569,33.532,126.049,33.532L126.049,33.532z
				 M99.188,170.149c4.303,0,10.533-0.412,15.771-2.372c3.175-1.189,5.711-2.836,7.539-4.898c2.281-2.572,3.438-5.707,3.438-9.315
				c0-4.614-2.359-9.235-7.423-14.543c-4.061-4.255-9.528-8.629-15.316-13.259c-7.913-6.33-16.881-13.504-23.611-21.558
				c-7.405-8.861-11.004-17.491-11.004-26.385c0-3.113,0.659-14.021,9.139-23.678c4.305-4.902,10.029-8.782,17.015-11.532
				c8.556-3.368,19.092-5.076,31.314-5.076c11.817,0,24.387,1.267,39.342,3.974l2.371,28.641
				c-11.401-4.038-21.453-6.009-30.581-6.009c-1.987,0-8.961,0.211-15.282,2.926c-3.011,1.293-5.424,2.971-7.172,4.987
				c-2.207,2.545-3.326,5.544-3.326,8.913c0,4.809,2.457,9.552,7.733,14.927c4.228,4.307,9.88,8.65,15.865,13.249
				c7.779,5.979,16.597,12.755,23.143,20.272c7.141,8.202,10.612,16.181,10.612,24.394c0,2.927-0.413,7.541-2.379,12.899
				c-1.922,5.238-4.875,9.937-8.775,13.962c-4.682,4.833-10.701,8.641-17.89,11.316c-8.505,3.165-18.719,4.77-30.359,4.77
				c-15.537,0-31.028-2.3-44.45-4.714l-2.751-30.267c5.105,2.039,9.999,3.713,14.61,4.994
				C84.84,169.011,92.386,170.149,99.188,170.149L99.188,170.149z"/>
		</g>
		<g>
			<path fill="#6199CC" d="M240.549,108.018c-0.795,2.066-4.218,10.954-4.218,10.954c-6.05,15.595-11.764,30.324-15.717,45.345
				c-0.231,0.879-1.025,1.491-1.934,1.491h-0.336c-1.009,0-1.861-0.752-1.985-1.754c-1.592-12.851-5.152-25.577-8.921-39.051
				c-1.551-5.545-3.136-11.267-4.582-16.986c-2.552,0-23.853,0-28.266,0c1.664,4.954,27.842,82.875,27.842,82.875
				c0.069,0.206,0.104,0.421,0.104,0.637c0,0.18-0.024,0.36-0.073,0.535c-3.087,11.117-9.784,16.754-19.903,16.754
				c-4.104,0-8.653-0.882-13.522-2.534c0.637,4.551,2.407,17.211,2.706,19.345c6.319,1.334,12.499,2.037,18.376,2.037
				c24.348,0,30.487-11.164,38.489-29.381c0,0,36.978-85.003,39.267-90.267C263.13,108.018,242.811,108.018,240.549,108.018z"/>
			<path fill="#4981B9" d="M270.927,106.018h-31.752c-7.391,19.489-15.456,38.64-20.496,57.791h-0.336
				c-2.351-18.983-9.071-38.135-13.943-57.791h-32.592l1.273,3.792l0,0l0.07,0.208l0,0l27.384,81.51l0,0l0,0
				c-2.52,9.073-7.896,15.29-17.976,15.29c-5.376,0-10.92-1.514-15.96-3.53l0.554,3.962l0,0l0.079,0.56l0,0l2.728,19.503
				c6.72,1.513,13.44,2.353,20.16,2.353c25.872,0,32.424-12.599,40.32-30.576l38.747-89.07l0,0l0.145-0.333l0,0L270.927,106.018
				L270.927,106.018z M241.932,110.018h22.894l-38.053,87.475c0.001-0.002,0.002-0.004,0.002-0.006
				c-3.849,8.764-7.212,15.852-12.463,20.689c-2.659,2.449-5.719,4.23-9.354,5.445c-4.115,1.375-8.969,2.043-14.837,2.043
				c-5.314,0-10.883-0.567-16.588-1.688l-2.072-14.812c3.938,1.099,7.653,1.652,11.1,1.652c7.65,0,17.648-3.161,21.83-18.22
				c0.214-0.771,0.192-1.586-0.062-2.345l-26.957-80.235h23.913c1.348,5.236,2.808,10.452,4.226,15.523
				c3.748,13.4,7.289,26.057,8.862,38.76c0.248,2.003,1.951,3.508,3.97,3.508h0.336c1.817,0,3.406-1.226,3.868-2.982
				c3.923-14.907,9.615-29.58,15.641-45.114C239.421,116.538,240.686,113.277,241.932,110.018L241.932,110.018z"/>
		</g>
		<g>
			<path fill="#6199CC" d="M277.252,79.794c-1.082,39.047-2.989,74.446-5.819,108.055c3.556,0,26.065,0,29.301,0
				c0.615-29.895,3.994-87.806,5.813-108.055C302.953,79.794,280.456,79.794,277.252,79.794z"/>
			<path fill="#4981B9" d="M308.742,77.795h-33.432c-1.008,37.463-2.855,74.76-6.048,112.054h4l0,0h0.014l0,0h29.418
				c0.473-27.577,3.754-85.454,5.684-108.054l0,0c0-0.006,0.001-0.011,0.001-0.017l0,0
				C308.507,80.292,308.628,78.957,308.742,77.795L308.742,77.795z M279.202,81.795h25.163c-1.817,21.51-4.896,74.668-5.589,104.054
				h-25.163C276.3,153.418,278.133,119.288,279.202,81.795L279.202,81.795z"/>
		</g>
		<g>
			<path fill="#6199CC" d="M323.955,79.794c-1.082,39.051-2.989,74.45-5.82,108.055c3.556,0,26.067,0,29.303,0
				c0.615-29.899,3.994-87.809,5.813-108.055C349.656,79.794,327.159,79.794,323.955,79.794z"/>
			<path fill="#4981B9" d="M355.445,77.795h-33.432c-1.008,37.463-2.855,74.76-6.049,112.054h4l0,0h0.015l0,0h29.42
				c0.473-27.577,3.753-85.454,5.683-108.054l0,0c0-0.006,0.001-0.011,0.001-0.017l0,0C355.21,80.292,355.331,78.957,355.445,77.795
				L355.445,77.795z M325.905,81.795h25.163c-1.816,21.507-4.895,74.664-5.588,104.054h-25.165
				C323.003,153.422,324.836,119.292,325.905,81.795L325.905,81.795z"/>
		</g>
		<g>
			<path fill="#6199CC" d="M375.679,110.875c-0.316,1.932-1.879,11.466-2.589,15.795c9.608-3.408,21.378-6.86,32.585-6.86
				c7.892,0,12.418,3.179,12.418,8.721c0,7.425-9.792,9.472-21.13,11.841c-16.109,3.366-36.158,7.556-36.158,27.47
				c0,3.678,1.402,22.023,29.077,22.023c3.959,0,7.877-0.304,11.908-0.848c0.53-1.749,2.883-9.52,4.133-13.648
				c-1.951,0.41-3.932,0.689-5.959,0.689c-7.037,0-11.238-3.26-11.238-8.721c0-8.078,9.702-10.935,17.498-13.229
				c3.635-1.069,7.067-2.08,8.888-3.358c0.626-0.439,1.448-0.482,2.118-0.111c0.639,0.354,1.031,1.026,1.031,1.751
				c0,0.035-0.001,0.07-0.003,0.105l-0.338,6.438c-0.489,9.495-1.038,19.279-2.004,28.916c3.534,0,24.844,0,28.092,0
				c0.13-11.758,1.31-32.588,2.105-46.645c0.412-7.27,0.737-13.011,0.737-14.355c0-9.707-3.782-20.848-33.277-20.848
				C402.594,106.002,390.505,107.563,375.679,110.875z"/>
			<path fill="#4981B9" d="M413.574,104.003c-12.938,0-26.379,2.183-39.649,5.208l-3.359,20.496
				c1.236-0.457,2.491-0.911,3.763-1.358l0,0c0.182-0.063,0.363-0.127,0.545-0.19l0,0c9.815-3.419,20.565-6.349,30.802-6.349
				c4.536,0,10.418,1.177,10.418,6.721l0,0l0,0c0,14.782-57.288,3.863-57.288,39.312c0,1.848,0.336,24.021,31.077,24.021
				c4.54,0,8.907-0.336,13.442-1.007l4.152-13.72l0,0l0.231-0.763l0,0l1.159-3.829c-2.856,1.009-5.879,1.513-8.903,1.513
				c-4.535,0-9.238-1.513-9.238-6.721l0,0l0,0c0-9.911,19.317-10.584,25.535-14.95l0,0l0,0c-0.672,12.43-1.175,25.029-2.519,37.462
				h4l0,0h0.022l0,0h28.231c0-16.799,2.854-58.799,2.854-62.999C448.85,112.907,440.117,104.003,413.574,104.003L413.574,104.003z
				 M377.434,112.525c14.086-3.082,25.628-4.522,36.14-4.522c11.753,0,20.249,1.83,25.252,5.439
				c4.109,2.965,6.024,7.226,6.024,13.408c0,1.287-0.34,7.29-0.733,14.241c-0.754,13.313-1.853,32.703-2.079,44.758h-23.875
				c0.833-8.958,1.301-18.003,1.754-26.79c0.108-2.119,0.222-4.311,0.338-6.456c0.083-1.529-0.715-2.973-2.054-3.714
				c-0.605-0.336-1.274-0.502-1.94-0.502c-0.808-0.001-1.612,0.244-2.299,0.727c-1.55,1.089-4.983,2.099-8.303,3.076
				c-3.854,1.135-8.224,2.421-11.691,4.37c-2.146,1.207-3.771,2.552-4.968,4.111c-1.509,1.97-2.274,4.213-2.274,6.666
				c0,3.787,1.735,6.897,4.886,8.758c2.204,1.303,5.016,1.963,8.353,1.963c1.042,0,2.076-0.052,3.102-0.153l-2.824,9.331
				c-3.497,0.422-6.908,0.628-10.359,0.628c-6.43,0-11.84-1.041-16.082-3.094c-3.239-1.568-5.822-3.746-7.677-6.474
				c-3.158-4.645-3.318-9.523-3.318-10.454c0-8.123,3.382-13.85,10.644-18.022c6.811-3.914,15.902-5.814,23.925-7.49
				c5.456-1.14,10.608-2.217,14.499-3.826c2.4-0.993,4.214-2.141,5.544-3.509c1.751-1.803,2.677-4.038,2.677-6.464
				c0-4.028-2.047-7.238-5.764-9.039c-2.304-1.116-5.215-1.682-8.654-1.682c-10.273,0-20.947,2.803-30.068,5.869L377.434,112.525
				L377.434,112.525z"/>
		</g>
		<g>
			<path fill="#6199CC" d="M465.921,79.794c-0.551,35.926-2.898,71.641-5.516,108.055c3.456,0,23.438,0,26.629,0
				c0.042-2.608,0.137-8.615,0.137-8.615c0.018-1.093,0.908-1.969,2-1.969h0.336c0.623,0,1.211,0.29,1.589,0.785
				c6.078,7.95,14.131,11.814,24.618,11.814c26.472,0,38.32-22.789,38.32-45.375c0-24.819-13.967-38.488-39.328-38.488
				c-3.33,0-6.594,0.166-9.701,0.493c-3.149,0.315-6.238,0.787-9.731,1.484c-0.606,0.121-1.237-0.047-1.703-0.451
				c-0.438-0.381-0.688-0.933-0.688-1.51c0-0.037,0.001-0.075,0.003-0.112c0.554-9.83,1.179-18.126,2.247-26.111
				C491.429,79.794,469.128,79.794,465.921,79.794z M489.523,148.185c0-6.059,0.558-12.535,1.704-19.799
				c0.125-0.792,0.712-1.434,1.49-1.628c3.965-0.991,8.254-1.908,12.751-1.908c12.93,0,20.648,8.158,20.648,21.824
				c0,11.725-5.778,24.344-18.465,24.344C495.196,171.017,489.523,159.182,489.523,148.185z"/>
			<path fill="#4981B9" d="M497.406,77.795h-33.435c-0.504,37.463-3.022,74.76-5.711,112.054h4l0,0h0.011l0,0h26.732l0.168-10.584
				h0.335c6.551,8.567,15.122,12.599,26.207,12.599c27.051,0,40.321-22.678,40.321-47.374c0-26.375-15.453-40.487-41.328-40.487
				c-3.36,0-6.719,0.168-9.91,0.504c-3.36,0.335-6.551,0.839-9.915,1.511l0,0l0,0c0.562-9.971,1.123-17.357,1.981-24.223l0,0
				c0.002-0.012,0.003-0.024,0.005-0.036l0,0C497.035,80.423,497.213,79.106,497.406,77.795L497.406,77.795z M467.911,81.795h24.923
				c-0.897,7.351-1.441,15.052-1.946,23.998c-0.068,1.236,0.438,2.434,1.372,3.245c0.734,0.638,1.668,0.98,2.623,0.98
				c0.261,0,0.522-0.025,0.783-0.077c3.431-0.686,6.459-1.148,9.528-1.454c0.007,0,0.015-0.001,0.021-0.002
				c3.037-0.32,6.231-0.482,9.491-0.482c5.996,0,11.407,0.808,16.082,2.403c4.531,1.545,8.404,3.844,11.513,6.833
				c3.127,3.007,5.536,6.769,7.161,11.18c1.707,4.635,2.572,10.042,2.572,16.071c0,11.93-3.266,22.769-9.193,30.519
				c-3.094,4.043-6.861,7.188-11.198,9.346c-4.681,2.329-10.041,3.51-15.93,3.51c-9.959,0-17.276-3.504-23.029-11.029
				c-0.757-0.988-1.932-1.569-3.178-1.569h-0.335c-2.184,0-3.965,1.752-3.999,3.937l-0.105,6.647h-22.509
				C465.069,150.816,467.317,116.419,467.911,81.795L467.911,81.795z M505.467,122.85c-4.714,0-9.146,0.946-13.235,1.968
				c-1.557,0.39-2.73,1.672-2.98,3.257c-1.163,7.368-1.729,13.947-1.729,20.111c0,6.105,1.573,11.879,4.431,16.256
				c1.714,2.626,3.849,4.695,6.346,6.148c2.768,1.61,5.915,2.428,9.354,2.428c3.595,0,6.868-0.912,9.732-2.71
				c2.528-1.587,4.68-3.834,6.397-6.678c2.755-4.562,4.335-10.742,4.335-16.956c0-3.442-0.456-6.611-1.356-9.42
				c-0.956-2.986-2.415-5.579-4.336-7.707c-1.991-2.206-4.459-3.896-7.338-5.025C512.254,123.413,509.018,122.85,505.467,122.85
				L505.467,122.85z M491.522,148.186c0-6.551,0.673-13.103,1.681-19.487c4.035-1.009,8.065-1.849,12.265-1.849
				c12.435,0,18.649,7.729,18.649,19.824l0,0l0,0c0,9.911-4.535,22.344-16.465,22.344
				C496.225,169.018,491.522,157.93,491.522,148.186L491.522,148.186L491.522,148.186z"/>
		</g>
		<g>
			<path fill="#6199CC" d="M571.905,79.794c-1.081,39.043-2.987,74.442-5.817,108.055c3.556,0,26.063,0,29.299,0
				c0.616-29.934,3.996-87.832,5.816-108.055C597.607,79.794,575.109,79.794,571.905,79.794z"/>
			<path fill="#4981B9" d="M603.397,77.795h-33.434c-1.007,37.463-2.854,74.76-6.046,112.054h4l0,0h0.014l0,0h29.415
				c0.473-27.577,3.754-85.454,5.687-108.054l0,0c0.001-0.006,0.001-0.011,0.002-0.017l0,0
				C603.162,80.292,603.283,78.957,603.397,77.795L603.397,77.795z M573.855,81.795h25.164
				c-1.817,21.495-4.898,74.645-5.591,104.054h-25.16C570.957,153.393,572.789,119.267,573.855,81.795L573.855,81.795z"/>
		</g>
		<g>
			<path fill="#6199CC" d="M617.321,125.06c-6.547,10.691-7.056,22.333-7.056,25.647c0,26.716,15.272,39.158,48.063,39.158
				c8.786,0,18.035-0.995,27.498-2.902c0.359-2.092,2.508-14.631,3.26-19.019c-8.438,2.382-17.725,4.753-26.891,4.753
				c-11.606,0-24.008-5.203-24.008-19.807c0-1.104,0.896-2,2-2c0,0,52.81,0,56.062,0c0.568-3.348,0.903-6.811,0.903-10.6
				c0-22.111-14.444-34.289-40.672-34.289C638.239,106.002,625.063,112.414,617.321,125.06z M639.701,138.931
				c-0.379-0.426-0.559-0.994-0.492-1.561c0.927-7.972,6.622-16.552,16.936-16.552c6.432,0,14.098,2.912,14.098,16.783
				c0,1.104-0.896,2-2,2h-27.047C640.625,139.601,640.081,139.358,639.701,138.931z"/>
			<path fill="#4981B9" d="M656.479,104.003c-44.687,0-48.215,37.8-48.215,46.704c0,33.094,23.353,41.157,50.063,41.157
				c9.746,0,19.656-1.175,29.233-3.19l3.282-19.147l0,0l0.073-0.432l0,0l0.676-3.942c-9.406,2.69-19.488,5.545-29.397,5.545
				c-11.091,0-22.009-4.703-22.009-17.806l0,0l0,0h57.789c0.84-4.201,1.177-8.401,1.177-12.601
				C699.152,116.938,684.035,104.003,656.479,104.003L656.479,104.003z M658.328,187.864c-14.567,0-25.303-2.45-32.821-7.491
				c-4.242-2.844-7.373-6.445-9.572-11.01c-2.435-5.054-3.67-11.331-3.67-18.656c0-1.444,0.113-5.333,1.16-10.215
				c1.149-5.353,3.033-10.194,5.601-14.387c7.355-12.012,19.956-18.102,37.454-18.102c17.643,0,38.673,5.602,38.673,32.288
				c0,3.039-0.184,5.878-0.558,8.601h-54.408c-2.209,0-4,1.791-4,4c0,7.357,2.971,13.277,8.588,17.119
				c5.667,3.874,12.602,4.687,17.421,4.687c8.323,0,16.657-1.878,24.385-3.98l-2.498,14.577
				C675.22,187,666.568,187.864,658.328,187.864L658.328,187.864z M656.143,118.819c-5.338,0-10.021,2.08-13.542,6.016
				c-2.927,3.272-4.838,7.642-5.38,12.305c-0.132,1.134,0.228,2.27,0.986,3.123c0.759,0.852,1.846,1.34,2.987,1.34h27.047
				c1.061,0,2.078-0.421,2.828-1.172c0.751-0.75,1.172-1.767,1.172-2.828c0-5.807-1.319-10.372-3.921-13.57
				c-1.431-1.757-3.232-3.093-5.356-3.97C660.967,119.237,658.673,118.819,656.143,118.819L656.143,118.819z M641.195,137.602
				c0.84-7.223,5.879-14.783,14.948-14.783c8.067,0,12.099,5.039,12.099,14.783l0,0l0,0H641.195L641.195,137.602L641.195,137.602
				L641.195,137.602z"/>
		</g>
	</g>
</g>
<g id="yllable_x5F_Outline">
	<g>
		<g>
			<path fill="#6199CC" d="M240.549,108.018c-0.795,2.066-4.218,10.954-4.218,10.954c-6.05,15.595-11.764,30.324-15.717,45.345
				c-0.231,0.879-1.025,1.491-1.934,1.491h-0.336c-1.009,0-1.861-0.752-1.985-1.754c-1.592-12.851-5.152-25.577-8.921-39.051
				c-1.551-5.545-3.136-11.267-4.582-16.986c-2.552,0-23.853,0-28.266,0c1.664,4.954,27.842,82.875,27.842,82.875
				c0.069,0.206,0.104,0.421,0.104,0.637c0,0.18-0.024,0.36-0.073,0.535c-3.087,11.117-9.784,16.754-19.903,16.754
				c-4.104,0-8.653-0.882-13.522-2.534c0.637,4.551,2.407,17.211,2.706,19.345c6.319,1.334,12.499,2.037,18.376,2.037
				c24.348,0,30.487-11.164,38.489-29.381c0,0,36.978-85.003,39.267-90.267C263.13,108.018,242.811,108.018,240.549,108.018z"/>
			<path fill="#4981B9" d="M270.927,106.018h-31.752c-7.391,19.489-15.456,38.64-20.496,57.791h-0.336
				c-2.351-18.983-9.071-38.135-13.943-57.791h-32.592l1.273,3.792l0,0l0.07,0.208l0,0l27.384,81.51l0,0l0,0
				c-2.52,9.073-7.896,15.29-17.976,15.29c-5.376,0-10.92-1.514-15.96-3.53l0.554,3.962l0,0l0.079,0.56l0,0l2.728,19.503
				c6.72,1.513,13.44,2.353,20.16,2.353c25.872,0,32.424-12.599,40.32-30.576l38.747-89.07l0,0l0.145-0.333l0,0L270.927,106.018
				L270.927,106.018z M241.932,110.018h22.894l-38.053,87.475c0.001-0.002,0.002-0.004,0.002-0.006
				c-3.849,8.764-7.212,15.852-12.463,20.689c-2.659,2.449-5.719,4.23-9.354,5.445c-4.115,1.375-8.969,2.043-14.837,2.043
				c-5.314,0-10.883-0.567-16.588-1.688l-2.072-14.812c3.938,1.099,7.653,1.652,11.1,1.652c7.65,0,17.648-3.161,21.83-18.22
				c0.214-0.771,0.192-1.586-0.062-2.345l-26.957-80.235h23.913c1.348,5.236,2.808,10.452,4.226,15.523
				c3.748,13.4,7.289,26.057,8.862,38.76c0.248,2.003,1.951,3.508,3.97,3.508h0.336c1.817,0,3.406-1.226,3.868-2.982
				c3.923-14.907,9.615-29.58,15.641-45.114C239.421,116.538,240.686,113.277,241.932,110.018L241.932,110.018z"/>
		</g>
		<g>
			<path fill="#6199CC" d="M277.252,79.794c-1.082,39.047-2.989,74.446-5.819,108.055c3.556,0,26.065,0,29.301,0
				c0.615-29.895,3.994-87.806,5.813-108.055C302.953,79.794,280.456,79.794,277.252,79.794z"/>
			<path fill="#4981B9" d="M308.742,77.795h-33.432c-1.008,37.463-2.855,74.76-6.048,112.054h4l0,0h0.014l0,0h29.418
				c0.473-27.577,3.754-85.454,5.684-108.054l0,0c0-0.006,0.001-0.011,0.001-0.017l0,0
				C308.507,80.292,308.628,78.957,308.742,77.795L308.742,77.795z M279.202,81.795h25.163c-1.817,21.51-4.896,74.668-5.589,104.054
				h-25.163C276.3,153.418,278.133,119.288,279.202,81.795L279.202,81.795z"/>
		</g>
		<g>
			<path fill="#6199CC" d="M323.955,79.794c-1.082,39.051-2.989,74.45-5.82,108.055c3.556,0,26.067,0,29.303,0
				c0.615-29.899,3.994-87.809,5.813-108.055C349.656,79.794,327.159,79.794,323.955,79.794z"/>
			<path fill="#4981B9" d="M355.445,77.795h-33.432c-1.008,37.463-2.855,74.76-6.049,112.054h4l0,0h0.015l0,0h29.42
				c0.473-27.577,3.753-85.454,5.683-108.054l0,0c0-0.006,0.001-0.011,0.001-0.017l0,0C355.21,80.292,355.331,78.957,355.445,77.795
				L355.445,77.795z M325.905,81.795h25.163c-1.816,21.507-4.895,74.664-5.588,104.054h-25.165
				C323.003,153.422,324.836,119.292,325.905,81.795L325.905,81.795z"/>
		</g>
		<g>
			<path fill="#6199CC" d="M375.679,110.875c-0.316,1.932-1.879,11.466-2.589,15.795c9.608-3.408,21.378-6.86,32.585-6.86
				c7.892,0,12.418,3.179,12.418,8.721c0,7.425-9.792,9.472-21.13,11.841c-16.109,3.366-36.158,7.556-36.158,27.47
				c0,3.678,1.402,22.023,29.077,22.023c3.959,0,7.877-0.304,11.908-0.848c0.53-1.749,2.883-9.52,4.133-13.648
				c-1.951,0.41-3.932,0.689-5.959,0.689c-7.037,0-11.238-3.26-11.238-8.721c0-8.078,9.702-10.935,17.498-13.229
				c3.635-1.069,7.067-2.08,8.888-3.358c0.626-0.439,1.448-0.482,2.118-0.111c0.639,0.354,1.031,1.026,1.031,1.751
				c0,0.035-0.001,0.07-0.003,0.105l-0.338,6.438c-0.489,9.495-1.038,19.279-2.004,28.916c3.534,0,24.844,0,28.092,0
				c0.13-11.758,1.31-32.588,2.105-46.645c0.412-7.27,0.737-13.011,0.737-14.355c0-9.707-3.782-20.848-33.277-20.848
				C402.594,106.002,390.505,107.563,375.679,110.875z"/>
			<path fill="#4981B9" d="M413.574,104.003c-12.938,0-26.379,2.183-39.649,5.208l-3.359,20.496
				c1.236-0.457,2.491-0.911,3.763-1.358l0,0c0.182-0.063,0.363-0.127,0.545-0.19l0,0c9.815-3.419,20.565-6.349,30.802-6.349
				c4.536,0,10.418,1.177,10.418,6.721l0,0l0,0c0,14.782-57.288,3.863-57.288,39.312c0,1.848,0.336,24.021,31.077,24.021
				c4.54,0,8.907-0.336,13.442-1.007l4.152-13.72l0,0l0.231-0.763l0,0l1.159-3.829c-2.856,1.009-5.879,1.513-8.903,1.513
				c-4.535,0-9.238-1.513-9.238-6.721l0,0l0,0c0-9.911,19.317-10.584,25.535-14.95l0,0l0,0c-0.672,12.43-1.175,25.029-2.519,37.462
				h4l0,0h0.022l0,0h28.231c0-16.799,2.854-58.799,2.854-62.999C448.85,112.907,440.117,104.003,413.574,104.003L413.574,104.003z
				 M377.434,112.525c14.086-3.082,25.628-4.522,36.14-4.522c11.753,0,20.249,1.83,25.252,5.439
				c4.109,2.965,6.024,7.226,6.024,13.408c0,1.287-0.34,7.29-0.733,14.241c-0.754,13.313-1.853,32.703-2.079,44.758h-23.875
				c0.833-8.958,1.301-18.003,1.754-26.79c0.108-2.119,0.222-4.311,0.338-6.456c0.083-1.529-0.715-2.973-2.054-3.714
				c-0.605-0.336-1.274-0.502-1.94-0.502c-0.808-0.001-1.612,0.244-2.299,0.727c-1.55,1.089-4.983,2.099-8.303,3.076
				c-3.854,1.135-8.224,2.421-11.691,4.37c-2.146,1.207-3.771,2.552-4.968,4.111c-1.509,1.97-2.274,4.213-2.274,6.666
				c0,3.787,1.735,6.897,4.886,8.758c2.204,1.303,5.016,1.963,8.353,1.963c1.042,0,2.076-0.052,3.102-0.153l-2.824,9.331
				c-3.497,0.422-6.908,0.628-10.359,0.628c-6.43,0-11.84-1.041-16.082-3.094c-3.239-1.568-5.822-3.746-7.677-6.474
				c-3.158-4.645-3.318-9.523-3.318-10.454c0-8.123,3.382-13.85,10.644-18.022c6.811-3.914,15.902-5.814,23.925-7.49
				c5.456-1.14,10.608-2.217,14.499-3.826c2.4-0.993,4.214-2.141,5.544-3.509c1.751-1.803,2.677-4.038,2.677-6.464
				c0-4.028-2.047-7.238-5.764-9.039c-2.304-1.116-5.215-1.682-8.654-1.682c-10.273,0-20.947,2.803-30.068,5.869L377.434,112.525
				L377.434,112.525z"/>
		</g>
		<g>
			<path fill="#6199CC" d="M465.921,79.794c-0.551,35.926-2.898,71.641-5.516,108.055c3.456,0,23.438,0,26.629,0
				c0.042-2.608,0.137-8.615,0.137-8.615c0.018-1.093,0.908-1.969,2-1.969h0.336c0.623,0,1.211,0.29,1.589,0.785
				c6.078,7.95,14.131,11.814,24.618,11.814c26.472,0,38.32-22.789,38.32-45.375c0-24.819-13.967-38.488-39.328-38.488
				c-3.33,0-6.594,0.166-9.701,0.493c-3.149,0.315-6.238,0.787-9.731,1.484c-0.606,0.121-1.237-0.047-1.703-0.451
				c-0.438-0.381-0.688-0.933-0.688-1.51c0-0.037,0.001-0.075,0.003-0.112c0.554-9.83,1.179-18.126,2.247-26.111
				C491.429,79.794,469.128,79.794,465.921,79.794z M489.523,148.185c0-6.059,0.558-12.535,1.704-19.799
				c0.125-0.792,0.712-1.434,1.49-1.628c3.965-0.991,8.254-1.908,12.751-1.908c12.93,0,20.648,8.158,20.648,21.824
				c0,11.725-5.778,24.344-18.465,24.344C495.196,171.017,489.523,159.182,489.523,148.185z"/>
			<path fill="#4981B9" d="M497.406,77.795h-33.435c-0.504,37.463-3.022,74.76-5.711,112.054h4l0,0h0.011l0,0h26.732l0.168-10.584
				h0.335c6.551,8.567,15.122,12.599,26.207,12.599c27.051,0,40.321-22.678,40.321-47.374c0-26.375-15.453-40.487-41.328-40.487
				c-3.36,0-6.719,0.168-9.91,0.504c-3.36,0.335-6.551,0.839-9.915,1.511l0,0l0,0c0.562-9.971,1.123-17.357,1.981-24.223l0,0
				c0.002-0.012,0.003-0.024,0.005-0.036l0,0C497.035,80.423,497.213,79.106,497.406,77.795L497.406,77.795z M467.911,81.795h24.923
				c-0.897,7.351-1.441,15.052-1.946,23.998c-0.068,1.236,0.438,2.434,1.372,3.245c0.734,0.638,1.668,0.98,2.623,0.98
				c0.261,0,0.522-0.025,0.783-0.077c3.431-0.686,6.459-1.148,9.528-1.454c0.007,0,0.015-0.001,0.021-0.002
				c3.037-0.32,6.231-0.482,9.491-0.482c5.996,0,11.407,0.808,16.082,2.403c4.531,1.545,8.404,3.844,11.513,6.833
				c3.127,3.007,5.536,6.769,7.161,11.18c1.707,4.635,2.572,10.042,2.572,16.071c0,11.93-3.266,22.769-9.193,30.519
				c-3.094,4.043-6.861,7.188-11.198,9.346c-4.681,2.329-10.041,3.51-15.93,3.51c-9.959,0-17.276-3.504-23.029-11.029
				c-0.757-0.988-1.932-1.569-3.178-1.569h-0.335c-2.184,0-3.965,1.752-3.999,3.937l-0.105,6.647h-22.509
				C465.069,150.816,467.317,116.419,467.911,81.795L467.911,81.795z M505.467,122.85c-4.714,0-9.146,0.946-13.235,1.968
				c-1.557,0.39-2.73,1.672-2.98,3.257c-1.163,7.368-1.729,13.947-1.729,20.111c0,6.105,1.573,11.879,4.431,16.256
				c1.714,2.626,3.849,4.695,6.346,6.148c2.768,1.61,5.915,2.428,9.354,2.428c3.595,0,6.868-0.912,9.732-2.71
				c2.528-1.587,4.68-3.834,6.397-6.678c2.755-4.562,4.335-10.742,4.335-16.956c0-3.442-0.456-6.611-1.356-9.42
				c-0.956-2.986-2.415-5.579-4.336-7.707c-1.991-2.206-4.459-3.896-7.338-5.025C512.254,123.413,509.018,122.85,505.467,122.85
				L505.467,122.85z M491.522,148.186c0-6.551,0.673-13.103,1.681-19.487c4.035-1.009,8.065-1.849,12.265-1.849
				c12.435,0,18.649,7.729,18.649,19.824l0,0l0,0c0,9.911-4.535,22.344-16.465,22.344
				C496.225,169.018,491.522,157.93,491.522,148.186L491.522,148.186L491.522,148.186z"/>
		</g>
		<g>
			<path fill="#6199CC" d="M571.905,79.794c-1.081,39.043-2.987,74.442-5.817,108.055c3.556,0,26.063,0,29.299,0
				c0.616-29.934,3.996-87.832,5.816-108.055C597.607,79.794,575.109,79.794,571.905,79.794z"/>
			<path fill="#4981B9" d="M603.397,77.795h-33.434c-1.007,37.463-2.854,74.76-6.046,112.054h4l0,0h0.014l0,0h29.415
				c0.473-27.577,3.754-85.454,5.687-108.054l0,0c0.001-0.006,0.001-0.011,0.002-0.017l0,0
				C603.162,80.292,603.283,78.957,603.397,77.795L603.397,77.795z M573.855,81.795h25.164
				c-1.817,21.495-4.898,74.645-5.591,104.054h-25.16C570.957,153.393,572.789,119.267,573.855,81.795L573.855,81.795z"/>
		</g>
		<g>
			<path fill="#6199CC" d="M617.321,125.06c-6.547,10.691-7.056,22.333-7.056,25.647c0,26.716,15.272,39.158,48.063,39.158
				c8.786,0,18.035-0.995,27.498-2.902c0.359-2.092,2.508-14.631,3.26-19.019c-8.438,2.382-17.725,4.753-26.891,4.753
				c-11.606,0-24.008-5.203-24.008-19.807c0-1.104,0.896-2,2-2c0,0,52.81,0,56.062,0c0.568-3.348,0.903-6.811,0.903-10.6
				c0-22.111-14.444-34.289-40.672-34.289C638.239,106.002,625.063,112.414,617.321,125.06z M639.701,138.931
				c-0.379-0.426-0.559-0.994-0.492-1.561c0.927-7.972,6.622-16.552,16.936-16.552c6.432,0,14.098,2.912,14.098,16.783
				c0,1.104-0.896,2-2,2h-27.047C640.625,139.601,640.081,139.358,639.701,138.931z"/>
			<path fill="#4981B9" d="M656.479,104.003c-44.687,0-48.215,37.8-48.215,46.704c0,33.094,23.353,41.157,50.063,41.157
				c9.746,0,19.656-1.175,29.233-3.19l3.282-19.147l0,0l0.073-0.432l0,0l0.676-3.942c-9.406,2.69-19.488,5.545-29.397,5.545
				c-11.091,0-22.009-4.703-22.009-17.806l0,0l0,0h57.789c0.84-4.201,1.177-8.401,1.177-12.601
				C699.152,116.938,684.035,104.003,656.479,104.003L656.479,104.003z M658.328,187.864c-14.567,0-25.303-2.45-32.821-7.491
				c-4.242-2.844-7.373-6.445-9.572-11.01c-2.435-5.054-3.67-11.331-3.67-18.656c0-1.444,0.113-5.333,1.16-10.215
				c1.149-5.353,3.033-10.194,5.601-14.387c7.355-12.012,19.956-18.102,37.454-18.102c17.643,0,38.673,5.602,38.673,32.288
				c0,3.039-0.184,5.878-0.558,8.601h-54.408c-2.209,0-4,1.791-4,4c0,7.357,2.971,13.277,8.588,17.119
				c5.667,3.874,12.602,4.687,17.421,4.687c8.323,0,16.657-1.878,24.385-3.98l-2.498,14.577
				C675.22,187,666.568,187.864,658.328,187.864L658.328,187.864z M656.143,118.819c-5.338,0-10.021,2.08-13.542,6.016
				c-2.927,3.272-4.838,7.642-5.38,12.305c-0.132,1.134,0.228,2.27,0.986,3.123c0.759,0.852,1.846,1.34,2.987,1.34h27.047
				c1.061,0,2.078-0.421,2.828-1.172c0.751-0.75,1.172-1.767,1.172-2.828c0-5.807-1.319-10.372-3.921-13.57
				c-1.431-1.757-3.232-3.093-5.356-3.97C660.967,119.237,658.673,118.819,656.143,118.819L656.143,118.819z M641.195,137.602
				c0.84-7.223,5.879-14.783,14.948-14.783c8.067,0,12.099,5.039,12.099,14.783l0,0l0,0H641.195L641.195,137.602L641.195,137.602
				L641.195,137.602z"/>
		</g>
	</g>
</g>
<g id="S_x5F_Outline">
	<g>
		<g>
			<path fill="#6199CC" d="M66.581,77.817c0,21.213,19.609,36.9,35.366,49.505c11.798,9.438,21.988,17.59,21.988,26.24
				c0,9.406-8.789,14.586-24.748,14.586c-11.319,0-24.232-3.144-39.331-9.51c0.486,5.351,2.957,32.527,3.19,35.093
				c13.853,2.527,30.019,5.022,46.304,5.022c59.681,0,61.404-40.349,61.404-44.949c0-19.709-18.349-33.81-34.538-46.25
				c-12.243-9.409-22.817-17.534-22.817-26.591c0-11.727,15.555-14.825,23.78-14.825c9.66,0,20.442,2.31,32.834,6.986
				c-0.421-5.084-2.543-30.726-2.757-33.3c-15.735-2.917-28.882-4.292-41.209-4.292C69.448,35.531,66.581,70.756,66.581,77.817z"/>
			<path fill="#4981B9" d="M126.049,33.532c-54.934,0-61.468,33.154-61.468,44.286c0,37.752,57.354,57.112,57.354,75.745l0,0l0,0
				c0,11.132-14.762,12.586-22.748,12.586c-14.036,0-29.04-5.082-41.624-10.649l0.362,3.983l0,0l0.051,0.56l0,0l3.217,35.387
				c15.73,2.903,31.944,5.323,48.158,5.323c51.787,0,63.403-30.49,63.403-46.947c0-35.815-57.353-53.723-57.353-72.841l0,0l0,0
				c0-10.165,14.278-12.826,21.78-12.826c10.377,0,21.124,2.78,30.944,6.394l0,0c0.139,0.051,0.275,0.102,0.414,0.153l0,0
				c1.26,0.468,2.505,0.949,3.732,1.44l-3.145-37.994C155.088,35.467,140.569,33.532,126.049,33.532L126.049,33.532z
				 M99.188,170.149c4.303,0,10.533-0.412,15.771-2.372c3.175-1.189,5.711-2.836,7.539-4.898c2.281-2.572,3.438-5.707,3.438-9.315
				c0-4.614-2.359-9.235-7.423-14.543c-4.061-4.255-9.528-8.629-15.316-13.259c-7.913-6.33-16.881-13.504-23.611-21.558
				c-7.405-8.861-11.004-17.491-11.004-26.385c0-3.113,0.659-14.021,9.139-23.678c4.305-4.902,10.029-8.782,17.015-11.532
				c8.556-3.368,19.092-5.076,31.314-5.076c11.817,0,24.387,1.267,39.342,3.974l2.371,28.641
				c-11.401-4.038-21.453-6.009-30.581-6.009c-1.987,0-8.961,0.211-15.282,2.926c-3.011,1.293-5.424,2.971-7.172,4.987
				c-2.207,2.545-3.326,5.544-3.326,8.913c0,4.809,2.457,9.552,7.733,14.927c4.228,4.307,9.88,8.65,15.865,13.249
				c7.779,5.979,16.597,12.755,23.143,20.272c7.141,8.202,10.612,16.181,10.612,24.394c0,2.927-0.413,7.541-2.379,12.899
				c-1.922,5.238-4.875,9.937-8.775,13.962c-4.682,4.833-10.701,8.641-17.89,11.316c-8.505,3.165-18.719,4.77-30.359,4.77
				c-15.537,0-31.028-2.3-44.45-4.714l-2.751-30.267c5.105,2.039,9.999,3.713,14.61,4.994
				C84.84,169.011,92.386,170.149,99.188,170.149L99.188,170.149z"/>
		</g>
	</g>
</g>
</svg>
