<?xml version="1.0" encoding="UTF-8" standalone="no"?>
<!-- Created with Inkscape (http://www.inkscape.org/) -->
<svg
   xmlns:svg="http://www.w3.org/2000/svg"
   xmlns="http://www.w3.org/2000/svg"
   version="1.0"
   width="685.62891"
   height="272.64795"
   viewBox="0 0 685.62891 272.64795"
   id="Layer_1"
   xml:space="preserve"><defs
   id="defs26" />
<g
   id="g3">
	<path
   d="M 486.16895,15.211426 C 486.16895,22.960449 479.85645,28.987793 472.10449,28.987793 C 464.6416,28.987793 458.61621,22.960449 458.61621,15.211426 C 458.61621,7.4624024 464.93066,1.4370117 472.68164,1.4370117 C 480.14355,1.4370117 486.16895,7.4624023 486.16895,15.211426 L 486.16895,15.211426 z "
   style="fill:#fdbf57;fill-rule:evenodd"
   id="path5" />
	<path
   d="M 472.10449,41.042969 C 480.42871,41.042969 487.31934,65.43457 487.31934,95.283692 C 487.31934,125.13037 480.42871,149.24023 472.10449,149.24023 C 463.78613,149.24023 457.18359,125.13037 457.18359,95.283692 C 457.18359,65.43457 463.78613,41.042969 472.10449,41.042969 L 472.10449,41.042969 z "
   style="fill:#0088bb;fill-rule:evenodd"
   id="path7" />
	<path
   d="M 71.173828,69.45459 C 61.128906,64.287598 53.95459,62.279785 46.491699,62.279785 C 38.744629,62.279785 33.578125,66.009277 33.578125,72.036621 C 33.578125,77.203613 37.020996,79.785644 46.205566,82.368164 L 58.258301,85.524902 C 70.887695,88.681641 74.90332,92.413086 78.348145,96.716797 C 82.07959,101.59717 84.089355,107.33838 84.089355,113.93848 C 84.089355,134.88916 66.581543,148.94775 40.752441,148.94775 C 28.411133,148.94775 14.920898,145.2207 -7.1054274e-015,137.47168 L 9.4682617,118.24463 C 17.505371,123.12061 31.568359,129.43652 43.046387,129.43652 C 50.51123,129.43652 56.536621,124.55615 56.536621,118.24463 C 56.536621,111.354 51.37207,107.625 40.752441,105.61475 L 28.98584,103.60742 C 22.383789,102.45801 14.0625,97.57959 10.617187,93.273926 C 6.8857422,88.967773 4.8779297,81.793457 4.8779297,75.193848 C 4.8779297,55.391602 20.375977,42.189941 43.90918,42.189941 C 59.979492,42.189941 70.601563,47.068359 79.783691,51.660645 L 71.173828,69.45459 L 71.173828,69.45459 z "
   style="fill-rule:evenodd"
   id="path9" />
	<path
   d="M 115.94434,43.336914 L 133.45215,102.45801 C 135.46191,108.48584 138.90479,123.12061 138.90479,123.12061 C 138.90479,123.12061 140.9126,111.92871 142.06152,107.05029 C 142.92236,103.60742 144.35791,97.866211 146.0791,92.987793 L 161.00293,45.058594 L 188.8418,45.058594 L 152.39307,147.51904 C 145.50488,167.03223 140.34033,175.35596 132.87744,180.81299 C 126.27539,185.68506 117.66553,188.84375 108.4834,189.98877 L 99.585449,172.77344 C 105.32666,171.05225 111.92676,168.75391 115.94434,165.88721 C 118.81494,163.87354 121.11084,161.00684 123.40674,157.56396 C 125.98926,153.54443 126.56396,151.82275 129.146,145.79736 C 129.146,145.79736 123.40674,146.08154 112.78711,117.38135 L 88.967773,46.493652 L 115.94434,43.336914 L 115.94434,43.336914 z "
   style="fill-rule:evenodd"
   id="path11" />
	<path
   d="M 222.13379,43.336914 C 223.85547,45.921387 224.71631,48.503418 225.57666,53.381836 C 232.46533,46.782227 241.07471,43.336914 250.25928,43.336914 C 258.58252,43.336914 265.46875,45.921387 270.92383,51.660645 C 272.0708,52.807617 273.50586,54.817383 274.65332,56.538574 C 284.12549,47.06836 292.16113,43.336914 303.35303,43.336914 C 311.10205,43.336914 318.5625,45.632813 323.15674,49.652832 C 328.896,54.528809 330.61768,60.27002 330.61768,74.330567 L 330.61768,145.79736 L 305.07471,145.79736 L 305.07471,79.211426 C 305.07471,67.158203 303.64111,64.862305 296.75293,64.862305 C 291.87451,64.862305 284.98438,68.305176 279.24512,73.472168 L 279.24512,145.79736 L 254.27686,145.79736 L 254.27686,80.358398 C 254.27686,67.730957 252.55518,64.862305 245.09229,64.862305 C 240.21387,64.862305 233.61426,67.158203 227.87305,72.325195 L 227.87305,145.79736 L 202.04395,145.79736 L 202.04395,75.481934 C 202.04395,60.842773 201.18311,54.817383 198.3125,49.652832 L 222.13379,43.336914 L 222.13379,43.336914 z "
   style="fill-rule:evenodd"
   id="path13" />
	<path
   d="M 625.93555,42.476074 C 628.22949,46.493652 629.66699,51.085938 629.66699,55.103516 C 633.39844,52.23291 636.84082,49.938965 641.14551,47.643066 C 646.59863,44.771973 653.48828,43.336914 659.22949,43.336914 C 670.41992,43.336914 680.46484,49.076172 683.61914,57.974121 C 684.76855,61.705566 685.62891,66.009277 685.62891,72.325195 L 685.62891,145.79736 L 659.51367,145.79736 L 659.51367,80.358398 C 659.51367,68.879883 657.50391,65.43457 650.61816,65.43457 C 645.45312,65.43457 638.56348,69.166016 632.24902,74.619141 L 632.24902,145.79736 L 605.84473,145.79736 L 605.84473,72.897461 C 605.84473,64.001465 604.7002,55.964355 602.40234,49.076172 L 625.93555,42.476074 L 625.93555,42.476074 z "
   style="fill-rule:evenodd"
   id="path15" />
	<path
   d="M 584.32129,78.350586 C 584.61035,67.730957 584.03418,64.576172 582.60059,60.27002 C 578.86914,49.364258 567.10254,43.04834 550.45605,43.04834 C 541.27051,43.04834 532.66309,44.771973 522.90723,48.789551 C 516.0166,51.660645 512.00098,53.67041 506.83203,57.113281 L 517.7373,75.768066 C 528.64355,68.591797 538.40039,64.576172 546.72363,64.576172 C 556.48535,64.576172 558.49121,68.305176 558.49121,79.499512 L 558.49121,83.515137 C 556.48535,83.229004 554.76367,83.229004 552.75293,83.229004 C 520.89746,83.229004 504.53809,94.136719 504.53809,117.66992 C 504.53809,137.76025 516.59277,148.94775 538.97754,148.94775 C 560.21582,148.94775 584.61035,136.89941 584.61035,115.37402 L 584.32129,78.350586 L 584.32129,78.350586 z M 557.91797,124.55615 C 553.89844,128.86182 549.02246,131.44434 544.1416,131.44434 C 537.54004,131.44434 532.66309,124.55615 532.66309,116.80908 C 532.66309,104.75439 538.68848,101.59717 557.05762,101.59717 L 558.20605,101.59717 L 557.91797,124.55615 L 557.91797,124.55615 z "
   style="fill-rule:evenodd"
   id="path17" />
	<path
   d="M 399.20703,42.476074 C 390.02637,42.476074 382.85254,45.058594 377.68457,50.51123 C 378.26074,49.076172 378.26074,44.771973 378.26074,41.615234 L 378.26074,17.793945 C 378.26074,10.907715 378.26074,6.8881836 377.39941,0 L 350.41943,6.3154297 C 351.85645,12.054688 352.14551,18.656738 352.14551,30.998047 L 352.14551,112.7915 C 352.14551,128.2876 365.63379,147.80322 395.19238,147.80322 C 405.2373,147.80322 413.55957,146.08154 420.44629,140.62842 C 433.07324,130.87158 439.10254,114.22461 439.10254,93.848145 C 439.10254,62.279785 423.88965,42.476074 399.20703,42.476074 L 399.20703,42.476074 z M 406.38574,119.3916 C 404.08691,124.84424 400.07227,127.42676 393.46973,127.42676 C 386.2959,127.42676 382.27637,123.9834 378.83301,120.82666 L 378.83301,72.611328 C 381.9873,68.591797 386.86816,64.287598 393.75488,64.287598 C 400.64453,64.287598 406.09766,68.591797 408.10254,77.203613 C 408.96777,81.509277 409.25684,85.23877 409.25684,94.422852 C 409.25684,106.76416 408.67969,113.93848 406.38574,119.3916 L 406.38574,119.3916 z "
   style="fill-rule:evenodd"
   id="path19" />
	<path
   d="M 558.20605,192.28711 C 563.37109,186.26172 569.39648,183.10254 576.57129,183.10254 C 581.73926,183.10254 586.33203,184.54004 590.34668,187.9834 C 594.36719,191.14209 597.2373,195.72998 599.53223,201.75537 C 601.54199,207.49658 602.69043,214.38281 602.69043,222.42236 C 602.69043,235.04932 600.10449,244.51807 595.22754,251.4126 C 590.34668,258.29834 584.03418,261.7417 576.57129,261.7417 C 569.1123,261.7417 562.79883,258.29834 557.91797,251.69678 C 553.03809,244.81055 550.45605,235.62598 550.45605,223.85938 C 550.45605,209.21826 553.03809,198.60498 558.20605,192.28711 L 558.20605,192.28711 z M 544.43066,247.96045 C 547.2959,255.42334 551.60449,261.45752 557.3418,266.04541 C 563.08301,270.34912 569.39648,272.64795 576.57129,272.64795 C 583.17285,272.64795 589.19824,270.6333 594.93945,266.62256 C 600.68066,262.60303 605.27246,256.86084 608.14355,248.82959 C 611.29785,241.07471 613.01953,232.18311 613.01953,222.42236 C 613.01953,212.66113 611.58691,204.05371 608.42773,196.30664 C 605.56152,188.56006 601.25293,182.52588 595.5166,178.22217 C 590.05957,173.91846 583.46191,171.9126 576.57129,171.9126 C 565.9541,171.9126 557.05762,176.50049 550.16699,185.68506 C 543.56934,194.86914 540.12598,207.49658 540.12598,223.57568 C 540.12598,232.18311 541.55957,240.21436 544.43066,247.96045 L 544.43066,247.96045 z "
   style="fill-rule:evenodd"
   id="path21" />
	<path
   d="M 682.47461,229.60107 C 680.17578,225.58105 676.7334,222.42236 672.14063,219.83984 C 668.98633,218.11816 663.24512,215.82031 654.9209,213.52197 C 646.30957,211.23242 641.14551,208.93408 639.13965,206.63574 C 637.12988,204.33789 635.98047,201.47119 635.98047,198.02832 C 635.98047,194.0083 637.41309,190.56543 640.28418,187.69922 C 643.15527,184.82422 647.74707,183.39502 654.06055,183.39502 C 660.09082,183.39502 664.68262,184.82422 667.83691,187.9834 C 669.84668,189.98877 671.28027,192.57129 672.14062,195.72998 L 681.61328,190.84961 C 681.03711,189.12793 680.17578,187.40674 679.31934,185.68506 C 677.02148,181.09717 673.57813,177.65381 668.98633,175.35596 C 664.68262,173.05762 659.51367,171.9126 653.77246,171.9126 C 648.31934,171.9126 643.44336,173.05762 639.13965,175.07178 C 634.83105,177.36133 631.67676,180.52051 629.37793,184.82422 C 627.08496,189.12793 625.93555,193.72461 625.93555,198.88916 C 625.93555,203.19287 627.08496,207.2124 628.80566,210.93994 C 630.52734,214.67529 633.39844,217.5415 637.12988,220.12402 C 640,221.8457 645.16504,223.85937 652.33887,226.15771 C 659.51367,228.16357 664.39453,229.88477 666.39941,230.74561 C 669.55859,232.46728 671.85645,234.18896 673.57813,236.48682 C 675.01172,238.77686 675.58398,241.65137 675.58398,244.51807 C 675.58398,247.67676 675.01172,250.25928 673.57813,252.84131 C 671.85645,255.42334 669.84668,257.43799 666.68848,258.8667 C 663.5332,260.3042 660.09082,261.16553 656.07129,261.16553 C 651.7666,261.16553 647.74707,260.3042 644.01563,258.29834 C 640.28418,256.28467 637.70215,253.70264 635.98047,250.55225 C 635.12012,249.11475 634.54785,247.39258 633.9707,245.67139 L 624.50293,250.55225 C 625.3623,252.84131 626.22363,255.14014 627.37305,257.146 C 630.23926,262.31787 633.9707,266.32959 638.85059,268.91162 C 643.44336,271.50244 649.46875,272.64795 656.64355,272.64795 C 662.0957,272.64795 667.26465,271.50244 671.85645,268.91162 C 676.16113,266.32959 679.60352,262.60303 682.18652,258.29834 C 684.48438,253.70264 685.62891,248.82959 685.62891,243.65723 C 685.62891,238.2085 684.48438,233.6123 682.47461,229.60107 L 682.47461,229.60107 z "
   style="fill-rule:evenodd"
   id="path23" />
</g>
</svg>