<svg height="198.242276" viewBox="0 0 264.58331 104.09746" width="504.433272" xmlns="http://www.w3.org/2000/svg"><g stroke-width="1.365307" transform="matrix(.7324362 0 0 .7324362 88.063736 -60.141053)"><path d="m-257.51953 471.11523c31.41774 0 131.12197 3.49441 155.07031 27.05274 8.6383 8.49759 15.912111 21.36555 15.912111 47.69336 0 36.28263-.957328 67.78877-15.908201 86.75976-33.76691 42.84643-140.47674 44.71875-155.07422 44.71875-14.59746 0-119.52215-1.15747-153.28906-44.0039-14.95088-18.97099-16.26563-51.19197-16.26563-87.47461 0-26.32781 7.27381-39.19575 15.91211-47.69336 23.94834-23.5583 122.22485-27.05274 153.64258-27.05274z" fill="#fff" transform="scale(.26458333)"/><path d="m-340.28516 310.3418c-.47942-.004-.96457.003-1.45703.0215-8.18565.30735-17.4433 3.77722-25.66406 9.61914-16.79932 11.93763-24.74188 30.30533-17.74023 41.02539 4.09776 6.26675 12.63611 8.85431 22.66601 6.8125 5.44482-1.1084 9.89379.0969 13.33203 4.54492 12.23763 15.83172 25.07283 41.97831 33.79492 73.91211-43.19696 2.99708-96.43056 11.10065-117.8789 33.00391-15.23896 15.56218-21.19531 38.14164-21.19531 68.0957 0 72.49484 13.72312 159.34428 43.32421 188.40821 15.83973 15.5523 37.67383 21.43554 62.39063 21.43554h40.49023v35.23242c0 13.15015-18.03572 19.54119-35.6914 22.32032-22.95555 3.61334-46.88867 5.95299-46.88867 32.73242h121.4707c0-36.1423-5.67969-30.95151-5.67969-53.28516v-37h35.74024v37c0 22.33365-5.67774 17.14286-5.67774 53.28516h121.4707c0-26.77943-23.93507-29.11908-46.89062-32.73242-17.65568-2.77913-35.68945-9.17017-35.68945-22.32032v-35.23244h39.73242c24.7168 0 47.68372-5.88324 63.52344-21.43554 29.601077-29.06393 42.191402-115.91335 42.191402-188.40821 0-29.95404-5.202437-52.53351-20.441406-68.0957-21.324556-21.77685-74.354766-29.90861-117.636716-32.94727 8.72237-31.95961 21.56566-58.12765 33.81054-73.96875 3.43824-4.44803 7.88722-5.65332 13.33203-4.54492 10.02991 2.04181 18.56825-.54575 22.66602-6.8125 7.00164-10.72006-.94094-29.08776-17.74023-41.02539-8.22076-5.84192-17.47841-9.31179-25.66407-9.61914-7.87925-.29525-14.13154 2.36428-17.42968 7.41406-4.10792 6.31768-3.19395 15.59597 2.35742 24.68946 1.78889 2.93032 2.94177 7.92039-.14844 13.19336-18.85907 32.18009-32.26906 59.19864-39.71289 89.27148-13.45343-.4071-24.34462-.41211-30.30078-.41211-5.81959 0-16.33294.008-29.29688.38672-7.44509-30.06256-20.85331-57.07514-39.70703-89.24609-3.09021-5.27297-1.93537-10.26304-.14648-13.19336 5.55137-9.09349 6.46533-18.37178 2.35742-24.68946-3.09201-4.73417-8.78137-7.36814-15.97266-7.43554zm82.76563 160.77343c31.41774 0 131.12197 3.49441 155.07031 27.05274 8.6383 8.49759 15.912111 21.36555 15.912111 47.69336 0 36.28263-.957328 67.78877-15.908201 86.75976-33.76691 42.84643-140.47674 44.71875-155.07422 44.71875-14.59746 0-119.52215-1.15747-153.28906-44.0039-14.95088-18.97099-16.26563-51.19197-16.26563-87.47461 0-26.32781 7.27381-39.19575 15.91211-47.69336 23.94834-23.5583 122.22485-27.05274 153.64258-27.05274z" transform="scale(.26458333)"/><path d="m-76.420731 150.73672a9.5548859 9.5548859 0 0 1 -9.554885 9.55489 9.5548859 9.5548859 0 0 1 -9.554886-9.55489 9.5548859 9.5548859 0 0 1 9.554886-9.55488 9.5548859 9.5548859 0 0 1 9.554885 9.55488z"/><path d="m-40.74025 150.73672a9.5548859 9.5548859 0 0 1 -9.554885 9.55489 9.5548859 9.5548859 0 0 1 -9.554886-9.55489 9.5548859 9.5548859 0 0 1 9.554886-9.55488 9.5548859 9.5548859 0 0 1 9.554885 9.55488z"/><path d="m69.066406 458.94727c-4.197183 0-7.576172 3.37898-7.576172 7.57617v44.84961c0 4.19718 3.378989 7.57422 7.576172 7.57422h82.140624v231.13867c0 4.19718 3.37899 7.57617 7.57617 7.57617h44.84766c4.19718 0 7.57617-3.37899 7.57617-7.57617v-231.13867h82.14063c4.19718 0 7.57617-3.37704 7.57617-7.57422v-44.84961c0-4.19719-3.37899-7.57617-7.57617-7.57617z" transform="scale(.26458333)"/><path d="m-199.46263 89.538391h50.65484c.55526 0 1.00226.447008 1.00226 1.002261v13.870478c0 .55525-.447 1.00226-1.00226 1.00226h-50.65484c-.55525 0-1.00226-.44701-1.00226-1.00226v-13.870478c0-.555253.44701-1.002261 1.00226-1.002261z" transform="rotate(-90)"/><path d="m107.03077 129.36755a9.5548859 9.5548859 0 0 1 -9.554884 9.55489 9.5548859 9.5548859 0 0 1 -9.554886-9.55489 9.5548859 9.5548859 0 0 1 9.554886-9.55488 9.5548859 9.5548859 0 0 1 9.554884 9.55488z"/><g transform="scale(.26458333)"><path d="m430.35742 458.94922c-4.19718 0-6.31078 3.66577-4.88476 7.61328l104.21679 286.34961c.95068 2.63167 3.96751 4.75 6.76563 4.75h8.88281 1.55078 23.08789 3.24024 5.59179 8.88282c2.79813 0 5.81492-2.11832 6.76562-4.75l104.2168-286.34961c1.42601-3.94753-.6876-7.61328-4.88477-7.61328h-47.36718-3.24024c-2.7981 0-5.81492 2.11835-6.76562 4.75l-74.34375 204.26367-74.3418-204.26367c-.95068-2.63167-3.96751-4.75-6.76563-4.75h-3.24023z"/><path d="m798.5 521.84375a112.37948 120.96574 0 0 0 -112.38086 120.9668 112.37948 120.96574 0 0 0 112.38086 120.96484 112.37948 120.96574 0 0 0 112.37891-120.96484 112.37948 120.96574 0 0 0 -112.37891-120.9668zm0 55.71484a57.379468 65.251449 0 0 1 57.37891 65.25196 57.379468 65.251449 0 0 1 -57.37891 65.25 57.379468 65.251449 0 0 1 -57.38086-65.25 57.379468 65.251449 0 0 1 57.38086-65.25196z"/></g></g></svg>