<svg id="svg2" xmlns:rdf="http://www.w3.org/1999/02/22-rdf-syntax-ns#" xmlns="http://www.w3.org/2000/svg" viewBox="0 0 1113 422.01" version="1.0" xmlns:cc="http://creativecommons.org/ns#" xmlns:dc="http://purl.org/dc/elements/1.1/"> <defs id="defs4"></defs> <metadata id="metadata7">

<rdf:RDF>
 <cc:Work rdf:about="">
  <dc:format>image/svg+xml</dc:format>
  <dc:type rdf:resource="http://purl.org/dc/dcmitype/StillImage"/>
  <dc:title/>
 </cc:Work>
</rdf:RDF>
</metadata> <g id="layer1" transform="translate(-52.1652, -399.357)">

<g id="g2525" transform="matrix(0.57346541,0,0,0.57346541,57.715644,205.80857)">
 <path id="path1888" fill="#fd0000" d="m579.48,474.45-16.259-57.761,56.654-17.329,18.847,57.754-59.242,17.336z"/>
 <path id="path1960" fill="#000" d="m769.84,749.86c-21.895-2.2835-39.04-9.8378-55.972-24.662-23.448-20.528-35.461-41.106-41.4-70.917-2.5241-12.67-2.5344-41.666-0.0188-53.34,5.3636-24.892,18.296-49.174,36.176-67.923,10.288-10.788,18.779-17.206,30-22.677,13.495-6.5794,22.254-8.5839,40.077-9.1709,29.343-0.96638,49.019,3.8137,73.591,17.878l10.832,6.2001v48.659c-4.2727-0.71442-11.971,1.91-15-1.4851,0-2.9331-7.2495-23.147-10.59-29.53-7.5581-14.439-19.682-25.375-33.41-30.137-5.3817-1.8666-8.5646-2.2474-18.5-2.2132-19.92,0.0687-33.08,4.8729-43.276,15.799-10.886,11.666-16.048,26.738-18.189,53.11-1.3762,16.947-1.3254,85.681,0.0729,98.667,3.9182,36.388,16.632,55.021,41.892,61.396,9.3196,2.3521,28.217,1.5126,36.419-1.6179,7.1784-2.7398,13.898-8.7076,17.248-15.318,4.11-8.1107,5.297-16.355,5.316-36.921l0.0174-18.75h-36v-9h88.258l-0.69972,10.25c-1.3466,19.725-5.0826,32.18-13.525,45.089-11.722,17.923-33.129,31.419-56.533,35.641-8.651,1.5607-26.596,2.0351-36.785,0.97246z"/>
 <path id="path1958" fill="#000" d="m52.165,745.9,88.732-244.5,12.33,0.19881c0.91558,0.0148,81.901,232.76,81.901,233.96l26,0.33851v10h-69.768l-25.712-72.023-76.904,0.52304-25.363,71.5h-11.216zm108.99-82.75-32.456-97.124-35.525,97.874,67.981-0.75z"/>
 <path id="path1954" fill="#000" d="m275.13,515.9-35,0,0-9,92.5,0.004,49.379,160.17,51.584-160.18,55.537,0,0,229,33,0,0,10-79,0-0.51821-222.82-71.567,222.82-12.72,0-71.115-223.5-0.0795,223.5-12,0,0-230z"/>
 <path id="path1952" fill="#000" d="m537.13,735.9,33,0,0-229,81,0,0,9-35,0,0,220,35,0,0,10-114,0,0-10z"/>
 <path id="path1970" fill="#000" d="m885.22,745.9,88.732-244.5,12.33,0.19881c0.91558,0.0148,81.901,232.76,81.901,233.96l26,0.33851v10h-69.768l-25.712-72.023-76.904,0.52304-25.363,71.5h-11.216zm108.99-82.75-32.456-97.124-35.525,97.874,67.981-0.75z"/>
</g>
</g> </svg>