<?xml version="1.0" encoding="UTF-8"?>
<svg width="717.3897" height="439.478" version="1.1" xmlns="http://www.w3.org/2000/svg">
 <defs>
  <filter id="filter1121" x="-.010588235" y="-.018195925" width="1.0211765" height="1.0363918" color-interpolation-filters="sRGB">
   <feFlood flood-color="rgb(0,0,0)" flood-opacity=".498039" result="flood"/>
   <feComposite in="flood" in2="SourceGraphic" operator="in" result="composite1"/>
   <feGaussianBlur in="composite1" result="blur" stdDeviation="3"/>
   <feOffset dx="0" dy="0" result="offset"/>
   <feComposite in="SourceGraphic" in2="offset" result="composite2"/>
  </filter>
  <linearGradient id="SVGID_1_" x1="358.69489" x2="358.69489" y1="418.27121" y2="22.578199" gradientUnits="userSpaceOnUse">
   <stop stop-color="#F2F2F2" offset="0"/>
   <stop stop-color="#F7F7F7" offset=".5955"/>
   <stop stop-color="#FEFEFE" offset="1"/>
  </linearGradient>
 </defs>
 <path class="st0" d="m673.9671 22.5782-630.5445 0.0495c-13.6002 0-24.7277 11.1275-24.7277 24.7277v346.1881c0 13.6002 11.1275 24.7277 24.7277 24.7277l630.5446-0.0371c13.6002 0 24.7277-11.1275 24.7277-24.7277v-346.1881c-1e-4 -13.6126-11.1276-24.7401-24.7278-24.7401z" fill="url(#SVGID_1_)" filter="url(#filter1121)"/>
 <path d="m391.7255 163.9435c-38.8225 0-63.2659 27.8187-63.2659 71.9577 0 44.1513 24.431 71.8711 63.2659 71.8711 38.9338 0 63.3648-27.7198 63.3648-71.8711-1e-4 -44.1391-24.5423-71.9577-63.3648-71.9577zm0 131.5638c-30.514 0-49.7398-23.0833-49.7398-59.5938 0-36.6094 19.2134-59.6927 49.7398-59.6927s49.8511 23.0833 49.8387 59.6927c-1e-4 36.5105-19.3247 59.5938-49.8387 59.5938z"/>
 <path d="m211.1142 305.4602c-1.3477 0.3833-6.763 0.5811-9.4707 0.5811-16.8025 0-23.5655-7.1463-23.5655-25.2099v-65.1081h-14.9726v-10.6206h14.9726v-25.111h12.7471v25.111h19.8069v10.6206h-19.8069v64.4281c0 10.4351 4.0553 14.7748 13.3282 14.7748 1.3477 0 6.1819-0.1978 6.9608-0.2844v10.8184z"/>
 <polygon points="267.3326 292.132 267.617 292.132 298.2423 205.1027 311.5705 205.1027 274.2811 305.5591 260.6562 305.5591 223.2802 205.1027 236.8063 205.1027"/>
 <path d="m519.914 307.7722c-29.1664 0-49.6533-16.1348-51.0999-40.0836h13.2293c1.4466 16.716 17.1981 28.1031 39.0203 28.1031 20.8702 0 35.8304-11.3995 35.8304-27.0521 0-13.0439-8.9885-20.7713-29.6485-25.9889l-17.2847-4.4386c-25.791-6.5652-37.2894-17.4825-37.2894-35.8304 0-22.5022 20.2891-38.5382 47.7122-38.5382 27.1387 0 47.0445 16.0359 47.811 38.1548h-13.2293c-1.2612-15.7392-15.1705-26.1743-34.965-26.1743-19.3247 0-33.6173 10.7195-33.6173 26.0754 0 11.9806 8.6918 19.028 29.1664 24.2455l15.0716 3.8699c28.0165 7.0474 39.7993 17.7792 39.7993 37.1905 0.0123 24.431-19.6957 40.4669-50.5064 40.4669z"/>
</svg>
