<svg xmlns="http://www.w3.org/2000/svg" width="92" height="27" viewBox="0 0 92 27">
  <defs>
    <linearGradient id="uos-logo-blue-a" x1="0%" x2="100%" y1="45.694%" y2="54.306%">
      <stop offset="0%" stop-color="#0071FF"/>
      <stop offset="21.078%" stop-color="#00FBFF" stop-opacity=".755"/>
      <stop offset="45.882%" stop-color="#006CFF" stop-opacity=".918"/>
      <stop offset="71.851%" stop-color="#00FCA7"/>
      <stop offset="100%" stop-color="#00A2FF"/>
    </linearGradient>
  </defs>
  <path fill="url(#uos-logo-blue-a)" d="M23.4782609,1.76086957 C23.4782609,0.788368158 24.266629,0 25.2391304,0 C26.2116318,0 27,0.788368158 27,1.76086957 L27,13.5 C27,20.9558441 20.9558441,27 13.5,27 C6.04415588,27 0,20.9558441 0,13.5 L0,1.76086957 C0,0.788368158 0.788368158,0 1.76086957,0 C2.73337097,0 3.52173913,0.788368158 3.52173913,1.76086957 L3.52173913,13.5 C3.52173913,19.0108413 7.98915869,23.4782609 13.5,23.4782609 C19.0108413,23.4782609 23.4782609,19.0108413 23.4782609,13.5 L23.4782609,1.76086957 Z M44.1521739,0 L48.8478261,0 C55.0070017,0 60,4.99299833 60,11.1521739 L60,15.8478261 C60,22.0070017 55.0070017,27 48.8478261,27 L44.1521739,27 C37.9929983,27 33,22.0070017 33,15.8478261 L33,11.1521739 C33,4.99299833 37.9929983,0 44.1521739,0 Z M44.1521739,3.52173913 C39.9380011,3.52173913 36.5217391,6.93800115 36.5217391,11.1521739 L36.5217391,15.8478261 C36.5217391,20.0619989 39.9380011,23.4782609 44.1521739,23.4782609 L48.8478261,23.4782609 C53.0619989,23.4782609 56.4782609,20.0619989 56.4782609,15.8478261 L56.4782609,11.1521739 C56.4782609,6.93800115 53.0619989,3.52173913 48.8478261,3.52173913 L44.1521739,3.52173913 Z M89.0454545,0 C90.0245048,0 90.8181818,0.788368158 90.8181818,1.76086957 C90.8181818,2.73337097 90.0245048,3.52173913 89.0454545,3.52173913 L73.6818182,3.52173913 C71.3973676,3.52173913 69.5454545,5.36126483 69.5454545,7.63043478 C69.5454545,9.89960473 71.3973676,11.7391304 73.6818182,11.7391304 L84.3181818,11.7391304 C88.5607329,11.7391304 92,15.1553925 92,19.3695652 C92,23.583738 88.5607329,27 84.3181818,27 L68.9545455,27 C67.9754952,27 67.1818182,26.2116318 67.1818182,25.2391304 C67.1818182,24.266629 67.9754952,23.4782609 68.9545455,23.4782609 L84.3181818,23.4782609 C86.6026324,23.4782609 88.4545455,21.6387352 88.4545455,19.3695652 C88.4545455,17.1003953 86.6026324,15.2608696 84.3181818,15.2608696 L73.6818182,15.2608696 C69.4392671,15.2608696 66,11.8446075 66,7.63043478 C66,3.41626202 69.4392671,0 73.6818182,0 L89.0454545,0 Z"/>
</svg>
