<svg xmlns="http://www.w3.org/2000/svg" width="174" height="43" viewBox="0 0 174 43">
  <g id="Group_2" data-name="Group 2" transform="translate(-1013 -768)">
    <g id="webOS_OSE_logo_gray" transform="translate(1015 769.215)">
      <g id="Group_1" data-name="Group 1" transform="translate(0 0)">
        <path id="Path_1" data-name="Path 1" d="M76.937,28.38c0,8.854,6.088,13.281,14.947,13.281,9.964,0,14.949-3.873,14.949-10.515v0c0-7.627-4.985-9.227-14.949-12.059-6.879-1.811-10.855-3.607-10.855-7.952h0c0-5.077,3.806-7.431,10.8-7.431h-.006c6.57,0,10.906,2.295,10.906,9.184h2.991c0-8.852-5.539-12.174-13.842-12.174-8.859,0-13.84,3.322-13.84,9.96,0,6.463,4.981,8.966,13.837,11.49,7.35,2.031,11.963,2.936,11.963,8.983,0,5.059-4.373,7.527-11.993,7.527H91.84c-6.825,0-11.913-3.063-11.913-10.291Z" transform="translate(63.913 -0.712)" fill="#c30036"/>
        <path id="Path_2" data-name="Path 2" d="M74.046.713A20.473,20.473,0,1,0,94.532,21.186,20.477,20.477,0,0,0,74.046.713m0,37.961A17.488,17.488,0,1,1,91.54,21.188,17.491,17.491,0,0,1,74.049,38.674" transform="translate(44.101 -0.711)" fill="#c30036"/>
        <path id="Path_3" data-name="Path 3" d="M50.76,11.527c-4.183,0-7.244,1.585-9.192,4.5V1.012H38.581V26.466h2.988c0-7.525,3.342-11.956,9.192-11.956s9.192,4.431,9.192,11.956S56.61,38.422,50.76,38.422c-4.407,0-7.39-2.516-8.591-6.977h-3.1c1.343,6.35,5.434,9.96,11.7,9.96,7.751,0,12.179-5.532,12.179-14.94s-4.429-14.94-12.179-14.94" transform="translate(31.402 -0.458)" fill="#747a7e"/>
        <path id="Path_4" data-name="Path 4" d="M35.179,33.567c-5.85,0-9.194-4.416-9.194-11.924H47.355c0-9.408-4.427-14.94-12.178-14.94S23,12.235,23,21.643s4.427,14.94,12.179,14.94c6.262,0,10.354-3.612,11.7-9.96H43.767c-1.2,4.44-4.185,6.945-8.588,6.945m0-23.851c5.024,0,8.2,3.261,8.989,8.937H26.187c.794-5.676,3.969-8.937,8.992-8.937" transform="translate(18.196 4.366)" fill="#747a7e"/>
        <path id="Path_5" data-name="Path 5" d="M13.139,35.777l7.607-24.13,7.61,24.13h3.361L40.79,7H37.657L30.036,31.168,22.416,7H19.074L11.456,31.168,3.835,7H.7L9.775,35.777Z" transform="translate(-0.703 4.619)" fill="#747a7e"/>
      </g>
    </g>
    <rect id="Rectangle_1" data-name="Rectangle 1" width="174" height="43" transform="translate(1013 768)" fill="none"/>
  </g>
</svg>
