<?xml version="1.0" encoding="UTF-8"?>
<svg width="520.41" height="91.755" version="1.1" xmlns="http://www.w3.org/2000/svg">
 <g fill="#00adef">
  <path d="m189.87 19.048-15.238 55.367h-7.4135l-11.1-40.463c-0.47539-1.7229-0.76314-3.6031-0.86503-5.6351h-0.15014c-0.15014 1.9034-0.47718 3.7568-0.97763 5.5583l-11.176 40.54h-7.3348l-15.804-55.367h6.9595l11.476 42.472c0.4772 1.7765 0.77922 3.6299 0.90434 5.5601h0.18942c0.12506-1.3654 0.51296-3.217 1.1653-5.5601l11.928-42.472h6.0552l11.44 42.781c0.40032 1.4673 0.70062 3.192 0.90436 5.174h0.15014c0.0987-1.3386 0.43779-3.1152 1.0151-5.3278l11.024-42.627h6.8486z"/>
  <path d="m199.51 24.84c-1.1029 0-2.0446-0.38783-2.8222-1.1581-0.77561-0.77212-1.1653-1.7515-1.1653-2.9346 0-1.1832 0.3897-2.1698 1.1653-2.9543 0.77753-0.78463 1.7193-1.1778 2.8222-1.1778 1.1276 0 2.0875 0.39315 2.8792 1.1778 0.78994 0.78455 1.185 1.7712 1.185 2.9543 0 1.1331-0.39505 2.0982-1.185 2.8953-0.7917 0.79712-1.7515 1.1974-2.8792 1.1974"/>
  <path d="m202.52 74.414h-6.1695v-39.537h6.1695z"/>
  <path d="m244.62 74.415h-6.1714v-22.548c0-8.3928-2.9847-12.588-8.954-12.588-3.0848 0-5.6387 1.1921-7.6582 3.5709-2.0179 2.3824-3.0276 5.3867-3.0276 9.0166v22.548h-6.1713v-39.537h6.1713v6.5645h0.15177c2.9079-4.9936 7.1222-7.4921 12.641-7.4921 4.2142 0 7.4366 1.3994 9.6689 4.1911 2.2322 2.7934 3.3493 6.8272 3.3493 12.105v24.169z"/>
  <path d="m282.96 15.88v24.481h-0.14949c-2.4078-4.2715-6.258-6.412-11.552-6.412-5.3404 0-9.6204 1.9722-12.83 5.9095-3.2098 3.937-4.8154 9.1774-4.8154 15.715 0 6.1001 1.4476 10.92 4.3446 14.459 2.8969 3.5387 6.7642 5.3115 11.606 5.3115 5.9709 0 10.386-2.5488 13.247-7.646h0.14949v6.7173h6.1703v-58.535zm-10.909 23.399c3.1579 0 5.767 1.1061 7.8241 3.3205 2.057 2.2126 3.0851 4.917 3.0851 8.1072v5.8331c0 3.8873-1.0708 7.103-3.2155 9.6498-2.1447 2.5486-4.9379 3.823-8.3712 3.823-3.4887-1.6e-5 -6.2666-1.3168-8.3362-3.9566-2.0713-2.6376-3.1042-6.2359-3.1042-10.792 0-4.9938 1.0806-8.9052 3.2378-11.736 2.1572-2.8328 5.1161-4.2492 8.8801-4.2492z"/>
  <path d="m316.95 33.952c-6.0192 0-10.799 1.8661-14.338 5.5978-3.5351 3.734-5.302 8.9197-5.302 15.559 0 6.1016 1.6991 10.999 5.0984 14.691 3.401 3.696 7.944 5.5437 13.638 5.5437 5.846 0 10.504-1.9003 13.979-5.6964 3.4743-3.796 5.2129-8.8482 5.2129-15.155 0-6.4361-1.6134-11.468-4.8376-15.098-3.223-3.6299-7.7064-5.4419-13.451-5.4419zm-0.45165 5.3274c3.9855 0 7.0552 1.3397 9.1982 4.017 2.1483 2.6769 3.2187 6.4842 3.2187 11.428 0 4.8897-1.0704 8.6609-3.2187 11.313-2.1429 2.6505-5.2125 3.9757-9.1982 3.9757-3.9122 0-7.0361-1.3529-9.3667-4.0552-2.3341-2.7024-3.5018-6.3949-3.5018-11.081 0-4.8648 1.1532-8.6783 3.4604-11.447 2.3074-2.7666 5.4423-4.1506 9.4081-4.1506z"/>
  <path d="m393.39 34.877-11.553 39.537h-6.3966l-7.9371-28.301c-0.30206-1.0813-0.50395-2.3037-0.60404-3.6692h-0.15014c-0.0757 0.92761-0.3396 2.125-0.78994 3.5924l-8.6162 28.378h-6.1696l-11.665-39.537h6.4716l7.9765 29.731c0.25021 0.90076 0.42709 2.0857 0.5254 3.5512h0.30193c0.0757-1.1331 0.30219-2.3413 0.6774-3.6281l8.8791-29.654h5.6441l7.9764 29.808c0.252 0.95257 0.43959 2.1375 0.56656 3.553h0.3003c0.0503-1.0044 0.26446-2.1894 0.63975-3.553l7.8263-29.808h6.0963z"/>
  <path d="m394.46 72.985v-6.7951c3.3617 2.5486 7.0613 3.8229 11.1 3.8229 5.4172 0 8.1267-1.8534 8.1267-5.5583 0-1.0562-0.23062-1.9516-0.69537-2.6844-0.46461-0.73454-1.0919-1.3833-1.8819-1.9499-0.78999-0.56654-1.7176-1.0759-2.7845-1.5263-1.0651-0.4504-2.2126-0.91865-3.4422-1.4084-1.7069-0.69344-3.2046-1.3958-4.4966-2.1054-1.2905-0.70596-2.3699-1.5048-3.235-2.3913-0.86687-0.88825-1.5191-1.8998-1.957-3.0329-0.43777-1.1313-0.65769-2.4575-0.65769-3.9766 0-1.8516 0.41287-3.494 1.2404-4.9221 0.8292-1.4298 1.932-2.6254 3.3118-3.5906 1.3779-0.96508 2.9524-1.6925 4.7218-2.1822 1.7694-0.48791 3.5923-0.73454 5.4743-0.73454 3.3368 0 6.3214 0.59336 8.9558 1.7765v6.409c-2.8345-1.9034-6.0963-2.856-9.7833-2.856-1.1529 0-2.1947 0.13581-3.1241 0.4039-0.92767 0.27167-1.7248 0.65056-2.3878 1.1403-0.66476 0.4879-1.1796 1.0741-1.5424 1.7569-0.36278 0.68271-0.54505 1.4352-0.54505 2.2591 0 1.0294 0.18227 1.8927 0.54505 2.5861 0.36278 0.69523 0.89716 1.3136 1.5977 1.8534 0.70249 0.53973 1.555 1.0294 2.5593 1.4673 1.0009 0.43787 2.1448 0.91328 3.4243 1.428 1.7051 0.6702 3.2368 1.3583 4.5896 2.066 1.3548 0.70774 2.5094 1.5048 3.4619 2.3949 0.95443 0.88825 1.6872 1.9106 2.2001 3.0687 0.51472 1.1581 0.77203 2.5343 0.77203 4.1321 0 1.957-0.41819 3.6549-1.2599 5.0954-0.84186 1.4423-1.9624 2.6397-3.3691 3.5906-1.4028 0.95261-3.0221 1.6604-4.8522 2.125-1.832 0.46109-3.7496 0.69346-5.7549 0.69346-3.9659 0-7.401-0.78462-10.312-2.3556"/>
  <path d="m445.7 19.048v55.367h6.3166v-23.552h5.1938c1.1795 0 2.2388 0.1503 3.1805 0.44528 0.93837 0.29659 1.8185 0.76379 2.6335 1.409 0.8151 0.64159 1.6113 1.4721 2.3886 2.4872 0.77751 1.0188 1.5816 2.2471 2.4108 3.6894l9.0296 15.521h7.522v-0.0033l-10.12-16.637c-0.72751-1.2117-1.3854-2.2736-1.9751-3.1869-0.58979-0.9133-1.1852-1.7302-1.7875-2.4522-0.60229-0.72019-1.234-1.3429-1.8988-1.8702-0.6668-0.52719-1.4493-1.0011-2.3536-1.4122v-0.15258c1.8302-0.48959 3.4798-1.1791 4.9489-2.0674 1.4673-0.88649 2.7224-1.9601 3.7626-3.2219 1.042-1.26 1.8429-2.6962 2.4077-4.3065 0.5647-1.6085 0.84601-3.3782 0.84601-5.3083 0-2.4717-0.413-4.627-1.2404-6.4661-0.82749-1.8427-1.9741-3.38-3.4414-4.615-1.4691-1.2367-3.1993-2.1567-5.1938-2.7607-1.9929-0.6041-4.1724-0.90646-6.5297-0.90646zm6.3166 5.8681h8.6574c3.5351 0 6.2378 0.83007 8.1072 2.4904 1.8694 1.6585 2.8021 3.9707 2.8021 6.9304 0 1.6478-0.27487 3.1312-0.82694 4.4591-0.5523 1.3243-1.3189 2.4454-2.2964 3.3587-0.97768 0.9133-2.1391 1.6176-3.4795 2.1055-1.3421 0.48969-2.8012 0.73153-4.3828 0.73153h-8.5811z"/>
  <path d="m520.41 24.916h-15.576v49.498h-6.3213v-49.498h-15.54v-5.8693h37.437v5.8693z"/>
  <path d="m41.748 6.9147 50.007-6.9147v44.499h-50.007v-37.584z"/>
  <path d="m38.161 44.499v-37.088l-38.161 5.2765v31.812h38.161z"/>
  <path d="m41.748 48.086v37.248l50.007 6.4213v-43.669h-50.007z"/>
  <path d="m38.161 48.086h-38.161v31.888l38.161 4.8997v-36.788z"/>
 </g>
</svg>
