<?xml version="1.0" encoding="UTF-8" standalone="no"?>
<svg
   xmlns:dc="http://purl.org/dc/elements/1.1/"
   xmlns:cc="http://creativecommons.org/ns#"
   xmlns:rdf="http://www.w3.org/1999/02/22-rdf-syntax-ns#"
   xmlns:svg="http://www.w3.org/2000/svg"
   xmlns="http://www.w3.org/2000/svg"
   xmlns:sodipodi="http://sodipodi.sourceforge.net/DTD/sodipodi-0.dtd"
   xmlns:inkscape="http://www.inkscape.org/namespaces/inkscape"
   width="703.71338"
   height="100.20966"
   viewBox="0 0 562.9707 80.167731"
   version="1.1"
   id="svg2"
   inkscape:version="0.48.2 r9819"
   sodipodi:docname="Windows Phone 8 logo.svg">
  <metadata
     id="metadata43">
    <rdf:RDF>
      <cc:Work
         rdf:about="">
        <dc:format>image/svg+xml</dc:format>
        <dc:type
           rdf:resource="http://purl.org/dc/dcmitype/StillImage" />
      </cc:Work>
    </rdf:RDF>
  </metadata>
  <defs
     id="defs41" />
  <sodipodi:namedview
     pagecolor="#ffffff"
     bordercolor="#666666"
     borderopacity="1"
     objecttolerance="10"
     gridtolerance="10"
     guidetolerance="10"
     inkscape:pageopacity="0"
     inkscape:pageshadow="2"
     inkscape:window-width="1600"
     inkscape:window-height="837"
     id="namedview39"
     showgrid="false"
     fit-margin-top="0"
     fit-margin-left="0"
     fit-margin-right="0"
     fit-margin-bottom="0"
     inkscape:zoom="1.4142136"
     inkscape:cx="389.38742"
     inkscape:cy="41.292808"
     inkscape:window-x="-8"
     inkscape:window-y="-8"
     inkscape:window-maximized="1"
     inkscape:current-layer="svg2" />
  <path
     style="fill:#e81123"
     inkscape:connector-curvature="0"
     id="path9"
     d="m 245.66174,13.281267 c 1.91,0 3.83,0 5.75,0.01 -0.01,16.91 0,33.82 0,50.74 -1.92,0 -3.84,0 -5.75,0 0,-1.84 0.01,-3.68 0.04,-5.52 -4.08,7.37 -15.25,8.64 -21.24,2.98 -3.62,-3.35 -4.91,-8.45 -5.04,-13.23 -0.09,-5.41 1.26,-11.18 5.1,-15.2 5.51,-5.75 16.53,-6.07 21.19,0.93 -0.11,-6.9 -0.03,-13.81 -0.05,-20.71 m -13.72,21.28 c -3.87,1.6 -5.92,5.75 -6.37,9.72 -0.61,4.68 -0.1,10.2 3.69,13.5 3.87,3.52 10.46,2.76 13.69,-1.25 3.33,-4 2.87,-9.62 2.55,-14.47 -0.53,-6.25 -7.99,-10.2 -13.56,-7.5 z" />
  <path
     style="fill:#e81123"
     inkscape:connector-curvature="0"
     id="path11"
     d="m 421.16174,13.281267 c 1.91,0 3.83,0 5.75,0 -0.06,7.24 0.13,14.49 -0.12,21.73 3.6,-5.6 11.21,-7.92 17.23,-4.95 4.26,1.92 5.66,7 5.83,11.29 0.16,7.56 0.01,15.12 0.06,22.68 -1.92,0 -3.84,0 -5.75,0 -0.04,-6.86 0.06,-13.72 -0.03,-20.58 -0.13,-3.44 -1.1,-7.6 -4.61,-9.08 -5.68,-2.52 -12.01,2.43 -12.49,8.23 -0.31,7.14 -0.02,14.29 -0.12,21.43 -1.92,0 -3.84,0 -5.75,0 -0.01,-16.92 0,-33.83 0,-50.75 z" />
  <path
     style="fill:#e81123"
     inkscape:connector-curvature="0"
     id="path13"
     d="m 171.05174,15.691267 c 1.94,-1.71 5.49,-0.79 6.12,1.77 1.21,2.88 -2.51,5.97 -5.17,4.47 -2.51,-0.9 -2.83,-4.57 -0.95,-6.24 z" />
  <path
     style="fill:#e81123"
     inkscape:connector-curvature="0"
     id="path15"
     d="m 103.69174,16.001267 c 2.19,0.02 4.39,0.05 6.58,0.1 3.47,13.57 7.79,26.91 10.96,40.55 3.39,-13.66 7.77,-27.07 11.54,-40.64 1.91,0.02 3.83,0.03 5.75,0.05 3.49,13.55 7.72,26.92 10.83,40.55 3.32,-13.59 7.14,-27.06 10.69,-40.59 2.13,0.01 4.26,0.01 6.39,0.01 -4.51,16.01 -9.04,32.01 -13.61,48 -2.3,0 -4.59,0 -6.88,0 -3.48,-12.92 -7.58,-25.69 -10.67,-38.71 -2.99,13.04 -7.16,25.81 -10.7,38.72 -2.26,-0.01 -4.52,-0.01 -6.78,0.01 -4.72,-16.01 -9.41,-32.03 -14.1,-48.05 z" />
  <path
     style="fill:#e81123"
     inkscape:connector-curvature="0"
     id="path17"
     d="m 385.91174,16.031267 c 7.42,0.47 15.29,-1.29 22.34,1.67 9.43,4.29 9.78,19.05 1.63,24.81 -5.1,4 -11.87,3.59 -17.97,3.52 0,6 0,12 0,18 -2.01,0 -4,0 -6,0 0,-16 0,-32 0,-48 m 6,5.26 c 0.01,6.5 -0.01,13 0.01,19.51 5.04,-0.12 11.05,0.64 15.01,-3.21 3.5,-3.75 3.5,-10.68 -0.5,-14.07 -4.19,-3.02 -9.68,-2.09 -14.52,-2.23 z" />
  <path
     style="fill:#e81123"
     inkscape:connector-curvature="0"
     id="path19"
     d="m 190.10174,35.011267 c 3.08,-4.71 8.89,-7.36 14.44,-5.89 5.3,0.87 8.37,6.25 8.55,11.26 0.2,7.88 -0.01,15.76 0.08,23.64 -1.92,0 -3.84,0.01 -5.76,0.01 -0.06,-7.14 0.1,-14.28 -0.05,-21.41 -0.09,-3.62 -1.82,-7.9 -5.77,-8.64 -5.6,-1.53 -11.06,3.54 -11.3,9.02 -0.33,7 -0.02,14.02 -0.14,21.03 -1.91,0 -3.82,0 -5.74,0 -0.01,-11.42 0,-22.83 0,-34.25 1.92,0 3.84,0 5.77,0 -0.02,1.74 -0.05,3.49 -0.08,5.23 z" />
  <path
     style="fill:#e81123"
     inkscape:connector-curvature="0"
     id="path21"
     d="m 269.02174,29.751267 c 5.56,-1.66 12.21,-1.42 16.93,2.26 6.86,5.62 7.4,16.17 4.18,23.87 -4.98,11.45 -23.52,12.35 -29.69,1.58 -5.29,-9.26 -2.63,-24.31 8.58,-27.71 m 1.88,4.72 c -7.24,2.76 -8.29,12.28 -6.04,18.73 2.2,6.63 11.2,8.81 16.7,4.98 4.17,-3.18 4.99,-8.98 4.4,-13.87 -0.34,-3.61 -1.98,-7.31 -5.19,-9.22 -2.99,-1.62 -6.69,-1.73 -9.87,-0.62 z" />
  <path
     style="fill:#e81123"
     inkscape:connector-curvature="0"
     id="path23"
     d="m 347.34174,31.931267 c 4.48,-4.06 11.26,-3.7 16.58,-1.65 -0.01,1.96 0,3.92 0.03,5.89 -3.49,-1.96 -8.01,-3.57 -11.78,-1.42 -2.9,1.57 -2.75,6.42 0.24,7.81 3.37,2.05 7.38,3 10.36,5.69 4.26,3.82 3.37,11.68 -1.57,14.54 -5.11,3.14 -11.68,2.62 -17.01,0.3 -0.02,-2.12 -0.04,-4.24 -0.08,-6.36 3.63,2.59 8.38,4.35 12.77,2.69 2.81,-0.89 3.63,-4.92 1.59,-6.97 -3.38,-2.89 -8.03,-3.69 -11.4,-6.6 -4.09,-3.43 -3.83,-10.59 0.27,-13.92 z" />
  <path
     style="fill:#e81123"
     inkscape:connector-curvature="0"
     id="path25"
     d="m 467.03174,29.871267 c 5.56,-1.77 12.24,-1.55 17.05,2.05 6.94,5.56 7.53,16.16 4.33,23.89 -4.93,11.61 -23.66,12.42 -29.8,1.53 -5.08,-9.19 -2.57,-23.94 8.42,-27.47 m 1.1,5.06 c -7.01,3.91 -7.6,14.29 -3.78,20.62 4.14,6.33 15.41,6.04 18.55,-1.12 2.36,-5.76 2.26,-13.43 -2.28,-18.11 -3.28,-3.1 -8.55,-3.2 -12.49,-1.39 z" />
  <path
     style="fill:#e81123"
     inkscape:connector-curvature="0"
     id="path27"
     d="m 503.10174,34.901267 c 3.72,-6.21 12.84,-8.1 18.66,-3.77 3.56,2.92 4.28,7.83 4.38,12.16 0.07,6.91 -0.01,13.82 0.03,20.73 -1.93,0 -3.85,0.01 -5.76,0.01 -0.1,-7.07 0.19,-14.15 -0.14,-21.22 -0.17,-3.59 -1.69,-7.93 -5.63,-8.78 -5.75,-1.67 -11.47,3.6 -11.45,9.3 -0.1,6.89 0.01,13.79 -0.03,20.69 -1.92,0.01 -3.84,0.01 -5.75,0.01 0,-11.42 0,-22.83 0,-34.25 1.92,0 3.84,0 5.76,0 -0.02,1.71 -0.03,3.42 -0.07,5.12 z" />
  <path
     style="fill:#e81123"
     inkscape:connector-curvature="0"
     id="path29"
     d="m 536.36174,35.011267 c 4.8,-6.92 15.94,-8.47 22.12,-2.58 4.21,4.08 4.65,10.33 4.45,15.85 -8.14,0.01 -16.27,-0.01 -24.4,0 0.38,3.84 1.46,8.18 5.11,10.21 5.36,3.1 12.1,1.21 16.85,-2.19 -0.07,1.89 -0.11,3.79 -0.17,5.69 -5.48,3 -12.22,4.01 -18.19,1.92 -4,-1.42 -6.93,-4.95 -8.21,-8.92 -2.12,-6.56 -1.59,-14.24 2.44,-19.98 m 6.22,1.11 c -2.26,1.84 -3.08,4.72 -3.95,7.36 6.15,0.1 12.29,0.04 18.44,0.04 -0.27,-2.52 -0.57,-5.26 -2.41,-7.19 -3.01,-3.47 -8.87,-3.32 -12.08,-0.21 z" />
  <path
     style="fill:#e81123"
     inkscape:connector-curvature="0"
     id="path31"
     d="m 170.66174,29.781267 c 1.91,0 3.82,0 5.74,-0.01 0.02,11.42 0,22.84 0.01,34.26 -1.92,0 -3.83,0 -5.74,0 -0.02,-11.42 -0.01,-22.83 -0.01,-34.25 z" />
  <path
     style="fill:#e81123"
     inkscape:connector-curvature="0"
     id="path33"
     d="m 293.76174,29.811267 c 2.01,-0.02 4.04,-0.03 6.06,-0.04 2.51,9.34 5.39,18.59 7.51,28.02 2.7,-9.37 5.74,-18.64 8.5,-27.99 1.78,-0.02 3.56,-0.03 5.35,-0.04 2.49,9.64 5.79,19.1 7.64,28.88 1.85,-9.76 5.09,-19.22 7.51,-28.86 1.91,0 3.83,0 5.76,0 -3.48,11.4 -6.85,22.84 -10.33,34.24 -2,0.01 -3.99,0.01 -5.98,0.03 -2.49,-8.93 -5.33,-17.76 -7.58,-26.75 -2.57,8.95 -5.55,17.79 -8.23,26.72 -1.95,0 -3.89,0.01 -5.83,0.02 -3.46,-11.41 -6.91,-22.83 -10.38,-34.23 z" />
  <g
     transform="matrix(0.91521282,0,0,0.91521282,136.33212,-206.23114)"
     inkscape:label="Layer 1"
     id="layer1"
     style="fill:#e81123;fill-opacity:1">
    <g
       style="fill:#e81123;fill-opacity:1;stroke-miterlimit:4;stroke-dasharray:none"
       stroke-miterlimit="4"
       transform="translate(109.60155,-54.548234)"
       id="g3012">
      <g
         id="g3763"
         style="fill:#e81123;fill-opacity:1">
        <path
           sodipodi:nodetypes="cccccccccccccccccccc"
           style="fill:#e81123;fill-opacity:1;fill-rule:evenodd;stroke:none"
           inkscape:connector-curvature="0"
           d="m -258.56375,292.28688 35.68737,-4.86023 0.0156,34.42275 -35.66975,0.20313 z m 35.67037,33.52906 0.0277,34.45332 -35.66989,-4.9041 -0.002,-29.77972 z m 4.32608,-39.02494 47.31817,-6.90595 0,41.527 -47.31817,0.37565 z m 47.32922,39.34876 -0.0111,41.33992 -47.31817,-6.67838 -0.0663,-34.73858 z"
           id="path13-7" />
      </g>
    </g>
  </g>
</svg>
