<svg width="1823.411" height="270.994" viewBox="0 0 482.444 71.7" xml:space="preserve" xmlns="http://www.w3.org/2000/svg"><defs><path id="a" d="M107.254 17.442c14.297 9.621 30.156 17.29 63.152 3.648L154.15 77.255c-27.541 12.922-49.002 6.278-63.283-3.398z"/><path id="b" d="M63.135 134.475c-14.331-9.648-29.868-17.465-62.942-3.793l16.045-56.079c33.079-13.68 49.107-6.4 63.426 3.303z"/><path id="c" d="m35.432 7.781-.182-.052a.523.523 0 0 1 .298-.35l.027-.008c.001.001-.06.126-.143.41z"/><path id="d" d="M88.131 83.682c14.313 9.633 29.822 16.309 62.76 4.969l-15.703 54.578c-28.98 12.742-48.541 5.09-63.201-3.77z"/></defs><path d="m-1.344 594.706 29.301-3.978.013 28.177-29.288.166zm29.287 27.445.023 28.202-29.288-4.014-.002-24.377zm3.552-31.943 38.852-5.653v33.992l-38.852.307Zm38.861 32.209-.01 33.838-38.851-5.466-.054-28.436z" style="fill:#0077d5;fill-opacity:1;stroke-width:.0717004" transform="translate(1.344 -584.555)"/><g style="fill:#0077d5;fill-opacity:1"><g style="fill:#0077d5;fill-opacity:1"><path d="m147.774 598.584-12.169 43.086h-5.919l-8.863-31.488q-.571-2.013-.691-4.387h-.12q-.18 2.224-.782 4.327l-8.923 31.548h-5.86L91.83 598.584h5.558l9.164 33.05q.57 2.074.721 4.327h.15q.15-1.592.932-4.326l9.524-33.05h4.838l9.133 33.29q.481 1.713.722 4.026h.12q.12-1.562.811-4.146l8.803-33.17zM154.333 602.361c-.881 0-1.632-.3-2.253-.901-.621-.6-.932-1.362-.932-2.283 0-.922.31-1.683.932-2.284a3.07 3.07 0 0 1 2.253-.931c.902 0 1.663.31 2.284.931.64.6.961 1.362.961 2.284 0 .88-.32 1.632-.961 2.253-.621.62-1.382.931-2.284.931zm2.404 39.309h-4.928v-30.767h4.928zM190.84 641.67h-4.928v-17.547q0-9.795-7.15-9.795-3.696 0-6.13 2.795-2.404 2.764-2.404 7v17.547h-4.927v-30.767h4.927v5.108h.12q3.486-5.829 10.096-5.829 5.048 0 7.722 3.275 2.674 3.245 2.674 9.404zM225.025 641.67h-4.927v-5.228h-.12q-3.426 5.95-10.577 5.95-5.798 0-9.284-4.117-3.455-4.146-3.455-11.267 0-7.632 3.846-12.229 3.846-4.597 10.246-4.597 6.34 0 9.224 4.988h.12v-19.05h4.927zm-4.927-13.911v-4.537q0-3.726-2.464-6.31-2.464-2.584-6.25-2.584-4.506 0-7.09 3.305-2.584 3.305-2.584 9.134 0 5.318 2.463 8.413 2.494 3.065 6.67 3.065 4.117 0 6.67-2.975 2.585-2.974 2.585-7.511zM245.91 642.391q-6.82 0-10.907-4.296-4.056-4.327-4.056-11.448 0-7.752 4.237-12.108 4.236-4.357 11.447-4.357 6.88 0 10.726 4.236 3.876 4.237 3.876 11.748 0 7.362-4.176 11.808-4.146 4.417-11.147 4.417zm.36-28.063q-4.747 0-7.51 3.245-2.765 3.215-2.765 8.894 0 5.468 2.794 8.623 2.794 3.155 7.482 3.155 4.777 0 7.33-3.095 2.585-3.095 2.585-8.803 0-5.77-2.584-8.894-2.554-3.125-7.331-3.125zM306.6 610.903l-9.225 30.767h-5.108l-6.34-22.024q-.36-1.261-.48-2.854h-.12q-.09 1.082-.631 2.794l-6.88 22.084h-4.928l-9.314-30.767h5.168l6.37 23.135q.3 1.052.42 2.765h.24q.09-1.322.541-2.825l7.09-23.075h4.508l6.37 23.195q.3 1.112.45 2.765h.24q.06-1.172.511-2.765l6.25-23.195zM308.985 640.558v-5.288q4.026 2.975 8.864 2.975 6.49 0 6.49-4.327 0-1.232-.571-2.073-.541-.871-1.502-1.532-.932-.661-2.224-1.172-1.262-.54-2.734-1.112-2.043-.811-3.606-1.622-1.532-.842-2.583-1.863-1.022-1.052-1.563-2.374-.51-1.322-.51-3.094 0-2.164.99-3.816.992-1.683 2.645-2.794 1.652-1.142 3.756-1.713 2.133-.571 4.386-.571 3.996 0 7.151 1.382v4.988q-3.395-2.224-7.812-2.224-1.382 0-2.493.33-1.112.301-1.923.872-.782.571-1.232 1.382-.42.781-.42 1.743 0 1.202.42 2.013.45.811 1.292 1.442.84.631 2.043 1.142 1.202.51 2.734 1.112 2.043.78 3.666 1.622 1.622.811 2.764 1.863 1.141 1.021 1.742 2.374.631 1.352.631 3.214 0 2.284-1.021 3.966-.992 1.683-2.674 2.795-1.683 1.111-3.876 1.652-2.194.541-4.597.541-4.747 0-8.233-1.833z" style="font-size:61.5337px;font-family:'Segoe UI';-inkscape-font-specification:'Segoe UI';fill:#0077d5;fill-opacity:1;stroke-width:174.426;stroke-linecap:round;stroke-linejoin:round;paint-order:stroke fill markers" transform="translate(1.344 -583.341)"/></g><g style="fill:#0077d5;fill-opacity:1"><path d="M354.679 641.67h-4.928v-37.227q-.57.571-1.682 1.322-1.082.721-2.464 1.443-1.352.72-2.885 1.352-1.502.63-2.944.991v-4.988q1.622-.45 3.425-1.201 1.833-.782 3.576-1.713 1.772-.961 3.335-1.983 1.562-1.052 2.704-2.043h1.863zM388.347 619.947q0 5.408-.991 9.585-.962 4.176-2.824 7.06-1.833 2.855-4.537 4.357-2.674 1.472-6.1 1.472-3.244 0-5.798-1.412-2.524-1.442-4.267-4.176-1.743-2.735-2.644-6.7-.901-3.997-.901-9.134 0-5.65.931-9.976.962-4.326 2.794-7.24 1.833-2.945 4.537-4.417 2.734-1.503 6.25-1.503 13.55 0 13.55 22.084zm-5.047.48q0-18.387-8.744-18.387-9.224 0-9.224 18.718 0 17.457 9.044 17.457 8.924 0 8.924-17.787z" style="font-size:61.5337px;font-family:'Segoe UI';-inkscape-font-specification:'Segoe UI';fill:#0077d5;fill-opacity:1;stroke-width:174.426;stroke-linecap:round;stroke-linejoin:round;paint-order:stroke fill markers" transform="translate(1.344 -583.341)"/></g><g style="fill:#0077d5;fill-opacity:1"><path d="M413.232 641.67h-5.048v-43.086h5.048zM437.536 642.391q-6.82 0-10.906-4.296-4.057-4.327-4.057-11.448 0-7.752 4.237-12.108 4.236-4.357 11.447-4.357 6.88 0 10.727 4.236 3.875 4.237 3.875 11.748 0 7.362-4.176 11.808-4.146 4.417-11.147 4.417zm.36-28.063q-4.747 0-7.51 3.245-2.765 3.215-2.765 8.894 0 5.468 2.794 8.623 2.795 3.155 7.482 3.155 4.777 0 7.33-3.095 2.585-3.095 2.585-8.803 0-5.77-2.584-8.894-2.554-3.125-7.331-3.125zM481.1 603.151h-12.44v38.519h-5.047v-38.519h-12.409v-4.567H481.1z" style="font-size:61.5337px;font-family:'Segoe UI';-inkscape-font-specification:'Segoe UI';fill:#0077d5;fill-opacity:1;stroke-width:174.426;stroke-linecap:round;stroke-linejoin:round;paint-order:stroke fill markers" transform="translate(1.344 -583.341)"/></g></g></svg>