<?xml version="1.0" encoding="UTF-8"?>
<svg id="Favicon" xmlns="http://www.w3.org/2000/svg" viewBox="0 0 64 64">
  <defs>
    <style>
      .cls-1 {
        fill: #231f20;
      }
    </style>
  </defs>
  <path class="cls-1" d="M54,0H10C4.48,0,0,4.48,0,10v44c0,5.52,4.48,10,10,10h44c5.52,0,10-4.48,10-10V10c0-5.52-4.48-10-10-10ZM50.24,50.64c-.38.95-1.3,1.53-2.26,1.53-.3,0-.61-.06-.91-.18-1.25-.5-1.85-1.92-1.35-3.17,2.32-5.77,1.2-11.42.47-13.93-1.89.37-3.64.93-5.21,1.68-.04.02-.09.04-.14.06-.03.01-3.94,1.65-6.92,5.48,0,.01-.02.02-.03.03-.09.11-.19.21-.3.3-.03.03-.06.06-.09.08,0,0,0,0-.01,0-.13.1-.27.18-.41.25-.04.02-.08.03-.12.05-.12.05-.24.09-.36.12-.04.01-.08.02-.13.03-.16.03-.32.05-.48.05,0,0,0,0,0,0s0,0,0,0c-.16,0-.32-.02-.48-.05-.04,0-.08-.02-.13-.03-.12-.03-.24-.07-.36-.12-.04-.02-.08-.03-.12-.05-.14-.07-.28-.15-.41-.25,0,0,0,0-.01,0-.03-.02-.06-.06-.09-.08-.11-.09-.21-.19-.3-.3,0-.01-.02-.02-.03-.03-2.97-3.81-6.88-5.46-6.92-5.48-.05-.02-.09-.04-.14-.06-1.57-.75-3.32-1.31-5.21-1.68-.73,2.5-1.86,8.15.47,13.93.5,1.25-.1,2.67-1.35,3.17-1.25.5-2.67-.1-3.17-1.35-3.75-9.31-.38-18.03,0-18.94l.11-.31s0,0,0,0l.03-.08c4.47-11.89,16.39-18.86,16.89-19.15.75-.43,1.68-.43,2.43,0,.5.29,12.42,7.26,16.89,19.15l.03.08s0,0,0,0l.11.31c.37.91,3.74,9.63,0,18.94ZM44.32,30.32c-1.92.44-3.73,1.03-5.38,1.81-.57.24-3.8,1.7-6.94,4.81-3.14-3.11-6.37-4.57-6.94-4.81-1.66-.78-3.47-1.38-5.38-1.81,3.52-6.72,9.71-11.4,12.32-13.16,2.62,1.76,8.81,6.44,12.32,13.16Z"/>
</svg>