<?xml version="1.0" encoding="UTF-8"?>
<svg id="Text" xmlns="http://www.w3.org/2000/svg" viewBox="0 0 64 64">
  <defs>
    <style>
      .cls-1 {
        fill: #231f20;
      }
    </style>
  </defs>
  <path class="cls-1" d="M.23,34.4c-.15-.14-.23-.34-.23-.6v-5.55c0-1.44.41-2.57,1.24-3.39.82-.81,1.97-1.22,3.43-1.22.96,0,1.79.19,2.49.56.7.37,1.24.9,1.61,1.59s.56,1.51.56,2.46v5.55c0,.25-.08.45-.23.6s-.36.21-.63.21-.48-.07-.64-.22c-.16-.15-.24-.34-.24-.59v-2.81H1.74v2.81c0,.24-.08.44-.24.59-.16.15-.38.22-.64.22s-.47-.07-.63-.21ZM7.58,29.64v-1.43c0-1.04-.25-1.83-.74-2.36-.49-.54-1.22-.81-2.17-.81s-1.7.27-2.19.8c-.49.53-.74,1.32-.74,2.37v1.43h5.84ZM11.58,34.41c-.15-.14-.23-.34-.23-.6v-10.11c0-.25.08-.45.23-.6.15-.14.36-.21.63-.21s.47.07.63.21.23.34.23.6v10.11c0,.24-.08.44-.24.59s-.36.22-.62.22-.47-.07-.63-.21ZM15.65,33.94c-.58-.46-.87-1.07-.87-1.83s.31-1.35.92-1.8c.62-.45,1.45-.67,2.49-.67s1.81.23,2.38.7v-.58c0-.51-.16-.9-.48-1.17-.32-.27-.79-.4-1.41-.4-.87,0-1.63.19-2.26.58-.21.12-.41.18-.58.18-.18,0-.35-.08-.5-.24-.1-.11-.15-.24-.15-.4,0-.24.11-.44.32-.58.37-.27.83-.49,1.39-.65.56-.16,1.14-.24,1.75-.24,1.15,0,2.05.26,2.7.78.65.52.98,1.24.98,2.15v4.09c0,.23-.08.42-.23.56s-.36.21-.63.21-.47-.07-.62-.2c-.15-.13-.22-.32-.22-.55v-.29c-.6.69-1.49,1.04-2.67,1.04-.97,0-1.74-.23-2.32-.69ZM19.98,33.03c.41-.23.61-.54.61-.94s-.2-.69-.6-.92c-.4-.22-.94-.34-1.63-.34-.6,0-1.06.11-1.4.34-.33.22-.5.53-.5.93s.16.72.48.94c.32.22.78.33,1.38.33.69,0,1.24-.11,1.65-.34ZM24.12,38.82c-.15-.14-.22-.34-.22-.59v-10.57c0-.25.07-.45.22-.6.15-.14.35-.21.62-.21s.47.07.63.22c.15.15.23.34.23.59v.53c.43-.46.89-.8,1.39-1.01.5-.22,1.07-.33,1.72-.33,1.21,0,2.17.35,2.88,1.04.71.69,1.07,1.64,1.07,2.84,0,.79-.16,1.49-.49,2.07-.33.59-.79,1.04-1.39,1.36-.6.32-1.31.47-2.12.47-.64,0-1.21-.1-1.69-.31-.49-.21-.94-.54-1.36-1v4.91c0,.24-.08.44-.24.59s-.37.22-.63.22-.47-.07-.62-.21ZM30.25,32.58c.45-.45.68-1.07.68-1.88s-.22-1.41-.67-1.84c-.45-.43-1.08-.65-1.91-.65s-1.54.22-2.03.66c-.49.44-.73,1.05-.73,1.84s.25,1.39.75,1.85c.5.46,1.17.69,2.01.69s1.45-.22,1.9-.67ZM34.29,34.41c-.15-.14-.23-.34-.23-.6v-6.16c0-.25.07-.45.22-.6.15-.14.35-.21.6-.21s.47.07.62.21c.15.14.22.34.22.6v.6c.75-.94,1.76-1.4,3.02-1.4.97,0,1.73.29,2.28.88.55.59.83,1.4.83,2.44v3.65c0,.25-.08.45-.24.6s-.37.21-.63.21-.47-.07-.62-.21c-.15-.14-.22-.34-.22-.6v-3.65c0-.63-.15-1.11-.46-1.45s-.74-.5-1.3-.5c-.81,0-1.45.24-1.92.72-.47.48-.7,1.14-.7,1.96v2.91c0,.24-.08.44-.24.59-.16.15-.36.22-.62.22s-.47-.07-.63-.21ZM43.74,25.39c-.21-.19-.31-.43-.31-.72s.1-.54.31-.72c.21-.19.48-.28.8-.28s.6.09.81.28c.21.19.32.43.32.72s-.11.54-.32.72c-.21.19-.48.28-.81.28s-.59-.09-.8-.28ZM43.92,34.41c-.15-.14-.22-.34-.22-.6v-6.16c0-.25.07-.45.22-.6.15-.14.35-.21.62-.21s.47.07.63.21c.16.14.24.34.24.6v6.16c0,.25-.08.45-.24.6s-.37.21-.63.21-.47-.07-.62-.21ZM47.95,33.94c-.58-.46-.87-1.07-.87-1.83s.31-1.35.92-1.8c.62-.45,1.45-.67,2.49-.67s1.81.23,2.38.7v-.58c0-.51-.16-.9-.48-1.17-.32-.27-.79-.4-1.41-.4-.87,0-1.63.19-2.26.58-.21.12-.41.18-.58.18-.18,0-.35-.08-.5-.24-.1-.11-.15-.24-.15-.4,0-.24.11-.44.32-.58.37-.27.83-.49,1.39-.65.56-.16,1.14-.24,1.75-.24,1.15,0,2.05.26,2.7.78.65.52.98,1.24.98,2.15v4.09c0,.23-.08.42-.23.56s-.36.21-.63.21-.47-.07-.62-.2c-.15-.13-.22-.32-.22-.55v-.29c-.6.69-1.49,1.04-2.67,1.04-.97,0-1.74-.23-2.32-.69ZM52.29,33.03c.41-.23.61-.54.61-.94s-.2-.69-.6-.92c-.4-.22-.94-.34-1.63-.34-.6,0-1.06.11-1.4.34-.33.22-.5.53-.5.93s.16.72.48.94c.32.22.78.33,1.38.33.69,0,1.24-.11,1.65-.34ZM56.43,34.41c-.15-.14-.23-.34-.23-.6v-6.16c0-.25.07-.45.22-.6.15-.14.35-.21.6-.21s.47.07.62.21c.15.14.22.34.22.6v.6c.75-.94,1.76-1.4,3.02-1.4.97,0,1.72.29,2.28.88.55.59.83,1.4.83,2.44v3.65c0,.25-.08.45-.24.6-.16.14-.37.21-.63.21s-.47-.07-.62-.21-.22-.34-.22-.6v-3.65c0-.63-.15-1.11-.46-1.45-.31-.34-.74-.5-1.3-.5-.81,0-1.45.24-1.92.72-.47.48-.7,1.14-.7,1.96v2.91c0,.24-.08.44-.24.59s-.36.22-.62.22-.47-.07-.63-.21Z"/>
</svg>