<?xml version="1.0" encoding="UTF-8"?>
<svg id="Vertical" xmlns="http://www.w3.org/2000/svg" viewBox="0 0 64 64">
  <defs>
    <style>
      .cls-1 {
        fill: #5e5e5e;
      }

      .cls-2 {
        fill: #ff0080;
      }
    </style>
  </defs>
  <g>
    <path class="cls-1" d="M2.22,59.63c-.14-.13-.21-.32-.21-.56v-5.2c0-1.35.39-2.41,1.16-3.17.77-.76,1.84-1.14,3.22-1.14.9,0,1.67.17,2.33.52.66.35,1.16.85,1.51,1.49.35.65.52,1.42.52,2.3v5.2c0,.24-.07.42-.21.56-.14.13-.34.2-.59.2s-.45-.07-.6-.21c-.15-.14-.23-.32-.23-.55v-2.63H3.63v2.63c0,.23-.08.41-.23.55s-.35.21-.6.21-.44-.07-.59-.2ZM9.11,55.17v-1.34c0-.97-.23-1.71-.69-2.22s-1.14-.76-2.04-.76-1.59.25-2.05.75c-.46.5-.69,1.24-.69,2.22v1.34h5.48Z"/>
    <path class="cls-1" d="M12.85,59.65c-.14-.13-.21-.32-.21-.56v-9.48c0-.24.07-.42.21-.56.14-.13.34-.2.59-.2s.44.07.59.2c.14.13.21.32.21.56v9.48c0,.23-.07.41-.22.55s-.34.21-.58.21-.44-.07-.59-.2Z"/>
    <path class="cls-1" d="M16.67,59.2c-.54-.43-.82-1-.82-1.72s.29-1.27.86-1.69,1.36-.63,2.34-.63,1.7.22,2.23.66v-.54c0-.48-.15-.84-.45-1.09-.3-.25-.74-.38-1.32-.38-.82,0-1.53.18-2.12.54-.2.11-.38.17-.54.17-.17,0-.33-.08-.47-.23-.1-.11-.14-.23-.14-.37,0-.23.1-.41.3-.54.34-.26.78-.46,1.3-.61.52-.15,1.07-.22,1.64-.22,1.08,0,1.92.24,2.53.73s.92,1.16.92,2.02v3.83c0,.22-.07.39-.21.52-.14.13-.34.19-.59.19s-.44-.06-.58-.19c-.14-.12-.21-.29-.21-.51v-.27c-.56.65-1.4.97-2.5.97-.91,0-1.63-.21-2.17-.64ZM20.73,58.35c.38-.22.57-.51.57-.88s-.19-.65-.56-.86-.88-.31-1.53-.31c-.56,0-1,.11-1.31.31-.31.21-.46.5-.46.87s.15.67.45.88c.3.2.73.31,1.29.31.65,0,1.16-.11,1.54-.32Z"/>
    <path class="cls-1" d="M24.62,63.78c-.14-.13-.21-.32-.21-.56v-9.91c0-.24.07-.42.21-.56.14-.13.33-.2.58-.2s.44.07.59.21c.14.14.21.32.21.55v.5c.4-.43.83-.75,1.3-.95.47-.21,1.01-.31,1.62-.31,1.13,0,2.04.32,2.7.97s1,1.53,1,2.66c0,.74-.15,1.39-.46,1.94s-.74.98-1.3,1.27-1.22.44-1.99.44c-.6,0-1.13-.1-1.59-.29-.46-.2-.88-.51-1.27-.94v4.6c0,.23-.07.41-.22.55s-.35.21-.59.21-.44-.07-.58-.2ZM30.36,57.93c.42-.42.64-1.01.64-1.76s-.21-1.32-.63-1.72c-.42-.4-1.02-.61-1.79-.61-.81,0-1.44.21-1.9.62-.46.42-.69.99-.69,1.72s.23,1.3.7,1.73c.47.43,1.1.64,1.89.64s1.36-.21,1.78-.63Z"/>
    <path class="cls-1" d="M34.14,59.65c-.14-.13-.21-.32-.21-.56v-5.78c0-.24.07-.42.21-.56.14-.13.33-.2.56-.2s.44.07.58.2c.14.13.21.32.21.56v.56c.71-.88,1.65-1.32,2.83-1.32.91,0,1.62.28,2.14.83.52.55.78,1.32.78,2.29v3.42c0,.24-.07.42-.22.56s-.35.2-.59.2-.44-.07-.58-.2-.21-.32-.21-.56v-3.42c0-.59-.14-1.04-.43-1.36s-.69-.47-1.22-.47c-.76,0-1.36.23-1.8.68s-.66,1.06-.66,1.84v2.73c0,.23-.07.41-.22.55s-.34.21-.58.21-.44-.07-.59-.2Z"/>
    <path class="cls-1" d="M43,51.19c-.2-.18-.29-.4-.29-.68s.1-.5.29-.68c.2-.18.45-.26.75-.26s.56.09.76.26c.2.18.3.4.3.68s-.1.5-.3.68c-.2.18-.45.26-.76.26s-.56-.09-.75-.26ZM43.17,59.65c-.14-.13-.21-.32-.21-.56v-5.78c0-.24.07-.42.21-.56.14-.13.33-.2.58-.2s.45.07.59.2c.15.13.22.32.22.56v5.78c0,.24-.07.42-.22.56s-.35.2-.59.2-.44-.07-.58-.2Z"/>
    <path class="cls-1" d="M46.96,59.2c-.54-.43-.82-1-.82-1.72s.29-1.27.86-1.69,1.36-.63,2.34-.63,1.7.22,2.23.66v-.54c0-.48-.15-.84-.45-1.09-.3-.25-.74-.38-1.32-.38-.82,0-1.53.18-2.12.54-.2.11-.38.17-.54.17-.17,0-.33-.08-.47-.23-.1-.11-.14-.23-.14-.37,0-.23.1-.41.3-.54.34-.26.78-.46,1.3-.61.52-.15,1.07-.22,1.64-.22,1.08,0,1.92.24,2.53.73s.92,1.16.92,2.02v3.83c0,.22-.07.39-.21.52-.14.13-.34.19-.59.19s-.44-.06-.58-.19c-.14-.12-.21-.29-.21-.51v-.27c-.56.65-1.4.97-2.5.97-.91,0-1.63-.21-2.17-.64ZM51.02,58.35c.38-.22.57-.51.57-.88s-.19-.65-.56-.86-.88-.31-1.53-.31c-.56,0-1,.11-1.31.31-.31.21-.46.5-.46.87s.15.67.45.88c.3.2.73.31,1.29.31.65,0,1.16-.11,1.54-.32Z"/>
    <path class="cls-1" d="M54.9,59.65c-.14-.13-.21-.32-.21-.56v-5.78c0-.24.07-.42.21-.56.14-.13.33-.2.56-.2s.44.07.58.2c.14.13.21.32.21.56v.56c.71-.88,1.65-1.32,2.83-1.32.91,0,1.62.28,2.14.83.52.55.78,1.32.78,2.29v3.42c0,.24-.07.42-.22.56s-.35.2-.59.2-.44-.07-.58-.2-.21-.32-.21-.56v-3.42c0-.59-.14-1.04-.43-1.36s-.69-.47-1.22-.47c-.76,0-1.36.23-1.8.68s-.66,1.06-.66,1.84v2.73c0,.23-.07.41-.22.55s-.34.21-.58.21-.44-.07-.59-.2Z"/>
  </g>
  <path class="cls-2" d="M51.33,21.05l-.12-.33s0,0,0,0l-.03-.09C46.45,8.03,33.82.65,33.29.34c-.8-.46-1.78-.46-2.58,0-.53.31-13.16,7.69-17.89,20.29l-.03.08s0,0,0,0l-.12.33c-.4.97-3.96,10.2.01,20.06.53,1.32,2.03,1.97,3.36,1.43,1.32-.53,1.96-2.04,1.43-3.36-2.46-6.12-1.27-12.1-.5-14.75,2,.39,3.85.98,5.52,1.78.05.02.09.04.14.06.04.02,4.19,1.76,7.33,5.8.01.01.02.02.03.03.09.11.2.22.31.32.03.03.06.06.09.09,0,0,0,0,.01.01.14.11.28.19.43.27.04.02.08.04.13.05.12.05.25.1.38.13.04.01.09.02.13.03.17.03.34.06.51.06,0,0,0,0,0,0s0,0,0,0c.17,0,.34-.02.51-.06.05,0,.09-.02.13-.03.13-.03.26-.08.38-.13.04-.02.09-.03.13-.05.15-.08.3-.16.43-.27,0,0,0,0,.01-.01.03-.03.06-.06.09-.09.11-.1.22-.2.31-.32.01-.01.02-.02.03-.03,3.15-4.05,7.3-5.79,7.33-5.8.05-.02.1-.04.14-.06,1.66-.79,3.51-1.39,5.52-1.78.77,2.66,1.97,8.64-.49,14.75-.53,1.32.11,2.83,1.43,3.36.32.13.64.19.96.19,1.02,0,1.99-.61,2.4-1.62,3.97-9.86.41-19.09.01-20.06ZM39.35,21.51c-.6.26-4.03,1.8-7.35,5.09-3.32-3.29-6.75-4.84-7.35-5.09-1.75-.83-3.67-1.46-5.7-1.92,3.73-7.12,10.28-12.07,13.05-13.94,2.77,1.87,9.33,6.82,13.05,13.94-2.03.46-3.95,1.09-5.7,1.92Z"/>
</svg>