<?xml version="1.0" encoding="UTF-8"?>
<svg id="Horizontal" xmlns="http://www.w3.org/2000/svg" viewBox="0 0 64 64">
  <defs>
    <style>
      .cls-1 {
        fill: #5e5e5e;
      }

      .cls-2 {
        fill: #ff0080;
      }
    </style>
  </defs>
  <g>
    <path class="cls-1" d="M22.34,35.06c-.1-.09-.15-.22-.15-.39v-3.63c0-.94.27-1.68.81-2.21.54-.53,1.29-.8,2.24-.8.62,0,1.17.12,1.62.36.46.24.81.59,1.05,1.04.24.45.36.99.36,1.6v3.63c0,.17-.05.3-.15.39-.1.09-.24.14-.41.14s-.31-.05-.42-.14c-.11-.1-.16-.22-.16-.38v-1.83h-3.82v1.83c0,.16-.05.29-.16.38-.11.1-.25.14-.42.14s-.31-.05-.41-.14ZM27.15,31.95v-.94c0-.68-.16-1.19-.48-1.54s-.8-.53-1.42-.53-1.11.17-1.43.52c-.32.35-.48.87-.48,1.55v.94h3.82Z"/>
    <path class="cls-1" d="M29.76,35.07c-.1-.09-.15-.22-.15-.39v-6.61c0-.17.05-.3.15-.39.1-.09.24-.14.41-.14s.31.05.41.14c.1.09.15.22.15.39v6.61c0,.16-.05.29-.15.38-.1.1-.24.14-.4.14s-.31-.05-.41-.14Z"/>
    <path class="cls-1" d="M32.42,34.76c-.38-.3-.57-.7-.57-1.2s.2-.88.6-1.18.94-.44,1.63-.44,1.18.15,1.55.46v-.38c0-.33-.1-.59-.31-.76-.21-.18-.52-.26-.92-.26-.57,0-1.06.13-1.47.38-.14.08-.27.12-.38.12-.12,0-.23-.05-.33-.16-.07-.07-.1-.16-.1-.26,0-.16.07-.29.21-.38.24-.18.54-.32.91-.42.37-.1.75-.15,1.15-.15.75,0,1.34.17,1.76.51.42.34.64.81.64,1.4v2.67c0,.15-.05.27-.15.36-.1.09-.24.13-.41.13s-.31-.04-.4-.13c-.1-.09-.14-.21-.14-.36v-.19c-.39.45-.97.68-1.74.68-.63,0-1.14-.15-1.51-.45ZM35.25,34.17c.27-.15.4-.35.4-.61s-.13-.45-.39-.6-.61-.22-1.07-.22c-.39,0-.7.07-.91.22-.22.15-.32.35-.32.61s.1.47.31.61c.21.14.51.21.9.21.45,0,.81-.07,1.08-.22Z"/>
    <path class="cls-1" d="M37.95,37.95c-.1-.09-.14-.22-.14-.39v-6.9c0-.17.05-.3.14-.39s.23-.14.4-.14.31.05.41.15c.1.1.15.22.15.38v.35c.28-.3.58-.52.91-.66s.7-.21,1.13-.21c.79,0,1.42.23,1.88.68s.7,1.07.7,1.85c0,.52-.11.97-.32,1.36s-.51.68-.91.89c-.39.21-.85.31-1.38.31-.42,0-.79-.07-1.11-.2-.32-.14-.61-.35-.89-.65v3.21c0,.16-.05.29-.15.38s-.24.14-.41.14-.31-.05-.4-.14ZM41.96,33.88c.3-.29.44-.7.44-1.23s-.15-.92-.44-1.2c-.29-.28-.71-.42-1.25-.42-.56,0-1.01.14-1.33.43-.32.29-.48.69-.48,1.2s.16.91.49,1.21c.33.3.76.45,1.32.45s.94-.15,1.24-.44Z"/>
    <path class="cls-1" d="M44.59,35.07c-.1-.09-.15-.22-.15-.39v-4.02c0-.17.05-.3.14-.39s.23-.14.39-.14.31.05.4.14.14.22.14.39v.39c.49-.61,1.15-.92,1.97-.92.63,0,1.13.19,1.49.58.36.38.54.92.54,1.59v2.38c0,.17-.05.3-.15.39s-.24.14-.41.14-.31-.05-.4-.14-.14-.22-.14-.39v-2.38c0-.41-.1-.73-.3-.95-.2-.22-.48-.33-.85-.33-.53,0-.95.16-1.26.47s-.46.74-.46,1.28v1.9c0,.16-.05.29-.15.38-.1.1-.24.14-.4.14s-.31-.05-.41-.14Z"/>
    <path class="cls-1" d="M50.76,29.18c-.14-.12-.2-.28-.2-.47s.07-.35.2-.47c.14-.12.31-.18.52-.18s.39.06.53.18c.14.12.21.28.21.47s-.07.35-.21.47c-.14.12-.32.18-.53.18s-.39-.06-.52-.18ZM50.88,35.07c-.1-.09-.14-.22-.14-.39v-4.02c0-.17.05-.3.14-.39s.23-.14.4-.14.31.05.41.14.15.22.15.39v4.02c0,.17-.05.3-.15.39s-.24.14-.41.14-.31-.05-.4-.14Z"/>
    <path class="cls-1" d="M53.52,34.76c-.38-.3-.57-.7-.57-1.2s.2-.88.6-1.18.94-.44,1.63-.44,1.18.15,1.55.46v-.38c0-.33-.1-.59-.31-.76-.21-.18-.52-.26-.92-.26-.57,0-1.06.13-1.47.38-.14.08-.27.12-.38.12-.12,0-.23-.05-.33-.16-.07-.07-.1-.16-.1-.26,0-.16.07-.29.21-.38.24-.18.54-.32.91-.42.37-.1.75-.15,1.15-.15.75,0,1.34.17,1.76.51.42.34.64.81.64,1.4v2.67c0,.15-.05.27-.15.36-.1.09-.24.13-.41.13s-.31-.04-.4-.13c-.1-.09-.14-.21-.14-.36v-.19c-.39.45-.97.68-1.74.68-.63,0-1.14-.15-1.51-.45ZM56.35,34.17c.27-.15.4-.35.4-.61s-.13-.45-.39-.6-.61-.22-1.07-.22c-.39,0-.7.07-.91.22-.22.15-.32.35-.32.61s.1.47.31.61c.21.14.51.21.9.21.45,0,.81-.07,1.08-.22Z"/>
    <path class="cls-1" d="M59.06,35.07c-.1-.09-.15-.22-.15-.39v-4.02c0-.17.05-.3.14-.39s.23-.14.39-.14.31.05.4.14.14.22.14.39v.39c.49-.61,1.15-.92,1.97-.92.63,0,1.13.19,1.49.58.36.38.54.92.54,1.59v2.38c0,.17-.05.3-.15.39s-.24.14-.41.14-.31-.05-.4-.14-.14-.22-.14-.39v-2.38c0-.41-.1-.73-.3-.95-.2-.22-.48-.33-.85-.33-.53,0-.95.16-1.26.47s-.46.74-.46,1.28v1.9c0,.16-.05.29-.15.38-.1.1-.24.14-.4.14s-.31-.05-.41-.14Z"/>
  </g>
  <path class="cls-2" d="M15.47,31.88l-.05-.13s0,0,0,0v-.03c-1.82-4.81-6.64-7.62-6.84-7.74-.3-.18-.68-.18-.98,0-.2.12-5.02,2.93-6.83,7.74v.03s-.01,0-.01,0l-.05.13c-.15.37-1.51,3.89,0,7.66.2.5.78.75,1.28.55.51-.2.75-.78.55-1.28-.94-2.33-.48-4.62-.19-5.63.76.15,1.47.38,2.11.68.02,0,.04.02.05.02.02,0,1.6.67,2.8,2.21,0,0,0,0,.01.01.04.04.08.08.12.12.01.01.02.02.04.03,0,0,0,0,0,0,.05.04.11.07.17.1.02,0,.03.01.05.02.05.02.1.04.15.05.02,0,.03,0,.05.01.06.01.13.02.2.02,0,0,0,0,0,0s0,0,0,0c.07,0,.13,0,.2-.02.02,0,.03,0,.05-.01.05-.01.1-.03.15-.05.02,0,.03-.01.05-.02.06-.03.11-.06.17-.1,0,0,0,0,0,0,.01,0,.02-.02.04-.03.04-.04.08-.08.12-.12,0,0,0,0,.01-.01,1.2-1.55,2.79-2.21,2.8-2.21.02,0,.04-.02.05-.02.64-.3,1.34-.53,2.11-.68.29,1.01.75,3.3-.19,5.63-.2.51.04,1.08.55,1.28.12.05.25.07.37.07.39,0,.76-.23.91-.62,1.52-3.76.16-7.29,0-7.66ZM10.89,32.05c-.23.1-1.54.69-2.81,1.94-1.27-1.26-2.58-1.85-2.81-1.94-.67-.32-1.4-.56-2.18-.73,1.42-2.72,3.93-4.61,4.98-5.32,1.06.71,3.56,2.6,4.98,5.32-.77.18-1.51.42-2.18.73Z"/>
</svg>