<?xml version="1.0" encoding="UTF-8"?>
<svg id="Symbol" xmlns="http://www.w3.org/2000/svg" viewBox="0 0 64 64">
  <defs>
    <style>
      .cls-1 {
        fill: #231f20;
      }
    </style>
  </defs>
  <path class="cls-1" d="M60.96,31.53l-.18-.49s0,0,0,0l-.05-.13C53.64,12.03,34.73.98,33.93.52c-1.2-.69-2.67-.69-3.86,0-.8.46-19.71,11.52-26.8,30.39l-.05.13s0,0,0,0l-.18.49c-.59,1.45-5.93,15.27.02,30.05.8,1.98,3.05,2.94,5.03,2.14,1.98-.8,2.94-3.05,2.14-5.03-3.69-9.16-1.9-18.13-.74-22.1,3,.59,5.77,1.48,8.26,2.66.07.03.14.06.22.09.06.02,6.27,2.64,10.98,8.69.02.02.04.03.05.05.14.17.3.33.47.47.05.04.09.09.14.13,0,0,.01.01.02.02.21.16.42.29.65.4.06.03.13.05.19.08.19.08.38.15.57.2.07.02.13.04.2.05.25.05.51.09.77.09,0,0,0,0,0,0s0,0,0,0c.26,0,.51-.03.77-.09.07-.01.13-.03.2-.05.19-.05.38-.12.57-.2.06-.03.13-.05.19-.08.22-.11.44-.24.65-.4,0,0,.01-.01.02-.02.05-.04.09-.09.14-.13.17-.15.33-.3.47-.47.02-.02.04-.03.05-.05,4.73-6.07,10.93-8.67,10.98-8.69.07-.03.14-.06.21-.09,2.49-1.18,5.26-2.07,8.26-2.66,1.16,3.98,2.95,12.94-.74,22.1-.8,1.98.16,4.24,2.14,5.03.47.19.96.28,1.44.28,1.53,0,2.98-.92,3.59-2.42,5.95-14.77.61-28.6.02-30.05ZM43.01,32.22c-.9.38-6.04,2.7-11.01,7.63-4.98-4.93-10.11-7.25-11.01-7.63-2.63-1.24-5.5-2.18-8.54-2.88,5.58-10.66,15.4-18.08,19.55-20.88,4.15,2.8,13.97,10.22,19.55,20.88-3.04.7-5.91,1.64-8.54,2.88Z"/>
</svg>