<svg id="Layer_1" data-name="Layer 1" xmlns="http://www.w3.org/2000/svg" viewBox="0 0 970 250"><defs><style>.cls-1{fill:#fafafa;}.cls-2{fill:#0c91f0;}.cls-3,.cls-4{fill:#7a7a7a;}.cls-4{font-size:47.61px;font-family:KeaniaOne-Regular, Keania One;}</style></defs><g id="billboard"><rect id="_1920_x_1080" data-name="1920 x 1080" class="cls-1" x="834.11" y="474.11" width="250" height="970" transform="translate(1444.11 -834.11) rotate(90)"/><path class="cls-2" d="M803.1,965.27a1.37,1.37,0,0,1-1.43-1.43V926.71a1.41,1.41,0,0,1,.4-1,1.39,1.39,0,0,1,1-.4h17a18.85,18.85,0,0,1,7.77,1.37,9.5,9.5,0,0,1,4.48,3.88,11.56,11.56,0,0,1,1.46,5.89,8.51,8.51,0,0,1-.77,3.71,8.62,8.62,0,0,1-1.89,2.63A9.39,9.39,0,0,1,829,944.3a9.94,9.94,0,0,1,3.91,3.4,9.43,9.43,0,0,1,1.69,5.63,12,12,0,0,1-1.6,6.28,10.66,10.66,0,0,1-4.74,4.17,17.86,17.86,0,0,1-7.66,1.49Zm7.66-23.83H819a5.45,5.45,0,0,0,4-1.34,4.63,4.63,0,0,0,1.34-3.45,4.46,4.46,0,0,0-1.34-3.4,5.61,5.61,0,0,0-4-1.29h-8.22Zm0,17.14h8.74a5.44,5.44,0,0,0,4.23-1.57,5.37,5.37,0,0,0,1.42-3.74,5.18,5.18,0,0,0-1.45-3.74,5.56,5.56,0,0,0-4.2-1.52h-8.74Z" transform="translate(-474.11 -834.11)"/><path class="cls-2" d="M842.81,965.27a1.41,1.41,0,0,1-1-.4,1.39,1.39,0,0,1-.4-1V926.71a1.37,1.37,0,0,1,1.43-1.43h6.45a1.39,1.39,0,0,1,1,.4,1.37,1.37,0,0,1,.4,1v37.13a1.39,1.39,0,0,1-.4,1,1.43,1.43,0,0,1-1,.4Z" transform="translate(-474.11 -834.11)"/><path class="cls-2" d="M860.57,965.27a1.37,1.37,0,0,1-1.43-1.43V926.71a1.41,1.41,0,0,1,.4-1,1.39,1.39,0,0,1,1-.4h6.34a1.39,1.39,0,0,1,1,.4,1.37,1.37,0,0,1,.4,1v30.9h17.71a1.37,1.37,0,0,1,1.43,1.43v4.8a1.37,1.37,0,0,1-1.43,1.43Z" transform="translate(-474.11 -834.11)"/><path class="cls-2" d="M894.16,965.27a1.37,1.37,0,0,1-1.43-1.43V926.71a1.41,1.41,0,0,1,.4-1,1.39,1.39,0,0,1,1-.4h6.34a1.39,1.39,0,0,1,1,.4,1.37,1.37,0,0,1,.4,1v30.9h17.71a1.37,1.37,0,0,1,1.43,1.43v4.8a1.37,1.37,0,0,1-1.43,1.43Z" transform="translate(-474.11 -834.11)"/><path class="cls-2" d="M927.75,965.27a1.37,1.37,0,0,1-1.43-1.43V926.71a1.41,1.41,0,0,1,.4-1,1.39,1.39,0,0,1,1-.4h17a18.85,18.85,0,0,1,7.77,1.37,9.5,9.5,0,0,1,4.48,3.88,11.56,11.56,0,0,1,1.46,5.89,8.51,8.51,0,0,1-.77,3.71,8.62,8.62,0,0,1-1.89,2.63,9.39,9.39,0,0,1-2.14,1.54,9.94,9.94,0,0,1,3.91,3.4,9.43,9.43,0,0,1,1.69,5.63,12.09,12.09,0,0,1-1.6,6.28,10.66,10.66,0,0,1-4.74,4.17,17.86,17.86,0,0,1-7.66,1.49Zm7.66-23.83h8.22a5.45,5.45,0,0,0,4-1.34,4.67,4.67,0,0,0,1.34-3.45,4.5,4.5,0,0,0-1.34-3.4,5.61,5.61,0,0,0-4-1.29h-8.22Zm0,17.14h8.74a5.41,5.41,0,0,0,4.22-1.57,5.34,5.34,0,0,0,1.43-3.74,5.18,5.18,0,0,0-1.45-3.74,5.57,5.57,0,0,0-4.2-1.52h-8.74Z" transform="translate(-474.11 -834.11)"/><path class="cls-2" d="M981.91,965.84a21.39,21.39,0,0,1-9-1.72,13,13,0,0,1-5.89-5.17,17.59,17.59,0,0,1-2.28-8.71c0-1.63-.06-3.26-.06-4.88s0-3.27.06-4.94a17.54,17.54,0,0,1,2.31-8.66,13.48,13.48,0,0,1,5.94-5.28,20.9,20.9,0,0,1,8.89-1.77,20.66,20.66,0,0,1,8.82,1.77,13.55,13.55,0,0,1,6,5.28,16.93,16.93,0,0,1,2.29,8.66c.07,1.67.11,3.32.11,4.94s0,3.25-.11,4.88A17.59,17.59,0,0,1,996.7,959a13,13,0,0,1-5.88,5.17A21.27,21.27,0,0,1,981.91,965.84Zm0-7.37a7.61,7.61,0,0,0,5.45-2q2.14-2,2.26-6.48c.08-1.68.11-3.25.11-4.72s0-3-.11-4.65a10.52,10.52,0,0,0-1.09-4.86,6.59,6.59,0,0,0-2.71-2.77,8.29,8.29,0,0,0-3.91-.88A8.44,8.44,0,0,0,978,933a6.39,6.39,0,0,0-2.72,2.77,11.18,11.18,0,0,0-1.11,4.86q-.06,2.46-.06,4.65c0,1.47,0,3,.06,4.72q.17,4.45,2.28,6.48A7.61,7.61,0,0,0,981.91,958.47Z" transform="translate(-474.11 -834.11)"/><path class="cls-2" d="M1003,965.27a1.14,1.14,0,0,1-.86-.37,1.2,1.2,0,0,1-.34-.83,2.78,2.78,0,0,1,.05-.52l13.6-36.73a2.17,2.17,0,0,1,.69-1.09,2.07,2.07,0,0,1,1.42-.45h7.32a2.09,2.09,0,0,1,1.42.45,2.17,2.17,0,0,1,.69,1.09l13.6,36.73a2.78,2.78,0,0,1,.05.52,1.2,1.2,0,0,1-.34.83,1.14,1.14,0,0,1-.86.37h-5.94a1.72,1.72,0,0,1-1.25-.4,2.08,2.08,0,0,1-.52-.75l-2.46-6.39h-16.1l-2.46,6.39a2.08,2.08,0,0,1-.52.75,1.72,1.72,0,0,1-1.25.4Zm12.28-14.91h11.82l-5.88-16.46Z" transform="translate(-474.11 -834.11)"/><path class="cls-2" d="M1047,965.27a1.37,1.37,0,0,1-1.42-1.43V926.71a1.37,1.37,0,0,1,.4-1,1.35,1.35,0,0,1,1-.4h15.14q7.14,0,11.26,3.28t4.11,9.46a11.72,11.72,0,0,1-2,7,12,12,0,0,1-5.37,4.17l8.06,14.28a1.49,1.49,0,0,1,.17.63,1.21,1.21,0,0,1-.35.83,1.12,1.12,0,0,1-.85.37h-6.34a2,2,0,0,1-1.55-.55,4.18,4.18,0,0,1-.74-1l-7-13.08h-6.91v13.2a1.39,1.39,0,0,1-.4,1,1.43,1.43,0,0,1-1,.4Zm7.66-21.88h7.31a6.6,6.6,0,0,0,4.66-1.43,5.23,5.23,0,0,0,1.51-4,5.48,5.48,0,0,0-1.49-4.06q-1.48-1.49-4.68-1.48h-7.31Z" transform="translate(-474.11 -834.11)"/><path class="cls-2" d="M1085.93,965.27a1.37,1.37,0,0,1-1.42-1.43V926.71a1.37,1.37,0,0,1,.4-1,1.35,1.35,0,0,1,1-.4h14.34a22.37,22.37,0,0,1,9.54,1.8,13,13,0,0,1,5.86,5.25,17.5,17.5,0,0,1,2.14,8.54c0,1.68.06,3.15.06,4.4s0,2.71-.06,4.34a19.19,19.19,0,0,1-2.11,8.8,11.92,11.92,0,0,1-5.72,5.17,23,23,0,0,1-9.42,1.69Zm7.66-7.37h6.68A11.1,11.1,0,0,0,1105,957a5.54,5.54,0,0,0,2.71-2.71,11.71,11.71,0,0,0,.94-4.83q.06-1.65.09-3c0-.88,0-1.75,0-2.63s0-1.85-.09-2.91c-.07-2.86-.81-5-2.2-6.31s-3.53-2-6.42-2h-6.4Z" transform="translate(-474.11 -834.11)"/><path class="cls-3" d="M875.67,1039.46a30,30,0,0,1-.31,4.28,16.52,16.52,0,0,1-1,3.88,10.28,10.28,0,0,1-2,3.16,8.71,8.71,0,0,1-3.15,2.12,12,12,0,0,1-4.52.77q-.7,0-1.62-.09a8.68,8.68,0,0,1-1.49-.26v-2.38a7.27,7.27,0,0,0,1.44.34,11.28,11.28,0,0,0,1.62.13,8,8,0,0,0,4.86-1.33,7.33,7.33,0,0,0,2.54-3.62,18.05,18.05,0,0,0,.88-5.15h-.2a6.18,6.18,0,0,1-3.24,2.53,8,8,0,0,1-2.66.41,7.5,7.5,0,0,1-3.66-.86,5.92,5.92,0,0,1-2.43-2.5,8.29,8.29,0,0,1-.87-4,9.3,9.3,0,0,1,.95-4.32,6.86,6.86,0,0,1,2.67-2.82,8,8,0,0,1,4-1,7.81,7.81,0,0,1,3.27.68,7.11,7.11,0,0,1,2.59,2,9.68,9.68,0,0,1,1.7,3.33A15.67,15.67,0,0,1,875.67,1039.46Zm-8.17-8.32a4.69,4.69,0,0,0-3.56,1.44,6.08,6.08,0,0,0-1.36,4.33,5.71,5.71,0,0,0,1.17,3.79,4.49,4.49,0,0,0,3.62,1.38,6,6,0,0,0,2.92-.67,5.21,5.21,0,0,0,1.9-1.72,4,4,0,0,0,.67-2.13,7.86,7.86,0,0,0-.33-2.22,6.79,6.79,0,0,0-1-2.07,5.13,5.13,0,0,0-1.67-1.54A4.64,4.64,0,0,0,867.5,1031.14Z" transform="translate(-474.11 -834.11)"/><path class="cls-3" d="M882.28,1053.32l9.91-21.65H879v-2.51h16.12v2.12l-9.85,22Z" transform="translate(-474.11 -834.11)"/><path class="cls-3" d="M914.47,1041.21a27.67,27.67,0,0,1-.44,5.25,12,12,0,0,1-1.41,3.92,6.52,6.52,0,0,1-2.48,2.44,7.43,7.43,0,0,1-3.65.83,6.69,6.69,0,0,1-4.45-1.47,8.75,8.75,0,0,1-2.63-4.25,22.75,22.75,0,0,1-.87-6.72,24.39,24.39,0,0,1,.79-6.65,8.45,8.45,0,0,1,2.53-4.28,6.87,6.87,0,0,1,4.63-1.5,6.76,6.76,0,0,1,4.5,1.48,8.74,8.74,0,0,1,2.62,4.26A22.65,22.65,0,0,1,914.47,1041.21Zm-13.17,0a26,26,0,0,0,.51,5.62,6.72,6.72,0,0,0,1.66,3.36,4.65,4.65,0,0,0,6,0,6.72,6.72,0,0,0,1.67-3.36,25.86,25.86,0,0,0,.52-5.63,25.49,25.49,0,0,0-.51-5.56,6.88,6.88,0,0,0-1.66-3.38,4.65,4.65,0,0,0-6.08,0,6.7,6.7,0,0,0-1.64,3.38A25.49,25.49,0,0,0,901.3,1041.21Z" transform="translate(-474.11 -834.11)"/><path class="cls-3" d="M944.42,1053.32h-3.19l-6.53-10.64-6.62,10.64h-3l8-12.59-7.48-11.57h3.12l6,9.63,6.07-9.63h3l-7.47,11.52Z" transform="translate(-474.11 -834.11)"/><path class="cls-3" d="M970.83,1053.32H955V1051l6.46-6.57c1.2-1.21,2.22-2.29,3-3.24a12.09,12.09,0,0,0,1.87-2.8,7.07,7.07,0,0,0,.65-3,4,4,0,0,0-1.22-3.13,4.63,4.63,0,0,0-3.2-1.08,7.44,7.44,0,0,0-3.07.59,13.31,13.31,0,0,0-2.74,1.69l-1.48-1.85a13,13,0,0,1,2.1-1.44,10.86,10.86,0,0,1,2.43-1,9.85,9.85,0,0,1,2.76-.37,8.83,8.83,0,0,1,3.86.78,5.86,5.86,0,0,1,2.5,2.21,6.41,6.41,0,0,1,.88,3.43,8.37,8.37,0,0,1-.76,3.56A13.94,13.94,0,0,1,967,1042c-.91,1.08-2,2.21-3.21,3.42l-5.25,5.24v.11h12.34Z" transform="translate(-474.11 -834.11)"/><path class="cls-3" d="M982,1038.55a10.28,10.28,0,0,1,4.28.83,6.5,6.5,0,0,1,2.82,2.42,7.05,7.05,0,0,1,1,3.85,8.24,8.24,0,0,1-1.07,4.28,7.14,7.14,0,0,1-3.1,2.76,11.11,11.11,0,0,1-4.82,1,17.59,17.59,0,0,1-3.51-.33,8.67,8.67,0,0,1-2.72-1v-2.61a10.59,10.59,0,0,0,2.92,1.16,14.11,14.11,0,0,0,3.34.43,8.22,8.22,0,0,0,3.22-.59,4.72,4.72,0,0,0,2.15-1.78,5.53,5.53,0,0,0,.76-3,4.72,4.72,0,0,0-1.48-3.73,6.92,6.92,0,0,0-4.66-1.31,16.75,16.75,0,0,0-2.25.16,17,17,0,0,0-2,.37l-1.39-.91.93-11.34h12v2.51h-9.67l-.61,7.29q.63-.14,1.62-.27A15.23,15.23,0,0,1,982,1038.55Z" transform="translate(-474.11 -834.11)"/><path class="cls-3" d="M1009.68,1041.21a27.62,27.62,0,0,1-.45,5.25,12,12,0,0,1-1.41,3.92,6.45,6.45,0,0,1-2.48,2.44,7.43,7.43,0,0,1-3.65.83,6.71,6.71,0,0,1-4.45-1.47,8.75,8.75,0,0,1-2.63-4.25,22.75,22.75,0,0,1-.87-6.72,24.39,24.39,0,0,1,.79-6.65,8.45,8.45,0,0,1,2.53-4.28,6.89,6.89,0,0,1,4.63-1.5,6.76,6.76,0,0,1,4.5,1.48,8.83,8.83,0,0,1,2.63,4.26A23,23,0,0,1,1009.68,1041.21Zm-13.18,0a26,26,0,0,0,.51,5.62,6.64,6.64,0,0,0,1.67,3.36,4.63,4.63,0,0,0,6,0,6.72,6.72,0,0,0,1.67-3.36,30.65,30.65,0,0,0,0-11.19,6.88,6.88,0,0,0-1.66-3.38,4.65,4.65,0,0,0-6.08,0,6.7,6.7,0,0,0-1.64,3.38A25.49,25.49,0,0,0,996.5,1041.21Z" transform="translate(-474.11 -834.11)"/><path class="cls-3" d="M1029.81,1029.16q4.67,0,6.83,1.83a6.46,6.46,0,0,1,2.16,5.23,8.33,8.33,0,0,1-.51,2.91,6.22,6.22,0,0,1-1.62,2.43,8,8,0,0,1-3,1.66,14.39,14.39,0,0,1-4.47.6h-2.94v9.5h-2.81v-24.16Zm-.27,2.4h-3.24v9.85h2.63a12.83,12.83,0,0,0,3.86-.5,4.34,4.34,0,0,0,2.32-1.61,5.07,5.07,0,0,0,.78-3,4.23,4.23,0,0,0-1.54-3.59A7.88,7.88,0,0,0,1029.54,1031.56Z" transform="translate(-474.11 -834.11)"/><path class="cls-3" d="M1060,1053.32h-3.19l-6.53-10.64-6.63,10.64h-3l8-12.59-7.49-11.57h3.12l6,9.63,6.06-9.63h3l-7.47,11.52Z" transform="translate(-474.11 -834.11)"/><text class="cls-4" transform="translate(426.37 62.6)">XVIID</text></g></svg>