<svg id="Layer_1" data-name="Layer 1" xmlns="http://www.w3.org/2000/svg" viewBox="0 0 840 1080"><defs><style>.cls-1{fill:#fafafa;}.cls-2{fill:#0c91f0;}.cls-3,.cls-4{fill:#7a7a7a;}.cls-4{font-size:71.21px;font-family:KeaniaOne-Regular, Keania One;}</style></defs><g id="formal"><rect class="cls-1" width="840" height="1080"/><path class="cls-2" d="M794.06,969.2a2.05,2.05,0,0,1-2.14-2.14V911.52a2,2,0,0,1,2.14-2.13h38.11a2,2,0,0,1,2.14,2.13v7.27a2.06,2.06,0,0,1-.6,1.53,2.08,2.08,0,0,1-1.54.6H805.25v14.44h25.21a2.05,2.05,0,0,1,2.14,2.14v7.26a2,2,0,0,1-.6,1.45,2.08,2.08,0,0,1-1.54.6H805.25v20.25a2,2,0,0,1-2.13,2.14Z" transform="translate(-540 -420)"/><path class="cls-2" d="M867.29,970.05a32.15,32.15,0,0,1-13.41-2.56,19.62,19.62,0,0,1-8.81-7.73,26.38,26.38,0,0,1-3.41-13q-.09-3.68-.09-7.31t.09-7.39a26.15,26.15,0,0,1,3.46-12.95,20.1,20.1,0,0,1,8.88-7.9,34.42,34.42,0,0,1,26.49,0,20.39,20.39,0,0,1,8.93,7.9A25.33,25.33,0,0,1,892.84,932q.17,3.76.17,7.39t-.17,7.31q-.26,7.86-3.42,13a19.59,19.59,0,0,1-8.8,7.73A32,32,0,0,1,867.29,970.05Zm0-11a11.41,11.41,0,0,0,8.16-3q3.21-3,3.38-9.7.17-3.76.17-7t-.17-7A15.73,15.73,0,0,0,877.2,925a9.78,9.78,0,0,0-4.06-4.14,12.43,12.43,0,0,0-5.85-1.33,12.73,12.73,0,0,0-5.9,1.33,9.48,9.48,0,0,0-4,4.14,16.77,16.77,0,0,0-1.67,7.27q-.09,3.68-.09,7t.09,7q.26,6.66,3.42,9.7A11.35,11.35,0,0,0,867.29,959Z" transform="translate(-540 -420)"/><path class="cls-2" d="M905.74,969.2a2.05,2.05,0,0,1-2.14-2.14V911.52a2,2,0,0,1,2.14-2.13h22.64q10.68,0,16.84,4.91t6.15,14.14a17.52,17.52,0,0,1-3,10.43,17.85,17.85,0,0,1-8,6.23l12,21.36a2.17,2.17,0,0,1,.25.95,1.78,1.78,0,0,1-.51,1.23,1.67,1.67,0,0,1-1.28.56h-9.49a3,3,0,0,1-2.3-.81,6,6,0,0,1-1.11-1.5l-10.43-19.56H917.19v19.73a2.05,2.05,0,0,1-2.13,2.14Zm11.45-32.73h10.94q4.7,0,7-2.13a7.84,7.84,0,0,0,2.27-6,8.2,8.2,0,0,0-2.22-6.07c-1.49-1.48-3.82-2.22-7-2.22H917.19Z" transform="translate(-540 -420)"/><path class="cls-2" d="M964,969.2a2.13,2.13,0,0,1-1.5-.6,2,2,0,0,1-.64-1.54V911.52a2,2,0,0,1,.64-1.54,2.17,2.17,0,0,1,1.5-.59H972a2.51,2.51,0,0,1,1.93.68c.42.46.72.8.89,1l15.73,29,15.89-29a5.32,5.32,0,0,1,.81-1,2.5,2.5,0,0,1,1.92-.68h8a2,2,0,0,1,2.14,2.13v55.54a2.05,2.05,0,0,1-2.14,2.14h-8.72a2,2,0,0,1-1.45-.6,2.08,2.08,0,0,1-.6-1.54V932.54l-10.85,20.34a5,5,0,0,1-1.11,1.37,2.63,2.63,0,0,1-1.79.59h-4a2.6,2.6,0,0,1-1.79-.59,5.22,5.22,0,0,1-1.12-1.37l-10.85-20.34v34.52a2.11,2.11,0,0,1-.59,1.54,2,2,0,0,1-1.46.6Z" transform="translate(-540 -420)"/><path class="cls-2" d="M1028.36,969.2a1.66,1.66,0,0,1-1.28-.56,1.75,1.75,0,0,1-.52-1.23,3,3,0,0,1,.09-.77L1047,911.69a3.44,3.44,0,0,1,1-1.62,3.07,3.07,0,0,1,2.14-.68h10.93a3.09,3.09,0,0,1,2.14.68,3.44,3.44,0,0,1,1,1.62l20.33,54.95a3,3,0,0,1,.09.77,1.75,1.75,0,0,1-.52,1.23,1.66,1.66,0,0,1-1.28.56H1074a2.54,2.54,0,0,1-1.88-.6,3,3,0,0,1-.77-1.11l-3.68-9.57h-24.09l-3.68,9.57a3,3,0,0,1-.77,1.11,2.56,2.56,0,0,1-1.88.6Zm18.37-22.3h17.69l-8.8-24.61Z" transform="translate(-540 -420)"/><path class="cls-2" d="M1094.15,969.2a2,2,0,0,1-2.13-2.14V911.52a2.09,2.09,0,0,1,.59-1.54,2.11,2.11,0,0,1,1.54-.59h9.49a2,2,0,0,1,2.13,2.13v46.23h26.49a2.05,2.05,0,0,1,2.14,2.14v7.17a2.05,2.05,0,0,1-2.14,2.14Z" transform="translate(-540 -420)"/><path class="cls-3" d="M808.66,1064.25a14.59,14.59,0,0,1,5.56,1,8.49,8.49,0,0,1,3.8,2.91,7.87,7.87,0,0,1,1.37,4.7,7.61,7.61,0,0,1-.95,3.85,9.94,9.94,0,0,1-2.56,2.87,22,22,0,0,1-3.56,2.18,25.5,25.5,0,0,1,4.19,2.4,10.57,10.57,0,0,1,3,3.14,8.11,8.11,0,0,1,1.09,4.28,9.24,9.24,0,0,1-1.47,5.25,9.38,9.38,0,0,1-4.12,3.4,15,15,0,0,1-6.2,1.19,16.47,16.47,0,0,1-6.52-1.15,8.85,8.85,0,0,1-4.08-3.31,9.43,9.43,0,0,1-1.39-5.21,8.54,8.54,0,0,1,1.06-4.34,10.76,10.76,0,0,1,2.82-3.17,19,19,0,0,1,3.83-2.25,20.39,20.39,0,0,1-3.3-2.25,9.51,9.51,0,0,1-2.37-3,8.38,8.38,0,0,1-.88-3.94,7.64,7.64,0,0,1,1.4-4.66,8.66,8.66,0,0,1,3.83-2.92A14.27,14.27,0,0,1,808.66,1064.25Zm-7.86,27.52a5.94,5.94,0,0,0,2,4.56q1.95,1.79,5.91,1.79a8.59,8.59,0,0,0,5.81-1.79,6,6,0,0,0,2-4.71,5.49,5.49,0,0,0-.94-3.18,9.13,9.13,0,0,0-2.67-2.46,23.52,23.52,0,0,0-4.08-2l-.89-.32a19.64,19.64,0,0,0-3.87,2.09,8.52,8.52,0,0,0-2.43,2.61A6.66,6.66,0,0,0,800.8,1091.77Zm7.81-24.16a7.7,7.7,0,0,0-4.77,1.4,4.72,4.72,0,0,0-1.86,4,5.34,5.34,0,0,0,.91,3.17,7.72,7.72,0,0,0,2.46,2.23,26.24,26.24,0,0,0,3.48,1.72,20.85,20.85,0,0,0,3.34-1.75,7.52,7.52,0,0,0,2.3-2.26,5.69,5.69,0,0,0,.84-3.14,4.72,4.72,0,0,0-1.84-4A7.92,7.92,0,0,0,808.61,1067.61Z" transform="translate(-540 -420)"/><path class="cls-3" d="M851.16,1092.53h-5.42v8.38h-4v-8.38H824.26v-3.46l17.2-24.5h4.28v24.26h5.42Zm-9.42-3.7V1077c0-.91,0-1.73,0-2.46s0-1.42.07-2,.07-1.24.09-1.82.05-1.15.06-1.71h-.19c-.32.66-.68,1.36-1.08,2.09a19.28,19.28,0,0,1-1.22,2l-11.15,15.8Z" transform="translate(-540 -420)"/><path class="cls-3" d="M878.5,1082.79a41.22,41.22,0,0,1-.67,7.86,17.94,17.94,0,0,1-2.1,5.86,9.76,9.76,0,0,1-3.71,3.65,11.24,11.24,0,0,1-5.46,1.25,10,10,0,0,1-6.67-2.2,13.21,13.21,0,0,1-3.93-6.37,34.19,34.19,0,0,1-1.29-10,37.16,37.16,0,0,1,1.17-10,12.65,12.65,0,0,1,3.8-6.4,10.28,10.28,0,0,1,6.92-2.24,10.08,10.08,0,0,1,6.72,2.22,13,13,0,0,1,3.93,6.37A34.06,34.06,0,0,1,878.5,1082.79Zm-19.71,0a38.67,38.67,0,0,0,.77,8.41,9.88,9.88,0,0,0,2.49,5,6.94,6.94,0,0,0,9,0,10,10,0,0,0,2.5-5,38.81,38.81,0,0,0,.77-8.43,38.24,38.24,0,0,0-.76-8.32,10.2,10.2,0,0,0-2.47-5,7,7,0,0,0-9.1,0,10,10,0,0,0-2.46,5A38.87,38.87,0,0,0,858.79,1082.79Z" transform="translate(-540 -420)"/><path class="cls-3" d="M923.29,1100.91h-4.77L908.76,1085l-9.92,15.92h-4.47l12-18.83-11.2-17.31h4.67l9,14.41,9.07-14.41h4.45L911.25,1082Z" transform="translate(-540 -420)"/><path class="cls-3" d="M954.39,1100.91h-4V1075.3c0-1,0-1.81,0-2.51s0-1.34.05-1.93.06-1.18.11-1.79a18.82,18.82,0,0,1-1.43,1.35l-1.66,1.37-4.13,3.31-2.15-2.79,9.79-7.54h3.41Z" transform="translate(-540 -420)"/><path class="cls-3" d="M992,1082.79a42.05,42.05,0,0,1-.67,7.86,18.17,18.17,0,0,1-2.1,5.86,9.76,9.76,0,0,1-3.71,3.65,11.24,11.24,0,0,1-5.46,1.25,10,10,0,0,1-6.67-2.2,13.21,13.21,0,0,1-3.93-6.37,34.19,34.19,0,0,1-1.29-10,37.16,37.16,0,0,1,1.17-10,12.71,12.71,0,0,1,3.79-6.4,10.33,10.33,0,0,1,6.93-2.24,10.08,10.08,0,0,1,6.72,2.22,13.11,13.11,0,0,1,3.93,6.37A34.06,34.06,0,0,1,992,1082.79Zm-19.71,0a38.67,38.67,0,0,0,.77,8.41,10,10,0,0,0,2.48,5,7,7,0,0,0,9,0,10,10,0,0,0,2.5-5,46.23,46.23,0,0,0,0-16.75,10.12,10.12,0,0,0-2.48-5,7,7,0,0,0-9.09,0,10,10,0,0,0-2.46,5A38.24,38.24,0,0,0,972.24,1082.79Z" transform="translate(-540 -420)"/><path class="cls-3" d="M1009,1064.25a14.63,14.63,0,0,1,5.56,1,8.46,8.46,0,0,1,3.79,2.91,7.81,7.81,0,0,1,1.38,4.7,7.51,7.51,0,0,1-1,3.85,9.66,9.66,0,0,1-2.56,2.87,21.85,21.85,0,0,1-3.55,2.18,25.39,25.39,0,0,1,4.18,2.4,10.61,10.61,0,0,1,3,3.14,8.2,8.2,0,0,1,1.09,4.28,9.24,9.24,0,0,1-1.47,5.25,9.49,9.49,0,0,1-4.12,3.4,15.05,15.05,0,0,1-6.21,1.19,16.45,16.45,0,0,1-6.51-1.15,8.85,8.85,0,0,1-4.08-3.31,9.43,9.43,0,0,1-1.4-5.21,8.54,8.54,0,0,1,1.07-4.34,10.76,10.76,0,0,1,2.82-3.17,18.7,18.7,0,0,1,3.83-2.25,19.55,19.55,0,0,1-3.3-2.25,9.69,9.69,0,0,1-2.38-3,8.5,8.5,0,0,1-.87-3.94,7.7,7.7,0,0,1,1.39-4.66,8.69,8.69,0,0,1,3.84-2.92A14.27,14.27,0,0,1,1009,1064.25Zm-7.87,27.52a5.91,5.91,0,0,0,2,4.56q2,1.79,5.91,1.79a8.59,8.59,0,0,0,5.81-1.79,6,6,0,0,0,2.05-4.71,5.56,5.56,0,0,0-.94-3.18,9.13,9.13,0,0,0-2.67-2.46,24.25,24.25,0,0,0-4.08-2l-.89-.32a19.36,19.36,0,0,0-3.87,2.09,8.4,8.4,0,0,0-2.43,2.61A6.66,6.66,0,0,0,1001.09,1091.77Zm7.82-24.16a7.75,7.75,0,0,0-4.78,1.4,4.74,4.74,0,0,0-1.85,4,5.41,5.41,0,0,0,.9,3.17,7.94,7.94,0,0,0,2.46,2.23,26.39,26.39,0,0,0,3.49,1.72,21.29,21.29,0,0,0,3.34-1.75,7.52,7.52,0,0,0,2.3-2.26,5.69,5.69,0,0,0,.84-3.14,4.7,4.7,0,0,0-1.85-4A7.86,7.86,0,0,0,1008.91,1067.61Z" transform="translate(-540 -420)"/><path class="cls-3" d="M1049.85,1082.79a42.05,42.05,0,0,1-.67,7.86,18.17,18.17,0,0,1-2.1,5.86,9.83,9.83,0,0,1-3.71,3.65,11.25,11.25,0,0,1-5.47,1.25,10,10,0,0,1-6.66-2.2,13.21,13.21,0,0,1-3.93-6.37,34.16,34.16,0,0,1-1.3-10,36.73,36.73,0,0,1,1.18-10,12.71,12.71,0,0,1,3.79-6.4,10.32,10.32,0,0,1,6.92-2.24,10.11,10.11,0,0,1,6.73,2.22,13.11,13.11,0,0,1,3.93,6.37A34.06,34.06,0,0,1,1049.85,1082.79Zm-19.71,0a38.67,38.67,0,0,0,.77,8.41,10,10,0,0,0,2.48,5,7,7,0,0,0,9,0,10,10,0,0,0,2.49-5,45.93,45.93,0,0,0,0-16.75,10.2,10.2,0,0,0-2.48-5,7,7,0,0,0-9.09,0,10,10,0,0,0-2.46,5A38.24,38.24,0,0,0,1030.14,1082.79Z" transform="translate(-540 -420)"/><path class="cls-3" d="M1080,1064.77q7,0,10.22,2.73t3.23,7.83a12.69,12.69,0,0,1-.76,4.36,9.16,9.16,0,0,1-2.43,3.63,11.75,11.75,0,0,1-4.42,2.48,21.54,21.54,0,0,1-6.68.9h-4.4v14.21h-4.21v-36.14Zm-.4,3.59h-4.84v14.73h3.93a19.32,19.32,0,0,0,5.77-.74,6.49,6.49,0,0,0,3.47-2.41,7.58,7.58,0,0,0,1.16-4.44,6.36,6.36,0,0,0-2.29-5.38C1085.22,1068.94,1082.82,1068.36,1079.56,1068.36Z" transform="translate(-540 -420)"/><path class="cls-3" d="M1125.1,1100.91h-4.77l-9.77-15.92-9.91,15.92h-4.48l12-18.83L1097,1064.77h4.67l9,14.41,9.07-14.41h4.45L1113.06,1082Z" transform="translate(-540 -420)"/><text class="cls-4" transform="translate(332.05 446.66)">XVIID</text></g></svg>