<svg id="Layer_1" data-name="Layer 1" xmlns="http://www.w3.org/2000/svg" viewBox="0 0 468 60"><defs><style>.cls-1{fill:#fafafa;}.cls-2{fill:#0c91f0;}.cls-3,.cls-4{fill:#7a7a7a;}.cls-4{font-size:23.02px;font-family:KeaniaOne-Regular, Keania One;}</style></defs><g id="full-banner"><rect id="_728_x_90" data-name="728 x 90" class="cls-1" x="930" y="726" width="60" height="468" transform="translate(1194 -930) rotate(90)"/><path class="cls-2" d="M951.63,957.11a.31.31,0,0,1-.32-.32v-8.34a.3.3,0,0,1,.09-.23.32.32,0,0,1,.23-.09h5.73a.32.32,0,0,1,.23.09.3.3,0,0,1,.09.23v1.09a.31.31,0,0,1-.32.32h-4.05V952h3.79a.32.32,0,0,1,.23.09.3.3,0,0,1,.09.23v1.09a.31.31,0,0,1-.09.22.32.32,0,0,1-.23.09h-3.79v3a.32.32,0,0,1-.09.23.3.3,0,0,1-.23.09Z" transform="translate(-726 -930)"/><path class="cls-2" d="M962.8,957.24a4.89,4.89,0,0,1-2-.38,2.81,2.81,0,0,1-1.31-1.17,4,4,0,0,1-.46-2v-5.23a.3.3,0,0,1,.09-.23.32.32,0,0,1,.23-.09h1.4a.32.32,0,0,1,.23.09.3.3,0,0,1,.09.23v5.22a2,2,0,0,0,.45,1.41,1.67,1.67,0,0,0,1.26.46,1.64,1.64,0,0,0,1.24-.46,2,2,0,0,0,.45-1.41v-5.22a.32.32,0,0,1,.32-.32h1.42a.29.29,0,0,1,.21.09.3.3,0,0,1,.09.23v5.23a3.88,3.88,0,0,1-.46,2,2.81,2.81,0,0,1-1.29,1.17A4.82,4.82,0,0,1,962.8,957.24Z" transform="translate(-726 -930)"/><path class="cls-2" d="M968.68,957.11a.3.3,0,0,1-.23-.09.32.32,0,0,1-.09-.23v-8.34a.31.31,0,0,1,.32-.32h1.42a.31.31,0,0,1,.32.32v6.94h4a.3.3,0,0,1,.23.09.32.32,0,0,1,.09.23v1.08a.32.32,0,0,1-.09.23.3.3,0,0,1-.23.09Z" transform="translate(-726 -930)"/><path class="cls-2" d="M976.22,957.11a.31.31,0,0,1-.32-.32v-8.34a.3.3,0,0,1,.09-.23.32.32,0,0,1,.23-.09h1.43a.32.32,0,0,1,.23.09.3.3,0,0,1,.09.23v6.94h4a.31.31,0,0,1,.32.32v1.08a.31.31,0,0,1-.32.32Z" transform="translate(-726 -930)"/><path class="cls-2" d="M986.3,957.11a.31.31,0,0,1-.32-.32v-8.34a.3.3,0,0,1,.09-.23.32.32,0,0,1,.23-.09h3.81a4.4,4.4,0,0,1,1.75.3,2.19,2.19,0,0,1,1,.88,2.63,2.63,0,0,1,.32,1.32,2,2,0,0,1-.17.83,2.07,2.07,0,0,1-.42.59,2,2,0,0,1-.49.35,2.18,2.18,0,0,1,.88.76,2.1,2.1,0,0,1,.38,1.27,2.69,2.69,0,0,1-.36,1.41,2.44,2.44,0,0,1-1.06.94,4.06,4.06,0,0,1-1.72.33Zm1.72-5.35h1.85a1.22,1.22,0,0,0,.9-.3,1.07,1.07,0,0,0,.3-.78,1,1,0,0,0-.3-.76,1.22,1.22,0,0,0-.9-.29H988Zm0,3.85h2a1.23,1.23,0,0,0,.95-.35,1.19,1.19,0,0,0,.32-.84,1.21,1.21,0,0,0-.32-.85,1.3,1.3,0,0,0-.95-.34h-2Z" transform="translate(-726 -930)"/><path class="cls-2" d="M994.24,957.11a.27.27,0,0,1-.19-.08.29.29,0,0,1-.08-.19.5.5,0,0,1,0-.12l3-8.25a.54.54,0,0,1,.16-.24.44.44,0,0,1,.32-.1h1.64a.46.46,0,0,1,.32.1.54.54,0,0,1,.16.24l3.05,8.25a.49.49,0,0,1,0,.12.28.28,0,0,1-.07.19.3.3,0,0,1-.2.08h-1.33a.38.38,0,0,1-.28-.09.53.53,0,0,1-.12-.17l-.55-1.43h-3.62l-.55,1.43a.53.53,0,0,1-.12.17.38.38,0,0,1-.28.09Zm2.76-3.35h2.66l-1.32-3.7Z" transform="translate(-726 -930)"/><path class="cls-2" d="M1004.13,957.11a.3.3,0,0,1-.23-.09.32.32,0,0,1-.09-.23v-8.34a.31.31,0,0,1,.32-.32h1.17a.39.39,0,0,1,.28.09.38.38,0,0,1,.11.14l3.43,5.35v-5.26a.3.3,0,0,1,.09-.23.29.29,0,0,1,.22-.09h1.31a.32.32,0,0,1,.23.09.3.3,0,0,1,.09.23v8.34a.29.29,0,0,1-.09.22.29.29,0,0,1-.23.1h-1.18a.34.34,0,0,1-.28-.1.81.81,0,0,0-.12-.13l-3.41-5.19v5.1a.36.36,0,0,1-.09.23.32.32,0,0,1-.24.09Z" transform="translate(-726 -930)"/><path class="cls-2" d="M1013.28,957.11a.31.31,0,0,1-.32-.32v-8.34a.3.3,0,0,1,.09-.23.32.32,0,0,1,.23-.09h1.17a.38.38,0,0,1,.28.09.64.64,0,0,1,.12.14l3.42,5.35v-5.26a.3.3,0,0,1,.09-.23.29.29,0,0,1,.22-.09h1.31a.32.32,0,0,1,.23.09.3.3,0,0,1,.09.23v8.34a.29.29,0,0,1-.09.22.29.29,0,0,1-.23.1h-1.18a.34.34,0,0,1-.28-.1.81.81,0,0,0-.12-.13l-3.41-5.19v5.1a.31.31,0,0,1-.32.32Z" transform="translate(-726 -930)"/><path class="cls-2" d="M1022.43,957.11a.31.31,0,0,1-.32-.32v-8.34a.3.3,0,0,1,.09-.23.32.32,0,0,1,.23-.09h5.82a.32.32,0,0,1,.23.09.3.3,0,0,1,.09.23v1a.29.29,0,0,1-.09.22.32.32,0,0,1-.23.09h-4.16v2H1028a.31.31,0,0,1,.32.32v1a.31.31,0,0,1-.09.22.34.34,0,0,1-.23.09h-3.87v2.07h4.26a.32.32,0,0,1,.23.09.32.32,0,0,1,.09.24v1a.31.31,0,0,1-.32.32Z" transform="translate(-726 -930)"/><path class="cls-2" d="M1030.52,957.11a.3.3,0,0,1-.23-.09.32.32,0,0,1-.09-.23v-8.34a.31.31,0,0,1,.32-.32h3.4a4,4,0,0,1,2.53.73,2.59,2.59,0,0,1,.92,2.13,2.62,2.62,0,0,1-.45,1.56,2.64,2.64,0,0,1-1.21.94l1.82,3.21a.39.39,0,0,1,0,.14.26.26,0,0,1-.27.27h-1.42a.46.46,0,0,1-.35-.12,1,1,0,0,1-.16-.23l-1.57-2.94h-1.55v3a.31.31,0,0,1-.32.32Zm1.72-4.92h1.64a1.47,1.47,0,0,0,1-.32,1.19,1.19,0,0,0,.34-.9,1.26,1.26,0,0,0-.34-.91,1.44,1.44,0,0,0-1-.33h-1.64Z" transform="translate(-726 -930)"/><path class="cls-3" d="M954.57,970.47h-.82v1.26h-.6v-1.26h-2.62V970l2.58-3.68h.64v3.65h.82Zm-1.42-.55v-2.15c0-.11,0-.21,0-.31a2.44,2.44,0,0,1,0-.27c0-.09,0-.17,0-.26h0l-.16.32a2.43,2.43,0,0,1-.19.29l-1.67,2.38Z" transform="translate(-726 -930)"/><path class="cls-3" d="M955.14,969.41a6,6,0,0,1,.07-1,4,4,0,0,1,.23-.87,2.38,2.38,0,0,1,.45-.71,1.92,1.92,0,0,1,.7-.47,2.57,2.57,0,0,1,1-.18l.36,0a2,2,0,0,1,.32,0v.54a.94.94,0,0,0-.31-.07l-.36,0a1.73,1.73,0,0,0-1.08.3,1.61,1.61,0,0,0-.57.82,3.75,3.75,0,0,0-.2,1.16h0a1.34,1.34,0,0,1,.29-.34,1.37,1.37,0,0,1,.43-.24,1.8,1.8,0,0,1,.6-.09,1.85,1.85,0,0,1,.83.19,1.41,1.41,0,0,1,.55.56,1.93,1.93,0,0,1,.19.9,2.13,2.13,0,0,1-.21,1,1.42,1.42,0,0,1-.59.62,1.78,1.78,0,0,1-.91.23,1.82,1.82,0,0,1-.74-.16,1.66,1.66,0,0,1-.58-.45,2.2,2.2,0,0,1-.38-.75A3.59,3.59,0,0,1,955.14,969.41Zm1.83,1.88a1.07,1.07,0,0,0,.81-.33,1.37,1.37,0,0,0,.3-1,1.26,1.26,0,0,0-.27-.85,1,1,0,0,0-.82-.31,1.32,1.32,0,0,0-.64.15,1.16,1.16,0,0,0-.43.39.87.87,0,0,0-.15.47,1.73,1.73,0,0,0,.07.5,1.56,1.56,0,0,0,.22.47,1.27,1.27,0,0,0,.38.35A1.12,1.12,0,0,0,957,971.29Z" transform="translate(-726 -930)"/><path class="cls-3" d="M961.23,966.22a2.16,2.16,0,0,1,.83.15,1.27,1.27,0,0,1,.57.44,1.17,1.17,0,0,1,.21.71,1.15,1.15,0,0,1-.14.57,1.45,1.45,0,0,1-.39.43,2.62,2.62,0,0,1-.53.33,4.72,4.72,0,0,1,.63.36,1.67,1.67,0,0,1,.44.48,1.19,1.19,0,0,1,.16.64,1.38,1.38,0,0,1-.22.79,1.43,1.43,0,0,1-.62.51,2.2,2.2,0,0,1-.93.18,2.42,2.42,0,0,1-1-.18,1.36,1.36,0,0,1-.61-.49,1.43,1.43,0,0,1-.21-.79,1.25,1.25,0,0,1,.16-.65,1.91,1.91,0,0,1,.42-.48,3,3,0,0,1,.58-.33,3.65,3.65,0,0,1-.5-.34,1.62,1.62,0,0,1-.35-.44,1.26,1.26,0,0,1-.13-.6,1.16,1.16,0,0,1,.21-.7,1.24,1.24,0,0,1,.57-.43A2,2,0,0,1,961.23,966.22Zm-1.18,4.14a.87.87,0,0,0,.29.68,1.28,1.28,0,0,0,.89.27,1.29,1.29,0,0,0,.87-.27.91.91,0,0,0,.31-.71.84.84,0,0,0-.14-.47,1.43,1.43,0,0,0-.4-.37,3.58,3.58,0,0,0-.62-.3l-.13-.05a2.85,2.85,0,0,0-.58.32,1.24,1.24,0,0,0-.37.39A1,1,0,0,0,960.05,970.36Zm1.17-3.63a1.18,1.18,0,0,0-.72.21.72.72,0,0,0-.28.6.83.83,0,0,0,.14.48,1.08,1.08,0,0,0,.37.33,3.6,3.6,0,0,0,.52.26,2.6,2.6,0,0,0,.5-.26,1.14,1.14,0,0,0,.35-.34.89.89,0,0,0,.13-.47.72.72,0,0,0-.28-.6A1.17,1.17,0,0,0,961.22,966.73Z" transform="translate(-726 -930)"/><path class="cls-3" d="M969.75,971.73H969l-1.46-2.39-1.49,2.39h-.67l1.8-2.83-1.68-2.6h.7l1.36,2.17L969,966.3h.67l-1.68,2.59Z" transform="translate(-726 -930)"/><path class="cls-3" d="M972.18,969.41a7.48,7.48,0,0,1,.07-1,4,4,0,0,1,.23-.87,2.38,2.38,0,0,1,.45-.71,1.92,1.92,0,0,1,.7-.47,2.57,2.57,0,0,1,1-.18l.36,0a2,2,0,0,1,.32,0v.54a.94.94,0,0,0-.31-.07l-.35,0a1.76,1.76,0,0,0-1.09.3,1.74,1.74,0,0,0-.57.82,4.07,4.07,0,0,0-.2,1.16h0a1.34,1.34,0,0,1,.29-.34,1.43,1.43,0,0,1,.44-.24,1.7,1.7,0,0,1,.59-.09,1.85,1.85,0,0,1,.83.19,1.41,1.41,0,0,1,.55.56,1.93,1.93,0,0,1,.19.9,2.13,2.13,0,0,1-.21,1,1.36,1.36,0,0,1-.59.62,1.76,1.76,0,0,1-.91.23,1.74,1.74,0,0,1-.73-.16,1.61,1.61,0,0,1-.59-.45,2.2,2.2,0,0,1-.38-.75A3.59,3.59,0,0,1,972.18,969.41Zm1.83,1.88a1,1,0,0,0,.81-.33,1.37,1.37,0,0,0,.3-1,1.26,1.26,0,0,0-.27-.85,1,1,0,0,0-.81-.31,1.33,1.33,0,0,0-.65.15,1.16,1.16,0,0,0-.43.39.87.87,0,0,0-.15.47,1.73,1.73,0,0,0,.07.5,1.56,1.56,0,0,0,.22.47,1.27,1.27,0,0,0,.38.35A1.12,1.12,0,0,0,974,971.29Z" transform="translate(-726 -930)"/><path class="cls-3" d="M980.06,969a6,6,0,0,1-.1,1.18,2.84,2.84,0,0,1-.31.88,1.55,1.55,0,0,1-.56.55,1.74,1.74,0,0,1-.82.19,1.51,1.51,0,0,1-1-.33,2,2,0,0,1-.59-1,5.12,5.12,0,0,1-.2-1.51,5.5,5.5,0,0,1,.18-1.5,2,2,0,0,1,.57-1,1.56,1.56,0,0,1,1-.33,1.53,1.53,0,0,1,1,.33,2,2,0,0,1,.59,1A5,5,0,0,1,980.06,969Zm-3,0a5.54,5.54,0,0,0,.12,1.26,1.47,1.47,0,0,0,.37.76.92.92,0,0,0,.68.25A.94.94,0,0,0,979,971a1.55,1.55,0,0,0,.37-.75,5.64,5.64,0,0,0,.12-1.27,5.51,5.51,0,0,0-.12-1.25A1.47,1.47,0,0,0,979,967a.92.92,0,0,0-.68-.25,1,1,0,0,0-.69.25,1.55,1.55,0,0,0-.37.76A6.23,6.23,0,0,0,977.1,969Z" transform="translate(-726 -930)"/><path class="cls-3" d="M984.58,966.3a2.36,2.36,0,0,1,1.54.41,1.49,1.49,0,0,1,.49,1.18,1.75,1.75,0,0,1-.12.65,1.42,1.42,0,0,1-.36.55,1.72,1.72,0,0,1-.67.37,3.17,3.17,0,0,1-1,.14h-.66v2.13h-.63V966.3Zm-.05.54h-.73v2.21h.59a2.79,2.79,0,0,0,.87-.11,1,1,0,0,0,.52-.36,1.21,1.21,0,0,0,.17-.67.93.93,0,0,0-.34-.8A1.75,1.75,0,0,0,984.53,966.84Z" transform="translate(-726 -930)"/><path class="cls-3" d="M991.37,971.73h-.72l-1.47-2.39-1.49,2.39H987l1.81-2.83-1.68-2.6h.7l1.36,2.17,1.36-2.17h.67l-1.68,2.59Z" transform="translate(-726 -930)"/><text class="cls-4" transform="translate(156 37.25)">XVIID</text></g></svg>