<svg id="Layer_1" data-name="Layer 1" xmlns="http://www.w3.org/2000/svg" viewBox="0 0 234 60"><defs><style>.cls-1{fill:#fafafa;}.cls-2{fill:#0c91f0;}.cls-3,.cls-4{fill:#7a7a7a;}.cls-4{font-size:16.68px;font-family:KeaniaOne-Regular, Keania One;}</style></defs><g id="half-banner"><rect id="_728_x_90" data-name="728 x 90" class="cls-1" x="930" y="843" width="60" height="234" transform="translate(1077 -930) rotate(90)"/><path class="cls-2" d="M953.27,957.91a.26.26,0,0,1-.17-.07.24.24,0,0,1-.06-.17v-6a.24.24,0,0,1,.06-.17.25.25,0,0,1,.17-.06h1a.24.24,0,0,1,.17.06.21.21,0,0,1,.07.17V954H957v-2.32a.24.24,0,0,1,.06-.17.25.25,0,0,1,.17-.06h1a.24.24,0,0,1,.17.06.21.21,0,0,1,.07.17v6a.21.21,0,0,1-.07.17.24.24,0,0,1-.17.07h-1a.26.26,0,0,1-.17-.07.24.24,0,0,1-.06-.17v-2.4h-2.52v2.4a.21.21,0,0,1-.07.17.24.24,0,0,1-.17.07Z" transform="translate(-843 -930)"/><path class="cls-2" d="M959.51,957.91a.2.2,0,0,1-.14-.06.19.19,0,0,1,0-.14.19.19,0,0,1,0-.08l2.21-6a.42.42,0,0,1,.11-.18.33.33,0,0,1,.23-.07h1.19a.36.36,0,0,1,.24.07.42.42,0,0,1,.11.18l2.21,6a.19.19,0,0,1,0,.08.24.24,0,0,1,0,.14.2.2,0,0,1-.14.06h-1a.31.31,0,0,1-.21-.07.28.28,0,0,1-.08-.12l-.4-1h-2.62l-.4,1a.31.31,0,0,1-.09.12.28.28,0,0,1-.2.07Zm2-2.43h1.93l-1-2.68Z" transform="translate(-843 -930)"/><path class="cls-2" d="M966.67,957.91a.26.26,0,0,1-.17-.07.24.24,0,0,1-.06-.17v-6a.24.24,0,0,1,.06-.17.25.25,0,0,1,.17-.06h1a.23.23,0,0,1,.16.06.21.21,0,0,1,.07.17v5h2.88a.21.21,0,0,1,.17.07.21.21,0,0,1,.06.16v.78a.24.24,0,0,1-.06.17.24.24,0,0,1-.17.07Z" transform="translate(-843 -930)"/><path class="cls-2" d="M972.14,957.91a.26.26,0,0,1-.17-.07.24.24,0,0,1-.06-.17v-6a.24.24,0,0,1,.06-.17.25.25,0,0,1,.17-.06h4.15a.21.21,0,0,1,.23.23v.79a.25.25,0,0,1-.06.17.24.24,0,0,1-.17.06h-2.93v1.57h2.74a.24.24,0,0,1,.24.24v.79a.18.18,0,0,1-.07.15.21.21,0,0,1-.17.07h-2.74v2.2a.24.24,0,0,1-.06.17.26.26,0,0,1-.17.07Z" transform="translate(-843 -930)"/><path class="cls-2" d="M979.72,957.91a.26.26,0,0,1-.17-.07.24.24,0,0,1-.06-.17v-6a.24.24,0,0,1,.06-.17.25.25,0,0,1,.17-.06h2.77a3.06,3.06,0,0,1,1.26.22,1.57,1.57,0,0,1,.73.63,1.85,1.85,0,0,1,.24,1,1.45,1.45,0,0,1-.43,1,1.65,1.65,0,0,1-.35.25,1.58,1.58,0,0,1,.63.56,1.47,1.47,0,0,1,.28.91,2,2,0,0,1-.26,1,1.75,1.75,0,0,1-.77.67,2.82,2.82,0,0,1-1.25.25ZM981,954h1.34a.85.85,0,0,0,.65-.22.75.75,0,0,0,.22-.56.73.73,0,0,0-.22-.56.89.89,0,0,0-.65-.21H981Zm0,2.79h1.42a.89.89,0,0,0,.69-.26.84.84,0,0,0,.23-.61.89.89,0,0,0-.23-.61.93.93,0,0,0-.69-.24H981Z" transform="translate(-843 -930)"/><path class="cls-2" d="M985.48,957.91a.18.18,0,0,1-.14-.06.2.2,0,0,1-.06-.14s0-.06,0-.08l2.22-6a.34.34,0,0,1,.11-.18.32.32,0,0,1,.23-.07H989a.32.32,0,0,1,.23.07.36.36,0,0,1,.12.18l2.21,6a.19.19,0,0,1,0,.08.2.2,0,0,1-.06.14.17.17,0,0,1-.14.06h-1a.31.31,0,0,1-.21-.07.28.28,0,0,1-.08-.12l-.4-1h-2.62l-.4,1a.31.31,0,0,1-.09.12.28.28,0,0,1-.2.07Zm2-2.43h1.93l-1-2.68Z" transform="translate(-843 -930)"/><path class="cls-2" d="M992.64,957.91a.26.26,0,0,1-.17-.07.24.24,0,0,1-.06-.17v-6a.24.24,0,0,1,.06-.17.25.25,0,0,1,.17-.06h.85a.28.28,0,0,1,.2.06.65.65,0,0,1,.09.1l2.48,3.88v-3.81a.21.21,0,0,1,.07-.17.2.2,0,0,1,.15-.06h.95a.21.21,0,0,1,.23.23v6a.25.25,0,0,1-.06.17.24.24,0,0,1-.17.07h-.85a.27.27,0,0,1-.2-.07l-.09-.1L993.81,954v3.69a.24.24,0,0,1-.06.17.24.24,0,0,1-.17.07Z" transform="translate(-843 -930)"/><path class="cls-2" d="M999.27,957.91a.24.24,0,0,1-.16-.07.21.21,0,0,1-.07-.17v-6a.21.21,0,0,1,.07-.17.23.23,0,0,1,.16-.06h.85a.28.28,0,0,1,.2.06.35.35,0,0,1,.09.1l2.48,3.88v-3.81a.21.21,0,0,1,.07-.17.2.2,0,0,1,.15-.06h.95a.24.24,0,0,1,.17.06.24.24,0,0,1,.07.17v6a.26.26,0,0,1-.07.17.24.24,0,0,1-.17.07h-.85a.27.27,0,0,1-.2-.07l-.09-.1-2.47-3.76v3.69a.24.24,0,0,1-.24.24Z" transform="translate(-843 -930)"/><path class="cls-2" d="M1005.91,957.91a.24.24,0,0,1-.17-.07.21.21,0,0,1-.07-.17v-6a.21.21,0,0,1,.07-.17.24.24,0,0,1,.17-.06h4.21a.25.25,0,0,1,.17.06.24.24,0,0,1,.06.17v.74a.23.23,0,0,1-.06.16.26.26,0,0,1-.17.07h-3v1.46h2.8a.24.24,0,0,1,.17.06.24.24,0,0,1,.07.17V955a.21.21,0,0,1-.07.15.21.21,0,0,1-.17.07h-2.8v1.51h3.08a.24.24,0,0,1,.17.06.24.24,0,0,1,.07.17v.73a.24.24,0,0,1-.24.24Z" transform="translate(-843 -930)"/><path class="cls-2" d="M1011.76,957.91a.24.24,0,0,1-.16-.07.21.21,0,0,1-.07-.17v-6a.21.21,0,0,1,.07-.17.23.23,0,0,1,.16-.06h2.47a2.83,2.83,0,0,1,1.83.53,1.85,1.85,0,0,1,.67,1.54,1.83,1.83,0,0,1-1.2,1.81l1.31,2.33a.22.22,0,0,1,0,.1.24.24,0,0,1,0,.14.2.2,0,0,1-.14.06h-1a.33.33,0,0,1-.25-.09l-.12-.16-1.13-2.13H1013v2.14a.24.24,0,0,1-.06.17.26.26,0,0,1-.17.07Zm1.25-3.57h1.19a1.06,1.06,0,0,0,.76-.23.86.86,0,0,0,.25-.65.9.9,0,0,0-.25-.66,1,1,0,0,0-.76-.24H1013Z" transform="translate(-843 -930)"/><path class="cls-3" d="M955.2,968.5h-2.58v-.37l1-1.07c.2-.2.36-.37.5-.53a2,2,0,0,0,.3-.46,1.14,1.14,0,0,0,.11-.49.66.66,0,0,0-.2-.51.73.73,0,0,0-.52-.18,1.27,1.27,0,0,0-.5.1,2.21,2.21,0,0,0-.45.28l-.24-.31a4,4,0,0,1,.34-.23,2,2,0,0,1,.4-.16,1.63,1.63,0,0,1,.45-.06,1.39,1.39,0,0,1,.63.13.88.88,0,0,1,.4.36,1,1,0,0,1,.15.55,1.24,1.24,0,0,1-.13.58,2.06,2.06,0,0,1-.34.53c-.15.18-.33.36-.53.56l-.85.85v0h2Z" transform="translate(-843 -930)"/><path class="cls-3" d="M958.21,965.48a1,1,0,0,1-.11.46.79.79,0,0,1-.28.32,1.17,1.17,0,0,1-.43.17v0a1.16,1.16,0,0,1,.7.3.86.86,0,0,1,.24.64,1.17,1.17,0,0,1-.16.6,1.05,1.05,0,0,1-.49.41,2.06,2.06,0,0,1-.85.15,2.52,2.52,0,0,1-.57,0,1.78,1.78,0,0,1-.51-.16v-.42a2.57,2.57,0,0,0,1.09.26,1.12,1.12,0,0,0,.78-.22.74.74,0,0,0,.24-.58.64.64,0,0,0-.14-.42.79.79,0,0,0-.38-.23,2.15,2.15,0,0,0-.6-.07h-.39v-.38h.39a1.29,1.29,0,0,0,.55-.1.76.76,0,0,0,.34-.26.71.71,0,0,0,.12-.41.57.57,0,0,0-.2-.46.85.85,0,0,0-.54-.16,1.61,1.61,0,0,0-.39,0,1.75,1.75,0,0,0-.32.12l-.3.17-.23-.3a2.21,2.21,0,0,1,.53-.29,1.9,1.9,0,0,1,.7-.12,1.26,1.26,0,0,1,.9.28A.86.86,0,0,1,958.21,965.48Z" transform="translate(-843 -930)"/><path class="cls-3" d="M961.7,967.59h-.59v.91h-.44v-.91h-1.9v-.38l1.87-2.67h.47v2.65h.59Zm-1-.4V965.9a2.26,2.26,0,0,1,0-.27v-.22a1.41,1.41,0,0,0,0-.2,1.21,1.21,0,0,0,0-.19h0a2.53,2.53,0,0,1-.12.23,1.93,1.93,0,0,1-.13.21l-1.22,1.73Z" transform="translate(-843 -930)"/><path class="cls-3" d="M966.4,968.5h-.52l-1.06-1.73-1.08,1.73h-.49l1.31-2-1.22-1.88h.51l1,1.56,1-1.56h.48l-1.21,1.87Z" transform="translate(-843 -930)"/><path class="cls-3" d="M968.16,966.82a5.36,5.36,0,0,1,.05-.7,3.25,3.25,0,0,1,.17-.63,1.91,1.91,0,0,1,.32-.51,1.54,1.54,0,0,1,.51-.35,2,2,0,0,1,.74-.12h.26l.23,0V965a1.28,1.28,0,0,0-.23-.06H970a1.16,1.16,0,0,0-1.2.81,3,3,0,0,0-.14.84h0a.82.82,0,0,1,.21-.25,1,1,0,0,1,.31-.17,1.18,1.18,0,0,1,.43-.07,1.34,1.34,0,0,1,.61.14,1,1,0,0,1,.39.41,1.3,1.3,0,0,1,.14.65,1.54,1.54,0,0,1-.15.7,1,1,0,0,1-.43.45,1.24,1.24,0,0,1-.66.16,1.21,1.21,0,0,1-1-.43,1.67,1.67,0,0,1-.28-.55A2.72,2.72,0,0,1,968.16,966.82Zm1.33,1.36a.75.75,0,0,0,.58-.24,1,1,0,0,0,.22-.7.92.92,0,0,0-.19-.62.75.75,0,0,0-.6-.22.87.87,0,0,0-.46.11.77.77,0,0,0-.31.28.57.57,0,0,0-.11.34,1.12,1.12,0,0,0,0,.36,1,1,0,0,0,.16.34.72.72,0,0,0,.27.25A.71.71,0,0,0,969.49,968.18Z" transform="translate(-843 -930)"/><path class="cls-3" d="M973.87,966.53a4.36,4.36,0,0,1-.07.85,2.09,2.09,0,0,1-.23.64,1,1,0,0,1-.4.4,1.26,1.26,0,0,1-.6.13,1.08,1.08,0,0,1-.72-.24,1.41,1.41,0,0,1-.43-.69,4.43,4.43,0,0,1,0-2.17,1.31,1.31,0,0,1,.41-.7,1.13,1.13,0,0,1,.75-.25,1,1,0,0,1,.73.25,1.34,1.34,0,0,1,.43.69A3.52,3.52,0,0,1,973.87,966.53Zm-2.14,0a3.94,3.94,0,0,0,.08.91,1.13,1.13,0,0,0,.27.55.69.69,0,0,0,.49.18.66.66,0,0,0,.49-.18,1,1,0,0,0,.27-.54,4,4,0,0,0,.09-.92,4.66,4.66,0,0,0-.08-.91,1.23,1.23,0,0,0-.27-.55.7.7,0,0,0-.5-.18.67.67,0,0,0-.49.18,1.06,1.06,0,0,0-.27.55A4,4,0,0,0,971.73,966.53Z" transform="translate(-843 -930)"/><path class="cls-3" d="M977.15,964.57a1.74,1.74,0,0,1,1.11.29,1,1,0,0,1,.35.85,1.27,1.27,0,0,1-.08.48,1,1,0,0,1-.26.4,1.58,1.58,0,0,1-.48.27,2.55,2.55,0,0,1-.73.09h-.48v1.55h-.46v-3.93Zm0,.39h-.53v1.6H977a2.25,2.25,0,0,0,.63-.08.68.68,0,0,0,.37-.26.79.79,0,0,0,.13-.49.68.68,0,0,0-.25-.58A1.28,1.28,0,0,0,977.11,965Z" transform="translate(-843 -930)"/><path class="cls-3" d="M982.06,968.5h-.52l-1.06-1.73-1.08,1.73h-.48l1.31-2L979,964.57h.51l1,1.56,1-1.56H982l-1.22,1.87Z" transform="translate(-843 -930)"/><text class="cls-4" transform="translate(59.81 35.25)">XVIID</text></g></svg>