<svg id="Layer_1" data-name="Layer 1" xmlns="http://www.w3.org/2000/svg" viewBox="0 0 300 600"><defs><style>.cls-1{fill:#fafafa;}.cls-2{fill:#0c91f0;}.cls-3,.cls-4{fill:#7a7a7a;}.cls-4{font-size:15.76px;font-family:KeaniaOne-Regular, Keania One;}</style></defs><g id="halfpage"><rect id="_1080_x_1920" data-name="1080 x 1920" class="cls-1" width="300" height="600"/><path class="cls-2" d="M911.87,962a.46.46,0,0,1-.34-.14.44.44,0,0,1-.13-.34V949.27a.45.45,0,0,1,.47-.47h2.06a.44.44,0,0,1,.34.13.46.46,0,0,1,.14.34V954h5.12v-4.73a.49.49,0,0,1,.13-.34.47.47,0,0,1,.34-.13h2.07a.47.47,0,0,1,.34.13.49.49,0,0,1,.13.34v12.29a.46.46,0,0,1-.47.48H920a.46.46,0,0,1-.47-.48v-4.88h-5.12v4.88a.48.48,0,0,1-.48.48Z" transform="translate(-810 -660)"/><path class="cls-2" d="M924.56,962a.34.34,0,0,1-.28-.13.36.36,0,0,1-.11-.27.91.91,0,0,1,0-.17l4.5-12.16a.77.77,0,0,1,.23-.36.68.68,0,0,1,.47-.15h2.42a.71.71,0,0,1,.48.15.68.68,0,0,1,.22.36L937,961.47a.91.91,0,0,1,0,.17.36.36,0,0,1-.11.27.35.35,0,0,1-.28.13h-2a.57.57,0,0,1-.42-.14.82.82,0,0,1-.17-.24l-.81-2.12h-5.33l-.81,2.12a.71.71,0,0,1-.18.24.53.53,0,0,1-.41.14Zm4.07-4.94h3.91l-1.95-5.45Z" transform="translate(-810 -660)"/><path class="cls-2" d="M939.12,962a.46.46,0,0,1-.34-.14.44.44,0,0,1-.13-.34V949.27a.45.45,0,0,1,.47-.47h2.1a.45.45,0,0,1,.47.47V959.5h5.87a.49.49,0,0,1,.34.13.47.47,0,0,1,.13.34v1.59a.44.44,0,0,1-.13.34.46.46,0,0,1-.34.14Z" transform="translate(-810 -660)"/><path class="cls-2" d="M950.24,962a.46.46,0,0,1-.34-.14.44.44,0,0,1-.13-.34V949.27a.45.45,0,0,1,.47-.47h8.44a.45.45,0,0,1,.47.47v1.61a.45.45,0,0,1-.47.47h-6v3.2h5.58a.45.45,0,0,1,.47.47v1.61a.44.44,0,0,1-.13.32.45.45,0,0,1-.34.13h-5.58v4.48a.44.44,0,0,1-.13.34.46.46,0,0,1-.34.14Z" transform="translate(-810 -660)"/><path class="cls-2" d="M961.76,962a.46.46,0,0,1-.34-.14.44.44,0,0,1-.13-.34V949.27a.45.45,0,0,1,.47-.47h5.16a7,7,0,0,1,2.66.47,3.84,3.84,0,0,1,1.76,1.43,4.79,4.79,0,0,1,0,4.75,3.83,3.83,0,0,1-1.76,1.39,7.16,7.16,0,0,1-2.66.45h-2.53v4.27a.46.46,0,0,1-.47.48Zm2.57-7.1h2.5a2.18,2.18,0,0,0,1.5-.47,1.78,1.78,0,0,0,.54-1.42,2,2,0,0,0-.48-1.36,2,2,0,0,0-1.56-.53h-2.5Z" transform="translate(-810 -660)"/><path class="cls-2" d="M972.25,962a.35.35,0,0,1-.28-.13.4.4,0,0,1-.11-.27.47.47,0,0,1,0-.17l4.5-12.16a.75.75,0,0,1,.22-.36.73.73,0,0,1,.48-.15h2.42a.68.68,0,0,1,.47.15.77.77,0,0,1,.23.36l4.5,12.16a.88.88,0,0,1,0,.17.37.37,0,0,1-.12.27.34.34,0,0,1-.28.13h-2a.55.55,0,0,1-.41-.14.56.56,0,0,1-.17-.24l-.82-2.12h-5.33l-.81,2.12a.67.67,0,0,1-.17.24.57.57,0,0,1-.42.14Zm4.07-4.94h3.92l-2-5.45Z" transform="translate(-810 -660)"/><path class="cls-2" d="M991.37,962.23a7,7,0,0,1-3-.6,4.46,4.46,0,0,1-2-1.74,5.69,5.69,0,0,1-.75-2.77c0-.54,0-1.12,0-1.74s0-1.2,0-1.76a5.42,5.42,0,0,1,.75-2.7,4.4,4.4,0,0,1,2-1.71,7,7,0,0,1,3-.6,7.59,7.59,0,0,1,2.46.36,5.86,5.86,0,0,1,1.78.93,4.57,4.57,0,0,1,1.1,1.26,2.88,2.88,0,0,1,.39,1.31.39.39,0,0,1-.11.29.41.41,0,0,1-.3.12h-2.35a.5.5,0,0,1-.29-.07.62.62,0,0,1-.18-.23,2.37,2.37,0,0,0-.43-.69,2.45,2.45,0,0,0-.78-.6,3,3,0,0,0-1.29-.24,2.73,2.73,0,0,0-1.88.62,2.78,2.78,0,0,0-.74,2.05q-.06,1.62,0,3.3a2.88,2.88,0,0,0,.76,2.12,2.72,2.72,0,0,0,1.9.65,3.41,3.41,0,0,0,1.39-.28,2.15,2.15,0,0,0,1-.86,2.91,2.91,0,0,0,.35-1.49v-.48h-2.06a.41.41,0,0,1-.32-.14.44.44,0,0,1-.13-.33V955a.45.45,0,0,1,.13-.34.44.44,0,0,1,.32-.13h4.64a.47.47,0,0,1,.34.13.49.49,0,0,1,.13.34v2.06a5.22,5.22,0,0,1-.71,2.78,4.6,4.6,0,0,1-2,1.77A7.2,7.2,0,0,1,991.37,962.23Z" transform="translate(-810 -660)"/><path class="cls-2" d="M1000,962a.46.46,0,0,1-.34-.14.44.44,0,0,1-.13-.34V949.27a.45.45,0,0,1,.47-.47h8.57a.47.47,0,0,1,.34.13.49.49,0,0,1,.13.34v1.51a.49.49,0,0,1-.13.33.51.51,0,0,1-.34.13h-6.13v3h5.71a.45.45,0,0,1,.47.47v1.4a.42.42,0,0,1-.13.32.45.45,0,0,1-.34.13h-5.71v3.07h6.28a.45.45,0,0,1,.47.47v1.49a.44.44,0,0,1-.13.34.46.46,0,0,1-.34.14Z" transform="translate(-810 -660)"/><path class="cls-3" d="M932.07,985.05a1.94,1.94,0,0,1-.21.93,1.73,1.73,0,0,1-.58.65,2.4,2.4,0,0,1-.87.34v0a2.34,2.34,0,0,1,1.43.61,1.77,1.77,0,0,1,.48,1.29,2.26,2.26,0,0,1-.33,1.23,2.17,2.17,0,0,1-1,.84,4.07,4.07,0,0,1-1.72.31,7.09,7.09,0,0,1-1.17-.1,4,4,0,0,1-1-.34V990a5.32,5.32,0,0,0,2.21.52,2.33,2.33,0,0,0,1.58-.43,1.5,1.5,0,0,0,.49-1.19,1.25,1.25,0,0,0-.27-.84,1.52,1.52,0,0,0-.78-.47,4.33,4.33,0,0,0-1.22-.15h-.79v-.78h.8a3,3,0,0,0,1.1-.19,1.55,1.55,0,0,0,.7-.54,1.42,1.42,0,0,0,.23-.83,1.13,1.13,0,0,0-.4-.93,1.7,1.7,0,0,0-1.1-.34,3.21,3.21,0,0,0-.78.09,3.35,3.35,0,0,0-.65.24,6.61,6.61,0,0,0-.62.36l-.46-.62a4.19,4.19,0,0,1,1.07-.59,4,4,0,0,1,1.43-.25,2.66,2.66,0,0,1,1.84.56A1.83,1.83,0,0,1,932.07,985.05Z" transform="translate(-810 -660)"/><path class="cls-3" d="M938.82,987.18a9.1,9.1,0,0,1-.15,1.74,3.77,3.77,0,0,1-.47,1.29,2.06,2.06,0,0,1-.82.81,2.41,2.41,0,0,1-1.21.28,2.25,2.25,0,0,1-1.47-.49,2.84,2.84,0,0,1-.87-1.41,7.57,7.57,0,0,1-.29-2.22,8.38,8.38,0,0,1,.26-2.21,2.82,2.82,0,0,1,.84-1.41,2.29,2.29,0,0,1,1.53-.5,2.26,2.26,0,0,1,1.49.49,2.93,2.93,0,0,1,.87,1.41A7.62,7.62,0,0,1,938.82,987.18Zm-4.36,0a8.18,8.18,0,0,0,.17,1.86,2.15,2.15,0,0,0,.55,1.11,1.52,1.52,0,0,0,2,0,2.15,2.15,0,0,0,.56-1.11,8.73,8.73,0,0,0,.17-1.86,8.53,8.53,0,0,0-.17-1.84,2.31,2.31,0,0,0-.55-1.12,1.37,1.37,0,0,0-1-.38,1.35,1.35,0,0,0-1,.38,2.22,2.22,0,0,0-.55,1.12A8.61,8.61,0,0,0,934.46,987.18Z" transform="translate(-810 -660)"/><path class="cls-3" d="M945.22,987.18a10,10,0,0,1-.14,1.74,4,4,0,0,1-.47,1.29,2.06,2.06,0,0,1-.82.81,2.43,2.43,0,0,1-1.21.28,2.25,2.25,0,0,1-1.47-.49,2.84,2.84,0,0,1-.87-1.41,7.25,7.25,0,0,1-.29-2.22,8.38,8.38,0,0,1,.26-2.21,2.76,2.76,0,0,1,.84-1.41,2.55,2.55,0,0,1,3,0,2.93,2.93,0,0,1,.87,1.41A7.64,7.64,0,0,1,945.22,987.18Zm-4.36,0A8.8,8.8,0,0,0,941,989a2.32,2.32,0,0,0,.55,1.11,1.37,1.37,0,0,0,1,.37,1.36,1.36,0,0,0,1-.37,2.15,2.15,0,0,0,.55-1.11,8.13,8.13,0,0,0,.17-1.86,7.94,7.94,0,0,0-.17-1.84,2.22,2.22,0,0,0-.54-1.12,1.37,1.37,0,0,0-1-.38,1.39,1.39,0,0,0-1,.38,2.22,2.22,0,0,0-.54,1.12A8.53,8.53,0,0,0,940.86,987.18Z" transform="translate(-810 -660)"/><path class="cls-3" d="M955.14,991.19h-1.06l-2.16-3.53-2.19,3.53h-1L951.4,987l-2.48-3.83h1l2,3.19,2-3.19h1L952.47,987Z" transform="translate(-810 -660)"/><path class="cls-3" d="M958.72,987.77a9.36,9.36,0,0,1,.1-1.41,5.81,5.81,0,0,1,.34-1.29,3.41,3.41,0,0,1,.66-1,2.85,2.85,0,0,1,1-.7,3.9,3.9,0,0,1,1.49-.26l.53,0a1.82,1.82,0,0,1,.47.08V984a2.07,2.07,0,0,0-.46-.1,3.12,3.12,0,0,0-.52,0,2.59,2.59,0,0,0-1.61.45,2.52,2.52,0,0,0-.84,1.2,5.86,5.86,0,0,0-.29,1.7h.06a2,2,0,0,1,.43-.49,2.09,2.09,0,0,1,.64-.36,2.84,2.84,0,0,1,.87-.13,2.54,2.54,0,0,1,1.23.29,2,2,0,0,1,.8.82,2.68,2.68,0,0,1,.29,1.32,3,3,0,0,1-.31,1.42,2.12,2.12,0,0,1-.87.93,2.62,2.62,0,0,1-1.35.33,2.5,2.5,0,0,1-1.07-.23,2.39,2.39,0,0,1-.86-.66,3.42,3.42,0,0,1-.57-1.11A5.41,5.41,0,0,1,958.72,987.77Zm2.69,2.76a1.57,1.57,0,0,0,1.2-.48,2,2,0,0,0,.44-1.43,1.81,1.81,0,0,0-.4-1.25,1.48,1.48,0,0,0-1.2-.46,1.83,1.83,0,0,0-1,.23,1.75,1.75,0,0,0-.63.57,1.25,1.25,0,0,0-.22.7,2.67,2.67,0,0,0,.1.73,2.2,2.2,0,0,0,.33.69,1.68,1.68,0,0,0,.55.51A1.5,1.5,0,0,0,961.41,990.53Z" transform="translate(-810 -660)"/><path class="cls-3" d="M970.33,987.18a9.1,9.1,0,0,1-.15,1.74,4,4,0,0,1-.46,1.29,2.12,2.12,0,0,1-.82.81,2.43,2.43,0,0,1-1.21.28,2.26,2.26,0,0,1-1.48-.49,3,3,0,0,1-.87-1.41,7.59,7.59,0,0,1-.28-2.22,8,8,0,0,1,.26-2.21,2.76,2.76,0,0,1,.84-1.41,2.25,2.25,0,0,1,1.53-.5,2.28,2.28,0,0,1,1.49.49,2.93,2.93,0,0,1,.87,1.41A7.64,7.64,0,0,1,970.33,987.18Zm-4.36,0a8.8,8.8,0,0,0,.17,1.86,2.23,2.23,0,0,0,.55,1.11,1.36,1.36,0,0,0,1,.37,1.37,1.37,0,0,0,1-.37,2.23,2.23,0,0,0,.55-1.11,8.73,8.73,0,0,0,.17-1.86,7.94,7.94,0,0,0-.17-1.84,2.22,2.22,0,0,0-.54-1.12,1.39,1.39,0,0,0-1-.38,1.37,1.37,0,0,0-1,.38,2.22,2.22,0,0,0-.54,1.12A8.53,8.53,0,0,0,966,987.18Z" transform="translate(-810 -660)"/><path class="cls-3" d="M976.74,987.18a9.1,9.1,0,0,1-.15,1.74,4,4,0,0,1-.46,1.29,2.15,2.15,0,0,1-.83.81,2.37,2.37,0,0,1-1.2.28,2.26,2.26,0,0,1-1.48-.49,2.84,2.84,0,0,1-.87-1.41,7.57,7.57,0,0,1-.29-2.22,8.38,8.38,0,0,1,.26-2.21,2.9,2.9,0,0,1,.84-1.41,2.3,2.3,0,0,1,1.54-.5,2.26,2.26,0,0,1,1.48.49,2.93,2.93,0,0,1,.87,1.41A7.62,7.62,0,0,1,976.74,987.18Zm-4.36,0a8.18,8.18,0,0,0,.17,1.86,2.15,2.15,0,0,0,.55,1.11,1.52,1.52,0,0,0,2,0,2.15,2.15,0,0,0,.56-1.11,8.73,8.73,0,0,0,.17-1.86,8.53,8.53,0,0,0-.17-1.84,2.22,2.22,0,0,0-.55-1.12,1.52,1.52,0,0,0-2,0,2.31,2.31,0,0,0-.55,1.12A8.61,8.61,0,0,0,972.38,987.18Z" transform="translate(-810 -660)"/><path class="cls-3" d="M983.4,983.19a3.47,3.47,0,0,1,2.26.6,2.14,2.14,0,0,1,.72,1.73,2.83,2.83,0,0,1-.17,1,2,2,0,0,1-.54.8,2.47,2.47,0,0,1-1,.55,4.9,4.9,0,0,1-1.48.2h-1v3.15h-.93v-8Zm-.09.79h-1.07v3.26h.87a4.25,4.25,0,0,0,1.28-.16,1.43,1.43,0,0,0,.77-.54,1.67,1.67,0,0,0,.26-1,1.41,1.41,0,0,0-.51-1.19A2.63,2.63,0,0,0,983.31,984Z" transform="translate(-810 -660)"/><path class="cls-3" d="M993.39,991.19h-1l-2.17-3.53L988,991.19h-1l2.67-4.17-2.48-3.83h1l2,3.19,2-3.19h1L990.73,987Z" transform="translate(-810 -660)"/><text class="cls-4" transform="translate(130.59 279.34)">XVIID</text></g></svg>