<svg id="Layer_1" data-name="Layer 1" xmlns="http://www.w3.org/2000/svg" viewBox="0 0 336 280"><defs><style>.cls-1{fill:#fafafa;}.cls-2{fill:#0c91f0;}.cls-3,.cls-4{fill:#7a7a7a;}.cls-4{font-size:21.13px;font-family:KeaniaOne-Regular, Keania One;}</style></defs><g id="large-rectangle"><rect class="cls-1" width="336" height="280"/><path class="cls-2" d="M920.53,947.89a.62.62,0,0,1-.46-.18.63.63,0,0,1-.17-.45V930.77a.64.64,0,0,1,.17-.45.62.62,0,0,1,.46-.18h2.81a.62.62,0,0,1,.46.18.61.61,0,0,1,.18.45v13.72h7.86a.62.62,0,0,1,.46.18.65.65,0,0,1,.17.46v2.13a.63.63,0,0,1-.17.45.62.62,0,0,1-.46.18Z" transform="translate(-792 -820)"/><path class="cls-2" d="M933.77,947.89a.48.48,0,0,1-.38-.16.56.56,0,0,1-.16-.37.8.8,0,0,1,0-.23l6-16.3a1.11,1.11,0,0,1,.31-.49.93.93,0,0,1,.63-.2h3.25a.93.93,0,0,1,.63.2,1,1,0,0,1,.31.49l6,16.3a.8.8,0,0,1,0,.23.55.55,0,0,1-.15.37.51.51,0,0,1-.38.16h-2.64a.75.75,0,0,1-.56-.18.83.83,0,0,1-.23-.33l-1.09-2.84h-7.15l-1.09,2.84a.74.74,0,0,1-.23.33.75.75,0,0,1-.56.18Zm5.45-6.62h5.25l-2.61-7.3Z" transform="translate(-792 -820)"/><path class="cls-2" d="M953.29,947.89a.62.62,0,0,1-.63-.63V930.77a.61.61,0,0,1,.18-.45.6.6,0,0,1,.45-.18H960a7.81,7.81,0,0,1,5,1.46,5,5,0,0,1,1.82,4.2,5.2,5.2,0,0,1-.88,3.09,5.38,5.38,0,0,1-2.39,1.85l3.58,6.34a.61.61,0,0,1,.07.28.55.55,0,0,1-.15.37.49.49,0,0,1-.38.16h-2.81a.9.9,0,0,1-.69-.24,2.18,2.18,0,0,1-.33-.44l-3.09-5.81h-3.07v5.86a.6.6,0,0,1-.18.45.61.61,0,0,1-.45.18Zm3.4-9.71h3.25a2.92,2.92,0,0,0,2.06-.63,2.34,2.34,0,0,0,.67-1.78A2.43,2.43,0,0,0,962,934a2.85,2.85,0,0,0-2.08-.66h-3.25Z" transform="translate(-792 -820)"/><path class="cls-2" d="M977,948.15a9.5,9.5,0,0,1-4.07-.8,6,6,0,0,1-2.61-2.34,7.54,7.54,0,0,1-1-3.71c0-.73,0-1.51,0-2.33s0-1.62,0-2.36a7.25,7.25,0,0,1,1-3.63,6,6,0,0,1,2.64-2.29,9.37,9.37,0,0,1,4-.8,10.34,10.34,0,0,1,3.3.48,7.75,7.75,0,0,1,2.38,1.25,5.9,5.9,0,0,1,1.47,1.69,3.88,3.88,0,0,1,.54,1.75.57.57,0,0,1-.16.39.51.51,0,0,1-.4.17H981a.7.7,0,0,1-.39-.1.88.88,0,0,1-.24-.31,3.44,3.44,0,0,0-.57-.92,3.11,3.11,0,0,0-1-.8,3.89,3.89,0,0,0-1.73-.33,3.62,3.62,0,0,0-2.52.84,3.71,3.71,0,0,0-1,2.73q-.08,2.19,0,4.44a3.89,3.89,0,0,0,1,2.84,3.65,3.65,0,0,0,2.55.86,4.62,4.62,0,0,0,1.87-.36,2.86,2.86,0,0,0,1.3-1.16,3.77,3.77,0,0,0,.48-2v-.63h-2.76a.57.57,0,0,1-.43-.2.6.6,0,0,1-.18-.44v-1.62a.62.62,0,0,1,.18-.46.58.58,0,0,1,.43-.18h6.21a.62.62,0,0,1,.64.64v2.76a7,7,0,0,1-.95,3.73,6.19,6.19,0,0,1-2.72,2.37A9.62,9.62,0,0,1,977,948.15Z" transform="translate(-792 -820)"/><path class="cls-2" d="M988.52,947.89a.62.62,0,0,1-.46-.18.6.6,0,0,1-.18-.45V930.77a.61.61,0,0,1,.18-.45.62.62,0,0,1,.46-.18H1000a.62.62,0,0,1,.46.18.61.61,0,0,1,.18.45v2a.57.57,0,0,1-.18.43.62.62,0,0,1-.46.18h-8.21v4h7.65a.62.62,0,0,1,.64.64v1.87a.57.57,0,0,1-.18.43.62.62,0,0,1-.46.18h-7.65v4.11h8.42a.62.62,0,0,1,.63.63v2a.6.6,0,0,1-.18.45.61.61,0,0,1-.45.18Z" transform="translate(-792 -820)"/><path class="cls-2" d="M887.84,978.32a.61.61,0,0,1-.45-.18.6.6,0,0,1-.18-.45V961.21a.62.62,0,0,1,.18-.46.61.61,0,0,1,.45-.18h6.72a7.81,7.81,0,0,1,5,1.46,5,5,0,0,1,1.83,4.2,5.2,5.2,0,0,1-.89,3.09,5.33,5.33,0,0,1-2.39,1.85l3.58,6.34a.63.63,0,0,1,.08.28.56.56,0,0,1-.16.37.48.48,0,0,1-.38.16h-2.81a.92.92,0,0,1-.69-.24,2.18,2.18,0,0,1-.33-.44l-3.09-5.81h-3.07v5.86a.62.62,0,0,1-.63.63Zm3.4-9.71h3.25a2.9,2.9,0,0,0,2.06-.63,2.34,2.34,0,0,0,.68-1.78,2.43,2.43,0,0,0-.66-1.8,2.85,2.85,0,0,0-2.08-.66h-3.25Z" transform="translate(-792 -820)"/><path class="cls-2" d="M905.14,978.32a.62.62,0,0,1-.46-.18.6.6,0,0,1-.18-.45V961.21a.62.62,0,0,1,.64-.64h11.48a.62.62,0,0,1,.64.64v2a.57.57,0,0,1-.18.43.62.62,0,0,1-.46.18h-8.21v4h7.66a.6.6,0,0,1,.45.18.62.62,0,0,1,.18.46v1.87a.57.57,0,0,1-.18.43.6.6,0,0,1-.45.18h-7.66v4.11h8.42a.6.6,0,0,1,.45.18.61.61,0,0,1,.18.45v2a.62.62,0,0,1-.63.63Z" transform="translate(-792 -820)"/><path class="cls-2" d="M927.38,978.58a9.34,9.34,0,0,1-4-.8,6,6,0,0,1-2.57-2.34,7.93,7.93,0,0,1-1-3.74c0-.69,0-1.43,0-2.23s0-1.55,0-2.28a7.84,7.84,0,0,1,1-3.72,6,6,0,0,1,2.6-2.34,9.13,9.13,0,0,1,4-.81,10.35,10.35,0,0,1,3.09.43,7.33,7.33,0,0,1,2.41,1.24,5.63,5.63,0,0,1,2.18,4.34.49.49,0,0,1-.16.38.57.57,0,0,1-.4.15h-2.89a.73.73,0,0,1-.48-.15,1,1,0,0,1-.28-.51,3.2,3.2,0,0,0-1.27-2.05,4,4,0,0,0-2.2-.56,3.5,3.5,0,0,0-2.49.86,4,4,0,0,0-1,2.87q-.07,2.07,0,4.26a4,4,0,0,0,1,2.86,3.46,3.46,0,0,0,2.49.86,4.07,4.07,0,0,0,2.22-.57,3.16,3.16,0,0,0,1.25-2,1,1,0,0,1,.28-.52.78.78,0,0,1,.48-.14h2.89a.57.57,0,0,1,.4.15.51.51,0,0,1,.16.39,5.64,5.64,0,0,1-2.18,4.33,7.14,7.14,0,0,1-2.41,1.24A10.34,10.34,0,0,1,927.38,978.58Z" transform="translate(-792 -820)"/><path class="cls-2" d="M942.44,978.32a.62.62,0,0,1-.46-.18.59.59,0,0,1-.17-.45V964.1h-4.62a.61.61,0,0,1-.61-.61v-2.28a.62.62,0,0,1,.18-.46.58.58,0,0,1,.43-.18h13.29a.6.6,0,0,1,.45.18.62.62,0,0,1,.18.46v2.28a.58.58,0,0,1-.18.43.6.6,0,0,1-.45.18h-4.59v13.59a.6.6,0,0,1-.18.45.62.62,0,0,1-.46.18Z" transform="translate(-792 -820)"/><path class="cls-2" d="M950.68,978.32a.49.49,0,0,1-.38-.16.55.55,0,0,1-.15-.37,1.52,1.52,0,0,1,0-.23l6-16.3a1,1,0,0,1,.3-.49,1,1,0,0,1,.64-.2h3.24a1,1,0,0,1,.64.2,1,1,0,0,1,.3.49l6,16.3a1.52,1.52,0,0,1,0,.23.55.55,0,0,1-.15.37.49.49,0,0,1-.38.16h-2.64a.77.77,0,0,1-.56-.18.79.79,0,0,1-.22-.33L962.35,975h-7.16l-1.09,2.84a.79.79,0,0,1-.22.33.77.77,0,0,1-.56.18Zm5.45-6.62h5.25l-2.61-7.3Z" transform="translate(-792 -820)"/><path class="cls-2" d="M970.21,978.32a.62.62,0,0,1-.46-.18.6.6,0,0,1-.18-.45V961.21a.62.62,0,0,1,.64-.64h2.3a.75.75,0,0,1,.56.18,1.12,1.12,0,0,1,.23.28l6.77,10.57V961.21a.62.62,0,0,1,.18-.46.58.58,0,0,1,.43-.18h2.59a.61.61,0,0,1,.45.18.62.62,0,0,1,.18.46v16.48a.62.62,0,0,1-.18.44.58.58,0,0,1-.45.19h-2.34a.67.67,0,0,1-.54-.19c-.11-.13-.19-.21-.24-.26l-6.75-10.25v10.07a.62.62,0,0,1-.63.63Z" transform="translate(-792 -820)"/><path class="cls-2" d="M994.78,978.58a9.47,9.47,0,0,1-4.07-.8,5.89,5.89,0,0,1-2.61-2.34,7.65,7.65,0,0,1-1-3.71c0-.73,0-1.51,0-2.33s0-1.62,0-2.36a7.36,7.36,0,0,1,1-3.63,5.9,5.9,0,0,1,2.63-2.29,9.41,9.41,0,0,1,4-.8,10.34,10.34,0,0,1,3.3.48,7.87,7.87,0,0,1,2.38,1.25,5.9,5.9,0,0,1,1.47,1.69,3.74,3.74,0,0,1,.53,1.75.56.56,0,0,1-.15.39.53.53,0,0,1-.41.17h-3.14a.61.61,0,0,1-.63-.41,3.44,3.44,0,0,0-.57-.92,3.25,3.25,0,0,0-1.06-.8,3.85,3.85,0,0,0-1.72-.33,3.63,3.63,0,0,0-2.52.83,3.76,3.76,0,0,0-1,2.74q-.07,2.19,0,4.44a3.89,3.89,0,0,0,1,2.84,3.63,3.63,0,0,0,2.55.86,4.61,4.61,0,0,0,1.86-.36,2.89,2.89,0,0,0,1.31-1.16,3.77,3.77,0,0,0,.48-2v-.64h-2.76a.57.57,0,0,1-.43-.18.64.64,0,0,1-.18-.45v-1.62a.62.62,0,0,1,.18-.46.57.57,0,0,1,.43-.18h6.21a.62.62,0,0,1,.46.18.65.65,0,0,1,.17.46v2.76a6.92,6.92,0,0,1-.95,3.73,6.16,6.16,0,0,1-2.71,2.37A9.65,9.65,0,0,1,994.78,978.58Z" transform="translate(-792 -820)"/><path class="cls-2" d="M1006.29,978.32a.63.63,0,0,1-.46-.18.63.63,0,0,1-.17-.45V961.21a.65.65,0,0,1,.17-.46.63.63,0,0,1,.46-.18h2.82a.61.61,0,0,1,.45.18.62.62,0,0,1,.18.46v13.71h7.86a.62.62,0,0,1,.64.64v2.13a.6.6,0,0,1-.18.45.62.62,0,0,1-.46.18Z" transform="translate(-792 -820)"/><path class="cls-2" d="M1021.2,978.32a.62.62,0,0,1-.63-.63V961.21a.62.62,0,0,1,.18-.46.6.6,0,0,1,.45-.18h11.49a.62.62,0,0,1,.46.18.65.65,0,0,1,.17.46v2a.6.6,0,0,1-.17.43.62.62,0,0,1-.46.18h-8.22v4h7.66a.62.62,0,0,1,.64.64v1.87a.57.57,0,0,1-.18.43.62.62,0,0,1-.46.18h-7.66v4.11h8.42a.62.62,0,0,1,.46.18.61.61,0,0,1,.18.45v2a.6.6,0,0,1-.18.45.62.62,0,0,1-.46.18Z" transform="translate(-792 -820)"/><path class="cls-3" d="M922.55,1008.43a2.71,2.71,0,0,1-.28,1.25,2.39,2.39,0,0,1-.78.86,3.06,3.06,0,0,1-1.17.47v.06a3.11,3.11,0,0,1,1.91.82,2.38,2.38,0,0,1,.65,1.73,3.13,3.13,0,0,1-.44,1.65,2.9,2.9,0,0,1-1.34,1.13,5.58,5.58,0,0,1-2.3.4,8.6,8.6,0,0,1-1.57-.13,5.58,5.58,0,0,1-1.38-.45v-1.15a6.55,6.55,0,0,0,1.45.52,6.26,6.26,0,0,0,1.52.19,3.14,3.14,0,0,0,2.12-.59,2,2,0,0,0,.65-1.59,1.7,1.7,0,0,0-.36-1.13,2.19,2.19,0,0,0-1-.63,6,6,0,0,0-1.63-.2h-1.08v-1h1.08a3.81,3.81,0,0,0,1.48-.26,2,2,0,0,0,.93-.72,1.86,1.86,0,0,0,.32-1.11,1.52,1.52,0,0,0-.54-1.25,2.24,2.24,0,0,0-1.48-.45,4.24,4.24,0,0,0-1,.12,5.12,5.12,0,0,0-.88.32,8.72,8.72,0,0,0-.82.48l-.62-.84a6,6,0,0,1,1.43-.78,5.3,5.3,0,0,1,1.92-.33,3.53,3.53,0,0,1,2.46.75A2.46,2.46,0,0,1,922.55,1008.43Z" transform="translate(-792 -820)"/><path class="cls-3" d="M931.14,1008.43a2.71,2.71,0,0,1-.28,1.25,2.39,2.39,0,0,1-.78.86,3.06,3.06,0,0,1-1.17.47v.06a3.16,3.16,0,0,1,1.92.82,2.41,2.41,0,0,1,.64,1.73,3.13,3.13,0,0,1-.44,1.65,2.93,2.93,0,0,1-1.33,1.13,5.65,5.65,0,0,1-2.3.4,8.64,8.64,0,0,1-1.58-.13,5.58,5.58,0,0,1-1.38-.45v-1.15a6.55,6.55,0,0,0,1.45.52,6.32,6.32,0,0,0,1.52.19,3.12,3.12,0,0,0,2.12-.59,2,2,0,0,0,.65-1.59,1.7,1.7,0,0,0-.36-1.13,2.19,2.19,0,0,0-1-.63,6,6,0,0,0-1.63-.2h-1.07v-1h1.07a3.86,3.86,0,0,0,1.49-.26,2,2,0,0,0,.92-.72,1.86,1.86,0,0,0,.32-1.11,1.52,1.52,0,0,0-.54-1.25,2.23,2.23,0,0,0-1.47-.45,4.27,4.27,0,0,0-1,.12,5.12,5.12,0,0,0-.88.32c-.27.14-.54.3-.82.48l-.61-.84a5.67,5.67,0,0,1,1.43-.78,5.2,5.2,0,0,1,1.91-.33,3.56,3.56,0,0,1,2.47.75A2.48,2.48,0,0,1,931.14,1008.43Z" transform="translate(-792 -820)"/><path class="cls-3" d="M933.21,1012.07a13.14,13.14,0,0,1,.13-1.89,7.61,7.61,0,0,1,.46-1.72,4.68,4.68,0,0,1,.88-1.4,3.93,3.93,0,0,1,1.39-.94,5.23,5.23,0,0,1,2-.34l.71,0a2.89,2.89,0,0,1,.63.11V1007a2.58,2.58,0,0,0-.62-.14,5.36,5.36,0,0,0-.7-.05,3.42,3.42,0,0,0-2.14.6,3.27,3.27,0,0,0-1.13,1.61,8.34,8.34,0,0,0-.4,2.28h.08a3.27,3.27,0,0,1,.58-.66,2.54,2.54,0,0,1,.86-.47,3.79,3.79,0,0,1,2.81.2,2.65,2.65,0,0,1,1.09,1.11,3.78,3.78,0,0,1,.38,1.76,4.17,4.17,0,0,1-.41,1.91,2.89,2.89,0,0,1-1.17,1.25,3.59,3.59,0,0,1-1.81.43,3.29,3.29,0,0,1-1.44-.3,3.19,3.19,0,0,1-1.15-.89,4.22,4.22,0,0,1-.76-1.48A7,7,0,0,1,933.21,1012.07Zm3.61,3.71a2.1,2.1,0,0,0,1.6-.64,2.74,2.74,0,0,0,.6-1.93,2.45,2.45,0,0,0-.54-1.67,2,2,0,0,0-1.61-.62,2.5,2.5,0,0,0-1.28.31,2.3,2.3,0,0,0-.84.76,1.71,1.71,0,0,0-.3.94,3.36,3.36,0,0,0,.14,1,3.18,3.18,0,0,0,.44.93,2.2,2.2,0,0,0,.74.68A2.1,2.1,0,0,0,936.82,1015.78Z" transform="translate(-792 -820)"/><path class="cls-3" d="M953.48,1016.66h-1.42l-2.9-4.73-2.94,4.73h-1.33l3.58-5.59-3.33-5.14h1.39l2.68,4.28,2.69-4.28h1.32l-3.32,5.12Z" transform="translate(-792 -820)"/><path class="cls-3" d="M965.2,1016.66h-7v-1l2.87-2.91q.8-.81,1.35-1.44a5.53,5.53,0,0,0,.83-1.25,3.1,3.1,0,0,0,.29-1.34,1.76,1.76,0,0,0-.54-1.39,2.07,2.07,0,0,0-1.42-.48,3.49,3.49,0,0,0-1.37.26,6.23,6.23,0,0,0-1.21.75l-.66-.82a6.66,6.66,0,0,1,.93-.64,5.1,5.1,0,0,1,1.08-.44,4.41,4.41,0,0,1,1.23-.16,3.92,3.92,0,0,1,1.71.34,2.55,2.55,0,0,1,1.11,1,2.83,2.83,0,0,1,.39,1.51,3.69,3.69,0,0,1-.34,1.59,6.56,6.56,0,0,1-.94,1.44c-.41.48-.88,1-1.43,1.52l-2.33,2.32v0h5.48Z" transform="translate(-792 -820)"/><path class="cls-3" d="M970.31,1005.78a4.46,4.46,0,0,1,1.65.29,2.5,2.5,0,0,1,1.12.86,2.3,2.3,0,0,1,.41,1.4,2.19,2.19,0,0,1-.28,1.14,2.79,2.79,0,0,1-.76.85,5.89,5.89,0,0,1-1.06.65,7.84,7.84,0,0,1,1.25.71,3.09,3.09,0,0,1,.87.94,2.34,2.34,0,0,1,.33,1.26,2.73,2.73,0,0,1-.44,1.56,2.77,2.77,0,0,1-1.22,1,4.38,4.38,0,0,1-1.84.35,4.88,4.88,0,0,1-1.94-.34,2.58,2.58,0,0,1-1.21-1,2.83,2.83,0,0,1-.41-1.54,2.52,2.52,0,0,1,.31-1.29,3,3,0,0,1,.84-.94,5.42,5.42,0,0,1,1.14-.67,5.83,5.83,0,0,1-1-.67,2.87,2.87,0,0,1-.71-.88,2.52,2.52,0,0,1-.26-1.17,2.26,2.26,0,0,1,.42-1.38,2.44,2.44,0,0,1,1.14-.86A4.19,4.19,0,0,1,970.31,1005.78Zm-2.34,8.16a1.8,1.8,0,0,0,.58,1.36,3.12,3.12,0,0,0,3.48,0,1.76,1.76,0,0,0,.61-1.4,1.58,1.58,0,0,0-.28-.94,2.55,2.55,0,0,0-.79-.73,6.82,6.82,0,0,0-1.21-.59l-.26-.1a6.12,6.12,0,0,0-1.15.62,2.55,2.55,0,0,0-.73.78A2,2,0,0,0,968,1013.94Zm2.32-7.16a2.25,2.25,0,0,0-1.41.41,1.39,1.39,0,0,0-.55,1.19,1.71,1.71,0,0,0,.26,1,2.52,2.52,0,0,0,.74.66,8.24,8.24,0,0,0,1,.51,6.54,6.54,0,0,0,1-.52,2.18,2.18,0,0,0,.68-.67,1.66,1.66,0,0,0,.25-.93,1.4,1.4,0,0,0-.54-1.19A2.33,2.33,0,0,0,970.29,1006.78Z" transform="translate(-792 -820)"/><path class="cls-3" d="M982.44,1011.28a11.7,11.7,0,0,1-.2,2.33,5.31,5.31,0,0,1-.62,1.74,2.78,2.78,0,0,1-1.1,1.08,3.29,3.29,0,0,1-1.62.37,3,3,0,0,1-2-.65,3.88,3.88,0,0,1-1.17-1.89,10.33,10.33,0,0,1-.38-3,11,11,0,0,1,.35-2.95,3.76,3.76,0,0,1,1.12-1.9,3,3,0,0,1,2.06-.67,3,3,0,0,1,2,.66,3.83,3.83,0,0,1,1.17,1.89A10,10,0,0,1,982.44,1011.28Zm-5.85,0a11.46,11.46,0,0,0,.23,2.49,2.94,2.94,0,0,0,.74,1.5,2.08,2.08,0,0,0,2.68,0,2.9,2.9,0,0,0,.74-1.49,11.56,11.56,0,0,0,.23-2.5,11.4,11.4,0,0,0-.23-2.47,2.94,2.94,0,0,0-.73-1.49,2,2,0,0,0-2.7,0,2.94,2.94,0,0,0-.73,1.49A11.4,11.4,0,0,0,976.59,1011.28Z" transform="translate(-792 -820)"/><path class="cls-3" d="M991.38,1005.93a4.65,4.65,0,0,1,3,.81,2.88,2.88,0,0,1,1,2.32,3.74,3.74,0,0,1-.22,1.3,2.69,2.69,0,0,1-.73,1.08,3.43,3.43,0,0,1-1.31.73,6.31,6.31,0,0,1-2,.27h-1.31v4.22h-1.24v-10.73Zm-.12,1.07h-1.44v4.37H991a5.87,5.87,0,0,0,1.71-.22,1.93,1.93,0,0,0,1-.72,2.26,2.26,0,0,0,.35-1.31,1.9,1.9,0,0,0-.68-1.6A3.53,3.53,0,0,0,991.26,1007Z" transform="translate(-792 -820)"/><path class="cls-3" d="M1004.78,1016.66h-1.42l-2.9-4.73-2.94,4.73h-1.33l3.57-5.59-3.32-5.14h1.39l2.68,4.28,2.69-4.28h1.32l-3.32,5.12Z" transform="translate(-792 -820)"/><text class="cls-4" transform="translate(141.98 97.46)">XVIID</text></g></svg>