<svg id="Layer_1" data-name="Layer 1" xmlns="http://www.w3.org/2000/svg" viewBox="0 0 728 90"><defs><style>.cls-1{fill:#fafafa;}.cls-2{fill:#0c91f0;}.cls-3,.cls-4{fill:#7a7a7a;}.cls-4{font-size:34.14px;font-family:KeaniaOne-Regular, Keania One;}</style></defs><g id="leaderboard"><rect id="_728_x_90" data-name="728 x 90" class="cls-1" x="915" y="596" width="90" height="728" transform="translate(1324 -915) rotate(90)"/><path class="cls-2" d="M942,955.71a.48.48,0,0,1-.35-.13.45.45,0,0,1-.13-.34V942.86a.45.45,0,0,1,.13-.34.48.48,0,0,1,.35-.13h2.11a.45.45,0,0,1,.47.47v10.3h5.91a.46.46,0,0,1,.34.14.44.44,0,0,1,.13.34v1.6a.45.45,0,0,1-.47.47Z" transform="translate(-596 -915)"/><path class="cls-2" d="M953.14,955.71a.45.45,0,0,1-.34-.13.46.46,0,0,1-.14-.34V942.86a.46.46,0,0,1,.14-.34.45.45,0,0,1,.34-.13h8.62a.48.48,0,0,1,.35.13.49.49,0,0,1,.13.34v1.53a.48.48,0,0,1-.13.32.48.48,0,0,1-.35.13h-6.17v3h5.75a.52.52,0,0,1,.35.13.48.48,0,0,1,.13.35v1.41a.44.44,0,0,1-.13.32.48.48,0,0,1-.35.13h-5.75v3.09h6.33a.47.47,0,0,1,.34.13.45.45,0,0,1,.13.34v1.51a.45.45,0,0,1-.13.34.47.47,0,0,1-.34.13Z" transform="translate(-596 -915)"/><path class="cls-2" d="M963.88,955.71a.38.38,0,0,1-.29-.12.37.37,0,0,1-.11-.28.91.91,0,0,1,0-.17L968,942.9a.68.68,0,0,1,.22-.36.73.73,0,0,1,.48-.15h2.44a.68.68,0,0,1,.47.15.7.7,0,0,1,.23.36l4.53,12.24a.88.88,0,0,1,0,.17.41.41,0,0,1-.11.28.4.4,0,0,1-.29.12h-2a.57.57,0,0,1-.42-.13.69.69,0,0,1-.17-.25l-.82-2.13h-5.37l-.81,2.13a.74.74,0,0,1-.18.25.55.55,0,0,1-.41.13Zm4.09-5h3.94l-2-5.48Z" transform="translate(-596 -915)"/><path class="cls-2" d="M978.53,955.71a.45.45,0,0,1-.47-.47V942.86a.45.45,0,0,1,.47-.47h4.78a7.46,7.46,0,0,1,3.18.6,4.32,4.32,0,0,1,2,1.75,5.84,5.84,0,0,1,.72,2.84c0,.56,0,1,0,1.47s0,.9,0,1.45a6.46,6.46,0,0,1-.71,2.93,3.94,3.94,0,0,1-1.9,1.72,7.64,7.64,0,0,1-3.14.56Zm2.55-2.45h2.23a3.65,3.65,0,0,0,1.56-.29,1.85,1.85,0,0,0,.91-.9,4,4,0,0,0,.31-1.61q0-.56,0-1c0-.29,0-.58,0-.88s0-.61,0-1a2.92,2.92,0,0,0-.73-2.1,3,3,0,0,0-2.14-.68h-2.14Z" transform="translate(-596 -915)"/><path class="cls-2" d="M992,955.71a.45.45,0,0,1-.47-.47V942.86a.45.45,0,0,1,.47-.47h8.63a.47.47,0,0,1,.34.13.45.45,0,0,1,.13.34v1.53a.44.44,0,0,1-.13.32.47.47,0,0,1-.34.13h-6.17v3h5.75a.49.49,0,0,1,.34.13.48.48,0,0,1,.13.35v1.41a.44.44,0,0,1-.13.32.45.45,0,0,1-.34.13h-5.75v3.09h6.32a.45.45,0,0,1,.47.47v1.51a.45.45,0,0,1-.47.47Z" transform="translate(-596 -915)"/><path class="cls-2" d="M1004,955.71a.45.45,0,0,1-.47-.47V942.86a.45.45,0,0,1,.47-.47h5.05a5.83,5.83,0,0,1,3.75,1.09,4.32,4.32,0,0,1,.7,5.47,3.88,3.88,0,0,1-1.79,1.39l2.69,4.76a.48.48,0,0,1,.06.21.38.38,0,0,1-.12.28.36.36,0,0,1-.28.12H1012a.66.66,0,0,1-.51-.18,1.3,1.3,0,0,1-.25-.33l-2.32-4.36h-2.3v4.4a.46.46,0,0,1-.14.34.45.45,0,0,1-.34.13Zm2.56-7.29H1009a2.21,2.21,0,0,0,1.55-.47,1.76,1.76,0,0,0,.51-1.34,1.83,1.83,0,0,0-.5-1.35,2.13,2.13,0,0,0-1.56-.49h-2.43Z" transform="translate(-596 -915)"/><path class="cls-2" d="M1017,955.71a.44.44,0,0,1-.34-.13.46.46,0,0,1-.14-.34V942.86a.46.46,0,0,1,.14-.34.44.44,0,0,1,.34-.13h5.65a6.4,6.4,0,0,1,2.59.45,3.26,3.26,0,0,1,1.5,1.3,3.87,3.87,0,0,1,.48,2,2.86,2.86,0,0,1-.26,1.24,3,3,0,0,1-.62.87,3.39,3.39,0,0,1-.72.52,3.24,3.24,0,0,1,1.31,1.13,3.18,3.18,0,0,1,.56,1.87,4,4,0,0,1-.54,2.1,3.54,3.54,0,0,1-1.58,1.39,5.89,5.89,0,0,1-2.55.49Zm2.55-7.94h2.74a1.81,1.81,0,0,0,1.34-.44,1.55,1.55,0,0,0,.45-1.15,1.51,1.51,0,0,0-.45-1.14,1.89,1.89,0,0,0-1.34-.43h-2.74Zm0,5.72h2.91a1.82,1.82,0,0,0,1.41-.53,1.77,1.77,0,0,0,.48-1.24,1.74,1.74,0,0,0-.49-1.25,1.84,1.84,0,0,0-1.4-.51h-2.91Z" transform="translate(-596 -915)"/><path class="cls-2" d="M1035.05,955.9a7.14,7.14,0,0,1-3-.57,4.34,4.34,0,0,1-2-1.72,5.89,5.89,0,0,1-.76-2.9c0-.55,0-1.09,0-1.63s0-1.09,0-1.65a5.9,5.9,0,0,1,.77-2.88,4.51,4.51,0,0,1,2-1.76,7.7,7.7,0,0,1,5.91,0,4.59,4.59,0,0,1,2,1.76,5.69,5.69,0,0,1,.76,2.88c0,.56,0,1.11,0,1.65s0,1.08,0,1.63a6,6,0,0,1-.76,2.9,4.34,4.34,0,0,1-2,1.72A7.09,7.09,0,0,1,1035.05,955.9Zm0-2.45a2.53,2.53,0,0,0,1.82-.68,2.93,2.93,0,0,0,.75-2.16c0-.56,0-1.08,0-1.57s0-1,0-1.55a3.47,3.47,0,0,0-.36-1.62,2.16,2.16,0,0,0-.9-.92,2.75,2.75,0,0,0-1.31-.3,2.78,2.78,0,0,0-1.31.3,2.06,2.06,0,0,0-.9.92,3.59,3.59,0,0,0-.37,1.62c0,.54,0,1.06,0,1.55s0,1,0,1.57a3,3,0,0,0,.76,2.16A2.53,2.53,0,0,0,1035.05,953.45Z" transform="translate(-596 -915)"/><path class="cls-2" d="M1042.08,955.71a.38.38,0,0,1-.29-.12.41.41,0,0,1-.11-.28.88.88,0,0,1,0-.17l4.53-12.24a.7.7,0,0,1,.23-.36.68.68,0,0,1,.47-.15h2.44a.73.73,0,0,1,.48.15.77.77,0,0,1,.23.36l4.53,12.24a.91.91,0,0,1,0,.17.37.37,0,0,1-.11.28.38.38,0,0,1-.29.12h-2a.56.56,0,0,1-.42-.13.58.58,0,0,1-.17-.25l-.82-2.13h-5.37l-.82,2.13a.69.69,0,0,1-.17.25.57.57,0,0,1-.42.13Zm4.09-5h3.94l-2-5.48Z" transform="translate(-596 -915)"/><path class="cls-2" d="M1056.74,955.71a.44.44,0,0,1-.34-.13.46.46,0,0,1-.14-.34V942.86a.46.46,0,0,1,.14-.34.44.44,0,0,1,.34-.13h5a5.83,5.83,0,0,1,3.75,1.09,3.78,3.78,0,0,1,1.37,3.15,3.76,3.76,0,0,1-2.45,3.71l2.68,4.76a.48.48,0,0,1,.06.21.41.41,0,0,1-.11.28.4.4,0,0,1-.29.12h-2.11a.7.7,0,0,1-.52-.18,1.5,1.5,0,0,1-.24-.33l-2.33-4.36h-2.3v4.4a.49.49,0,0,1-.13.34.48.48,0,0,1-.35.13Zm2.55-7.29h2.44a2.24,2.24,0,0,0,1.55-.47,1.79,1.79,0,0,0,.5-1.34,1.82,1.82,0,0,0-.49-1.35,2.13,2.13,0,0,0-1.56-.49h-2.44Z" transform="translate(-596 -915)"/><path class="cls-2" d="M1069.72,955.71a.45.45,0,0,1-.47-.47V942.86a.45.45,0,0,1,.47-.47h4.78a7.46,7.46,0,0,1,3.18.6,4.32,4.32,0,0,1,2,1.75,5.74,5.74,0,0,1,.71,2.84c0,.56,0,1,0,1.47s0,.9,0,1.45a6.33,6.33,0,0,1-.7,2.93,4,4,0,0,1-1.9,1.72,7.66,7.66,0,0,1-3.15.56Zm2.55-2.45h2.23a3.71,3.71,0,0,0,1.56-.29,1.79,1.79,0,0,0,.9-.9,3.87,3.87,0,0,0,.32-1.61q0-.56,0-1v-.88c0-.29,0-.61,0-1a3,3,0,0,0-.73-2.1,3,3,0,0,0-2.15-.68h-2.13Z" transform="translate(-596 -915)"/><path class="cls-3" d="M941.66,977.4l3.3-7.22h-4.39v-.83h5.37v.7l-3.28,7.35Z" transform="translate(-596 -915)"/><path class="cls-3" d="M952.34,977.4h-5.27v-.77l2.15-2.18c.4-.41.74-.77,1-1.08a4.54,4.54,0,0,0,.63-.94,2.37,2.37,0,0,0,.21-1,1.32,1.32,0,0,0-.4-1,1.56,1.56,0,0,0-1.07-.36,2.32,2.32,0,0,0-1,.2,4.36,4.36,0,0,0-.92.56l-.49-.62a4.33,4.33,0,0,1,.7-.48,3.62,3.62,0,0,1,.81-.33,3.41,3.41,0,0,1,.92-.12,3,3,0,0,1,1.28.26,2,2,0,0,1,.84.74,2.19,2.19,0,0,1,.29,1.14,2.82,2.82,0,0,1-.25,1.19,5.14,5.14,0,0,1-.71,1.08c-.31.36-.66.74-1.07,1.14l-1.75,1.74v0h4.11Z" transform="translate(-596 -915)"/><path class="cls-3" d="M956.18,969.23a3.23,3.23,0,0,1,1.24.22,1.84,1.84,0,0,1,.84.65,1.76,1.76,0,0,1,.31,1,1.58,1.58,0,0,1-.22.85,2,2,0,0,1-.57.64,3.9,3.9,0,0,1-.79.49,5.64,5.64,0,0,1,.94.54,2.36,2.36,0,0,1,.65.69,1.76,1.76,0,0,1,.25,1,2.06,2.06,0,0,1-.33,1.17,2.16,2.16,0,0,1-.92.76,3.43,3.43,0,0,1-1.38.26,3.69,3.69,0,0,1-1.45-.26,2,2,0,0,1-.91-.73,2.1,2.1,0,0,1-.31-1.16,2,2,0,0,1,.23-1,2.5,2.5,0,0,1,.63-.71,4.3,4.3,0,0,1,.86-.5,4.36,4.36,0,0,1-.74-.5A2.24,2.24,0,0,1,954,972a1.87,1.87,0,0,1-.19-.88,1.73,1.73,0,0,1,.31-1,1.94,1.94,0,0,1,.85-.65A3.37,3.37,0,0,1,956.18,969.23Zm-1.76,6.13a1.34,1.34,0,0,0,.44,1,2.33,2.33,0,0,0,2.61,0,1.32,1.32,0,0,0,.46-1,1.21,1.21,0,0,0-.21-.71,2,2,0,0,0-.6-.55,5,5,0,0,0-.9-.44l-.2-.07a4.41,4.41,0,0,0-.87.47,2,2,0,0,0-.54.58A1.52,1.52,0,0,0,954.42,975.36Zm1.75-5.38a1.72,1.72,0,0,0-1.07.31,1.08,1.08,0,0,0-.41.9,1.2,1.2,0,0,0,.2.7,1.67,1.67,0,0,0,.55.5,4.72,4.72,0,0,0,.78.38,4,4,0,0,0,.74-.39,1.53,1.53,0,0,0,.51-.5,1.22,1.22,0,0,0,.19-.7,1,1,0,0,0-.41-.89A1.75,1.75,0,0,0,956.17,970Z" transform="translate(-596 -915)"/><path class="cls-3" d="M968.82,977.4h-1.07l-2.17-3.55-2.21,3.55h-1l2.69-4.2-2.5-3.85h1l2,3.21,2-3.21h1l-2.49,3.84Z" transform="translate(-596 -915)"/><path class="cls-3" d="M977.63,972.78a9.63,9.63,0,0,1-.1,1.43,5.82,5.82,0,0,1-.35,1.29,3.34,3.34,0,0,1-.66,1,2.91,2.91,0,0,1-1,.71,4,4,0,0,1-1.51.25l-.54,0a2.49,2.49,0,0,1-.49-.08v-.79a3.47,3.47,0,0,0,.48.11,3.27,3.27,0,0,0,.54,0,2.65,2.65,0,0,0,1.61-.44,2.42,2.42,0,0,0,.85-1.21,6.35,6.35,0,0,0,.3-1.71h-.07a2.39,2.39,0,0,1-.43.48,2.14,2.14,0,0,1-.65.36,2.64,2.64,0,0,1-.89.14,2.53,2.53,0,0,1-1.22-.29,2,2,0,0,1-.81-.83,2.83,2.83,0,0,1-.29-1.32,3.12,3.12,0,0,1,.32-1.44,2.25,2.25,0,0,1,.89-.94,2.65,2.65,0,0,1,1.35-.33,2.59,2.59,0,0,1,1.09.23,2.31,2.31,0,0,1,.86.67,3.23,3.23,0,0,1,.57,1.11A5.43,5.43,0,0,1,977.63,972.78ZM974.91,970a1.57,1.57,0,0,0-1.19.48,2,2,0,0,0-.45,1.44,1.9,1.9,0,0,0,.39,1.26,1.48,1.48,0,0,0,1.21.46,2,2,0,0,0,1-.22,1.75,1.75,0,0,0,.63-.57,1.32,1.32,0,0,0,.22-.72,2.67,2.67,0,0,0-.1-.73,2.44,2.44,0,0,0-.33-.69,1.64,1.64,0,0,0-.56-.52A1.54,1.54,0,0,0,974.91,970Z" transform="translate(-596 -915)"/><path class="cls-3" d="M984.11,973.36a9.13,9.13,0,0,1-.15,1.75,4.11,4.11,0,0,1-.46,1.31,2.15,2.15,0,0,1-.83.81,2.45,2.45,0,0,1-1.22.28A2.2,2.2,0,0,1,980,977a2.93,2.93,0,0,1-.88-1.42,7.66,7.66,0,0,1-.29-2.24,8.32,8.32,0,0,1,.26-2.21,2.86,2.86,0,0,1,.85-1.43,2.3,2.3,0,0,1,1.54-.5,2.24,2.24,0,0,1,1.5.49,3.06,3.06,0,0,1,.88,1.42A7.71,7.71,0,0,1,984.11,973.36Zm-4.39,0a8.77,8.77,0,0,0,.17,1.87,2.27,2.27,0,0,0,.56,1.13,1.4,1.4,0,0,0,1,.37,1.43,1.43,0,0,0,1-.37,2.22,2.22,0,0,0,.55-1.12,8.19,8.19,0,0,0,.18-1.88,8.7,8.7,0,0,0-.17-1.85,2.39,2.39,0,0,0-.55-1.13,1.41,1.41,0,0,0-1-.37,1.37,1.37,0,0,0-1,.37,2.3,2.3,0,0,0-.55,1.13A8.7,8.7,0,0,0,979.72,973.36Z" transform="translate(-596 -915)"/><path class="cls-3" d="M990.82,969.35a3.47,3.47,0,0,1,2.28.61,2.14,2.14,0,0,1,.72,1.74,2.87,2.87,0,0,1-.17,1,2,2,0,0,1-.54.81,2.61,2.61,0,0,1-1,.55,4.59,4.59,0,0,1-1.49.2h-1v3.17h-.93v-8Zm-.09.8h-1.08v3.28h.88a4.34,4.34,0,0,0,1.29-.17,1.47,1.47,0,0,0,.77-.53,1.73,1.73,0,0,0,.26-1,1.41,1.41,0,0,0-.51-1.2A2.69,2.69,0,0,0,990.73,970.15Z" transform="translate(-596 -915)"/><path class="cls-3" d="M1000.88,977.4h-1.07l-2.17-3.55-2.21,3.55h-1l2.69-4.2-2.5-3.85h1l2,3.21,2-3.21h1l-2.48,3.84Z" transform="translate(-596 -915)"/><text class="cls-4" transform="translate(242.67 55.75)">XVIID</text></g></svg>