<svg id="Layer_1" data-name="Layer 1" xmlns="http://www.w3.org/2000/svg" viewBox="0 0 120 600"><defs><style>.cls-1{fill:#fafafa;}.cls-2{fill:#0c91f0;}.cls-3,.cls-4{fill:#7a7a7a;}.cls-4{font-size:12.57px;font-family:KeaniaOne-Regular, Keania One;}</style></defs><g id="skyscraper"><rect id="_1080_x_1920" data-name="1080 x 1920" class="cls-1" width="120" height="600"/><path class="cls-2" d="M960,871.67a3.6,3.6,0,0,1-1.82-.42,3,3,0,0,1-1.1-1.1,3.25,3.25,0,0,1-.4-1.45.41.41,0,0,1,.07-.22.2.2,0,0,1,.17-.1h1.21a.32.32,0,0,1,.23.08l.15.21a1.52,1.52,0,0,0,.25.49,1.26,1.26,0,0,0,.48.4,1.58,1.58,0,0,0,.76.16,1.64,1.64,0,0,0,1.1-.31,1.08,1.08,0,0,0,.37-.86,1,1,0,0,0-.2-.64,1.87,1.87,0,0,0-.62-.44,10.08,10.08,0,0,0-1.13-.42,5.63,5.63,0,0,1-1.44-.62,2.52,2.52,0,0,1-.89-1,3.43,3.43,0,0,1-.3-1.52,3.34,3.34,0,0,1,.37-1.6,2.72,2.72,0,0,1,1-1.1,3.47,3.47,0,0,1,3-.13,2.94,2.94,0,0,1,1,.71,3.35,3.35,0,0,1,.6.93,2.69,2.69,0,0,1,.21,1,.43.43,0,0,1-.06.22.22.22,0,0,1-.17.09h-1.27a.34.34,0,0,1-.2-.06.44.44,0,0,1-.15-.21,1.17,1.17,0,0,0-.4-.68,1.26,1.26,0,0,0-.87-.3,1.34,1.34,0,0,0-.88.27,1.06,1.06,0,0,0-.32.83,1.1,1.1,0,0,0,.17.62,1.26,1.26,0,0,0,.55.43,9.19,9.19,0,0,0,1,.42,6,6,0,0,1,1.61.65,2.31,2.31,0,0,1,.92,1,3.34,3.34,0,0,1,.29,1.5,3.38,3.38,0,0,1-.42,1.73,2.72,2.72,0,0,1-1.17,1.11A3.61,3.61,0,0,1,960,871.67Z" transform="translate(-900 -660)"/><path class="cls-2" d="M957.49,889.62a.24.24,0,0,1-.2-.11.46.46,0,0,1-.08-.27v-9.8a.46.46,0,0,1,.08-.27.24.24,0,0,1,.2-.11h1.2a.26.26,0,0,1,.21.11.46.46,0,0,1,.08.27v3.44l2.33-3.53a.62.62,0,0,1,.15-.19.39.39,0,0,1,.29-.1h1.37a.21.21,0,0,1,.17.1.4.4,0,0,1,.06.22.34.34,0,0,1,0,.18l-2.91,4.55,3.12,5a.3.3,0,0,1,.05.18.34.34,0,0,1-.07.22.19.19,0,0,1-.17.1h-1.41a.39.39,0,0,1-.31-.12,1.54,1.54,0,0,1-.13-.17l-2.5-3.86v3.77a.46.46,0,0,1-.08.27.26.26,0,0,1-.21.11Z" transform="translate(-900 -660)"/><path class="cls-2" d="M959.54,907.72a.24.24,0,0,1-.21-.1.46.46,0,0,1-.08-.27V904l-2.65-6.38a.29.29,0,0,0,0-.09.19.19,0,0,1,0-.08.44.44,0,0,1,.07-.22.24.24,0,0,1,.17-.1H958a.33.33,0,0,1,.25.11.59.59,0,0,1,.12.19l1.78,4.15,1.77-4.15a.92.92,0,0,1,.13-.19.31.31,0,0,1,.25-.11h1.2a.22.22,0,0,1,.16.1.36.36,0,0,1,.07.22.19.19,0,0,1,0,.08s0,.06,0,.09L961.06,904v3.32a.4.4,0,0,1-.08.27.23.23,0,0,1-.2.1Z" transform="translate(-900 -660)"/><path class="cls-2" d="M960,926a3.6,3.6,0,0,1-1.82-.43,2.9,2.9,0,0,1-1.1-1.1,3.18,3.18,0,0,1-.4-1.45.38.38,0,0,1,.07-.21.2.2,0,0,1,.17-.1h1.21a.32.32,0,0,1,.23.08,1.73,1.73,0,0,1,.15.2,1.47,1.47,0,0,0,.25.5,1.35,1.35,0,0,0,.48.4,1.58,1.58,0,0,0,.76.16,1.64,1.64,0,0,0,1.1-.32,1.05,1.05,0,0,0,.37-.86,1,1,0,0,0-.2-.63,1.73,1.73,0,0,0-.62-.44,10.08,10.08,0,0,0-1.13-.42,5.3,5.3,0,0,1-1.44-.63,2.43,2.43,0,0,1-.89-1,3.43,3.43,0,0,1-.3-1.52,3.31,3.31,0,0,1,.37-1.6,2.81,2.81,0,0,1,1-1.11,3.21,3.21,0,0,1,1.62-.4,3.14,3.14,0,0,1,1.34.28,2.81,2.81,0,0,1,1,.71,3.35,3.35,0,0,1,.6.93,2.65,2.65,0,0,1,.21,1,.37.37,0,0,1-.06.21.21.21,0,0,1-.17.1h-1.27a.34.34,0,0,1-.2-.06.44.44,0,0,1-.15-.21,1.23,1.23,0,0,0-.4-.69,1.3,1.3,0,0,0-.87-.29,1.34,1.34,0,0,0-.88.27,1,1,0,0,0-.32.83,1.07,1.07,0,0,0,.17.61,1.27,1.27,0,0,0,.55.44,9.41,9.41,0,0,0,1,.41,6.71,6.71,0,0,1,1.61.65,2.4,2.4,0,0,1,.92,1,3.29,3.29,0,0,1,.29,1.5,3.38,3.38,0,0,1-.42,1.73,2.78,2.78,0,0,1-1.17,1.11A3.61,3.61,0,0,1,960,926Z" transform="translate(-900 -660)"/><path class="cls-2" d="M960.06,944.08a3.22,3.22,0,0,1-1.8-.48,3,3,0,0,1-1.15-1.38,6,6,0,0,1-.45-2.23c0-.41,0-.85,0-1.33s0-.92,0-1.35a5.89,5.89,0,0,1,.45-2.21,3,3,0,0,1,2.95-1.88,3.57,3.57,0,0,1,1.38.25,3.11,3.11,0,0,1,1.08.74,3.53,3.53,0,0,1,.7,1.13,4.73,4.73,0,0,1,.27,1.45.42.42,0,0,1-.07.23.23.23,0,0,1-.18.09H962a.26.26,0,0,1-.21-.09.6.6,0,0,1-.13-.3,2,2,0,0,0-.57-1.22,1.43,1.43,0,0,0-1-.34,1.32,1.32,0,0,0-1.11.52,2.89,2.89,0,0,0-.44,1.7c0,.83,0,1.67,0,2.54a2.89,2.89,0,0,0,.44,1.7,1.34,1.34,0,0,0,1.11.51,1.47,1.47,0,0,0,1-.34,2,2,0,0,0,.56-1.21.56.56,0,0,1,.13-.31.25.25,0,0,1,.21-.08h1.29a.23.23,0,0,1,.18.09.38.38,0,0,1,.07.22,4.62,4.62,0,0,1-.27,1.45,3.53,3.53,0,0,1-.7,1.13,3.11,3.11,0,0,1-1.08.74A3.57,3.57,0,0,1,960.06,944.08Z" transform="translate(-900 -660)"/><path class="cls-2" d="M957.26,962a.22.22,0,0,1-.2-.11.4.4,0,0,1-.08-.27v-9.8a.4.4,0,0,1,.08-.27.24.24,0,0,1,.2-.11h3a2.91,2.91,0,0,1,2.23.87,3.52,3.52,0,0,1,.81,2.49,3.89,3.89,0,0,1-.39,1.84,2.67,2.67,0,0,1-1.07,1.11l1.6,3.77a.5.5,0,0,1,0,.16.34.34,0,0,1-.07.22.19.19,0,0,1-.17.1H962a.37.37,0,0,1-.31-.14,1.76,1.76,0,0,1-.14-.27l-1.38-3.45h-1.37v3.48a.46.46,0,0,1-.08.27.23.23,0,0,1-.21.11Zm1.52-5.78h1.45a1.11,1.11,0,0,0,.92-.37,1.69,1.69,0,0,0,.3-1.06,1.72,1.72,0,0,0-.3-1.07,1.07,1.07,0,0,0-.92-.39h-1.45Z" transform="translate(-900 -660)"/><path class="cls-2" d="M956.53,980.13a.21.21,0,0,1-.17-.09.44.44,0,0,1-.07-.22c0-.05,0-.1,0-.14L959,970a.7.7,0,0,1,.13-.29.37.37,0,0,1,.29-.12h1.44a.37.37,0,0,1,.29.12.7.7,0,0,1,.13.29l2.7,9.7s0,.09,0,.14a.44.44,0,0,1-.07.22.21.21,0,0,1-.17.09h-1.18a.3.3,0,0,1-.25-.1.75.75,0,0,1-.1-.2l-.48-1.69h-3.2l-.48,1.69a.75.75,0,0,1-.1.2.3.3,0,0,1-.25.1ZM959,976.2h2.35l-1.17-4.35Z" transform="translate(-900 -660)"/><path class="cls-2" d="M957.46,998.24a.24.24,0,0,1-.2-.11.46.46,0,0,1-.08-.27v-9.81a.46.46,0,0,1,.08-.27.23.23,0,0,1,.2-.1h3.09a3.22,3.22,0,0,1,1.59.37,2.61,2.61,0,0,1,1.06,1.14,4.27,4.27,0,0,1,.37,1.89,4.23,4.23,0,0,1-.37,1.9,2.53,2.53,0,0,1-1.06,1.11,3.33,3.33,0,0,1-1.59.36H959v3.41a.46.46,0,0,1-.08.27.25.25,0,0,1-.21.11Zm1.54-5.66h1.5a1.14,1.14,0,0,0,.9-.38,1.73,1.73,0,0,0,.32-1.13,1.94,1.94,0,0,0-.29-1.09,1,1,0,0,0-.93-.42H959Z" transform="translate(-900 -660)"/><path class="cls-2" d="M957.56,1016.34a.25.25,0,0,1-.21-.11.46.46,0,0,1-.08-.27v-9.8a.47.47,0,0,1,.08-.28.24.24,0,0,1,.21-.1h5.12a.23.23,0,0,1,.2.1.41.41,0,0,1,.08.28v1.2a.38.38,0,0,1-.08.26.23.23,0,0,1-.2.1H959v2.37h3.42a.24.24,0,0,1,.2.11.4.4,0,0,1,.08.27v1.12a.36.36,0,0,1-.08.25.24.24,0,0,1-.2.11H959v2.44h3.76a.24.24,0,0,1,.2.11.4.4,0,0,1,.08.27V1016a.4.4,0,0,1-.08.27.24.24,0,0,1-.2.11Z" transform="translate(-900 -660)"/><path class="cls-2" d="M957.26,1034.44a.22.22,0,0,1-.2-.11.4.4,0,0,1-.08-.27v-9.8a.4.4,0,0,1,.08-.27.24.24,0,0,1,.2-.11h3a2.91,2.91,0,0,1,2.23.87,3.53,3.53,0,0,1,.81,2.5,3.87,3.87,0,0,1-.39,1.83,2.61,2.61,0,0,1-1.07,1.11l1.6,3.77a.5.5,0,0,1,0,.16.34.34,0,0,1-.07.22.19.19,0,0,1-.17.1H962a.37.37,0,0,1-.31-.14,1.76,1.76,0,0,1-.14-.27l-1.38-3.45h-1.37v3.48a.46.46,0,0,1-.08.27.23.23,0,0,1-.21.11Zm1.52-5.78h1.45a1.11,1.11,0,0,0,.92-.37,1.69,1.69,0,0,0,.3-1.06,1.72,1.72,0,0,0-.3-1.07,1.07,1.07,0,0,0-.92-.39h-1.45Z" transform="translate(-900 -660)"/><path class="cls-3" d="M942.35,1075h-.53v-5c0-.12,0-.24,0-.34s0-.21,0-.32c-.07.1-.14.18-.19.24l-.22.24-.55.59-.29-.5,1.3-1.33h.45Z" transform="translate(-900 -660)"/><path class="cls-3" d="M947.3,1075h-3.14v-.6l1.28-1.74c.24-.31.44-.6.6-.85a3.47,3.47,0,0,0,.38-.74,2.53,2.53,0,0,0,.12-.8,1.26,1.26,0,0,0-.24-.83.78.78,0,0,0-.63-.28,1.23,1.23,0,0,0-.61.15,2.68,2.68,0,0,0-.54.45l-.29-.49a2.46,2.46,0,0,1,.41-.38,1.87,1.87,0,0,1,.48-.26,1.42,1.42,0,0,1,.55-.1,1.35,1.35,0,0,1,.76.21,1.3,1.3,0,0,1,.5.58,2.27,2.27,0,0,1,.17.91,2.89,2.89,0,0,1-.15.94,4.26,4.26,0,0,1-.42.86c-.18.28-.39.58-.64.9l-1,1.38v0h2.45Z" transform="translate(-900 -660)"/><path class="cls-3" d="M951.16,1071.79a9.49,9.49,0,0,1-.09,1.38,3.91,3.91,0,0,1-.28,1,1.54,1.54,0,0,1-.49.64,1.16,1.16,0,0,1-.72.22,1.12,1.12,0,0,1-.88-.39,2.49,2.49,0,0,1-.53-1.12,8.17,8.17,0,0,1-.17-1.77,8.81,8.81,0,0,1,.16-1.76,2.42,2.42,0,0,1,.5-1.13,1.23,1.23,0,0,1,1.81,0A2.53,2.53,0,0,1,951,1070,8.17,8.17,0,0,1,951.16,1071.79Zm-2.61,0a8.81,8.81,0,0,0,.1,1.48,2.07,2.07,0,0,0,.33.89.73.73,0,0,0,.6.29.76.76,0,0,0,.6-.29,2.07,2.07,0,0,0,.33-.89,9.92,9.92,0,0,0,.1-1.48,9.77,9.77,0,0,0-.1-1.47,2,2,0,0,0-.33-.89.75.75,0,0,0-1.2,0,1.91,1.91,0,0,0-.33.89A8.61,8.61,0,0,0,948.55,1071.79Z" transform="translate(-900 -660)"/><path class="cls-3" d="M957.09,1075h-.63l-1.29-2.81-1.32,2.81h-.59l1.59-3.32-1.48-3.06H954l1.19,2.55,1.21-2.55H957l-1.48,3.05Z" transform="translate(-900 -660)"/><path class="cls-3" d="M959.23,1072.26a10.42,10.42,0,0,1,.06-1.13,5.11,5.11,0,0,1,.21-1,3,3,0,0,1,.39-.83,1.87,1.87,0,0,1,.62-.57,1.92,1.92,0,0,1,.89-.2l.32,0a1.33,1.33,0,0,1,.28.06v.63a.77.77,0,0,0-.27-.08,1.73,1.73,0,0,0-.32,0,1.29,1.29,0,0,0-.95.35,2.1,2.1,0,0,0-.51,1,6.16,6.16,0,0,0-.17,1.36h0a1.77,1.77,0,0,1,.26-.39,1.2,1.2,0,0,1,.38-.29,1.34,1.34,0,0,1,1.26.13,1.39,1.39,0,0,1,.48.66,2.67,2.67,0,0,1,.17,1,3.25,3.25,0,0,1-.18,1.14,1.65,1.65,0,0,1-.52.74,1.27,1.27,0,0,1-.81.26,1.19,1.19,0,0,1-.64-.18,1.55,1.55,0,0,1-.52-.53,3.11,3.11,0,0,1-.33-.88A5,5,0,0,1,959.23,1072.26Zm1.61,2.2a.85.85,0,0,0,.72-.38,2,2,0,0,0,.27-1.15,1.77,1.77,0,0,0-.24-1,.79.79,0,0,0-.72-.37.92.92,0,0,0-.57.18,1.3,1.3,0,0,0-.38.46,1.24,1.24,0,0,0-.13.56,2.93,2.93,0,0,0,.06.58,2,2,0,0,0,.2.55,1,1,0,0,0,.33.41A.75.75,0,0,0,960.84,1074.46Z" transform="translate(-900 -660)"/><path class="cls-3" d="M966.18,1071.79a9.49,9.49,0,0,1-.09,1.38,3.91,3.91,0,0,1-.28,1,1.54,1.54,0,0,1-.49.64,1.16,1.16,0,0,1-.72.22,1.12,1.12,0,0,1-.88-.39,2.39,2.39,0,0,1-.52-1.12,7.58,7.58,0,0,1-.17-1.77,8.88,8.88,0,0,1,.15-1.76,2.42,2.42,0,0,1,.5-1.13,1.23,1.23,0,0,1,1.81,0A2.53,2.53,0,0,1,966,1070,8.17,8.17,0,0,1,966.18,1071.79Zm-2.61,0a10,10,0,0,0,.1,1.48,2.07,2.07,0,0,0,.33.89.73.73,0,0,0,.6.29.74.74,0,0,0,.6-.29,2.07,2.07,0,0,0,.33-.89,8.73,8.73,0,0,0,.1-1.48,8.61,8.61,0,0,0-.1-1.47,2,2,0,0,0-.33-.89.75.75,0,0,0-1.2,0,2,2,0,0,0-.33.89A8.61,8.61,0,0,0,963.57,1071.79Z" transform="translate(-900 -660)"/><path class="cls-3" d="M970,1071.79a9.49,9.49,0,0,1-.09,1.38,3.93,3.93,0,0,1-.27,1,1.63,1.63,0,0,1-.49.64,1.19,1.19,0,0,1-.73.22,1.13,1.13,0,0,1-.88-.39,2.49,2.49,0,0,1-.52-1.12,8.17,8.17,0,0,1-.17-1.77A8.88,8.88,0,0,1,967,1070a2.42,2.42,0,0,1,.51-1.13,1.22,1.22,0,0,1,1.8,0,2.43,2.43,0,0,1,.52,1.13A7.58,7.58,0,0,1,970,1071.79Zm-2.61,0a8.69,8.69,0,0,0,.11,1.48,2,2,0,0,0,.32.89.76.76,0,0,0,.6.29.73.73,0,0,0,.6-.29,2.07,2.07,0,0,0,.33-.89,8.73,8.73,0,0,0,.1-1.48,8.61,8.61,0,0,0-.1-1.47,2,2,0,0,0-.32-.89.74.74,0,0,0-.61-.3.71.71,0,0,0-.6.3,2,2,0,0,0-.33.89A9.77,9.77,0,0,0,967.4,1071.79Z" transform="translate(-900 -660)"/><path class="cls-3" d="M974,1068.6a1.68,1.68,0,0,1,1.35.49,2,2,0,0,1,.43,1.38,2.8,2.8,0,0,1-.1.77,1.68,1.68,0,0,1-.32.64,1.58,1.58,0,0,1-.59.44,2.28,2.28,0,0,1-.88.15h-.58V1075h-.56v-6.38Zm0,.64h-.64v2.6h.52a2.07,2.07,0,0,0,.76-.13.92.92,0,0,0,.46-.43,1.74,1.74,0,0,0,.16-.78,1.32,1.32,0,0,0-.31-1A1.26,1.26,0,0,0,974,1069.24Z" transform="translate(-900 -660)"/><path class="cls-3" d="M980,1075h-.63l-1.3-2.81-1.31,2.81h-.59l1.59-3.32-1.48-3.06h.62l1.19,2.55,1.2-2.55h.59l-1.48,3.05Z" transform="translate(-900 -660)"/><text class="cls-4" transform="translate(48.39 193.42) scale(0.75 1)">XVIID</text></g></svg>