<svg id="Layer_1" data-name="Layer 1" xmlns="http://www.w3.org/2000/svg" viewBox="0 0 160 600"><defs><style>.cls-1{fill:#fafafa;}.cls-2{fill:#0c91f0;}.cls-3,.cls-4{fill:#7a7a7a;}.cls-4{font-size:12.57px;font-family:KeaniaOne-Regular, Keania One;}</style></defs><g id="wide-skyscraper"><rect id="_1080_x_1920" data-name="1080 x 1920" class="cls-1" width="160" height="600"/><path class="cls-2" d="M956.7,826.52a.52.52,0,0,1-.38-.14.6.6,0,0,1-.18-.33l-1.72-9.67s0,0,0-.06v-.05a.32.32,0,0,1,.32-.31h1.58c.26,0,.41.1.44.31l1.13,6.39,1.22-4a1,1,0,0,1,.15-.26.42.42,0,0,1,.35-.13h.95a.42.42,0,0,1,.35.13.7.7,0,0,1,.13.26l1.24,3.95,1.11-6.37c0-.21.19-.31.46-.31h1.58a.32.32,0,0,1,.32.31v.05a.14.14,0,0,1,0,.06L964,826.05a.53.53,0,0,1-.17.33.54.54,0,0,1-.38.14h-1.23a.54.54,0,0,1-.37-.13.72.72,0,0,1-.17-.27l-1.61-4.67-1.6,4.67a.64.64,0,0,1-.18.27.53.53,0,0,1-.38.13Z" transform="translate(-880 -660)"/><path class="cls-2" d="M959.15,844.62a.37.37,0,0,1-.27-.11.33.33,0,0,1-.11-.27v-9.8a.33.33,0,0,1,.11-.27.37.37,0,0,1,.27-.11h1.7a.38.38,0,0,1,.38.38v9.8a.38.38,0,0,1-.38.38Z" transform="translate(-880 -660)"/><path class="cls-2" d="M956.15,862.72a.37.37,0,0,1-.28-.1.36.36,0,0,1-.1-.27v-9.81a.36.36,0,0,1,.1-.27.38.38,0,0,1,.28-.11h3.78a5.84,5.84,0,0,1,2.52.48A3.5,3.5,0,0,1,964,854a4.65,4.65,0,0,1,.56,2.25c0,.44,0,.83,0,1.16s0,.72,0,1.15a5,5,0,0,1-.56,2.32,3.13,3.13,0,0,1-1.5,1.37,6.27,6.27,0,0,1-2.49.44Zm2-1.94h1.76a3,3,0,0,0,1.24-.23,1.42,1.42,0,0,0,.71-.72,3,3,0,0,0,.25-1.27c0-.29,0-.55,0-.79v-.69c0-.23,0-.49,0-.77a2.33,2.33,0,0,0-.58-1.67,2.36,2.36,0,0,0-1.69-.53h-1.69Z" transform="translate(-880 -660)"/><path class="cls-2" d="M956.74,880.83a.38.38,0,0,1-.38-.38v-9.81a.37.37,0,0,1,.11-.27.36.36,0,0,1,.27-.1h6.83a.39.39,0,0,1,.28.1.36.36,0,0,1,.1.27v1.21a.35.35,0,0,1-.1.26.39.39,0,0,1-.28.1h-4.88v2.37h4.55a.38.38,0,0,1,.38.38v1.11a.36.36,0,0,1-.11.26.37.37,0,0,1-.27.11h-4.55v2.44h5a.36.36,0,0,1,.27.1.4.4,0,0,1,.1.28v1.19a.36.36,0,0,1-.1.27.37.37,0,0,1-.27.11Z" transform="translate(-880 -660)"/><path class="cls-2" d="M960,917.18a6.11,6.11,0,0,1-2.42-.42,3.48,3.48,0,0,1-1.47-1.1,2.61,2.61,0,0,1-.53-1.45.33.33,0,0,1,.09-.22.29.29,0,0,1,.23-.1h1.61a.45.45,0,0,1,.3.09,1,1,0,0,1,.2.2,1.53,1.53,0,0,0,.34.5,1.8,1.8,0,0,0,.64.4,2.93,2.93,0,0,0,1,.16,2.76,2.76,0,0,0,1.47-.32,1,1,0,0,0,.49-.86.87.87,0,0,0-.26-.64,2.54,2.54,0,0,0-.83-.43q-.57-.19-1.5-.42a8.74,8.74,0,0,1-1.93-.63,2.9,2.9,0,0,1-1.19-1,2.65,2.65,0,0,1-.4-1.51,2.72,2.72,0,0,1,.5-1.61,3.32,3.32,0,0,1,1.4-1.1,5.24,5.24,0,0,1,2.16-.4,5.48,5.48,0,0,1,1.79.27,4.08,4.08,0,0,1,1.29.71,3.32,3.32,0,0,1,.8.94,2.14,2.14,0,0,1,.28,1,.33.33,0,0,1-.09.22.28.28,0,0,1-.23.1h-1.68a.61.61,0,0,1-.28-.06.44.44,0,0,1-.19-.21,1.14,1.14,0,0,0-.54-.69,2,2,0,0,0-1.15-.29,2.2,2.2,0,0,0-1.17.27.91.91,0,0,0-.43.83.88.88,0,0,0,.22.61,1.84,1.84,0,0,0,.74.44c.34.12.8.26,1.38.41a10.28,10.28,0,0,1,2.15.65,2.8,2.8,0,0,1,1.23,1,3,3,0,0,1-.18,3.24,3.54,3.54,0,0,1-1.55,1.11A6.48,6.48,0,0,1,960,917.18Z" transform="translate(-880 -660)"/><path class="cls-2" d="M956.66,935.13a.36.36,0,0,1-.27-.1.37.37,0,0,1-.11-.27V925a.38.38,0,0,1,.38-.38h1.6a.37.37,0,0,1,.27.11.36.36,0,0,1,.1.27v3.44l3.11-3.53a.81.81,0,0,1,.21-.19.69.69,0,0,1,.38-.1h1.83a.3.3,0,0,1,.22.1.33.33,0,0,1,.09.22.28.28,0,0,1-.06.18l-3.87,4.56,4.16,5a.29.29,0,0,1,.06.19.33.33,0,0,1-.09.22.32.32,0,0,1-.23.09h-1.88a.61.61,0,0,1-.41-.12l-.18-.16L958.63,931v3.78a.34.34,0,0,1-.37.37Z" transform="translate(-880 -660)"/><path class="cls-2" d="M959.38,953.24a.38.38,0,0,1-.38-.38v-3.32l-3.53-6.38,0-.08a.28.28,0,0,1,0-.09.3.3,0,0,1,.1-.22.31.31,0,0,1,.22-.09h1.59a.49.49,0,0,1,.34.1.66.66,0,0,1,.16.2l2.37,4.15,2.37-4.15a.58.58,0,0,1,.17-.2.48.48,0,0,1,.33-.1h1.6a.29.29,0,0,1,.21.09.3.3,0,0,1,.1.22.28.28,0,0,1,0,.09l0,.08-3.53,6.38v3.32a.38.38,0,0,1-.38.38Z" transform="translate(-880 -660)"/><path class="cls-2" d="M960,971.49a6.11,6.11,0,0,1-2.42-.42,3.41,3.41,0,0,1-1.47-1.11,2.58,2.58,0,0,1-.53-1.44.31.31,0,0,1,.09-.22.29.29,0,0,1,.23-.1h1.61a.51.51,0,0,1,.3.08,1.34,1.34,0,0,1,.2.21,1.5,1.5,0,0,0,.34.49,1.56,1.56,0,0,0,.64.4,2.71,2.71,0,0,0,1,.16,2.77,2.77,0,0,0,1.47-.31,1,1,0,0,0,.49-.86.84.84,0,0,0-.26-.64,2.73,2.73,0,0,0-.83-.44q-.57-.19-1.5-.42a8.76,8.76,0,0,1-1.93-.62,2.9,2.9,0,0,1-1.19-1,2.94,2.94,0,0,1,.1-3.12,3.24,3.24,0,0,1,1.4-1.1,5.24,5.24,0,0,1,2.16-.4,5.48,5.48,0,0,1,1.79.27,4.08,4.08,0,0,1,1.29.71,3.42,3.42,0,0,1,.8.93,2.21,2.21,0,0,1,.28,1,.33.33,0,0,1-.09.22.31.31,0,0,1-.23.1h-1.68a.51.51,0,0,1-.28-.07.44.44,0,0,1-.19-.21,1.12,1.12,0,0,0-.54-.68,2,2,0,0,0-1.15-.3,2.2,2.2,0,0,0-1.17.27.92.92,0,0,0-.43.83.89.89,0,0,0,.22.62,1.74,1.74,0,0,0,.74.43,13.47,13.47,0,0,0,1.38.42,10.28,10.28,0,0,1,2.15.65,2.8,2.8,0,0,1,1.23,1,2.7,2.7,0,0,1,.39,1.5,2.76,2.76,0,0,1-.57,1.74,3.45,3.45,0,0,1-1.55,1.1A6.26,6.26,0,0,1,960,971.49Z" transform="translate(-880 -660)"/><path class="cls-2" d="M960.08,989.59a5.58,5.58,0,0,1-2.4-.47,3.58,3.58,0,0,1-1.54-1.39,4.74,4.74,0,0,1-.6-2.23c0-.41,0-.85,0-1.32s0-.93,0-1.36a4.7,4.7,0,0,1,.61-2.21,3.63,3.63,0,0,1,1.55-1.4,5.43,5.43,0,0,1,2.38-.48,6.2,6.2,0,0,1,1.84.26,4.27,4.27,0,0,1,1.44.74,3.36,3.36,0,0,1,.93,1.13,3.4,3.4,0,0,1,.36,1.44.28.28,0,0,1-.1.23.32.32,0,0,1-.23.09H962.6a.44.44,0,0,1-.29-.09.6.6,0,0,1-.16-.3,1.89,1.89,0,0,0-.76-1.22,2.4,2.4,0,0,0-1.31-.33,2.1,2.1,0,0,0-1.48.51,2.4,2.4,0,0,0-.58,1.7c0,.83,0,1.67,0,2.54a2.4,2.4,0,0,0,.58,1.7,2.1,2.1,0,0,0,1.48.52,2.46,2.46,0,0,0,1.32-.34,1.9,1.9,0,0,0,.75-1.22.6.6,0,0,1,.16-.31.5.5,0,0,1,.29-.08h1.72a.32.32,0,0,1,.23.09.29.29,0,0,1,.1.23,3.4,3.4,0,0,1-.36,1.44,3.49,3.49,0,0,1-.93,1.14,4.44,4.44,0,0,1-1.44.73A5.89,5.89,0,0,1,960.08,989.59Z" transform="translate(-880 -660)"/><path class="cls-2" d="M956.35,1007.54a.36.36,0,0,1-.27-.1.37.37,0,0,1-.11-.27v-9.81a.38.38,0,0,1,.38-.38h4a4.65,4.65,0,0,1,3,.87,3,3,0,0,1,1.08,2.5,3.1,3.1,0,0,1-.52,1.84,3.24,3.24,0,0,1-1.42,1.1l2.13,3.77a.38.38,0,0,1,0,.17.33.33,0,0,1-.09.22.32.32,0,0,1-.23.09h-1.67a.53.53,0,0,1-.41-.14,1.2,1.2,0,0,1-.19-.26l-1.84-3.46h-1.83v3.49a.37.37,0,0,1-.11.27.36.36,0,0,1-.27.1Zm2-5.77h1.93a1.76,1.76,0,0,0,1.23-.38,1.37,1.37,0,0,0,.4-1.06,1.45,1.45,0,0,0-.39-1.07,1.71,1.71,0,0,0-1.24-.39h-1.93Z" transform="translate(-880 -660)"/><path class="cls-2" d="M955.38,1025.65a.32.32,0,0,1-.32-.32.61.61,0,0,1,0-.14l3.59-9.7a.57.57,0,0,1,.18-.28.58.58,0,0,1,.38-.12h1.93a.56.56,0,0,1,.38.12.57.57,0,0,1,.18.28l3.59,9.7a.59.59,0,0,1,0,.14.32.32,0,0,1-.32.32h-1.57a.45.45,0,0,1-.33-.11.56.56,0,0,1-.14-.2l-.65-1.69h-4.25l-.65,1.69a.52.52,0,0,1-.13.2.46.46,0,0,1-.34.11Zm3.24-3.94h3.12l-1.55-4.35Z" transform="translate(-880 -660)"/><path class="cls-2" d="M956.62,1043.75a.38.38,0,0,1-.38-.38v-9.8a.39.39,0,0,1,.11-.28.36.36,0,0,1,.27-.1h4.12a5.32,5.32,0,0,1,2.12.38,3.08,3.08,0,0,1,1.4,1.13,3.34,3.34,0,0,1,.51,1.9,3.29,3.29,0,0,1-.51,1.89,3,3,0,0,1-1.4,1.11,5.7,5.7,0,0,1-2.12.36h-2v3.41a.38.38,0,0,1-.38.38Zm2-5.66h2a1.7,1.7,0,0,0,1.2-.38,1.4,1.4,0,0,0,.43-1.13,1.56,1.56,0,0,0-.38-1.08,1.59,1.59,0,0,0-1.25-.43h-2Z" transform="translate(-880 -660)"/><path class="cls-2" d="M956.74,1061.85a.36.36,0,0,1-.27-.1.41.41,0,0,1-.11-.28v-9.8a.38.38,0,0,1,.38-.38h6.83a.39.39,0,0,1,.28.11.36.36,0,0,1,.1.27v1.21a.33.33,0,0,1-.1.25.39.39,0,0,1-.28.11h-4.88v2.37h4.55a.36.36,0,0,1,.27.1.37.37,0,0,1,.11.27v1.12a.36.36,0,0,1-.38.36h-4.55v2.44h5a.37.37,0,0,1,.27.11.36.36,0,0,1,.1.27v1.19a.4.4,0,0,1-.1.28.36.36,0,0,1-.27.1Z" transform="translate(-880 -660)"/><path class="cls-2" d="M956.35,1080a.36.36,0,0,1-.27-.1.37.37,0,0,1-.11-.27v-9.81a.38.38,0,0,1,.38-.38h4a4.65,4.65,0,0,1,3,.87,3,3,0,0,1,1.08,2.5,3.1,3.1,0,0,1-.52,1.84,3.24,3.24,0,0,1-1.42,1.1l2.13,3.77a.38.38,0,0,1,0,.17.33.33,0,0,1-.09.22.32.32,0,0,1-.23.09h-1.67a.53.53,0,0,1-.41-.14,1.2,1.2,0,0,1-.19-.26l-1.84-3.46h-1.83v3.49a.37.37,0,0,1-.11.27.36.36,0,0,1-.27.1Zm2-5.77h1.93a1.76,1.76,0,0,0,1.23-.38,1.37,1.37,0,0,0,.4-1.06,1.45,1.45,0,0,0-.39-1.07,1.71,1.71,0,0,0-1.24-.39h-1.93Z" transform="translate(-880 -660)"/><path class="cls-3" d="M936.47,1120h-.71v-4.52c0-.17,0-.32,0-.44v-.34c0-.1,0-.21,0-.32a1.82,1.82,0,0,1-.25.24l-.29.24-.73.59-.38-.5,1.73-1.33h.6Z" transform="translate(-880 -660)"/><path class="cls-3" d="M939,1117.26a8.35,8.35,0,0,1,.08-1.13,4.48,4.48,0,0,1,.27-1,2.62,2.62,0,0,1,.53-.83,2.32,2.32,0,0,1,.82-.57,3.26,3.26,0,0,1,1.19-.2l.43,0a2.6,2.6,0,0,1,.37.06v.63a1.34,1.34,0,0,0-.37-.08,2.73,2.73,0,0,0-.41,0,2.11,2.11,0,0,0-1.28.35,2,2,0,0,0-.67,1,4.71,4.71,0,0,0-.24,1.36h.05a1.61,1.61,0,0,1,.35-.39,1.58,1.58,0,0,1,.51-.29,2.09,2.09,0,0,1,.69-.1,2.06,2.06,0,0,1,1,.23,1.51,1.51,0,0,1,.64.66,2.08,2.08,0,0,1,.23,1,2.52,2.52,0,0,1-.24,1.14,1.79,1.79,0,0,1-.7.74,2,2,0,0,1-1.07.26,2,2,0,0,1-.86-.18,1.86,1.86,0,0,1-.69-.53,2.7,2.7,0,0,1-.45-.88A4.1,4.1,0,0,1,939,1117.26Zm2.15,2.2a1.27,1.27,0,0,0,.95-.38,1.6,1.6,0,0,0,.36-1.15,1.45,1.45,0,0,0-.32-1,1.18,1.18,0,0,0-1-.37,1.53,1.53,0,0,0-.76.18,1.39,1.39,0,0,0-.5.46,1,1,0,0,0-.18.56,2.38,2.38,0,0,0,.08.58,2.14,2.14,0,0,0,.26.55,1.43,1.43,0,0,0,.44.41A1.28,1.28,0,0,0,941.1,1119.46Z" transform="translate(-880 -660)"/><path class="cls-3" d="M948.21,1116.79a7.16,7.16,0,0,1-.12,1.38,3.26,3.26,0,0,1-.37,1,1.73,1.73,0,0,1-.65.64,2,2,0,0,1-1,.22,1.76,1.76,0,0,1-1.17-.39,2.37,2.37,0,0,1-.7-1.12,6.08,6.08,0,0,1-.23-1.77,6.43,6.43,0,0,1,.21-1.76,2.22,2.22,0,0,1,.67-1.13,2,2,0,0,1,2.41,0A2.32,2.32,0,0,1,948,1115,5.76,5.76,0,0,1,948.21,1116.79Zm-3.48,0a6.82,6.82,0,0,0,.14,1.48,1.7,1.7,0,0,0,.44.89,1.1,1.1,0,0,0,.79.29,1.12,1.12,0,0,0,.8-.29,1.77,1.77,0,0,0,.44-.89,6.75,6.75,0,0,0,.14-1.48,6.65,6.65,0,0,0-.14-1.47,1.73,1.73,0,0,0-.43-.89,1.23,1.23,0,0,0-1.61,0,1.73,1.73,0,0,0-.43.89A6.65,6.65,0,0,0,944.73,1116.79Z" transform="translate(-880 -660)"/><path class="cls-3" d="M956.12,1120h-.84l-1.73-2.81L951.8,1120H951l2.13-3.32-2-3.06H952l1.59,2.55,1.6-2.55H956l-2,3.05Z" transform="translate(-880 -660)"/><path class="cls-3" d="M959,1117.26a8.35,8.35,0,0,1,.08-1.13,4,4,0,0,1,.27-1,2.46,2.46,0,0,1,.53-.83,2.32,2.32,0,0,1,.82-.57,3.26,3.26,0,0,1,1.19-.2l.42,0a2.54,2.54,0,0,1,.38.06v.63a1.34,1.34,0,0,0-.37-.08,2.86,2.86,0,0,0-.42,0,2.08,2.08,0,0,0-1.27.35,2,2,0,0,0-.67,1,4.71,4.71,0,0,0-.24,1.36h0a1.61,1.61,0,0,1,.35-.39,1.64,1.64,0,0,1,.5-.29,2.15,2.15,0,0,1,.7-.1,2.06,2.06,0,0,1,1,.23,1.57,1.57,0,0,1,.64.66,2.19,2.19,0,0,1,.23,1,2.52,2.52,0,0,1-.24,1.14,1.79,1.79,0,0,1-.7.74,2.06,2.06,0,0,1-1.08.26,2,2,0,0,1-.85-.18,1.86,1.86,0,0,1-.69-.53,2.7,2.7,0,0,1-.45-.88A4.1,4.1,0,0,1,959,1117.26Zm2.15,2.2a1.27,1.27,0,0,0,1-.38,1.6,1.6,0,0,0,.36-1.15,1.45,1.45,0,0,0-.32-1,1.21,1.21,0,0,0-1-.37,1.53,1.53,0,0,0-.76.18,1.32,1.32,0,0,0-.5.46,1,1,0,0,0-.18.56,2.38,2.38,0,0,0,.08.58,1.85,1.85,0,0,0,.26.55,1.33,1.33,0,0,0,.44.41A1.28,1.28,0,0,0,961.13,1119.46Z" transform="translate(-880 -660)"/><path class="cls-3" d="M968.24,1116.79a7.16,7.16,0,0,1-.12,1.38,3.26,3.26,0,0,1-.37,1,1.81,1.81,0,0,1-.65.64,2,2,0,0,1-1,.22,1.76,1.76,0,0,1-1.17-.39,2.3,2.3,0,0,1-.7-1.12,6.08,6.08,0,0,1-.23-1.77,6.43,6.43,0,0,1,.21-1.76,2.22,2.22,0,0,1,.67-1.13,2,2,0,0,1,2.41,0A2.32,2.32,0,0,1,968,1115,6.08,6.08,0,0,1,968.24,1116.79Zm-3.48,0a6.82,6.82,0,0,0,.14,1.48,1.77,1.77,0,0,0,.43.89,1.14,1.14,0,0,0,.8.29,1.12,1.12,0,0,0,.8-.29,1.77,1.77,0,0,0,.44-.89,6.75,6.75,0,0,0,.14-1.48,6.65,6.65,0,0,0-.14-1.47,1.66,1.66,0,0,0-.44-.89,1.07,1.07,0,0,0-.8-.3,1.09,1.09,0,0,0-.8.3,1.73,1.73,0,0,0-.44.89A7.41,7.41,0,0,0,964.76,1116.79Z" transform="translate(-880 -660)"/><path class="cls-3" d="M973.35,1116.79a7.16,7.16,0,0,1-.12,1.38,3,3,0,0,1-.37,1,1.73,1.73,0,0,1-.65.64,2,2,0,0,1-1,.22,1.76,1.76,0,0,1-1.17-.39,2.37,2.37,0,0,1-.7-1.12,6.08,6.08,0,0,1-.23-1.77,6.43,6.43,0,0,1,.21-1.76,2.22,2.22,0,0,1,.67-1.13,2,2,0,0,1,2.41,0,2.32,2.32,0,0,1,.69,1.13A5.76,5.76,0,0,1,973.35,1116.79Zm-3.48,0a6.82,6.82,0,0,0,.14,1.48,1.7,1.7,0,0,0,.44.89,1.1,1.1,0,0,0,.79.29,1.12,1.12,0,0,0,.8-.29,1.77,1.77,0,0,0,.44-.89,6.75,6.75,0,0,0,.14-1.48,6.65,6.65,0,0,0-.14-1.47,1.73,1.73,0,0,0-.43-.89,1.23,1.23,0,0,0-1.61,0,1.65,1.65,0,0,0-.43.89A6.65,6.65,0,0,0,969.87,1116.79Z" transform="translate(-880 -660)"/><path class="cls-3" d="M978.67,1113.6a2.71,2.71,0,0,1,1.8.49,1.7,1.7,0,0,1,.57,1.38,2.22,2.22,0,0,1-.13.77,1.68,1.68,0,0,1-.43.64,2.24,2.24,0,0,1-.78.44,4,4,0,0,1-1.18.15h-.78V1120H977v-6.38Zm-.07.64h-.86v2.6h.7a3.72,3.72,0,0,0,1-.13,1.16,1.16,0,0,0,.61-.43,1.33,1.33,0,0,0,.2-.78,1.12,1.12,0,0,0-.4-1A2.08,2.08,0,0,0,978.6,1114.24Z" transform="translate(-880 -660)"/><path class="cls-3" d="M986.64,1120h-.85l-1.72-2.81-1.75,2.81h-.79l2.13-3.32-2-3.06h.82l1.6,2.55,1.6-2.55h.78l-2,3.05Z" transform="translate(-880 -660)"/><text class="cls-4" transform="translate(64.52 148.42)">XVIID</text></g></svg>