<?xml version="1.0" encoding="UTF-8"?>
<svg id="Horizontal" xmlns="http://www.w3.org/2000/svg" viewBox="0 0 64 64">
  <defs>
    <style>
      .cls-1 {
        letter-spacing: -.02em;
      }

      .cls-1, .cls-2, .cls-3, .cls-4 {
        font-family: Raleway-SemiBold, Raleway;
        font-weight: 600;
      }

      .cls-5, .cls-6 {
        fill: #dd4814;
      }

      .cls-6 {
        font-size: 7.71px;
      }

      .cls-2 {
        letter-spacing: -.05em;
      }

      .cls-7 {
        font-family: Raleway-Regular, Raleway;
      }

      .cls-3 {
        letter-spacing: 0em;
      }
    </style>
  </defs>
  <text class="cls-6" transform="translate(24.71 34.28)"><tspan class="cls-7" x="0" y="0">CI4</tspan><tspan class="cls-2" x="11.41" y="0">F</tspan><tspan class="cls-1" x="15.48" y="0">a</tspan><tspan class="cls-4" x="19.69" y="0">vi</tspan><tspan class="cls-3" x="25.74" y="0">c</tspan><tspan class="cls-4" x="30.01" y="0">on</tspan></text>
  <g>
    <path class="cls-5" d="M3.53,28.25c-1.95,0-3.53,1.58-3.53,3.53,0,.18.15.33.33.33s.33-.15.33-.33c0-1.58,1.29-2.87,2.87-2.87s2.87,1.29,2.87,2.87c0,.18.15.33.33.33s.33-.15.33-.33c0-1.95-1.58-3.53-3.53-3.53Z"/>
    <path class="cls-5" d="M17.01,28.3c-1.95,0-3.53,1.58-3.53,3.53,0,.18.15.33.33.33s.33-.15.33-.33c0-1.58,1.29-2.87,2.87-2.87s2.87,1.29,2.87,2.87c0,.18.15.33.33.33s.33-.15.33-.33c0-1.95-1.58-3.53-3.53-3.53Z"/>
    <path class="cls-5" d="M12.63,34.51c-.27.31-.67.65-1.02.56-.27-.07-.49-.36-.66-.69.63-.39,1.08-1.27,1.08-2,0-.97-.8-1.77-1.77-1.77s-1.77.8-1.77,1.77c0,.72.45,1.58,1.08,1.98-.17.32-.39.6-.65.67-.35.09-.75-.26-1.02-.56-.12-.14-.33-.15-.47-.03-.14.12-.15.33-.03.47.47.53.94.8,1.39.8.1,0,.19-.01.29-.04.52-.13.88-.62,1.12-1.09.02,0,.05,0,.07,0,0,0,.01,0,.02,0,.24.49.6.99,1.14,1.13.09.02.19.04.29.04.45,0,.92-.27,1.39-.8.12-.14.11-.35-.03-.47-.14-.12-.35-.11-.47.03Z"/>
  </g>
</svg>