<?xml version="1.0" encoding="UTF-8"?>
<svg id="Outline" xmlns="http://www.w3.org/2000/svg" viewBox="0 0 64 64">
  <defs>
    <style>
      .cls-1 {
        fill: #231f20;
      }
    </style>
  </defs>
  <g id="compound">
    <path class="cls-1" d="M20.98,32.37c-.57,0-1.03-.46-1.03-1.03,0-4.93-4.01-8.94-8.94-8.94S2.07,26.41,2.07,31.34c0,.57-.46,1.03-1.03,1.03s-1.03-.46-1.03-1.03c0-6.07,4.94-11.01,11.01-11.01s11.01,4.94,11.01,11.01c0,.57-.46,1.03-1.03,1.03ZM64,31.47c0-6.07-4.94-11.01-11.01-11.01s-11.01,4.94-11.01,11.01c0,.57.46,1.03,1.03,1.03s1.03-.46,1.03-1.03c0-4.93,4.01-8.94,8.94-8.94s8.94,4.01,8.94,8.94c0,.57.46,1.03,1.03,1.03s1.03-.46,1.03-1.03ZM40.9,41.18c-1.47,1.65-2.93,2.49-4.34,2.49-.15,0-.3,0-.44-.03-1.32-.17-2.48-1.05-3.45-2.62-.2.03-.41.04-.61.04-.26,0-.52-.03-.78-.07-.96,1.51-2.1,2.35-3.4,2.51-.14.02-.28.03-.43.03-1.41,0-2.87-.83-4.34-2.49-.38-.43-.34-1.08.08-1.46.43-.38,1.08-.34,1.46.08.79.88,1.94,1.91,2.98,1.78.66-.08,1.22-.61,1.67-1.23-2.28-1.43-3.87-4.43-3.87-7.05,0-3.61,2.93-6.54,6.54-6.54s6.54,2.93,6.54,6.54c0,2.71-1.56,5.74-3.85,7.12.46.64,1.03,1.2,1.7,1.29,1.04.14,2.2-.9,2.99-1.78.38-.43,1.03-.46,1.46-.08.43.38.46,1.03.08,1.46ZM32.05,39c2.33,0,4.4-3.26,4.4-5.82s-2.01-4.48-4.48-4.48-4.48,2.01-4.48,4.48,2.21,5.82,4.55,5.82Z"/>
  </g>
</svg>