<?xml version="1.0" encoding="UTF-8"?>
<svg id="Favicon" xmlns="http://www.w3.org/2000/svg" viewBox="0 0 64 64">
  <defs>
    <style>
      .cls-1 {
        fill: #231f20;
      }
    </style>
  </defs>
  <path class="cls-1" d="M54,0H10C4.48,0,0,4.48,0,10v44c0,5.52,4.48,10,10,10h44c5.52,0,10-4.48,10-10V10c0-5.52-4.48-10-10-10ZM23.53,32.28c-.44,0-.79-.36-.79-.79,0-3.79-3.09-6.88-6.88-6.88s-6.88,3.08-6.88,6.88c0,.44-.36.79-.79.79s-.79-.36-.79-.79c0-4.67,3.8-8.47,8.47-8.47s8.47,3.8,8.47,8.47c0,.44-.36.79-.79.79ZM38.84,39.06c-1.14,1.27-2.25,1.91-3.34,1.91-.23,0-.46-.03-.69-.09-1.29-.33-2.17-1.55-2.73-2.71-.02,0-.03,0-.05,0-.06,0-.11,0-.17-.01-.57,1.13-1.44,2.3-2.69,2.62-.23.06-.46.09-.69.09-1.08,0-2.2-.64-3.34-1.91-.29-.33-.26-.83.06-1.12.33-.29.83-.26,1.12.06.65.73,1.61,1.56,2.44,1.34.62-.16,1.15-.83,1.56-1.6-1.51-.95-2.6-3.02-2.6-4.74,0-2.32,1.91-4.24,4.24-4.24s4.24,1.91,4.24,4.24c0,1.76-1.06,3.87-2.58,4.8.41.78.95,1.48,1.58,1.65.83.21,1.79-.61,2.44-1.35.29-.33.79-.36,1.12-.06.33.29.36.79.06,1.12ZM55.82,32.39c-.44,0-.79-.36-.79-.79,0-3.79-3.08-6.88-6.88-6.88s-6.88,3.08-6.88,6.88c0,.44-.36.79-.79.79s-.79-.36-.79-.79c0-4.67,3.8-8.47,8.47-8.47s8.47,3.8,8.47,8.47c0,.44-.36.79-.79.79Z"/>
</svg>