<?xml version="1.0" encoding="UTF-8"?>
<svg id="Horizontal" xmlns="http://www.w3.org/2000/svg" viewBox="0 0 64 64">
  <defs>
    <style>
      .cls-1 {
        fill: #231f20;
      }
    </style>
  </defs>
  <path class="cls-1" d="M25.22,31.49c0-.34.06-.67.18-.99.12-.32.29-.62.51-.89.22-.27.5-.48.82-.64.33-.16.7-.24,1.11-.24.49,0,.91.11,1.26.34s.61.51.77.87l-.43.26c-.12-.24-.27-.44-.45-.58-.18-.14-.37-.24-.58-.31-.2-.06-.41-.09-.61-.09-.33,0-.62.07-.88.2-.25.13-.47.31-.64.53s-.31.47-.39.74c-.09.27-.13.55-.13.83,0,.31.05.6.16.88s.25.53.43.74.4.39.66.51c.25.13.52.19.82.19.21,0,.42-.04.64-.11.22-.07.42-.18.61-.33.19-.15.34-.34.45-.58l.45.23c-.11.27-.29.51-.53.7-.24.19-.5.34-.8.43-.29.1-.58.15-.86.15-.38,0-.73-.08-1.04-.24-.32-.16-.59-.38-.82-.65s-.41-.58-.53-.92c-.12-.34-.19-.68-.19-1.03ZM30.91,34.29v-5.51h.54v5.51h-.54ZM34.91,35.28v-1.38h-2.59v-.47l2.76-3.57h.36v3.56h.68v.48h-.68v1.38h-.53ZM32.89,33.41h2.08v-2.73l-2.08,2.73ZM37.01,34.29v-5.51h3.67v.77h-2.8v1.65h2.35v.72h-2.35v2.38h-.87ZM40.71,33.12c0-.26.07-.48.22-.67.15-.19.35-.34.61-.45s.56-.16.9-.16c.18,0,.37.01.56.04.19.03.36.07.5.12v-.25c0-.28-.09-.5-.26-.66-.17-.16-.42-.24-.74-.24-.23,0-.44.04-.65.12-.2.08-.42.19-.64.34l-.29-.57c.27-.18.54-.32.81-.4.27-.09.56-.13.86-.13.54,0,.97.14,1.29.43.31.28.47.69.47,1.21v1.5c0,.1.02.17.05.21.03.04.09.06.17.07v.68c-.08.02-.15.03-.21.03-.06,0-.11,0-.16,0-.18,0-.32-.04-.41-.13-.09-.09-.15-.19-.16-.31l-.02-.23c-.18.23-.4.4-.67.53-.27.12-.55.19-.83.19s-.51-.06-.72-.17c-.21-.11-.38-.26-.5-.45s-.18-.4-.18-.64ZM43.29,33.36c.06-.07.11-.13.15-.2.04-.07.05-.12.05-.18v-.46c-.15-.06-.3-.1-.46-.13-.16-.03-.32-.04-.47-.04-.31,0-.56.06-.76.18-.19.12-.29.29-.29.5,0,.12.03.23.1.34s.16.19.28.26.27.1.45.1.37-.04.54-.11c.17-.07.31-.16.41-.28ZM46.38,34.29l-1.55-4.03h.89l1.16,3.24,1.16-3.24h.82l-1.54,4.03h-.93ZM49.47,29.56v-.94h.85v.94h-.85ZM49.47,34.29v-4.06h.85v4.06h-.85ZM53.19,34.37c-.31,0-.6-.06-.86-.17-.26-.11-.48-.26-.66-.46-.19-.2-.33-.42-.43-.67-.1-.25-.15-.52-.15-.8,0-.38.09-.73.26-1.04s.42-.56.73-.75.68-.29,1.11-.29.78.09,1.08.28c.31.18.53.43.68.73l-.83.26c-.09-.17-.22-.3-.39-.4-.17-.1-.35-.14-.55-.14-.23,0-.43.06-.62.17-.18.12-.33.27-.43.48-.11.2-.16.43-.16.7s.05.49.16.69.25.37.44.49.39.18.62.18c.14,0,.28-.02.41-.07s.25-.12.35-.2.17-.18.21-.28l.84.25c-.09.2-.22.38-.39.54-.17.16-.38.28-.61.37-.24.09-.5.14-.79.14ZM57.47,34.37c-.32,0-.61-.06-.86-.17-.25-.11-.47-.26-.66-.46-.18-.2-.32-.42-.42-.67s-.15-.51-.15-.8.05-.55.15-.8c.1-.25.24-.47.42-.67.18-.19.4-.34.66-.45s.54-.17.86-.17.6.06.86.17c.26.11.48.26.66.45.18.19.32.41.42.67.1.25.15.52.15.8s-.05.55-.15.8-.24.47-.42.67c-.18.19-.4.35-.66.46-.26.11-.54.17-.86.17ZM56.26,32.29c0,.26.05.49.16.69.11.2.25.37.43.48s.39.18.61.18.43-.06.61-.18.33-.28.44-.49.16-.43.16-.68-.05-.49-.16-.69c-.11-.2-.25-.37-.44-.49s-.39-.18-.61-.18-.43.06-.61.18c-.18.12-.33.28-.43.49-.11.2-.16.43-.16.69ZM63.97,34.29h-.85v-2.25c0-.37-.06-.65-.18-.82s-.3-.26-.54-.26c-.17,0-.33.04-.49.12s-.31.19-.44.33c-.13.14-.22.3-.28.48v2.39h-.85v-4.03h.78v.81c.1-.18.24-.33.41-.47.17-.13.36-.23.57-.3s.44-.11.67-.11.44.04.6.13c.16.09.28.21.37.36s.15.33.19.52c.03.2.05.41.05.63v2.45ZM7.12,31.79c0,.18-.15.33-.33.33s-.33-.15-.33-.33c0-1.59-1.3-2.89-2.89-2.89s-2.89,1.3-2.89,2.89c0,.18-.15.33-.33.33s-.33-.15-.33-.33c0-1.96,1.6-3.56,3.56-3.56s3.56,1.6,3.56,3.56ZM17.13,28.27c-1.96,0-3.56,1.6-3.56,3.56,0,.18.15.33.33.33s.33-.15.33-.33c0-1.59,1.3-2.89,2.89-2.89s2.89,1.3,2.89,2.89c0,.18.15.33.33.33s.33-.15.33-.33c0-1.96-1.6-3.56-3.56-3.56ZM12.72,34.52c-.27.31-.68.65-1.03.57-.27-.07-.49-.36-.67-.69.64-.39,1.08-1.28,1.08-2.02,0-.98-.8-1.78-1.78-1.78s-1.78.8-1.78,1.78c0,.73.46,1.59,1.09,1.99-.17.32-.39.6-.65.67-.35.09-.75-.26-1.03-.57-.12-.14-.33-.15-.47-.03-.14.12-.15.33-.03.47.48.53.95.8,1.4.8.1,0,.19-.01.29-.04.53-.14.89-.62,1.13-1.1.02,0,.05,0,.07,0,0,0,.01,0,.02,0,.24.49.61,1,1.15,1.14.1.02.19.04.29.04.45,0,.92-.27,1.4-.8.12-.14.11-.35-.03-.47-.14-.12-.35-.11-.47.03Z"/>
</svg>