<?xml version="1.0" encoding="UTF-8"?>
<svg id="Vertical" xmlns="http://www.w3.org/2000/svg" viewBox="0 0 64 64">
  <defs>
    <style>
      .cls-1 {
        fill: #dd4814;
      }
    </style>
  </defs>
  <g>
    <path class="cls-1" d="M0,42.38c0-.56.1-1.1.29-1.64.19-.53.47-1.02.84-1.46.37-.44.82-.79,1.36-1.05.54-.26,1.15-.39,1.83-.39.81,0,1.51.19,2.08.56.58.37,1,.85,1.28,1.43l-.71.44c-.2-.4-.44-.72-.74-.96s-.62-.4-.96-.51c-.34-.1-.67-.15-1.01-.15-.55,0-1.03.11-1.45.33s-.77.51-1.06.87c-.29.36-.5.77-.65,1.22-.15.45-.22.9-.22,1.37,0,.5.09.99.26,1.45.17.46.41.87.72,1.23s.67.64,1.08.85c.41.21.87.32,1.35.32.34,0,.69-.06,1.05-.18s.69-.3,1.01-.55c.31-.25.56-.57.75-.96l.74.39c-.19.45-.48.84-.87,1.15-.39.32-.83.56-1.32.72-.48.16-.96.24-1.42.24-.62,0-1.2-.14-1.72-.41-.52-.27-.97-.63-1.35-1.08-.38-.45-.67-.95-.88-1.51-.21-.56-.31-1.13-.31-1.7Z"/>
    <path class="cls-1" d="M9.4,47.01v-9.11h.9v9.11h-.9Z"/>
    <path class="cls-1" d="M16.01,48.64v-2.28h-4.27v-.77l4.55-5.9h.59v5.87h1.13v.8h-1.13v2.28h-.87ZM12.66,45.56h3.44v-4.5l-3.44,4.5Z"/>
    <path class="cls-1" d="M19.47,47.01v-9.11h6.07v1.27h-4.63v2.72h3.87v1.19h-3.87v3.93h-1.44Z"/>
    <path class="cls-1" d="M25.58,45.06c0-.42.12-.79.37-1.11.24-.32.58-.56,1.01-.74s.92-.26,1.49-.26c.3,0,.61.02.92.06.31.04.59.11.83.21v-.42c0-.46-.14-.83-.42-1.09-.28-.26-.69-.39-1.22-.39-.38,0-.73.07-1.06.2-.33.13-.69.32-1.07.56l-.47-.95c.44-.3.89-.52,1.34-.67s.92-.22,1.42-.22c.9,0,1.61.23,2.12.7s.78,1.13.78,2v2.47c0,.16.03.28.08.34.06.07.15.1.29.11v1.13c-.13.02-.24.04-.35.05-.1,0-.19.01-.26.01-.3,0-.53-.07-.68-.22-.15-.14-.24-.32-.27-.51l-.04-.39c-.29.38-.66.67-1.12.87-.45.2-.91.31-1.37.31s-.84-.09-1.19-.27c-.35-.18-.62-.43-.82-.74-.2-.31-.29-.66-.29-1.05ZM29.85,45.47c.1-.11.18-.22.24-.33.06-.11.09-.21.09-.29v-.76c-.24-.09-.49-.16-.76-.21-.26-.05-.53-.07-.78-.07-.51,0-.93.1-1.25.3-.32.2-.48.48-.48.83,0,.19.05.38.16.55.11.18.26.32.46.43s.45.16.75.16.6-.06.89-.18c.28-.12.51-.27.68-.45Z"/>
    <path class="cls-1" d="M34.94,47.01l-2.55-6.66h1.46l1.91,5.36,1.91-5.36h1.36l-2.55,6.66h-1.54Z"/>
    <path class="cls-1" d="M40.05,39.2v-1.55h1.41v1.55h-1.41ZM40.05,47.01v-6.71h1.41v6.71h-1.41Z"/>
    <path class="cls-1" d="M46.19,47.14c-.52,0-.99-.09-1.42-.27-.42-.18-.79-.44-1.1-.76-.31-.32-.54-.69-.71-1.11-.17-.42-.25-.86-.25-1.32,0-.63.14-1.2.43-1.72s.69-.93,1.21-1.25c.52-.31,1.13-.47,1.84-.47s1.28.15,1.79.45.88.71,1.12,1.21l-1.37.44c-.15-.28-.37-.5-.65-.66-.28-.16-.58-.24-.92-.24-.38,0-.72.09-1.02.28-.3.19-.54.45-.72.78-.18.33-.26.72-.26,1.16s.09.8.27,1.14.42.61.72.81c.3.2.64.3,1.02.3.23,0,.46-.04.67-.12s.41-.19.57-.33c.16-.14.28-.3.35-.47l1.39.41c-.15.33-.36.63-.65.89-.29.26-.62.46-1.01.61s-.82.23-1.3.23Z"/>
    <path class="cls-1" d="M53.28,47.14c-.53,0-1.01-.09-1.42-.27-.42-.18-.78-.44-1.08-.76-.3-.32-.54-.69-.7-1.1-.16-.41-.24-.85-.24-1.32s.08-.91.24-1.32c.16-.42.4-.78.7-1.1.3-.32.67-.57,1.09-.75.42-.18.9-.27,1.42-.27s.99.09,1.42.27c.42.18.79.43,1.09.75.3.32.54.68.7,1.1.16.42.24.86.24,1.32s-.08.9-.24,1.32c-.16.41-.4.78-.7,1.1-.3.32-.67.57-1.09.76-.42.18-.9.27-1.42.27ZM51.27,43.7c0,.42.09.8.27,1.14s.42.6.72.8c.3.19.64.29,1.01.29s.7-.1,1.01-.3c.3-.2.54-.47.72-.81s.27-.72.27-1.13-.09-.8-.27-1.14c-.18-.34-.42-.61-.72-.8-.3-.2-.64-.3-1.01-.3s-.71.1-1.01.3c-.3.2-.54.47-.72.8-.18.33-.27.71-.27,1.14Z"/>
    <path class="cls-1" d="M64,47.01h-1.41v-3.71c0-.62-.1-1.07-.3-1.36s-.5-.43-.89-.43c-.27,0-.55.07-.81.2-.27.13-.51.32-.72.55-.21.23-.37.5-.46.8v3.95h-1.41v-6.66h1.28v1.35c.17-.3.4-.55.67-.77.28-.22.59-.38.94-.5.35-.12.72-.18,1.12-.18s.73.07.99.22.47.34.62.59c.15.25.25.54.31.86.06.33.08.67.08,1.04v4.05Z"/>
  </g>
  <g>
    <path class="cls-1" d="M17.74,15.36c-4.1,0-7.44,3.34-7.44,7.44,0,.39.31.7.7.7s.7-.31.7-.7c0-3.33,2.71-6.05,6.05-6.05s6.05,2.71,6.05,6.05c0,.39.31.7.7.7s.7-.31.7-.7c0-4.1-3.34-7.44-7.44-7.44Z"/>
    <path class="cls-1" d="M46.13,15.45c-4.1,0-7.44,3.34-7.44,7.44,0,.39.31.7.7.7s.7-.31.7-.7c0-3.33,2.71-6.05,6.05-6.05s6.05,2.71,6.05,6.05c0,.39.31.7.7.7s.7-.31.7-.7c0-4.1-3.34-7.44-7.44-7.44Z"/>
    <path class="cls-1" d="M36.91,28.53c-.57.64-1.41,1.37-2.14,1.18-.56-.14-1.03-.76-1.39-1.45,1.34-.82,2.27-2.67,2.27-4.22,0-2.04-1.68-3.72-3.72-3.72s-3.72,1.68-3.72,3.72c0,1.52.96,3.33,2.28,4.17-.36.67-.82,1.26-1.37,1.4-.73.19-1.57-.54-2.14-1.18-.26-.29-.7-.31-.99-.06-.29.26-.31.7-.06.99,1,1.12,1.98,1.68,2.93,1.68.2,0,.4-.03.6-.08,1.1-.28,1.86-1.3,2.36-2.3.05,0,.1.01.15.01.01,0,.03,0,.04,0,.5,1.02,1.27,2.09,2.4,2.38.2.05.4.08.6.08.95,0,1.93-.56,2.93-1.68.26-.29.23-.73-.06-.99-.29-.26-.73-.23-.99.06Z"/>
  </g>
</svg>