<?xml version="1.0" encoding="UTF-8"?>
<svg id="Symbol" xmlns="http://www.w3.org/2000/svg" viewBox="0 0 64 64">
  <defs>
    <style>
      .cls-1 {
        fill: #dd4814;
      }
    </style>
  </defs>
  <g id="solid">
    <g>
      <path class="cls-1" d="M11.01,21.28c-6.07,0-11.01,4.94-11.01,11.01,0,.57.46,1.03,1.03,1.03s1.03-.46,1.03-1.03c0-4.93,4.01-8.94,8.94-8.94s8.94,4.01,8.94,8.94c0,.57.46,1.03,1.03,1.03s1.03-.46,1.03-1.03c0-6.07-4.94-11.01-11.01-11.01Z"/>
      <path class="cls-1" d="M52.99,21.41c-6.07,0-11.01,4.94-11.01,11.01,0,.57.46,1.03,1.03,1.03s1.03-.46,1.03-1.03c0-4.93,4.01-8.94,8.94-8.94s8.94,4.01,8.94,8.94c0,.57.46,1.03,1.03,1.03s1.03-.46,1.03-1.03c0-6.07-4.94-11.01-11.01-11.01Z"/>
      <path class="cls-1" d="M39.36,40.76c-.85.95-2.09,2.03-3.17,1.75-.83-.21-1.53-1.12-2.06-2.14,1.98-1.21,3.35-3.95,3.35-6.24,0-3.02-2.49-5.51-5.51-5.51s-5.51,2.49-5.51,5.51c0,2.24,1.41,4.93,3.38,6.17-.53.99-1.21,1.87-2.02,2.08-1.08.28-2.32-.8-3.17-1.75-.38-.43-1.03-.46-1.46-.08-.43.38-.46,1.03-.08,1.46,1.48,1.65,2.93,2.49,4.34,2.49.3,0,.6-.04.89-.11,1.63-.42,2.76-1.93,3.5-3.4.07,0,.15.02.22.02.02,0,.04,0,.07,0,.74,1.51,1.88,3.1,3.55,3.53.3.08.59.11.89.11,1.41,0,2.86-.83,4.34-2.49.38-.43.34-1.08-.08-1.46-.43-.38-1.08-.34-1.46.08Z"/>
    </g>
  </g>
</svg>