<?xml version="1.0" encoding="UTF-8"?>
<svg id="Outline" xmlns="http://www.w3.org/2000/svg" viewBox="0 0 64 64">
  <defs>
    <style>
      .cls-1 {
        fill: #dd4814;
      }
    </style>
  </defs>
  <g id="solid">
    <g>
      <path class="cls-1" d="M20.98,32.37c-.57,0-1.03-.46-1.03-1.03,0-4.93-4.01-8.94-8.94-8.94S2.07,26.41,2.07,31.34c0,.57-.46,1.03-1.03,1.03s-1.03-.46-1.03-1.03c0-6.07,4.94-11.01,11.01-11.01s11.01,4.94,11.01,11.01c0,.57-.46,1.03-1.03,1.03Z"/>
      <path class="cls-1" d="M62.97,32.5c-.57,0-1.03-.46-1.03-1.03,0-4.93-4.01-8.94-8.94-8.94s-8.94,4.01-8.94,8.94c0,.57-.46,1.03-1.03,1.03s-1.03-.46-1.03-1.03c0-6.07,4.94-11.01,11.01-11.01s11.01,4.94,11.01,11.01c0,.57-.46,1.03-1.03,1.03Z"/>
      <path class="cls-1" d="M40.81,39.73c-.43-.38-1.08-.34-1.46.08-.79.89-1.95,1.93-2.99,1.78-.67-.08-1.25-.64-1.7-1.29,2.29-1.38,3.85-4.41,3.85-7.12,0-3.61-2.93-6.54-6.54-6.54s-6.54,2.93-6.54,6.54c0,2.61,1.58,5.62,3.87,7.05-.45.62-1.01,1.15-1.67,1.23-1.04.12-2.19-.9-2.98-1.78-.38-.43-1.03-.46-1.46-.08-.43.38-.46,1.03-.08,1.46,1.47,1.65,2.93,2.49,4.34,2.49.14,0,.29,0,.43-.03,1.3-.16,2.44-1,3.4-2.51.25.04.51.07.78.07.21,0,.41-.02.61-.04.97,1.57,2.13,2.45,3.45,2.62.15.02.3.03.44.03,1.41,0,2.87-.83,4.34-2.49.38-.43.34-1.08-.08-1.46ZM27.49,33.18c0-2.47,2.01-4.48,4.48-4.48s4.48,2.01,4.48,4.48-2.07,5.82-4.4,5.82-4.55-3.28-4.55-5.82Z"/>
    </g>
  </g>
</svg>