<?xml version="1.0" encoding="UTF-8"?>
<svg id="Favicon" xmlns="http://www.w3.org/2000/svg" viewBox="0 0 64 64">
  <defs>
    <style>
      .cls-1 {
        fill: #fff;
      }

      .cls-2 {
        fill: #dd4814;
      }
    </style>
  </defs>
  <rect class="cls-2" width="64" height="64" rx="10" ry="10"/>
  <g>
    <path class="cls-1" d="M18.88,24.71c-3.79,0-6.88,3.09-6.88,6.88,0,.36.29.65.65.65s.65-.29.65-.65c0-3.08,2.51-5.59,5.59-5.59s5.59,2.51,5.59,5.59c0,.36.29.65.65.65s.65-.29.65-.65c0-3.79-3.09-6.88-6.88-6.88Z"/>
    <path class="cls-1" d="M45.12,24.79c-3.79,0-6.88,3.09-6.88,6.88,0,.36.29.65.65.65s.65-.29.65-.65c0-3.08,2.51-5.59,5.59-5.59s5.59,2.51,5.59,5.59c0,.36.29.65.65.65s.65-.29.65-.65c0-3.79-3.09-6.88-6.88-6.88Z"/>
    <path class="cls-1" d="M36.6,36.88c-.53.59-1.31,1.27-1.98,1.09-.52-.13-.95-.7-1.29-1.34,1.24-.75,2.1-2.47,2.1-3.9,0-1.89-1.55-3.44-3.44-3.44s-3.44,1.55-3.44,3.44c0,1.4.88,3.08,2.11,3.85-.33.62-.76,1.17-1.26,1.3-.68.17-1.45-.5-1.98-1.09-.24-.27-.65-.29-.91-.05-.27.24-.29.65-.05.91.92,1.03,1.83,1.55,2.71,1.55.19,0,.37-.02.56-.07,1.02-.26,1.72-1.21,2.19-2.13.05,0,.09.01.14.01.01,0,.03,0,.04,0,.46.95,1.18,1.93,2.22,2.2.18.05.37.07.56.07.88,0,1.79-.52,2.71-1.55.24-.27.21-.67-.05-.91-.27-.24-.68-.21-.91.05Z"/>
  </g>
</svg>