<?xml version="1.0" encoding="UTF-8"?>
<svg id="Text" xmlns="http://www.w3.org/2000/svg" viewBox="0 0 64 64">
  <defs>
    <style>
      .cls-1 {
        fill: #231f20;
      }
    </style>
  </defs>
  <g id="compound">
    <path class="cls-1" d="M0,32.74c0-.56.1-1.1.29-1.63.19-.53.47-1.02.84-1.46.37-.44.82-.79,1.36-1.05s1.15-.39,1.83-.39c.81,0,1.51.19,2.08.56.58.37,1,.85,1.28,1.43l-.71.44c-.2-.4-.44-.72-.74-.95-.3-.24-.62-.4-.96-.51s-.67-.15-1.01-.15c-.55,0-1.03.11-1.45.33s-.77.51-1.06.87c-.29.36-.5.77-.65,1.22-.15.45-.22.9-.22,1.36,0,.5.09.99.26,1.45.17.46.41.87.72,1.22.31.35.67.64,1.08.85s.87.31,1.35.31c.34,0,.69-.06,1.05-.18s.69-.3,1.01-.55.56-.57.75-.96l.74.38c-.19.45-.48.84-.87,1.15-.39.32-.83.56-1.31.72-.48.16-.96.24-1.42.24-.62,0-1.2-.13-1.72-.4-.52-.27-.97-.63-1.35-1.08-.38-.45-.67-.95-.88-1.51-.2-.56-.31-1.13-.31-1.7ZM9.4,37.37v-9.1h.9v9.1h-.9ZM16,39v-2.28h-4.27v-.77l4.55-5.9h.59v5.87h1.13v.8h-1.13v2.28h-.87ZM12.65,35.92h3.44v-4.5l-3.44,4.5ZM19.46,37.37v-9.1h6.06v1.27h-4.63v2.72h3.87v1.19h-3.87v3.92h-1.44ZM25.56,35.43c0-.42.12-.79.37-1.11.24-.32.58-.56,1-.74.43-.17.92-.26,1.49-.26.3,0,.6.02.92.06.31.04.59.11.83.2v-.42c0-.46-.14-.82-.42-1.09-.28-.26-.69-.39-1.22-.39-.38,0-.73.07-1.06.2-.33.13-.69.32-1.06.56l-.47-.95c.44-.3.89-.52,1.34-.67.45-.15.92-.22,1.42-.22.9,0,1.6.23,2.12.7s.78,1.13.78,2v2.47c0,.16.03.27.08.34.06.07.15.11.29.11v1.13c-.13.03-.24.04-.35.05-.1,0-.19.01-.26.01-.3,0-.53-.07-.68-.22-.15-.15-.24-.32-.27-.51l-.04-.38c-.29.38-.66.67-1.12.87-.45.2-.91.31-1.37.31s-.84-.09-1.19-.27c-.35-.18-.62-.43-.82-.74-.2-.31-.29-.66-.29-1.05ZM29.83,35.83c.1-.11.18-.22.24-.33.06-.11.09-.21.09-.29v-.76c-.24-.09-.49-.16-.76-.21-.27-.05-.53-.07-.78-.07-.51,0-.93.1-1.25.3-.32.2-.48.48-.48.83,0,.19.05.38.16.55s.26.32.46.43c.2.11.45.16.75.16s.6-.06.88-.18c.28-.12.51-.27.68-.45ZM34.91,37.37l-2.55-6.65h1.46l1.91,5.35,1.91-5.35h1.36l-2.55,6.65h-1.54ZM40.02,29.56v-1.55h1.41v1.55h-1.41ZM40.02,37.37v-6.7h1.41v6.7h-1.41ZM46.15,37.5c-.52,0-.99-.09-1.42-.27-.42-.18-.79-.43-1.1-.76-.31-.32-.54-.69-.71-1.11-.17-.41-.25-.85-.25-1.32,0-.63.14-1.2.43-1.71.29-.52.69-.93,1.21-1.24.52-.31,1.13-.47,1.84-.47s1.28.15,1.79.46c.51.3.88.71,1.12,1.21l-1.37.44c-.15-.28-.37-.5-.65-.66-.28-.16-.58-.24-.92-.24-.38,0-.72.09-1.02.28s-.54.45-.72.78-.26.72-.26,1.16.09.8.27,1.14.42.61.72.81c.3.2.64.3,1.02.3.23,0,.45-.04.67-.12.22-.08.41-.19.57-.33.16-.14.28-.3.35-.47l1.38.41c-.15.33-.36.63-.65.88-.29.26-.62.46-1.01.61s-.82.22-1.3.22ZM53.23,37.5c-.53,0-1-.09-1.42-.27-.42-.18-.78-.43-1.08-.76-.3-.32-.54-.69-.7-1.1-.16-.41-.24-.85-.24-1.31s.08-.91.24-1.32c.16-.41.4-.78.7-1.1.3-.32.67-.57,1.09-.75.42-.18.9-.27,1.42-.27s.99.09,1.42.27c.42.18.79.43,1.09.75s.54.68.7,1.1c.16.42.24.86.24,1.32s-.08.9-.24,1.31c-.16.41-.4.78-.7,1.1-.3.32-.67.57-1.09.76-.42.18-.9.27-1.42.27ZM51.23,34.07c0,.42.09.8.27,1.14s.42.6.72.8c.3.19.64.29,1.01.29s.7-.1,1.01-.3c.3-.2.54-.47.72-.81s.27-.72.27-1.13-.09-.8-.27-1.14c-.18-.34-.42-.6-.72-.8s-.64-.3-1.01-.3-.71.1-1.01.3c-.3.2-.54.47-.72.8-.18.33-.27.71-.27,1.14ZM63.95,37.37h-1.41v-3.71c0-.62-.1-1.07-.3-1.36s-.5-.43-.89-.43c-.27,0-.55.07-.81.2-.27.13-.51.32-.72.55-.21.23-.37.5-.46.8v3.95h-1.41v-6.65h1.28v1.34c.17-.3.39-.55.67-.77.28-.22.59-.38.94-.5.35-.12.72-.18,1.11-.18s.73.07.99.22.47.34.62.59c.15.25.25.54.31.86.06.33.08.67.08,1.03v4.05Z"/>
  </g>
</svg>