<?xml version="1.0" encoding="UTF-8"?>
<svg id="Favicon" xmlns="http://www.w3.org/2000/svg" viewBox="0 0 64 64">
  <defs>
    <style>
      .cls-1 {
        fill: #fff;
      }

      .cls-2 {
        fill: #dd4814;
      }
    </style>
  </defs>
  <rect class="cls-2" width="64" height="64" rx="10" ry="10"/>
  <g>
    <path class="cls-1" d="M15.85,23.02c-4.67,0-8.47,3.8-8.47,8.47,0,.44.36.79.79.79s.79-.36.79-.79c0-3.79,3.08-6.88,6.88-6.88s6.88,3.08,6.88,6.88c0,.44.36.79.79.79s.79-.36.79-.79c0-4.67-3.8-8.47-8.47-8.47Z"/>
    <path class="cls-1" d="M48.15,23.13c-4.67,0-8.47,3.8-8.47,8.47,0,.44.36.79.79.79s.79-.36.79-.79c0-3.79,3.08-6.88,6.88-6.88s6.88,3.08,6.88,6.88c0,.44.36.79.79.79s.79-.36.79-.79c0-4.67-3.8-8.47-8.47-8.47Z"/>
    <path class="cls-1" d="M37.66,38.01c-.65.73-1.61,1.56-2.44,1.35-.64-.16-1.18-.87-1.58-1.65,1.52-.93,2.58-3.04,2.58-4.8,0-2.32-1.91-4.24-4.24-4.24s-4.24,1.91-4.24,4.24c0,1.73,1.09,3.79,2.6,4.74-.41.76-.93,1.44-1.56,1.6-.83.21-1.79-.61-2.44-1.34-.29-.33-.79-.36-1.12-.06-.33.29-.36.79-.06,1.12,1.14,1.27,2.25,1.91,3.34,1.91.23,0,.46-.03.69-.09,1.25-.32,2.12-1.48,2.69-2.62.06,0,.11.01.17.01.02,0,.03,0,.05,0,.57,1.16,1.45,2.38,2.73,2.71.23.06.46.09.69.09,1.08,0,2.2-.64,3.34-1.91.29-.33.26-.83-.06-1.12-.33-.29-.83-.26-1.12.06Z"/>
  </g>
</svg>