<?xml version="1.0" encoding="UTF-8"?>
<svg id="Favicon" xmlns="http://www.w3.org/2000/svg" viewBox="0 0 64 64">
  <defs>
    <style>
      .cls-1 {
        fill: #231f20;
      }
    </style>
  </defs>
  <path class="cls-1" d="M54,0H10C4.48,0,0,4.48,0,10v44c0,5.52,4.48,10,10,10h44c5.52,0,10-4.48,10-10V10c0-5.52-4.48-10-10-10ZM25.11,32.23c-.36,0-.65-.29-.65-.65,0-3.08-2.51-5.59-5.59-5.59s-5.59,2.51-5.59,5.59c0,.36-.29.65-.65.65s-.65-.29-.65-.65c0-3.79,3.09-6.88,6.88-6.88s6.88,3.09,6.88,6.88c0,.36-.29.65-.65.65ZM37.56,37.74c-.92,1.03-1.83,1.55-2.71,1.55-.19,0-.37-.02-.56-.07-1.05-.27-1.76-1.26-2.22-2.2-.01,0-.03,0-.04,0-.05,0-.09,0-.14-.01-.46.92-1.17,1.87-2.19,2.13-.18.05-.37.07-.56.07-.88,0-1.79-.52-2.71-1.55-.24-.27-.21-.67.05-.91.27-.24.67-.21.91.05.53.59,1.3,1.27,1.98,1.09.51-.13.94-.68,1.26-1.3-1.23-.77-2.11-2.45-2.11-3.85,0-1.89,1.55-3.44,3.44-3.44s3.44,1.55,3.44,3.44c0,1.43-.86,3.14-2.1,3.9.33.64.77,1.21,1.29,1.34.68.17,1.45-.5,1.98-1.09.24-.27.64-.29.91-.05.27.24.29.65.05.91ZM51.35,32.31c-.36,0-.65-.29-.65-.65,0-3.08-2.51-5.59-5.59-5.59s-5.59,2.51-5.59,5.59c0,.36-.29.65-.65.65s-.65-.29-.65-.65c0-3.79,3.09-6.88,6.88-6.88s6.88,3.09,6.88,6.88c0,.36-.29.65-.65.65Z"/>
</svg>