<?xml version="1.0" encoding="UTF-8"?>
<svg id="Symbol" xmlns="http://www.w3.org/2000/svg" viewBox="0 0 64 64">
  <defs>
    <style>
      .cls-1 {
        fill: #231f20;
      }
    </style>
  </defs>
  <path class="cls-1" d="M46.63,50.1s0,0,0,0c-1.86,2.8-4.8,5.74-7.56,8.19-3.97,3.66-7.07,5.71-7.07,5.71,0,0-3.1-2.04-7.07-5.71-2.76-2.45-5.7-5.39-7.56-8.19,0,0,0,0,0,0-5.06-6.53-9.49-15.04-9.49-24.86,0-3.69,10.45-4.41,10.59-3.69,1.99,10.23,7.74,16.99,13.53,21.36,5.79-4.37,11.55-11.13,13.53-21.36.14-.72,10.59,0,10.59,3.69,0,9.82-4.43,18.33-9.49,24.86ZM32.37,17.81c4.92,0,8.91-3.99,8.91-8.91S37.29,0,32.37,0s-8.91,3.99-8.91,8.91,3.99,8.91,8.91,8.91Z"/>
</svg>