<?xml version="1.0" encoding="UTF-8"?>
<svg id="Outline" xmlns="http://www.w3.org/2000/svg" viewBox="0 0 64 64">
  <defs>
    <style>
      .cls-1 {
        fill: #231f20;
      }
    </style>
  </defs>
  <path class="cls-1" d="M56.48,25.54c0-3.97-6.54-4.91-8.54-5.11-2.52-.24-4.14-.11-4.41,1.31-1.47,7.57-5.33,13.89-11.48,18.83-5.02-4.02-9.85-10.03-11.55-18.83-.28-1.42-1.89-1.55-4.41-1.31-2.01.19-8.55,1.13-8.54,5.11.01,22.42,22.72,37.59,23.69,38.22.24.16.51.24.79.24.29,0,.58-.09.83-.27.41-.29,10-7.19,14.29-13.57,6.2-8.01,9.35-16.29,9.35-24.62ZM46.14,23.2c1.66-.04,5.46.49,7.02,1.71.2.16.45.4.45.62,0,7.42-2.76,14.85-8.19,22.11-1.84-.55-6.3-2.11-11.01-5.32,6.11-5.1,10.06-11.52,11.73-19.13ZM31.98,60.8c-4.01-2.91-21.58-16.69-21.59-35.26,0-.23.24-.46.45-.62,1.51-1.19,5.17-1.72,6.88-1.72.05,0,.09,0,.14,0,2.09,9.46,7.5,15.86,13,20.08,0,0,0,0,0,0,.15.2.35.33.57.43,4.8,3.56,9.58,5.49,12.2,6.37-3.58,4.49-9.5,9.11-11.65,10.72ZM32.35,19.88c5.48,0,9.94-4.46,9.94-9.94S37.83,0,32.35,0s-9.94,4.46-9.94,9.94,4.46,9.94,9.94,9.94ZM32.35,2.87c3.9,0,7.07,3.17,7.07,7.08s-3.17,7.07-7.07,7.07-7.08-3.17-7.08-7.07,3.17-7.08,7.08-7.08Z"/>
</svg>