<?xml version="1.0" encoding="UTF-8"?>
<svg id="Horizontal" xmlns="http://www.w3.org/2000/svg" xmlns:xlink="http://www.w3.org/1999/xlink" viewBox="0 0 64 64">
  <defs>
    <style>
      .cls-1 {
        fill: url(#linear-gradient-2);
      }

      .cls-2 {
        fill: url(#radial-gradient);
      }

      .cls-3 {
        fill: #454545;
      }

      .cls-4 {
        fill: url(#linear-gradient);
      }
    </style>
    <linearGradient id="linear-gradient" x1="1.72" y1="33.93" x2="8.73" y2="33.93" gradientUnits="userSpaceOnUse">
      <stop offset="0" stop-color="#3aa1f2"/>
      <stop offset="1" stop-color="#0b83e2"/>
    </linearGradient>
    <linearGradient id="linear-gradient-2" x1="0" y1="33.93" x2="7.01" y2="33.93" gradientUnits="userSpaceOnUse">
      <stop offset="0" stop-color="#5e04ea"/>
      <stop offset="1" stop-color="#8643f4"/>
    </linearGradient>
    <radialGradient id="radial-gradient" cx="4.43" cy="27.82" fx="4.43" fy="27.82" r="1.61" gradientUnits="userSpaceOnUse">
      <stop offset="0" stop-color="#c2c2c2"/>
      <stop offset="1" stop-color="#7a7a7a"/>
    </radialGradient>
  </defs>
  <path class="cls-3" d="M11.75,29.9v1.24h1.55c.09,0,.17.03.23.09.06.06.09.13.09.23s-.03.16-.09.21c-.06.05-.14.08-.23.08h-1.55v1.35h1.83c.09,0,.17.03.23.09.06.06.09.13.09.21,0,.09-.03.16-.09.22-.06.06-.14.08-.23.08h-2.17c-.09,0-.17-.03-.23-.09s-.09-.14-.09-.23v-3.76c0-.09.03-.17.09-.23s.14-.09.23-.09h2.17c.09,0,.17.03.23.09.06.06.09.13.09.22s-.03.16-.09.21c-.06.05-.14.08-.23.08h-1.83ZM17.53,29.96c.11.21.17.44.17.7s-.06.48-.17.69-.26.37-.45.5c-.19.12-.39.19-.62.19h-1.16v1.35c0,.09-.03.17-.08.23-.06.06-.13.09-.22.09s-.16-.03-.22-.09c-.06-.06-.08-.14-.08-.23v-3.76c0-.09.03-.17.09-.23s.14-.09.23-.09h1.45c.22,0,.43.06.62.18.19.12.34.28.45.49ZM17.06,30.66c0-.14-.03-.27-.08-.38-.06-.11-.13-.2-.22-.27-.09-.07-.19-.1-.3-.1h-1.16v1.53h1.16c.11,0,.21-.04.3-.11.09-.07.16-.17.22-.28.06-.12.08-.24.08-.38ZM20.3,31.18l1.46-1.39c.06-.06.09-.13.09-.2s-.03-.14-.08-.21c-.05-.07-.12-.1-.21-.1-.09,0-.18.04-.26.12l-2.18,2.12v-1.9c0-.09-.03-.17-.09-.23-.06-.06-.14-.09-.23-.09s-.18.03-.25.09c-.06.06-.09.14-.09.23v3.76c0,.09.03.17.09.23.06.06.14.09.24.09s.18-.03.24-.09c.06-.06.09-.14.09-.23v-1.08l.68-.65,1.5,1.93c.06.08.14.12.23.12.09,0,.17-.03.25-.09.08-.06.11-.14.11-.24,0-.08-.03-.15-.08-.22l-1.52-1.98ZM26.02,33.29s.03.08.03.13c0,.09-.03.17-.09.22-.06.06-.13.08-.2.08-.06,0-.12-.02-.17-.06-.05-.04-.09-.09-.12-.15l-.38-.89h-1.93l-.37.89c-.03.07-.06.12-.11.16-.05.04-.11.06-.17.06-.1,0-.17-.03-.21-.08-.05-.05-.07-.12-.07-.2,0-.03,0-.06.02-.1l1.6-3.86c.03-.07.07-.13.12-.16.06-.04.12-.05.19-.05.07,0,.13.02.18.06.05.04.09.09.12.16l1.58,3.81ZM24.83,32.01l-.72-1.69-.71,1.69h1.42ZM29.5,29.96c.11.21.17.44.17.7s-.06.48-.17.69-.26.37-.45.5c-.19.12-.39.19-.62.19h-1.16v1.35c0,.09-.03.17-.08.23-.06.06-.13.09-.22.09s-.16-.03-.22-.09c-.06-.06-.08-.14-.08-.23v-3.76c0-.09.03-.17.09-.23s.14-.09.23-.09h1.45c.22,0,.43.06.62.18.19.12.34.28.45.49ZM29.04,30.66c0-.14-.03-.27-.08-.38-.06-.11-.13-.2-.22-.27-.09-.07-.19-.1-.3-.1h-1.16v1.53h1.16c.11,0,.21-.04.3-.11.09-.07.16-.17.22-.28.06-.12.08-.24.08-.38ZM32.53,29.3c-.1,0-.18.03-.25.09-.06.06-.09.14-.09.23v3.76c0,.09.03.17.09.23.06.06.14.09.24.09.09,0,.16-.03.23-.09.06-.06.1-.14.1-.23v-3.76c0-.09-.03-.17-.1-.23-.07-.06-.14-.09-.22-.09ZM36.2,30.5c-.16-.12-.39-.19-.69-.19-.15,0-.29.02-.42.07s-.25.11-.35.2c-.1.08-.19.17-.27.26-.02.02-.03.04-.04.06v-.2c0-.09-.03-.17-.09-.23-.06-.06-.14-.09-.22-.09s-.17.03-.23.09-.09.14-.09.23v2.67c0,.09.03.17.09.23s.14.09.23.09.16-.03.22-.09c.06-.06.09-.14.09-.23v-1.68c0-.15.04-.29.11-.41.07-.12.18-.22.31-.29.13-.07.28-.11.45-.11.18,0,.33.04.43.11.1.07.17.17.21.29s.06.25.06.41v1.68c0,.09.03.17.09.23.06.06.14.09.23.09s.16-.03.22-.09c.06-.06.09-.14.09-.23v-1.69c0-.26-.03-.49-.1-.69s-.18-.37-.34-.5ZM40.45,29.13c.06.06.09.14.09.23v4.01c0,.09-.03.17-.09.23-.06.06-.13.09-.23.09s-.17-.03-.23-.09c-.06-.06-.09-.14-.09-.23v-.13c-.06.08-.12.15-.21.22-.1.09-.23.16-.37.21s-.3.08-.46.08c-.29,0-.55-.07-.78-.22-.23-.15-.41-.35-.55-.61-.13-.26-.2-.55-.2-.89s.07-.63.2-.89c.13-.26.32-.46.54-.61.23-.15.48-.22.76-.22.18,0,.35.03.5.09.15.06.29.13.4.23.06.05.12.1.16.16v-1.42c0-.09.03-.17.09-.23.06-.06.13-.09.23-.09s.17.03.23.09ZM39.94,32.04c0-.22-.04-.41-.13-.59-.08-.17-.2-.31-.35-.41s-.33-.15-.52-.15-.36.05-.51.15-.27.23-.35.41c-.09.17-.13.37-.13.59s.04.41.13.59c.09.17.2.31.35.41s.32.15.51.15.38-.05.53-.15.27-.24.35-.41.13-.37.13-.59ZM43.08,30.31c-.13,0-.25.02-.37.06s-.23.1-.32.18-.18.16-.25.26c-.04.06-.06.13-.09.19v-.3c0-.09-.03-.17-.09-.23-.06-.06-.14-.09-.22-.09s-.17.03-.23.09-.09.14-.09.23v2.67c0,.09.03.17.09.23s.14.09.23.09.16-.03.22-.09c.06-.06.09-.14.09-.23v-1.51c0-.15.02-.29.07-.41s.1-.23.18-.32.16-.16.25-.2c.09-.05.18-.07.27-.07.08,0,.15.01.21.04.06.03.12.04.18.04.07,0,.14-.03.2-.08.06-.05.09-.14.09-.25,0-.09-.04-.16-.12-.22-.08-.06-.17-.09-.28-.09ZM46.91,30.43c.06.06.09.14.09.23v2.72c0,.09-.03.17-.09.23-.06.06-.13.09-.23.09s-.17-.03-.23-.09c-.06-.06-.09-.14-.09-.23v-.13c-.06.07-.12.15-.21.22-.1.08-.23.15-.37.21s-.3.08-.46.08c-.29,0-.55-.07-.78-.22-.23-.15-.41-.35-.55-.61s-.2-.56-.2-.89.07-.64.2-.9c.13-.26.32-.46.54-.61.23-.15.48-.22.76-.22.18,0,.35.03.5.09.15.06.29.13.4.23.06.05.12.1.16.16v-.13c0-.09.03-.16.09-.23.06-.06.13-.09.23-.09s.17.03.23.09ZM46.4,32.04c0-.21-.04-.41-.13-.58s-.2-.31-.35-.41-.33-.15-.52-.15-.36.05-.51.15-.27.23-.35.41c-.09.17-.13.37-.13.59s.04.41.13.58c.09.17.2.31.35.41s.32.15.51.15.37-.05.52-.15.27-.24.35-.41c.08-.17.13-.37.13-.58ZM52.35,30.52c-.16-.12-.38-.19-.67-.19-.18,0-.34.04-.5.11-.16.07-.29.17-.4.28-.11.11-.19.21-.24.32-.06-.19-.15-.36-.28-.48-.17-.15-.41-.23-.72-.23-.15,0-.28.03-.41.08-.13.05-.24.12-.34.2-.1.08-.19.17-.25.26-.01.02-.01.03-.03.05v-.21c0-.09-.03-.17-.09-.23-.06-.06-.14-.09-.22-.09s-.17.03-.23.09-.09.14-.09.23v2.67c0,.09.03.17.09.23s.14.09.23.09.16-.03.22-.09c.06-.06.09-.14.09-.23v-1.67c0-.15.03-.28.1-.4.07-.12.17-.22.29-.29.13-.07.27-.11.43-.11.17,0,.31.04.4.11s.16.17.2.29c.04.12.06.25.06.4v1.67c0,.09.03.17.09.23.06.06.13.09.23.09s.17-.03.23-.09c.06-.06.09-.14.09-.23v-1.66c0-.15.04-.28.11-.4.07-.12.17-.22.3-.29.13-.07.27-.11.44-.11s.31.04.41.11.17.17.21.29c.04.12.06.26.06.4v1.66c0,.09.03.17.09.23.06.06.13.09.23.09s.17-.03.23-.09c.06-.06.09-.14.09-.23v-1.67c0-.26-.03-.49-.09-.7-.06-.21-.17-.37-.33-.5ZM56.6,30.43c.06.06.09.14.09.23v2.72c0,.09-.03.17-.09.23-.06.06-.13.09-.23.09s-.17-.03-.23-.09c-.06-.06-.09-.14-.09-.23v-.13c-.06.07-.12.15-.21.22-.1.08-.23.15-.37.21s-.3.08-.46.08c-.29,0-.55-.07-.78-.22-.23-.15-.41-.35-.55-.61s-.2-.56-.2-.89.07-.64.2-.9c.13-.26.32-.46.54-.61.23-.15.48-.22.76-.22.18,0,.35.03.5.09.15.06.29.13.4.23.06.05.12.1.16.16v-.13c0-.09.03-.16.09-.23.06-.06.13-.09.23-.09s.17.03.23.09ZM56.09,32.04c0-.21-.04-.41-.13-.58s-.2-.31-.35-.41-.33-.15-.52-.15-.36.05-.51.15-.27.23-.35.41c-.09.17-.13.37-.13.59s.04.41.13.58c.09.17.2.31.35.41s.32.15.51.15.37-.05.52-.15.27-.24.35-.41c.08-.17.13-.37.13-.58ZM60.02,30.36c-.09,0-.17.03-.23.09-.06.06-.09.14-.09.23v1.7c0,.16-.03.3-.1.42-.07.12-.16.21-.28.28s-.26.1-.42.1c-.24,0-.42-.06-.54-.19-.12-.13-.18-.33-.18-.61v-1.7c0-.09-.03-.17-.09-.23-.06-.06-.14-.09-.22-.09s-.17.03-.23.09-.09.14-.09.23v1.87c0,.23.05.44.14.63.09.18.22.33.38.43.17.1.36.15.59.15.18,0,.34-.03.49-.08.15-.05.28-.12.39-.21.06-.05.12-.11.17-.18v.12c0,.23-.04.41-.11.55s-.18.25-.32.31-.31.1-.52.1c-.15,0-.29-.02-.4-.07-.12-.05-.21-.08-.28-.11-.08-.03-.15-.03-.22,0-.07.04-.12.1-.15.2-.03.08-.02.15.02.22.04.07.11.13.21.17.1.05.22.08.37.11.15.03.3.04.45.04.3,0,.56-.05.8-.16.24-.11.43-.28.57-.51s.21-.53.21-.9v-2.71c0-.09-.03-.17-.09-.23-.06-.06-.13-.09-.23-.09ZM63.91,30.48c-.06-.06-.14-.09-.22-.09s-.17.03-.23.09-.09.14-.09.23v1.65c0,.27-.06.48-.19.61s-.32.2-.57.2-.44-.07-.56-.2c-.13-.13-.19-.34-.19-.61v-1.65c0-.09-.03-.17-.09-.23-.06-.06-.14-.09-.22-.09s-.17.03-.23.09-.09.14-.09.23v1.65c0,.44.12.78.36,1.02.24.25.58.37,1.03.37s.79-.12,1.03-.37c.24-.25.36-.59.36-1.02v-1.65c0-.09-.03-.17-.09-.23Z"/>
  <g id="Logo">
    <path class="cls-4" d="M1.72,35.27s4.28-.99,5.1-5.16c.03-.13,1.92,0,1.92.67,0,4.15-4.36,7.01-4.36,7.01,0,0-1.86-1.33-2.65-2.51Z"/>
    <path class="cls-1" d="M7.01,35.27s-4.28-.99-5.1-5.16C1.89,29.98,0,30.11,0,30.78c0,4.15,4.36,7.01,4.36,7.01,0,0,1.86-1.33,2.65-2.51Z"/>
    <circle class="cls-2" cx="4.43" cy="27.82" r="1.61"/>
  </g>
</svg>