<?xml version="1.0" encoding="UTF-8"?>
<svg id="Horizontal" xmlns="http://www.w3.org/2000/svg" viewBox="0 0 64 64">
  <defs>
    <style>
      .cls-1 {
        fill: #231f20;
      }
    </style>
  </defs>
  <path class="cls-1" d="M29.05,29.47c-.19-.12-.39-.18-.62-.18h-1.45c-.09,0-.17.03-.23.09s-.09.14-.09.23v3.76c0,.09.03.17.08.23.06.06.13.09.22.09s.17-.03.22-.09c.06-.06.09-.14.09-.23v-1.35h1.16c.22,0,.43-.06.62-.19.19-.12.34-.29.45-.5.11-.21.17-.44.17-.69s-.06-.49-.17-.7c-.11-.21-.26-.37-.45-.49ZM28.95,31.04c-.06.12-.13.21-.22.28-.09.07-.19.11-.3.11h-1.16v-1.53h1.16c.11,0,.21.03.3.1.09.07.16.16.22.27.06.11.08.24.08.38,0,.13-.03.26-.08.38ZM17.07,29.47c-.19-.12-.39-.18-.62-.18h-1.45c-.09,0-.17.03-.23.09s-.09.14-.09.23v3.76c0,.09.03.17.08.23.06.06.13.09.22.09s.17-.03.22-.09c.06-.06.08-.14.08-.23v-1.35h1.16c.22,0,.43-.06.62-.19.19-.12.34-.29.45-.5s.17-.44.17-.69-.06-.49-.17-.7c-.11-.21-.26-.37-.45-.49ZM16.98,31.04c-.06.12-.13.21-.22.28-.09.07-.19.11-.3.11h-1.16v-1.53h1.16c.11,0,.21.03.3.1.09.07.16.16.22.27.06.11.08.24.08.38,0,.13-.03.26-.08.38ZM24.45,29.48c-.03-.07-.07-.12-.12-.16-.05-.04-.12-.06-.18-.06-.07,0-.13.01-.19.05-.06.04-.1.09-.12.16l-1.6,3.86s-.02.07-.02.1c0,.08.02.15.07.2.05.05.12.08.21.08.06,0,.12-.02.17-.06.05-.04.09-.09.11-.16l.37-.89h1.93l.38.89c.03.06.06.11.12.15.05.04.11.06.17.06.08,0,.14-.03.2-.08.06-.06.09-.13.09-.22,0-.04,0-.08-.03-.13l-1.58-3.81ZM23.41,32.01l.71-1.69.72,1.69h-1.42ZM11.75,29.9v1.24h1.55c.09,0,.17.03.23.09.06.06.09.13.09.23s-.03.16-.09.21c-.06.05-.14.08-.23.08h-1.55v1.35h1.83c.09,0,.17.03.23.09.06.06.09.13.09.21,0,.09-.03.16-.09.22-.06.06-.14.08-.23.08h-2.17c-.09,0-.17-.03-.23-.09s-.09-.14-.09-.23v-3.76c0-.09.03-.17.09-.23s.14-.09.23-.09h2.17c.09,0,.17.03.23.09.06.06.09.13.09.22s-.03.16-.09.21c-.06.05-.14.08-.23.08h-1.83ZM32.75,29.39c.07.06.1.14.1.23v3.76c0,.09-.04.17-.1.23-.07.06-.14.09-.23.09-.1,0-.18-.03-.24-.09-.06-.06-.09-.14-.09-.23v-3.76c0-.09.03-.17.09-.23.06-.06.14-.09.25-.09.08,0,.16.03.22.09ZM21.82,33.16c.05.07.08.14.08.22,0,.1-.04.18-.11.24-.08.06-.16.09-.25.09-.1,0-.17-.04-.23-.12l-1.5-1.93-.68.65v1.08c0,.09-.04.17-.09.23-.06.06-.14.09-.24.09s-.18-.03-.24-.09c-.06-.06-.09-.14-.09-.23v-3.76c0-.09.03-.17.09-.23.06-.06.14-.09.25-.09s.17.03.23.09c.06.06.09.14.09.23v1.9l2.18-2.12c.08-.08.17-.12.26-.12.08,0,.15.03.21.1.05.07.08.14.08.21s-.03.14-.09.2l-1.46,1.39,1.52,1.98ZM56.37,30.34c-.09,0-.17.03-.23.09-.06.06-.09.14-.09.23v.13c-.05-.05-.1-.11-.16-.16-.11-.09-.25-.17-.4-.23-.15-.06-.32-.09-.5-.09-.28,0-.53.07-.76.22-.23.15-.41.35-.54.61-.13.26-.2.56-.2.9s.07.63.2.89c.13.26.32.46.55.61.23.15.49.22.78.22.16,0,.32-.03.46-.09.14-.06.27-.13.37-.21.08-.07.15-.14.21-.22v.13c0,.09.03.17.09.23.06.06.13.09.23.09s.17-.03.23-.09c.06-.06.09-.14.09-.23v-2.72c0-.09-.03-.17-.09-.23-.06-.06-.13-.09-.23-.09ZM55.96,32.62c-.08.17-.2.31-.35.41-.15.1-.33.15-.52.15s-.36-.05-.51-.15c-.15-.1-.27-.24-.35-.41-.09-.17-.13-.37-.13-.58s.04-.41.13-.59c.09-.17.2-.31.35-.41.15-.1.32-.15.51-.15s.37.05.52.15c.15.1.27.23.35.41.08.17.13.37.13.58s-.04.41-.13.58ZM52.68,31.02c.06.21.09.44.09.7v1.67c0,.09-.03.17-.09.23-.06.06-.13.09-.23.09s-.17-.03-.23-.09c-.06-.06-.09-.14-.09-.23v-1.66c0-.15-.02-.28-.06-.4-.04-.12-.11-.22-.21-.29-.1-.07-.23-.11-.41-.11s-.31.04-.44.11c-.13.07-.22.17-.3.29-.07.12-.11.26-.11.4v1.66c0,.09-.03.17-.09.23-.06.06-.13.09-.23.09s-.17-.03-.23-.09c-.06-.06-.09-.14-.09-.23v-1.67c0-.15-.02-.28-.06-.4-.04-.12-.11-.22-.2-.29-.1-.07-.23-.11-.4-.11s-.31.04-.43.11c-.13.07-.22.17-.29.29-.07.12-.1.25-.1.4v1.67c0,.09-.03.17-.09.23-.06.06-.14.09-.22.09s-.17-.03-.23-.09-.09-.14-.09-.23v-2.67c0-.09.03-.17.09-.23s.14-.09.23-.09.16.03.22.09c.06.06.09.14.09.23v.21s.01-.03.03-.05c.07-.1.15-.18.25-.26.1-.08.22-.14.34-.2.13-.05.26-.08.41-.08.31,0,.55.08.72.23.13.12.22.29.28.48.05-.11.13-.21.24-.32.11-.11.24-.2.4-.28.16-.07.32-.11.5-.11.29,0,.51.06.67.19.16.12.27.29.33.5ZM60.25,30.46c.06.06.09.14.09.23v2.71c0,.37-.07.67-.21.9-.14.23-.33.4-.57.51-.24.11-.5.16-.8.16-.15,0-.3-.01-.45-.04-.15-.03-.27-.06-.37-.11-.1-.05-.17-.1-.21-.17-.04-.07-.05-.14-.02-.22.03-.1.08-.17.15-.2.07-.04.14-.04.22,0,.07.03.17.07.28.11.12.05.25.07.4.07.21,0,.38-.03.52-.1.14-.07.25-.17.32-.31.08-.14.11-.33.11-.55v-.12c-.05.07-.1.13-.17.18-.11.09-.24.16-.39.21-.15.05-.31.08-.49.08-.23,0-.43-.05-.59-.15-.17-.1-.29-.25-.38-.43-.09-.18-.14-.39-.14-.63v-1.87c0-.09.03-.17.09-.23s.14-.09.23-.09.16.03.22.09c.06.06.09.14.09.23v1.7c0,.28.06.48.18.61.12.13.3.19.54.19.16,0,.3-.03.42-.1.12-.07.21-.16.28-.28.07-.12.1-.26.1-.42v-1.7c0-.09.03-.17.09-.23.06-.06.13-.09.23-.09s.17.03.23.09ZM64,30.71v1.65c0,.44-.12.78-.36,1.02-.24.25-.59.37-1.03.37s-.79-.12-1.03-.37c-.24-.25-.36-.59-.36-1.02v-1.65c0-.09.03-.17.09-.23s.14-.09.23-.09.16.03.22.09c.06.06.09.14.09.23v1.65c0,.27.06.48.19.61.13.13.32.2.56.2s.44-.07.57-.2c.13-.13.19-.34.19-.61v-1.65c0-.09.03-.17.09-.23s.14-.09.23-.09.16.03.22.09c.06.06.09.14.09.23ZM36.54,31c.07.21.1.44.1.69v1.69c0,.09-.03.17-.09.23-.06.06-.14.09-.22.09s-.17-.03-.23-.09c-.06-.06-.09-.14-.09-.23v-1.68c0-.15-.02-.29-.06-.41-.04-.12-.11-.21-.21-.29-.1-.07-.24-.11-.43-.11-.17,0-.32.04-.45.11-.13.07-.23.17-.31.29-.07.12-.11.25-.11.41v1.68c0,.09-.03.17-.09.23-.06.06-.14.09-.22.09s-.17-.03-.23-.09-.09-.14-.09-.23v-2.67c0-.09.03-.17.09-.23s.14-.09.23-.09.16.03.22.09c.06.06.09.14.09.23v.2s.02-.04.04-.06c.07-.09.16-.18.27-.26.1-.08.22-.15.35-.2.13-.05.27-.07.42-.07.3,0,.53.06.69.19.16.12.28.29.34.5ZM46.68,30.34c-.09,0-.17.03-.23.09-.06.06-.09.14-.09.23v.13c-.05-.05-.1-.11-.16-.16-.11-.09-.25-.17-.4-.23-.15-.06-.32-.09-.5-.09-.28,0-.53.07-.76.22-.23.15-.41.35-.54.61-.13.26-.2.56-.2.9s.07.63.2.89c.13.26.32.46.55.61.23.15.49.22.78.22.16,0,.32-.03.46-.09.14-.06.27-.13.37-.21.08-.07.15-.14.21-.22v.13c0,.09.03.17.09.23.06.06.13.09.23.09s.17-.03.23-.09c.06-.06.09-.14.09-.23v-2.72c0-.09-.03-.17-.09-.23-.06-.06-.13-.09-.23-.09ZM46.27,32.62c-.08.17-.2.31-.35.41-.15.1-.33.15-.52.15s-.36-.05-.51-.15c-.15-.1-.27-.24-.35-.41-.09-.17-.13-.37-.13-.58s.04-.41.13-.59c.09-.17.2-.31.35-.41.15-.1.32-.15.51-.15s.37.05.52.15c.15.1.27.23.35.41.08.17.13.37.13.58s-.04.41-.13.58ZM40.22,29.04c-.09,0-.17.03-.23.09-.06.06-.09.14-.09.23v1.42c-.05-.05-.1-.11-.16-.16-.11-.09-.25-.17-.4-.23-.15-.06-.32-.09-.5-.09-.28,0-.53.07-.76.22-.23.15-.41.35-.54.61-.13.26-.2.55-.2.89s.07.63.2.89c.13.26.32.46.55.61.23.15.49.22.78.22.16,0,.32-.03.46-.09.14-.06.27-.13.37-.21.08-.07.15-.14.21-.22v.13c0,.09.03.17.09.23.06.06.13.09.23.09s.17-.03.23-.09c.06-.06.09-.14.09-.23v-4.01c0-.09-.03-.17-.09-.23-.06-.06-.13-.09-.23-.09ZM39.81,32.62c-.08.17-.2.31-.35.41-.15.1-.32.15-.53.15s-.36-.05-.51-.15c-.15-.1-.27-.24-.35-.41-.09-.17-.13-.37-.13-.59s.04-.41.13-.59c.09-.17.2-.31.35-.41.15-.1.32-.15.51-.15s.37.05.52.15c.15.1.27.23.35.41.08.17.13.37.13.59s-.04.41-.13.59ZM43.37,30.4c.08.06.12.13.12.22,0,.11-.03.2-.09.25-.06.05-.12.08-.2.08-.06,0-.12-.01-.18-.04-.06-.03-.13-.04-.21-.04-.09,0-.18.02-.27.07-.09.05-.18.11-.25.2-.08.09-.14.2-.18.32s-.07.26-.07.41v1.51c0,.09-.03.17-.09.23-.06.06-.14.09-.22.09s-.17-.03-.23-.09-.09-.14-.09-.23v-2.67c0-.09.03-.17.09-.23s.14-.09.23-.09.16.03.22.09c.06.06.09.14.09.23v.3c.03-.07.05-.13.09-.19.07-.1.15-.19.25-.26s.2-.13.32-.18c.12-.04.24-.06.37-.06.11,0,.2.03.28.09ZM8.73,30.78c0,1.78-.8,3.32-1.72,4.5,0,0,0,0,0,0-.32.48-.81.98-1.29,1.41-.76.71-1.36,1.1-1.36,1.1,0,0-.6-.4-1.36-1.1-.48-.43-.97-.93-1.29-1.41,0,0,0,0,0,0-.92-1.18-1.72-2.72-1.72-4.5,0-.67,1.89-.8,1.92-.67.36,1.85,1.4,3.07,2.45,3.86,1.05-.79,2.09-2.01,2.45-3.86.03-.13,1.92,0,1.92.67ZM2.82,27.82c0-.89.72-1.61,1.61-1.61s1.61.72,1.61,1.61-.72,1.61-1.61,1.61-1.61-.72-1.61-1.61Z"/>
</svg>