<?xml version="1.0" encoding="UTF-8"?>
<svg id="Favicon" xmlns="http://www.w3.org/2000/svg" xmlns:xlink="http://www.w3.org/1999/xlink" viewBox="0 0 64 64">
  <defs>
    <style>
      .cls-1 {
        fill: url(#linear-gradient-2);
      }

      .cls-2 {
        fill: #fff;
      }

      .cls-3 {
        fill: url(#radial-gradient);
      }

      .cls-4 {
        fill: url(#linear-gradient);
      }
    </style>
    <linearGradient id="linear-gradient" x1="22.85" y1="38.66" x2="47.08" y2="38.66" gradientUnits="userSpaceOnUse">
      <stop offset="0" stop-color="#3aa1f2"/>
      <stop offset="1" stop-color="#0b83e2"/>
    </linearGradient>
    <linearGradient id="linear-gradient-2" x1="16.92" y1="38.66" x2="41.15" y2="38.66" gradientUnits="userSpaceOnUse">
      <stop offset="0" stop-color="#5e04ea"/>
      <stop offset="1" stop-color="#8643f4"/>
    </linearGradient>
    <radialGradient id="radial-gradient" cx="32.23" cy="17.57" fx="32.23" fy="17.57" r="5.57" gradientUnits="userSpaceOnUse">
      <stop offset="0" stop-color="#c2c2c2"/>
      <stop offset="1" stop-color="#7a7a7a"/>
    </radialGradient>
  </defs>
  <rect class="cls-2" width="64" height="64" rx="10" ry="10"/>
  <g id="Logo">
    <path class="cls-4" d="M22.85,43.31s14.8-3.41,17.61-17.84c.09-.45,6.62,0,6.62,2.3,0,14.33-15.08,24.23-15.08,24.23,0,0-6.42-4.59-9.15-8.69Z"/>
    <path class="cls-1" d="M41.15,43.31s-14.8-3.41-17.61-17.84c-.09-.45-6.62,0-6.62,2.3,0,14.33,15.08,24.23,15.08,24.23,0,0,6.42-4.59,9.15-8.69Z"/>
    <circle class="cls-3" cx="32.23" cy="17.57" r="5.57"/>
  </g>
</svg>