<?xml version="1.0" encoding="UTF-8"?>
<svg id="Favicon" xmlns="http://www.w3.org/2000/svg" viewBox="0 0 64 64">
  <defs>
    <style>
      .cls-1 {
        fill: #231f20;
      }
    </style>
  </defs>
  <path class="cls-1" d="M54,0H10C4.48,0,0,4.48,0,10v44c0,5.52,4.48,10,10,10h44c5.52,0,10-4.48,10-10V10c0-5.52-4.48-10-10-10ZM32.23,12c3.07,0,5.57,2.49,5.57,5.57s-2.49,5.57-5.57,5.57-5.57-2.49-5.57-5.57,2.49-5.57,5.57-5.57ZM41.15,43.31c-1.15,1.73-2.96,3.54-4.67,5.07-2.51,2.32-4.48,3.62-4.48,3.62,0,0-1.97-1.3-4.48-3.62-1.71-1.52-3.52-3.34-4.67-5.07h0c-3.16-4.08-5.93-9.4-5.93-15.54,0-2.3,6.53-2.76,6.62-2.3,1.24,6.39,4.84,10.62,8.46,13.35,3.62-2.73,7.22-6.96,8.46-13.35.09-.45,6.62,0,6.62,2.3,0,6.14-2.77,11.46-5.93,15.54h0Z"/>
</svg>