<?xml version="1.0" encoding="UTF-8"?>
<svg id="Text" xmlns="http://www.w3.org/2000/svg" viewBox="0 0 64 64">
  <defs>
    <style>
      .cls-1 {
        fill: #231f20;
      }
    </style>
  </defs>
  <path class="cls-1" d="M.8,29.46v1.5h1.87c.11,0,.2.04.28.11.07.07.11.16.11.27s-.04.19-.11.26c-.07.07-.17.1-.28.1H.8v1.63h2.21c.11,0,.2.04.28.11.07.07.11.16.11.25,0,.11-.04.19-.11.26-.07.07-.17.1-.28.1H.39c-.11,0-.2-.04-.28-.11s-.11-.17-.11-.28v-4.55c0-.11.04-.2.11-.28s.17-.11.28-.11h2.63c.11,0,.2.04.28.11.07.07.11.16.11.27s-.04.19-.11.26c-.07.07-.17.1-.28.1H.8ZM7.78,29.53c.14.25.21.53.21.84s-.07.58-.21.83-.32.45-.55.6c-.23.15-.48.22-.75.22h-1.41v1.63c0,.11-.03.2-.1.28-.07.07-.16.11-.27.11s-.19-.04-.26-.11c-.07-.07-.1-.17-.1-.28v-4.55c0-.11.04-.2.11-.28s.17-.11.28-.11h1.76c.27,0,.52.07.75.22.23.14.41.34.55.59ZM7.22,30.38c0-.17-.03-.33-.1-.46-.07-.14-.16-.25-.27-.33-.11-.08-.23-.13-.36-.13h-1.41v1.85h1.41c.13,0,.25-.04.36-.13.11-.09.2-.2.27-.34.07-.14.1-.29.1-.46ZM11.14,31.01l1.77-1.68c.08-.08.11-.16.11-.24s-.03-.17-.1-.25c-.07-.08-.15-.13-.25-.13-.11,0-.22.05-.31.14l-2.64,2.56v-2.29c0-.11-.04-.2-.11-.28-.07-.07-.17-.11-.28-.11s-.22.04-.3.11c-.08.07-.11.17-.11.28v4.55c0,.11.04.2.11.28.07.07.17.11.29.11s.22-.04.29-.11c.07-.07.11-.17.11-.28v-1.3l.82-.78,1.81,2.34c.07.1.17.14.28.14.11,0,.21-.04.3-.11.09-.07.14-.17.14-.29,0-.1-.03-.19-.09-.27l-1.83-2.39ZM18.06,33.56c.02.05.03.1.03.15,0,.11-.04.2-.11.27-.07.07-.16.1-.25.1-.08,0-.15-.02-.21-.07-.06-.05-.11-.11-.14-.19l-.46-1.08h-2.33l-.45,1.08c-.03.08-.08.14-.14.19-.06.05-.13.07-.21.07-.12,0-.2-.03-.26-.1-.06-.06-.08-.14-.08-.24,0-.04,0-.08.02-.12l1.93-4.67c.03-.09.08-.15.15-.2.07-.05.14-.07.22-.06.08,0,.15.02.22.07.07.05.11.11.14.19l1.91,4.6ZM16.62,32.02l-.87-2.05-.85,2.05h1.72ZM22.27,29.53c.14.25.21.53.21.84s-.07.58-.21.83-.32.45-.55.6c-.23.15-.48.22-.75.22h-1.41v1.63c0,.11-.03.2-.1.28-.07.07-.16.11-.27.11s-.19-.04-.26-.11c-.07-.07-.1-.17-.1-.28v-4.55c0-.11.04-.2.11-.28s.17-.11.28-.11h1.76c.27,0,.52.07.75.22.23.14.41.34.55.59ZM21.71,30.38c0-.17-.03-.33-.1-.46-.07-.14-.16-.25-.27-.33-.11-.08-.23-.13-.36-.13h-1.41v1.85h1.41c.13,0,.25-.04.36-.13.11-.09.2-.2.27-.34.07-.14.1-.29.1-.46ZM25.93,28.73c-.12,0-.22.04-.3.11-.08.07-.11.17-.11.28v4.55c0,.11.04.2.11.28.07.07.17.11.29.11.11,0,.2-.04.28-.11.08-.07.12-.17.13-.28v-4.55c0-.11-.04-.2-.12-.28-.08-.07-.17-.11-.27-.11ZM30.37,30.19c-.2-.15-.48-.22-.84-.22-.18,0-.34.03-.5.09s-.3.14-.43.24c-.13.1-.23.21-.32.32-.02.02-.03.05-.05.07v-.24c0-.11-.04-.2-.11-.28-.07-.07-.16-.11-.27-.11s-.2.04-.28.11-.11.17-.11.28v3.23c0,.11.04.2.11.28s.17.11.28.11.2-.04.27-.11c.07-.07.11-.17.11-.28v-2.03c0-.18.04-.35.13-.49.09-.14.21-.26.37-.35.16-.09.34-.13.55-.13.22,0,.4.04.52.13.12.09.21.2.26.35s.08.31.08.49v2.03c0,.11.04.2.11.28.07.07.17.11.28.11s.2-.04.27-.11c.07-.07.11-.17.11-.28v-2.04c0-.31-.04-.59-.12-.84s-.22-.45-.41-.6ZM35.51,28.53c.07.07.11.17.11.28v4.85c0,.11-.04.2-.11.28-.07.07-.16.11-.27.11s-.2-.04-.27-.11c-.07-.07-.11-.17-.11-.28v-.16c-.07.09-.15.18-.25.26-.13.1-.28.19-.45.26s-.36.1-.56.1c-.35,0-.66-.09-.94-.27-.28-.18-.5-.43-.66-.74-.16-.31-.24-.67-.24-1.08s.08-.76.24-1.08c.16-.31.38-.56.66-.74.28-.18.58-.27.92-.27.22,0,.42.04.6.11.19.07.35.16.48.27.08.06.14.13.2.19v-1.72c0-.11.04-.2.11-.28.07-.07.16-.11.27-.11s.2.04.27.11ZM34.9,32.05c0-.26-.05-.5-.15-.71-.1-.21-.24-.37-.43-.49s-.39-.18-.63-.18-.44.06-.62.18-.32.28-.43.49c-.1.21-.16.44-.16.71s.05.5.16.71c.1.21.25.37.43.49s.39.18.62.18.46-.06.64-.18.32-.29.42-.49.15-.44.15-.71ZM38.7,29.96c-.16,0-.31.03-.45.08s-.28.12-.39.21-.22.2-.3.32c-.05.07-.08.15-.11.23v-.36c0-.11-.04-.2-.11-.28-.07-.07-.16-.11-.27-.11s-.2.04-.28.11-.11.17-.11.28v3.23c0,.11.04.2.11.28s.17.11.28.11.2-.04.27-.11c.07-.07.11-.17.11-.28v-1.83c0-.18.03-.35.08-.49s.13-.28.22-.38.19-.19.3-.25c.11-.06.22-.08.33-.08.1,0,.18.02.25.05.07.03.14.05.22.05.09,0,.16-.03.24-.1.07-.06.11-.16.11-.3,0-.11-.05-.2-.14-.27-.1-.07-.21-.11-.34-.11ZM43.33,30.1c.07.07.11.17.11.28v3.29c0,.11-.04.2-.11.28-.07.07-.16.11-.27.11s-.2-.04-.27-.11c-.07-.07-.11-.17-.11-.28v-.15c-.07.09-.15.18-.25.26-.13.1-.28.19-.45.25s-.36.1-.56.1c-.35,0-.66-.09-.94-.27-.28-.18-.5-.43-.66-.74s-.24-.67-.24-1.07.08-.77.24-1.08c.16-.31.38-.56.66-.73.28-.18.58-.27.92-.27.22,0,.42.04.6.11.19.07.35.16.48.27.08.06.14.13.2.19v-.15c0-.11.04-.2.11-.27.07-.08.16-.11.27-.11s.2.04.27.11ZM42.71,32.05c0-.26-.05-.49-.15-.7s-.24-.38-.43-.49-.39-.18-.63-.18-.44.06-.62.18-.32.28-.43.49c-.1.21-.16.44-.16.71s.05.49.16.7c.1.21.25.38.43.5s.39.18.62.18.45-.06.63-.18.32-.29.43-.5c.1-.21.15-.44.15-.7ZM49.91,30.21c-.19-.15-.46-.22-.81-.22-.21,0-.41.04-.6.13-.19.09-.35.2-.48.33-.13.13-.23.26-.29.39-.07-.23-.18-.43-.34-.58-.2-.19-.49-.28-.87-.28-.18,0-.34.03-.49.09-.15.06-.29.14-.41.24-.12.1-.23.2-.31.32-.01.02-.02.04-.03.06v-.25c0-.11-.04-.2-.11-.28-.07-.07-.16-.11-.27-.11s-.2.04-.28.11-.11.17-.11.28v3.23c0,.11.04.2.11.28s.17.11.28.11.2-.04.27-.11c.07-.07.11-.17.11-.28v-2.02c0-.18.04-.34.13-.48.08-.14.2-.26.35-.35.15-.09.33-.13.53-.13.21,0,.37.04.49.13s.2.21.25.35c.05.14.07.31.07.48v2.02c0,.11.04.2.11.28.07.07.16.11.27.11s.2-.04.27-.11c.07-.07.11-.17.11-.28v-2.01c0-.18.04-.34.13-.49.09-.15.21-.27.36-.35.15-.09.33-.13.53-.13s.37.04.49.13.2.21.25.35c.05.15.07.31.07.49v2.01c0,.11.04.2.11.28.07.07.16.11.27.11s.2-.04.27-.11c.07-.07.11-.17.11-.28v-2.02c0-.31-.04-.59-.11-.84-.08-.25-.21-.45-.4-.6ZM55.04,30.1c.07.07.11.17.11.28v3.29c0,.11-.04.2-.11.28-.07.07-.16.11-.27.11s-.2-.04-.27-.11c-.07-.07-.11-.17-.11-.28v-.15c-.07.09-.15.18-.25.26-.13.1-.28.19-.45.25s-.36.1-.56.1c-.35,0-.66-.09-.94-.27-.28-.18-.5-.43-.66-.74s-.24-.67-.24-1.07.08-.77.24-1.08c.16-.31.38-.56.66-.73.28-.18.58-.27.92-.27.22,0,.42.04.6.11.19.07.35.16.48.27.08.06.14.13.2.19v-.15c0-.11.04-.2.11-.27.07-.08.16-.11.27-.11s.2.04.27.11ZM54.43,32.05c0-.26-.05-.49-.15-.7s-.24-.38-.43-.49-.39-.18-.63-.18-.44.06-.62.18-.32.28-.43.49c-.1.21-.16.44-.16.71s.05.49.16.7c.1.21.25.38.43.5s.39.18.62.18.45-.06.63-.18.32-.29.43-.5c.1-.21.15-.44.15-.7ZM59.19,30.02c-.11,0-.2.04-.27.11-.07.07-.11.17-.11.28v2.05c0,.19-.04.36-.12.51-.08.14-.19.26-.34.34s-.31.12-.5.12c-.29,0-.51-.08-.65-.23-.15-.15-.22-.4-.22-.73v-2.05c0-.11-.04-.2-.11-.28-.07-.07-.16-.11-.27-.11s-.2.04-.28.11-.11.17-.11.28v2.26c0,.28.05.54.16.76.11.22.26.39.46.52.2.12.44.19.72.19.22,0,.42-.03.59-.09.18-.06.33-.15.47-.26.08-.06.14-.14.2-.22v.14c0,.27-.05.5-.14.67s-.22.3-.39.38-.38.12-.63.12c-.18,0-.35-.03-.49-.08-.14-.06-.26-.1-.34-.14-.09-.04-.18-.03-.27.01-.09.04-.15.13-.18.25-.04.1-.03.19.02.27.05.08.14.15.26.21.12.06.27.1.45.13.18.03.37.05.55.05.36,0,.68-.06.97-.19.29-.13.51-.33.68-.61s.25-.64.25-1.09v-3.27c0-.11-.04-.2-.11-.28-.07-.07-.16-.11-.27-.11ZM63.89,30.16c-.07-.07-.16-.11-.27-.11s-.2.04-.28.11-.11.17-.11.28v2c0,.33-.08.58-.23.74s-.38.24-.69.24-.53-.08-.68-.24c-.15-.16-.23-.41-.23-.74v-2c0-.11-.04-.2-.11-.28-.07-.07-.16-.11-.27-.11s-.2.04-.28.11-.11.17-.11.28v2c0,.53.15.94.44,1.24.29.3.71.45,1.24.45s.95-.15,1.25-.45c.29-.3.44-.71.44-1.24v-2c0-.11-.04-.2-.11-.28Z"/>
</svg>