<?xml version="1.0" encoding="UTF-8"?>
<svg id="Vertical" xmlns="http://www.w3.org/2000/svg" viewBox="0 0 64 64">
  <defs>
    <style>
      .cls-1 {
        fill: #231f20;
      }
    </style>
  </defs>
  <path class="cls-1" d="M21.72,40.5c-.23-.14-.48-.22-.75-.22h-1.76c-.11,0-.2.04-.28.11s-.11.17-.11.28v4.55c0,.11.03.2.1.28.07.07.16.11.26.11s.2-.04.27-.11c.07-.07.1-.17.1-.28v-1.63h1.41c.27,0,.52-.07.75-.22.23-.15.41-.35.55-.6s.21-.53.21-.83-.07-.6-.21-.84c-.14-.25-.32-.45-.55-.59ZM21.61,42.39c-.07.14-.16.26-.27.34-.11.09-.23.13-.36.13h-1.41v-1.85h1.41c.13,0,.25.04.36.13.11.08.2.19.27.33.07.14.1.29.1.46,0,.16-.03.31-.1.46ZM16.15,40.51c-.03-.08-.08-.14-.14-.19-.07-.05-.14-.07-.22-.07-.08,0-.16.02-.22.06-.07.05-.12.11-.15.2l-1.93,4.67s-.02.09-.02.12c0,.1.03.18.08.24.06.06.14.1.26.1.08,0,.14-.02.21-.07.06-.05.11-.11.14-.19l.45-1.08h2.33l.46,1.08c.03.08.08.14.14.19.06.05.13.07.21.07.09,0,.17-.03.25-.1.07-.07.11-.16.11-.27,0-.05-.01-.1-.03-.15l-1.91-4.6ZM14.9,43.57l.85-2.05.87,2.05h-1.72ZM7.24,40.5c-.23-.14-.48-.22-.75-.22h-1.76c-.11,0-.2.04-.28.11s-.11.17-.11.28v4.55c0,.11.03.2.1.28.07.07.16.11.26.11s.2-.04.27-.11c.07-.07.1-.17.1-.28v-1.63h1.41c.27,0,.52-.07.75-.22.23-.15.41-.35.55-.6.14-.25.21-.53.21-.83s-.07-.6-.21-.84c-.14-.25-.32-.45-.55-.59ZM7.12,42.39c-.07.14-.16.26-.27.34-.11.09-.23.13-.36.13h-1.41v-1.85h1.41c.13,0,.25.04.36.13.11.08.2.19.27.33.07.14.1.29.1.46,0,.16-.03.31-.1.46ZM12.97,44.95c.06.08.09.17.09.27,0,.12-.05.22-.14.29-.09.07-.19.11-.3.11-.12,0-.21-.05-.28-.14l-1.81-2.34-.82.78v1.3c0,.11-.04.2-.11.28-.07.07-.17.11-.29.11s-.22-.04-.29-.11c-.07-.07-.11-.17-.11-.28v-4.55c0-.11.04-.2.11-.28.08-.07.18-.11.3-.11s.21.04.28.11c.07.07.11.17.11.28v2.29l2.64-2.56c.1-.1.2-.14.31-.14.1,0,.19.04.25.13.07.08.1.17.1.25s-.04.17-.11.24l-1.77,1.68,1.83,2.39ZM.8,41.01v1.5h1.87c.11,0,.2.04.28.11.07.07.11.16.11.27s-.04.19-.11.26c-.07.07-.17.1-.28.1H.8v1.63h2.21c.11,0,.2.04.28.11.07.07.11.16.11.25,0,.11-.04.19-.11.26-.07.07-.17.1-.28.1H.39c-.11,0-.2-.04-.28-.11s-.11-.17-.11-.28v-4.55c0-.11.04-.2.11-.28s.17-.11.28-.11h2.63c.11,0,.2.04.28.11.07.07.11.16.11.27s-.04.19-.11.26c-.07.07-.17.1-.28.1H.8ZM26.2,40.39c.08.07.12.17.12.28v4.55c0,.11-.05.2-.13.28-.08.07-.17.11-.28.11-.12,0-.22-.04-.29-.11-.07-.07-.11-.17-.11-.28v-4.55c0-.11.04-.2.11-.28.08-.07.18-.11.3-.11.1,0,.19.04.27.11ZM64,41.99v2c0,.53-.15.94-.44,1.24-.29.3-.71.45-1.25.45s-.95-.15-1.24-.45c-.29-.3-.44-.71-.44-1.24v-2c0-.11.04-.2.11-.28s.17-.11.28-.11.2.04.27.11c.07.07.11.17.11.28v2c0,.33.08.58.23.74.15.16.38.24.68.24s.53-.08.69-.24c.15-.16.23-.41.23-.74v-2c0-.11.04-.2.11-.28.07-.07.17-.11.28-.11s.2.04.27.11c.07.07.11.17.11.28ZM50.31,42.36c.08.25.11.53.11.84v2.02c0,.11-.04.2-.11.28-.07.07-.16.11-.27.11s-.2-.04-.27-.11c-.07-.07-.11-.17-.11-.28v-2.01c0-.18-.02-.34-.07-.49-.05-.15-.13-.27-.25-.35s-.28-.13-.49-.13-.38.04-.53.13c-.15.09-.27.21-.36.35-.09.15-.13.31-.13.49v2.01c0,.11-.04.2-.11.28-.07.07-.16.11-.27.11s-.2-.04-.27-.11c-.07-.07-.11-.17-.11-.28v-2.02c0-.18-.02-.34-.07-.48-.05-.14-.13-.26-.25-.35s-.28-.13-.49-.13-.37.04-.53.13c-.15.09-.27.21-.35.35-.08.14-.13.31-.13.48v2.02c0,.11-.04.2-.11.28-.07.07-.16.11-.27.11s-.2-.04-.28-.11c-.07-.07-.11-.17-.11-.28v-3.23c0-.11.04-.2.11-.28s.17-.11.28-.11.2.04.27.11c.07.07.11.17.11.28v.25s.02-.04.03-.06c.08-.12.18-.22.31-.32.12-.1.26-.18.41-.24.15-.06.32-.09.49-.09.38,0,.66.09.87.28.16.15.27.35.34.58.07-.13.16-.26.29-.39.13-.13.3-.25.48-.33.19-.09.39-.13.6-.13.35,0,.62.07.81.22.19.15.33.35.4.6ZM54.77,41.54c-.11,0-.2.04-.27.11-.07.08-.11.17-.11.27v.15c-.06-.07-.12-.13-.2-.19-.14-.11-.3-.2-.48-.27-.19-.07-.39-.11-.6-.11-.33,0-.64.09-.92.27-.28.18-.5.42-.66.73-.16.31-.24.67-.24,1.08s.08.76.24,1.07.38.56.66.74c.28.18.59.27.94.27.2,0,.38-.03.56-.1.17-.07.32-.15.45-.25.1-.08.18-.17.25-.26v.15c0,.11.04.2.11.28.07.07.16.11.27.11s.2-.04.27-.11c.07-.07.11-.17.11-.28v-3.29c0-.11-.04-.2-.11-.28-.07-.07-.16-.11-.27-.11ZM54.28,44.3c-.1.21-.24.38-.43.5-.18.12-.39.18-.63.18s-.44-.06-.62-.18c-.18-.12-.32-.29-.43-.5-.1-.21-.16-.44-.16-.7s.05-.5.16-.71c.1-.21.25-.37.43-.49.18-.12.39-.18.62-.18s.45.06.63.18c.18.12.32.28.43.49.1.21.15.44.15.7s-.05.49-.15.7ZM59.46,41.69c.07.07.11.17.11.28v3.27c0,.45-.08.81-.25,1.09s-.4.48-.68.61c-.29.13-.61.19-.97.19-.18,0-.37-.02-.55-.05-.18-.03-.33-.08-.45-.13-.12-.06-.21-.13-.26-.21-.05-.08-.06-.17-.02-.27.04-.12.1-.2.18-.25.09-.04.17-.05.27-.01.09.04.2.08.34.14.14.06.3.08.49.08.25,0,.46-.04.63-.12.17-.08.3-.21.39-.38s.14-.4.14-.67v-.14c-.06.08-.12.15-.2.22-.13.11-.29.2-.47.26-.18.06-.38.09-.59.09-.28,0-.52-.06-.72-.19-.2-.12-.36-.3-.46-.52-.11-.22-.16-.47-.16-.76v-2.26c0-.11.04-.2.11-.28.07-.07.17-.11.28-.11s.2.04.27.11c.07.07.11.17.11.28v2.05c0,.33.07.58.22.73.15.15.37.23.65.23.19,0,.36-.04.5-.12s.25-.19.34-.34c.08-.14.12-.31.12-.51v-2.05c0-.11.04-.2.11-.28.07-.07.16-.11.27-.11s.2.04.27.11ZM43.05,41.54c-.11,0-.2.04-.27.11-.07.08-.11.17-.11.27v.15c-.06-.07-.12-.13-.2-.19-.14-.11-.3-.2-.48-.27-.19-.07-.39-.11-.6-.11-.33,0-.64.09-.92.27-.28.18-.5.42-.66.73-.16.31-.24.67-.24,1.08s.08.76.24,1.07.38.56.66.74c.28.18.59.27.94.27.2,0,.38-.03.56-.1s.32-.15.45-.25c.1-.08.18-.17.25-.26v.15c0,.11.04.2.11.28.07.07.16.11.27.11s.2-.04.27-.11c.07-.07.11-.17.11-.28v-3.29c0-.11-.04-.2-.11-.28-.07-.07-.16-.11-.27-.11ZM42.56,44.3c-.1.21-.24.38-.43.5-.18.12-.39.18-.63.18s-.44-.06-.62-.18c-.18-.12-.32-.29-.43-.5-.1-.21-.16-.44-.16-.7s.05-.5.16-.71c.1-.21.25-.37.43-.49.18-.12.39-.18.62-.18s.45.06.63.18c.18.12.32.28.43.49.1.21.15.44.15.7s-.05.49-.15.7ZM39.04,41.62c.1.07.14.16.14.27,0,.14-.04.24-.11.3-.07.06-.15.1-.24.1-.08,0-.15-.02-.22-.05-.07-.03-.15-.05-.25-.05-.11,0-.22.03-.33.08-.11.06-.21.14-.3.25-.09.11-.16.24-.22.38-.05.15-.08.31-.08.49v1.83c0,.11-.04.2-.11.28-.07.07-.16.11-.27.11s-.2-.04-.28-.11c-.07-.07-.11-.17-.11-.28v-3.23c0-.11.04-.2.11-.28.07-.07.17-.11.28-.11s.2.04.27.11c.07.07.11.17.11.28v.36c.03-.08.06-.16.11-.23.08-.12.18-.23.3-.32.12-.09.25-.16.39-.21s.3-.08.45-.08c.13,0,.25.04.34.11ZM30.78,42.34c.08.25.12.53.12.84v2.04c0,.11-.04.2-.11.28-.07.07-.16.11-.27.11s-.2-.04-.28-.11c-.07-.07-.11-.17-.11-.28v-2.03c0-.18-.03-.35-.08-.49s-.14-.26-.26-.35c-.12-.09-.29-.13-.52-.13-.21,0-.39.04-.55.13-.16.09-.28.2-.37.35-.09.14-.13.31-.13.49v2.03c0,.11-.04.2-.11.28-.07.07-.16.11-.27.11s-.2-.04-.28-.11c-.07-.07-.11-.17-.11-.28v-3.23c0-.11.04-.2.11-.28s.17-.11.28-.11.2.04.27.11c.07.07.11.17.11.28v.24s.03-.05.05-.07c.09-.11.2-.22.32-.32.13-.1.27-.18.43-.24.16-.06.32-.09.5-.09.36,0,.64.07.84.22.2.15.34.35.41.6ZM35.24,39.98c-.11,0-.2.04-.27.11-.07.07-.11.17-.11.28v1.72c-.06-.07-.12-.13-.2-.19-.14-.11-.3-.2-.48-.27-.19-.07-.39-.11-.6-.11-.33,0-.64.09-.92.27-.28.18-.5.43-.66.74-.16.31-.24.67-.24,1.08s.08.76.24,1.08c.16.31.38.56.66.74.28.18.59.27.94.27.2,0,.38-.03.56-.1.17-.07.32-.15.45-.26.1-.08.18-.17.25-.26v.16c0,.11.04.2.11.28.07.07.16.11.27.11s.2-.04.27-.11c.07-.07.11-.17.11-.28v-4.85c0-.11-.04-.2-.11-.28-.07-.07-.16-.11-.27-.11ZM34.74,44.31c-.1.21-.24.37-.42.49-.18.12-.39.18-.64.18s-.44-.06-.62-.18c-.18-.12-.32-.29-.43-.49-.1-.21-.16-.44-.16-.71s.05-.5.16-.71c.1-.21.25-.37.43-.49.18-.12.39-.18.62-.18s.45.06.63.18.32.28.43.49c.1.21.15.44.15.71s-.05.5-.15.71ZM39.49,24.7c0,3.05-1.38,5.69-2.95,7.72,0,0,0,0,0,0-.6.91-1.57,1.86-2.46,2.64-1.17,1.07-2.08,1.67-2.08,1.67,0,0-.91-.6-2.08-1.67-.89-.78-1.86-1.74-2.46-2.64,0,0,0,0,0,0-1.57-2.03-2.95-4.67-2.95-7.72,0-1.14,3.24-1.37,3.29-1.14.62,3.17,2.4,5.27,4.2,6.63,1.8-1.36,3.58-3.45,4.2-6.63.04-.22,3.29,0,3.29,1.14ZM29.35,19.63c0-1.53,1.24-2.76,2.76-2.76s2.76,1.24,2.76,2.76-1.24,2.76-2.76,2.76-2.76-1.24-2.76-2.76Z"/>
</svg>