<?xml version="1.0" encoding="UTF-8"?>
<svg id="Outline" xmlns="http://www.w3.org/2000/svg" xmlns:xlink="http://www.w3.org/1999/xlink" viewBox="0 0 64 64">
  <defs>
    <style>
      .cls-1 {
        fill: url(#linear-gradient-2);
      }

      .cls-2 {
        fill: url(#linear-gradient-3);
      }

      .cls-3 {
        opacity: .66;
      }

      .cls-4 {
        fill: url(#linear-gradient);
      }
    </style>
    <linearGradient id="linear-gradient" x1="30.57" y1="35.54" x2="56.48" y2="35.54" gradientUnits="userSpaceOnUse">
      <stop offset="0" stop-color="#3aa1f2"/>
      <stop offset="1" stop-color="#0b83e2"/>
    </linearGradient>
    <linearGradient id="linear-gradient-2" x1="7.52" y1="42.17" x2="47.41" y2="42.17" gradientUnits="userSpaceOnUse">
      <stop offset="0" stop-color="#5e04ea"/>
      <stop offset="1" stop-color="#8643f4"/>
    </linearGradient>
    <linearGradient id="linear-gradient-3" x1="22.41" y1="9.94" x2="42.29" y2="9.94" gradientUnits="userSpaceOnUse">
      <stop offset="0" stop-color="#c2c2c2"/>
      <stop offset="1" stop-color="#7a7a7a"/>
    </linearGradient>
  </defs>
  <g id="Logo">
    <g class="cls-3">
      <path class="cls-4" d="M45.96,50.75c-.31,0-.62-.1-.88-.3-.63-.49-.74-1.39-.25-2.01,5.82-7.51,8.78-15.21,8.78-22.9,0-.23-.24-.46-.45-.62-1.55-1.22-5.36-1.75-7.02-1.71-1.81,8.24-6.28,15.09-13.28,20.37-.63.48-1.53.35-2.01-.28-.48-.63-.35-1.53.28-2.01,6.68-5.03,10.84-11.6,12.38-19.53.28-1.42,1.89-1.56,4.41-1.31,2.01.19,8.55,1.13,8.54,5.11,0,8.34-3.16,16.63-9.38,24.65-.28.36-.71.56-1.13.56Z"/>
    </g>
    <path class="cls-1" d="M32,64c-.27,0-.55-.08-.79-.24-.97-.63-23.68-15.8-23.69-38.22,0-3.97,6.54-4.91,8.54-5.11,2.52-.24,4.14-.11,4.41,1.31,4.05,20.85,25.61,26.1,25.82,26.15.46.11.83.43,1.01.87.17.44.12.93-.14,1.32-4.27,6.4-13.93,13.35-14.34,13.65-.25.18-.54.27-.83.27ZM17.72,23.2c-1.72,0-5.37.53-6.88,1.72-.2.16-.45.4-.45.62.01,18.57,17.57,32.35,21.59,35.26,2.15-1.61,8.07-6.23,11.65-10.72-5.72-1.92-21.78-8.84-25.77-26.88-.04,0-.09,0-.14,0Z"/>
    <path class="cls-2" d="M32.35,19.88c-5.48,0-9.94-4.46-9.94-9.94S26.87,0,32.35,0s9.94,4.46,9.94,9.94-4.46,9.94-9.94,9.94ZM32.35,2.87c-3.9,0-7.08,3.17-7.08,7.08s3.17,7.07,7.08,7.07,7.07-3.17,7.07-7.07-3.17-7.08-7.07-7.08Z"/>
  </g>
</svg>