<?xml version="1.0" encoding="UTF-8" standalone="no"?>
<!-- Created with Inkscape (http://www.inkscape.org/) -->

<svg
   version="1.1"
   id="svg2"
   xml:space="preserve"
   width="251.93333"
   height="83.133331"
   viewBox="0 0 251.93333 83.133331"
   sodipodi:docname="Maple2015_logo.eps"
   xmlns:inkscape="http://www.inkscape.org/namespaces/inkscape"
   xmlns:sodipodi="http://sodipodi.sourceforge.net/DTD/sodipodi-0.dtd"
   xmlns="http://www.w3.org/2000/svg"
   xmlns:svg="http://www.w3.org/2000/svg"><defs
     id="defs6"><clipPath
       clipPathUnits="userSpaceOnUse"
       id="clipPath36"><path
         d="m 612.48,183.586 c -0.039,0.066 -0.089,0.144 -0.148,0.227 -1.254,1.902 -4.238,4.64 -8.855,8.132 -2.239,1.696 -5.262,3.52 -8.762,5.633 -12.699,7.668 -31.891,19.262 -55.504,48.184 -0.672,0.816 -1.277,1.644 -1.82,2.465 -3.801,5.75 -5.067,12.32 -3.676,19 3.551,17.05 22.988,30.109 25.195,31.543 l 0.278,0.179 0.281,0.149 c 2.535,1.312 5.336,3.441 6.562,4.875 -2.234,1.39 -9.937,4.613 -34.293,5.804 l -3.504,0.164 c -83.324,3.918 -93.015,8.633 -96.613,14.079 -1.433,2.257 -5.801,9.136 12.285,34.46 4.309,6.043 57.805,83.872 63.004,92.145 11.125,17.715 11.453,25.328 10.754,26.535 -0.019,0.016 -0.668,0.457 -2.684,0.457 -4.074,0 -13.726,-1.812 -35.058,-12.644 -1.496,-0.762 -3.027,-1.133 -4.516,-1.133 -3.16,0 -6.129,1.668 -8.203,4.805 -5.234,7.933 -6.023,27.464 -6.965,61.312 -0.804,28.891 -1.804,64.844 -8.367,74.785 -0.363,0.551 -0.641,0.832 -0.687,0.903 -0.008,0.015 -0.012,0.023 -0.004,0.023 v 0 c -0.356,0.117 -0.766,0.172 -1.235,0.172 -10.172,0 -45.636,-26.684 -65.09,-41.32 -32.531,-24.477 -48.406,-35.633 -58.214,-35.633 -1.664,0 -3.153,0.32 -4.52,0.953 -6.191,2.859 -10.851,9.453 -15.355,15.824 -2.453,3.469 -7.02,9.93 -8.77,10.399 -0.035,-0.008 -3.555,-1.356 -9.094,-16.129 -6.656,-17.735 -13.015,-42.008 -18.629,-63.422 -11.824,-45.125 -16.718,-61.211 -25.203,-64.496 -1.05,-0.411 -2.136,-0.61 -3.222,-0.61 -1.696,0 -3.371,0.492 -4.868,1.461 -3.796,2.457 -9.015,9.461 -22.964,28.86 -13.399,18.636 -44.395,61.738 -54.754,63.714 -0.211,-0.472 -0.508,-1.328 -0.75,-2.781 -4.617,-27.683 -6.723,-40.32 -27.207,-42.094 -3.293,-0.285 -10.078,-0.316 -19.461,-0.363 -58.9729,-0.269 -91.5002,-3.394 -96.7151,-9.289 0.0899,-0.922 0.7774,-3.934 5.2813,-10.758 6.8203,-10.324 18.6484,-23.84 30.0937,-36.914 11.4375,-13.07 22.2422,-25.414 28.6094,-35.058 3.5469,-5.368 5.4453,-9.454 6.0078,-12.989 0.9492,-2.363 1.2812,-5.617 -0.0703,-9.101 -3.1133,-7.996 -13.8945,-14.324 -32.9414,-19.321 0.0625,-0.21 0.2148,-0.582 0.5703,-1.121 1.7109,-2.589 8.6484,-9.664 36.1445,-19.429 8.9961,-3.2 15.9848,-5.555 21.4418,-7.399 15.492,-5.23 20.168,-6.812 23.632,-12.062 1.344,-2.035 2.102,-4.172 3.063,-6.871 l 0.785,-2.192 c 4.406,-11.976 -8.879,-22.222 -22.945,-33.074 -8.328,-6.422 -17.7697,-13.703 -20.3869,-19.363 -3.3828,-7.328 -3.1094,-11.367 -2.8633,-12.692 l 0.3086,0.164 0.2265,-1.613 c 0.0313,-0.058 0.0664,-0.117 0.1133,-0.183 0.586,-0.887 2.5235,-3.075 7.9098,-4.29 2.481,-0.562 7.43,-1.21 13.164,-1.968 23.899,-3.16 68.379,-9.035 91.727,-27.485 4.309,-3.406 7.48,-6.687 9.688,-10.031 4.339,-6.57 4.984,-13.621 1.871,-20.344 L 165.5,34.1406 c -0.637,-5.2265 -0.516,-13.6797 1.75,-17.1133 0.586,-0.8828 1.02,-1.039 1.785,-1.0585 0.352,-0.0079 0.703,-0.0118 1.051,-0.0118 9.695,0 18.152,3.043 21.793,4.5743 l 54.16,115.0817 0.934,0.867 c 0.5,0.461 10.215,9.29 24.015,9.29 3.207,0 6.641,-0.481 10.227,-1.653 4.476,-1.199 58.269,-16.445 91.055,-65.1873 l 0.175,-0.2578 0.137,-0.2617 c 0.055,-0.0938 0.441,-0.7813 1.074,-1.7461 2.625,-3.9766 4.871,-5.6953 5.778,-6.0508 0.824,0.6875 4.472,4.6758 7.074,22.9961 -0.957,25.4066 0.344,56.5356 11.773,62.0316 3.981,1.91 8.844,2.48 13.231,2.48 4.828,0 9.078,-0.691 10.937,-1.047 6.274,-1.187 20.555,-9.582 41.625,-22.261 4.91,-2.954 9.524,-5.727 13.313,-7.934 9.203,-5.352 14.117,-7.551 16.687,-8.438 -0.004,0.582 -0.015,1.18 -0.019,1.707 -0.02,0.934 -0.035,1.903 -0.028,2.907 0.016,2.656 -0.16,6.433 -0.343,10.429 -0.965,20.575 -1.11,31.442 6.64,34.301 1.379,0.508 3.035,0.703 6.207,0.703 2.461,0 5.836,-0.117 10.703,-0.3 6.289,-0.235 14.383,-0.536 23.164,-0.536 17.59,0 37.942,1.211 52.071,6.602 5.301,2.023 17.304,6.601 20.011,9.332 z"
         id="path34" /></clipPath><radialGradient
       fx="0"
       fy="0"
       cx="0"
       cy="0"
       r="1"
       gradientUnits="userSpaceOnUse"
       gradientTransform="matrix(302.681,0,0,-302.681,313.804,310.899)"
       spreadMethod="pad"
       id="radialGradient44"><stop
         style="stop-opacity:1;stop-color:#3681bc"
         offset="0"
         id="stop38" /><stop
         style="stop-opacity:1;stop-color:#225083"
         offset="0.539877"
         id="stop40" /><stop
         style="stop-opacity:1;stop-color:#193352"
         offset="1"
         id="stop42" /></radialGradient></defs><sodipodi:namedview
     id="namedview4"
     pagecolor="#ffffff"
     bordercolor="#666666"
     borderopacity="1.0"
     inkscape:pageshadow="2"
     inkscape:pageopacity="0.0"
     inkscape:pagecheckerboard="0" /><g
     id="g8"
     inkscape:groupmode="layer"
     inkscape:label="ink_ext_XXXXXX"
     transform="matrix(1.3333333,0,0,-1.3333333,0,83.133333)"><g
       id="g10"
       transform="scale(0.1)"><path
         d="m 469.738,555.93 c 79.965,-51.914 133.004,-141.938 133.004,-244.172 0,-33.781 -5.847,-66.207 -16.48,-96.399 5.222,-3.64 9.914,-6.523 13.894,-8.929 1.477,-0.891 2.805,-1.707 4.117,-2.524 12.438,33.625 19.25,69.957 19.25,107.852 0,115.027 -62.66,215.629 -155.593,269.656 0.804,-7.488 1.379,-15.973 1.808,-25.484"
         style="fill:#d2d3d2;fill-opacity:1;fill-rule:nonzero;stroke:none"
         id="path12" /><path
         d="M 558.488,157.766 C 507.008,75.582 415.688,20.7813 311.762,20.7813 c -35.102,0 -68.77,6.246 -99.957,17.6914 L 202.941,19.6328 C 236.84,6.96484 273.5,0 311.762,0 c 117.316,0 219.66,65.1563 272.859,161.156 -7.426,-1.672 -16.098,-2.801 -26.133,-3.39"
         style="fill:#d2d3d2;fill-opacity:1;fill-rule:nonzero;stroke:none"
         id="path14" /><path
         d="M 165.879,60.1523 C 79.2109,110.602 20.7813,204.457 20.7813,311.758 c 0,32.301 5.371,63.355 15.1289,92.41 C 30.3945,410.516 25.1328,416.754 20.457,422.66 7.28516,388.18 0,350.813 0,311.758 0,196.047 63.4141,94.9375 157.266,41.1445 l 8.613,19.0078"
         style="fill:#d2d3d2;fill-opacity:1;fill-rule:nonzero;stroke:none"
         id="path16" /><path
         d="m 67.543,469.66 c 51.906,80.004 141.953,133.078 244.219,133.078 30.883,0 60.64,-4.879 88.59,-13.832 8.277,5.981 15.222,10.782 21.156,14.617 -34.16,12.891 -71.129,19.997 -109.746,19.997 -114.992,0 -215.5667,-62.625 -269.6097,-155.516 6.8868,0.672 15.3282,1.226 25.3907,1.656"
         style="fill:#d2d3d2;fill-opacity:1;fill-rule:nonzero;stroke:none"
         id="path18" /><path
         d="M 1038.13,178.422 V 409.547 L 935.449,230.758 H 919.188 L 816.121,409.547 V 178.422 H 788.77 v 281.465 h 28.144 L 927.117,267.223 1037.32,459.887 h 28.16 V 178.422 h -27.35"
         style="fill:#211c1d;fill-opacity:1;fill-rule:nonzero;stroke:none"
         id="path20" /><path
         d="m 1173.7,195.074 c 11.89,0 23.71,2.578 35.48,7.735 11.76,5.144 21.07,12.214 27.95,21.199 1.84,2.383 3.43,4.961 4.75,7.734 1.32,2.774 1.99,5.352 1.99,7.735 v 33.691 c -8.99,3.437 -18.37,6.074 -28.15,7.93 -9.78,1.847 -19.29,2.773 -28.54,2.773 -19.3,0 -34.95,-3.894 -46.98,-11.687 -12.03,-7.805 -18.04,-18.575 -18.04,-32.317 0,-5.547 1.05,-10.965 3.17,-16.25 2.11,-5.293 5.35,-10.047 9.72,-14.277 4.35,-4.227 9.71,-7.664 16.05,-10.301 6.34,-2.648 13.88,-3.965 22.6,-3.965 z m -6.74,-20.617 c -10.57,0 -20.22,1.652 -28.94,4.953 -8.72,3.309 -16.19,7.86 -22.4,13.68 -6.22,5.812 -11.04,12.551 -14.47,20.215 -3.44,7.668 -5.15,15.722 -5.15,24.191 0,9.512 2.11,18.164 6.34,25.965 4.22,7.793 10.17,14.465 17.84,20.019 7.66,5.547 16.85,9.844 27.55,12.883 10.71,3.035 22.53,4.559 35.48,4.559 10.31,0 20.87,-0.926 31.71,-2.774 10.84,-1.855 20.48,-4.5 28.95,-7.929 v 18.633 c 0,18.234 -5.23,32.707 -15.67,43.41 -10.44,10.703 -24.51,16.054 -42.21,16.054 -11.11,0 -22.14,-2.121 -33.11,-6.347 -10.97,-4.231 -22.14,-10.301 -33.5,-18.235 l -9.51,17.844 c 13.48,8.985 26.57,15.723 39.25,20.215 12.69,4.492 25.9,6.738 39.64,6.738 25.11,0 45.06,-7.265 59.86,-21.797 14.8,-14.543 22.2,-34.629 22.2,-60.265 v -93.164 c 0,-7.403 3.17,-11.094 9.52,-11.094 v -23.789 c -2.12,-0.262 -4.1,-0.457 -5.95,-0.594 -1.85,-0.129 -3.43,-0.195 -4.75,-0.195 -5.29,0 -10.12,1.582 -14.47,4.754 -4.37,3.176 -6.81,7.929 -7.34,14.269 l -0.79,16.258 c -8.99,-12.156 -20.82,-21.609 -35.49,-28.348 -14.67,-6.738 -29.53,-10.109 -44.59,-10.109"
         style="fill:#211c1d;fill-opacity:1;fill-rule:nonzero;stroke:none"
         id="path22" /><path
         d="m 1415.92,198.246 c 11.1,0 21.14,2.375 30.12,7.129 8.99,4.766 16.71,11.035 23.2,18.84 6.47,7.793 11.42,16.648 14.86,26.562 3.44,9.903 5.16,20.145 5.16,30.723 0,11.094 -1.98,21.66 -5.95,31.707 -3.96,10.039 -9.38,18.898 -16.25,26.563 -6.87,7.668 -15.01,13.742 -24.38,18.234 -9.39,4.492 -19.5,6.746 -30.33,6.746 -6.87,0 -14.01,-1.395 -21.41,-4.168 -7.4,-2.773 -14.41,-6.477 -21.01,-11.094 -6.61,-4.629 -12.22,-10.05 -16.84,-16.261 -4.63,-6.211 -7.47,-12.754 -8.53,-19.618 V 250.18 c 3.17,-7.403 7.2,-14.278 12.09,-20.614 4.88,-6.347 10.44,-11.836 16.65,-16.457 6.21,-4.629 12.95,-8.261 20.22,-10.898 7.26,-2.645 14.73,-3.965 22.4,-3.965 z m 7.53,-23.789 c -17.44,0 -32.9,4.426 -46.38,13.281 -13.49,8.848 -24.33,20.02 -32.51,33.496 V 93.9805 H 1317.6 V 384.965 h 24.19 v -40.039 c 8.45,12.949 19.42,23.449 32.9,31.515 13.47,8.055 28.14,12.09 44,12.09 14.28,0 27.41,-2.968 39.44,-8.918 12.03,-5.945 22.41,-13.875 31.13,-23.789 8.72,-9.91 15.53,-21.347 20.42,-34.285 4.88,-12.961 7.33,-26.301 7.33,-40.039 0,-14.543 -2.25,-28.293 -6.74,-41.23 -4.5,-12.961 -10.9,-24.317 -19.23,-34.094 -8.33,-9.785 -18.24,-17.52 -29.73,-23.192 -11.5,-5.683 -24.12,-8.527 -37.86,-8.527"
         style="fill:#211c1d;fill-opacity:1;fill-rule:nonzero;stroke:none"
         id="path24" /><path
         d="m 1550.7,467.816 h 26.97 V 225.199 c 0,-7.664 2.11,-13.672 6.33,-18.035 4.23,-4.355 10.18,-6.543 17.85,-6.543 2.9,0 6.33,0.399 10.3,1.192 3.96,0.789 7.66,1.843 11.1,3.171 l 4.76,-21.804 c -5.02,-2.121 -11.16,-3.828 -18.43,-5.157 -7.28,-1.32 -13.55,-1.984 -18.84,-1.984 -12.42,0 -22.2,3.508 -29.33,10.508 -7.13,7.004 -10.71,16.848 -10.71,29.543 v 251.726"
         style="fill:#211c1d;fill-opacity:1;fill-rule:nonzero;stroke:none"
         id="path26" /><path
         d="m 1808.78,292.594 c -0.79,11.101 -3.37,21.211 -7.73,30.332 -4.36,9.109 -9.91,16.972 -16.65,23.582 -6.73,6.601 -14.61,11.758 -23.59,15.461 -8.98,3.699 -18.5,5.554 -28.54,5.554 -10.04,0 -19.56,-1.855 -28.54,-5.554 -8.99,-3.703 -16.85,-8.86 -23.59,-15.461 -6.74,-6.61 -12.16,-14.531 -16.25,-23.778 -4.1,-9.257 -6.55,-19.296 -7.34,-30.136 z m -76.11,-118.137 c -15.07,0 -28.94,2.844 -41.63,8.527 -12.68,5.672 -23.66,13.477 -32.91,23.387 -9.24,9.914 -16.44,21.34 -21.6,34.289 -5.15,12.949 -7.73,26.824 -7.73,41.629 0,14.531 2.58,28.203 7.73,41.027 5.16,12.821 12.36,24.051 21.6,33.7 9.25,9.652 20.16,17.304 32.71,22.988 12.55,5.684 26.37,8.527 41.43,8.527 15.06,0 28.87,-2.843 41.43,-8.527 12.55,-5.684 23.32,-13.406 32.31,-23.184 8.98,-9.785 15.98,-21.015 21.01,-33.699 5.01,-12.687 7.53,-26.164 7.53,-40.441 0,-2.11 -0.07,-4.227 -0.19,-6.336 -0.14,-2.121 -0.35,-3.567 -0.6,-4.367 h -176.42 c 0.79,-11.094 3.37,-21.336 7.74,-30.723 4.35,-9.383 9.9,-17.508 16.65,-24.375 6.74,-6.875 14.53,-12.227 23.39,-16.055 8.84,-3.836 18.29,-5.75 28.34,-5.75 6.87,0 13.61,0.918 20.22,2.774 6.6,1.843 12.69,4.363 18.23,7.527 5.55,3.176 10.51,7.07 14.87,11.699 4.36,4.621 7.73,9.719 10.1,15.266 l 23.4,-6.348 c -3.17,-7.668 -7.67,-14.601 -13.48,-20.812 -5.81,-6.211 -12.55,-11.629 -20.22,-16.25 -7.66,-4.629 -16.12,-8.192 -25.37,-10.703 -9.26,-2.508 -18.77,-3.77 -28.54,-3.77"
         style="fill:#211c1d;fill-opacity:1;fill-rule:nonzero;stroke:none"
         id="path28" /><g
         id="g30"><g
           id="g32"
           clip-path="url(#clipPath36)"><path
             d="m 612.48,183.586 c -0.039,0.066 -0.089,0.144 -0.148,0.227 -1.254,1.902 -4.238,4.64 -8.855,8.132 -2.239,1.696 -5.262,3.52 -8.762,5.633 -12.699,7.668 -31.891,19.262 -55.504,48.184 -0.672,0.816 -1.277,1.644 -1.82,2.465 -3.801,5.75 -5.067,12.32 -3.676,19 3.551,17.05 22.988,30.109 25.195,31.543 l 0.278,0.179 0.281,0.149 c 2.535,1.312 5.336,3.441 6.562,4.875 -2.234,1.39 -9.937,4.613 -34.293,5.804 l -3.504,0.164 c -83.324,3.918 -93.015,8.633 -96.613,14.079 -1.433,2.257 -5.801,9.136 12.285,34.46 4.309,6.043 57.805,83.872 63.004,92.145 11.125,17.715 11.453,25.328 10.754,26.535 -0.019,0.016 -0.668,0.457 -2.684,0.457 -4.074,0 -13.726,-1.812 -35.058,-12.644 -1.496,-0.762 -3.027,-1.133 -4.516,-1.133 -3.16,0 -6.129,1.668 -8.203,4.805 -5.234,7.933 -6.023,27.464 -6.965,61.312 -0.804,28.891 -1.804,64.844 -8.367,74.785 -0.363,0.551 -0.641,0.832 -0.687,0.903 -0.008,0.015 -0.012,0.023 -0.004,0.023 v 0 c -0.356,0.117 -0.766,0.172 -1.235,0.172 -10.172,0 -45.636,-26.684 -65.09,-41.32 -32.531,-24.477 -48.406,-35.633 -58.214,-35.633 -1.664,0 -3.153,0.32 -4.52,0.953 -6.191,2.859 -10.851,9.453 -15.355,15.824 -2.453,3.469 -7.02,9.93 -8.77,10.399 -0.035,-0.008 -3.555,-1.356 -9.094,-16.129 -6.656,-17.735 -13.015,-42.008 -18.629,-63.422 -11.824,-45.125 -16.718,-61.211 -25.203,-64.496 -1.05,-0.411 -2.136,-0.61 -3.222,-0.61 -1.696,0 -3.371,0.492 -4.868,1.461 -3.796,2.457 -9.015,9.461 -22.964,28.86 -13.399,18.636 -44.395,61.738 -54.754,63.714 -0.211,-0.472 -0.508,-1.328 -0.75,-2.781 -4.617,-27.683 -6.723,-40.32 -27.207,-42.094 -3.293,-0.285 -10.078,-0.316 -19.461,-0.363 -58.9729,-0.269 -91.5002,-3.394 -96.7151,-9.289 0.0899,-0.922 0.7774,-3.934 5.2813,-10.758 6.8203,-10.324 18.6484,-23.84 30.0937,-36.914 11.4375,-13.07 22.2422,-25.414 28.6094,-35.058 3.5469,-5.368 5.4453,-9.454 6.0078,-12.989 0.9492,-2.363 1.2812,-5.617 -0.0703,-9.101 -3.1133,-7.996 -13.8945,-14.324 -32.9414,-19.321 0.0625,-0.21 0.2148,-0.582 0.5703,-1.121 1.7109,-2.589 8.6484,-9.664 36.1445,-19.429 8.9961,-3.2 15.9848,-5.555 21.4418,-7.399 15.492,-5.23 20.168,-6.812 23.632,-12.062 1.344,-2.035 2.102,-4.172 3.063,-6.871 l 0.785,-2.192 c 4.406,-11.976 -8.879,-22.222 -22.945,-33.074 -8.328,-6.422 -17.7697,-13.703 -20.3869,-19.363 -3.3828,-7.328 -3.1094,-11.367 -2.8633,-12.692 l 0.3086,0.164 0.2265,-1.613 c 0.0313,-0.058 0.0664,-0.117 0.1133,-0.183 0.586,-0.887 2.5235,-3.075 7.9098,-4.29 2.481,-0.562 7.43,-1.21 13.164,-1.968 23.899,-3.16 68.379,-9.035 91.727,-27.485 4.309,-3.406 7.48,-6.687 9.688,-10.031 4.339,-6.57 4.984,-13.621 1.871,-20.344 L 165.5,34.1406 c -0.637,-5.2265 -0.516,-13.6797 1.75,-17.1133 0.586,-0.8828 1.02,-1.039 1.785,-1.0585 0.352,-0.0079 0.703,-0.0118 1.051,-0.0118 9.695,0 18.152,3.043 21.793,4.5743 l 54.16,115.0817 0.934,0.867 c 0.5,0.461 10.215,9.29 24.015,9.29 3.207,0 6.641,-0.481 10.227,-1.653 4.476,-1.199 58.269,-16.445 91.055,-65.1873 l 0.175,-0.2578 0.137,-0.2617 c 0.055,-0.0938 0.441,-0.7813 1.074,-1.7461 2.625,-3.9766 4.871,-5.6953 5.778,-6.0508 0.824,0.6875 4.472,4.6758 7.074,22.9961 -0.957,25.4066 0.344,56.5356 11.773,62.0316 3.981,1.91 8.844,2.48 13.231,2.48 4.828,0 9.078,-0.691 10.937,-1.047 6.274,-1.187 20.555,-9.582 41.625,-22.261 4.91,-2.954 9.524,-5.727 13.313,-7.934 9.203,-5.352 14.117,-7.551 16.687,-8.438 -0.004,0.582 -0.015,1.18 -0.019,1.707 -0.02,0.934 -0.035,1.903 -0.028,2.907 0.016,2.656 -0.16,6.433 -0.343,10.429 -0.965,20.575 -1.11,31.442 6.64,34.301 1.379,0.508 3.035,0.703 6.207,0.703 2.461,0 5.836,-0.117 10.703,-0.3 6.289,-0.235 14.383,-0.536 23.164,-0.536 17.59,0 37.942,1.211 52.071,6.602 5.301,2.023 17.304,6.601 20.011,9.332"
             style="fill:url(#radialGradient44);fill-opacity:1;fill-rule:nonzero;stroke:none"
             id="path46" /></g></g><path
         d="m 1858.46,383.641 v -3.418 h -9.67 v -25.274 h -3.92 v 25.274 h -9.67 v 3.418 h 23.26"
         style="fill:#211c1d;fill-opacity:1;fill-rule:nonzero;stroke:none"
         id="path48" /><path
         d="m 1861.94,383.641 h 5.56 l 8.25,-24.258 8.2,24.258 h 5.53 v -28.692 h -3.72 v 16.934 c 0,0.586 0.01,1.555 0.04,2.91 0.02,1.352 0.04,2.805 0.04,4.355 l -8.19,-24.199 h -3.85 l -8.27,24.199 v -0.878 c 0,-0.704 0.02,-1.774 0.06,-3.215 0.04,-1.442 0.06,-2.496 0.06,-3.172 v -16.934 h -3.71 v 28.692"
         style="fill:#211c1d;fill-opacity:1;fill-rule:nonzero;stroke:none"
         id="path50" /></g></g></svg>
