<?xml version="1.0" encoding="UTF-8"?>
<svg id="Layer_1" xmlns="http://www.w3.org/2000/svg" viewBox="0 0 64 64">
  <defs>
    <style>
      .cls-1 {
        fill: #231f20;
      }
    </style>
  </defs>
  <path class="cls-1" d="M64,10v44c0,5.52-4.48,10-10,10H10c-5.52,0-10-4.48-10-10V10C0,4.48,4.48,0,10,0h44c5.52,0,10,4.48,10,10ZM21.85,45.44c1.6-.46,2.52-2.12,2.07-3.72l-4.92-17.26h26.01l-1.72,6.02h-12.57c-1.3,0-2.45.83-2.86,2.07-.41,1.23.03,2.59,1.07,3.36l12.27,9.06c.54.4,1.16.59,1.78.59.92,0,1.83-.42,2.42-1.22.99-1.34.7-3.22-.63-4.21l-4.92-3.64h5.71c1.34,0,2.52-.89,2.89-2.18l3.44-12.03c.26-.91.08-1.88-.49-2.64-.57-.75-1.46-1.2-2.4-1.2H15.01c-.94,0-1.83.44-2.4,1.2-.57.75-.75,1.73-.49,2.64l6.02,21.09c.38,1.32,1.58,2.18,2.89,2.18.27,0,.55-.04.83-.12Z"/>
</svg>