<?xml version="1.0" encoding="UTF-8"?>
<svg id="Layer_1" xmlns="http://www.w3.org/2000/svg" viewBox="0 0 64 64">
  <defs>
    <style>
      .cls-1 {
        fill: #231f20;
      }
    </style>
  </defs>
  <path class="cls-1" d="M10.25,29.58c0,.38-.05.73-.14,1.03-.09.3-.22.57-.38.8-.16.23-.35.43-.56.59s-.43.3-.66.4c-.23.11-.46.18-.7.23-.24.05-.46.07-.66.07l3.51,3.03h-2.6l-3.51-3.03h-1.21v-1.68h3.8c.21-.02.4-.06.58-.13.17-.07.33-.17.45-.29.13-.12.23-.27.29-.44.07-.17.1-.37.1-.59v-1.06c0-.09-.01-.17-.04-.22-.02-.05-.05-.09-.09-.11-.04-.02-.08-.04-.12-.04s-.08,0-.11,0H2.66v7.59H.98v-8.43c0-.12.02-.23.06-.33s.1-.19.18-.27c.08-.08.17-.14.27-.18.1-.04.22-.06.34-.06h6.38c.38,0,.69.07.95.2s.47.31.63.51.28.43.35.66.11.46.11.67v1.07ZM13.46,27.31h-1.68v-1.52h1.68v1.52ZM13.46,35.74h-1.68v-6.99h1.68v6.99ZM22.82,35.74h-1.68v-3.88c0-.22-.04-.42-.11-.59-.08-.17-.18-.32-.31-.45-.13-.12-.28-.22-.46-.29-.17-.07-.36-.1-.57-.1h-2.94v5.31h-1.68v-6.16c0-.12.02-.23.07-.33.04-.1.1-.19.18-.27.08-.08.17-.13.27-.18.1-.04.21-.06.33-.06h3.79c.21,0,.43.02.67.07.24.05.47.12.7.23s.45.24.66.4c.21.16.39.36.56.59.16.23.29.5.38.8.09.3.14.64.14,1.02v3.88ZM36.45,33.38c0,.34-.06.65-.17.94-.12.29-.28.54-.49.75s-.46.38-.75.5-.6.18-.94.18h-6.17v-1.68h6.17c.21,0,.37-.06.49-.18.12-.12.17-.29.17-.5v-6.92h1.69v6.92ZM45.38,33.43c0,.23-.04.48-.12.75-.08.27-.21.52-.4.75-.18.23-.42.42-.72.58-.3.16-.65.23-1.08.23h-3.03c-.23,0-.48-.04-.75-.12-.27-.08-.52-.21-.75-.4-.23-.18-.42-.42-.58-.72s-.23-.65-.23-1.08c0-.23.04-.49.12-.76.08-.27.21-.52.4-.75.18-.23.42-.42.72-.58.29-.16.65-.23,1.08-.23h3.03v1.6h-3.03c-.23,0-.41.07-.53.21s-.19.31-.19.52c0,.22.07.39.22.51.14.12.32.18.51.18h3.02c.23,0,.41-.07.53-.21.12-.14.19-.31.19-.52v-2.35c0-.22-.07-.39-.2-.52-.14-.13-.31-.19-.51-.19h-3.69v-1.6h3.69c.23,0,.48.04.75.12.27.08.52.21.75.4.23.18.42.42.58.72s.23.65.23,1.08v2.36ZM52.17,35.74h-3.03c-.24,0-.5-.04-.77-.12-.27-.08-.53-.22-.77-.4-.24-.19-.43-.43-.59-.73s-.23-.67-.23-1.1v-4.63h1.68v4.63c0,.22.06.39.17.5.12.12.29.17.52.17h3.02v1.68ZM54.53,36.42c0,.29-.04.55-.11.78-.07.23-.17.43-.29.61-.12.17-.26.32-.42.45s-.33.22-.5.3-.35.13-.53.17-.35.06-.5.06h-3.03v-1.68h3.03c.22,0,.39-.06.5-.17.11-.12.17-.28.17-.5v-7.67h1.68v7.67ZM63.35,33.43c0,.23-.04.48-.12.75s-.21.52-.4.75c-.18.23-.42.42-.72.58-.29.16-.65.23-1.08.23h-3.03c-.23,0-.48-.04-.75-.12-.27-.08-.52-.21-.75-.4-.23-.18-.42-.42-.58-.72s-.23-.65-.23-1.08c0-.23.04-.49.12-.76.08-.27.21-.52.4-.75.18-.23.42-.42.72-.58.3-.16.66-.23,1.08-.23h3.03v1.6h-3.03c-.23,0-.41.07-.53.21s-.19.31-.19.52c0,.22.07.39.22.51.14.12.32.18.51.18h3.02c.23,0,.41-.07.53-.21.12-.14.19-.31.19-.52v-2.35c0-.22-.07-.39-.2-.52s-.31-.19-.51-.19h-3.69v-1.6h3.69c.23,0,.48.04.75.12.27.08.52.21.75.4.23.18.42.42.58.72s.23.65.23,1.08v2.36Z"/>
</svg>