<?xml version="1.0" encoding="UTF-8"?>
<svg id="Layer_1" xmlns="http://www.w3.org/2000/svg" viewBox="0 0 64 64">
  <defs>
    <style>
      .cls-1 {
        fill: #09c083;
      }

      .cls-2 {
        fill: #414141;
      }
    </style>
  </defs>
  <g>
    <path class="cls-2" d="M30.55,30.47c0,.24-.03.46-.09.65-.06.19-.14.36-.24.5s-.22.27-.35.37-.27.19-.42.25-.29.11-.44.14c-.15.03-.29.04-.42.04l2.21,1.91h-1.64l-2.21-1.91h-.76v-1.06h2.4c.13-.01.25-.04.36-.08s.2-.11.29-.18c.08-.08.14-.17.19-.27s.07-.23.07-.37v-.67c0-.06,0-.1-.02-.14-.02-.03-.03-.05-.06-.07-.02-.01-.05-.02-.07-.03-.03,0-.05,0-.07,0h-3.5v4.78h-1.06v-5.31c0-.07.01-.14.04-.21.03-.07.06-.12.11-.17.05-.05.1-.09.17-.11s.14-.04.21-.04h4.02c.24,0,.44.04.6.13.16.09.3.19.4.32s.18.27.22.42.07.29.07.42v.68Z"/>
    <path class="cls-2" d="M32.57,29.04h-1.06v-.96h1.06v.96ZM32.57,34.35h-1.06v-4.4h1.06v4.4Z"/>
    <path class="cls-2" d="M38.47,34.35h-1.06v-2.45c0-.14-.02-.26-.07-.37s-.11-.2-.19-.28c-.08-.08-.18-.14-.29-.18-.11-.04-.23-.06-.36-.06h-1.85v3.35h-1.06v-3.88c0-.07.01-.14.04-.21.03-.06.07-.12.11-.17.05-.05.11-.08.17-.11.07-.03.13-.04.21-.04h2.39c.13,0,.27.02.42.04.15.03.3.08.44.14s.28.15.42.25c.13.1.25.23.35.37.1.15.18.31.24.5.06.19.09.4.09.64v2.45Z"/>
    <path class="cls-2" d="M47.06,32.86c0,.21-.04.41-.11.59-.07.18-.18.34-.31.47-.13.13-.29.24-.47.31-.18.07-.38.11-.6.11h-3.88v-1.06h3.88c.13,0,.23-.04.31-.11.07-.07.11-.18.11-.32v-4.36h1.07v4.36Z"/>
    <path class="cls-2" d="M52.68,32.89c0,.15-.03.31-.08.47-.05.17-.14.33-.25.47s-.27.27-.45.36c-.19.1-.41.15-.68.15h-1.91c-.15,0-.31-.03-.47-.08-.17-.05-.33-.14-.47-.25s-.27-.27-.36-.45-.15-.41-.15-.68c0-.15.03-.31.08-.48.05-.17.13-.33.25-.47s.27-.27.45-.36.41-.15.68-.15h1.91v1.01h-1.91c-.14,0-.26.04-.33.13-.08.09-.12.2-.12.33,0,.14.05.25.14.32.09.08.2.12.32.12h1.9c.14,0,.26-.04.33-.13.08-.09.12-.2.12-.33v-1.48c0-.14-.04-.25-.13-.33-.09-.08-.19-.12-.32-.12h-2.33v-1.01h2.33c.15,0,.31.03.48.08.17.05.33.14.47.25.15.12.27.27.36.45.1.19.15.41.15.68v1.49Z"/>
    <path class="cls-2" d="M56.96,34.35h-1.91c-.15,0-.31-.03-.49-.08-.17-.05-.33-.14-.48-.25-.15-.12-.27-.27-.37-.46s-.15-.42-.15-.69v-2.92h1.06v2.92c0,.14.04.24.11.32.07.07.18.11.33.11h1.9v1.06ZM58.44,34.78c0,.18-.02.35-.07.49-.05.15-.11.27-.18.38-.08.11-.16.2-.26.28-.1.08-.21.14-.32.19s-.22.08-.33.11-.22.03-.32.03h-1.91v-1.06h1.91c.14,0,.25-.04.32-.11.07-.07.11-.18.11-.32v-4.83h1.06v4.83Z"/>
    <path class="cls-2" d="M64,32.89c0,.15-.03.31-.08.47-.05.17-.14.33-.25.47s-.27.27-.45.36c-.19.1-.41.15-.68.15h-1.91c-.15,0-.31-.03-.47-.08-.17-.05-.33-.14-.47-.25s-.27-.27-.36-.45-.15-.41-.15-.68c0-.15.03-.31.08-.48.05-.17.13-.33.25-.47s.27-.27.45-.36.41-.15.68-.15h1.91v1.01h-1.91c-.14,0-.26.04-.33.13-.08.09-.12.2-.12.33,0,.14.05.25.14.32.09.08.2.12.32.12h1.9c.14,0,.26-.04.33-.13.08-.09.12-.2.12-.33v-1.48c0-.14-.04-.25-.13-.33-.09-.08-.19-.12-.32-.12h-2.33v-1.01h2.33c.15,0,.31.03.48.08.17.05.33.14.47.25.15.12.27.27.36.45.1.19.15.41.15.68v1.49Z"/>
  </g>
  <path class="cls-1" d="M4.63,38.96c-.67,0-1.29-.44-1.48-1.12L.06,27.01c-.13-.47-.04-.97.25-1.35.29-.39.75-.61,1.23-.61h17.45c.48,0,.94.23,1.23.61.29.39.39.89.25,1.35l-1.76,6.18c-.19.66-.8,1.12-1.48,1.12h-2.93l2.53,1.87c.69.51.83,1.47.32,2.16-.3.41-.77.63-1.24.63-.32,0-.64-.1-.92-.3l-6.3-4.65c-.54-.4-.76-1.09-.55-1.73.21-.63.8-1.06,1.47-1.06h6.46l.88-3.09H3.59l2.53,8.86c.23.82-.24,1.67-1.06,1.91-.14.04-.28.06-.42.06Z"/>
</svg>