<?xml version="1.0" encoding="UTF-8"?>
<svg id="Layer_1" xmlns="http://www.w3.org/2000/svg" viewBox="0 0 64 64">
  <defs>
    <style>
      .cls-1 {
        fill: #fff;
      }

      .cls-2 {
        fill: #09c083;
      }
    </style>
  </defs>
  <rect class="cls-2" width="64" height="64" rx="10" ry="10"/>
  <path class="cls-1" d="M21.02,45.56c-1.31,0-2.51-.86-2.89-2.18l-6.02-21.09c-.26-.91-.08-1.88.49-2.64.57-.75,1.46-1.2,2.4-1.2h33.98c.94,0,1.83.44,2.4,1.2.57.75.75,1.73.49,2.64l-3.44,12.03c-.37,1.29-1.55,2.18-2.89,2.18h-5.71l4.92,3.64c1.34.99,1.62,2.87.63,4.21-.59.8-1.5,1.22-2.42,1.22-.62,0-1.25-.19-1.78-.59l-12.27-9.06c-1.04-.77-1.48-2.13-1.07-3.36.41-1.23,1.56-2.07,2.86-2.07h12.57l1.72-6.02h-26.01l4.92,17.26c.46,1.6-.47,3.26-2.07,3.72-.28.08-.55.12-.83.12Z"/>
</svg>