<?xml version="1.0" encoding="UTF-8"?>
<svg id="Layer_1" xmlns="http://www.w3.org/2000/svg" viewBox="0 0 64 64">
  <defs>
    <style>
      .cls-1 {
        fill: #231f20;
      }
    </style>
  </defs>
  <path class="cls-1" d="M14.44,53.69c-2.1,0-4.02-1.38-4.63-3.49L.18,16.44c-.41-1.45-.12-3.01.79-4.22.91-1.21,2.33-1.91,3.84-1.91h54.37c1.51,0,2.93.71,3.84,1.91.91,1.21,1.2,2.77.79,4.22l-5.5,19.25c-.59,2.07-2.48,3.49-4.63,3.49h-9.14l7.87,5.82c2.14,1.58,2.59,4.59,1.01,6.73-.94,1.28-2.4,1.95-3.87,1.95-.99,0-2-.31-2.86-.94l-19.62-14.5c-1.67-1.23-2.36-3.4-1.71-5.38.65-1.97,2.49-3.31,4.57-3.31h20.12l2.75-9.62H11.19l7.88,27.62c.73,2.56-.75,5.22-3.31,5.95-.44.13-.89.19-1.32.19Z"/>
</svg>