<?xml version="1.0" encoding="UTF-8"?>
<svg id="Layer_1" xmlns="http://www.w3.org/2000/svg" viewBox="0 0 64 64">
  <defs>
    <style>
      .cls-1 {
        fill: #09c083;
      }

      .cls-2 {
        fill: #414141;
      }
    </style>
  </defs>
  <path class="cls-1" d="M20.27,36.75c-1.4,0-2.69-.92-3.09-2.33l-6.43-22.53c-.28-.97-.08-2.01.53-2.82.61-.8,1.56-1.28,2.56-1.28h36.3c1.01,0,1.96.47,2.56,1.28.61.8.8,1.85.52,2.82l-3.67,12.85c-.39,1.38-1.65,2.33-3.09,2.33h-6.1l5.26,3.88c1.43,1.05,1.73,3.07.67,4.49-.63.85-1.6,1.3-2.59,1.3-.66,0-1.33-.2-1.91-.63l-13.1-9.68c-1.12-.82-1.58-2.27-1.14-3.59.43-1.32,1.66-2.21,3.05-2.21h13.43l1.84-6.43h-27.78l5.26,18.44c.49,1.71-.5,3.48-2.21,3.97-.29.08-.59.12-.88.12Z"/>
  <g>
    <path class="cls-2" d="M9.51,46.77c0,.39-.05.75-.15,1.06-.1.31-.23.58-.4.82s-.36.44-.57.61-.44.31-.68.41-.48.19-.72.24c-.24.05-.47.07-.68.07l3.6,3.11h-2.67l-3.6-3.11h-1.24v-1.73h3.9c.22-.02.41-.06.59-.14s.33-.17.46-.3c.13-.12.23-.27.3-.45s.11-.37.11-.6v-1.09c0-.1-.01-.17-.04-.22-.02-.05-.06-.09-.09-.11-.04-.02-.08-.04-.12-.04-.04,0-.08,0-.12,0H1.73v7.79H0v-8.65c0-.12.02-.23.07-.34.04-.11.1-.2.18-.28.08-.08.17-.14.28-.19s.22-.07.35-.07h6.55c.38,0,.71.07.98.21.27.14.48.31.65.52s.29.44.36.68.11.47.11.68v1.1Z"/>
    <path class="cls-2" d="M12.8,44.44h-1.73v-1.56h1.73v1.56ZM12.8,53.09h-1.73v-7.18h1.73v7.18Z"/>
    <path class="cls-2" d="M22.41,53.09h-1.73v-3.98c0-.23-.04-.43-.12-.61s-.18-.33-.32-.46c-.13-.13-.29-.23-.47-.3-.18-.07-.37-.1-.58-.1h-3.02v5.45h-1.73v-6.32c0-.12.02-.23.07-.34.04-.1.11-.19.19-.27.08-.08.17-.14.28-.18.11-.04.22-.07.34-.07h3.89c.22,0,.45.02.69.07.24.05.48.13.72.24s.46.24.68.41c.21.17.4.37.57.6.17.24.3.51.4.82.1.31.15.66.15,1.05v3.98Z"/>
    <path class="cls-2" d="M36.4,50.67c0,.35-.06.67-.18.96-.12.3-.29.55-.5.77-.22.22-.47.39-.77.51-.3.12-.62.18-.97.18h-6.33v-1.73h6.33c.21,0,.38-.06.5-.18.12-.12.18-.29.18-.51v-7.1h1.74v7.1Z"/>
    <path class="cls-2" d="M45.56,50.71c0,.24-.04.5-.13.77-.08.28-.22.53-.41.77s-.43.43-.74.59c-.3.16-.67.24-1.11.24h-3.11c-.24,0-.5-.04-.77-.13-.28-.08-.53-.22-.77-.41s-.43-.43-.59-.74-.24-.67-.24-1.11c0-.24.04-.5.13-.78.08-.28.22-.54.41-.77s.43-.43.74-.59.67-.24,1.11-.24h3.11v1.65h-3.11c-.24,0-.42.07-.54.22-.13.14-.19.32-.19.53,0,.23.07.4.22.53.15.13.32.19.53.19h3.1c.24,0,.42-.07.54-.21.13-.14.19-.32.19-.53v-2.41c0-.23-.07-.41-.21-.54-.14-.13-.32-.2-.53-.2h-3.79v-1.64h3.79c.24,0,.5.04.77.13.28.08.53.22.77.41.24.19.43.43.59.74.16.3.24.67.24,1.11v2.42Z"/>
    <path class="cls-2" d="M52.53,53.09h-3.11c-.25,0-.51-.04-.79-.13-.28-.08-.54-.22-.79-.41-.24-.19-.44-.44-.6-.75s-.24-.68-.24-1.13v-4.75h1.73v4.75c0,.23.06.4.18.52.12.12.3.18.53.18h3.1v1.73ZM54.95,53.78c0,.3-.04.56-.11.8-.08.24-.18.45-.3.62-.12.18-.27.33-.43.46-.16.13-.34.23-.51.31s-.36.14-.54.18-.35.06-.52.06h-3.11v-1.73h3.11c.23,0,.4-.06.52-.18.12-.12.17-.29.17-.52v-7.87h1.73v7.87Z"/>
    <path class="cls-2" d="M64,50.71c0,.24-.04.5-.13.77-.08.28-.22.53-.41.77s-.43.43-.74.59c-.3.16-.67.24-1.11.24h-3.11c-.24,0-.5-.04-.77-.13-.28-.08-.53-.22-.77-.41s-.43-.43-.59-.74-.24-.67-.24-1.11c0-.24.04-.5.13-.78.08-.28.22-.54.41-.77s.43-.43.74-.59.67-.24,1.11-.24h3.11v1.65h-3.11c-.24,0-.42.07-.54.22-.13.14-.19.32-.19.53,0,.23.07.4.22.53.15.13.32.19.53.19h3.1c.24,0,.42-.07.54-.21.13-.14.19-.32.19-.53v-2.41c0-.23-.07-.41-.21-.54-.14-.13-.32-.2-.53-.2h-3.79v-1.64h3.79c.24,0,.5.04.77.13.28.08.53.22.77.41.24.19.43.43.59.74.16.3.24.67.24,1.11v2.42Z"/>
  </g>
</svg>