<?xml version="1.0" encoding="UTF-8"?>
<svg id="Layer_1" xmlns="http://www.w3.org/2000/svg" viewBox="0 0 64 64">
  <defs>
    <style>
      .cls-1 {
        fill: #231f20;
      }
    </style>
  </defs>
  <path class="cls-1" d="M20.27,36.75c-1.4,0-2.69-.92-3.09-2.33l-6.43-22.53c-.28-.97-.08-2.01.53-2.82.61-.8,1.56-1.28,2.56-1.28h36.3c1.01,0,1.96.47,2.56,1.28.61.8.8,1.85.52,2.82l-3.67,12.85c-.39,1.38-1.65,2.33-3.09,2.33h-6.1l5.26,3.88c1.43,1.05,1.73,3.07.67,4.49-.63.85-1.6,1.3-2.59,1.3-.66,0-1.33-.2-1.91-.63l-13.1-9.68c-1.12-.82-1.58-2.27-1.14-3.59.43-1.32,1.66-2.21,3.05-2.21h13.43l1.84-6.43h-27.78l5.26,18.44c.49,1.71-.5,3.48-2.21,3.97-.29.08-.59.12-.88.12ZM9.51,45.67c0-.21-.04-.44-.11-.68s-.19-.47-.36-.68-.38-.39-.65-.52c-.27-.14-.59-.21-.98-.21H.87c-.12,0-.24.02-.35.07s-.2.11-.28.19c-.08.08-.14.17-.18.28-.04.11-.07.22-.07.34v8.65h1.73v-7.79h5.7s.07,0,.12,0c.04,0,.08.02.12.04.04.02.07.06.09.11.02.05.04.12.04.22v1.09c0,.23-.04.43-.11.6s-.17.32-.3.45c-.13.12-.29.22-.46.3s-.38.12-.59.14h-3.9v1.73h1.24l3.6,3.11h2.67l-3.6-3.11c.21,0,.44-.02.68-.07.24-.05.48-.13.72-.24s.46-.25.68-.41.41-.37.57-.61.3-.51.4-.82c.1-.31.15-.66.15-1.06v-1.1ZM12.8,42.88h-1.73v1.56h1.73v-1.56ZM12.8,45.91h-1.73v7.18h1.73v-7.18ZM22.41,49.11c0-.39-.05-.74-.15-1.05-.1-.31-.23-.58-.4-.82-.17-.24-.36-.44-.57-.6-.22-.17-.44-.3-.68-.41s-.48-.19-.72-.24c-.24-.05-.47-.07-.69-.07h-3.89c-.12,0-.23.02-.34.07-.11.04-.2.11-.28.18-.08.08-.14.17-.19.27-.04.1-.07.22-.07.34v6.32h1.73v-5.45h3.02c.21,0,.4.03.58.1.18.07.34.17.47.3.13.13.24.28.32.46s.12.38.12.61v3.98h1.73v-3.98ZM36.4,43.57h-1.74v7.1c0,.22-.06.39-.18.51-.12.12-.29.18-.5.18h-6.33v1.73h6.33c.35,0,.67-.06.97-.18.3-.12.55-.29.77-.51.21-.22.38-.47.5-.77.12-.3.18-.62.18-.96v-7.1ZM45.56,48.29c0-.43-.08-.8-.24-1.11-.16-.3-.36-.55-.59-.74-.24-.19-.49-.32-.77-.41-.28-.08-.53-.13-.77-.13h-3.79v1.64h3.79c.21,0,.39.07.53.2.14.13.21.31.21.54v2.41c0,.21-.06.39-.19.53-.13.14-.31.21-.54.21h-3.1c-.2,0-.38-.06-.53-.19-.15-.13-.22-.3-.22-.53,0-.21.06-.39.19-.53.13-.14.31-.22.54-.22h3.11v-1.65h-3.11c-.43,0-.8.08-1.11.24s-.55.36-.74.59-.32.49-.41.77c-.08.28-.13.54-.13.78,0,.43.08.8.24,1.11s.36.55.59.74.49.32.77.41c.28.08.53.13.77.13h3.11c.43,0,.8-.08,1.11-.24.3-.16.55-.36.74-.59s.32-.49.41-.77c.08-.28.13-.53.13-.77v-2.42ZM52.53,51.36h-3.1c-.24,0-.41-.06-.53-.18-.12-.12-.18-.29-.18-.52v-4.75h-1.73v4.75c0,.45.08.82.24,1.13s.36.56.6.75c.24.19.51.33.79.41.28.08.55.13.79.13h3.11v-1.73ZM54.95,45.91h-1.73v7.87c0,.23-.06.4-.17.52-.12.12-.29.18-.52.18h-3.11v1.73h3.11c.16,0,.34-.02.52-.06s.36-.1.54-.18.35-.18.51-.31c.16-.13.31-.28.43-.46.12-.18.22-.39.3-.62.07-.24.11-.5.11-.8v-7.87ZM64,48.29c0-.43-.08-.8-.24-1.11-.16-.3-.36-.55-.59-.74-.24-.19-.49-.32-.77-.41-.28-.08-.53-.13-.77-.13h-3.79v1.64h3.79c.21,0,.39.07.53.2.14.13.21.31.21.54v2.41c0,.21-.06.39-.19.53-.13.14-.31.21-.54.21h-3.1c-.2,0-.38-.06-.53-.19-.15-.13-.22-.3-.22-.53,0-.21.06-.39.19-.53.13-.14.31-.22.54-.22h3.11v-1.65h-3.11c-.43,0-.8.08-1.11.24s-.55.36-.74.59-.32.49-.41.77c-.08.28-.13.54-.13.78,0,.43.08.8.24,1.11s.36.55.59.74.49.32.77.41c.28.08.53.13.77.13h3.11c.43,0,.8-.08,1.11-.24.3-.16.55-.36.74-.59s.32-.49.41-.77c.08-.28.13-.53.13-.77v-2.42Z"/>
</svg>