<?xml version="1.0" encoding="UTF-8"?>
<svg id="Layer_1" xmlns="http://www.w3.org/2000/svg" viewBox="0 0 64 64">
  <defs>
    <style>
      .cls-1 {
        fill: #231f20;
      }
    </style>
  </defs>
  <path class="cls-1" d="M26.92,32c0,3.21-2.61,5.82-5.82,5.82s-5.82-2.61-5.82-5.82,2.61-5.82,5.82-5.82,5.82,2.61,5.82,5.82ZM42.9,26.18c-3.21,0-5.82,2.61-5.82,5.82s2.61,5.82,5.82,5.82,5.82-2.61,5.82-5.82-2.61-5.82-5.82-5.82ZM64,10v44c0,5.52-4.48,10-10,10H10c-5.52,0-10-4.48-10-10V10C0,4.48,4.48,0,10,0h44c5.52,0,10,4.48,10,10ZM31.6,32c0-5.79-4.71-10.5-10.5-10.5-.05,0-.09,0-.14,0-.78.04-1.38.7-1.34,1.47,0,.02,0,.04,0,.06-4.32.7-7.63,4.45-7.63,8.97s3.31,8.26,7.63,8.97c0,.07-.01.13-.01.2.04.78.7,1.38,1.47,1.34,5.79,0,10.5-4.71,10.5-10.5ZM52,32c0-4.52-3.31-8.26-7.63-8.97,0-.07.01-.13.01-.2-.04-.78-.7-1.38-1.47-1.34-5.79,0-10.5,4.71-10.5,10.5s4.71,10.5,10.5,10.5c.05,0,.09,0,.14,0,.78-.04,1.38-.7,1.34-1.47,0-.02,0-.04,0-.06,4.32-.7,7.63-4.45,7.63-8.97Z"/>
</svg>