<?xml version="1.0" encoding="UTF-8"?>
<svg id="Layer_1" xmlns="http://www.w3.org/2000/svg" viewBox="0 0 64 64">
  <defs>
    <style>
      .cls-1 {
        fill: #fff;
      }

      .cls-2 {
        fill: #f4c20d;
      }

      .cls-3 {
        fill: #4786ec;
      }
    </style>
  </defs>
  <rect class="cls-1" width="64" height="64" rx="10" ry="10"/>
  <g>
    <path class="cls-2" d="M18.58,43.19c-6.17,0-11.19-5.02-11.19-11.19s5.02-11.19,11.19-11.19,11.19,5.02,11.19,11.19-5.02,11.19-11.19,11.19ZM18.58,24.84c-3.95,0-7.16,3.21-7.16,7.16s3.21,7.16,7.16,7.16,7.16-3.21,7.16-7.16-3.21-7.16-7.16-7.16h0Z"/>
    <path class="cls-3" d="M18.58,44.92c-.96.05-1.77-.69-1.81-1.65-.05-.96.69-1.77,1.65-1.81.06,0,.11,0,.17,0,5.22,0,9.46-4.25,9.46-9.46s-4.25-9.46-9.46-9.46c-.96.05-1.77-.69-1.81-1.65s.69-1.77,1.65-1.81c.06,0,.11,0,.17,0,7.13,0,12.92,5.8,12.92,12.92s-5.79,12.92-12.92,12.92Z"/>
    <path class="cls-2" d="M45.42,43.19c-6.17,0-11.19-5.02-11.19-11.19s5.02-11.19,11.19-11.19,11.19,5.02,11.19,11.19-5.02,11.19-11.19,11.19ZM45.42,24.84c-3.95,0-7.16,3.21-7.16,7.16s3.21,7.16,7.16,7.16,7.16-3.21,7.16-7.16-3.21-7.16-7.16-7.16h0Z"/>
    <path class="cls-3" d="M45.42,44.92c-7.13,0-12.92-5.8-12.92-12.92s5.8-12.92,12.92-12.92c.96-.05,1.77.69,1.81,1.65.05.96-.69,1.77-1.65,1.81-.06,0-.11,0-.17,0-5.22,0-9.46,4.25-9.46,9.46s4.25,9.46,9.46,9.46c.96-.05,1.77.69,1.81,1.65.05.96-.69,1.77-1.65,1.81-.06,0-.11,0-.17,0h0Z"/>
  </g>
</svg>