<?xml version="1.0" encoding="UTF-8"?>
<svg id="Layer_1" xmlns="http://www.w3.org/2000/svg" viewBox="0 0 64 64">
  <defs>
    <style>
      .cls-1 {
        fill: #fff;
      }

      .cls-2 {
        fill: #f4c20d;
      }

      .cls-3 {
        fill: #4786ec;
      }
    </style>
  </defs>
  <rect class="cls-1" width="64" height="64" rx="10" ry="10"/>
  <g>
    <path class="cls-2" d="M21.1,41.1c-5.02,0-9.1-4.08-9.1-9.1s4.08-9.1,9.1-9.1,9.1,4.08,9.1,9.1-4.08,9.1-9.1,9.1ZM21.1,26.18c-3.21,0-5.82,2.61-5.82,5.82s2.61,5.82,5.82,5.82,5.82-2.61,5.82-5.82-2.61-5.82-5.82-5.82h0Z"/>
    <path class="cls-3" d="M21.1,42.5c-.78.04-1.44-.56-1.47-1.34-.04-.78.56-1.44,1.34-1.47.05,0,.09,0,.14,0,4.24,0,7.69-3.45,7.69-7.69s-3.45-7.69-7.69-7.69c-.78.04-1.44-.56-1.47-1.34s.56-1.44,1.34-1.47c.05,0,.09,0,.14,0,5.79,0,10.5,4.71,10.5,10.5s-4.71,10.5-10.5,10.5Z"/>
    <path class="cls-2" d="M42.9,41.1c-5.01,0-9.1-4.08-9.1-9.1s4.08-9.1,9.1-9.1,9.1,4.08,9.1,9.1-4.08,9.1-9.1,9.1ZM42.9,26.18c-3.21,0-5.82,2.61-5.82,5.82s2.61,5.82,5.82,5.82,5.82-2.61,5.82-5.82-2.61-5.82-5.82-5.82h0Z"/>
    <path class="cls-3" d="M42.9,42.5c-5.79,0-10.5-4.71-10.5-10.5s4.71-10.5,10.5-10.5c.78-.04,1.44.56,1.47,1.34.04.78-.56,1.44-1.34,1.47-.05,0-.09,0-.14,0-4.24,0-7.69,3.45-7.69,7.69s3.45,7.69,7.69,7.69c.78-.04,1.44.56,1.47,1.34.04.78-.56,1.44-1.34,1.47-.05,0-.09,0-.14,0h0Z"/>
  </g>
</svg>