<?xml version="1.0" encoding="UTF-8"?>
<svg id="Layer_1" xmlns="http://www.w3.org/2000/svg" viewBox="0 0 64 64">
  <defs>
    <style>
      .cls-1 {
        fill: #f4c20d;
      }

      .cls-2 {
        fill: #4786ec;
      }
    </style>
  </defs>
  <g>
    <path class="cls-2" d="M49.56,44.3s-.07,0-.11,0c-6.78,0-12.3-5.52-12.3-12.31s5.52-12.31,12.3-12.31c.04,0,.07,0,.11,0s.07,0,.11,0c1.24-.06,2.2-1.12,2.14-2.36-.06-1.2-1.05-2.14-2.25-2.14-.04,0-.07,0-.11,0-9.27,0-16.8,7.54-16.8,16.8s7.54,16.8,16.8,16.8c.04,0,.07,0,.11,0s.07,0,.11,0c1.24-.06,2.2-1.12,2.14-2.36-.06-1.2-1.05-2.14-2.25-2.14ZM50.26,47.19c-.17.19-.4.3-.66.31h-.12s-.03,0-.03,0c-8.55,0-15.5-6.95-15.5-15.5s6.95-15.5,15.5-15.5h.06s.05,0,.05,0c.51,0,.92.4.95.91.03.52-.38.97-.9,1h-.12s-.03,0-.03,0c-7.5,0-13.6,6.1-13.6,13.61s6.1,13.61,13.6,13.61h.08s.03,0,.03,0c.51,0,.92.4.95.91.01.25-.07.5-.25.69Z"/>
    <g>
      <path class="cls-1" d="M64,32c0-7.23-5.3-13.22-12.21-14.35-.03.35-.13.68-.31.96,6.51.99,11.52,6.6,11.52,13.38s-5.02,12.4-11.53,13.39c.17.28.29.61.32.96,6.91-1.13,12.21-7.12,12.21-14.35Z"/>
      <path class="cls-1" d="M39.14,32c0,5.69,4.63,10.31,10.31,10.31s10.31-4.63,10.31-10.31-4.63-10.31-10.31-10.31-10.31,4.63-10.31,10.31ZM58.76,32c0,5.13-4.18,9.31-9.31,9.31s-9.31-4.18-9.31-9.31,4.18-9.31,9.31-9.31,9.31,4.18,9.31,9.31Z"/>
    </g>
  </g>
  <g>
    <path class="cls-2" d="M14.44,44.3s.07,0,.11,0c6.78,0,12.3-5.52,12.3-12.31s-5.52-12.31-12.3-12.31c-.04,0-.07,0-.11,0s-.07,0-.11,0c-1.24-.06-2.2-1.12-2.14-2.36.06-1.2,1.05-2.14,2.25-2.14.04,0,.07,0,.11,0,9.27,0,16.8,7.54,16.8,16.8s-7.54,16.8-16.8,16.8c-.04,0-.07,0-.11,0s-.07,0-.11,0c-1.24-.06-2.2-1.12-2.14-2.36.06-1.2,1.05-2.14,2.25-2.14ZM13.74,47.19c.17.19.4.3.66.31h.12s.03,0,.03,0c8.55,0,15.5-6.95,15.5-15.5s-6.95-15.5-15.5-15.5h-.06s-.05,0-.05,0c-.51,0-.92.4-.95.91-.03.52.38.97.9,1h.12s.03,0,.03,0c7.5,0,13.6,6.1,13.6,13.61s-6.1,13.61-13.6,13.61h-.08s-.03,0-.03,0c-.51,0-.92.4-.95.91-.01.25.07.5.25.69Z"/>
    <g>
      <path class="cls-1" d="M0,32c0-7.23,5.3-13.22,12.21-14.35.03.35.13.68.31.96-6.51.99-11.52,6.6-11.52,13.38s5.02,12.4,11.53,13.39c-.17.28-.29.61-.32.96-6.91-1.13-12.21-7.12-12.21-14.35Z"/>
      <path class="cls-1" d="M24.86,32c0,5.69-4.63,10.31-10.31,10.31s-10.31-4.63-10.31-10.31,4.63-10.31,10.31-10.31,10.31,4.63,10.31,10.31ZM5.24,32c0,5.13,4.18,9.31,9.31,9.31s9.31-4.18,9.31-9.31-4.18-9.31-9.31-9.31-9.31,4.18-9.31,9.31Z"/>
    </g>
  </g>
</svg>