<?xml version="1.0" encoding="UTF-8"?>
<svg id="Layer_1" xmlns="http://www.w3.org/2000/svg" viewBox="0 0 64 64">
  <defs>
    <style>
      .cls-1 {
        fill: #f4c20d;
      }

      .cls-2 {
        fill: #4786ec;
      }
    </style>
  </defs>
  <path class="cls-2" d="M6.88,37.12C3.09,37.13,0,34.06,0,30.27c0-1.83.73-3.59,2.02-4.88,2.51-2.53,6.54-2.71,9.27-.41.38.32.44.89.12,1.28-.32.38-.89.44-1.28.12-2.14-1.8-5.34-1.52-7.13.62-1.8,2.14-1.52,5.34.62,7.13,2.14,1.8,5.34,1.52,7.13-.62.57-.67.95-1.48,1.1-2.35h-4.99c-.5-.01-.9-.43-.88-.93.01-.48.4-.87.88-.88h5.97c.5,0,.9.4.91.9-.01,3.79-3.09,6.86-6.88,6.88Z"/>
  <path class="cls-2" d="M15.55,37.12c-.5,0-.91-.41-.91-.91v-11.94c-.01-.5.38-.92.88-.93.5-.01.92.38.93.88,0,.02,0,.03,0,.05v11.94c0,.5-.41.91-.91.91h0Z"/>
  <path class="cls-1" d="M22.38,36.59c-2.78,0-5.03-2.25-5.03-5.03,0-2.78,2.25-5.03,5.03-5.03s5.03,2.25,5.03,5.03h0c0,2.78-2.25,5.03-5.03,5.03ZM22.38,28.34c-1.78,0-3.22,1.44-3.22,3.22s1.44,3.22,3.22,3.22c1.78,0,3.22-1.44,3.22-3.22h0c0-1.78-1.44-3.22-3.22-3.22Z"/>
  <path class="cls-2" d="M22.38,37.37c-.43-.01-.77-.37-.76-.8.01-.41.34-.74.76-.76,2.35,0,4.25-1.9,4.25-4.25s-1.9-4.25-4.25-4.25c-.43-.01-.77-.37-.76-.8.01-.41.34-.74.76-.76,3.21,0,5.81,2.6,5.81,5.81s-2.6,5.81-5.81,5.81h0Z"/>
  <path class="cls-1" d="M34.44,36.59c-2.78,0-5.03-2.25-5.03-5.03,0-2.78,2.25-5.03,5.03-5.03,2.78,0,5.03,2.25,5.03,5.03h0c0,2.78-2.25,5.03-5.03,5.03ZM34.44,28.34c-1.78,0-3.22,1.44-3.22,3.22,0,1.78,1.44,3.22,3.22,3.22s3.22-1.44,3.22-3.22c0-1.78-1.44-3.22-3.22-3.22Z"/>
  <path class="cls-2" d="M34.44,37.37c-3.21,0-5.81-2.6-5.81-5.81s2.6-5.81,5.81-5.81c.43.01.77.37.76.8-.01.41-.34.74-.76.76-2.35,0-4.25,1.9-4.25,4.25s1.9,4.25,4.25,4.25c.43.01.77.37.76.8-.01.41-.34.74-.76.76Z"/>
  <path class="cls-2" d="M45.35,40.65c-.87,0-1.73-.23-2.48-.67-.43-.25-.58-.8-.33-1.23.25-.43.8-.58,1.23-.33,1.53.87,3.49.35,4.38-1.17.28-.49.43-1.04.43-1.6v-4.11c0-1.77-1.43-3.21-3.2-3.21-1.46,0-2.73.98-3.1,2.39-.07.27-.11.54-.11.82,0,1.77,1.44,3.21,3.21,3.21.2,0,.39-.02.59-.05.49-.09.96.23,1.05.72.09.49-.23.96-.72,1.05-2.72.51-5.34-1.29-5.84-4.01-.51-2.72,1.29-5.34,4.01-5.84,2.72-.51,5.34,1.29,5.84,4.01.06.3.08.61.08.92v4.11c0,2.27-1.52,4.25-3.72,4.83-.43.11-.87.17-1.32.17Z"/>
  <path class="cls-2" d="M52.18,37.12c-.5,0-.91-.3-.91-.68v-8.93c0-.37.41-.68.91-.68s.91.3.91.68v8.93c0,.38-.41.68-.91.68Z"/>
  <circle class="cls-2" cx="52.18" cy="25.09" r=".91"/>
  <path class="cls-2" d="M63.1,36.57c-.5,0-.9-.4-.9-.9h0v-4.11c0-1.77-1.43-3.21-3.2-3.21-1.46,0-2.73.98-3.1,2.39-.07.27-.11.54-.11.82,0,1.77,1.44,3.21,3.21,3.21.2,0,.39-.02.58-.05.49-.09.96.23,1.05.72.09.49-.23.96-.72,1.05-2.72.51-5.34-1.29-5.84-4.01s1.29-5.34,4.01-5.84,5.34,1.29,5.84,4.01c.06.3.08.61.08.91v4.11c0,.5-.4.9-.9.9Z"/>
</svg>