<?xml version="1.0" encoding="UTF-8"?>
<svg id="Layer_1" xmlns="http://www.w3.org/2000/svg" viewBox="0 0 64 64">
  <defs>
    <style>
      .cls-1 {
        fill: #231f20;
      }
    </style>
  </defs>
  <path class="cls-1" d="M49.51,18.4,51.8,46.44c.06,1.24-.9,2.3-2.14,2.36-.04,0-.07,0-.11,0s-.07,0-.11,0c-9.27,0-16.8-7.54-16.8-16.8s7.54-16.8,16.8-16.8c.04,0,.07,0,.11,0,1.19,0,2.19.94,2.25,2.14.06,1.24-.9,2.3-2.14,2.36-.04,0-.07,0-.11,0s-.07,0-.11,0c-6.78,0-12.3,5.52-12.3,12.31s5.52,12.31,12.3,12.31c.04,0,.07,0,.11,0,1.19,0,2.19.94,2.25,2.14ZM50.51,46.51c-.02-.51-.44-.91-.95-.91h-.03s-.08,0-.08,0c-7.5,0-13.6-6.1-13.6-13.61s6.1-13.61,13.6-13.61h.06s.09,0,.09,0c.52-.03.93-.47.9-1-.02-.51-.44-.91-.95-.91h-.05s-.03,0-.03,0h-.03c-8.55,0-15.5,6.95-15.5,15.5s6.95,15.5,15.5,15.5h.06s.09,0,.09,0c.25-.01.49-.12.66-.31.17-.19.26-.43.25-.69ZM64,32c0-7.23-5.3-13.22-12.21-14.35-.03.35-.13.68-.31.96,6.51.99,11.52,6.6,11.52,13.38s-5.02,12.4-11.53,13.39c.17.28.29.61.32.96,6.91-1.13,12.21-7.12,12.21-14.35ZM49.45,21.69c5.69,0,10.31,4.63,10.31,10.31s-4.63,10.31-10.31,10.31-10.31-4.63-10.31-10.31,4.63-10.31,10.31-10.31ZM49.45,22.69c-5.13,0-9.31,4.18-9.31,9.31s4.18,9.31,9.31,9.31,9.31-4.18,9.31-9.31-4.18-9.31-9.31-9.31ZM12.2,46.44c-.06,1.24.9,2.3,2.14,2.36.04,0,.07,0,.11,0s.07,0,.11,0c9.27,0,16.8-7.54,16.8-16.8S23.82,15.2,14.55,15.2c-.04,0-.07,0-.11,0-1.19,0-2.19.94-2.25,2.14-.06,1.24.9,2.3,2.14,2.36.04,0,.07,0,.11,0s.07,0,.11,0c6.78,0,12.3,5.52,12.3,12.31s-5.52,12.31-12.3,12.31c-.04,0-.07,0-.11,0-1.19,0-2.19.94-2.25,2.14ZM13.49,46.51c.02-.51.44-.91.95-.91h.03s.08,0,.08,0c7.5,0,13.6-6.1,13.6-13.61s-6.1-13.61-13.6-13.61h-.06s-.09,0-.09,0c-.52-.03-.93-.47-.9-1,.02-.51.44-.91.95-.91h.05s.03,0,.03,0h.03c8.55,0,15.5,6.95,15.5,15.5s-6.95,15.5-15.5,15.5h-.06s-.09,0-.09,0c-.25-.01-.49-.12-.66-.31-.17-.19-.26-.43-.25-.69ZM12.21,46.35c.03-.35.15-.68.32-.96-6.51-.98-11.53-6.6-11.53-13.39s5.01-12.4,11.52-13.38c-.17-.29-.28-.61-.31-.96C5.3,18.78,0,24.77,0,32s5.3,13.22,12.21,14.35ZM14.55,21.69c-5.69,0-10.31,4.63-10.31,10.31s4.63,10.31,10.31,10.31,10.31-4.63,10.31-10.31-4.63-10.31-10.31-10.31ZM14.55,22.69c5.13,0,9.31,4.18,9.31,9.31s-4.18,9.31-9.31,9.31-9.31-4.18-9.31-9.31,4.18-9.31,9.31-9.31Z"/>
</svg>