<?xml version="1.0" encoding="UTF-8"?>
<svg id="Layer_1" xmlns="http://www.w3.org/2000/svg" viewBox="0 0 64 64">
  <defs>
    <style>
      .cls-1 {
        fill: #231f20;
      }
    </style>
  </defs>
  <path class="cls-1" d="M12.83,35.75c0,.06-.02.13-.02.19,0,1.23,1,2.23,2.23,2.23,9.18,0,16.64-7.47,16.64-16.64S24.21,4.88,15.04,4.88c-1.23,0-2.23,1-2.23,2.23,0,.06.01.12.02.19C5.93,8.37.62,14.33.62,21.52s5.3,13.16,12.2,14.22ZM15.04,12.3c5.08,0,9.22,4.14,9.22,9.22s-4.14,9.22-9.22,9.22-9.22-4.14-9.22-9.22,4.14-9.22,9.22-9.22ZM49.59,38.16h0s0,0,0,0c1.23,0,2.23-1,2.23-2.23,0-.06-.01-.12-.02-.19,6.9-1.07,12.2-7.03,12.2-14.22s-5.3-13.15-12.2-14.22c0-.06.02-.12.02-.19,0-1.23-1-2.23-2.23-2.23-9.17,0-16.64,7.46-16.64,16.64s7.46,16.64,16.64,16.64ZM58.81,21.52c0,5.09-4.14,9.22-9.22,9.22s-9.22-4.14-9.22-9.22,4.14-9.22,9.22-9.22,9.22,4.13,9.22,9.22ZM13.87,48.63c-.01,3.82-3.11,6.92-6.93,6.93h0c-3.83,0-6.94-3.1-6.94-6.93s3.1-6.94,6.93-6.94c1.63,0,3.22.57,4.47,1.63.39.32.45.89.14,1.28-.32.39-.89.45-1.28.14,0,0-.02-.02-.03-.02-2.16-1.81-5.38-1.53-7.19.63-1.81,2.16-1.53,5.38.63,7.19,2.16,1.81,5.38,1.53,7.19-.63.57-.68.95-1.49,1.11-2.37h-5.02c-.5-.01-.9-.43-.89-.94.01-.49.4-.88.89-.89h6.01c.5,0,.91.41.91.91ZM16.59,42.57s0,.03,0,.05v12.03c0,.5-.41.91-.91.91-.5,0-.91-.41-.91-.91h0v-12.03c-.01-.5.39-.92.89-.94.5-.01.92.39.94.89ZM22.56,44.88c-2.8,0-5.07,2.27-5.07,5.07s2.27,5.07,5.07,5.07c2.8,0,5.07-2.27,5.07-5.07h0c0-2.8-2.27-5.07-5.07-5.07ZM22.56,53.2c-1.79,0-3.24-1.45-3.24-3.25,0-1.79,1.45-3.24,3.25-3.24,1.79,0,3.24,1.45,3.24,3.25,0,1.79-1.45,3.24-3.25,3.24ZM33.6,44.88c-2.8,0-5.07,2.27-5.07,5.07s2.27,5.07,5.07,5.07c2.8,0,5.07-2.27,5.07-5.07h0c0-2.8-2.27-5.07-5.07-5.07ZM33.59,53.2c-1.79,0-3.24-1.45-3.24-3.25s1.45-3.24,3.25-3.24c1.79,0,3.24,1.45,3.24,3.25,0,1.79-1.45,3.24-3.25,3.24ZM49.66,49.93v4.14c0,2.29-1.54,4.28-3.75,4.87-.43.12-.88.18-1.32.18-.88,0-1.74-.23-2.5-.67-.44-.25-.58-.81-.33-1.24.25-.44.81-.58,1.24-.33,1.55.89,3.52.36,4.41-1.18.28-.49.43-1.05.43-1.61v-4.14c0-1.78-1.45-3.23-3.23-3.23-1.47,0-2.75.99-3.12,2.41-.07.27-.11.55-.11.82,0,1.78,1.45,3.23,3.23,3.23.2,0,.4-.02.59-.05.49-.09.97.23,1.06.73.09.49-.23.97-.73,1.06-2.74.51-5.38-1.3-5.89-4.04-.06-.31-.09-.62-.09-.93,0-.44.06-.87.17-1.29.72-2.69,3.49-4.3,6.18-3.58,2.21.59,3.74,2.59,3.75,4.87ZM52.39,45.88v9c0,.38-.41.68-.91.68s-.91-.31-.91-.68v-9c0-.38.41-.68.91-.68s.91.31.91.68ZM52.39,43.43c0,.5-.41.91-.91.91s-.91-.41-.91-.91.41-.91.91-.91.91.41.91.91ZM63.3,49.03c.06.3.08.61.08.92v4.14c0,.5-.41.91-.91.91-.5,0-.91-.41-.91-.91v-4.14c0-1.78-1.45-3.23-3.23-3.23-1.47,0-2.75.99-3.12,2.41-.07.27-.11.55-.11.82,0,1.78,1.45,3.23,3.23,3.23.2,0,.4-.02.59-.05.49-.1.97.22,1.07.71.1.49-.22.97-.71,1.07,0,0-.02,0-.03,0-2.74.51-5.38-1.3-5.89-4.04s1.3-5.38,4.04-5.89c2.74-.51,5.38,1.3,5.89,4.04Z"/>
</svg>