<?xml version="1.0" encoding="UTF-8"?>
<svg id="Layer_1" xmlns="http://www.w3.org/2000/svg" viewBox="0 0 64 64">
  <defs>
    <style>
      .cls-1 {
        fill: #231f20;
      }
    </style>
  </defs>
  <path class="cls-1" d="M5.11,25.74s-.03,0-.04,0c-.44.01-.78.38-.77.81,0,.02.01.04.01.05C1.87,26.99,0,29.08,0,31.63c0,2.56,1.88,4.65,4.34,5.03,0,.03-.02.05-.02.08,0,.44.35.79.79.79h0c3.16-.06,5.71-2.61,5.78-5.78.07-3.26-2.52-5.95-5.78-6.01ZM1.84,31.63c0-1.8,1.46-3.27,3.27-3.27h0c1.8,0,3.26,1.46,3.27,3.27h0c0,1.81-1.46,3.27-3.27,3.27-1.8,0-3.27-1.46-3.27-3.27ZM18.15,26.6s.02-.06.02-.1c-.01-.44-.38-.78-.81-.77-3.16.06-5.71,2.61-5.78,5.78-.07,3.26,2.52,5.95,5.78,6.01h0c.44,0,.79-.35.79-.79,0-.03-.01-.05-.02-.08,2.45-.38,4.33-2.47,4.34-5.03,0-2.55-1.87-4.64-4.31-5.03ZM17.36,34.9c-1.8,0-3.27-1.46-3.27-3.27,0-1.8,1.46-3.27,3.27-3.27h0c1.8,0,3.27,1.47,3.27,3.27,0,1.8-1.46,3.27-3.27,3.27ZM32.72,31.63c0,2.41-1.96,4.37-4.38,4.38-2.42,0-4.38-1.96-4.38-4.38,0-2.42,1.96-4.38,4.38-4.38,1.03,0,2.03.36,2.82,1.02.24.2.28.57.07.81-.2.24-.57.28-.81.07-1.36-1.14-3.4-.97-4.54.4-1.14,1.36-.97,3.4.4,4.54,1.36,1.14,3.4.97,4.54-.4.36-.43.6-.94.7-1.49h-3.17c-.32,0-.58-.26-.58-.58s.26-.58.58-.58h3.8c.32,0,.58.26.58.58ZM34.44,27.83h0v7.6c0,.32-.26.58-.58.58s-.58-.26-.58-.58v-7.6c0-.32.26-.58.58-.58.32,0,.58.26.58.58ZM38.21,29.27c-1.77,0-3.2,1.43-3.2,3.2s1.43,3.2,3.2,3.2c1.77,0,3.2-1.43,3.2-3.2h0c0-1.77-1.43-3.21-3.2-3.21ZM38.21,34.52c-1.13,0-2.05-.92-2.05-2.05,0-1.13.92-2.05,2.05-2.05h0c1.13,0,2.05.92,2.05,2.05,0,1.13-.92,2.05-2.05,2.05ZM45.18,29.27c-1.77,0-3.2,1.43-3.2,3.2s1.43,3.2,3.2,3.2c1.77,0,3.2-1.43,3.2-3.2,0,0,0,0,0,0,0-1.77-1.43-3.2-3.2-3.2ZM45.18,34.52c-1.13,0-2.05-.92-2.05-2.05,0-1.13.92-2.05,2.05-2.05h0c1.13,0,2.05.92,2.05,2.05,0,1.13-.92,2.05-2.05,2.05ZM55.33,32.46v2.62c0,1.44-.97,2.7-2.37,3.07-.27.07-.56.11-.84.11-.55,0-1.1-.15-1.58-.43-.28-.16-.37-.51-.22-.78.16-.28.51-.37.78-.22,0,0,0,0,0,0,.98.56,2.22.22,2.79-.75.18-.31.27-.66.27-1.02v-2.62c0-1.13-.91-2.04-2.03-2.05-.93,0-1.75.63-1.98,1.53-.05.17-.07.34-.07.52,0,1.13.91,2.04,2.04,2.04.13,0,.25-.01.37-.03.31-.06.62.14.68.45.06.31-.14.62-.45.68,0,0-.02,0-.02,0-.19.04-.39.05-.58.05-1.76,0-3.19-1.43-3.19-3.19s1.43-3.19,3.19-3.19,3.19,1.43,3.19,3.19ZM57.05,29.9v5.68c0,.24-.26.43-.58.43s-.58-.19-.58-.43v-5.68c0-.24.26-.43.58-.43s.58.19.58.43ZM57.05,28.35c0,.32-.26.58-.58.58s-.58-.26-.58-.58.26-.58.58-.58.58.26.58.58ZM64,32.47v2.61c0,.32-.26.57-.57.57h0c-.32,0-.57-.26-.57-.57h0v-2.61c0-1.13-.91-2.04-2.04-2.04-.93,0-1.74.62-1.97,1.52-.05.17-.07.34-.07.52,0,1.13.91,2.04,2.04,2.04.13,0,.25-.01.37-.03.31-.06.62.14.68.45.06.31-.14.62-.45.68,0,0-.02,0-.02,0-1.73.32-3.4-.82-3.72-2.56-.04-.19-.05-.39-.05-.58,0-.28.04-.55.11-.82.45-1.7,2.2-2.72,3.9-2.27,1.4.37,2.37,1.64,2.37,3.08Z"/>
</svg>