<?xml version="1.0" encoding="UTF-8"?>
<svg id="Layer_1" xmlns="http://www.w3.org/2000/svg" viewBox="0 0 64 64">
  <defs>
    <style>
      .cls-1 {
        fill: #231f20;
      }
    </style>
  </defs>
  <path class="cls-1" d="M25.74,32c0,3.95-3.21,7.16-7.16,7.16s-7.16-3.21-7.16-7.16,3.21-7.16,7.16-7.16,7.16,3.21,7.16,7.16ZM45.42,24.84c-3.95,0-7.16,3.21-7.16,7.16s3.21,7.16,7.16,7.16,7.16-3.21,7.16-7.16-3.21-7.16-7.16-7.16ZM64,10v44c0,5.52-4.48,10-10,10H10c-5.52,0-10-4.48-10-10V10C0,4.48,4.48,0,10,0h44c5.52,0,10,4.48,10,10ZM31.51,32c0-7.13-5.79-12.92-12.92-12.92-.06,0-.11,0-.17,0-.96.05-1.69.86-1.65,1.81,0,.03,0,.05.01.07-5.32.87-9.39,5.48-9.39,11.03s4.08,10.17,9.39,11.03c0,.08-.02.16-.01.24.05.96.86,1.69,1.81,1.65,7.13,0,12.92-5.8,12.92-12.92ZM56.61,32c0-5.56-4.08-10.17-9.39-11.03,0-.08.02-.16.01-.24-.05-.96-.86-1.69-1.81-1.65-7.13,0-12.92,5.8-12.92,12.92s5.8,12.92,12.92,12.92c.06,0,.11,0,.17,0,.96-.05,1.69-.86,1.65-1.81,0-.03,0-.05-.01-.07,5.32-.87,9.39-5.48,9.39-11.03Z"/>
</svg>